<svg xmlns="http://www.w3.org/2000/svg" width="61" height="60" viewBox="0 0 61 60" fill="none">
  <path fill-rule="evenodd" clip-rule="evenodd" d="M16.0404 23.7458H13.8854C11.6172 23.7458 9.44198 24.777 7.83818 26.6126C6.23438 28.4483 5.33337 30.9379 5.33337 33.5339C5.33337 36.1299 6.23438 38.6195 7.83818 40.4552C9.44198 42.2908 11.6172 43.322 13.8854 43.322H29.2789C29.3431 43.3221 29.4072 43.3216 29.4713 43.3206C29.5355 43.3216 29.5996 43.3221 29.6638 43.322H45.0573C47.3254 43.322 49.5007 42.2908 51.1045 40.4552C52.7083 38.6195 53.6093 36.1299 53.6093 33.5339C53.6093 30.9379 52.7083 28.4483 51.1045 26.6126C49.5007 24.777 47.3254 23.7458 45.0573 23.7458H42.9022C42.2623 20.9092 40.9401 18.3349 39.0857 16.3154C37.2314 14.2959 34.9193 12.9122 32.4123 12.3216C31.4404 12.0926 30.4544 11.9864 29.4713 12.0014C28.4883 11.9864 27.5023 12.0926 26.5304 12.3216C24.0233 12.9122 21.7113 14.2959 19.8569 16.3154C18.0026 18.3349 16.6804 20.9092 16.0404 23.7458Z" fill="#5ECCFF"/>
  <path fill-rule="evenodd" clip-rule="evenodd" d="M17.7646 25.7458H15.6095C13.3414 25.7458 11.1661 26.777 9.56232 28.6126C7.95851 30.4483 7.05751 32.9379 7.05751 35.5339C7.05751 38.1299 7.95851 40.6195 9.56232 42.4552C11.1661 44.2908 13.3414 45.322 15.6095 45.322H31.003C31.0672 45.3221 31.1313 45.3216 31.1955 45.3206C31.2596 45.3216 31.3237 45.3221 31.3879 45.322H46.7814C49.0496 45.322 51.2248 44.2908 52.8286 42.4552C54.4324 40.6195 55.3334 38.1299 55.3334 35.5339C55.3334 32.9379 54.4324 30.4483 52.8286 28.6126C51.2248 26.777 49.0496 25.7458 46.7814 25.7458H44.6264C43.9864 22.9092 42.6642 20.3349 40.8099 18.3154C38.9555 16.2959 36.6435 14.9122 34.1364 14.3216C33.1645 14.0926 32.1785 13.9864 31.1955 14.0014C30.2124 13.9864 29.2264 14.0926 28.2545 14.3216C25.7475 14.9122 23.4354 16.2959 21.5811 18.3154C19.7267 20.3349 18.4045 22.9092 17.7646 25.7458Z" fill="#AFE5FF"/>
  <path d="M36.3334 32V34.6667C36.3334 35.0203 36.1929 35.3594 35.9429 35.6095C35.6928 35.8595 35.3537 36 35.0001 36H25.6667C25.3131 36 24.974 35.8595 24.7239 35.6095C24.4739 35.3594 24.3334 35.0203 24.3334 34.6667V32" stroke="#207399" stroke-width="2" stroke-linecap="round" stroke-linejoin="round"/>
  <path d="M27.0001 28.6665L30.3334 31.9999L33.6667 28.6665" stroke="#207399" stroke-width="2" stroke-linecap="round" stroke-linejoin="round"/>
  <path d="M30.3334 32V24" stroke="#207399" stroke-width="2" stroke-linecap="round" stroke-linejoin="round"/>
</svg>