<svg xmlns="http://www.w3.org/2000/svg" width="56" height="56" viewBox="0 0 56 56" fill="none">
  <path fill-rule="evenodd" clip-rule="evenodd" d="M14.9933 23.9627H12.9818C10.8649 23.9627 8.83466 24.9252 7.33782 26.6384C5.84093 28.3517 5 30.6754 5 33.0983C5 35.5212 5.84093 37.8449 7.33782 39.5582C8.83466 41.2714 10.8649 42.2339 12.9818 42.2339H27.3491C27.409 42.234 27.4688 42.2335 27.5288 42.2326C27.5886 42.2335 27.6484 42.234 27.7083 42.2339H42.0756C44.1926 42.2339 46.2228 41.2714 47.7197 39.5582C49.2165 37.8449 50.0575 35.5212 50.0575 33.0983C50.0575 30.6754 49.2165 28.3517 47.7197 26.6384C46.2228 24.9252 44.1926 23.9627 42.0756 23.9627H40.0643C39.4669 21.3152 38.2329 18.9126 36.5022 17.0277C34.7714 15.1428 32.6136 13.8514 30.2736 13.3002C29.3665 13.0864 28.4462 12.9873 27.5288 13.0013C26.6112 12.9873 25.6909 13.0864 24.7838 13.3002C22.444 13.8514 20.286 15.1428 18.5553 17.0277C16.8245 18.9126 15.5905 21.3152 14.9933 23.9627Z" fill="#36BFFF"/>
  <path d="M33.2 29.4668V31.9557C33.2 32.2857 33.0689 32.6022 32.8355 32.8357C32.6021 33.069 32.2856 33.2001 31.9556 33.2001H23.2444C22.9144 33.2001 22.5979 33.069 22.3645 32.8357C22.1311 32.6022 22 32.2857 22 31.9557V29.4668" stroke="white" stroke-width="2" stroke-linecap="round" stroke-linejoin="round"/>
  <path d="M24.4889 26.3555L27.6 29.4666L30.7111 26.3555" stroke="white" stroke-width="2" stroke-linecap="round" stroke-linejoin="round"/>
  <path d="M27.6 29.4667V22" stroke="white" stroke-width="2" stroke-linecap="round" stroke-linejoin="round"/>
</svg>