<svg width="200" height="200" viewBox="0 0 200 200" fill="none" xmlns="http://www.w3.org/2000/svg">
<circle cx="100" cy="100" r="100" fill="#F0F1FF"/>
<path fill-rule="evenodd" clip-rule="evenodd" d="M100 200C155.228 200 200 155.228 200 100C200 44.7715 155.228 0 100 0C44.7715 0 0 44.7715 0 100C0 155.228 44.7715 200 100 200ZM100 185.714C147.339 185.714 185.714 147.339 185.714 100C185.714 52.6613 147.339 14.2857 100 14.2857C52.6613 14.2857 14.2857 52.6613 14.2857 100C14.2857 147.339 52.6613 185.714 100 185.714Z" fill="#D9D9D9"/>
<path fill-rule="evenodd" clip-rule="evenodd" d="M100 200C155.228 200 200 155.228 200 100C200 44.7715 155.228 0 100 0C44.7715 0 0 44.7715 0 100C0 155.228 44.7715 200 100 200ZM100 185.714C147.339 185.714 185.714 147.339 185.714 100C185.714 52.6613 147.339 14.2857 100 14.2857C52.6613 14.2857 14.2857 52.6613 14.2857 100C14.2857 147.339 52.6613 185.714 100 185.714Z" fill="url(#paint0_linear_537_994273)"/>
<path d="M75.1413 60.6389C74.2954 58.4994 77.1381 56.8582 78.568 58.6605L106.773 94.211C107.532 95.1677 107.264 96.5755 106.207 97.1861L94.6861 103.837C93.6285 104.448 92.2752 103.977 91.8262 102.841L75.1413 60.6389Z" fill="#F04438"/>
<path d="M122.146 142.054C123.576 143.856 126.419 142.215 125.573 140.075L108.888 97.8735C108.439 96.7378 107.086 96.2661 106.028 96.8768L94.5078 103.528C93.4502 104.139 93.182 105.547 93.9411 106.503L122.146 142.054Z" fill="#D0D5DD"/>
<circle cx="100.357" cy="100.357" r="9.64286" fill="#344054"/>
<path d="M91.416 39C91.3093 39 91.2187 38.968 91.144 38.904C91.08 38.8293 91.048 38.7387 91.048 38.632V36.328H85.864C85.7573 36.328 85.6667 36.296 85.592 36.232C85.528 36.1573 85.496 36.0667 85.496 35.96V35.32C85.496 35.2773 85.5067 35.2133 85.528 35.128C85.56 35.032 85.608 34.936 85.672 34.84L90.472 28.072C90.6 27.8907 90.7973 27.8 91.064 27.8H92.216C92.3227 27.8 92.408 27.8373 92.472 27.912C92.5467 27.976 92.584 28.0613 92.584 28.168V34.936H94.024C94.1413 34.936 94.232 34.9733 94.296 35.048C94.3707 35.112 94.408 35.1973 94.408 35.304V35.96C94.408 36.0667 94.3707 36.1573 94.296 36.232C94.232 36.296 94.1467 36.328 94.04 36.328H92.584V38.632C92.584 38.7387 92.5467 38.8293 92.472 38.904C92.408 38.968 92.3227 39 92.216 39H91.416ZM87.208 34.968H91.064V29.48L87.208 34.968ZM100.01 39.16C99.2735 39.16 98.6495 39.048 98.1375 38.824C97.6362 38.5893 97.2255 38.2693 96.9055 37.864C96.5855 37.4587 96.3508 36.9947 96.2015 36.472C96.0628 35.9493 95.9828 35.3947 95.9615 34.808C95.9508 34.52 95.9402 34.216 95.9295 33.896C95.9295 33.576 95.9295 33.256 95.9295 32.936C95.9402 32.6053 95.9508 32.2907 95.9615 31.992C95.9722 31.4053 96.0522 30.8507 96.2015 30.328C96.3615 29.7947 96.5962 29.3307 96.9055 28.936C97.2255 28.5307 97.6415 28.216 98.1535 27.992C98.6655 27.7573 99.2842 27.64 100.01 27.64C100.746 27.64 101.364 27.7573 101.866 27.992C102.378 28.216 102.794 28.5307 103.114 28.936C103.434 29.3307 103.668 29.7947 103.818 30.328C103.978 30.8507 104.063 31.4053 104.074 31.992C104.084 32.2907 104.09 32.6053 104.09 32.936C104.1 33.256 104.1 33.576 104.09 33.896C104.09 34.216 104.084 34.52 104.074 34.808C104.063 35.3947 103.978 35.9493 103.818 36.472C103.668 36.9947 103.434 37.4587 103.114 37.864C102.804 38.2693 102.394 38.5893 101.882 38.824C101.38 39.048 100.756 39.16 100.01 39.16ZM100.01 37.8C100.842 37.8 101.455 37.528 101.85 36.984C102.255 36.4293 102.463 35.6773 102.474 34.728C102.495 34.4187 102.506 34.12 102.506 33.832C102.506 33.5333 102.506 33.24 102.506 32.952C102.506 32.6533 102.495 32.36 102.474 32.072C102.463 31.144 102.255 30.4027 101.85 29.848C101.455 29.2827 100.842 29 100.01 29C99.1882 29 98.5748 29.2827 98.1695 29.848C97.7748 30.4027 97.5668 31.144 97.5455 32.072C97.5455 32.36 97.5402 32.6533 97.5295 32.952C97.5295 33.24 97.5295 33.5333 97.5295 33.832C97.5402 34.12 97.5455 34.4187 97.5455 34.728C97.5668 35.6773 97.7802 36.4293 98.1855 36.984C98.5908 37.528 99.1988 37.8 100.01 37.8ZM111.51 39C111.403 39 111.312 38.968 111.238 38.904C111.174 38.8293 111.142 38.7387 111.142 38.632V36.328H105.958C105.851 36.328 105.76 36.296 105.686 36.232C105.622 36.1573 105.59 36.0667 105.59 35.96V35.32C105.59 35.2773 105.6 35.2133 105.622 35.128C105.654 35.032 105.702 34.936 105.766 34.84L110.566 28.072C110.694 27.8907 110.891 27.8 111.158 27.8H112.31C112.416 27.8 112.502 27.8373 112.566 27.912C112.64 27.976 112.678 28.0613 112.678 28.168V34.936H114.118C114.235 34.936 114.326 34.9733 114.39 35.048C114.464 35.112 114.502 35.1973 114.502 35.304V35.96C114.502 36.0667 114.464 36.1573 114.39 36.232C114.326 36.296 114.24 36.328 114.134 36.328H112.678V38.632C112.678 38.7387 112.64 38.8293 112.566 38.904C112.502 38.968 112.416 39 112.31 39H111.51ZM107.302 34.968H111.158V29.48L107.302 34.968Z" fill="#344054"/>
<path d="M27.8447 106.429C27.738 106.429 27.6474 106.397 27.5727 106.333C27.5087 106.258 27.4767 106.167 27.4767 106.061V103.757H22.2927C22.186 103.757 22.0954 103.725 22.0207 103.661C21.9567 103.586 21.9247 103.495 21.9247 103.389V102.749C21.9247 102.706 21.9354 102.642 21.9567 102.557C21.9887 102.461 22.0367 102.365 22.1007 102.269L26.9007 95.5006C27.0287 95.3193 27.226 95.2286 27.4927 95.2286H28.6447C28.7514 95.2286 28.8367 95.2659 28.9007 95.3406C28.9754 95.4046 29.0127 95.4899 29.0127 95.5966V102.365H30.4527C30.57 102.365 30.6607 102.402 30.7247 102.477C30.7994 102.541 30.8367 102.626 30.8367 102.733V103.389C30.8367 103.495 30.7994 103.586 30.7247 103.661C30.6607 103.725 30.5754 103.757 30.4687 103.757H29.0127V106.061C29.0127 106.167 28.9754 106.258 28.9007 106.333C28.8367 106.397 28.7514 106.429 28.6447 106.429H27.8447ZM23.6367 102.397H27.4927V96.9086L23.6367 102.397ZM36.4382 106.589C35.7022 106.589 35.0782 106.477 34.5662 106.253C34.0649 106.018 33.6542 105.698 33.3342 105.293C33.0142 104.887 32.7795 104.423 32.6302 103.901C32.4915 103.378 32.4115 102.823 32.3902 102.237C32.3795 101.949 32.3689 101.645 32.3582 101.325C32.3582 101.005 32.3582 100.685 32.3582 100.365C32.3689 100.034 32.3795 99.7193 32.3902 99.4206C32.4009 98.8339 32.4809 98.2793 32.6302 97.7566C32.7902 97.2233 33.0249 96.7593 33.3342 96.3646C33.6542 95.9593 34.0702 95.6446 34.5822 95.4206C35.0942 95.1859 35.7129 95.0686 36.4382 95.0686C37.1742 95.0686 37.7929 95.1859 38.2942 95.4206C38.8062 95.6446 39.2222 95.9593 39.5422 96.3646C39.8622 96.7593 40.0969 97.2233 40.2462 97.7566C40.4062 98.2793 40.4915 98.8339 40.5022 99.4206C40.5129 99.7193 40.5182 100.034 40.5182 100.365C40.5289 100.685 40.5289 101.005 40.5182 101.325C40.5182 101.645 40.5129 101.949 40.5022 102.237C40.4915 102.823 40.4062 103.378 40.2462 103.901C40.0969 104.423 39.8622 104.887 39.5422 105.293C39.2329 105.698 38.8222 106.018 38.3102 106.253C37.8089 106.477 37.1849 106.589 36.4382 106.589ZM36.4382 105.229C37.2702 105.229 37.8835 104.957 38.2782 104.413C38.6835 103.858 38.8915 103.106 38.9022 102.157C38.9235 101.847 38.9342 101.549 38.9342 101.261C38.9342 100.962 38.9342 100.669 38.9342 100.381C38.9342 100.082 38.9235 99.7886 38.9022 99.5006C38.8915 98.5726 38.6835 97.8313 38.2782 97.2766C37.8835 96.7113 37.2702 96.4286 36.4382 96.4286C35.6169 96.4286 35.0035 96.7113 34.5982 97.2766C34.2035 97.8313 33.9955 98.5726 33.9742 99.5006C33.9742 99.7886 33.9689 100.082 33.9582 100.381C33.9582 100.669 33.9582 100.962 33.9582 101.261C33.9689 101.549 33.9742 101.847 33.9742 102.157C33.9955 103.106 34.2089 103.858 34.6142 104.413C35.0195 104.957 35.6275 105.229 36.4382 105.229ZM47.9385 106.429C47.8318 106.429 47.7411 106.397 47.6665 106.333C47.6025 106.258 47.5705 106.167 47.5705 106.061V103.757H42.3865C42.2798 103.757 42.1891 103.725 42.1145 103.661C42.0505 103.586 42.0185 103.495 42.0185 103.389V102.749C42.0185 102.706 42.0291 102.642 42.0505 102.557C42.0825 102.461 42.1305 102.365 42.1945 102.269L46.9945 95.5006C47.1225 95.3193 47.3198 95.2286 47.5865 95.2286H48.7385C48.8451 95.2286 48.9305 95.2659 48.9945 95.3406C49.0691 95.4046 49.1065 95.4899 49.1065 95.5966V102.365H50.5465C50.6638 102.365 50.7545 102.402 50.8185 102.477C50.8931 102.541 50.9305 102.626 50.9305 102.733V103.389C50.9305 103.495 50.8931 103.586 50.8185 103.661C50.7545 103.725 50.6691 103.757 50.5625 103.757H49.1065V106.061C49.1065 106.167 49.0691 106.258 48.9945 106.333C48.9305 106.397 48.8451 106.429 48.7385 106.429H47.9385ZM43.7305 102.397H47.5865V96.9086L43.7305 102.397Z" fill="#344054"/>
<path d="M91.416 176C91.3093 176 91.2187 175.968 91.144 175.904C91.08 175.829 91.048 175.739 91.048 175.632V173.328H85.864C85.7573 173.328 85.6667 173.296 85.592 173.232C85.528 173.157 85.496 173.067 85.496 172.96V172.32C85.496 172.277 85.5067 172.213 85.528 172.128C85.56 172.032 85.608 171.936 85.672 171.84L90.472 165.072C90.6 164.891 90.7973 164.8 91.064 164.8H92.216C92.3227 164.8 92.408 164.837 92.472 164.912C92.5467 164.976 92.584 165.061 92.584 165.168V171.936H94.024C94.1413 171.936 94.232 171.973 94.296 172.048C94.3707 172.112 94.408 172.197 94.408 172.304V172.96C94.408 173.067 94.3707 173.157 94.296 173.232C94.232 173.296 94.1467 173.328 94.04 173.328H92.584V175.632C92.584 175.739 92.5467 175.829 92.472 175.904C92.408 175.968 92.3227 176 92.216 176H91.416ZM87.208 171.968H91.064V166.48L87.208 171.968ZM100.01 176.16C99.2735 176.16 98.6495 176.048 98.1375 175.824C97.6362 175.589 97.2255 175.269 96.9055 174.864C96.5855 174.459 96.3508 173.995 96.2015 173.472C96.0628 172.949 95.9828 172.395 95.9615 171.808C95.9508 171.52 95.9402 171.216 95.9295 170.896C95.9295 170.576 95.9295 170.256 95.9295 169.936C95.9402 169.605 95.9508 169.291 95.9615 168.992C95.9722 168.405 96.0522 167.851 96.2015 167.328C96.3615 166.795 96.5962 166.331 96.9055 165.936C97.2255 165.531 97.6415 165.216 98.1535 164.992C98.6655 164.757 99.2842 164.64 100.01 164.64C100.746 164.64 101.364 164.757 101.866 164.992C102.378 165.216 102.794 165.531 103.114 165.936C103.434 166.331 103.668 166.795 103.818 167.328C103.978 167.851 104.063 168.405 104.074 168.992C104.084 169.291 104.09 169.605 104.09 169.936C104.1 170.256 104.1 170.576 104.09 170.896C104.09 171.216 104.084 171.52 104.074 171.808C104.063 172.395 103.978 172.949 103.818 173.472C103.668 173.995 103.434 174.459 103.114 174.864C102.804 175.269 102.394 175.589 101.882 175.824C101.38 176.048 100.756 176.16 100.01 176.16ZM100.01 174.8C100.842 174.8 101.455 174.528 101.85 173.984C102.255 173.429 102.463 172.677 102.474 171.728C102.495 171.419 102.506 171.12 102.506 170.832C102.506 170.533 102.506 170.24 102.506 169.952C102.506 169.653 102.495 169.36 102.474 169.072C102.463 168.144 102.255 167.403 101.85 166.848C101.455 166.283 100.842 166 100.01 166C99.1882 166 98.5748 166.283 98.1695 166.848C97.7748 167.403 97.5668 168.144 97.5455 169.072C97.5455 169.36 97.5402 169.653 97.5295 169.952C97.5295 170.24 97.5295 170.533 97.5295 170.832C97.5402 171.12 97.5455 171.419 97.5455 171.728C97.5668 172.677 97.7802 173.429 98.1855 173.984C98.5908 174.528 99.1988 174.8 100.01 174.8ZM111.51 176C111.403 176 111.312 175.968 111.238 175.904C111.174 175.829 111.142 175.739 111.142 175.632V173.328H105.958C105.851 173.328 105.76 173.296 105.686 173.232C105.622 173.157 105.59 173.067 105.59 172.96V172.32C105.59 172.277 105.6 172.213 105.622 172.128C105.654 172.032 105.702 171.936 105.766 171.84L110.566 165.072C110.694 164.891 110.891 164.8 111.158 164.8H112.31C112.416 164.8 112.502 164.837 112.566 164.912C112.64 164.976 112.678 165.061 112.678 165.168V171.936H114.118C114.235 171.936 114.326 171.973 114.39 172.048C114.464 172.112 114.502 172.197 114.502 172.304V172.96C114.502 173.067 114.464 173.157 114.39 173.232C114.326 173.296 114.24 173.328 114.134 173.328H112.678V175.632C112.678 175.739 112.64 175.829 112.566 175.904C112.502 175.968 112.416 176 112.31 176H111.51ZM107.302 171.968H111.158V166.48L107.302 171.968Z" fill="#344054"/>
<path d="M154.416 106C154.309 106 154.219 105.968 154.144 105.904C154.08 105.829 154.048 105.739 154.048 105.632V103.328H148.864C148.757 103.328 148.667 103.296 148.592 103.232C148.528 103.157 148.496 103.067 148.496 102.96V102.32C148.496 102.277 148.507 102.213 148.528 102.128C148.56 102.032 148.608 101.936 148.672 101.84L153.472 95.072C153.6 94.8907 153.797 94.8 154.064 94.8H155.216C155.323 94.8 155.408 94.8373 155.472 94.912C155.547 94.976 155.584 95.0613 155.584 95.168V101.936H157.024C157.141 101.936 157.232 101.973 157.296 102.048C157.371 102.112 157.408 102.197 157.408 102.304V102.96C157.408 103.067 157.371 103.157 157.296 103.232C157.232 103.296 157.147 103.328 157.04 103.328H155.584V105.632C155.584 105.739 155.547 105.829 155.472 105.904C155.408 105.968 155.323 106 155.216 106H154.416ZM150.208 101.968H154.064V96.48L150.208 101.968ZM163.01 106.16C162.274 106.16 161.65 106.048 161.138 105.824C160.636 105.589 160.226 105.269 159.906 104.864C159.586 104.459 159.351 103.995 159.202 103.472C159.063 102.949 158.983 102.395 158.962 101.808C158.951 101.52 158.94 101.216 158.93 100.896C158.93 100.576 158.93 100.256 158.93 99.936C158.94 99.6053 158.951 99.2907 158.962 98.992C158.972 98.4053 159.052 97.8507 159.202 97.328C159.362 96.7947 159.596 96.3307 159.906 95.936C160.226 95.5307 160.642 95.216 161.154 94.992C161.666 94.7573 162.284 94.64 163.01 94.64C163.746 94.64 164.364 94.7573 164.866 94.992C165.378 95.216 165.794 95.5307 166.114 95.936C166.434 96.3307 166.668 96.7947 166.818 97.328C166.978 97.8507 167.063 98.4053 167.074 98.992C167.084 99.2907 167.09 99.6053 167.09 99.936C167.1 100.256 167.1 100.576 167.09 100.896C167.09 101.216 167.084 101.52 167.074 101.808C167.063 102.395 166.978 102.949 166.818 103.472C166.668 103.995 166.434 104.459 166.114 104.864C165.804 105.269 165.394 105.589 164.882 105.824C164.38 106.048 163.756 106.16 163.01 106.16ZM163.01 104.8C163.842 104.8 164.455 104.528 164.85 103.984C165.255 103.429 165.463 102.677 165.474 101.728C165.495 101.419 165.506 101.12 165.506 100.832C165.506 100.533 165.506 100.24 165.506 99.952C165.506 99.6533 165.495 99.36 165.474 99.072C165.463 98.144 165.255 97.4027 164.85 96.848C164.455 96.2827 163.842 96 163.01 96C162.188 96 161.575 96.2827 161.17 96.848C160.775 97.4027 160.567 98.144 160.546 99.072C160.546 99.36 160.54 99.6533 160.53 99.952C160.53 100.24 160.53 100.533 160.53 100.832C160.54 101.12 160.546 101.419 160.546 101.728C160.567 102.677 160.78 103.429 161.186 103.984C161.591 104.528 162.199 104.8 163.01 104.8ZM174.51 106C174.403 106 174.312 105.968 174.238 105.904C174.174 105.829 174.142 105.739 174.142 105.632V103.328H168.958C168.851 103.328 168.76 103.296 168.686 103.232C168.622 103.157 168.59 103.067 168.59 102.96V102.32C168.59 102.277 168.6 102.213 168.622 102.128C168.654 102.032 168.702 101.936 168.766 101.84L173.566 95.072C173.694 94.8907 173.891 94.8 174.158 94.8H175.31C175.416 94.8 175.502 94.8373 175.566 94.912C175.64 94.976 175.678 95.0613 175.678 95.168V101.936H177.118C177.235 101.936 177.326 101.973 177.39 102.048C177.464 102.112 177.502 102.197 177.502 102.304V102.96C177.502 103.067 177.464 103.157 177.39 103.232C177.326 103.296 177.24 103.328 177.134 103.328H175.678V105.632C175.678 105.739 175.64 105.829 175.566 105.904C175.502 105.968 175.416 106 175.31 106H174.51ZM170.302 101.968H174.158V96.48L170.302 101.968Z" fill="#344054"/>
<defs>
<linearGradient id="paint0_linear_537_994273" x1="40.189" y1="159.526" x2="222.529" y2="-21.9425" gradientUnits="userSpaceOnUse">
<stop stop-color="#4351E8"/>
<stop offset="1" stop-color="#2A1EA5"/>
</linearGradient>
</defs>
</svg>
