<svg width="41" height="40" viewBox="0 0 41 40" fill="none" xmlns="http://www.w3.org/2000/svg">
<path d="M3 36C2.16667 36 1.45833 35.7083 0.875 35.125C0.291667 34.5417 0 33.8333 0 33V3C0 2.16667 0.291667 1.45833 0.875 0.875C1.45833 0.291667 2.16667 0 3 0H33C33.8333 0 34.5417 0.291667 35.125 0.875C35.7083 1.45833 36 2.16667 36 3V19.45C35.5333 19.1833 35.0417 18.9667 34.525 18.8C34.0083 18.6333 33.5 18.5 33 18.4V3H3V33H18.45C18.5833 33.5333 18.7333 34.05 18.9 34.55C19.0667 35.05 19.2667 35.5333 19.5 36H3ZM3 33V3V18.4V18.2V33ZM8 26.5C8 26.9333 8.14167 27.2917 8.425 27.575C8.70833 27.8583 9.06667 28 9.5 28H18.55C18.6833 27.4667 18.8333 26.95 19 26.45C19.1667 25.95 19.3833 25.4667 19.65 25H9.5C9.06667 25 8.70833 25.1417 8.425 25.425C8.14167 25.7083 8 26.0667 8 26.5ZM8 18C8 18.4333 8.14167 18.7917 8.425 19.075C8.70833 19.3583 9.06667 19.5 9.5 19.5H25.2C25.6667 19.2667 26.1167 19.075 26.55 18.925C26.9833 18.775 27.4667 18.6333 28 18.5V18C28 17.6 27.85 17.25 27.55 16.95C27.25 16.65 26.9 16.5 26.5 16.5H9.5C9.06667 16.5 8.70833 16.6417 8.425 16.925C8.14167 17.2083 8 17.5667 8 18ZM8 9.5C8 9.93333 8.14167 10.2917 8.425 10.575C8.70833 10.8583 9.06667 11 9.5 11H26.5C26.9333 11 27.2917 10.8583 27.575 10.575C27.8583 10.2917 28 9.93333 28 9.5C28 9.06667 27.8583 8.70833 27.575 8.425C27.2917 8.14167 26.9333 8 26.5 8H9.5C9.06667 8 8.70833 8.14167 8.425 8.425C8.14167 8.70833 8 9.06667 8 9.5ZM30.65 39.95C28.05 39.95 25.8333 39.025 24 37.175C22.1667 35.325 21.25 33.1333 21.25 30.6C21.25 28 22.1667 25.775 24 23.925C25.8333 22.075 28.05 21.15 30.65 21.15C33.2167 21.15 35.425 22.075 37.275 23.925C39.125 25.775 40.05 28 40.05 30.6C40.05 33.1333 39.125 35.325 37.275 37.175C35.425 39.025 33.2167 39.95 30.65 39.95ZM29.9 31.45V36.15C29.9 36.3833 29.9833 36.575 30.15 36.725C30.3167 36.875 30.5167 36.95 30.75 36.95C30.9833 36.95 31.175 36.8667 31.325 36.7C31.475 36.5333 31.55 36.3333 31.55 36.1V31.45H36.25C36.4833 31.45 36.675 31.3667 36.825 31.2C36.975 31.0333 37.05 30.8333 37.05 30.6C37.05 30.3667 36.975 30.175 36.825 30.025C36.675 29.875 36.4833 29.8 36.25 29.8H31.55V25.1C31.55 24.8667 31.475 24.675 31.325 24.525C31.175 24.375 30.9833 24.3 30.75 24.3C30.5167 24.3 30.3167 24.375 30.15 24.525C29.9833 24.675 29.9 24.8667 29.9 25.1V29.8H25.2C24.9667 29.8 24.775 29.875 24.625 30.025C24.475 30.175 24.4 30.3667 24.4 30.6C24.4 30.8333 24.4833 31.0333 24.65 31.2C24.8167 31.3667 25.0167 31.45 25.25 31.45H29.9Z" fill="#1C26B8"/>
</svg>
