<svg width="202" height="142" viewBox="0 0 202 142" fill="none" xmlns="http://www.w3.org/2000/svg">
    <rect y="0.432007" width="202" height="141.136" rx="12" fill="black"/>
    <path d="M80.2247 26.612C79.6327 26.612 79.0927 26.508 78.6047 26.3C78.1167 26.092 77.6967 25.794 77.3447 25.406C76.9927 25.014 76.7207 24.542 76.5287 23.99C76.3407 23.434 76.2467 22.808 76.2467 22.112C76.2467 21.192 76.4107 20.396 76.7387 19.724C77.0667 19.052 77.5287 18.534 78.1247 18.17C78.7207 17.802 79.4207 17.618 80.2247 17.618C81.1927 17.618 81.9727 17.844 82.5647 18.296C83.1567 18.744 83.5647 19.358 83.7887 20.138L82.7087 20.36C82.5287 19.836 82.2327 19.418 81.8207 19.106C81.4087 18.794 80.8947 18.638 80.2787 18.638C79.6347 18.634 79.0987 18.778 78.6707 19.07C78.2467 19.358 77.9267 19.764 77.7107 20.288C77.4947 20.812 77.3847 21.42 77.3807 22.112C77.3767 22.8 77.4827 23.404 77.6987 23.924C77.9147 24.444 78.2367 24.852 78.6647 25.148C79.0967 25.44 79.6347 25.588 80.2787 25.592C80.8347 25.596 81.3027 25.49 81.6827 25.274C82.0627 25.058 82.3567 24.746 82.5647 24.338C82.7727 23.93 82.8987 23.44 82.9427 22.868H81.1067V21.986H84.0707C84.0827 22.066 84.0887 22.162 84.0887 22.274C84.0927 22.382 84.0947 22.456 84.0947 22.496C84.0947 23.284 83.9467 23.99 83.6507 24.614C83.3587 25.234 82.9247 25.722 82.3487 26.078C81.7767 26.434 81.0687 26.612 80.2247 26.612ZM85.4131 18.806V17.702H86.4811V18.806H85.4131ZM85.4131 26.432V19.952H86.4811V26.432H85.4131ZM88.8994 26.432V19.598C88.8994 19.43 88.9074 19.26 88.9234 19.088C88.9394 18.912 88.9754 18.742 89.0314 18.578C89.0874 18.41 89.1794 18.256 89.3074 18.116C89.4554 17.952 89.6174 17.836 89.7934 17.768C89.9694 17.696 90.1474 17.652 90.3274 17.636C90.5114 17.62 90.6854 17.612 90.8494 17.612H91.6714V18.5H90.9094C90.5934 18.5 90.3574 18.578 90.2014 18.734C90.0454 18.886 89.9674 19.118 89.9674 19.43V26.432H88.8994ZM87.8014 20.834V19.952H91.6714V20.834H87.8014ZM96.2471 26.432C95.8631 26.508 95.4831 26.538 95.1071 26.522C94.7351 26.51 94.4031 26.436 94.1111 26.3C93.8191 26.16 93.5971 25.944 93.4451 25.652C93.3171 25.396 93.2471 25.138 93.2351 24.878C93.2271 24.614 93.2231 24.316 93.2231 23.984V18.152H94.2911V23.936C94.2911 24.2 94.2931 24.426 94.2971 24.614C94.3051 24.802 94.3471 24.964 94.4231 25.1C94.5671 25.356 94.7951 25.506 95.1071 25.55C95.4231 25.594 95.8031 25.582 96.2471 25.514V26.432ZM91.9091 20.834V19.952H96.2471V20.834H91.9091ZM103.517 26.612C102.657 26.612 101.927 26.422 101.327 26.042C100.727 25.662 100.269 25.134 99.953 24.458C99.641 23.782 99.485 23 99.485 22.112C99.485 21.224 99.641 20.442 99.953 19.766C100.269 19.09 100.727 18.562 101.327 18.182C101.927 17.802 102.657 17.612 103.517 17.612C104.517 17.612 105.339 17.866 105.983 18.374C106.631 18.882 107.077 19.566 107.321 20.426L106.235 20.714C106.059 20.07 105.745 19.562 105.293 19.19C104.841 18.818 104.249 18.632 103.517 18.632C102.873 18.632 102.337 18.778 101.909 19.07C101.481 19.362 101.159 19.77 100.943 20.294C100.727 20.814 100.617 21.42 100.613 22.112C100.609 22.8 100.715 23.406 100.931 23.93C101.147 24.45 101.471 24.858 101.903 25.154C102.335 25.446 102.873 25.592 103.517 25.592C104.249 25.592 104.841 25.406 105.293 25.034C105.745 24.658 106.059 24.15 106.235 23.51L107.321 23.798C107.077 24.654 106.631 25.338 105.983 25.85C105.339 26.358 104.517 26.612 103.517 26.612ZM110.479 26.612C109.995 26.612 109.589 26.524 109.261 26.348C108.937 26.168 108.691 25.932 108.523 25.64C108.359 25.348 108.277 25.028 108.277 24.68C108.277 24.34 108.341 24.046 108.469 23.798C108.601 23.546 108.785 23.338 109.021 23.174C109.257 23.006 109.539 22.874 109.867 22.778C110.175 22.694 110.519 22.622 110.899 22.562C111.283 22.498 111.671 22.44 112.063 22.388C112.455 22.336 112.821 22.286 113.161 22.238L112.777 22.46C112.789 21.884 112.673 21.458 112.429 21.182C112.189 20.906 111.773 20.768 111.181 20.768C110.789 20.768 110.445 20.858 110.149 21.038C109.857 21.214 109.651 21.502 109.531 21.902L108.517 21.596C108.673 21.028 108.975 20.582 109.423 20.258C109.871 19.934 110.461 19.772 111.193 19.772C111.781 19.772 112.285 19.878 112.705 20.09C113.129 20.298 113.433 20.614 113.617 21.038C113.709 21.238 113.767 21.456 113.791 21.692C113.815 21.924 113.827 22.168 113.827 22.424V26.432H112.879V24.878L113.101 25.022C112.857 25.546 112.515 25.942 112.075 26.21C111.639 26.478 111.107 26.612 110.479 26.612ZM110.641 25.718C111.025 25.718 111.357 25.65 111.637 25.514C111.921 25.374 112.149 25.192 112.321 24.968C112.493 24.74 112.605 24.492 112.657 24.224C112.717 24.024 112.749 23.802 112.753 23.558C112.761 23.31 112.765 23.12 112.765 22.988L113.137 23.15C112.789 23.198 112.447 23.244 112.111 23.288C111.775 23.332 111.457 23.38 111.157 23.432C110.857 23.48 110.587 23.538 110.347 23.606C110.171 23.662 110.005 23.734 109.849 23.822C109.697 23.91 109.573 24.024 109.477 24.164C109.385 24.3 109.339 24.47 109.339 24.674C109.339 24.85 109.383 25.018 109.471 25.178C109.563 25.338 109.703 25.468 109.891 25.568C110.083 25.668 110.333 25.718 110.641 25.718ZM115.387 26.432V19.952H116.341V21.518L116.185 21.314C116.261 21.114 116.359 20.93 116.479 20.762C116.603 20.594 116.741 20.456 116.893 20.348C117.061 20.212 117.251 20.108 117.463 20.036C117.675 19.964 117.891 19.922 118.111 19.91C118.331 19.894 118.537 19.908 118.729 19.952V20.954C118.505 20.894 118.259 20.878 117.991 20.906C117.723 20.934 117.475 21.032 117.247 21.2C117.039 21.348 116.877 21.528 116.761 21.74C116.649 21.952 116.571 22.182 116.527 22.43C116.483 22.674 116.461 22.924 116.461 23.18V26.432H115.387ZM122.29 26.612C121.686 26.612 121.168 26.462 120.736 26.162C120.304 25.858 119.97 25.448 119.734 24.932C119.502 24.416 119.386 23.834 119.386 23.186C119.386 22.538 119.502 21.956 119.734 21.44C119.97 20.924 120.304 20.518 120.736 20.222C121.168 19.922 121.684 19.772 122.284 19.772C122.896 19.772 123.41 19.92 123.826 20.216C124.242 20.512 124.556 20.918 124.768 21.434C124.984 21.95 125.092 22.534 125.092 23.186C125.092 23.83 124.984 24.412 124.768 24.932C124.556 25.448 124.242 25.858 123.826 26.162C123.41 26.462 122.898 26.612 122.29 26.612ZM122.422 25.634C122.858 25.634 123.216 25.53 123.496 25.322C123.776 25.11 123.982 24.82 124.114 24.452C124.25 24.08 124.318 23.658 124.318 23.186C124.318 22.706 124.25 22.284 124.114 21.92C123.982 21.552 123.778 21.266 123.502 21.062C123.226 20.854 122.876 20.75 122.452 20.75C122.012 20.75 121.648 20.858 121.36 21.074C121.076 21.29 120.864 21.582 120.724 21.95C120.588 22.318 120.52 22.73 120.52 23.186C120.52 23.646 120.59 24.062 120.73 24.434C120.87 24.802 121.08 25.094 121.36 25.31C121.644 25.526 121.998 25.634 122.422 25.634ZM124.318 26.432V21.662H124.198V17.792H125.272V26.432H124.318Z" fill="white"/>
    <path d="M54.1648 54.9762V70.8002C54.1648 71.0567 54.0629 71.3026 53.8815 71.484C53.7001 71.6654 53.4541 71.7673 53.1976 71.7673H48.2024C47.946 71.7672 47.7001 71.6652 47.5187 71.4839C47.3374 71.3025 47.2354 71.0566 47.2353 70.8002V45.0618C47.2353 44.8053 47.3372 44.5593 47.5186 44.3779C47.6999 44.1965 47.9459 44.0947 48.2024 44.0947H52.8249C53.0814 44.0947 53.3274 44.1965 53.5088 44.3779C53.6902 44.5593 53.7921 44.8053 53.7921 45.0618V48.6864C53.7921 48.6864 55.4445 43.516 60.3484 43.516C60.3484 43.516 65.199 42.9297 67.1713 48.3133C67.1713 48.3133 68.8237 43.516 73.8342 43.516C73.8342 43.516 81.2856 43.0729 81.2856 50.7832L81.3423 55.0296V70.8535C81.3423 71.11 81.2404 71.356 81.0591 71.5373C80.8777 71.7187 80.6317 71.8206 80.3752 71.8206H75.3796C75.1231 71.8205 74.8772 71.7185 74.6958 71.5372C74.5145 71.3559 74.4126 71.1099 74.4124 70.8535L74.3668 53.5904C74.5088 49.6813 71.3464 49.9657 71.3464 49.9657C67.3666 50.0369 67.7495 55.0296 67.7495 55.0296V70.8535C67.7495 71.11 67.6476 71.356 67.4662 71.5373C67.2849 71.7187 67.0389 71.8206 66.7824 71.8206H61.7872C61.5307 71.8205 61.2848 71.7185 61.1034 71.5372C60.9221 71.3559 60.8201 71.1099 60.82 70.8535V53.981C60.82 53.981 61.1121 49.9299 57.5583 49.9299C57.5587 49.9299 54.0407 49.4681 54.1648 54.9762ZM182.927 54.9289V70.7524C182.927 71.0089 182.825 71.2548 182.644 71.4361C182.462 71.6175 182.216 71.7194 181.96 71.7195L176.765 71.8202C176.508 71.8201 176.262 71.7181 176.081 71.5368C175.9 71.3554 175.798 71.1095 175.798 70.853V53.981C175.798 53.981 176.09 49.9299 172.536 49.9299C172.536 49.9299 169.142 49.7627 169.142 56.1144V70.7997C169.142 71.0562 169.04 71.3021 168.859 71.4835C168.677 71.6648 168.432 71.7668 168.175 71.7669H163.179C162.923 71.7668 162.677 71.6648 162.496 71.4835C162.314 71.3021 162.212 71.0562 162.212 70.7997V45.0618C162.212 44.8053 162.314 44.5594 162.496 44.378C162.677 44.1967 162.923 44.0948 163.179 44.0947H167.802C168.058 44.0947 168.304 44.1965 168.486 44.3779C168.667 44.5593 168.769 44.8053 168.769 45.0618V48.6864C168.769 48.6864 170.422 43.516 175.325 43.516C175.325 43.516 180.579 42.719 182.348 48.2131C182.348 48.2127 182.927 49.3461 182.927 54.9289ZM146.86 43.4094C140.472 43.4094 135.293 48.793 135.293 57.8546C135.293 65.8327 139.291 72.2999 146.86 72.2999C154.002 72.2999 158.427 65.8327 158.427 57.8546C158.427 48.953 153.248 43.4094 146.86 43.4094ZM150.892 58.1745C150.892 61.5859 150.465 63.3982 150.465 63.3982C149.858 67.0045 147.24 67.0096 146.855 66.9904C146.438 67.0071 143.798 66.9695 143.252 63.3982C143.252 63.3982 142.825 61.5859 142.825 58.1745V57.606C142.825 54.1946 143.252 52.3823 143.252 52.3823C143.798 48.8109 146.438 48.7734 146.855 48.7896C147.24 48.7704 149.858 48.7751 150.465 52.3823C150.465 52.3823 150.892 54.1946 150.892 57.606V58.1745ZM132.393 48.6506V44.9577C132.393 44.7013 132.291 44.4553 132.11 44.274C131.929 44.0926 131.683 43.9907 131.426 43.9906H114.915C114.659 43.9906 114.413 44.0925 114.231 44.2739C114.05 44.4552 113.948 44.7012 113.948 44.9577V48.622C113.948 48.8785 114.05 49.1244 114.231 49.3058C114.413 49.4871 114.659 49.5891 114.915 49.5892H123.528L113.333 64.3777C113.333 64.3777 112.932 64.9773 112.945 65.6395V70.1379C112.945 70.1379 112.878 71.6803 114.628 70.7852C114.628 70.7852 117.735 68.9081 122.944 68.9081C122.944 68.9081 128.089 68.8441 131.519 70.9468C131.519 70.9468 132.943 71.5942 132.943 70.1707V66.2553C132.943 66.2553 133.072 65.2191 131.713 64.5722C131.713 64.5722 127.765 62.4042 122.588 62.7598L132.393 48.6506ZM43.38 67.1644L41.8163 64.7841C41.3186 63.8954 41.3544 62.9001 41.3544 62.9001V51.92C41.5676 42.432 31.0489 43.2495 31.0489 43.2495C21.6982 43.2495 20.317 50.5265 20.317 50.5265C19.9273 51.9895 21.0607 52.0249 21.0607 52.0249L25.6299 52.4885C25.6299 52.4885 26.409 52.6667 26.6925 51.7392C26.6925 51.7392 27.2942 48.5645 30.6592 48.5645C34.3205 48.5645 34.2825 51.7068 34.2825 51.7068V54.3375C26.9736 54.5818 23.5864 56.6107 23.5864 56.6107C19.0736 59.1693 19.3576 64.2511 19.3576 64.2511C19.3576 72.5306 27.2465 72.175 27.2465 72.175C32.2924 72.175 35.2774 68.4795 35.2774 68.4795C36.1657 70.0437 37.8006 71.5353 37.8006 71.5353C38.6185 72.4223 39.4709 71.6777 39.4709 71.6777L43.1668 68.5153C43.9838 67.9107 43.38 67.1644 43.38 67.1644ZM29.7091 67.0621C27.3356 67.0621 26.4533 64.7035 26.8473 62.3854C27.2418 60.0674 29.2903 58.2457 34.283 58.299V59.7083C34.4599 65.8651 31.6847 67.0621 29.7091 67.0621ZM109.76 67.1644L108.197 64.7841C107.699 63.8954 107.735 62.9001 107.735 62.9001V51.92C107.948 42.432 97.4293 43.2495 97.4293 43.2495C88.0786 43.2495 86.6974 50.5265 86.6974 50.5265C86.3077 51.9895 87.4411 52.0249 87.4411 52.0249L92.0103 52.4885C92.0103 52.4885 92.7894 52.6667 93.0729 51.7392C93.0729 51.7392 93.6746 48.5645 97.0396 48.5645C100.701 48.5645 100.663 51.7068 100.663 51.7068V54.3375C93.3544 54.5818 89.9668 56.6107 89.9668 56.6107C85.4539 59.1693 85.738 64.2511 85.738 64.2511C85.738 72.5306 93.6269 72.175 93.6269 72.175C98.6728 72.175 101.658 68.4795 101.658 68.4795C102.546 70.0437 104.181 71.5353 104.181 71.5353C104.998 72.4223 105.851 71.6777 105.851 71.6777L109.547 68.5153C110.364 67.9107 109.76 67.1644 109.76 67.1644ZM96.0895 67.0621C93.716 67.0621 92.8337 64.7035 93.2277 62.3854C93.6222 60.0674 95.6707 58.2457 100.663 58.299V59.7083C100.84 65.8651 98.0656 67.0621 96.0895 67.0621Z" fill="white"/>
    <path d="M122.338 87.9477C122.338 87.9477 121.92 88.6748 122.434 88.8372C122.434 88.8372 123.014 89.0637 123.737 88.3925C123.737 88.3925 129.011 83.7849 129.138 75.3962C129.138 75.3962 129.177 74.3485 128.757 74.0619C128.757 74.0619 127.104 72.6001 121.162 73.0449C121.162 73.0449 115.983 73.3946 113.155 75.905C113.155 75.905 112.901 76.1271 112.901 76.4128C112.901 76.4128 112.84 77.0299 114.395 76.7625C114.395 76.7625 119.574 76.0312 122.656 76.4128C122.656 76.4128 124.245 76.6035 124.69 77.1442C124.69 77.1442 125.421 77.748 125.039 79.7492C125.039 79.7501 123.99 84.8339 122.338 87.9477Z" fill="#F3971B"/>
    <path d="M121.294 79.8998C121.294 79.8998 122.067 80.9019 120.819 81.7662C120.819 81.7662 107.486 92.4312 85.0985 92.4312C85.0985 92.4312 62.0534 93.5681 42.8109 76.0845C42.8109 76.0845 42.1362 75.4922 42.555 74.9417C42.555 74.9417 42.9294 74.4351 43.8987 74.986C43.8987 74.986 62.0001 86.2655 85.7735 86.2655C85.7735 86.2655 102.298 86.9051 119.248 79.6559C119.248 79.6559 120.599 78.9561 121.294 79.8998Z" fill="#F3971B"/>
    <path d="M39.3782 125.16V123.264H41.3062V125.16H39.3782ZM39.3782 112.36V110.464H41.3062V112.36H39.3782ZM40.3862 123.808C39.5755 123.808 38.8502 123.659 38.2102 123.36C37.5702 123.061 37.0449 122.64 36.6342 122.096C36.2289 121.552 35.9702 120.907 35.8582 120.16L37.7622 119.856C37.9115 120.512 38.2315 121.035 38.7222 121.424C39.2182 121.808 39.8102 122 40.4982 122C41.1595 122 41.7035 121.845 42.1302 121.536C42.5569 121.221 42.7702 120.824 42.7702 120.344C42.7702 120.008 42.6689 119.736 42.4662 119.528C42.2635 119.315 41.9382 119.139 41.4902 119L38.7142 118.136C37.0982 117.635 36.2902 116.653 36.2902 115.192C36.2902 114.509 36.4529 113.915 36.7782 113.408C37.1089 112.896 37.5729 112.504 38.1702 112.232C38.7675 111.955 39.4715 111.819 40.2822 111.824C41.0342 111.829 41.7035 111.965 42.2902 112.232C42.8822 112.499 43.3729 112.883 43.7622 113.384C44.1569 113.885 44.4369 114.488 44.6022 115.192L42.6262 115.552C42.5515 115.173 42.4049 114.84 42.1862 114.552C41.9675 114.264 41.6929 114.04 41.3622 113.88C41.0315 113.72 40.6635 113.635 40.2582 113.624C39.8689 113.619 39.5195 113.68 39.2102 113.808C38.9009 113.931 38.6555 114.107 38.4742 114.336C38.2929 114.56 38.2022 114.813 38.2022 115.096C38.2022 115.411 38.3275 115.68 38.5782 115.904C38.8342 116.128 39.2369 116.32 39.7862 116.48L41.8582 117.08C42.8555 117.368 43.5729 117.76 44.0102 118.256C44.4529 118.747 44.6742 119.4 44.6742 120.216C44.6742 120.931 44.4955 121.557 44.1382 122.096C43.7809 122.635 43.2795 123.056 42.6342 123.36C41.9889 123.659 41.2395 123.808 40.3862 123.808ZM48.4091 123.568V114.152L46.2491 115.472V113.344L48.4091 112.048H50.3771V123.568H48.4091ZM57.5687 123.808C56.7527 123.808 56.0327 123.635 55.4087 123.288C54.7847 122.936 54.2967 122.448 53.9447 121.824C53.598 121.2 53.4247 120.48 53.4247 119.664V115.952C53.4247 115.136 53.598 114.416 53.9447 113.792C54.2967 113.168 54.7847 112.683 55.4087 112.336C56.0327 111.984 56.7527 111.808 57.5687 111.808C58.3847 111.808 59.102 111.984 59.7207 112.336C60.3447 112.683 60.8327 113.168 61.1847 113.792C61.5367 114.416 61.7127 115.136 61.7127 115.952V119.664C61.7127 120.48 61.5367 121.2 61.1847 121.824C60.8327 122.448 60.3447 122.936 59.7207 123.288C59.102 123.635 58.3847 123.808 57.5687 123.808ZM57.5687 121.976C57.974 121.976 58.342 121.88 58.6727 121.688C59.0034 121.491 59.2647 121.229 59.4567 120.904C59.6487 120.573 59.7447 120.205 59.7447 119.8V115.808C59.7447 115.397 59.6487 115.029 59.4567 114.704C59.2647 114.373 59.0034 114.112 58.6727 113.92C58.342 113.723 57.974 113.624 57.5687 113.624C57.1634 113.624 56.7954 113.723 56.4647 113.92C56.134 114.112 55.8727 114.373 55.6807 114.704C55.4887 115.029 55.3927 115.397 55.3927 115.808V119.8C55.3927 120.205 55.4887 120.573 55.6807 120.904C55.8727 121.229 56.134 121.491 56.4647 121.688C56.7954 121.88 57.1634 121.976 57.5687 121.976ZM68.0999 123.808C67.2839 123.808 66.5639 123.635 65.9399 123.288C65.3159 122.936 64.8279 122.448 64.4759 121.824C64.1293 121.2 63.9559 120.48 63.9559 119.664V115.952C63.9559 115.136 64.1293 114.416 64.4759 113.792C64.8279 113.168 65.3159 112.683 65.9399 112.336C66.5639 111.984 67.2839 111.808 68.0999 111.808C68.9159 111.808 69.6333 111.984 70.2519 112.336C70.8759 112.683 71.3639 113.168 71.7159 113.792C72.0679 114.416 72.2439 115.136 72.2439 115.952V119.664C72.2439 120.48 72.0679 121.2 71.7159 121.824C71.3639 122.448 70.8759 122.936 70.2519 123.288C69.6333 123.635 68.9159 123.808 68.0999 123.808ZM68.0999 121.976C68.5053 121.976 68.8733 121.88 69.2039 121.688C69.5346 121.491 69.7959 121.229 69.9879 120.904C70.1799 120.573 70.2759 120.205 70.2759 119.8V115.808C70.2759 115.397 70.1799 115.029 69.9879 114.704C69.7959 114.373 69.5346 114.112 69.2039 113.92C68.8733 113.723 68.5053 113.624 68.0999 113.624C67.6946 113.624 67.3266 113.723 66.9959 113.92C66.6653 114.112 66.4039 114.373 66.2119 114.704C66.0199 115.029 65.9239 115.397 65.9239 115.808V119.8C65.9239 120.205 66.0199 120.573 66.2119 120.904C66.4039 121.229 66.6653 121.491 66.9959 121.688C67.3266 121.88 67.6946 121.976 68.0999 121.976ZM78.3303 122.528V120.552H80.3063V122.528H78.3303ZM78.3463 117.944V115.968H80.3223V117.944H78.3463ZM91.2498 123.808C90.0978 123.808 89.1111 123.557 88.2898 123.056C87.4685 122.549 86.8365 121.845 86.3938 120.944C85.9565 120.043 85.7378 118.997 85.7378 117.808C85.7378 116.619 85.9565 115.573 86.3938 114.672C86.8365 113.771 87.4685 113.069 88.2898 112.568C89.1111 112.061 90.0978 111.808 91.2498 111.808C92.5778 111.808 93.6845 112.141 94.5698 112.808C95.4551 113.469 96.0765 114.363 96.4338 115.488L94.4898 116.024C94.2658 115.272 93.8845 114.685 93.3458 114.264C92.8071 113.837 92.1085 113.624 91.2498 113.624C90.4765 113.624 89.8311 113.797 89.3138 114.144C88.8018 114.491 88.4151 114.979 88.1538 115.608C87.8978 116.232 87.7671 116.965 87.7618 117.808C87.7618 118.651 87.8898 119.387 88.1458 120.016C88.4071 120.64 88.7965 121.125 89.3138 121.472C89.8311 121.819 90.4765 121.992 91.2498 121.992C92.1085 121.992 92.8071 121.779 93.3458 121.352C93.8845 120.925 94.2658 120.339 94.4898 119.592L96.4338 120.128C96.0765 121.253 95.4551 122.149 94.5698 122.816C93.6845 123.477 92.5778 123.808 91.2498 123.808ZM98.3503 123.568V111.808H100.278V123.568H98.3503ZM105.091 123.808C104.467 123.808 103.939 123.691 103.507 123.456C103.075 123.216 102.747 122.899 102.523 122.504C102.304 122.109 102.195 121.675 102.195 121.2C102.195 120.784 102.264 120.411 102.403 120.08C102.541 119.744 102.755 119.456 103.043 119.216C103.331 118.971 103.704 118.771 104.163 118.616C104.509 118.504 104.915 118.403 105.379 118.312C105.848 118.221 106.355 118.139 106.899 118.064C107.448 117.984 108.021 117.899 108.619 117.808L107.931 118.2C107.936 117.603 107.803 117.163 107.531 116.88C107.259 116.597 106.8 116.456 106.155 116.456C105.765 116.456 105.389 116.547 105.027 116.728C104.664 116.909 104.411 117.221 104.267 117.664L102.507 117.112C102.72 116.381 103.125 115.795 103.723 115.352C104.325 114.909 105.136 114.688 106.155 114.688C106.923 114.688 107.597 114.813 108.179 115.064C108.765 115.315 109.2 115.725 109.483 116.296C109.637 116.6 109.731 116.912 109.763 117.232C109.795 117.547 109.811 117.891 109.811 118.264V123.568H108.123V121.696L108.403 122C108.013 122.624 107.557 123.083 107.035 123.376C106.517 123.664 105.869 123.808 105.091 123.808ZM105.475 122.272C105.912 122.272 106.285 122.195 106.595 122.04C106.904 121.885 107.149 121.696 107.331 121.472C107.517 121.248 107.643 121.037 107.707 120.84C107.808 120.595 107.864 120.315 107.875 120C107.891 119.68 107.899 119.421 107.899 119.224L108.491 119.4C107.909 119.491 107.411 119.571 106.995 119.64C106.579 119.709 106.221 119.776 105.923 119.84C105.624 119.899 105.36 119.965 105.131 120.04C104.907 120.12 104.717 120.213 104.563 120.32C104.408 120.427 104.288 120.549 104.203 120.688C104.123 120.827 104.083 120.989 104.083 121.176C104.083 121.389 104.136 121.579 104.243 121.744C104.349 121.904 104.504 122.032 104.707 122.128C104.915 122.224 105.171 122.272 105.475 122.272ZM112.053 113.616V111.848H113.981V113.616H112.053ZM112.053 123.568V114.928H113.981V123.568H112.053ZM126.754 123.568V118.32C126.754 117.728 126.607 117.267 126.314 116.936C126.02 116.6 125.623 116.432 125.122 116.432C124.812 116.432 124.535 116.504 124.29 116.648C124.044 116.787 123.85 116.995 123.706 117.272C123.562 117.544 123.49 117.869 123.49 118.248L122.634 117.744C122.628 117.147 122.762 116.621 123.034 116.168C123.311 115.709 123.684 115.352 124.154 115.096C124.623 114.84 125.146 114.712 125.722 114.712C126.676 114.712 127.407 115 127.914 115.576C128.426 116.147 128.682 116.899 128.682 117.832V123.568H126.754ZM116.362 123.568V114.928H118.066V117.608H118.306V123.568H116.362ZM121.57 123.568V118.344C121.57 117.741 121.423 117.272 121.13 116.936C120.836 116.6 120.436 116.432 119.93 116.432C119.439 116.432 119.044 116.6 118.746 116.936C118.452 117.272 118.306 117.709 118.306 118.248L117.442 117.672C117.442 117.112 117.58 116.608 117.858 116.16C118.135 115.712 118.508 115.36 118.978 115.104C119.452 114.843 119.983 114.712 120.57 114.712C121.215 114.712 121.754 114.851 122.186 115.128C122.623 115.4 122.948 115.773 123.162 116.248C123.38 116.717 123.49 117.248 123.49 117.84V123.568H121.57ZM133.972 123.568V112.048H135.924L141.268 120.168V112.048H143.22V123.568H141.268L135.924 115.448V123.568H133.972ZM149.272 123.808C148.408 123.808 147.653 123.613 147.008 123.224C146.363 122.835 145.861 122.299 145.504 121.616C145.152 120.928 144.976 120.139 144.976 119.248C144.976 118.341 145.157 117.547 145.52 116.864C145.883 116.181 146.387 115.648 147.032 115.264C147.677 114.88 148.424 114.688 149.272 114.688C150.141 114.688 150.899 114.883 151.544 115.272C152.189 115.661 152.691 116.2 153.048 116.888C153.405 117.571 153.584 118.357 153.584 119.248C153.584 120.144 153.403 120.936 153.04 121.624C152.683 122.307 152.181 122.843 151.536 123.232C150.891 123.616 150.136 123.808 149.272 123.808ZM149.272 122C150.04 122 150.611 121.744 150.984 121.232C151.357 120.72 151.544 120.059 151.544 119.248C151.544 118.411 151.355 117.744 150.976 117.248C150.597 116.747 150.029 116.496 149.272 116.496C148.755 116.496 148.328 116.613 147.992 116.848C147.661 117.077 147.416 117.4 147.256 117.816C147.096 118.227 147.016 118.704 147.016 119.248C147.016 120.085 147.205 120.755 147.584 121.256C147.968 121.752 148.531 122 149.272 122ZM156.874 123.568L154.234 114.912L156.122 114.928L157.81 120.472L159.522 114.928H161.146L162.85 120.472L164.546 114.928H166.434L163.794 123.568H162.29L160.33 117.624L158.378 123.568H156.874Z" fill="white"/>
</svg>
