<svg width="202" height="142" viewBox="0 0 202 142" fill="none" xmlns="http://www.w3.org/2000/svg">
    <rect y="0.432007" width="202" height="141.136" rx="12" fill="black"/>
    <path d="M80.2247 26.612C79.6327 26.612 79.0927 26.508 78.6047 26.3C78.1167 26.092 77.6967 25.794 77.3447 25.406C76.9927 25.014 76.7207 24.542 76.5287 23.99C76.3407 23.434 76.2467 22.808 76.2467 22.112C76.2467 21.192 76.4107 20.396 76.7387 19.724C77.0667 19.052 77.5287 18.534 78.1247 18.17C78.7207 17.802 79.4207 17.618 80.2247 17.618C81.1927 17.618 81.9727 17.844 82.5647 18.296C83.1567 18.744 83.5647 19.358 83.7887 20.138L82.7087 20.36C82.5287 19.836 82.2327 19.418 81.8207 19.106C81.4087 18.794 80.8947 18.638 80.2787 18.638C79.6347 18.634 79.0987 18.778 78.6707 19.07C78.2467 19.358 77.9267 19.764 77.7107 20.288C77.4947 20.812 77.3847 21.42 77.3807 22.112C77.3767 22.8 77.4827 23.404 77.6987 23.924C77.9147 24.444 78.2367 24.852 78.6647 25.148C79.0967 25.44 79.6347 25.588 80.2787 25.592C80.8347 25.596 81.3027 25.49 81.6827 25.274C82.0627 25.058 82.3567 24.746 82.5647 24.338C82.7727 23.93 82.8987 23.44 82.9427 22.868H81.1067V21.986H84.0707C84.0827 22.066 84.0887 22.162 84.0887 22.274C84.0927 22.382 84.0947 22.456 84.0947 22.496C84.0947 23.284 83.9467 23.99 83.6507 24.614C83.3587 25.234 82.9247 25.722 82.3487 26.078C81.7767 26.434 81.0687 26.612 80.2247 26.612ZM85.4131 18.806V17.702H86.4811V18.806H85.4131ZM85.4131 26.432V19.952H86.4811V26.432H85.4131ZM88.8994 26.432V19.598C88.8994 19.43 88.9074 19.26 88.9234 19.088C88.9394 18.912 88.9754 18.742 89.0314 18.578C89.0874 18.41 89.1794 18.256 89.3074 18.116C89.4554 17.952 89.6174 17.836 89.7934 17.768C89.9694 17.696 90.1474 17.652 90.3274 17.636C90.5114 17.62 90.6854 17.612 90.8494 17.612H91.6714V18.5H90.9094C90.5934 18.5 90.3574 18.578 90.2014 18.734C90.0454 18.886 89.9674 19.118 89.9674 19.43V26.432H88.8994ZM87.8014 20.834V19.952H91.6714V20.834H87.8014ZM96.2471 26.432C95.8631 26.508 95.4831 26.538 95.1071 26.522C94.7351 26.51 94.4031 26.436 94.1111 26.3C93.8191 26.16 93.5971 25.944 93.4451 25.652C93.3171 25.396 93.2471 25.138 93.2351 24.878C93.2271 24.614 93.2231 24.316 93.2231 23.984V18.152H94.2911V23.936C94.2911 24.2 94.2931 24.426 94.2971 24.614C94.3051 24.802 94.3471 24.964 94.4231 25.1C94.5671 25.356 94.7951 25.506 95.1071 25.55C95.4231 25.594 95.8031 25.582 96.2471 25.514V26.432ZM91.9091 20.834V19.952H96.2471V20.834H91.9091ZM103.517 26.612C102.657 26.612 101.927 26.422 101.327 26.042C100.727 25.662 100.269 25.134 99.953 24.458C99.641 23.782 99.485 23 99.485 22.112C99.485 21.224 99.641 20.442 99.953 19.766C100.269 19.09 100.727 18.562 101.327 18.182C101.927 17.802 102.657 17.612 103.517 17.612C104.517 17.612 105.339 17.866 105.983 18.374C106.631 18.882 107.077 19.566 107.321 20.426L106.235 20.714C106.059 20.07 105.745 19.562 105.293 19.19C104.841 18.818 104.249 18.632 103.517 18.632C102.873 18.632 102.337 18.778 101.909 19.07C101.481 19.362 101.159 19.77 100.943 20.294C100.727 20.814 100.617 21.42 100.613 22.112C100.609 22.8 100.715 23.406 100.931 23.93C101.147 24.45 101.471 24.858 101.903 25.154C102.335 25.446 102.873 25.592 103.517 25.592C104.249 25.592 104.841 25.406 105.293 25.034C105.745 24.658 106.059 24.15 106.235 23.51L107.321 23.798C107.077 24.654 106.631 25.338 105.983 25.85C105.339 26.358 104.517 26.612 103.517 26.612ZM110.479 26.612C109.995 26.612 109.589 26.524 109.261 26.348C108.937 26.168 108.691 25.932 108.523 25.64C108.359 25.348 108.277 25.028 108.277 24.68C108.277 24.34 108.341 24.046 108.469 23.798C108.601 23.546 108.785 23.338 109.021 23.174C109.257 23.006 109.539 22.874 109.867 22.778C110.175 22.694 110.519 22.622 110.899 22.562C111.283 22.498 111.671 22.44 112.063 22.388C112.455 22.336 112.821 22.286 113.161 22.238L112.777 22.46C112.789 21.884 112.673 21.458 112.429 21.182C112.189 20.906 111.773 20.768 111.181 20.768C110.789 20.768 110.445 20.858 110.149 21.038C109.857 21.214 109.651 21.502 109.531 21.902L108.517 21.596C108.673 21.028 108.975 20.582 109.423 20.258C109.871 19.934 110.461 19.772 111.193 19.772C111.781 19.772 112.285 19.878 112.705 20.09C113.129 20.298 113.433 20.614 113.617 21.038C113.709 21.238 113.767 21.456 113.791 21.692C113.815 21.924 113.827 22.168 113.827 22.424V26.432H112.879V24.878L113.101 25.022C112.857 25.546 112.515 25.942 112.075 26.21C111.639 26.478 111.107 26.612 110.479 26.612ZM110.641 25.718C111.025 25.718 111.357 25.65 111.637 25.514C111.921 25.374 112.149 25.192 112.321 24.968C112.493 24.74 112.605 24.492 112.657 24.224C112.717 24.024 112.749 23.802 112.753 23.558C112.761 23.31 112.765 23.12 112.765 22.988L113.137 23.15C112.789 23.198 112.447 23.244 112.111 23.288C111.775 23.332 111.457 23.38 111.157 23.432C110.857 23.48 110.587 23.538 110.347 23.606C110.171 23.662 110.005 23.734 109.849 23.822C109.697 23.91 109.573 24.024 109.477 24.164C109.385 24.3 109.339 24.47 109.339 24.674C109.339 24.85 109.383 25.018 109.471 25.178C109.563 25.338 109.703 25.468 109.891 25.568C110.083 25.668 110.333 25.718 110.641 25.718ZM115.387 26.432V19.952H116.341V21.518L116.185 21.314C116.261 21.114 116.359 20.93 116.479 20.762C116.603 20.594 116.741 20.456 116.893 20.348C117.061 20.212 117.251 20.108 117.463 20.036C117.675 19.964 117.891 19.922 118.111 19.91C118.331 19.894 118.537 19.908 118.729 19.952V20.954C118.505 20.894 118.259 20.878 117.991 20.906C117.723 20.934 117.475 21.032 117.247 21.2C117.039 21.348 116.877 21.528 116.761 21.74C116.649 21.952 116.571 22.182 116.527 22.43C116.483 22.674 116.461 22.924 116.461 23.18V26.432H115.387ZM122.29 26.612C121.686 26.612 121.168 26.462 120.736 26.162C120.304 25.858 119.97 25.448 119.734 24.932C119.502 24.416 119.386 23.834 119.386 23.186C119.386 22.538 119.502 21.956 119.734 21.44C119.97 20.924 120.304 20.518 120.736 20.222C121.168 19.922 121.684 19.772 122.284 19.772C122.896 19.772 123.41 19.92 123.826 20.216C124.242 20.512 124.556 20.918 124.768 21.434C124.984 21.95 125.092 22.534 125.092 23.186C125.092 23.83 124.984 24.412 124.768 24.932C124.556 25.448 124.242 25.858 123.826 26.162C123.41 26.462 122.898 26.612 122.29 26.612ZM122.422 25.634C122.858 25.634 123.216 25.53 123.496 25.322C123.776 25.11 123.982 24.82 124.114 24.452C124.25 24.08 124.318 23.658 124.318 23.186C124.318 22.706 124.25 22.284 124.114 21.92C123.982 21.552 123.778 21.266 123.502 21.062C123.226 20.854 122.876 20.75 122.452 20.75C122.012 20.75 121.648 20.858 121.36 21.074C121.076 21.29 120.864 21.582 120.724 21.95C120.588 22.318 120.52 22.73 120.52 23.186C120.52 23.646 120.59 24.062 120.73 24.434C120.87 24.802 121.08 25.094 121.36 25.31C121.644 25.526 121.998 25.634 122.422 25.634ZM124.318 26.432V21.662H124.198V17.792H125.272V26.432H124.318Z" fill="white"/>
    <path d="M54.1648 54.9762V70.8002C54.1648 71.0567 54.0629 71.3026 53.8815 71.484C53.7001 71.6654 53.4541 71.7673 53.1976 71.7673H48.2024C47.946 71.7672 47.7001 71.6652 47.5187 71.4839C47.3374 71.3025 47.2354 71.0566 47.2353 70.8002V45.0618C47.2353 44.8053 47.3372 44.5593 47.5186 44.3779C47.6999 44.1965 47.9459 44.0947 48.2024 44.0947H52.8249C53.0814 44.0947 53.3274 44.1965 53.5088 44.3779C53.6902 44.5593 53.7921 44.8053 53.7921 45.0618V48.6864C53.7921 48.6864 55.4445 43.516 60.3484 43.516C60.3484 43.516 65.199 42.9297 67.1713 48.3133C67.1713 48.3133 68.8237 43.516 73.8342 43.516C73.8342 43.516 81.2856 43.0729 81.2856 50.7832L81.3423 55.0296V70.8535C81.3423 71.11 81.2404 71.356 81.0591 71.5373C80.8777 71.7187 80.6317 71.8206 80.3752 71.8206H75.3796C75.1231 71.8205 74.8772 71.7185 74.6958 71.5372C74.5145 71.3559 74.4126 71.1099 74.4124 70.8535L74.3668 53.5904C74.5088 49.6813 71.3464 49.9657 71.3464 49.9657C67.3666 50.0369 67.7495 55.0296 67.7495 55.0296V70.8535C67.7495 71.11 67.6476 71.356 67.4662 71.5373C67.2849 71.7187 67.0389 71.8206 66.7824 71.8206H61.7872C61.5307 71.8205 61.2848 71.7185 61.1034 71.5372C60.9221 71.3559 60.8201 71.1099 60.82 70.8535V53.981C60.82 53.981 61.1121 49.9299 57.5583 49.9299C57.5587 49.9299 54.0407 49.4681 54.1648 54.9762ZM182.927 54.9289V70.7524C182.927 71.0089 182.825 71.2548 182.644 71.4361C182.462 71.6175 182.216 71.7194 181.96 71.7195L176.765 71.8202C176.508 71.8201 176.262 71.7181 176.081 71.5368C175.9 71.3554 175.798 71.1095 175.798 70.853V53.981C175.798 53.981 176.09 49.9299 172.536 49.9299C172.536 49.9299 169.142 49.7627 169.142 56.1144V70.7997C169.142 71.0562 169.04 71.3021 168.859 71.4835C168.677 71.6648 168.432 71.7668 168.175 71.7669H163.179C162.923 71.7668 162.677 71.6648 162.496 71.4835C162.314 71.3021 162.212 71.0562 162.212 70.7997V45.0618C162.212 44.8053 162.314 44.5594 162.496 44.378C162.677 44.1967 162.923 44.0948 163.179 44.0947H167.802C168.058 44.0947 168.304 44.1965 168.486 44.3779C168.667 44.5593 168.769 44.8053 168.769 45.0618V48.6864C168.769 48.6864 170.422 43.516 175.325 43.516C175.325 43.516 180.579 42.719 182.348 48.2131C182.348 48.2127 182.927 49.3461 182.927 54.9289ZM146.86 43.4094C140.472 43.4094 135.293 48.793 135.293 57.8546C135.293 65.8327 139.291 72.2999 146.86 72.2999C154.002 72.2999 158.427 65.8327 158.427 57.8546C158.427 48.953 153.248 43.4094 146.86 43.4094ZM150.892 58.1745C150.892 61.5859 150.465 63.3982 150.465 63.3982C149.858 67.0045 147.24 67.0096 146.855 66.9904C146.438 67.0071 143.798 66.9695 143.252 63.3982C143.252 63.3982 142.825 61.5859 142.825 58.1745V57.606C142.825 54.1946 143.252 52.3823 143.252 52.3823C143.798 48.8109 146.438 48.7734 146.855 48.7896C147.24 48.7704 149.858 48.7751 150.465 52.3823C150.465 52.3823 150.892 54.1946 150.892 57.606V58.1745ZM132.393 48.6506V44.9577C132.393 44.7013 132.291 44.4553 132.11 44.274C131.929 44.0926 131.683 43.9907 131.426 43.9906H114.915C114.659 43.9906 114.413 44.0925 114.231 44.2739C114.05 44.4552 113.948 44.7012 113.948 44.9577V48.622C113.948 48.8785 114.05 49.1244 114.231 49.3058C114.413 49.4871 114.659 49.5891 114.915 49.5892H123.528L113.333 64.3777C113.333 64.3777 112.932 64.9773 112.945 65.6395V70.1379C112.945 70.1379 112.878 71.6803 114.628 70.7852C114.628 70.7852 117.735 68.9081 122.944 68.9081C122.944 68.9081 128.089 68.8441 131.519 70.9468C131.519 70.9468 132.943 71.5942 132.943 70.1707V66.2553C132.943 66.2553 133.072 65.2191 131.713 64.5722C131.713 64.5722 127.765 62.4042 122.588 62.7598L132.393 48.6506ZM43.38 67.1644L41.8163 64.7841C41.3186 63.8954 41.3544 62.9001 41.3544 62.9001V51.92C41.5676 42.432 31.0489 43.2495 31.0489 43.2495C21.6982 43.2495 20.317 50.5265 20.317 50.5265C19.9273 51.9895 21.0607 52.0249 21.0607 52.0249L25.6299 52.4885C25.6299 52.4885 26.409 52.6667 26.6925 51.7392C26.6925 51.7392 27.2942 48.5645 30.6592 48.5645C34.3205 48.5645 34.2825 51.7068 34.2825 51.7068V54.3375C26.9736 54.5818 23.5864 56.6107 23.5864 56.6107C19.0736 59.1693 19.3576 64.2511 19.3576 64.2511C19.3576 72.5306 27.2465 72.175 27.2465 72.175C32.2924 72.175 35.2774 68.4795 35.2774 68.4795C36.1657 70.0437 37.8006 71.5353 37.8006 71.5353C38.6185 72.4223 39.4709 71.6777 39.4709 71.6777L43.1668 68.5153C43.9838 67.9107 43.38 67.1644 43.38 67.1644ZM29.7091 67.0621C27.3356 67.0621 26.4533 64.7035 26.8473 62.3854C27.2418 60.0674 29.2903 58.2457 34.283 58.299V59.7083C34.4599 65.8651 31.6847 67.0621 29.7091 67.0621ZM109.76 67.1644L108.197 64.7841C107.699 63.8954 107.735 62.9001 107.735 62.9001V51.92C107.948 42.432 97.4293 43.2495 97.4293 43.2495C88.0786 43.2495 86.6974 50.5265 86.6974 50.5265C86.3077 51.9895 87.4411 52.0249 87.4411 52.0249L92.0103 52.4885C92.0103 52.4885 92.7894 52.6667 93.0729 51.7392C93.0729 51.7392 93.6746 48.5645 97.0396 48.5645C100.701 48.5645 100.663 51.7068 100.663 51.7068V54.3375C93.3544 54.5818 89.9668 56.6107 89.9668 56.6107C85.4539 59.1693 85.738 64.2511 85.738 64.2511C85.738 72.5306 93.6269 72.175 93.6269 72.175C98.6728 72.175 101.658 68.4795 101.658 68.4795C102.546 70.0437 104.181 71.5353 104.181 71.5353C104.998 72.4223 105.851 71.6777 105.851 71.6777L109.547 68.5153C110.364 67.9107 109.76 67.1644 109.76 67.1644ZM96.0895 67.0621C93.716 67.0621 92.8337 64.7035 93.2277 62.3854C93.6222 60.0674 95.6707 58.2457 100.663 58.299V59.7083C100.84 65.8651 98.0656 67.0621 96.0895 67.0621Z" fill="white"/>
    <path d="M122.338 87.9477C122.338 87.9477 121.92 88.6748 122.434 88.8372C122.434 88.8372 123.014 89.0637 123.737 88.3925C123.737 88.3925 129.011 83.7849 129.138 75.3962C129.138 75.3962 129.177 74.3485 128.757 74.0619C128.757 74.0619 127.104 72.6001 121.162 73.0449C121.162 73.0449 115.983 73.3946 113.155 75.905C113.155 75.905 112.901 76.1271 112.901 76.4128C112.901 76.4128 112.84 77.0299 114.395 76.7625C114.395 76.7625 119.574 76.0312 122.656 76.4128C122.656 76.4128 124.245 76.6035 124.69 77.1442C124.69 77.1442 125.421 77.748 125.039 79.7492C125.039 79.7501 123.99 84.8339 122.338 87.9477Z" fill="#F3971B"/>
    <path d="M121.294 79.8998C121.294 79.8998 122.067 80.9019 120.819 81.7662C120.819 81.7662 107.486 92.4312 85.0985 92.4312C85.0985 92.4312 62.0534 93.5681 42.8109 76.0845C42.8109 76.0845 42.1362 75.4922 42.555 74.9417C42.555 74.9417 42.9294 74.4351 43.8987 74.986C43.8987 74.986 62.0001 86.2655 85.7735 86.2655C85.7735 86.2655 102.298 86.9051 119.248 79.6559C119.248 79.6559 120.599 78.9561 121.294 79.8998Z" fill="#F3971B"/>
    <path d="M43.9641 125.16V123.264H45.8921V125.16H43.9641ZM43.9641 112.36V110.464H45.8921V112.36H43.9641ZM44.9721 123.808C44.1615 123.808 43.4361 123.659 42.7961 123.36C42.1561 123.061 41.6308 122.64 41.2201 122.096C40.8148 121.552 40.5561 120.907 40.4441 120.16L42.3481 119.856C42.4975 120.512 42.8175 121.035 43.3081 121.424C43.8041 121.808 44.3961 122 45.0841 122C45.7455 122 46.2895 121.845 46.7161 121.536C47.1428 121.221 47.3561 120.824 47.3561 120.344C47.3561 120.008 47.2548 119.736 47.0521 119.528C46.8495 119.315 46.5241 119.139 46.0761 119L43.3001 118.136C41.6841 117.635 40.8761 116.653 40.8761 115.192C40.8761 114.509 41.0388 113.915 41.3641 113.408C41.6948 112.896 42.1588 112.504 42.7561 112.232C43.3535 111.955 44.0575 111.819 44.8681 111.824C45.6201 111.829 46.2895 111.965 46.8761 112.232C47.4681 112.499 47.9588 112.883 48.3481 113.384C48.7428 113.885 49.0228 114.488 49.1881 115.192L47.2121 115.552C47.1375 115.173 46.9908 114.84 46.7721 114.552C46.5535 114.264 46.2788 114.04 45.9481 113.88C45.6175 113.72 45.2495 113.635 44.8441 113.624C44.4548 113.619 44.1055 113.68 43.7961 113.808C43.4868 113.931 43.2415 114.107 43.0601 114.336C42.8788 114.56 42.7881 114.813 42.7881 115.096C42.7881 115.411 42.9135 115.68 43.1641 115.904C43.4201 116.128 43.8228 116.32 44.3721 116.48L46.4441 117.08C47.4415 117.368 48.1588 117.76 48.5961 118.256C49.0388 118.747 49.2601 119.4 49.2601 120.216C49.2601 120.931 49.0815 121.557 48.7241 122.096C48.3668 122.635 47.8655 123.056 47.2201 123.36C46.5748 123.659 45.8255 123.808 44.9721 123.808ZM50.675 123.552V121.872L55.603 117.48C55.987 117.139 56.2537 116.816 56.403 116.512C56.5523 116.208 56.627 115.915 56.627 115.632C56.627 115.248 56.5443 114.907 56.379 114.608C56.2137 114.304 55.9843 114.064 55.691 113.888C55.403 113.712 55.0697 113.624 54.691 113.624C54.291 113.624 53.9363 113.717 53.627 113.904C53.323 114.085 53.0857 114.328 52.915 114.632C52.7443 114.936 52.6643 115.264 52.675 115.616H50.691C50.691 114.848 50.8617 114.179 51.203 113.608C51.5497 113.037 52.0243 112.595 52.627 112.28C53.235 111.965 53.9363 111.808 54.731 111.808C55.467 111.808 56.1283 111.973 56.715 112.304C57.3017 112.629 57.763 113.083 58.099 113.664C58.435 114.24 58.603 114.904 58.603 115.656C58.603 116.205 58.5283 116.667 58.379 117.04C58.2297 117.413 58.0057 117.757 57.707 118.072C57.4137 118.387 57.0483 118.736 56.611 119.12L53.115 122.216L52.939 121.736H58.603V123.552H50.675ZM63.9423 123.808C63.3556 123.808 62.8089 123.688 62.3023 123.448C61.7956 123.203 61.3583 122.867 60.9903 122.44C60.6276 122.013 60.3663 121.517 60.2063 120.952L62.0623 120.456C62.1369 120.765 62.2729 121.032 62.4703 121.256C62.6729 121.48 62.9076 121.653 63.1743 121.776C63.4463 121.899 63.7263 121.96 64.0143 121.96C64.3876 121.96 64.7289 121.869 65.0383 121.688C65.3476 121.507 65.5929 121.264 65.7743 120.96C65.9556 120.651 66.0463 120.309 66.0463 119.936C66.0463 119.563 65.9529 119.224 65.7663 118.92C65.5849 118.611 65.3396 118.368 65.0303 118.192C64.7209 118.011 64.3823 117.92 64.0143 117.92C63.5716 117.92 63.2036 118 62.9103 118.16C62.6223 118.32 62.4009 118.491 62.2463 118.672L60.5983 118.144L60.9503 112.048H67.2063V113.856H61.9823L62.7023 113.176L62.4463 117.416L62.0943 116.984C62.3929 116.712 62.7396 116.509 63.1343 116.376C63.5289 116.243 63.9103 116.176 64.2783 116.176C64.9983 116.176 65.6356 116.341 66.1903 116.672C66.7503 116.997 67.1876 117.443 67.5023 118.008C67.8223 118.573 67.9823 119.216 67.9823 119.936C67.9823 120.656 67.7956 121.309 67.4223 121.896C67.0489 122.477 66.5556 122.941 65.9423 123.288C65.3343 123.635 64.6676 123.808 63.9423 123.808ZM73.7444 122.528V120.552H75.7204V122.528H73.7444ZM73.7604 117.944V115.968H75.7364V117.944H73.7604ZM86.6639 123.808C85.5119 123.808 84.5252 123.557 83.7039 123.056C82.8825 122.549 82.2505 121.845 81.8079 120.944C81.3705 120.043 81.1519 118.997 81.1519 117.808C81.1519 116.619 81.3705 115.573 81.8079 114.672C82.2505 113.771 82.8825 113.069 83.7039 112.568C84.5252 112.061 85.5119 111.808 86.6639 111.808C87.9919 111.808 89.0985 112.141 89.9839 112.808C90.8692 113.469 91.4905 114.363 91.8479 115.488L89.9039 116.024C89.6799 115.272 89.2985 114.685 88.7599 114.264C88.2212 113.837 87.5225 113.624 86.6639 113.624C85.8905 113.624 85.2452 113.797 84.7279 114.144C84.2159 114.491 83.8292 114.979 83.5679 115.608C83.3119 116.232 83.1812 116.965 83.1759 117.808C83.1759 118.651 83.3039 119.387 83.5599 120.016C83.8212 120.64 84.2105 121.125 84.7279 121.472C85.2452 121.819 85.8905 121.992 86.6639 121.992C87.5225 121.992 88.2212 121.779 88.7599 121.352C89.2985 120.925 89.6799 120.339 89.9039 119.592L91.8479 120.128C91.4905 121.253 90.8692 122.149 89.9839 122.816C89.0985 123.477 87.9919 123.808 86.6639 123.808ZM93.7644 123.568V111.808H95.6924V123.568H93.7644ZM100.505 123.808C99.8808 123.808 99.3528 123.691 98.9208 123.456C98.4888 123.216 98.1608 122.899 97.9368 122.504C97.7181 122.109 97.6088 121.675 97.6088 121.2C97.6088 120.784 97.6781 120.411 97.8168 120.08C97.9554 119.744 98.1688 119.456 98.4568 119.216C98.7448 118.971 99.1181 118.771 99.5768 118.616C99.9234 118.504 100.329 118.403 100.793 118.312C101.262 118.221 101.769 118.139 102.313 118.064C102.862 117.984 103.435 117.899 104.033 117.808L103.345 118.2C103.35 117.603 103.217 117.163 102.945 116.88C102.673 116.597 102.214 116.456 101.569 116.456C101.179 116.456 100.803 116.547 100.441 116.728C100.078 116.909 99.8248 117.221 99.6808 117.664L97.9208 117.112C98.1341 116.381 98.5394 115.795 99.1368 115.352C99.7394 114.909 100.55 114.688 101.569 114.688C102.337 114.688 103.011 114.813 103.593 115.064C104.179 115.315 104.614 115.725 104.897 116.296C105.051 116.6 105.145 116.912 105.177 117.232C105.209 117.547 105.225 117.891 105.225 118.264V123.568H103.537V121.696L103.817 122C103.427 122.624 102.971 123.083 102.449 123.376C101.931 123.664 101.283 123.808 100.505 123.808ZM100.889 122.272C101.326 122.272 101.699 122.195 102.009 122.04C102.318 121.885 102.563 121.696 102.745 121.472C102.931 121.248 103.057 121.037 103.121 120.84C103.222 120.595 103.278 120.315 103.289 120C103.305 119.68 103.313 119.421 103.313 119.224L103.905 119.4C103.323 119.491 102.825 119.571 102.409 119.64C101.993 119.709 101.635 119.776 101.337 119.84C101.038 119.899 100.774 119.965 100.545 120.04C100.321 120.12 100.131 120.213 99.9768 120.32C99.8221 120.427 99.7021 120.549 99.6168 120.688C99.5368 120.827 99.4968 120.989 99.4968 121.176C99.4968 121.389 99.5501 121.579 99.6568 121.744C99.7634 121.904 99.9181 122.032 100.121 122.128C100.329 122.224 100.585 122.272 100.889 122.272ZM107.468 113.616V111.848H109.396V113.616H107.468ZM107.468 123.568V114.928H109.396V123.568H107.468ZM122.168 123.568V118.32C122.168 117.728 122.021 117.267 121.728 116.936C121.435 116.6 121.037 116.432 120.536 116.432C120.227 116.432 119.949 116.504 119.704 116.648C119.459 116.787 119.264 116.995 119.12 117.272C118.976 117.544 118.904 117.869 118.904 118.248L118.048 117.744C118.043 117.147 118.176 116.621 118.448 116.168C118.725 115.709 119.099 115.352 119.568 115.096C120.037 114.84 120.56 114.712 121.136 114.712C122.091 114.712 122.821 115 123.328 115.576C123.84 116.147 124.096 116.899 124.096 117.832V123.568H122.168ZM111.776 123.568V114.928H113.48V117.608H113.72V123.568H111.776ZM116.984 123.568V118.344C116.984 117.741 116.837 117.272 116.544 116.936C116.251 116.6 115.851 116.432 115.344 116.432C114.853 116.432 114.459 116.6 114.16 116.936C113.867 117.272 113.72 117.709 113.72 118.248L112.856 117.672C112.856 117.112 112.995 116.608 113.272 116.16C113.549 115.712 113.923 115.36 114.392 115.104C114.867 114.843 115.397 114.712 115.984 114.712C116.629 114.712 117.168 114.851 117.6 115.128C118.037 115.4 118.363 115.773 118.576 116.248C118.795 116.717 118.904 117.248 118.904 117.84V123.568H116.984ZM129.386 123.568V112.048H131.338L136.682 120.168V112.048H138.634V123.568H136.682L131.338 115.448V123.568H129.386ZM144.686 123.808C143.822 123.808 143.067 123.613 142.422 123.224C141.777 122.835 141.275 122.299 140.918 121.616C140.566 120.928 140.39 120.139 140.39 119.248C140.39 118.341 140.571 117.547 140.934 116.864C141.297 116.181 141.801 115.648 142.446 115.264C143.091 114.88 143.838 114.688 144.686 114.688C145.555 114.688 146.313 114.883 146.958 115.272C147.603 115.661 148.105 116.2 148.462 116.888C148.819 117.571 148.998 118.357 148.998 119.248C148.998 120.144 148.817 120.936 148.454 121.624C148.097 122.307 147.595 122.843 146.95 123.232C146.305 123.616 145.55 123.808 144.686 123.808ZM144.686 122C145.454 122 146.025 121.744 146.398 121.232C146.771 120.72 146.958 120.059 146.958 119.248C146.958 118.411 146.769 117.744 146.39 117.248C146.011 116.747 145.443 116.496 144.686 116.496C144.169 116.496 143.742 116.613 143.406 116.848C143.075 117.077 142.83 117.4 142.67 117.816C142.51 118.227 142.43 118.704 142.43 119.248C142.43 120.085 142.619 120.755 142.998 121.256C143.382 121.752 143.945 122 144.686 122ZM152.288 123.568L149.648 114.912L151.536 114.928L153.224 120.472L154.936 114.928H156.56L158.264 120.472L159.96 114.928H161.848L159.208 123.568H157.704L155.744 117.624L153.792 123.568H152.288Z" fill="white"/>
</svg>
