<svg class="nc-icon" preserveAspectRatio="xMidYMid meet" viewBox="0 0 24 24" width="1.2em" height="1.2em" xmlns="http://www.w3.org/2000/svg"><path fill="#FCBE3A" d="m19.65 9.04l-4.84-.42l-1.89-4.45c-.34-.81-1.5-.81-1.84 0L9.19 8.63l-4.83.41c-.88.07-1.24 1.17-.57 1.75l3.67 3.18l-1.1 4.72c-.2.86.73 1.54 1.49 1.08l4.15-2.5l4.15 2.51c.76.46 1.69-.22 1.49-1.08l-1.1-4.73l3.67-3.18c.67-.58.32-1.68-.56-1.75zM12 15.4l-3.76 2.27l1-4.28l-3.32-2.88l4.38-.38L12 6.1l1.71 4.04l4.38.38l-3.32 2.88l1 4.28L12 15.4z"></path></svg>