<svg width="16" height="16" viewBox="0 0 16 16" fill="none" xmlns="http://www.w3.org/2000/svg">
    <path d="M10.5 14C11.8807 14 13 12.8807 13 11.5C13 10.1193 11.8807 9 10.5 9C9.11929 9 8 10.1193 8 11.5C8 12.8807 9.11929 14 10.5 14Z" stroke="currentColor" stroke-width="1.33333" stroke-linecap="round" stroke-linejoin="round"/>
    <path d="M14.0002 15L12.2002 13.2" stroke="currentColor" stroke-width="1.33333" stroke-linecap="round" stroke-linejoin="round"/>
    <path d="M13.3332 6.66675V2.66675C13.3332 2.31313 13.1927 1.97399 12.9426 1.72394C12.6926 1.47389 12.3535 1.33341 11.9998 1.33341H3.99984C3.64622 1.33341 3.30708 1.47389 3.05703 1.72394C2.80698 1.97399 2.6665 2.31313 2.6665 2.66675V13.3334C2.6665 13.687 2.80698 14.0262 3.05703 14.2762C3.30708 14.5263 3.64622 14.6667 3.99984 14.6667H6.6665" stroke="currentColor" stroke-width="1.33333" stroke-linecap="round" stroke-linejoin="round"/>
    <path d="M10.6668 4.66675H5.3335" stroke="currentColor" stroke-width="1.33333" stroke-linecap="round" stroke-linejoin="round"/>
    <path d="M7.33008 7.33008H5.33008" stroke="currentColor" stroke-width="1.33333" stroke-linecap="round" stroke-linejoin="round"/>
</svg>
