<svg width="56" height="56" viewBox="0 0 56 56" fill="none" xmlns="http://www.w3.org/2000/svg">
<path d="M31.7333 9.33398H17.7333C16.7431 9.33398 15.0452 9.54249 14.1601 10.4275C13.2751 11.3125 13.0667 13.0105 13.0667 14.0007V42.934C13.0667 43.9242 13.46 44.8737 14.1601 45.5738C14.8602 46.274 15.8098 46.6673 16.8 46.6673H39.2C40.1902 46.6673 41.1397 46.274 41.8398 45.5738C42.54 44.8737 42.9333 43.9242 42.9333 42.934V20.534L31.7333 9.33398Z" fill="#FF7C48"/>
<path d="M31.7333 9.33398V16.534C31.7333 18.7431 33.5242 20.534 35.7333 20.534H42.9333" fill="white" fill-opacity="0.25"/>
<path d="M36 33C36 34.5823 35.5308 36.129 34.6518 37.4446C33.7727 38.7602 32.5233 39.7855 31.0615 40.391C29.5997 40.9965 27.9911 41.155 26.4393 40.8463C24.8874 40.5376 23.462 39.7757 22.3431 38.6569C21.2243 37.538 20.4624 36.1126 20.1537 34.5607C19.845 33.0089 20.0035 31.4003 20.609 29.9385C21.2145 28.4767 22.2398 27.2273 23.5554 26.3482C24.871 25.4692 26.4177 25 28 25V33H36Z" fill="#FFC7B1"/>
<path d="M37 32C37 30.9494 36.7931 29.9091 36.391 28.9385C35.989 27.9679 35.3997 27.086 34.6569 26.3431C33.914 25.6003 33.0321 25.011 32.0615 24.609C31.0909 24.2069 30.0506 24 29 24V32H37Z" fill="white"/>
</svg>
