<svg xmlns="http://www.w3.org/2000/svg" width="24" height="24" viewBox="0 0 24 24" fill="none">
  <path d="M22.5391 10.2604H16.0309C15.6589 10.2604 15.3756 10.6411 15.5084 10.9953L17.0757 15.0508C17.1466 15.2279 17.0049 15.4227 16.8101 15.4138L14.8089 15.2899C14.7203 15.281 14.6318 15.3253 14.5787 15.405L13.0202 17.6098C12.9405 17.7338 12.7723 17.7781 12.6395 17.6895L10.3372 16.1222C10.2487 16.0602 10.1247 16.0602 10.0362 16.1222L6.84842 18.2828C6.64476 18.4245 6.37026 18.2297 6.4411 17.9906L7.32658 14.8117C7.362 14.6789 7.30002 14.5461 7.1672 14.4929L5.47593 13.8023C5.30769 13.7314 5.25456 13.5278 5.36967 13.3861L6.86613 11.5443C6.93697 11.4557 6.94583 11.3229 6.87499 11.2255L5.61761 9.41029C5.50249 9.24205 5.60875 9.01182 5.82127 8.99411L7.76932 8.84358C7.911 8.83473 8.02611 8.71076 8.01726 8.56023L7.86673 5.83295C7.85787 5.63815 8.05268 5.49647 8.23863 5.56731L10.656 6.5679C10.7622 6.61217 10.8862 6.58561 10.9571 6.49706L12.6218 4.63755C12.7546 4.48702 12.9937 4.5313 13.0733 4.70839L14.0739 7.28514C14.2068 7.60391 14.6052 7.71902 14.8886 7.50651L18.8024 4.59328C19.2451 4.26565 18.9618 3.55727 18.4128 3.63696L15.836 3.9823C15.7121 4 15.597 3.92917 15.5527 3.81406L14.1979 0.334121C14.0474 -0.0289259 13.5781 -0.117474 13.3124 0.174735L10.3638 3.37132C10.2841 3.45101 10.169 3.47757 10.0627 3.4333L6.18431 1.79516C5.83898 1.65349 5.45822 1.89257 5.44051 2.27332L5.29883 6.27569C5.28998 6.41737 5.18372 6.52363 5.0509 6.53248L1.50898 6.76271C1.0928 6.78927 0.871434 7.25857 1.10166 7.59506L3.45704 11.0661C3.52787 11.1635 3.51902 11.2964 3.43933 11.3938L1.04853 14.1388C0.80945 14.4133 0.906853 14.8383 1.24334 14.98L3.98832 16.1665C4.11229 16.2196 4.17427 16.3525 4.13885 16.4764L2.3856 23.33C2.26164 23.817 2.81063 24.189 3.21796 23.8967L9.80593 19.1683C9.89447 19.1063 10.0184 19.0974 10.1158 19.1683L13.1176 21.2757C13.3656 21.4528 13.702 21.382 13.8703 21.134L15.7475 18.2562C15.8006 18.1677 15.9069 18.1234 16.0043 18.1411L20.4937 18.6813C20.8567 18.7344 21.2198 18.4333 21.0869 18.0968L19.2186 13.2621C19.1655 13.1293 19.2186 12.9876 19.378 12.9079L22.7871 11.2964C23.2918 11.0396 23.1147 10.2604 22.5391 10.2604Z" fill="#8039E9"/>
</svg>