<svg xmlns="http://www.w3.org/2000/svg" width="16" height="16" viewBox="0 0 16 16" fill="none">
  <path d="M2 12V8C2 6.4087 2.63214 4.88258 3.75736 3.75736C4.88258 2.63214 6.4087 2 8 2C9.5913 2 11.1174 2.63214 12.2426 3.75736C13.3679 4.88258 14 6.4087 14 8V12" stroke="currentColor" stroke-width="1.33333" stroke-linecap="round" stroke-linejoin="round"/>
  <path d="M14 12.6663C14 13.02 13.8595 13.3591 13.6095 13.6091C13.3594 13.8592 13.0203 13.9997 12.6667 13.9997H12C11.6464 13.9997 11.3072 13.8592 11.0572 13.6091C10.8071 13.3591 10.6667 13.02 10.6667 12.6663V10.6663C10.6667 10.3127 10.8071 9.97358 11.0572 9.72353C11.3072 9.47348 11.6464 9.33301 12 9.33301H14V12.6663ZM2 12.6663C2 13.02 2.14048 13.3591 2.39052 13.6091C2.64057 13.8592 2.97971 13.9997 3.33333 13.9997H4C4.35362 13.9997 4.69276 13.8592 4.94281 13.6091C5.19286 13.3591 5.33333 13.02 5.33333 12.6663V10.6663C5.33333 10.3127 5.19286 9.97358 4.94281 9.72353C4.69276 9.47348 4.35362 9.33301 4 9.33301H2V12.6663Z" stroke="currentColor" stroke-width="1.33333" stroke-linecap="round" stroke-linejoin="round"/>
</svg>