<svg width="16" height="16" viewBox="0 0 16 16" fill="none" xmlns="http://www.w3.org/2000/svg">
<path d="M10.3333 4.99967L12.6666 2.66634M13.9999 1.33301L12.6666 2.66634L13.9999 1.33301ZM7.59327 7.73967C7.9375 8.07932 8.21114 8.4837 8.39844 8.92954C8.58574 9.37537 8.683 9.85385 8.68462 10.3374C8.68624 10.821 8.59219 11.3001 8.40788 11.7472C8.22357 12.1943 7.95265 12.6005 7.6107 12.9424C7.26876 13.2844 6.86255 13.5553 6.41547 13.7396C5.96839 13.9239 5.48927 14.018 5.00569 14.0164C4.52212 14.0147 4.04363 13.9175 3.5978 13.7302C3.15196 13.5429 2.74758 13.2692 2.40794 12.925C1.74003 12.2335 1.37045 11.3073 1.3788 10.3459C1.38715 9.38448 1.77277 8.46484 2.4526 7.78501C3.13243 7.10518 4.05208 6.71956 5.01347 6.7112C5.97486 6.70285 6.90106 7.07243 7.59261 7.74034L7.59327 7.73967ZM7.59327 7.73967L10.3333 4.99967L7.59327 7.73967ZM10.3333 4.99967L12.3333 6.99967L14.6666 4.66634L12.6666 2.66634L10.3333 4.99967Z" stroke="currentColor" stroke-width="1.33" stroke-linecap="round" stroke-linejoin="round"/>
</svg>
