<svg width="16" height="16" viewBox="0 0 16 16" fill="none" xmlns="http://www.w3.org/2000/svg">
<g clip-path="url(#clip0_5687_209621)">
<rect width="16" height="16" rx="2" fill="white"/>
<path d="M13.6328 13.633H11.2621V9.92032C11.2621 9.03499 11.2463 7.8953 10.029 7.8953C8.79431 7.8953 8.60539 8.8599 8.60539 9.85586V13.6328H6.23469V5.99796H8.51056V7.04134H8.54242C9.00648 6.24786 9.86935 5.77396 10.7879 5.80805C13.1907 5.80805 13.6337 7.38855 13.6337 9.44469L13.6328 13.633ZM3.55975 4.95434C2.79995 4.95447 2.1839 4.33863 2.18376 3.57881C2.18362 2.81898 2.79946 2.20292 3.55926 2.20278C4.31906 2.20265 4.93512 2.81849 4.93525 3.57831C4.93532 3.94319 4.79044 4.29315 4.53248 4.5512C4.27453 4.80926 3.92462 4.95427 3.55975 4.95434ZM4.7451 13.633H2.37193V5.99796H4.7451V13.633ZM14.8147 0.00119305H1.18066C0.536287 -0.00607883 0.00786419 0.510087 0 1.15446V14.8453C0.00759494 15.49 0.535975 16.0067 1.18066 15.9999H14.8147C15.4606 16.0079 15.9911 15.4913 16 14.8453V1.15348C15.9908 0.507826 15.4603 -0.00831011 14.8147 0.000101367" fill="#0A66C2"/>
</g>
<defs>
<clipPath id="clip0_5687_209621">
<rect width="16" height="16" rx="2" fill="white"/>
</clipPath>
</defs>
</svg>
