<svg width="16" height="16" viewBox="0 0 16 16" fill="none" xmlns="http://www.w3.org/2000/svg">
<g clip-path="url(#clip0_5262_214152)">
<path d="M14.9613 10.1369L14.7029 9.40459C14.7029 9.40459 15.7798 7.76778 13.1092 7.20782C13.1092 7.20782 13.2815 5.18334 12.3338 4.23571C14.4014 2.21123 13.9276 -0.847032 9.2325 1.13437C6.82035 -3.47455 -2.48364 7.33704 1.39302 9.06C1.00535 9.57689 1.00535 12.1613 3.67595 12.4198C5.48506 16.2964 9.87861 16.5549 12.42 15.3919C14.9613 14.2289 16.4259 10.5245 14.9613 10.1369ZM3.63287 11.8598C1.43609 11.6444 1.22072 8.62926 3.11598 8.32774C5.01124 8.02622 5.48506 12.0321 3.63287 11.8598ZM2.98676 7.76778C2.38372 7.76778 1.65147 8.58619 1.65147 8.58619C-1.27757 7.16474 6.94957 -2.26848 8.71561 1.39282C8.71561 1.39282 4.40821 3.46037 2.98676 7.76778ZM11.6016 11.4291C11.6016 11.2568 10.697 11.6875 9.0602 11.1276C9.18943 10.223 11.1278 11.9029 14.3583 9.70611L14.6168 10.6107C15.8228 10.3953 14.6168 14.4873 10.7401 14.4443C7.59569 14.4012 6.60498 11.1706 8.32794 9.40459C8.67254 9.06 7.0788 8.37082 7.38032 6.86322C7.50954 6.21711 8.0695 5.26948 9.49094 5.52793C10.9124 5.78637 11.2139 4.49415 12.1615 4.96797C13.1092 5.44178 12.5492 7.25089 12.6784 7.50934C12.8076 7.76778 14.186 7.81085 14.4445 8.54311C14.7029 9.27537 12.6784 10.8691 9.53402 10.4384C8.80176 10.3522 8.37102 11.2999 8.84483 11.9029C9.79246 13.2813 13.6691 12.3767 14.3152 11.0414C12.6784 12.2906 9.31865 12.7644 9.0602 11.4291C10.0078 11.8598 11.6016 11.6014 11.6016 11.4291ZM5.95887 4.62337C6.9065 3.46037 8.15565 2.77119 8.15565 2.77119L7.8972 3.4173C7.8972 3.4173 8.80176 2.72811 9.79246 2.72811L9.44787 3.07271C10.5678 3.11578 11.0416 3.54652 11.0416 3.54652C11.0416 3.54652 8.41409 2.77119 5.95887 4.62337ZM11.7739 6.30326C12.3338 6.26019 12.1615 7.55241 12.1615 7.55241H11.8169C11.8169 7.55241 11.2139 6.34634 11.7739 6.30326ZM9.2325 7.72471C8.84483 7.76778 8.41409 7.98315 8.45717 7.81085C8.62946 7.12167 10.2232 7.29397 10.1801 7.897C10.1371 8.50004 9.79246 7.63856 9.2325 7.72471ZM10.1371 8.24159C10.1801 8.32774 9.83554 8.24159 9.57709 8.28467C9.31865 8.32774 9.0602 8.45696 9.0602 8.37082C9.0602 8.28467 10.0509 7.897 10.1371 8.24159ZM10.9985 8.37082C11.1278 8.11237 11.6446 8.37082 11.5154 8.62926C11.3862 8.88771 10.8693 8.62926 10.9985 8.37082ZM12.0754 8.45696C11.8169 8.45696 11.8169 7.897 12.0754 7.897C12.3338 7.897 12.3338 8.50004 12.0754 8.50004V8.45696ZM4.32206 10.7399C4.45128 10.8691 4.06361 11.1276 3.76209 10.9122C3.46058 10.6968 4.10669 9.66304 3.33135 9.40459C2.55602 9.14615 2.77139 10.1369 2.55602 10.0076C2.34065 9.87841 2.85754 8.50004 3.76209 9.06C4.66665 9.61996 3.50365 10.4814 4.02054 10.7399C4.53743 10.9983 4.23591 10.6537 4.32206 10.7399Z" fill="currentColor"/>
</g>
<defs>
<clipPath id="clip0_5262_214152">
<rect width="16" height="16" fill="white"/>
</clipPath>
</defs>
</svg>
