<svg width="16" height="16" viewBox="0 0 16 16" fill="none" xmlns="http://www.w3.org/2000/svg">
<rect width="16" height="16" rx="2" fill="white"/>
<path d="M6.82122 4.07196C7.27344 3.60355 7.90368 3.30725 8.5982 3.30725C9.5243 3.30725 10.3268 3.8242 10.7576 4.5887C11.1294 4.42185 11.5438 4.33022 11.9822 4.33022C13.6516 4.33022 15 5.69259 15 7.37269C15 9.0528 13.644 10.4154 11.9776 10.4154C11.7787 10.4151 11.5803 10.3953 11.3853 10.3561C11.0082 11.0292 10.2868 11.4867 9.45738 11.4867C9.11275 11.4867 8.78429 11.4058 8.49345 11.268C8.1112 12.1672 7.21724 12.8027 6.17765 12.8027C5.09519 12.8027 4.16909 12.1189 3.81592 11.1549C3.6582 11.1874 3.4976 11.2036 3.33658 11.2035C2.04463 11.2015 1.00001 10.1464 1.00001 8.83762C0.999051 8.42418 1.10644 8.01772 1.31148 7.65871C1.51652 7.2997 1.81205 7.00068 2.16862 6.79144C2.0232 6.46299 1.94251 6.0967 1.94251 5.70899C1.93704 4.21738 3.15945 3 4.6563 3C5.07536 2.99935 5.48887 3.09575 5.86443 3.28166C6.24 3.46756 6.56741 3.73791 6.821 4.07153" fill="#00A1E0"/>
</svg>
