<svg width="356" height="94" viewBox="0 0 356 94" fill="none" xmlns="http://www.w3.org/2000/svg">
<g clip-path="url(#clip0_826_23423)">
<rect x="13" y="4" width="330" height="86" rx="8" fill="white"/>
<path d="M158.83 31H156.614L163.023 13.5455H165.205L171.614 31H169.398L164.182 16.3068H164.045L158.83 31ZM159.648 24.1818H168.58V26.0568H159.648V24.1818ZM173.852 31V13.5455H175.864V19.9886H176.034C176.182 19.7614 176.386 19.4716 176.648 19.1193C176.915 18.7614 177.296 18.4432 177.79 18.1648C178.29 17.8807 178.966 17.7386 179.818 17.7386C180.921 17.7386 181.892 18.0142 182.733 18.5653C183.574 19.1165 184.23 19.8977 184.702 20.9091C185.173 21.9205 185.409 23.1136 185.409 24.4886C185.409 25.875 185.173 27.0767 184.702 28.0938C184.23 29.1051 183.577 29.8892 182.742 30.446C181.906 30.9972 180.943 31.2727 179.852 31.2727C179.011 31.2727 178.338 31.1335 177.833 30.8551C177.327 30.571 176.938 30.25 176.665 29.892C176.392 29.5284 176.182 29.2273 176.034 28.9886H175.796V31H173.852ZM175.83 24.4545C175.83 25.4432 175.975 26.3153 176.264 27.071C176.554 27.821 176.977 28.4091 177.534 28.8352C178.091 29.2557 178.773 29.4659 179.58 29.4659C180.421 29.4659 181.122 29.2443 181.685 28.8011C182.253 28.3523 182.679 27.75 182.963 26.9943C183.253 26.233 183.398 25.3864 183.398 24.4545C183.398 23.5341 183.256 22.7045 182.972 21.9659C182.693 21.2216 182.27 20.6335 181.702 20.2017C181.139 19.7642 180.432 19.5455 179.58 19.5455C178.761 19.5455 178.074 19.7528 177.517 20.1676C176.96 20.5767 176.54 21.1506 176.256 21.8892C175.972 22.6222 175.83 23.4773 175.83 24.4545ZM193.324 31.2727C192.097 31.2727 191.04 30.983 190.154 30.4034C189.267 29.8239 188.585 29.0256 188.108 28.0085C187.631 26.9915 187.392 25.8295 187.392 24.5227C187.392 23.1932 187.637 22.0199 188.125 21.0028C188.62 19.9801 189.307 19.1818 190.188 18.608C191.074 18.0284 192.108 17.7386 193.29 17.7386C194.21 17.7386 195.04 17.9091 195.779 18.25C196.517 18.5909 197.122 19.0682 197.594 19.6818C198.066 20.2955 198.358 21.0114 198.472 21.8295H196.46C196.307 21.233 195.966 20.7045 195.438 20.2443C194.915 19.7784 194.21 19.5455 193.324 19.5455C192.54 19.5455 191.853 19.75 191.262 20.1591C190.676 20.5625 190.219 21.1335 189.889 21.8722C189.566 22.6051 189.404 23.4659 189.404 24.4545C189.404 25.4659 189.563 26.3466 189.881 27.0966C190.205 27.8466 190.659 28.429 191.245 28.8438C191.835 29.2585 192.529 29.4659 193.324 29.4659C193.847 29.4659 194.321 29.375 194.747 29.1932C195.174 29.0114 195.534 28.75 195.83 28.4091C196.125 28.0682 196.335 27.6591 196.46 27.1818H198.472C198.358 27.9545 198.077 28.6506 197.628 29.2699C197.185 29.8835 196.597 30.3722 195.864 30.7358C195.137 31.0938 194.29 31.2727 193.324 31.2727Z" fill="black"/>
<rect width="370" height="1" transform="translate(-7 40)" fill="#CA2E9E"/>
<rect width="370" height="12" transform="translate(-7 41)" fill="#FEB0E8"/>
<rect width="370" height="1" transform="translate(-7 53)" fill="#CA2E9E"/>
<path d="M158.83 81H156.614L163.023 63.5455H165.205L171.614 81H169.398L164.182 66.3068H164.045L158.83 81ZM159.648 74.1818H168.58V76.0568H159.648V74.1818ZM173.852 81V63.5455H175.864V69.9886H176.034C176.182 69.7614 176.386 69.4716 176.648 69.1193C176.915 68.7614 177.296 68.4432 177.79 68.1648C178.29 67.8807 178.966 67.7386 179.818 67.7386C180.921 67.7386 181.892 68.0142 182.733 68.5653C183.574 69.1165 184.23 69.8977 184.702 70.9091C185.173 71.9205 185.409 73.1136 185.409 74.4886C185.409 75.875 185.173 77.0767 184.702 78.0938C184.23 79.1051 183.577 79.8892 182.742 80.446C181.906 80.9972 180.943 81.2727 179.852 81.2727C179.011 81.2727 178.338 81.1335 177.833 80.8551C177.327 80.571 176.938 80.25 176.665 79.892C176.392 79.5284 176.182 79.2273 176.034 78.9886H175.796V81H173.852ZM175.83 74.4545C175.83 75.4432 175.975 76.3153 176.264 77.071C176.554 77.821 176.977 78.4091 177.534 78.8352C178.091 79.2557 178.773 79.4659 179.58 79.4659C180.421 79.4659 181.122 79.2443 181.685 78.8011C182.253 78.3523 182.679 77.75 182.963 76.9943C183.253 76.233 183.398 75.3864 183.398 74.4545C183.398 73.5341 183.256 72.7045 182.972 71.9659C182.693 71.2216 182.27 70.6335 181.702 70.2017C181.139 69.7642 180.432 69.5455 179.58 69.5455C178.761 69.5455 178.074 69.7528 177.517 70.1676C176.96 70.5767 176.54 71.1506 176.256 71.8892C175.972 72.6222 175.83 73.4773 175.83 74.4545ZM193.324 81.2727C192.097 81.2727 191.04 80.983 190.154 80.4034C189.267 79.8239 188.585 79.0256 188.108 78.0085C187.631 76.9915 187.392 75.8295 187.392 74.5227C187.392 73.1932 187.637 72.0199 188.125 71.0028C188.62 69.9801 189.307 69.1818 190.188 68.608C191.074 68.0284 192.108 67.7386 193.29 67.7386C194.21 67.7386 195.04 67.9091 195.779 68.25C196.517 68.5909 197.122 69.0682 197.594 69.6818C198.066 70.2955 198.358 71.0114 198.472 71.8295H196.46C196.307 71.233 195.966 70.7045 195.438 70.2443C194.915 69.7784 194.21 69.5455 193.324 69.5455C192.54 69.5455 191.853 69.75 191.262 70.1591C190.676 70.5625 190.219 71.1335 189.889 71.8722C189.566 72.6051 189.404 73.4659 189.404 74.4545C189.404 75.4659 189.563 76.3466 189.881 77.0966C190.205 77.8466 190.659 78.429 191.245 78.8438C191.835 79.2585 192.529 79.4659 193.324 79.4659C193.847 79.4659 194.321 79.375 194.747 79.1932C195.174 79.0114 195.534 78.75 195.83 78.4091C196.125 78.0682 196.335 77.6591 196.46 77.1818H198.472C198.358 77.9545 198.077 78.6506 197.628 79.2699C197.185 79.8835 196.597 80.3722 195.864 80.7358C195.137 81.0938 194.29 81.2727 193.324 81.2727Z" fill="black"/>
</g>
<rect x="0.5" y="0.5" width="355" height="93" rx="3.5" stroke="#C4C7CC"/>
<defs>
<clipPath id="clip0_826_23423">
<rect width="356" height="94" rx="4" fill="white"/>
</clipPath>
</defs>
</svg>
