<svg width="356" height="94" viewBox="0 0 356 94" fill="none" xmlns="http://www.w3.org/2000/svg">
<g clip-path="url(#clip0_415_4198)">
<g opacity="0.5">
<rect width="12" height="94" fill="#FEB0E8"/>
</g>
<rect width="1" height="94" transform="translate(12)" fill="#CA2E9E"/>
<rect x="13" width="330" height="94" rx="8" fill="white"/>
<g opacity="0.5">
<rect width="370" height="12" transform="translate(-7)" fill="#FEB0E8"/>
</g>
<rect width="370" height="1" transform="translate(-7 12)" fill="#CA2E9E"/>
<path d="M158.83 56H156.614L163.023 38.5455H165.205L171.614 56H169.398L164.182 41.3068H164.045L158.83 56ZM159.648 49.1818H168.58V51.0568H159.648V49.1818ZM173.852 56V38.5455H175.864V44.9886H176.034C176.182 44.7614 176.386 44.4716 176.648 44.1193C176.915 43.7614 177.296 43.4432 177.79 43.1648C178.29 42.8807 178.966 42.7386 179.818 42.7386C180.921 42.7386 181.892 43.0142 182.733 43.5653C183.574 44.1165 184.23 44.8977 184.702 45.9091C185.173 46.9205 185.409 48.1136 185.409 49.4886C185.409 50.875 185.173 52.0767 184.702 53.0938C184.23 54.1051 183.577 54.8892 182.742 55.446C181.906 55.9972 180.943 56.2727 179.852 56.2727C179.011 56.2727 178.338 56.1335 177.833 55.8551C177.327 55.571 176.938 55.25 176.665 54.892C176.392 54.5284 176.182 54.2273 176.034 53.9886H175.796V56H173.852ZM175.83 49.4545C175.83 50.4432 175.975 51.3153 176.264 52.071C176.554 52.821 176.977 53.4091 177.534 53.8352C178.091 54.2557 178.773 54.4659 179.58 54.4659C180.421 54.4659 181.122 54.2443 181.685 53.8011C182.253 53.3523 182.679 52.75 182.963 51.9943C183.253 51.233 183.398 50.3864 183.398 49.4545C183.398 48.5341 183.256 47.7045 182.972 46.9659C182.693 46.2216 182.27 45.6335 181.702 45.2017C181.139 44.7642 180.432 44.5455 179.58 44.5455C178.761 44.5455 178.074 44.7528 177.517 45.1676C176.96 45.5767 176.54 46.1506 176.256 46.8892C175.972 47.6222 175.83 48.4773 175.83 49.4545ZM193.324 56.2727C192.097 56.2727 191.04 55.983 190.154 55.4034C189.267 54.8239 188.585 54.0256 188.108 53.0085C187.631 51.9915 187.392 50.8295 187.392 49.5227C187.392 48.1932 187.637 47.0199 188.125 46.0028C188.62 44.9801 189.307 44.1818 190.188 43.608C191.074 43.0284 192.108 42.7386 193.29 42.7386C194.21 42.7386 195.04 42.9091 195.779 43.25C196.517 43.5909 197.122 44.0682 197.594 44.6818C198.066 45.2955 198.358 46.0114 198.472 46.8295H196.46C196.307 46.233 195.966 45.7045 195.438 45.2443C194.915 44.7784 194.21 44.5455 193.324 44.5455C192.54 44.5455 191.853 44.75 191.262 45.1591C190.676 45.5625 190.219 46.1335 189.889 46.8722C189.566 47.6051 189.404 48.4659 189.404 49.4545C189.404 50.4659 189.563 51.3466 189.881 52.0966C190.205 52.8466 190.659 53.429 191.245 53.8438C191.835 54.2585 192.529 54.4659 193.324 54.4659C193.847 54.4659 194.321 54.375 194.747 54.1932C195.174 54.0114 195.534 53.75 195.83 53.4091C196.125 53.0682 196.335 52.6591 196.46 52.1818H198.472C198.358 52.9545 198.077 53.6506 197.628 54.2699C197.185 54.8835 196.597 55.3722 195.864 55.7358C195.137 56.0938 194.29 56.2727 193.324 56.2727Z" fill="black"/>
<rect width="370" height="1" transform="translate(-7 81)" fill="#CA2E9E"/>
<g opacity="0.5">
<rect width="370" height="12" transform="translate(-7 82)" fill="#FEB0E8"/>
</g>
<rect width="1" height="94" transform="translate(343)" fill="#CA2E9E"/>
<g opacity="0.5">
<rect width="12" height="94" transform="translate(344)" fill="#FEB0E8"/>
</g>
</g>
<rect x="0.5" y="0.5" width="355" height="93" rx="3.5" stroke="#C4C7CC"/>
<defs>
<clipPath id="clip0_415_4198">
<rect width="356" height="94" rx="4" fill="white"/>
</clipPath>
</defs>
</svg>
