<svg width="202" height="142" viewBox="0 0 202 142" fill="none" xmlns="http://www.w3.org/2000/svg">
    <rect y="0.432007" width="202" height="141.136" rx="12" fill="black"/>
    <path d="M80.2247 26.612C79.6327 26.612 79.0927 26.508 78.6047 26.3C78.1167 26.092 77.6967 25.794 77.3447 25.406C76.9927 25.014 76.7207 24.542 76.5287 23.99C76.3407 23.434 76.2467 22.808 76.2467 22.112C76.2467 21.192 76.4107 20.396 76.7387 19.724C77.0667 19.052 77.5287 18.534 78.1247 18.17C78.7207 17.802 79.4207 17.618 80.2247 17.618C81.1927 17.618 81.9727 17.844 82.5647 18.296C83.1567 18.744 83.5647 19.358 83.7887 20.138L82.7087 20.36C82.5287 19.836 82.2327 19.418 81.8207 19.106C81.4087 18.794 80.8947 18.638 80.2787 18.638C79.6347 18.634 79.0987 18.778 78.6707 19.07C78.2467 19.358 77.9267 19.764 77.7107 20.288C77.4947 20.812 77.3847 21.42 77.3807 22.112C77.3767 22.8 77.4827 23.404 77.6987 23.924C77.9147 24.444 78.2367 24.852 78.6647 25.148C79.0967 25.44 79.6347 25.588 80.2787 25.592C80.8347 25.596 81.3027 25.49 81.6827 25.274C82.0627 25.058 82.3567 24.746 82.5647 24.338C82.7727 23.93 82.8987 23.44 82.9427 22.868H81.1067V21.986H84.0707C84.0827 22.066 84.0887 22.162 84.0887 22.274C84.0927 22.382 84.0947 22.456 84.0947 22.496C84.0947 23.284 83.9467 23.99 83.6507 24.614C83.3587 25.234 82.9247 25.722 82.3487 26.078C81.7767 26.434 81.0687 26.612 80.2247 26.612ZM85.4131 18.806V17.702H86.4811V18.806H85.4131ZM85.4131 26.432V19.952H86.4811V26.432H85.4131ZM88.8994 26.432V19.598C88.8994 19.43 88.9074 19.26 88.9234 19.088C88.9394 18.912 88.9754 18.742 89.0314 18.578C89.0874 18.41 89.1794 18.256 89.3074 18.116C89.4554 17.952 89.6174 17.836 89.7934 17.768C89.9694 17.696 90.1474 17.652 90.3274 17.636C90.5114 17.62 90.6854 17.612 90.8494 17.612H91.6714V18.5H90.9094C90.5934 18.5 90.3574 18.578 90.2014 18.734C90.0454 18.886 89.9674 19.118 89.9674 19.43V26.432H88.8994ZM87.8014 20.834V19.952H91.6714V20.834H87.8014ZM96.2471 26.432C95.8631 26.508 95.4831 26.538 95.1071 26.522C94.7351 26.51 94.4031 26.436 94.1111 26.3C93.8191 26.16 93.5971 25.944 93.4451 25.652C93.3171 25.396 93.2471 25.138 93.2351 24.878C93.2271 24.614 93.2231 24.316 93.2231 23.984V18.152H94.2911V23.936C94.2911 24.2 94.2931 24.426 94.2971 24.614C94.3051 24.802 94.3471 24.964 94.4231 25.1C94.5671 25.356 94.7951 25.506 95.1071 25.55C95.4231 25.594 95.8031 25.582 96.2471 25.514V26.432ZM91.9091 20.834V19.952H96.2471V20.834H91.9091ZM103.517 26.612C102.657 26.612 101.927 26.422 101.327 26.042C100.727 25.662 100.269 25.134 99.953 24.458C99.641 23.782 99.485 23 99.485 22.112C99.485 21.224 99.641 20.442 99.953 19.766C100.269 19.09 100.727 18.562 101.327 18.182C101.927 17.802 102.657 17.612 103.517 17.612C104.517 17.612 105.339 17.866 105.983 18.374C106.631 18.882 107.077 19.566 107.321 20.426L106.235 20.714C106.059 20.07 105.745 19.562 105.293 19.19C104.841 18.818 104.249 18.632 103.517 18.632C102.873 18.632 102.337 18.778 101.909 19.07C101.481 19.362 101.159 19.77 100.943 20.294C100.727 20.814 100.617 21.42 100.613 22.112C100.609 22.8 100.715 23.406 100.931 23.93C101.147 24.45 101.471 24.858 101.903 25.154C102.335 25.446 102.873 25.592 103.517 25.592C104.249 25.592 104.841 25.406 105.293 25.034C105.745 24.658 106.059 24.15 106.235 23.51L107.321 23.798C107.077 24.654 106.631 25.338 105.983 25.85C105.339 26.358 104.517 26.612 103.517 26.612ZM110.479 26.612C109.995 26.612 109.589 26.524 109.261 26.348C108.937 26.168 108.691 25.932 108.523 25.64C108.359 25.348 108.277 25.028 108.277 24.68C108.277 24.34 108.341 24.046 108.469 23.798C108.601 23.546 108.785 23.338 109.021 23.174C109.257 23.006 109.539 22.874 109.867 22.778C110.175 22.694 110.519 22.622 110.899 22.562C111.283 22.498 111.671 22.44 112.063 22.388C112.455 22.336 112.821 22.286 113.161 22.238L112.777 22.46C112.789 21.884 112.673 21.458 112.429 21.182C112.189 20.906 111.773 20.768 111.181 20.768C110.789 20.768 110.445 20.858 110.149 21.038C109.857 21.214 109.651 21.502 109.531 21.902L108.517 21.596C108.673 21.028 108.975 20.582 109.423 20.258C109.871 19.934 110.461 19.772 111.193 19.772C111.781 19.772 112.285 19.878 112.705 20.09C113.129 20.298 113.433 20.614 113.617 21.038C113.709 21.238 113.767 21.456 113.791 21.692C113.815 21.924 113.827 22.168 113.827 22.424V26.432H112.879V24.878L113.101 25.022C112.857 25.546 112.515 25.942 112.075 26.21C111.639 26.478 111.107 26.612 110.479 26.612ZM110.641 25.718C111.025 25.718 111.357 25.65 111.637 25.514C111.921 25.374 112.149 25.192 112.321 24.968C112.493 24.74 112.605 24.492 112.657 24.224C112.717 24.024 112.749 23.802 112.753 23.558C112.761 23.31 112.765 23.12 112.765 22.988L113.137 23.15C112.789 23.198 112.447 23.244 112.111 23.288C111.775 23.332 111.457 23.38 111.157 23.432C110.857 23.48 110.587 23.538 110.347 23.606C110.171 23.662 110.005 23.734 109.849 23.822C109.697 23.91 109.573 24.024 109.477 24.164C109.385 24.3 109.339 24.47 109.339 24.674C109.339 24.85 109.383 25.018 109.471 25.178C109.563 25.338 109.703 25.468 109.891 25.568C110.083 25.668 110.333 25.718 110.641 25.718ZM115.387 26.432V19.952H116.341V21.518L116.185 21.314C116.261 21.114 116.359 20.93 116.479 20.762C116.603 20.594 116.741 20.456 116.893 20.348C117.061 20.212 117.251 20.108 117.463 20.036C117.675 19.964 117.891 19.922 118.111 19.91C118.331 19.894 118.537 19.908 118.729 19.952V20.954C118.505 20.894 118.259 20.878 117.991 20.906C117.723 20.934 117.475 21.032 117.247 21.2C117.039 21.348 116.877 21.528 116.761 21.74C116.649 21.952 116.571 22.182 116.527 22.43C116.483 22.674 116.461 22.924 116.461 23.18V26.432H115.387ZM122.29 26.612C121.686 26.612 121.168 26.462 120.736 26.162C120.304 25.858 119.97 25.448 119.734 24.932C119.502 24.416 119.386 23.834 119.386 23.186C119.386 22.538 119.502 21.956 119.734 21.44C119.97 20.924 120.304 20.518 120.736 20.222C121.168 19.922 121.684 19.772 122.284 19.772C122.896 19.772 123.41 19.92 123.826 20.216C124.242 20.512 124.556 20.918 124.768 21.434C124.984 21.95 125.092 22.534 125.092 23.186C125.092 23.83 124.984 24.412 124.768 24.932C124.556 25.448 124.242 25.858 123.826 26.162C123.41 26.462 122.898 26.612 122.29 26.612ZM122.422 25.634C122.858 25.634 123.216 25.53 123.496 25.322C123.776 25.11 123.982 24.82 124.114 24.452C124.25 24.08 124.318 23.658 124.318 23.186C124.318 22.706 124.25 22.284 124.114 21.92C123.982 21.552 123.778 21.266 123.502 21.062C123.226 20.854 122.876 20.75 122.452 20.75C122.012 20.75 121.648 20.858 121.36 21.074C121.076 21.29 120.864 21.582 120.724 21.95C120.588 22.318 120.52 22.73 120.52 23.186C120.52 23.646 120.59 24.062 120.73 24.434C120.87 24.802 121.08 25.094 121.36 25.31C121.644 25.526 121.998 25.634 122.422 25.634ZM124.318 26.432V21.662H124.198V17.792H125.272V26.432H124.318Z" fill="white"/>
    <path d="M54.1648 54.9762V70.8002C54.1648 71.0567 54.0629 71.3026 53.8815 71.484C53.7001 71.6654 53.4541 71.7673 53.1976 71.7673H48.2024C47.946 71.7672 47.7001 71.6652 47.5187 71.4839C47.3374 71.3025 47.2354 71.0566 47.2353 70.8002V45.0618C47.2353 44.8053 47.3372 44.5593 47.5186 44.3779C47.6999 44.1965 47.9459 44.0947 48.2024 44.0947H52.8249C53.0814 44.0947 53.3274 44.1965 53.5088 44.3779C53.6902 44.5593 53.7921 44.8053 53.7921 45.0618V48.6864C53.7921 48.6864 55.4445 43.516 60.3484 43.516C60.3484 43.516 65.199 42.9297 67.1713 48.3133C67.1713 48.3133 68.8237 43.516 73.8342 43.516C73.8342 43.516 81.2856 43.0729 81.2856 50.7832L81.3423 55.0296V70.8535C81.3423 71.11 81.2404 71.356 81.0591 71.5373C80.8777 71.7187 80.6317 71.8206 80.3752 71.8206H75.3796C75.1231 71.8205 74.8772 71.7185 74.6958 71.5372C74.5145 71.3559 74.4126 71.1099 74.4124 70.8535L74.3668 53.5904C74.5088 49.6813 71.3464 49.9657 71.3464 49.9657C67.3666 50.0369 67.7495 55.0296 67.7495 55.0296V70.8535C67.7495 71.11 67.6476 71.356 67.4662 71.5373C67.2849 71.7187 67.0389 71.8206 66.7824 71.8206H61.7872C61.5307 71.8205 61.2848 71.7185 61.1034 71.5372C60.9221 71.3559 60.8201 71.1099 60.82 70.8535V53.981C60.82 53.981 61.1121 49.9299 57.5583 49.9299C57.5587 49.9299 54.0407 49.4681 54.1648 54.9762ZM182.927 54.9289V70.7524C182.927 71.0089 182.825 71.2548 182.644 71.4361C182.462 71.6175 182.216 71.7194 181.96 71.7195L176.765 71.8202C176.508 71.8201 176.262 71.7181 176.081 71.5368C175.9 71.3554 175.798 71.1095 175.798 70.853V53.981C175.798 53.981 176.09 49.9299 172.536 49.9299C172.536 49.9299 169.142 49.7627 169.142 56.1144V70.7997C169.142 71.0562 169.04 71.3021 168.859 71.4835C168.677 71.6648 168.432 71.7668 168.175 71.7669H163.179C162.923 71.7668 162.677 71.6648 162.496 71.4835C162.314 71.3021 162.212 71.0562 162.212 70.7997V45.0618C162.212 44.8053 162.314 44.5594 162.496 44.378C162.677 44.1967 162.923 44.0948 163.179 44.0947H167.802C168.058 44.0947 168.304 44.1965 168.486 44.3779C168.667 44.5593 168.769 44.8053 168.769 45.0618V48.6864C168.769 48.6864 170.422 43.516 175.325 43.516C175.325 43.516 180.579 42.719 182.348 48.2131C182.348 48.2127 182.927 49.3461 182.927 54.9289ZM146.86 43.4094C140.472 43.4094 135.293 48.793 135.293 57.8546C135.293 65.8327 139.291 72.2999 146.86 72.2999C154.002 72.2999 158.427 65.8327 158.427 57.8546C158.427 48.953 153.248 43.4094 146.86 43.4094ZM150.892 58.1745C150.892 61.5859 150.465 63.3982 150.465 63.3982C149.858 67.0045 147.24 67.0096 146.855 66.9904C146.438 67.0071 143.798 66.9695 143.252 63.3982C143.252 63.3982 142.825 61.5859 142.825 58.1745V57.606C142.825 54.1946 143.252 52.3823 143.252 52.3823C143.798 48.8109 146.438 48.7734 146.855 48.7896C147.24 48.7704 149.858 48.7751 150.465 52.3823C150.465 52.3823 150.892 54.1946 150.892 57.606V58.1745ZM132.393 48.6506V44.9577C132.393 44.7013 132.291 44.4553 132.11 44.274C131.929 44.0926 131.683 43.9907 131.426 43.9906H114.915C114.659 43.9906 114.413 44.0925 114.231 44.2739C114.05 44.4552 113.948 44.7012 113.948 44.9577V48.622C113.948 48.8785 114.05 49.1244 114.231 49.3058C114.413 49.4871 114.659 49.5891 114.915 49.5892H123.528L113.333 64.3777C113.333 64.3777 112.932 64.9773 112.945 65.6395V70.1379C112.945 70.1379 112.878 71.6803 114.628 70.7852C114.628 70.7852 117.735 68.9081 122.944 68.9081C122.944 68.9081 128.089 68.8441 131.519 70.9468C131.519 70.9468 132.943 71.5942 132.943 70.1707V66.2553C132.943 66.2553 133.072 65.2191 131.713 64.5722C131.713 64.5722 127.765 62.4042 122.588 62.7598L132.393 48.6506ZM43.38 67.1644L41.8163 64.7841C41.3186 63.8954 41.3544 62.9001 41.3544 62.9001V51.92C41.5676 42.432 31.0489 43.2495 31.0489 43.2495C21.6982 43.2495 20.317 50.5265 20.317 50.5265C19.9273 51.9895 21.0607 52.0249 21.0607 52.0249L25.6299 52.4885C25.6299 52.4885 26.409 52.6667 26.6925 51.7392C26.6925 51.7392 27.2942 48.5645 30.6592 48.5645C34.3205 48.5645 34.2825 51.7068 34.2825 51.7068V54.3375C26.9736 54.5818 23.5864 56.6107 23.5864 56.6107C19.0736 59.1693 19.3576 64.2511 19.3576 64.2511C19.3576 72.5306 27.2465 72.175 27.2465 72.175C32.2924 72.175 35.2774 68.4795 35.2774 68.4795C36.1657 70.0437 37.8006 71.5353 37.8006 71.5353C38.6185 72.4223 39.4709 71.6777 39.4709 71.6777L43.1668 68.5153C43.9838 67.9107 43.38 67.1644 43.38 67.1644ZM29.7091 67.0621C27.3356 67.0621 26.4533 64.7035 26.8473 62.3854C27.2418 60.0674 29.2903 58.2457 34.283 58.299V59.7083C34.4599 65.8651 31.6847 67.0621 29.7091 67.0621ZM109.76 67.1644L108.197 64.7841C107.699 63.8954 107.735 62.9001 107.735 62.9001V51.92C107.948 42.432 97.4293 43.2495 97.4293 43.2495C88.0786 43.2495 86.6974 50.5265 86.6974 50.5265C86.3077 51.9895 87.4411 52.0249 87.4411 52.0249L92.0103 52.4885C92.0103 52.4885 92.7894 52.6667 93.0729 51.7392C93.0729 51.7392 93.6746 48.5645 97.0396 48.5645C100.701 48.5645 100.663 51.7068 100.663 51.7068V54.3375C93.3544 54.5818 89.9668 56.6107 89.9668 56.6107C85.4539 59.1693 85.738 64.2511 85.738 64.2511C85.738 72.5306 93.6269 72.175 93.6269 72.175C98.6728 72.175 101.658 68.4795 101.658 68.4795C102.546 70.0437 104.181 71.5353 104.181 71.5353C104.998 72.4223 105.851 71.6777 105.851 71.6777L109.547 68.5153C110.364 67.9107 109.76 67.1644 109.76 67.1644ZM96.0895 67.0621C93.716 67.0621 92.8337 64.7035 93.2277 62.3854C93.6222 60.0674 95.6707 58.2457 100.663 58.299V59.7083C100.84 65.8651 98.0656 67.0621 96.0895 67.0621Z" fill="white"/>
    <path d="M122.338 87.9477C122.338 87.9477 121.92 88.6748 122.434 88.8372C122.434 88.8372 123.014 89.0637 123.737 88.3925C123.737 88.3925 129.011 83.7849 129.138 75.3962C129.138 75.3962 129.177 74.3485 128.757 74.0619C128.757 74.0619 127.104 72.6001 121.162 73.0449C121.162 73.0449 115.983 73.3946 113.155 75.905C113.155 75.905 112.901 76.1271 112.901 76.4128C112.901 76.4128 112.84 77.0299 114.395 76.7625C114.395 76.7625 119.574 76.0312 122.656 76.4128C122.656 76.4128 124.245 76.6035 124.69 77.1442C124.69 77.1442 125.421 77.748 125.039 79.7492C125.039 79.7501 123.99 84.8339 122.338 87.9477Z" fill="#F3971B"/>
    <path d="M121.294 79.8998C121.294 79.8998 122.067 80.9019 120.819 81.7662C120.819 81.7662 107.486 92.4312 85.0985 92.4312C85.0985 92.4312 62.0534 93.5681 42.8109 76.0845C42.8109 76.0845 42.1362 75.4922 42.555 74.9417C42.555 74.9417 42.9294 74.4351 43.8987 74.986C43.8987 74.986 62.0001 86.2655 85.7735 86.2655C85.7735 86.2655 102.298 86.9051 119.248 79.6559C119.248 79.6559 120.599 78.9561 121.294 79.8998Z" fill="#F3971B"/>
    <path d="M43.4641 125.16V123.264H45.3921V125.16H43.4641ZM43.4641 112.36V110.464H45.3921V112.36H43.4641ZM44.4721 123.808C43.6615 123.808 42.9361 123.659 42.2961 123.36C41.6561 123.061 41.1308 122.64 40.7201 122.096C40.3148 121.552 40.0561 120.907 39.9441 120.16L41.8481 119.856C41.9975 120.512 42.3175 121.035 42.8081 121.424C43.3041 121.808 43.8961 122 44.5841 122C45.2455 122 45.7895 121.845 46.2161 121.536C46.6428 121.221 46.8561 120.824 46.8561 120.344C46.8561 120.008 46.7548 119.736 46.5521 119.528C46.3495 119.315 46.0241 119.139 45.5761 119L42.8001 118.136C41.1841 117.635 40.3761 116.653 40.3761 115.192C40.3761 114.509 40.5388 113.915 40.8641 113.408C41.1948 112.896 41.6588 112.504 42.2561 112.232C42.8535 111.955 43.5575 111.819 44.3681 111.824C45.1201 111.829 45.7895 111.965 46.3761 112.232C46.9681 112.499 47.4588 112.883 47.8481 113.384C48.2428 113.885 48.5228 114.488 48.6881 115.192L46.7121 115.552C46.6375 115.173 46.4908 114.84 46.2721 114.552C46.0535 114.264 45.7788 114.04 45.4481 113.88C45.1175 113.72 44.7495 113.635 44.3441 113.624C43.9548 113.619 43.6055 113.68 43.2961 113.808C42.9868 113.931 42.7415 114.107 42.5601 114.336C42.3788 114.56 42.2881 114.813 42.2881 115.096C42.2881 115.411 42.4135 115.68 42.6641 115.904C42.9201 116.128 43.3228 116.32 43.8721 116.48L45.9441 117.08C46.9415 117.368 47.6588 117.76 48.0961 118.256C48.5388 118.747 48.7601 119.4 48.7601 120.216C48.7601 120.931 48.5815 121.557 48.2241 122.096C47.8668 122.635 47.3655 123.056 46.7201 123.36C46.0748 123.659 45.3255 123.808 44.4721 123.808ZM53.911 123.808C53.3243 123.808 52.7777 123.688 52.271 123.448C51.7643 123.203 51.327 122.867 50.959 122.44C50.5963 122.013 50.335 121.517 50.175 120.952L52.031 120.456C52.1057 120.765 52.2417 121.032 52.439 121.256C52.6417 121.48 52.8763 121.653 53.143 121.776C53.415 121.899 53.695 121.96 53.983 121.96C54.3563 121.96 54.6977 121.869 55.007 121.688C55.3163 121.507 55.5617 121.264 55.743 120.96C55.9243 120.651 56.015 120.309 56.015 119.936C56.015 119.563 55.9217 119.224 55.735 118.92C55.5537 118.611 55.3083 118.368 54.999 118.192C54.6897 118.011 54.351 117.92 53.983 117.92C53.5403 117.92 53.1723 118 52.879 118.16C52.591 118.32 52.3697 118.491 52.215 118.672L50.567 118.144L50.919 112.048H57.175V113.856H51.951L52.671 113.176L52.415 117.416L52.063 116.984C52.3617 116.712 52.7083 116.509 53.103 116.376C53.4977 116.243 53.879 116.176 54.247 116.176C54.967 116.176 55.6043 116.341 56.159 116.672C56.719 116.997 57.1563 117.443 57.471 118.008C57.791 118.573 57.951 119.216 57.951 119.936C57.951 120.656 57.7643 121.309 57.391 121.896C57.0177 122.477 56.5243 122.941 55.911 123.288C55.303 123.635 54.6363 123.808 53.911 123.808ZM64.014 123.808C63.198 123.808 62.478 123.635 61.854 123.288C61.23 122.936 60.742 122.448 60.39 121.824C60.0433 121.2 59.87 120.48 59.87 119.664V115.952C59.87 115.136 60.0433 114.416 60.39 113.792C60.742 113.168 61.23 112.683 61.854 112.336C62.478 111.984 63.198 111.808 64.014 111.808C64.83 111.808 65.5473 111.984 66.166 112.336C66.79 112.683 67.278 113.168 67.63 113.792C67.982 114.416 68.158 115.136 68.158 115.952V119.664C68.158 120.48 67.982 121.2 67.63 121.824C67.278 122.448 66.79 122.936 66.166 123.288C65.5473 123.635 64.83 123.808 64.014 123.808ZM64.014 121.976C64.4193 121.976 64.7873 121.88 65.118 121.688C65.4487 121.491 65.71 121.229 65.902 120.904C66.094 120.573 66.19 120.205 66.19 119.8V115.808C66.19 115.397 66.094 115.029 65.902 114.704C65.71 114.373 65.4487 114.112 65.118 113.92C64.7873 113.723 64.4193 113.624 64.014 113.624C63.6087 113.624 63.2407 113.723 62.91 113.92C62.5793 114.112 62.318 114.373 62.126 114.704C61.934 115.029 61.838 115.397 61.838 115.808V119.8C61.838 120.205 61.934 120.573 62.126 120.904C62.318 121.229 62.5793 121.491 62.91 121.688C63.2407 121.88 63.6087 121.976 64.014 121.976ZM74.2444 122.528V120.552H76.2204V122.528H74.2444ZM74.2604 117.944V115.968H76.2364V117.944H74.2604ZM87.1639 123.808C86.0119 123.808 85.0252 123.557 84.2039 123.056C83.3825 122.549 82.7505 121.845 82.3079 120.944C81.8705 120.043 81.6519 118.997 81.6519 117.808C81.6519 116.619 81.8705 115.573 82.3079 114.672C82.7505 113.771 83.3825 113.069 84.2039 112.568C85.0252 112.061 86.0119 111.808 87.1639 111.808C88.4919 111.808 89.5985 112.141 90.4839 112.808C91.3692 113.469 91.9905 114.363 92.3479 115.488L90.4039 116.024C90.1799 115.272 89.7985 114.685 89.2599 114.264C88.7212 113.837 88.0225 113.624 87.1639 113.624C86.3905 113.624 85.7452 113.797 85.2279 114.144C84.7159 114.491 84.3292 114.979 84.0679 115.608C83.8119 116.232 83.6812 116.965 83.6759 117.808C83.6759 118.651 83.8039 119.387 84.0599 120.016C84.3212 120.64 84.7105 121.125 85.2279 121.472C85.7452 121.819 86.3905 121.992 87.1639 121.992C88.0225 121.992 88.7212 121.779 89.2599 121.352C89.7985 120.925 90.1799 120.339 90.4039 119.592L92.3479 120.128C91.9905 121.253 91.3692 122.149 90.4839 122.816C89.5985 123.477 88.4919 123.808 87.1639 123.808ZM94.2644 123.568V111.808H96.1924V123.568H94.2644ZM101.005 123.808C100.381 123.808 99.8528 123.691 99.4208 123.456C98.9888 123.216 98.6608 122.899 98.4368 122.504C98.2181 122.109 98.1088 121.675 98.1088 121.2C98.1088 120.784 98.1781 120.411 98.3168 120.08C98.4554 119.744 98.6688 119.456 98.9568 119.216C99.2448 118.971 99.6181 118.771 100.077 118.616C100.423 118.504 100.829 118.403 101.293 118.312C101.762 118.221 102.269 118.139 102.813 118.064C103.362 117.984 103.935 117.899 104.533 117.808L103.845 118.2C103.85 117.603 103.717 117.163 103.445 116.88C103.173 116.597 102.714 116.456 102.069 116.456C101.679 116.456 101.303 116.547 100.941 116.728C100.578 116.909 100.325 117.221 100.181 117.664L98.4208 117.112C98.6341 116.381 99.0394 115.795 99.6368 115.352C100.239 114.909 101.05 114.688 102.069 114.688C102.837 114.688 103.511 114.813 104.093 115.064C104.679 115.315 105.114 115.725 105.397 116.296C105.551 116.6 105.645 116.912 105.677 117.232C105.709 117.547 105.725 117.891 105.725 118.264V123.568H104.037V121.696L104.317 122C103.927 122.624 103.471 123.083 102.949 123.376C102.431 123.664 101.783 123.808 101.005 123.808ZM101.389 122.272C101.826 122.272 102.199 122.195 102.509 122.04C102.818 121.885 103.063 121.696 103.245 121.472C103.431 121.248 103.557 121.037 103.621 120.84C103.722 120.595 103.778 120.315 103.789 120C103.805 119.68 103.813 119.421 103.813 119.224L104.405 119.4C103.823 119.491 103.325 119.571 102.909 119.64C102.493 119.709 102.135 119.776 101.837 119.84C101.538 119.899 101.274 119.965 101.045 120.04C100.821 120.12 100.631 120.213 100.477 120.32C100.322 120.427 100.202 120.549 100.117 120.688C100.037 120.827 99.9968 120.989 99.9968 121.176C99.9968 121.389 100.05 121.579 100.157 121.744C100.263 121.904 100.418 122.032 100.621 122.128C100.829 122.224 101.085 122.272 101.389 122.272ZM107.968 113.616V111.848H109.896V113.616H107.968ZM107.968 123.568V114.928H109.896V123.568H107.968ZM122.668 123.568V118.32C122.668 117.728 122.521 117.267 122.228 116.936C121.935 116.6 121.537 116.432 121.036 116.432C120.727 116.432 120.449 116.504 120.204 116.648C119.959 116.787 119.764 116.995 119.62 117.272C119.476 117.544 119.404 117.869 119.404 118.248L118.548 117.744C118.543 117.147 118.676 116.621 118.948 116.168C119.225 115.709 119.599 115.352 120.068 115.096C120.537 114.84 121.06 114.712 121.636 114.712C122.591 114.712 123.321 115 123.828 115.576C124.34 116.147 124.596 116.899 124.596 117.832V123.568H122.668ZM112.276 123.568V114.928H113.98V117.608H114.22V123.568H112.276ZM117.484 123.568V118.344C117.484 117.741 117.337 117.272 117.044 116.936C116.751 116.6 116.351 116.432 115.844 116.432C115.353 116.432 114.959 116.6 114.66 116.936C114.367 117.272 114.22 117.709 114.22 118.248L113.356 117.672C113.356 117.112 113.495 116.608 113.772 116.16C114.049 115.712 114.423 115.36 114.892 115.104C115.367 114.843 115.897 114.712 116.484 114.712C117.129 114.712 117.668 114.851 118.1 115.128C118.537 115.4 118.863 115.773 119.076 116.248C119.295 116.717 119.404 117.248 119.404 117.84V123.568H117.484ZM129.886 123.568V112.048H131.838L137.182 120.168V112.048H139.134V123.568H137.182L131.838 115.448V123.568H129.886ZM145.186 123.808C144.322 123.808 143.567 123.613 142.922 123.224C142.277 122.835 141.775 122.299 141.418 121.616C141.066 120.928 140.89 120.139 140.89 119.248C140.89 118.341 141.071 117.547 141.434 116.864C141.797 116.181 142.301 115.648 142.946 115.264C143.591 114.88 144.338 114.688 145.186 114.688C146.055 114.688 146.813 114.883 147.458 115.272C148.103 115.661 148.605 116.2 148.962 116.888C149.319 117.571 149.498 118.357 149.498 119.248C149.498 120.144 149.317 120.936 148.954 121.624C148.597 122.307 148.095 122.843 147.45 123.232C146.805 123.616 146.05 123.808 145.186 123.808ZM145.186 122C145.954 122 146.525 121.744 146.898 121.232C147.271 120.72 147.458 120.059 147.458 119.248C147.458 118.411 147.269 117.744 146.89 117.248C146.511 116.747 145.943 116.496 145.186 116.496C144.669 116.496 144.242 116.613 143.906 116.848C143.575 117.077 143.33 117.4 143.17 117.816C143.01 118.227 142.93 118.704 142.93 119.248C142.93 120.085 143.119 120.755 143.498 121.256C143.882 121.752 144.445 122 145.186 122ZM152.788 123.568L150.148 114.912L152.036 114.928L153.724 120.472L155.436 114.928H157.06L158.764 120.472L160.46 114.928H162.348L159.708 123.568H158.204L156.244 117.624L154.292 123.568H152.788Z" fill="white"/>
</svg>
