<svg width="32" height="32" viewBox="0 0 32 32" fill="none" xmlns="http://www.w3.org/2000/svg">
<path d="M14.8571 9.14286C14.8571 5.98697 12.2987 3.42857 9.14284 3.42857C5.98696 3.42857 3.42856 5.98697 3.42856 9.14286C3.42856 12.2987 5.98696 14.8571 9.14284 14.8571C12.2987 14.8571 14.8571 12.2987 14.8571 9.14286Z" fill="#E7E7E9"/>
<path d="M14.8571 9.14286C14.8571 5.98697 12.2987 3.42857 9.14284 3.42857C5.98696 3.42857 3.42856 5.98697 3.42856 9.14286C3.42856 12.2987 5.98696 14.8571 9.14284 14.8571C12.2987 14.8571 14.8571 12.2987 14.8571 9.14286Z" stroke="#1F293A" stroke-width="0.66"/>
<path d="M9.14285 9.38097V13.9047" stroke="#FF4A3F" stroke-width="0.5" stroke-linecap="round"/>
<path d="M12.2381 6.52383L9.14287 9.38097L7.23813 7.71429" stroke="#1F293A" stroke-width="0.66" stroke-linecap="round"/>
<path d="M14.8571 22.8571C14.8571 19.7013 12.2987 17.1429 9.14284 17.1429C5.98696 17.1429 3.42856 19.7013 3.42856 22.8571C3.42856 26.013 5.98696 28.5714 9.14284 28.5714C12.2987 28.5714 14.8571 26.013 14.8571 22.8571Z" fill="#FFCFE6"/>
<path d="M14.8571 22.8571C14.8571 19.7013 12.2987 17.1429 9.14284 17.1429C5.98696 17.1429 3.42856 19.7013 3.42856 22.8571C3.42856 26.013 5.98696 28.5714 9.14284 28.5714C12.2987 28.5714 14.8571 26.013 14.8571 22.8571Z" stroke="#1F293A" stroke-width="0.66"/>
<path d="M9.14285 23.0953V27.619" stroke="#FF4A3F" stroke-width="0.5" stroke-linecap="round"/>
<path d="M9.14285 18.8095V23.0953L7.47617 24.7619" stroke="#1F293A" stroke-width="0.66" stroke-linecap="round"/>
<path d="M28.5714 9.14286C28.5714 5.98697 26.013 3.42857 22.8571 3.42857C19.7013 3.42857 17.1429 5.98697 17.1429 9.14286C17.1429 12.2987 19.7013 14.8571 22.8571 14.8571C26.013 14.8571 28.5714 12.2987 28.5714 9.14286Z" fill="#FFF0D1"/>
<path d="M28.5714 9.14286C28.5714 5.98697 26.013 3.42857 22.8571 3.42857C19.7013 3.42857 17.1429 5.98697 17.1429 9.14286C17.1429 12.2987 19.7013 14.8571 22.8571 14.8571C26.013 14.8571 28.5714 12.2987 28.5714 9.14286Z" stroke="#1F293A" stroke-width="0.66"/>
<path d="M22.8571 9.38097V13.9047" stroke="#FF4A3F" stroke-width="0.5" stroke-linecap="round"/>
<path d="M22.8571 5.09523V9.38097L24.2857 11.0476" stroke="#1F293A" stroke-width="0.66" stroke-linecap="round"/>
<path d="M28.5714 22.8571C28.5714 19.7013 26.013 17.1429 22.8571 17.1429C19.7013 17.1429 17.1429 19.7013 17.1429 22.8571C17.1429 26.013 19.7013 28.5714 22.8571 28.5714C26.013 28.5714 28.5714 26.013 28.5714 22.8571Z" fill="#E5D4F5"/>
<path d="M28.5714 22.8571C28.5714 19.7013 26.013 17.1429 22.8571 17.1429C19.7013 17.1429 17.1429 19.7013 17.1429 22.8571C17.1429 26.013 19.7013 28.5714 22.8571 28.5714C26.013 28.5714 28.5714 26.013 28.5714 22.8571Z" stroke="#1F293A" stroke-width="0.66"/>
<path d="M22.8571 23.0953V27.619" stroke="#FF4A3F" stroke-width="0.5" stroke-linecap="round"/>
<path d="M22.8572 18.8095V23.0953H20.7143" stroke="#1F293A" stroke-width="0.66" stroke-linecap="round"/>
</svg>
