<svg xmlns="http://www.w3.org/2000/svg" width="32" height="32" viewBox="0 0 32 32" fill="none">
  <path d="M12.3733 3.2002H4.26668C3.67758 3.2002 3.20001 3.67776 3.20001 4.26686V12.3735C3.20001 12.9626 3.67758 13.4402 4.26668 13.4402H12.3733C12.9625 13.4402 13.44 12.9626 13.44 12.3735V4.26686C13.44 3.67776 12.9625 3.2002 12.3733 3.2002Z" fill="#F4F4F5"/>
  <path d="M13.6533 4.47998H5.54665C4.95754 4.47998 4.47998 4.95754 4.47998 5.54665V13.6533C4.47998 14.2424 4.95754 14.72 5.54665 14.72H13.6533C14.2424 14.72 14.72 14.2424 14.72 13.6533V5.54665C14.72 4.95754 14.2424 4.47998 13.6533 4.47998Z" fill="#D5D5D9"/>
  <path d="M14.9333 5.75977H6.82668C6.23757 5.75977 5.76001 6.23733 5.76001 6.82643V14.9331C5.76001 15.5222 6.23757 15.9998 6.82668 15.9998H14.9333C15.5224 15.9998 16 15.5222 16 14.9331V6.82643C16 6.23733 15.5224 5.75977 14.9333 5.75977Z" fill="#9AA2AF"/>
  <path d="M25.1733 16H17.0667C16.4776 16 16 16.4776 16 17.0667V25.1733C16 25.7624 16.4776 26.24 17.0667 26.24H25.1733C25.7624 26.24 26.24 25.7624 26.24 25.1733V17.0667C26.24 16.4776 25.7624 16 25.1733 16Z" fill="#ADC2FF"/>
  <path d="M26.4534 17.2798H18.3467C17.7576 17.2798 17.28 17.7573 17.28 18.3465V26.4531C17.28 27.0422 17.7576 27.5198 18.3467 27.5198H26.4534C27.0425 27.5198 27.52 27.0422 27.52 26.4531V18.3465C27.52 17.7573 27.0425 17.2798 26.4534 17.2798Z" fill="#5C85FF"/>
  <path d="M27.7333 18.5601H19.6267C19.0376 18.5601 18.56 19.0376 18.56 19.6267V27.7334C18.56 28.3225 19.0376 28.8001 19.6267 28.8001H27.7333C28.3224 28.8001 28.8 28.3225 28.8 27.7334V19.6267C28.8 19.0376 28.3224 18.5601 27.7333 18.5601Z" fill="#2952CC"/>
  <path d="M12.5333 19.7334L13.8667 21.0667L12.5333 22.4001" stroke="#374151" stroke-width="1.33333" stroke-linecap="round" stroke-linejoin="round"/>
  <path d="M9.59998 18.1333V20C9.59998 20.2828 9.71235 20.5542 9.9124 20.7542C10.1125 20.9543 10.3838 21.0666 10.6666 21.0666H13.8666" stroke="#374151" stroke-width="1.33333" stroke-linecap="round" stroke-linejoin="round"/>
  <path d="M19.7333 12.5332L21.0667 13.8665L22.4 12.5332" stroke="#374151" stroke-width="1.33333" stroke-linecap="round" stroke-linejoin="round"/>
  <path d="M18.1334 9.6001H20C20.2829 9.6001 20.5542 9.71247 20.7543 9.91252C20.9543 10.1126 21.0667 10.3839 21.0667 10.6668V13.8668" stroke="#374151" stroke-width="1.33333" stroke-linecap="round" stroke-linejoin="round"/>
</svg>