<svg width="24" height="24" viewBox="0 0 24 24" fill="none" xmlns="http://www.w3.org/2000/svg">
<g clip-path="url(#clip0_1689_27222)">
<path fill-rule="evenodd" clip-rule="evenodd" d="M22.1069 18.6947C20.8016 18.6584 19.789 18.7922 18.9402 19.1492C18.6958 19.2473 18.3037 19.2473 18.2715 19.5549C18.4021 19.684 18.4178 19.8952 18.5323 20.0741C18.728 20.3988 19.0712 20.8362 19.3811 21.063L20.4255 21.8094C21.0621 22.1985 21.7802 22.4257 22.4003 22.8151C22.7596 23.0423 23.1185 23.3343 23.4777 23.5779C23.6607 23.7076 23.7715 23.9189 24.0002 23.9996V23.9505C23.886 23.8051 23.8531 23.5942 23.7393 23.4313L23.2491 22.9612C22.7761 22.3286 22.1882 21.7767 21.5516 21.323C21.0292 20.966 19.887 20.4795 19.6748 19.8796L19.6426 19.8432C20.0012 19.8069 20.4255 19.6807 20.7687 19.5833C21.324 19.4379 21.8296 19.4699 22.4003 19.3241L23.1843 19.0968V18.9514C22.8906 18.6595 22.6784 18.2701 22.3685 17.9945C21.5362 17.2808 20.6216 16.5831 19.6748 15.9992C19.1689 15.6749 18.5159 15.4637 17.9773 15.1884C17.7809 15.091 17.4549 15.0423 17.3408 14.8801C17.0463 14.5238 16.8835 14.053 16.6713 13.6309L15.3331 10.8085C15.0393 10.1759 14.8593 9.54325 14.5008 8.95935C12.8194 6.20166 10.9909 4.53105 8.18344 2.89243C7.57981 2.55176 6.86167 2.40524 6.09816 2.22709L4.87406 2.16165C4.61248 2.04821 4.35164 1.7399 4.12299 1.59375C3.19266 1.00985 0.793119 -0.255379 0.107169 1.41196C-0.333668 2.46632 0.760191 3.50432 1.13152 4.03986C1.40956 4.41288 1.76808 4.83463 1.96454 5.25637C2.07429 5.53196 2.11087 5.82427 2.22538 6.11622C2.48623 6.82991 2.73134 7.62504 3.07413 8.29038C3.25705 8.63105 3.44912 8.98844 3.67777 9.29638C3.80837 9.47817 4.03702 9.55597 4.08567 9.84792C3.85702 10.1726 3.84129 10.6587 3.71069 11.0648C3.12279 12.8979 3.35143 15.1688 4.18372 16.5184C4.4453 16.9238 5.06174 17.8163 5.89805 17.4753C6.63265 17.1833 6.46876 16.2588 6.68094 15.4477C6.73033 15.2531 6.6974 15.1234 6.79508 14.9932V15.0295L7.46457 16.3759C7.97053 17.1706 8.8522 17.9981 9.58644 18.55C9.97789 18.842 10.2881 19.3451 10.7776 19.5233V19.4742H10.7454C10.6474 19.3288 10.5003 19.2633 10.3697 19.1499C10.0759 18.858 9.74961 18.5009 9.52096 18.1766C8.83574 17.2684 8.2321 16.2624 7.69322 15.2244C7.43165 14.7216 7.203 14.1701 6.99154 13.6672C6.89276 13.4724 6.89277 13.1801 6.72997 13.0833C6.48485 13.4396 6.12633 13.7487 5.94597 14.1864C5.63574 14.8838 5.60354 15.7436 5.4894 16.6358C5.42355 16.6522 5.45282 16.6358 5.42355 16.6722C4.90187 16.5427 4.72187 16.0068 4.52615 15.5531C4.03665 14.4013 3.9547 12.5522 4.37908 11.2219C4.49322 10.8812 4.98345 9.81047 4.78772 9.48617C4.68894 9.17786 4.36334 8.99971 4.18335 8.75612C3.97116 8.44781 3.74325 8.05878 3.59618 7.71812C3.20473 6.80919 3.00901 5.80391 2.58427 4.89534C2.38781 4.4736 2.04539 4.0355 1.76772 3.64647C1.45748 3.20837 1.11542 2.90006 0.87031 2.38124C0.788728 2.19946 0.674586 1.91078 0.80519 1.71591C0.837384 1.58611 0.903236 1.53412 1.03311 1.50504C1.2453 1.32325 1.84966 1.55376 2.06185 1.65047C2.66548 1.89406 3.17144 2.12093 3.6774 2.46123C3.90605 2.62338 4.15116 2.93169 4.44493 3.01313H4.78808C5.3105 3.12657 5.89768 3.04949 6.38681 3.19492C7.25202 3.47123 8.03528 3.87625 8.73769 4.31472C10.8757 5.66103 12.639 7.57523 13.8302 9.86283C14.0259 10.2359 14.1075 10.5765 14.2875 10.9659C14.6306 11.761 15.055 12.5718 15.3971 13.3509C15.7402 14.1133 16.0666 14.8925 16.5561 15.5251C16.8012 15.8658 17.7802 16.0439 18.2206 16.2224C18.5473 16.3679 19.0529 16.4987 19.3474 16.6769C19.902 17.0176 20.457 17.4069 20.9791 17.78C21.2399 17.9741 22.0565 18.3799 22.1051 18.7034L22.1069 18.6947ZM5.46123 4.59831C5.23572 4.59632 5.0109 4.62358 4.79248 4.67938V4.71574H4.82467C4.95528 4.97533 5.18393 5.15384 5.34709 5.38108L5.72281 6.15985L5.755 6.12349C5.98365 5.96134 6.09816 5.70175 6.09816 5.31272C6.00011 5.19929 5.98402 5.08549 5.90243 4.97206C5.80439 4.8099 5.5922 4.72847 5.46123 4.59903V4.59831Z" fill="#00678C"/>
</g>
<defs>
<clipPath id="clip0_1689_27222">
<rect width="24" height="24" fill="white"/>
</clipPath>
</defs>
</svg>
