<svg width="24" height="24" viewBox="0 0 24 24" fill="none" xmlns="http://www.w3.org/2000/svg">
<g clip-path="url(#clip0_1689_27157)">
<path d="M15.4551 9.58094C15.3621 9.29923 15.1184 9.10298 14.8032 9.05586C14.6546 9.03368 14.4844 9.04314 14.283 9.08467C13.932 9.15709 13.6716 9.18464 13.4815 9.19002C14.1989 7.9788 14.7822 6.59755 15.118 5.29736C15.661 3.19504 15.3709 2.2373 15.0318 1.80405C14.1344 0.657437 12.8252 0.0414175 11.2456 0.0225341C10.403 0.0122504 9.6633 0.178617 9.27746 0.298224C8.91818 0.234873 8.53184 0.199471 8.12647 0.192914C7.36673 0.180803 6.69539 0.346417 6.12176 0.686819C5.80411 0.579467 5.29447 0.428078 4.70587 0.33144C3.32147 0.104159 2.20574 0.281275 1.38964 0.857808C0.401396 1.55588 -0.0567487 2.76872 0.0279934 4.46266C0.0548672 5.0005 0.355747 6.63683 0.829442 8.18873C1.10169 9.08069 1.392 9.82144 1.69231 10.3905C2.11817 11.1975 2.57384 11.6727 3.08541 11.8434C3.37217 11.9389 3.89313 12.0058 4.4411 11.5495C4.51055 11.6336 4.60317 11.7172 4.72618 11.7948C4.88234 11.8933 5.07332 11.9738 5.26402 12.0214C5.95138 12.1933 6.5952 12.1503 7.14447 11.9095C7.14784 12.0071 7.15045 12.1005 7.15267 12.1811C7.15633 12.3118 7.15991 12.44 7.16471 12.5599C7.19725 13.3704 7.25239 14.0007 7.41579 14.4416C7.42474 14.4659 7.43682 14.5029 7.44957 14.542C7.53106 14.7916 7.6674 15.2094 8.01414 15.5367C8.37328 15.8756 8.80763 15.9796 9.20544 15.9796C9.40495 15.9796 9.59532 15.9534 9.76226 15.9176C10.3575 15.7901 11.0334 15.5957 11.5224 14.8995C11.9846 14.2413 12.2094 13.25 12.25 11.688C12.2553 11.6438 12.2602 11.6016 12.2649 11.5614C12.268 11.5343 12.2712 11.5066 12.2745 11.4789L12.3834 11.4885L12.4115 11.4904C13.0177 11.518 13.7589 11.3894 14.2141 11.178C14.5738 11.0111 15.7265 10.4026 15.4551 9.58094Z" fill="black"/>
<path d="M14.4185 9.74075C12.6161 10.1125 12.4922 9.50229 12.4922 9.50229C14.3952 6.67846 15.1908 3.09403 14.5042 2.21676C12.6313 -0.176264 9.38916 0.955482 9.33506 0.984864L9.31764 0.987982C8.96155 0.914061 8.56303 0.870024 8.11513 0.862714C7.29956 0.849349 6.68093 1.07652 6.2115 1.43251C6.2115 1.43251 0.427855 -0.950122 0.696844 4.42912C0.754067 5.57352 2.33708 13.0881 4.22523 10.8184C4.91535 9.98838 5.58215 9.28662 5.58215 9.28662C5.91334 9.50662 6.30982 9.61885 6.72547 9.57854L6.75775 9.55113C6.74772 9.65418 6.7523 9.75497 6.77069 9.87429C6.28427 10.4178 6.4272 10.5132 5.45484 10.7133C4.47093 10.9161 5.04893 11.2771 5.42631 11.3715C5.88381 11.4859 6.94225 11.6479 7.65741 10.6468L7.62889 10.761C7.81948 10.9137 7.95331 11.754 7.93088 12.5157C7.90845 13.2774 7.89347 13.8004 8.04364 14.2089C8.19382 14.6173 8.34348 15.5364 9.62175 15.2625C10.6899 15.0336 11.2433 14.4405 11.3204 13.4511C11.375 12.7476 11.4987 12.8516 11.5065 12.2227L11.6056 11.925C11.72 10.9715 11.6238 10.6639 12.2819 10.807L12.4418 10.821C12.9261 10.843 13.56 10.7431 13.9321 10.5702C14.7332 10.1984 15.2083 9.57764 14.4184 9.74075H14.4185Z" fill="#336791"/>
<path d="M6.55014 4.94092C6.38775 4.91831 6.24062 4.93923 6.1662 4.99556C6.12431 5.02727 6.11138 5.064 6.1079 5.08929C6.09855 5.15626 6.14549 5.23029 6.1743 5.26849C6.25585 5.37659 6.37503 5.45091 6.49299 5.46728C6.51008 5.46965 6.52706 5.4708 6.54397 5.4708C6.74069 5.4708 6.91949 5.31765 6.93526 5.2046C6.95496 5.06303 6.74943 4.96865 6.55014 4.94092Z" fill="white"/>
<path d="M11.931 4.94538C11.9155 4.83441 11.718 4.80277 11.5306 4.82882C11.3435 4.85491 11.162 4.93936 11.1772 5.05059C11.1893 5.13708 11.3455 5.28475 11.5304 5.28471C11.5459 5.28471 11.5617 5.28367 11.5776 5.28145C11.701 5.26436 11.7915 5.18599 11.8345 5.14081C11.9001 5.07201 11.9379 4.99526 11.931 4.94538Z" fill="white"/>
<path d="M15.0182 9.6985C14.9495 9.49068 14.7283 9.42378 14.3608 9.49971C13.2696 9.72491 12.8788 9.5689 12.7505 9.47441C13.5987 8.18224 14.2964 6.62037 14.6728 5.16306C14.8512 4.47276 14.9497 3.8317 14.9577 3.3092C14.9666 2.7356 14.8689 2.31418 14.6675 2.05673C13.8552 1.01883 12.6631 0.462113 11.22 0.446813C10.228 0.435669 9.38983 0.689573 9.22734 0.76095C8.88514 0.675849 8.5121 0.623606 8.10602 0.616942C7.36125 0.604902 6.71754 0.783201 6.18454 1.14661C5.95303 1.06047 5.35471 0.85508 4.62306 0.737229C3.35806 0.533525 2.35287 0.687853 1.63552 1.19605C0.779568 1.80247 0.384416 2.88645 0.460988 4.41783C0.486751 4.93309 0.780285 6.51804 1.24359 8.03594C1.85341 10.0337 2.51626 11.1647 3.21376 11.3974C3.29539 11.4246 3.38955 11.4437 3.49332 11.4437C3.74776 11.4437 4.05968 11.329 4.38424 10.9388C4.92333 10.2902 5.42666 9.74677 5.6122 9.5493C5.88638 9.69649 6.18755 9.77866 6.49567 9.7869C6.4962 9.79496 6.49703 9.80302 6.49774 9.81105C6.43593 9.88436 6.38523 9.94861 6.34202 10.0035C6.12857 10.2744 6.08414 10.3308 5.39703 10.4723C5.2016 10.5126 4.68243 10.6196 4.67487 10.9835C4.6666 11.3811 5.28846 11.548 5.35933 11.5657C5.60625 11.6275 5.8441 11.658 6.07095 11.658C6.62269 11.658 7.10817 11.4767 7.4962 11.1259C7.48423 12.5432 7.54335 13.9398 7.71352 14.3653C7.85286 14.7137 8.19337 15.565 9.26894 15.5649C9.4267 15.5649 9.60045 15.5466 9.79154 15.5056C10.914 15.265 11.4014 14.7689 11.59 13.6751C11.6909 13.0906 11.8641 11.6948 11.9455 10.9461C12.1174 10.9997 12.3387 11.0242 12.5779 11.0242C13.0768 11.0242 13.6525 10.9182 14.0135 10.7506C14.4191 10.5623 15.151 10.1 15.0182 9.6985ZM12.3452 4.63906C12.3414 4.8601 12.311 5.06076 12.2788 5.27023C12.2441 5.49551 12.2082 5.72841 12.1991 6.01116C12.1902 6.28631 12.2246 6.5724 12.2578 6.84902C12.325 7.40778 12.3939 7.98306 12.1271 8.5507C12.0857 8.47707 12.0456 8.39673 12.009 8.30776C11.9758 8.22739 11.9038 8.09829 11.8042 7.9196C11.4163 7.2241 10.5081 5.59541 10.9731 4.9308C11.1115 4.73294 11.4629 4.52959 12.3452 4.63906ZM11.2758 0.894423C12.5688 0.922981 13.5915 1.40667 14.3157 2.33199C14.8711 3.04175 14.2595 6.27126 12.489 9.05736C12.4715 9.03515 12.4537 9.01272 12.4353 8.98971C12.428 8.9805 12.4205 8.97115 12.4129 8.96169C12.8704 8.20611 12.7809 7.45855 12.7013 6.79573C12.6686 6.52374 12.6377 6.26682 12.6456 6.02553C12.6537 5.76969 12.6875 5.55037 12.7202 5.33824C12.7605 5.07681 12.8013 4.80636 12.7901 4.48749C12.7985 4.45406 12.8019 4.41454 12.7975 4.36763C12.7687 4.06184 12.4196 3.14681 11.708 2.31848C11.3189 1.8655 10.7513 1.35852 9.97629 1.01657C10.3096 0.94749 10.7655 0.883064 11.2758 0.894423ZM4.0408 10.6532C3.68323 11.0831 3.43628 11.0007 3.35508 10.9737C2.82596 10.7972 2.21205 9.6789 1.67078 7.90555C1.20242 6.37113 0.9287 4.82818 0.907058 4.39551C0.838655 3.02716 1.17035 2.0735 1.89297 1.56104C3.06897 0.727053 5.00245 1.22622 5.77935 1.47941C5.76817 1.49041 5.75656 1.50073 5.74549 1.51191C4.47063 2.79945 4.50088 4.99924 4.50399 5.13368C4.50389 5.18556 4.50822 5.25902 4.5142 5.36006C4.53613 5.73003 4.57695 6.41864 4.46791 7.19848C4.36654 7.92314 4.58992 8.63243 5.08067 9.14447C5.13148 9.19746 5.18451 9.24724 5.2393 9.29407C5.02083 9.52801 4.5461 10.0453 4.0408 10.6532ZM5.40316 8.83542C5.00761 8.42275 4.82798 7.84869 4.91025 7.26033C5.02542 6.43652 4.98288 5.71906 4.96006 5.33362C4.95687 5.27969 4.95404 5.23243 4.95236 5.19513C5.13861 5.03002 6.00169 4.56754 6.61717 4.70857C6.89809 4.77292 7.06919 4.96416 7.14035 5.29317C7.50863 6.99636 7.18912 7.70626 6.93238 8.2767C6.87946 8.39422 6.82947 8.5053 6.78676 8.62025L6.75369 8.70908C6.66991 8.93371 6.59198 9.14254 6.54368 9.34086C6.12323 9.33957 5.71417 9.15998 5.40316 8.83542ZM5.46769 11.1324C5.34493 11.1017 5.23449 11.0485 5.16971 11.0043C5.22382 10.9788 5.32013 10.9442 5.48714 10.9098C6.29547 10.7434 6.42028 10.6259 6.69288 10.2798C6.75541 10.2005 6.82625 10.1105 6.92436 10.0009L6.92446 10.0008C7.07062 9.83717 7.13745 9.8649 7.25867 9.91518C7.35692 9.95584 7.45259 10.079 7.49139 10.2145C7.50974 10.2785 7.53038 10.4 7.46291 10.4945C6.89343 11.2918 6.06364 11.2815 5.46769 11.1324ZM9.69791 15.0689C8.70906 15.2808 8.35895 14.7763 8.12823 14.1995C7.97932 13.8271 7.90615 12.1479 7.95807 10.2936C7.95875 10.2689 7.95524 10.245 7.94843 10.2226C7.94252 10.1794 7.93341 10.1356 7.9208 10.0916C7.84355 9.8218 7.6554 9.59609 7.42966 9.50254C7.33997 9.46538 7.17532 9.39719 6.97749 9.44779C7.0197 9.27397 7.09287 9.07772 7.17217 8.86516L7.20546 8.77573C7.24294 8.67493 7.28991 8.57052 7.33965 8.46001C7.60831 7.86313 7.97627 7.04563 7.57692 5.19875C7.42733 4.50702 6.92783 4.16923 6.1706 4.24767C5.71661 4.29464 5.30132 4.47781 5.09418 4.58284C5.04964 4.60541 5.0089 4.6272 4.97084 4.64844C5.02864 3.95145 5.24711 2.64892 6.06421 1.82483C6.57865 1.30599 7.26383 1.04975 8.09863 1.06355C9.74349 1.09049 10.7983 1.93462 11.3935 2.63803C11.9065 3.2442 12.1842 3.85477 12.2951 4.18407C11.4615 4.09932 10.8945 4.2639 10.6071 4.67478C9.98181 5.56857 10.9492 7.3034 11.4141 8.13713C11.4993 8.28995 11.5729 8.42199 11.5961 8.47811C11.7475 8.84502 11.9435 9.08997 12.0866 9.26881C12.1304 9.32359 12.173 9.37673 12.2053 9.42313C11.9529 9.49594 11.4994 9.6641 11.5407 10.5048C11.5073 10.9266 11.2703 12.9015 11.1499 13.5993C10.9909 14.5211 10.6517 14.8644 9.69791 15.0689ZM13.8254 10.3455C13.5673 10.4653 13.1352 10.5552 12.7248 10.5745C12.2714 10.5958 12.0407 10.5237 11.9864 10.4795C11.9609 9.95559 12.1559 9.90084 12.3623 9.8429C12.3947 9.83377 12.4263 9.82491 12.4569 9.81424C12.4758 9.82968 12.4966 9.84502 12.5194 9.86003C12.8838 10.1005 13.5337 10.1265 14.4511 9.9371C14.4545 9.93639 14.4579 9.93574 14.4612 9.93506C14.3375 10.0508 14.1257 10.2061 13.8254 10.3455Z" fill="white"/>
</g>
<g clip-path="url(#clip1_1689_27157)">
<path fill-rule="evenodd" clip-rule="evenodd" d="M11.8621 8C9.72911 8 8 9.72911 8 11.8621V19.5862C8 21.7192 9.72911 23.4483 11.8621 23.4483H19.5862C19.6623 23.4483 19.738 23.4461 19.813 23.4417C19.6671 23.1055 19.5862 22.7345 19.5862 22.3447C19.5862 20.8215 20.8218 19.5862 22.3462 19.5862C22.7354 19.5862 23.1059 19.667 23.4417 19.8128C23.4461 19.7378 23.4483 19.6623 23.4483 19.5862V11.8621C23.4483 9.72911 21.7192 8 19.5862 8H11.8621Z" fill="white"/>
<path fill-rule="evenodd" clip-rule="evenodd" d="M11.8621 8.55173C10.0338 8.55173 8.55176 10.0338 8.55176 11.8621V19.5862C8.55176 21.4145 10.0338 22.8966 11.8621 22.8966H19.5862C19.6047 22.8966 19.623 22.8964 19.6414 22.8961C19.6052 22.7179 19.5862 22.5335 19.5862 22.3447C19.5862 20.8215 20.8219 19.5862 22.3463 19.5862C22.5345 19.5862 22.7184 19.6051 22.8961 19.6412C22.8964 19.6229 22.8966 19.6046 22.8966 19.5862V11.8621C22.8966 10.0338 21.4145 8.55173 19.5862 8.55173H11.8621Z" fill="white"/>
<path fill-rule="evenodd" clip-rule="evenodd" d="M11.8621 8.55173C10.0338 8.55173 8.55176 10.0338 8.55176 11.8621V19.5862C8.55176 21.4145 10.0338 22.8966 11.8621 22.8966H19.5862C19.6047 22.8966 19.623 22.8964 19.6414 22.8961C19.6052 22.7179 19.5862 22.5335 19.5862 22.3447C19.5862 20.8215 20.8219 19.5862 22.3463 19.5862C22.5345 19.5862 22.7184 19.6051 22.8961 19.6412C22.8964 19.6229 22.8966 19.6046 22.8966 19.5862V11.8621C22.8966 10.0338 21.4145 8.55173 19.5862 8.55173H11.8621Z" fill="url(#paint0_linear_1689_27157)"/>
<path fill-rule="evenodd" clip-rule="evenodd" d="M11.5863 9.93103C10.6722 9.93103 9.93115 10.6721 9.93115 11.5862V19.8621C9.93115 20.7762 10.6722 21.5172 11.5863 21.5172H19.7127C19.9822 20.6597 20.6594 19.9825 21.5174 19.7128V11.5862C21.5174 10.6721 20.7763 9.93103 19.8622 9.93103H11.5863Z" fill="white"/>
<path d="M14.0609 15.6475V18.57C14.0609 19.0917 13.686 19.5148 13.2235 19.514L11.8621 19.5112L11.8692 16.1282V16.0189C11.8807 15.1727 12.5694 14.6336 13.2052 14.8582C13.3595 14.9131 13.4979 15.0149 13.6124 15.1437L14.0609 15.6475Z" fill="url(#paint1_linear_1689_27157)"/>
<path d="M17.387 15.8637V12.806C17.387 12.2839 17.7623 11.8609 18.2248 11.8621L19.5862 11.8645L19.5791 15.383V15.492C19.5671 16.3385 18.8785 16.8777 18.243 16.6526C18.0884 16.5981 17.9504 16.4964 17.8359 16.3675L17.387 15.8637Z" fill="url(#paint2_linear_1689_27157)"/>
<path d="M19.5765 15.2594V17.8117C19.5828 19.0416 18.4472 19.8738 17.5538 19.3537C17.4452 19.2905 17.3474 19.2066 17.2591 19.1115L14.4845 16.123L14.0606 15.6475L13.6121 15.1437C13.4976 15.0148 13.3592 14.9131 13.205 14.8582C12.5692 14.6335 11.8805 15.1727 11.869 16.0188V15.9906L11.8682 13.847V13.4947C11.8682 12.1659 13.1879 11.4184 14.0929 12.2359L17.7327 16.2121C17.8202 16.3079 17.9243 16.3886 18.0432 16.4411C18.7263 16.7449 19.5765 16.156 19.5765 15.2594Z" fill="url(#paint3_linear_1689_27157)"/>
<path d="M19.5765 17.6442V17.8116C19.5828 19.0415 18.4472 19.8737 17.5538 19.3536C17.4452 19.2904 17.3474 19.2065 17.2591 19.1115L14.4845 16.1229L14.0606 15.6474L13.6121 15.1436C13.4976 15.0148 13.3592 14.913 13.205 14.8581C12.5692 14.6334 11.8805 15.1726 11.869 16.0188V15.9905L11.8682 13.847V13.8167C12.0344 13.0394 12.9175 12.699 13.4698 13.297L17.9737 18.1695C18.5275 18.7691 19.4134 18.4248 19.5765 17.6442Z" fill="url(#paint4_linear_1689_27157)"/>
<path d="M24 22.3447C24 23.2588 23.2587 24 22.3457 24C21.4311 24 20.6897 23.2588 20.6897 22.3447C20.6897 21.4308 21.4311 20.6897 22.3457 20.6897C23.2587 20.6897 24 21.4308 24 22.3447Z" fill="url(#paint5_linear_1689_27157)"/>
</g>
<defs>
<linearGradient id="paint0_linear_1689_27157" x1="11.4343" y1="19.9936" x2="24.5125" y2="6.97792" gradientUnits="userSpaceOnUse">
<stop stop-color="#4351E8"/>
<stop offset="1" stop-color="#2A1EA5"/>
</linearGradient>
<linearGradient id="paint1_linear_1689_27157" x1="12.6871" y1="17.3529" x2="8.31209" y2="19.675" gradientUnits="userSpaceOnUse">
<stop stop-color="#4351E8"/>
<stop offset="1" stop-color="#2A1EA5"/>
</linearGradient>
<linearGradient id="paint2_linear_1689_27157" x1="18.6395" y1="14.1619" x2="23.4203" y2="15.8385" gradientUnits="userSpaceOnUse">
<stop stop-color="#4351E8"/>
<stop offset="1" stop-color="#2A1EA5"/>
</linearGradient>
<linearGradient id="paint3_linear_1689_27157" x1="12.9767" y1="15.9174" x2="21.3322" y2="15.2582" gradientUnits="userSpaceOnUse">
<stop stop-color="#4351E8"/>
<stop offset="1" stop-color="#2A1EA5"/>
</linearGradient>
<linearGradient id="paint4_linear_1689_27157" x1="9.7039" y1="13.3646" x2="18.929" y2="18.0111" gradientUnits="userSpaceOnUse">
<stop stop-color="#4351E8"/>
<stop offset="1" stop-color="#2A1EA5"/>
</linearGradient>
<linearGradient id="paint5_linear_1689_27157" x1="547.426" y1="-166.38" x2="534.687" y2="-173.919" gradientUnits="userSpaceOnUse">
<stop stop-color="#ED1A2C"/>
<stop offset="1" stop-color="#EE215D"/>
</linearGradient>
<clipPath id="clip0_1689_27157">
<rect width="15.5152" height="16" fill="white"/>
</clipPath>
<clipPath id="clip1_1689_27157">
<rect width="16" height="16" fill="white" transform="translate(8 8)"/>
</clipPath>
</defs>
</svg>
