<svg width="24" height="24" viewBox="0 0 24 24" fill="none" xmlns="http://www.w3.org/2000/svg">
<g clip-path="url(#clip0_1689_27207)">
<path d="M23.5056 14.3714C23.3661 13.9489 23.0005 13.6545 22.5278 13.5838C22.3049 13.5505 22.0496 13.5647 21.7475 13.627C21.221 13.7356 20.8304 13.777 20.5453 13.785C21.6213 11.9682 22.4963 9.89634 23.0001 7.94605C23.8145 4.79257 23.3793 3.35595 22.8707 2.70609C21.5246 0.986163 19.5607 0.0621338 17.1914 0.0338088C15.9276 0.0183833 14.8179 0.267934 14.2392 0.447343C13.7003 0.352317 13.1208 0.299215 12.5127 0.289379C11.3731 0.271212 10.3661 0.519634 9.50563 1.03024C9.02916 0.869208 8.26471 0.642125 7.3818 0.497167C5.3052 0.156246 3.63161 0.421921 2.40745 1.28672C0.925092 2.33383 0.237875 4.15308 0.364988 6.694C0.405299 7.50075 0.856618 9.95525 1.56716 12.2831C1.97554 13.6211 2.411 14.7322 2.86146 15.5858C3.50025 16.7962 4.18376 17.5091 4.95111 17.765C5.38126 17.9084 6.16269 18.0087 6.98465 17.3243C7.08882 17.4504 7.22775 17.5757 7.41227 17.6922C7.6465 17.8399 7.93298 17.9606 8.21902 18.0322C9.25006 18.2899 10.2158 18.2254 11.0397 17.8642C11.0448 18.0107 11.0487 18.1507 11.052 18.2716C11.0575 18.4677 11.0629 18.66 11.0701 18.8398C11.1189 20.0557 11.2016 21.001 11.4467 21.6624C11.4601 21.6989 11.4782 21.7543 11.4974 21.8131C11.6196 22.1875 11.8241 22.8142 12.3442 23.305C12.8829 23.8134 13.5344 23.9694 14.1312 23.9694C14.4304 23.9694 14.716 23.9301 14.9664 23.8764C15.8592 23.6851 16.8731 23.3936 17.6065 22.3493C18.2999 21.362 18.637 19.875 18.698 17.5319C18.7059 17.4657 18.7132 17.4025 18.7203 17.3422C18.725 17.3015 18.7299 17.2599 18.7347 17.2184L18.8981 17.2327L18.9402 17.2356C19.8495 17.277 20.9614 17.0842 21.6442 16.767C22.1837 16.5166 23.9127 15.6039 23.5056 14.3714Z" fill="black"/>
<path d="M21.9508 14.6111C19.2472 15.1688 19.0614 14.2534 19.0614 14.2534C21.9159 10.0177 23.1093 4.64106 22.0794 3.32516C19.2701 -0.26438 14.4069 1.43324 14.3257 1.47731L14.2996 1.48199C13.7654 1.37111 13.1677 1.30505 12.4958 1.29409C11.2725 1.27404 10.3445 1.6148 9.64036 2.14878C9.64036 2.14878 0.964903 -1.42517 1.36839 6.6437C1.45422 8.36029 3.82874 19.6322 6.66097 16.2275C7.69615 14.9826 8.69634 13.9299 8.69634 13.9299C9.19313 14.26 9.78785 14.4283 10.4113 14.3678L10.4597 14.3267C10.4447 14.4813 10.4516 14.6325 10.4791 14.8115C9.74952 15.6266 9.96392 15.7698 8.50537 16.07C7.02952 16.3742 7.89652 16.9157 8.46259 17.0572C9.14884 17.2288 10.7365 17.4719 11.8092 15.9702L11.7665 16.1415C12.0523 16.3705 12.2531 17.6309 12.2194 18.7735C12.1858 19.9161 12.1633 20.7006 12.3886 21.3133C12.6138 21.926 12.8383 23.3047 14.7557 22.8938C16.3579 22.5505 17.1881 21.6607 17.3036 20.1766C17.3856 19.1215 17.5711 19.2775 17.5828 18.3341L17.7316 17.8875C17.9031 16.4573 17.7588 15.9958 18.7459 16.2105L18.9858 16.2315C19.7123 16.2646 20.6631 16.1147 21.2212 15.8553C22.4229 15.2976 23.1356 14.3665 21.9507 14.6111H21.9508Z" fill="#336791"/>
<path d="M10.1481 7.41137C9.9045 7.37745 9.68381 7.40884 9.57218 7.49333C9.50934 7.5409 9.48994 7.59599 9.48473 7.63393C9.4707 7.73439 9.54111 7.84543 9.58432 7.90273C9.70665 8.06488 9.88542 8.17636 10.0624 8.20092C10.088 8.20447 10.1135 8.20619 10.1388 8.20619C10.4339 8.20619 10.7021 7.97647 10.7258 7.80689C10.7553 7.59454 10.447 7.45297 10.1481 7.41137Z" fill="white"/>
<path d="M18.2195 7.41808C18.1963 7.25163 17.9 7.20417 17.6189 7.24324C17.3382 7.28237 17.066 7.40906 17.0887 7.57589C17.107 7.70563 17.3412 7.92713 17.6185 7.92707C17.6419 7.92707 17.6656 7.92552 17.6894 7.92218C17.8745 7.89655 18.0103 7.779 18.0748 7.71122C18.1731 7.60803 18.2299 7.4929 18.2195 7.41808Z" fill="white"/>
<path d="M22.8506 14.5478C22.7475 14.236 22.4157 14.1357 21.8645 14.2496C20.2276 14.5874 19.6415 14.3534 19.4489 14.2116C20.7212 12.2734 21.7679 9.93058 22.3325 7.74461C22.6 6.70917 22.7477 5.74757 22.7598 4.96382C22.7731 4.10343 22.6267 3.4713 22.3244 3.08512C21.106 1.52827 19.3179 0.693192 17.1533 0.670242C15.6653 0.653526 14.408 1.03438 14.1642 1.14145C13.651 1.0138 13.0914 0.935433 12.4823 0.925436C11.3651 0.907376 10.3995 1.17482 9.60005 1.71993C9.25279 1.59072 8.35531 1.28264 7.25783 1.10587C5.36033 0.800311 3.85255 1.0318 2.77652 1.7941C1.49259 2.70373 0.899866 4.3297 1.01472 6.62677C1.05337 7.39966 1.49367 9.77708 2.18863 12.0539C3.10336 15.0506 4.09764 16.7471 5.14389 17.0961C5.26632 17.1369 5.40757 17.1655 5.56323 17.1655C5.94489 17.1655 6.41276 16.9935 6.89961 16.4082C7.70824 15.4354 8.46323 14.6202 8.74154 14.324C9.15282 14.5448 9.60456 14.668 10.0667 14.6804C10.0675 14.6925 10.0688 14.7046 10.0699 14.7166C9.97714 14.8266 9.90109 14.9229 9.83627 15.0052C9.5161 15.4117 9.44945 15.4963 8.41878 15.7085C8.12564 15.769 7.34689 15.9295 7.33555 16.4753C7.32314 17.0716 8.25593 17.3221 8.36224 17.3486C8.73262 17.4413 9.08939 17.4871 9.42967 17.4871C10.2573 17.487 10.9855 17.2151 11.5675 16.6888C11.5496 18.8148 11.6383 20.9097 11.8935 21.548C12.1025 22.0705 12.6133 23.3476 14.2266 23.3474C14.4633 23.3474 14.7239 23.3199 15.0106 23.2585C16.6943 22.8975 17.4254 22.1533 17.7083 20.5127C17.8596 19.636 18.1194 17.5422 18.2415 16.4191C18.4993 16.4995 18.8313 16.5363 19.1901 16.5363C19.9385 16.5363 20.802 16.3773 21.3435 16.1259C21.9518 15.8434 23.0497 15.1501 22.8506 14.5478ZM18.841 6.95861C18.8354 7.29018 18.7898 7.59116 18.7414 7.90537C18.6894 8.24328 18.6355 8.59264 18.622 9.01677C18.6086 9.42949 18.6601 9.85862 18.71 10.2735C18.8107 11.1117 18.9141 11.9746 18.5139 12.8261C18.4517 12.7156 18.3917 12.5951 18.3367 12.4617C18.287 12.3411 18.179 12.1475 18.0295 11.8794C17.4477 10.8362 16.0855 8.39313 16.7828 7.39622C16.9905 7.09943 17.5177 6.79441 18.841 6.95861ZM17.237 1.34166C19.1764 1.38449 20.7105 2.11003 21.7968 3.49801C22.6299 4.56265 21.7125 9.40692 19.0568 13.5861C19.0306 13.5527 19.0038 13.5191 18.9762 13.4846C18.9652 13.4708 18.954 13.4568 18.9426 13.4426C19.6289 12.3092 19.4947 11.1878 19.3752 10.1936C19.3262 9.78563 19.2798 9.40026 19.2916 9.03832C19.3038 8.65456 19.3545 8.32557 19.4036 8.00739C19.4639 7.61524 19.5252 7.20956 19.5083 6.73126C19.521 6.68111 19.5261 6.62183 19.5194 6.55147C19.4762 6.09279 18.9526 4.72023 17.8853 3.47775C17.3015 2.79827 16.4501 2.0378 15.2877 1.52488C15.7877 1.42126 16.4715 1.32462 17.237 1.34166ZM6.38444 15.9798C5.84809 16.6247 5.47766 16.5011 5.35587 16.4605C4.56218 16.1958 3.64132 14.5184 2.82941 11.8583C2.12687 9.55672 1.71629 7.24229 1.68383 6.59328C1.58122 4.54077 2.07877 3.11028 3.1627 2.34158C4.92669 1.0906 7.82692 1.83936 8.99227 2.21914C8.9755 2.23564 8.95809 2.25112 8.94148 2.26789C7.02919 4.1992 7.07456 7.49888 7.07923 7.70054C7.07907 7.77837 7.08557 7.88855 7.09455 8.04012C7.12744 8.59506 7.18866 9.62798 7.02511 10.7977C6.87306 11.8847 7.20812 12.9487 7.94425 13.7167C8.02046 13.7962 8.10001 13.8709 8.18219 13.9411C7.85449 14.292 7.14239 15.068 6.38444 15.9798ZM8.42798 13.2532C7.83466 12.6341 7.56522 11.7731 7.68862 10.8905C7.86137 9.6548 7.79757 8.57862 7.76333 8.00045C7.75855 7.91956 7.7543 7.84867 7.75178 7.79272C8.03116 7.54505 9.32578 6.85133 10.249 7.06288C10.6704 7.15941 10.927 7.44626 11.0338 7.93977C11.5862 10.4946 11.1069 11.5594 10.7218 12.4151C10.6424 12.5914 10.5675 12.758 10.5034 12.9304L10.4538 13.0636C10.3281 13.4006 10.2112 13.7138 10.1388 14.0113C9.50809 14.0094 8.8945 13.74 8.42798 13.2532ZM8.52477 16.6986C8.34063 16.6526 8.17498 16.5727 8.07781 16.5064C8.15897 16.4682 8.30344 16.4163 8.55396 16.3647C9.76645 16.1151 9.95366 15.9389 10.3626 15.4197C10.4564 15.3007 10.5626 15.1658 10.7098 15.0014L10.7099 15.0012C10.9292 14.7558 11.0294 14.7974 11.2112 14.8728C11.3586 14.9338 11.5021 15.1185 11.5603 15.3217C11.5879 15.4177 11.6188 15.6 11.5176 15.7417C10.6634 16.9377 9.4187 16.9223 8.52477 16.6986ZM14.8701 22.6034C13.3868 22.9212 12.8617 22.1644 12.5156 21.2992C12.2922 20.7406 12.1825 18.2219 12.2603 15.4404C12.2614 15.4033 12.2561 15.3676 12.2459 15.334C12.237 15.2691 12.2234 15.2035 12.2044 15.1374C12.0886 14.7327 11.8063 14.3942 11.4677 14.2538C11.3332 14.1981 11.0862 14.0958 10.7895 14.1717C10.8528 13.911 10.9626 13.6166 11.0815 13.2978L11.1314 13.1636C11.1876 13.0124 11.2581 12.8558 11.3327 12.69C11.7357 11.7947 12.2876 10.5685 11.6886 7.79815C11.4642 6.76055 10.715 6.25387 9.57914 6.37152C8.89816 6.44199 8.27522 6.71674 7.96451 6.87428C7.8977 6.90814 7.83659 6.94082 7.77951 6.97269C7.8662 5.92719 8.1939 3.97341 9.41956 2.73727C10.1912 1.959 11.219 1.57465 12.4712 1.59535C14.9385 1.63576 16.5206 2.90195 17.4136 3.95707C18.183 4.86632 18.5996 5.78218 18.7659 6.27612C17.5155 6.14901 16.665 6.39587 16.2339 7.01219C15.296 8.35288 16.747 10.9551 17.4444 12.2057C17.5722 12.435 17.6826 12.633 17.7173 12.7172C17.9444 13.2676 18.2384 13.635 18.4531 13.9032C18.5189 13.9854 18.5827 14.0651 18.6313 14.1347C18.2526 14.2439 17.5723 14.4962 17.6342 15.7571C17.5843 16.3899 17.2287 19.3523 17.0481 20.3989C16.8097 21.7816 16.3008 22.2967 14.8701 22.6034ZM21.0614 15.5182C20.6742 15.698 20.0261 15.8329 19.4104 15.8618C18.7304 15.8937 18.3842 15.7856 18.3028 15.7192C18.2645 14.9334 18.5571 14.8513 18.8666 14.7644C18.9153 14.7507 18.9627 14.7374 19.0085 14.7214C19.037 14.7445 19.0682 14.7675 19.1023 14.7901C19.6489 15.1508 20.6237 15.1897 22 14.9057C22.005 14.9046 22.0101 14.9036 22.0151 14.9026C21.8295 15.0762 21.5118 15.3091 21.0614 15.5182Z" fill="white"/>
</g>
<defs>
<clipPath id="clip0_1689_27207">
<rect width="24" height="24" fill="white"/>
</clipPath>
</defs>
</svg>
