<svg width="24" height="24" viewBox="0 0 24 24" fill="none" xmlns="http://www.w3.org/2000/svg">
<g clip-path="url(#clip0_1707_28633)">
<path d="M18.1619 1.06178H3.10288C2.09235 1.06178 1.27222 1.88924 1.27222 2.89244V19.5002C1.27222 20.5107 2.09968 21.3309 3.10288 21.3309H13.0251C12.9152 16.3954 14.5994 6.81739 18.1656 1.04713L18.1619 1.06178Z" fill="#0F80CC"/>
<path d="M17.6128 1.60001H3.10299C2.38537 1.60001 1.80322 2.18582 1.80322 2.89978V18.2957C5.09109 17.0325 10.0229 15.9451 13.4353 15.9963C14.4872 11.1048 15.8808 6.29401 17.6128 1.60001Z" fill="url(#paint0_linear_1707_28633)"/>
<path d="M21.6769 0.519905C20.6445 -0.395427 19.3959 -0.0292941 18.1621 1.06178L17.6129 1.59634C15.5039 3.82975 13.5854 7.97437 12.941 11.1414C13.1706 11.643 13.352 12.1653 13.4829 12.7011L13.5634 13.0673L13.644 13.4407C13.644 13.4407 13.6257 13.3675 13.5488 13.1478L13.4975 13.0014C13.4873 12.9742 13.4763 12.9474 13.4646 12.9208C13.3255 12.6023 12.952 11.9249 12.7799 11.632C12.6467 12.0213 12.521 12.4132 12.4028 12.8073C12.8861 13.6934 13.179 15.2092 13.179 15.2092C13.179 15.2092 13.1534 15.1103 13.0326 14.7698C12.9227 14.4659 12.3882 13.5249 12.2637 13.3053C12.044 14.1108 11.9598 14.6526 12.0367 14.7844C12.1831 15.0407 12.3296 15.5167 12.4577 15.9707C12.6555 16.7758 12.8167 17.5895 12.941 18.4092L12.9593 18.6362C12.9214 19.5517 12.9397 20.4688 13.0142 21.3821C13.1094 22.5281 13.2888 23.513 13.5158 24.0403L13.6696 23.9561C13.3401 22.9162 13.201 21.5579 13.2596 19.9872C13.3511 17.589 13.9003 14.6966 14.9218 11.6833C16.6536 7.09565 19.0408 3.44164 21.2303 1.69885C19.2348 3.50023 16.5364 9.32906 15.7309 11.4856C14.8266 13.9021 14.1859 16.1721 13.7978 18.3432C14.4641 16.3075 16.617 15.4288 16.617 15.4288C16.617 15.4288 17.6788 14.1254 18.909 12.2618L16.5474 12.8915L15.7859 13.2284C15.7859 13.2284 17.7264 12.0458 19.3996 11.5075C21.6953 7.89382 24.1959 2.75698 21.6769 0.516244" fill="#003B57"/>
</g>
<defs>
<linearGradient id="paint0_linear_1707_28633" x1="10.9236" y1="1.94051" x2="10.9236" y2="17.3693" gradientUnits="userSpaceOnUse">
<stop stop-color="#97D9F6"/>
<stop offset="0.92024" stop-color="#0F80CC"/>
<stop offset="1" stop-color="#0F80CC"/>
</linearGradient>
<clipPath id="clip0_1707_28633">
<rect width="24" height="24" fill="white"/>
</clipPath>
</defs>
</svg>
