<svg enable-background="new 0 0 110.9 100" height="100" viewBox="0 0 110.9 100" width="110.9" xmlns="http://www.w3.org/2000/svg"><path d="m90.5 85h-66c-10.3-.6-18-9.3-17.5-19.5.3-5.8 3.4-11.1 8.2-14.3l2 19.3c.4 4.5 4.2 8 8.7 8h33.1c4.5 0 8.3-3.5 8.7-8l4.6-43.9c.3-.1.7-.2 1-.3 12.6 3.6 19.9 16.3 16.9 28.9 8.2.7 14.2 8 13.5 16.2-.4 7.1-6.1 12.8-13.2 13.6z" fill="#010101"/><path d="m70.8 15h-56.4c-2.2 0-3.8 1.7-3.8 3.8s1.7 3.8 3.8 3.8h3.1l5.2 47.1c.1 1.7 1.6 3.1 3.3 3.1h33.1c1.7 0 3.2-1.3 3.4-3.1l5.2-47.1h3.1c2.2 0 3.8-1.7 3.8-3.8s-1.6-3.8-3.8-3.8zm-16.7 53.7c-2.2 0-3.9-1.7-3.9-3.9s1.7-3.9 3.9-3.9 3.9 1.7 3.9 3.9c-.1 2.2-1.8 3.9-3.9 3.9z" fill="#10b057"/></svg>