<svg width="42" height="42" viewBox="0 0 42 42" fill="none" xmlns="http://www.w3.org/2000/svg">
<g id="script">
<path id="Vector" d="M6.5625 36.75C4.38788 36.75 2.625 34.9871 2.625 32.8125M10.5 30.1875V9.1875" stroke="#17803D" stroke-width="2" stroke-linecap="round" stroke-linejoin="round"/>
<path id="Vector_2" d="M27.5625 36.75C29.7371 36.75 31.5 34.9871 31.5 32.8125V22.3125V11.8125H35.4375H39.375V9.1875M27.5625 36.75C25.3879 36.75 23.625 34.9871 23.625 32.8125V30.1875H2.625V32.8125M27.5625 36.75H6.5625M14.4375 5.25H35.4375" stroke="#17803D" stroke-width="2" stroke-linecap="round" stroke-linejoin="round"/>
<path id="Vector_3" d="M10.5 9.1875C10.5 7.01288 12.2629 5.25 14.4375 5.25" stroke="#17803D" stroke-width="2" stroke-linecap="round" stroke-linejoin="round"/>
<path id="Vector_4" d="M39.375 9.1875C39.375 7.01288 37.6121 5.25 35.4375 5.25C33.2629 5.25 31.5 7.01288 31.5 9.1875V11.8125" stroke="#17803D" stroke-width="2" stroke-linecap="round" stroke-linejoin="round"/>
<path id="Vector_5" d="M18.375 15.6938L15.75 18.3188L18.375 20.9438" stroke="#17803D" stroke-width="2" stroke-linecap="round" stroke-linejoin="round"/>
<path id="Vector_6" d="M23.625 21.0562L26.25 18.4312L23.625 15.8062" stroke="#17803D" stroke-width="2" stroke-linecap="round" stroke-linejoin="round"/>
</g>
</svg>
