<svg width="492" height="240" viewBox="0 0 492 240" fill="none" xmlns="http://www.w3.org/2000/svg">
<g filter="url(#filter0_d_138_15373)">
<path d="M112 28.5715H38.8571C35.07 28.5715 32 31.6416 32 35.4287V108.572C32 112.359 35.07 115.429 38.8571 115.429H112C115.787 115.429 118.857 112.359 118.857 108.572V35.4287C118.857 31.6416 115.787 28.5715 112 28.5715Z" fill="white"/>
<path d="M112 28.8572H38.8571C35.2278 28.8572 32.2856 31.7993 32.2856 35.4286V108.571C32.2856 112.201 35.2278 115.143 38.8571 115.143H112C115.629 115.143 118.571 112.201 118.571 108.571V35.4286C118.571 31.7993 115.629 28.8572 112 28.8572Z" stroke="#3366FF"/>
<path d="M102.701 43.1689H48.1559C47.7256 43.1689 47.3767 43.5178 47.3767 43.9482C47.3767 44.3785 47.7256 44.7274 48.1559 44.7274H102.701C103.132 44.7274 103.481 44.3785 103.481 43.9482C103.481 43.5178 103.132 43.1689 102.701 43.1689Z" fill="#D5D5D9"/>
<path d="M102.701 61.8704H48.1559C47.7256 61.8704 47.3767 62.2192 47.3767 62.6496C47.3767 63.0799 47.7256 63.4288 48.1559 63.4288H102.701C103.132 63.4288 103.481 63.0799 103.481 62.6496C103.481 62.2192 103.132 61.8704 102.701 61.8704Z" fill="#D5D5D9"/>
<path d="M102.701 80.5715H48.1559C47.7256 80.5715 47.3767 80.9204 47.3767 81.3508C47.3767 81.7811 47.7256 82.13 48.1559 82.13H102.701C103.132 82.13 103.481 81.7811 103.481 81.3508C103.481 80.9204 103.132 80.5715 102.701 80.5715Z" fill="#D5D5D9"/>
<path d="M95.7401 48.6235H94.0777C92.8153 48.6235 91.792 49.6469 91.792 50.9092V52.5716C91.792 53.834 92.8153 54.8573 94.0777 54.8573H95.7401C97.0024 54.8573 98.0258 53.834 98.0258 52.5716V50.9092C98.0258 49.6469 97.0024 48.6235 95.7401 48.6235Z" fill="#5C85FF"/>
<path d="M81.7144 51.7402H80.0521C78.7897 51.7402 77.7664 52.7636 77.7664 54.0259V55.6883C77.7664 56.9507 78.7897 57.974 80.0521 57.974H81.7144C82.9768 57.974 84.0001 56.9507 84.0001 55.6883V54.0259C84.0001 52.7636 82.9768 51.7402 81.7144 51.7402Z" fill="#5C85FF"/>
<path d="M89.5064 60.3115H87.8441C86.5817 60.3115 85.5583 61.3349 85.5583 62.5972V64.2596C85.5583 65.5219 86.5817 66.5453 87.8441 66.5453H89.5064C90.7688 66.5453 91.7921 65.5219 91.7921 64.2596V62.5972C91.7921 61.3349 90.7688 60.3115 89.5064 60.3115Z" fill="#5C85FF"/>
<path d="M84.8309 72.7795H83.1685C81.9062 72.7795 80.8828 73.8029 80.8828 75.0653V76.7276C80.8828 77.99 81.9062 79.0133 83.1685 79.0133H84.8309C86.0932 79.0133 87.1166 77.99 87.1166 76.7276V75.0653C87.1166 73.8029 86.0932 72.7795 84.8309 72.7795Z" fill="#85A3FF"/>
<path d="M73.1429 61.0911H71.4805C70.2182 61.0911 69.1948 62.1144 69.1948 63.3768V65.0391C69.1948 66.3015 70.2182 67.3248 71.4805 67.3248H73.1429C74.4052 67.3248 75.4286 66.3015 75.4286 65.0391V63.3768C75.4286 62.1144 74.4052 61.0911 73.1429 61.0911Z" fill="#85A3FF"/>
<path d="M71.5845 72.7795H69.9222C68.6598 72.7795 67.6365 73.8029 67.6365 75.0653V76.7276C67.6365 77.99 68.6598 79.0133 69.9222 79.0133H71.5845C72.8469 79.0133 73.8702 77.99 73.8702 76.7276V75.0653C73.8702 73.8029 72.8469 72.7795 71.5845 72.7795Z" fill="#ADC2FF"/>
<path d="M60.6754 66.5459H59.013C57.7506 66.5459 56.7273 67.5692 56.7273 68.8316V70.494C56.7273 71.7563 57.7506 72.7797 59.013 72.7797H60.6754C61.9377 72.7797 62.9611 71.7563 62.9611 70.494V68.8316C62.9611 67.5692 61.9377 66.5459 60.6754 66.5459Z" fill="#ADC2FF"/>
<path d="M57.5584 79.0132H55.8961C54.6337 79.0132 53.6104 80.0365 53.6104 81.2989V82.9612C53.6104 84.2236 54.6337 85.247 55.8961 85.247H57.5584C58.8208 85.247 59.8441 84.2236 59.8441 82.9612V81.2989C59.8441 80.0365 58.8208 79.0132 57.5584 79.0132Z" fill="#D6E0FF"/>
<path d="M54.4415 91.4807H52.7791C51.5168 91.4807 50.4934 92.5041 50.4934 93.7664V95.4288C50.4934 96.6911 51.5168 97.7145 52.7791 97.7145H54.4415C55.7038 97.7145 56.7272 96.6911 56.7272 95.4288V93.7664C56.7272 92.5041 55.7038 91.4807 54.4415 91.4807Z" fill="#D6E0FF"/>
<path d="M68.4676 87.5847H66.8052C65.5429 87.5847 64.5195 88.6081 64.5195 89.8704V91.5328C64.5195 92.7951 65.5429 93.8185 66.8052 93.8185H68.4676C69.73 93.8185 70.7533 92.7951 70.7533 91.5328V89.8704C70.7533 88.6081 69.73 87.5847 68.4676 87.5847Z" fill="#D6E0FF"/>
<path d="M81.7144 87.5847H80.0521C78.7897 87.5847 77.7664 88.6081 77.7664 89.8704V91.5328C77.7664 92.7951 78.7897 93.8185 80.0521 93.8185H81.7144C82.9768 93.8185 84.0001 92.7951 84.0001 91.5328V89.8704C84.0001 88.6081 82.9768 87.5847 81.7144 87.5847Z" fill="#ADC2FF"/>
<path d="M102.701 99.2727H48.1559C47.7256 99.2727 47.3767 99.6216 47.3767 100.052C47.3767 100.482 47.7256 100.831 48.1559 100.831H102.701C103.132 100.831 103.481 100.482 103.481 100.052C103.481 99.6216 103.132 99.2727 102.701 99.2727Z" fill="#D5D5D9"/>
</g>
<g filter="url(#filter1_d_138_15373)">
<path d="M112 124.572H38.8571C35.07 124.572 32 127.642 32 131.429V204.572C32 208.359 35.07 211.429 38.8571 211.429H112C115.787 211.429 118.857 208.359 118.857 204.572V131.429C118.857 127.642 115.787 124.572 112 124.572Z" fill="white"/>
<path d="M112 124.857H38.8571C35.2278 124.857 32.2856 127.799 32.2856 131.429V204.571C32.2856 208.201 35.2278 211.143 38.8571 211.143H112C115.629 211.143 118.571 208.201 118.571 204.571V131.429C118.571 127.799 115.629 124.857 112 124.857Z" stroke="#3366FF"/>
<path d="M75.4287 196.052C90.9213 196.052 103.481 183.493 103.481 168C103.481 152.508 90.9213 139.948 75.4287 139.948C59.936 139.948 47.3767 152.508 47.3767 168C47.3767 183.493 59.936 196.052 75.4287 196.052Z" fill="#D6E0FF"/>
<path d="M75.4285 139.948C80.5742 139.948 85.621 141.363 90.0165 144.039C94.4119 146.715 97.9862 150.549 100.349 155.121C102.712 159.692 103.771 164.825 103.412 169.959C103.052 175.092 101.288 180.027 98.3119 184.226L75.4285 168V139.948Z" fill="#ADC2FF"/>
<path d="M103.48 168C103.48 174.372 101.311 180.554 97.329 185.529L75.4285 168H103.48Z" fill="#5C85FF"/>
</g>
<g filter="url(#filter2_d_138_15373)">
<path d="M357.714 28.5715H134.857C131.07 28.5715 128 31.6416 128 35.4287V204.572C128 208.359 131.07 211.429 134.857 211.429H357.714C361.501 211.429 364.571 208.359 364.571 204.572V35.4287C364.571 31.6416 361.501 28.5715 357.714 28.5715Z" fill="white"/>
<path d="M357.714 28.8572H134.857C131.228 28.8572 128.286 31.7993 128.286 35.4286V204.571C128.286 208.201 131.228 211.143 134.857 211.143H357.714C361.344 211.143 364.286 208.201 364.286 204.571V35.4286C364.286 31.7993 361.344 28.8572 357.714 28.8572Z" stroke="#E7E7E9"/>
<path d="M353.143 37.7144H139.429C138.166 37.7144 137.143 38.7377 137.143 40.0001V42.2858C137.143 43.5481 138.166 44.5715 139.429 44.5715H353.143C354.405 44.5715 355.429 43.5481 355.429 42.2858V40.0001C355.429 38.7377 354.405 37.7144 353.143 37.7144Z" fill="#D9D9D9"/>
<path d="M282.286 54H140.571C138.836 54 137.428 55.4071 137.428 57.1429V198.857C137.428 200.593 138.836 202 140.571 202H282.286C284.021 202 285.428 200.593 285.428 198.857V57.1429C285.428 55.4071 284.021 54 282.286 54Z" fill="#F9F9FA"/>
<path d="M282.286 54H140.571C138.836 54 137.428 55.4071 137.428 57.1429V198.857C137.428 200.593 138.836 202 140.571 202H282.286C284.021 202 285.428 200.593 285.428 198.857V57.1429C285.428 55.4071 284.021 54 282.286 54Z" stroke="#E7E7E9"/>
<path d="M271.065 65.5327H151.792C151.161 65.5327 150.649 66.0444 150.649 66.6756V67.7665C150.649 68.3977 151.161 68.9093 151.792 68.9093H271.065C271.696 68.9093 272.207 68.3977 272.207 67.7665V66.6756C272.207 66.0444 271.696 65.5327 271.065 65.5327Z" fill="#D5D5D9"/>
<path d="M271.065 106.052H151.792C151.161 106.052 150.649 106.564 150.649 107.195V108.286C150.649 108.917 151.161 109.429 151.792 109.429H271.065C271.696 109.429 272.207 108.917 272.207 108.286V107.195C272.207 106.564 271.696 106.052 271.065 106.052Z" fill="#D5D5D9"/>
<path d="M271.065 146.572H151.792C151.161 146.572 150.649 147.083 150.649 147.714V148.805C150.649 149.436 151.161 149.948 151.792 149.948H271.065C271.696 149.948 272.207 149.436 272.207 148.805V147.714C272.207 147.083 271.696 146.572 271.065 146.572Z" fill="#D5D5D9"/>
<path d="M177.091 161.766H164.727C164.412 161.766 164.156 162.022 164.156 162.338V189.896C164.156 190.212 164.412 190.468 164.727 190.468H177.091C177.407 190.468 177.663 190.212 177.663 189.896V162.338C177.663 162.022 177.407 161.766 177.091 161.766Z" fill="#D6E0FF"/>
<path d="M204.104 121.247H191.74C191.424 121.247 191.168 121.503 191.168 121.818V189.896C191.168 190.212 191.424 190.468 191.74 190.468H204.104C204.419 190.468 204.675 190.212 204.675 189.896V121.818C204.675 121.503 204.419 121.247 204.104 121.247Z" fill="#ADC2FF"/>
<path d="M231.117 134.753H218.753C218.437 134.753 218.182 135.009 218.182 135.325V189.896C218.182 190.212 218.437 190.467 218.753 190.467H231.117C231.432 190.467 231.688 190.212 231.688 189.896V135.325C231.688 135.009 231.432 134.753 231.117 134.753Z" fill="#85A3FF"/>
<path d="M258.13 80.7275H245.766C245.451 80.7275 245.195 80.9834 245.195 81.299V189.896C245.195 190.212 245.451 190.468 245.766 190.468H258.13C258.445 190.468 258.701 190.212 258.701 189.896V81.299C258.701 80.9834 258.445 80.7275 258.13 80.7275Z" fill="#5C85FF"/>
<path d="M271.065 187.091H151.792C151.161 187.091 150.649 187.603 150.649 188.234V189.325C150.649 189.956 151.161 190.468 151.792 190.468H271.065C271.696 190.468 272.207 189.956 272.207 189.325V188.234C272.207 187.603 271.696 187.091 271.065 187.091Z" fill="#D5D5D9"/>
<path d="M349.714 102.857H297.143C295.881 102.857 294.857 103.881 294.857 105.143C294.857 106.405 295.881 107.429 297.143 107.429H349.714C350.977 107.429 352 106.405 352 105.143C352 103.881 350.977 102.857 349.714 102.857Z" fill="#D9D9D9"/>
<path d="M349.714 109.714H297.143C295.881 109.714 294.857 110.738 294.857 112C294.857 113.262 295.881 114.286 297.143 114.286H349.714C350.977 114.286 352 113.262 352 112C352 110.738 350.977 109.714 349.714 109.714Z" fill="#D9D9D9"/>
<path d="M325.714 116.572H297.143C295.881 116.572 294.857 117.595 294.857 118.857C294.857 120.12 295.881 121.143 297.143 121.143H325.714C326.977 121.143 328 120.12 328 118.857C328 117.595 326.977 116.572 325.714 116.572Z" fill="#D9D9D9"/>
<path d="M349.714 134.857H297.143C295.881 134.857 294.857 135.881 294.857 137.143C294.857 138.405 295.881 139.429 297.143 139.429H349.714C350.977 139.429 352 138.405 352 137.143C352 135.881 350.977 134.857 349.714 134.857Z" fill="#D9D9D9"/>
<path d="M349.714 141.714H297.143C295.881 141.714 294.857 142.738 294.857 144C294.857 145.262 295.881 146.286 297.143 146.286H349.714C350.977 146.286 352 145.262 352 144C352 142.738 350.977 141.714 349.714 141.714Z" fill="#D9D9D9"/>
<path d="M325.714 148.572H297.143C295.881 148.572 294.857 149.595 294.857 150.857C294.857 152.12 295.881 153.143 297.143 153.143H325.714C326.977 153.143 328 152.12 328 150.857C328 149.595 326.977 148.572 325.714 148.572Z" fill="#D9D9D9"/>
</g>
<g filter="url(#filter3_d_138_15373)">
<path d="M453.714 28.5715H380.571C376.784 28.5715 373.714 31.6416 373.714 35.4287V108.572C373.714 112.359 376.784 115.429 380.571 115.429H453.714C457.501 115.429 460.571 112.359 460.571 108.572V35.4287C460.571 31.6416 457.501 28.5715 453.714 28.5715Z" fill="white"/>
<path d="M453.714 28.8572H380.571C376.942 28.8572 374 31.7993 374 35.4286V108.571C374 112.201 376.942 115.143 380.571 115.143H453.714C457.344 115.143 460.286 112.201 460.286 108.571V35.4286C460.286 31.7993 457.344 28.8572 453.714 28.8572Z" stroke="#3366FF"/>
<path d="M444.415 43.1689H389.87C389.44 43.1689 389.091 43.5178 389.091 43.9482C389.091 44.3785 389.44 44.7274 389.87 44.7274H444.415C444.846 44.7274 445.195 44.3785 445.195 43.9482C445.195 43.5178 444.846 43.1689 444.415 43.1689Z" fill="#D5D5D9"/>
<path d="M444.415 61.8704H389.87C389.44 61.8704 389.091 62.2192 389.091 62.6496C389.091 63.0799 389.44 63.4288 389.87 63.4288H444.415C444.846 63.4288 445.195 63.0799 445.195 62.6496C445.195 62.2192 444.846 61.8704 444.415 61.8704Z" fill="#D5D5D9"/>
<path d="M444.415 80.5715H389.87C389.44 80.5715 389.091 80.9204 389.091 81.3508C389.091 81.7811 389.44 82.13 389.87 82.13H444.415C444.846 82.13 445.195 81.7811 445.195 81.3508C445.195 80.9204 444.846 80.5715 444.415 80.5715Z" fill="#D5D5D9"/>
<path d="M444.415 99.2727H389.87C389.44 99.2727 389.091 99.6216 389.091 100.052C389.091 100.482 389.44 100.831 389.87 100.831H444.415C444.846 100.831 445.195 100.482 445.195 100.052C445.195 99.6216 444.846 99.2727 444.415 99.2727Z" fill="#D5D5D9"/>
<path d="M398.442 93.8183L409.861 70.9789C410.436 69.8298 411.844 69.3795 412.978 69.9823L421.295 74.4006C422.434 75.0058 423.848 74.5492 424.418 73.3915L435.844 50.1819" stroke="#5C85FF" stroke-width="4" stroke-linecap="round"/>
</g>
<g filter="url(#filter4_d_138_15373)">
<path d="M453.714 124.572H380.571C376.784 124.572 373.714 127.642 373.714 131.429V204.572C373.714 208.359 376.784 211.429 380.571 211.429H453.714C457.501 211.429 460.571 208.359 460.571 204.572V131.429C460.571 127.642 457.501 124.572 453.714 124.572Z" fill="white"/>
<path d="M453.714 124.857H380.571C376.942 124.857 374 127.799 374 131.429V204.571C374 208.201 376.942 211.143 380.571 211.143H453.714C457.344 211.143 460.286 208.201 460.286 204.571V131.429C460.286 127.799 457.344 124.857 453.714 124.857Z" stroke="#3366FF"/>
<path d="M445.195 168C445.195 183.493 432.635 196.052 417.143 196.052C401.65 196.052 389.091 183.493 389.091 168C389.091 152.507 401.65 139.948 417.143 139.948C432.635 139.948 445.195 152.507 445.195 168ZM400.311 168C400.311 177.295 407.847 184.831 417.143 184.831C426.438 184.831 433.974 177.295 433.974 168C433.974 158.705 426.438 151.169 417.143 151.169C407.847 151.169 400.311 158.705 400.311 168Z" fill="#D6E0FF"/>
<path d="M417.143 139.948C422.289 139.948 427.335 141.363 431.731 144.039C436.126 146.715 439.701 150.549 442.063 155.121C444.426 159.692 445.486 164.825 445.126 169.959C444.767 175.092 443.003 180.027 440.026 184.226L430.873 177.735C432.659 175.217 433.717 172.255 433.933 169.175C434.149 166.095 433.513 163.015 432.095 160.273C430.678 157.53 428.533 155.229 425.895 153.624C423.258 152.018 420.23 151.169 417.143 151.169V139.948Z" fill="#ADC2FF"/>
<path d="M445.195 168C445.195 174.372 443.025 180.554 439.043 185.529L430.283 178.518C432.673 175.533 433.974 171.823 433.974 168H445.195Z" fill="#5C85FF"/>
</g>
<defs>
<filter id="filter0_d_138_15373" x="19.7856" y="16.3572" width="111.286" height="111.286" filterUnits="userSpaceOnUse" color-interpolation-filters="sRGB">
<feFlood flood-opacity="0" result="BackgroundImageFix"/>
<feColorMatrix in="SourceAlpha" type="matrix" values="0 0 0 0 0 0 0 0 0 0 0 0 0 0 0 0 0 0 127 0" result="hardAlpha"/>
<feOffset/>
<feGaussianBlur stdDeviation="6"/>
<feComposite in2="hardAlpha" operator="out"/>
<feColorMatrix type="matrix" values="0 0 0 0 0.2 0 0 0 0 0.4 0 0 0 0 1 0 0 0 0.08 0"/>
<feBlend mode="normal" in2="BackgroundImageFix" result="effect1_dropShadow_138_15373"/>
<feBlend mode="normal" in="SourceGraphic" in2="effect1_dropShadow_138_15373" result="shape"/>
</filter>
<filter id="filter1_d_138_15373" x="19.7856" y="112.357" width="111.286" height="111.286" filterUnits="userSpaceOnUse" color-interpolation-filters="sRGB">
<feFlood flood-opacity="0" result="BackgroundImageFix"/>
<feColorMatrix in="SourceAlpha" type="matrix" values="0 0 0 0 0 0 0 0 0 0 0 0 0 0 0 0 0 0 127 0" result="hardAlpha"/>
<feOffset/>
<feGaussianBlur stdDeviation="6"/>
<feComposite in2="hardAlpha" operator="out"/>
<feColorMatrix type="matrix" values="0 0 0 0 0.2 0 0 0 0 0.4 0 0 0 0 1 0 0 0 0.08 0"/>
<feBlend mode="normal" in2="BackgroundImageFix" result="effect1_dropShadow_138_15373"/>
<feBlend mode="normal" in="SourceGraphic" in2="effect1_dropShadow_138_15373" result="shape"/>
</filter>
<filter id="filter2_d_138_15373" x="115.786" y="16.3572" width="261" height="207.286" filterUnits="userSpaceOnUse" color-interpolation-filters="sRGB">
<feFlood flood-opacity="0" result="BackgroundImageFix"/>
<feColorMatrix in="SourceAlpha" type="matrix" values="0 0 0 0 0 0 0 0 0 0 0 0 0 0 0 0 0 0 127 0" result="hardAlpha"/>
<feOffset/>
<feGaussianBlur stdDeviation="6"/>
<feComposite in2="hardAlpha" operator="out"/>
<feColorMatrix type="matrix" values="0 0 0 0 0 0 0 0 0 0 0 0 0 0 0 0 0 0 0.08 0"/>
<feBlend mode="normal" in2="BackgroundImageFix" result="effect1_dropShadow_138_15373"/>
<feBlend mode="normal" in="SourceGraphic" in2="effect1_dropShadow_138_15373" result="shape"/>
</filter>
<filter id="filter3_d_138_15373" x="361.5" y="16.3572" width="111.286" height="111.286" filterUnits="userSpaceOnUse" color-interpolation-filters="sRGB">
<feFlood flood-opacity="0" result="BackgroundImageFix"/>
<feColorMatrix in="SourceAlpha" type="matrix" values="0 0 0 0 0 0 0 0 0 0 0 0 0 0 0 0 0 0 127 0" result="hardAlpha"/>
<feOffset/>
<feGaussianBlur stdDeviation="6"/>
<feComposite in2="hardAlpha" operator="out"/>
<feColorMatrix type="matrix" values="0 0 0 0 0.2 0 0 0 0 0.4 0 0 0 0 1 0 0 0 0.08 0"/>
<feBlend mode="normal" in2="BackgroundImageFix" result="effect1_dropShadow_138_15373"/>
<feBlend mode="normal" in="SourceGraphic" in2="effect1_dropShadow_138_15373" result="shape"/>
</filter>
<filter id="filter4_d_138_15373" x="361.5" y="112.357" width="111.286" height="111.286" filterUnits="userSpaceOnUse" color-interpolation-filters="sRGB">
<feFlood flood-opacity="0" result="BackgroundImageFix"/>
<feColorMatrix in="SourceAlpha" type="matrix" values="0 0 0 0 0 0 0 0 0 0 0 0 0 0 0 0 0 0 127 0" result="hardAlpha"/>
<feOffset/>
<feGaussianBlur stdDeviation="6"/>
<feComposite in2="hardAlpha" operator="out"/>
<feColorMatrix type="matrix" values="0 0 0 0 0.2 0 0 0 0 0.4 0 0 0 0 1 0 0 0 0.08 0"/>
<feBlend mode="normal" in2="BackgroundImageFix" result="effect1_dropShadow_138_15373"/>
<feBlend mode="normal" in="SourceGraphic" in2="effect1_dropShadow_138_15373" result="shape"/>
</filter>
</defs>
</svg>
