<svg width="580" height="580" xmlns="http://www.w3.org/2000/svg">
 <!-- Created with Method Draw - http://github.com/duopixel/Method-Draw/ -->

 <g>
  <title>background</title>
  <rect fill="#fff" id="canvas_background" height="582" width="582" y="-1" x="-1"/>
  <g display="none" overflow="visible" y="0" x="0" height="100%" width="100%" id="canvasGrid">
   <rect fill="url(#gridpattern)" stroke-width="0" y="0" x="0" height="100%" width="100%"/>
  </g>
 </g>
 <g>
  <title>Layer 1</title>
  <!-- Generator: Sketch 42 (36781) - http://www.bohemiancoding.com/sketch -->
  <desc transform="matrix(11.111110581292053,0,0,11.111110581292053,0,0) ">Created with Sketch.</desc>

  <g stroke="null" id="svg_10">
   <g transform="matrix(15.163741197100038,0,0,15.163741197100038,-105.77365596509264,-105.77366880015472) " fill-rule="evenodd" fill="none" id="svg_6">
    <g stroke="null" fill="#E54B4D" id="svg_7">
     <path stroke="null" id="svg_8" d="m29.694591,37.595683c4.18103,-1.45956 7.18919,-5.37461 7.18919,-9.98057c0,-5.84834 -4.83729,-10.6058 -10.78378,-10.6058c-5.94649,0 -10.78378,4.75746 -10.78378,10.6058c0,4.97665 3.50832,9.14928 8.21621,10.28562l0,1.04038c-5.28611,-1.15351 -9.24324,-5.77966 -9.24324,-11.326c0,-6.41499 5.28816,-11.61588 11.81081,-11.61588c6.52265,0 11.81081,5.20089 11.81081,11.61588c0,5.18069 -3.45286,9.56139 -8.21622,11.05732l0,-1.07675zm-3.59459,-15.53599c-3.11497,0 -5.64865,2.49186 -5.64865,5.55542c0,2.15147 1.25811,4.00698 3.08108,4.92817l0,1.12321c-2.41043,-0.98887 -4.10811,-3.32215 -4.10811,-6.05138c0,-3.62617 2.98865,-6.5655 6.67568,-6.5655c3.68703,0 6.67568,2.93933 6.67568,6.5655c0,2.32116 -1.23244,4.35142 -3.08109,5.51805l0,-1.25653c1.24887,-1.01917 2.05406,-2.54438 2.05406,-4.26152c0,-3.06356 -2.53368,-5.55542 -5.64865,-5.55542zm-19,5.55542c0,6.56146 3.44465,12.32193 8.64654,15.6562c0.31427,-0.20202 0.63676,-0.39191 0.96232,-0.57575c0.23314,-0.1303 0.46833,-0.25454 0.70763,-0.37575c0.28551,-0.14444 0.57513,-0.28181 0.86886,-0.41211c0.2927,-0.1303 0.58849,-0.25151 0.88941,-0.36766c0.24443,-0.09394 0.49092,-0.18182 0.74048,-0.26666c0.34817,-0.11818 0.70146,-0.22626 1.0599,-0.32525c0.26908,-0.07374 0.54021,-0.14343 0.81443,-0.20606c0.27729,-0.06363 0.55562,-0.12322 0.83805,-0.17474c0.29989,-0.05454 0.60081,-0.10606 0.90481,-0.14747c0.34098,-0.03434 0.68092,-0.07475 1.02703,-0.10202l0,-1.19694l0,-1.02119l0,-4.10192l0,-1.0424l0,-3.82516l-1.02703,0l0,-2.02015l1.02703,0l3.08108,0l1.02703,0l0,5.44734l0,1.11816l0,4.22919l0,1.0424l0,1.47168c2.84281,0.3909 5.48535,1.37774 7.78384,2.85145c5.20394,-3.33326 8.64859,-9.09373 8.64859,-15.65519c0,-10.31995 -8.50686,-18.68642 -19,-18.68642c-10.49314,0 -19,8.36647 -19,18.68642z"/>
    </g>
   </g>
  </g>
 </g>
</svg>