<svg width="16" height="16" viewBox="0 0 16 16" fill="none" xmlns="http://www.w3.org/2000/svg">
<path d="M3.33325 11.3333H2.66659C2.31296 11.3333 1.97382 11.1929 1.72378 10.9428C1.47373 10.6928 1.33325 10.3536 1.33325 10V3.33333C1.33325 2.97971 1.47373 2.64057 1.72378 2.39052C1.97382 2.14048 2.31296 2 2.66659 2H13.3333C13.6869 2 14.026 2.14048 14.2761 2.39052C14.5261 2.64057 14.6666 2.97971 14.6666 3.33333V10C14.6666 10.3536 14.5261 10.6928 14.2761 10.9428C14.026 11.1929 13.6869 11.3333 13.3333 11.3333H12.6666" stroke="currentColor" stroke-width="1.33" stroke-linecap="round" stroke-linejoin="round"/>
<path d="M8.00008 10L11.3334 14H4.66675L8.00008 10Z" stroke="currentColor" stroke-width="1.33" stroke-linecap="round" stroke-linejoin="round"/>
</svg>
