<svg width="16" height="16" viewBox="0 0 16 16" fill="none" xmlns="http://www.w3.org/2000/svg">
<g clip-path="url(#clip0_5258_8592)">
<path d="M11.9553 8.3807C10.2737 8.3807 8.91054 9.74391 8.91054 11.4256C8.91054 13.1071 10.2737 14.4704 11.9553 14.4704C13.6369 14.4704 15 13.1071 15 11.4256C15 9.74391 13.6369 8.3807 11.9553 8.3807ZM4.04475 8.38097C2.3632 8.38097 1 9.74391 1 11.4256C1 13.1071 2.3632 14.4704 4.04475 14.4704C5.72637 14.4704 7.08963 13.1071 7.08963 11.4256C7.08963 9.74391 5.72637 8.38097 4.04475 8.38097ZM11.0447 4.57468C11.0447 6.25637 9.68155 7.61971 8.00003 7.61971C6.31839 7.61971 4.95526 6.25637 4.95526 4.57468C4.95526 2.89333 6.31839 1.53 8.00003 1.53C9.68155 1.53 11.0447 2.89333 11.0447 4.57468Z" stroke="currentColor " stroke-width="1.33"/>
</g>
<defs>
<clipPath id="clip0_5258_8592">
<rect width="16" height="16" fill="white"/>
</clipPath>
</defs>
</svg>
