<svg width="16" height="16" viewBox="0 0 16 16" fill="none" xmlns="http://www.w3.org/2000/svg">
<rect width="16" height="16" rx="2" fill="white"/>
<g clip-path="url(#clip0_5687_209702)">
<path d="M11.9553 8.37069C10.2737 8.37069 8.91054 9.7339 8.91054 11.4156C8.91054 13.0971 10.2737 14.4603 11.9553 14.4603C13.6369 14.4603 15 13.0971 15 11.4156C15 9.7339 13.6369 8.37069 11.9553 8.37069ZM4.04475 8.37096C2.3632 8.37096 1 9.7339 1 11.4156C1 13.0971 2.3632 14.4603 4.04475 14.4603C5.72637 14.4603 7.08963 13.0971 7.08963 11.4156C7.08963 9.7339 5.72637 8.37096 4.04475 8.37096ZM11.0447 4.56467C11.0447 6.24636 9.68155 7.6097 8.00003 7.6097C6.31839 7.6097 4.95526 6.24636 4.95526 4.56467C4.95526 2.88332 6.31839 1.51999 8.00003 1.51999C9.68155 1.51999 11.0447 2.88332 11.0447 4.56467Z" fill="#F06A6A"/>
</g>
<defs>
<clipPath id="clip0_5687_209702">
<rect width="14" height="12.9609" fill="white" transform="translate(1 1.51999)"/>
</clipPath>
</defs>
</svg>
