<svg xmlns="http://www.w3.org/2000/svg" width="24" height="24" viewBox="0 0 24 24" fill="none">
    <path fill-rule="evenodd" clip-rule="evenodd" d="M14.031 16.9225C12.4811 16.9225 11.1697 15.7004 11.1697 14.0639C11.1697 12.4262 12.2755 11.0811 14.0587 11.0811C15.8422 11.0811 16.893 12.5232 16.893 14.0335C16.893 15.6768 15.7813 16.9225 14.031 16.9225ZM9.46185 11.5004L8.91413 9.7062C8.5875 8.76248 8.49075 8.2191 7.5699 7.24691C7.25429 6.91325 6.06062 6.17947 6.209 6.33966C7.72193 7.97295 8.49555 9.9513 8.79383 10.5009C8.51955 10.168 8.19847 9.8694 7.83195 9.49732C7.51965 9.1806 7.19376 8.89493 6.88408 8.70375C6.68034 8.57752 6.56592 8.50778 6.35886 8.40075C5.42688 7.91648 4.52332 7.62337 4.17637 7.53667C3.75264 7.4311 3.33519 7.40378 3.33519 7.40378C3.33519 7.40378 4.68573 8.54393 5.26447 9.26993C5.84323 9.99563 6.43378 10.646 7.08635 10.9121C7.73895 11.1782 7.9659 11.2542 8.47935 11.3321C8.92193 11.3989 9.46185 11.5004 9.46185 11.5004ZM14.155 9.91072C12.727 9.91072 11.9611 10.4009 11.4244 10.9339L11.2778 11.0874L11.2775 6.30091H10.0436V14.1343C10.0436 16.5449 11.9002 18.0468 14.0306 18.0468C16.3777 18.0468 18.1542 16.2408 18.1542 13.9191C18.1546 11.7636 16.3013 9.91072 14.155 9.91072ZM24 12.0002C24 18.6274 18.6274 24 12.0002 24C5.37299 24 0 18.6274 0 12.0002C0 5.37299 5.37262 0 11.9998 0C18.627 0 24 5.37262 24 12.0002Z" fill="#73C41D"/>
</svg>