<svg xmlns="http://www.w3.org/2000/svg" width="20" height="20" viewBox="0 0 20 20" fill="none">
  <g clip-path="url(#clip0_585_145875)">
    <path d="M18.75 15C18.75 15.25 18.5221 15.4007 18.185 15.5542L11.2412 18.7161C10.5439 19.0336 9.41343 19.0336 8.71617 18.7161L1.77237 15.5542C1.43533 15.4007 1.25 15.125 1.25 15" stroke="currentColor" stroke-width="1.66"/>
    <path d="M18.75 10C18.75 10.25 18.5221 10.4007 18.185 10.5542L11.2412 13.7161C10.5439 14.0336 9.41343 14.0336 8.71617 13.7161L1.77237 10.5542C1.43533 10.4007 1.25 10.125 1.25 10" stroke="currentColor" stroke-width="1.66"/>
    <path d="M1.25 5V15M18.75 5V15" stroke="currentColor" stroke-width="1.66"/>
    <path d="M18.1856 5.79988L11.2417 8.96184C10.5445 9.27935 9.41401 9.27935 8.71675 8.96184L1.77295 5.79988C1.07568 5.48238 1.07568 4.9676 1.77295 4.65009L8.71675 1.48813C9.41401 1.17062 10.5445 1.17062 11.2417 1.48813L18.1856 4.65009C18.8828 4.9676 18.8828 5.48238 18.1856 5.79988Z" stroke="currentColor" stroke-width="1.66"/>
  </g>
  <defs>
    <clipPath id="clip0_585_145875">
      <rect width="20" height="20" fill="white"/>
    </clipPath>
  </defs>
</svg>