<svg xmlns="http://www.w3.org/2000/svg" width="24" height="24" viewBox="0 0 24 24" fill="none">
    <path d="M13.6781 24H1.28906C0.576563 24 0 23.4234 0 22.7109V19.3594C0 18.6469 0.576563 18.0703 1.28906 18.0703H13.6734C14.3859 18.0703 14.9625 18.6469 14.9625 19.3594V22.7109C14.9672 23.4234 14.3906 24 13.6781 24Z" fill="#4D68C4"/>
    <path d="M22.7109 14.9668H1.28906C0.576563 14.9668 0 14.3902 0 13.6777V10.3262C0 9.61367 0.576563 9.03711 1.28906 9.03711H22.7109C23.4234 9.03711 24 9.61367 24 10.3262V13.6777C24 14.3902 23.4234 14.9668 22.7109 14.9668Z" fill="#5190EF"/>
    <path d="M22.7108 5.93437H10.3218C9.60928 5.93437 9.03271 5.35781 9.03271 4.64531V1.28906C9.03271 0.576563 9.60928 0 10.3218 0H22.7062C23.4233 0 23.9999 0.576563 23.9999 1.28906V4.64062C23.9999 5.35781 23.4233 5.93437 22.7108 5.93437Z" fill="#2BC3F1"/>
    <path d="M22.7109 24H19.3594C18.6469 24 18.0703 23.4234 18.0703 22.7109V19.3594C18.0703 18.6469 18.6469 18.0703 19.3594 18.0703H22.7109C23.4234 18.0703 24 18.6469 24 19.3594V22.7109C24 23.4234 23.4234 24 22.7109 24Z" fill="#4D68C4"/>
    <path d="M1.28906 0H4.64062C5.35313 0 5.92969 0.576563 5.92969 1.28906V4.64062C5.92969 5.35313 5.35313 5.92969 4.64062 5.92969H1.28906C0.576563 5.93437 0 5.35781 0 4.64531V1.28906C0 0.576563 0.576563 0 1.28906 0Z" fill="#2BC3F1"/>
</svg>