<svg width="16" height="16" viewBox="0 0 16 16" fill="none" xmlns="http://www.w3.org/2000/svg">
<path d="M15.3333 8.66634V7.33301" stroke="currentColor" stroke-width="1.33" stroke-linecap="round" stroke-linejoin="round"/>
<path d="M3.33341 12H2.00008C1.64646 12 1.30732 11.8595 1.05727 11.6095C0.807224 11.3594 0.666748 11.0203 0.666748 10.6667V5.33333C0.666748 4.97971 0.807224 4.64057 1.05727 4.39052C1.30732 4.14048 1.64646 4 2.00008 4H4.12675M10.0001 4H11.3334C11.687 4 12.0262 4.14048 12.2762 4.39052C12.5263 4.64057 12.6667 4.97971 12.6667 5.33333V10.6667C12.6667 11.0203 12.5263 11.3594 12.2762 11.6095C12.0262 11.8595 11.687 12 11.3334 12H9.20675" stroke="currentColor" stroke-width="1.33" stroke-linecap="round" stroke-linejoin="round"/>
<path d="M7.33341 4L4.66675 8H8.66675L6.00008 12" stroke="currentColor" stroke-width="1.33" stroke-linecap="round" stroke-linejoin="round"/>
</svg>
