<svg width="16" height="16" viewBox="0 0 16 16" fill="none" xmlns="http://www.w3.org/2000/svg">
<g clip-path="url(#clip0_1504_36005)">
<path d="M9.15335 14C9.03614 14.2021 8.86791 14.3698 8.6655 14.4864C8.46309 14.6029 8.2336 14.6643 8.00001 14.6643C7.76643 14.6643 7.53694 14.6029 7.33453 14.4864C7.13212 14.3698 6.96389 14.2021 6.84668 14" stroke="currentColor" stroke-width="1.33" stroke-linecap="round" stroke-linejoin="round"/>
<path d="M12.4201 8.66634C12.1235 7.58061 11.9821 6.45837 12.0001 5.33301" stroke="currentColor" stroke-width="1.33" stroke-linecap="round" stroke-linejoin="round"/>
<path d="M4.17333 4.17285C4.05751 4.54859 3.99907 4.93967 4 5.33285C4 9.99952 2 11.3329 2 11.3329H11.3333" stroke="currentColor" stroke-width="1.33" stroke-linecap="round" stroke-linejoin="round"/>
<path d="M12 5.33308C12.0011 4.60846 11.8053 3.89715 11.4336 3.27514C11.0619 2.65314 10.5281 2.14379 9.88944 1.80151C9.25075 1.45923 8.53108 1.29688 7.8073 1.3318C7.08351 1.36671 6.38281 1.59758 5.78003 1.99975" stroke="currentColor" stroke-width="1.33" stroke-linecap="round" stroke-linejoin="round"/>
<path d="M0.666748 0.666992L15.3334 15.3337" stroke="currentColor" stroke-width="1.33" stroke-linecap="round" stroke-linejoin="round"/>
</g>
<defs>
<clipPath id="clip0_1504_36005">
<rect width="16" height="16" fill="white"/>
</clipPath>
</defs>
</svg>
