<svg width="16" height="16" viewBox="0 0 16 16" fill="none" xmlns="http://www.w3.org/2000/svg">
<rect width="16" height="16" rx="2" fill="white"/>
<path d="M1.45435 1.70502C1.32184 1.70331 1.19535 1.76029 1.10882 1.86066C1.02229 1.96104 0.984573 2.09454 1.00579 2.22536L2.90994 13.7848C2.95891 14.0768 3.21047 14.2915 3.50652 14.2939H12.6415C12.8637 14.2968 13.0545 14.1365 13.0901 13.9171L14.9942 2.2276C15.0154 2.09678 14.9777 1.96328 14.8912 1.86291C14.8046 1.76253 14.6782 1.70556 14.5456 1.70727L1.45435 1.70502ZM9.47241 10.0595H6.55675L5.76728 5.93497H10.1789L9.47241 10.0595Z" fill="#2684FF"/>
<path d="M14.3771 5.92914H10.1707L9.46481 10.0504H6.55148L3.11151 14.1335C3.22054 14.2278 3.35955 14.2802 3.50369 14.2814H12.6336C12.8557 14.2843 13.0463 14.1241 13.0818 13.9049L14.3771 5.92914Z" fill="url(#paint0_linear_5687_209750)"/>
<defs>
<linearGradient id="paint0_linear_5687_209750" x1="1226.93" y1="121.342" x2="741.024" y2="811.27" gradientUnits="userSpaceOnUse">
<stop offset="0.18" stop-color="#0052CC"/>
<stop offset="1" stop-color="#2684FF"/>
</linearGradient>
</defs>
</svg>
