<svg width="16" height="16" viewBox="0 0 16 16" fill="none" xmlns="http://www.w3.org/2000/svg">
<path d="M4 8H10C10.7072 8 11.3855 8.28095 11.8856 8.78105C12.3857 9.28115 12.6667 9.95942 12.6667 10.6667C12.6667 11.3739 12.3857 12.0522 11.8856 12.5523C11.3855 13.0524 10.7072 13.3333 10 13.3333H4V8Z" stroke="currentColor" stroke-width="1.33" stroke-linecap="round" stroke-linejoin="round"/>
<path d="M4 2.66699H9.33333C10.0406 2.66699 10.7189 2.94794 11.219 3.44804C11.719 3.94814 12 4.62641 12 5.33366C12 6.0409 11.719 6.71918 11.219 7.21928C10.7189 7.71937 10.0406 8.00033 9.33333 8.00033H4V2.66699Z" stroke="currentColor" stroke-width="1.33" stroke-linecap="round" stroke-linejoin="round"/>
</svg>
