<svg width="16" height="16" viewBox="0 0 16 16" fill="none" xmlns="http://www.w3.org/2000/svg">
<path d="M15.8589 11.6698C16.0587 11.9494 16.0187 12.309 15.779 12.5087C15.4994 12.7084 15.0999 12.6685 14.9002 12.4288L13.5021 10.6312L12.1439 12.3889C11.9441 12.6685 11.5447 12.6685 11.265 12.4687C10.9854 12.269 10.9455 11.9095 11.1452 11.6299L12.7431 9.55262L11.1452 7.47538C10.9455 7.19575 11.0254 6.79629 11.265 6.59655C11.5447 6.39682 11.9441 6.47671 12.1439 6.71639L13.5021 8.514L14.9002 6.79629C15.0999 6.51666 15.4595 6.47671 15.779 6.67644C16.0587 6.87618 16.0587 7.27565 15.8589 7.55528L14.301 9.59257L15.8589 11.6698ZM8.58859 11.4301C7.54997 11.4301 6.71108 10.6312 6.71108 9.59257C6.71108 8.5939 7.54997 7.75501 8.58859 7.75501C9.62721 7.75501 10.4661 8.5939 10.4661 9.59257C10.4261 10.6312 9.58726 11.4301 8.58859 11.4301ZM3.07591 11.4301C2.03729 11.4301 1.19841 10.6312 1.19841 9.59257C1.19841 8.5939 2.03729 7.75501 3.07591 7.75501C4.11453 7.75501 4.95342 8.5939 4.95342 9.59257C4.95342 10.6312 4.11453 11.4301 3.07591 11.4301ZM8.58859 6.5566C7.43013 6.5566 6.39151 7.19575 5.8722 8.15448C5.35289 7.19575 4.31427 6.5566 3.11586 6.5566C2.39682 6.5566 1.75766 6.79629 1.23835 7.15581V4.5992C1.23835 4.27963 0.958726 4 0.639151 4C0.279629 4 0 4.27963 0 4.5992V9.63252C0.0399469 11.3103 1.39814 12.6285 3.07591 12.6285C4.27432 12.6285 5.31294 11.9494 5.83225 10.9907C6.35156 11.9494 7.39018 12.6285 8.54864 12.6285C10.2664 12.6285 11.6645 11.2703 11.6645 9.55262C11.7045 7.9148 10.3063 6.5566 8.58859 6.5566Z" fill="currentColor"/>
</svg>
