<svg width="16" height="16" viewBox="0 0 16 16" fill="none" xmlns="http://www.w3.org/2000/svg">
<rect width="16" height="16" rx="2" fill="#0075C9"/>
<path d="M14.8766 10.7111C15.0513 10.9558 15.0164 11.2703 14.8067 11.4451C14.562 11.6199 14.2124 11.5849 14.0377 11.3752L12.8143 9.80229L11.6259 11.3402C11.4511 11.5849 11.1016 11.5849 10.8569 11.4102C10.6122 11.2354 10.5773 10.9208 10.752 10.6761L12.1502 8.85855L10.752 7.04096C10.5773 6.79629 10.6472 6.44675 10.8569 6.27198C11.1016 6.09721 11.4511 6.16712 11.6259 6.37684L12.8143 7.94975L14.0377 6.44675C14.2124 6.20207 14.527 6.16712 14.8067 6.34189C15.0513 6.51666 15.0513 6.86619 14.8766 7.11087L13.5134 8.8935L14.8766 10.7111ZM8.51502 10.5014C7.60622 10.5014 6.8722 9.80229 6.8722 8.8935C6.8722 8.01966 7.60622 7.28563 8.51502 7.28563C9.42381 7.28563 10.1578 8.01966 10.1578 8.8935C10.1229 9.80229 9.38885 10.5014 8.51502 10.5014ZM3.69142 10.5014C2.78263 10.5014 2.04861 9.80229 2.04861 8.8935C2.04861 8.01966 2.78263 7.28563 3.69142 7.28563C4.60022 7.28563 5.33424 8.01966 5.33424 8.8935C5.33424 9.80229 4.60022 10.5014 3.69142 10.5014ZM8.51502 6.23703C7.50136 6.23703 6.59257 6.79629 6.13817 7.63517C5.68378 6.79629 4.77499 6.23703 3.72638 6.23703C3.09721 6.23703 2.53796 6.44675 2.08356 6.76133V4.5243C2.08356 4.24467 1.83889 4 1.55926 4C1.24467 4 1 4.24467 1 4.5243V8.92845C1.03495 10.3965 2.22337 11.55 3.69142 11.55C4.74003 11.55 5.64882 10.9558 6.10322 10.1169C6.55762 10.9558 7.46641 11.55 8.48006 11.55C9.98307 11.55 11.2064 10.3615 11.2064 8.85855C11.2414 7.42545 10.018 6.23703 8.51502 6.23703Z" fill="white"/>
</svg>
