<svg width="16" height="16" viewBox="0 0 16 16" fill="none" xmlns="http://www.w3.org/2000/svg">
<g clip-path="url(#clip0_1504_35986)">
<path d="M0.666748 0.666992L15.3334 15.3337" stroke="currentColor" stroke-width="1.33" stroke-linecap="round" stroke-linejoin="round"/>
<path d="M6.00008 2H10.0001L11.3334 4H14.0001C14.3537 4 14.6928 4.14048 14.9429 4.39052C15.1929 4.64057 15.3334 4.97971 15.3334 5.33333V11.56M10.1867 10.1867C9.96548 10.51 9.67568 10.7807 9.33794 10.9793C9.00021 11.178 8.62285 11.2997 8.23271 11.336C7.84257 11.3722 7.44924 11.3221 7.08068 11.1891C6.71213 11.056 6.37742 10.8434 6.10036 10.5664C5.8233 10.2893 5.6107 9.95462 5.47768 9.58606C5.34467 9.21751 5.2945 8.82418 5.33075 8.43404C5.36701 8.0439 5.48879 7.66654 5.68744 7.32881C5.88608 6.99107 6.15672 6.70127 6.48008 6.48M14.0001 14H2.00008C1.64646 14 1.30732 13.8595 1.05727 13.6095C0.807224 13.3594 0.666748 13.0203 0.666748 12.6667V5.33333C0.666748 4.97971 0.807224 4.64057 1.05727 4.39052C1.30732 4.14048 1.64646 4 2.00008 4H4.00008L14.0001 14Z" stroke="currentColor" stroke-width="1.33" stroke-linecap="round" stroke-linejoin="round"/>
</g>
<defs>
<clipPath id="clip0_1504_35986">
<rect width="16" height="16" fill="white"/>
</clipPath>
</defs>
</svg>
