<svg width="16" height="16" viewBox="0 0 16 16" fill="none" xmlns="http://www.w3.org/2000/svg">
<path d="M1.33325 13.333H1.33992" stroke="currentColor" stroke-width="1.33" stroke-linecap="round" stroke-linejoin="round"/>
<path d="M1.33325 10.7337C1.97385 10.8643 2.56188 11.1804 3.02417 11.6427C3.48647 12.105 3.80261 12.6931 3.93325 13.3337M1.33325 8.03366C2.68711 8.18424 3.94944 8.79102 4.91266 9.75425C5.87589 10.7175 6.48268 11.9798 6.63325 13.3337M1.33325 5.33366V4.00033C1.33325 3.6467 1.47373 3.30756 1.72378 3.05752C1.97382 2.80747 2.31296 2.66699 2.66659 2.66699H13.3333C13.6869 2.66699 14.026 2.80747 14.2761 3.05752C14.5261 3.30756 14.6666 3.6467 14.6666 4.00033V12.0003C14.6666 12.3539 14.5261 12.6931 14.2761 12.9431C14.026 13.1932 13.6869 13.3337 13.3333 13.3337H9.33325" stroke="currentColor" stroke-width="1.33" stroke-linecap="round" stroke-linejoin="round"/>
</svg>
