<svg width="20" height="20" viewBox="0 0 20 20" fill="none" xmlns="http://www.w3.org/2000/svg">
<path d="M18.1818 9.99993C18.1818 14.5186 14.5186 18.1818 9.99993 18.1818C5.48124 18.1818 1.81812 14.5186 1.81812 9.99993C1.81812 5.48124 5.48124 1.81812 9.99993 1.81812C14.5186 1.81812 18.1818 5.48124 18.1818 9.99993ZM5.09084 9.99993C5.09084 12.7111 7.28872 14.909 9.99993 14.909C12.7111 14.909 14.909 12.7111 14.909 9.99993C14.909 7.28872 12.7111 5.09084 9.99993 5.09084C7.28872 5.09084 5.09084 7.28872 5.09084 9.99993Z" fill="#D6E0FF"/>
<path d="M9.99993 1.81812C11.5008 1.81812 12.9728 2.23096 14.2548 3.01148C15.5368 3.792 16.5793 4.91011 17.2684 6.24346C17.9575 7.5768 18.2666 9.07401 18.1618 10.5712C18.057 12.0685 17.5424 13.508 16.6742 14.7324L14.0045 12.8394C14.5254 12.1048 14.8342 11.2411 14.897 10.3427C14.9599 9.44438 14.7745 8.54606 14.361 7.74605C13.9476 6.94604 13.322 6.27517 12.5528 5.80686C11.7837 5.33855 10.9005 5.09084 9.99993 5.09084V1.81812Z" fill="#ADC2FF"/>
<path d="M18.1818 9.99993C18.1818 11.8585 17.549 13.6616 16.3876 15.1126L13.8325 13.0676C14.5294 12.197 14.909 11.1151 14.909 9.99993H18.1818Z" fill="#5C85FF"/>
</svg>
