<svg width="16" height="16" viewBox="0 0 16 16" fill="none" xmlns="http://www.w3.org/2000/svg">
<path d="M3.77778 3H2.22222C2.09949 3 2 3.09949 2 3.22222V4.77778C2 4.90051 2.09949 5 2.22222 5H3.77778C3.90051 5 4 4.90051 4 4.77778V3.22222C4 3.09949 3.90051 3 3.77778 3Z" fill="currentColor" stroke="currentColor" stroke-width="1.33" stroke-linecap="round" stroke-linejoin="round"/>
<path d="M7 4L14 4" stroke="currentColor" stroke-width="1.33" stroke-linecap="round" stroke-linejoin="round"/>
<path d="M3.77778 7H2.22222C2.09949 7 2 7.09949 2 7.22222V8.77778C2 8.90051 2.09949 9 2.22222 9H3.77778C3.90051 9 4 8.90051 4 8.77778V7.22222C4 7.09949 3.90051 7 3.77778 7Z" fill="currentColor" stroke="currentColor" stroke-width="1.33" stroke-linecap="round" stroke-linejoin="round"/>
<path d="M7 8L14 8" stroke="currentColor" stroke-width="1.33" stroke-linecap="round" stroke-linejoin="round"/>
<path d="M3.77778 11H2.22222C2.09949 11 2 11.0995 2 11.2222V12.7778C2 12.9005 2.09949 13 2.22222 13H3.77778C3.90051 13 4 12.9005 4 12.7778V11.2222C4 11.0995 3.90051 11 3.77778 11Z" stroke="currentColor" stroke-width="1.33" stroke-linecap="round" stroke-linejoin="round"/>
<path d="M7 12L14 12" stroke="currentColor" stroke-width="1.33" stroke-linecap="round" stroke-linejoin="round"/>
</svg>
