<svg width="16" height="16" viewBox="0 0 16 16" fill="none" xmlns="http://www.w3.org/2000/svg">
<path opacity="0.2" d="M8 15.125C11.866 15.125 15 11.991 15 8.125C15 4.25901 11.866 1.125 8 1.125C4.13401 1.125 1 4.25901 1 8.125C1 11.991 4.13401 15.125 8 15.125Z" fill="black"/>
<path d="M2.17499 4.00098C2.05449 4.18398 1.94324 4.37998 1.83024 4.57423C1.28624 5.58944 1.00115 6.7232 1.00024 7.87498C1.00024 9.7315 1.73774 11.512 3.0505 12.8247C4.36325 14.1375 6.14373 14.875 8.00024 14.875C8.03609 14.8739 8.07192 14.8726 8.10774 14.871L11.4222 9.35923C11.1567 9.79173 10.0505 10.3455 9.57849 10.618C8.06799 11.49 6.14974 10.9265 5.27774 9.41573L2.17524 4.00073L2.17499 4.00098Z" fill="#109F5B"/>
<path d="M4.78616 9.30775L1.94141 4.38C2.96591 2.6065 4.60341 1.5535 6.12791 1.13C6.82741 0.937 7.37541 0.88975 7.99991 0.875C8.83116 0.875 11.7174 1.0805 13.6719 3.78725C13.8082 3.97675 13.9349 4.173 14.0517 4.375H7.99991C7.33266 4.44975 6.95266 4.8015 6.73541 5.30275L9.11141 9.419L6.22166 10.6543" fill="#DD4D3E"/>
<path d="M10.8438 9.94525L8 14.871C8.01875 14.8715 8.03725 14.873 8.05575 14.873C8.1525 14.8715 8.24925 14.8678 8.34575 14.8623C8.40175 14.8598 8.45775 14.8593 8.51375 14.8555C8.73425 14.8393 8.954 14.8125 9.172 14.7753C9.18625 14.773 9.2005 14.77 9.215 14.7675C12.5603 14.178 14.9995 11.2717 15 7.875C14.9967 6.64525 14.6698 5.43825 14.0518 4.375H8.008C8.00025 4.375 9.119 4.874 9.591 5.1465C10.797 5.843 10.923 8.33025 10.9257 9.337L11.128 9.45425" fill="#FFCE41"/>
<path opacity="0.2" d="M8 0.875C6.14348 0.875 4.36301 1.6125 3.05025 2.92525C1.7375 4.23801 1 6.01848 1 7.875C1.00256 7.91669 1.00549 7.95836 1.0088 8C1.04154 6.16676 1.79226 4.41954 3.09959 3.13394C4.40691 1.84835 6.16646 1.12701 8 1.125C9.82379 1.12552 11.5754 1.83782 12.8819 3.11027C14.1884 4.38273 14.9468 6.11486 14.9955 7.938C14.9971 7.91701 14.9986 7.89601 15 7.875C15 6.01848 14.2625 4.23801 12.9497 2.92525C11.637 1.6125 9.85652 0.875 8 0.875Z" fill="white"/>
<path opacity="0.2" d="M8 11.625C9.933 11.625 11.5 10.058 11.5 8.125C11.5 6.192 9.933 4.625 8 4.625C6.067 4.625 4.5 6.192 4.5 8.125C4.5 10.058 6.067 11.625 8 11.625Z" fill="black"/>
<path d="M8 11.375C9.933 11.375 11.5 9.808 11.5 7.875C11.5 5.942 9.933 4.375 8 4.375C6.067 4.375 4.5 5.942 4.5 7.875C4.5 9.808 6.067 11.375 8 11.375Z" fill="white"/>
<path d="M8 10.625C9.51878 10.625 10.75 9.39378 10.75 7.875C10.75 6.35622 9.51878 5.125 8 5.125C6.48122 5.125 5.25 6.35622 5.25 7.875C5.25 9.39378 6.48122 10.625 8 10.625Z" fill="#4587F3"/>
</svg>
