<svg width="16" height="16" viewBox="0 0 16 16" fill="none" xmlns="http://www.w3.org/2000/svg">
<g clip-path="url(#clip0_1504_35104)">
<path d="M7.99992 14.6663C11.6818 14.6663 14.6666 11.6816 14.6666 7.99967C14.6666 4.31778 11.6818 1.33301 7.99992 1.33301C4.31802 1.33301 1.33325 4.31778 1.33325 7.99967C1.33325 11.6816 4.31802 14.6663 7.99992 14.6663Z" stroke="currentColor" stroke-width="1.33" stroke-linecap="round" stroke-linejoin="round"/>
<path d="M14.1133 5.33301H8" stroke="currentColor" stroke-width="1.33" stroke-linecap="round" stroke-linejoin="round"/>
<path d="M7.99992 10.6663C9.47268 10.6663 10.6666 9.47243 10.6666 7.99967C10.6666 6.52692 9.47268 5.33301 7.99992 5.33301C6.52716 5.33301 5.33325 6.52692 5.33325 7.99967C5.33325 9.47243 6.52716 10.6663 7.99992 10.6663Z" stroke="currentColor" stroke-width="1.33" stroke-linecap="round" stroke-linejoin="round"/>
<path d="M7.25342 14.6263L10.3068 9.33301" stroke="currentColor" stroke-width="1.33" stroke-linecap="round" stroke-linejoin="round"/>
<path d="M2.6333 4.04004L5.6933 9.33337" stroke="currentColor" stroke-width="1.33" stroke-linecap="round" stroke-linejoin="round"/>
</g>
<defs>
<clipPath id="clip0_1504_35104">
<rect width="16" height="16" fill="white"/>
</clipPath>
</defs>
</svg>
