<svg xmlns="http://www.w3.org/2000/svg" width="24" height="24" viewBox="0 0 24 24" fill="none">
  <path d="M22.125 12C22.125 6.40812 17.5919 1.875 12 1.875C6.40812 1.875 1.875 6.40812 1.875 12C1.875 17.5919 6.40812 22.125 12 22.125C17.5919 22.125 22.125 17.5919 22.125 12Z" fill="#F2F2F2"/>
  <path d="M11.9996 5.9248L6.58051 10.4514L8.23571 12.3551L11.9996 9.21131L15.7639 12.3551L17.4187 10.4514L11.9996 5.9248Z" fill="#FF6D6F"/>
  <path d="M15.7385 13.6484C15.3384 14.3078 14.7689 14.8478 14.0891 15.2121C13.4094 15.5765 12.6444 15.7518 11.8738 15.7199C11.1643 15.6899 10.4731 15.4852 9.86175 15.1238C9.25038 14.7624 8.73776 14.2556 8.36941 13.6484L6.48688 15.0657C7.06681 15.9503 7.84901 16.6841 8.76878 17.2065C9.68854 17.7288 10.7195 18.0247 11.7762 18.0696C12.8939 18.1158 14.0052 17.8799 15.0076 17.3837C16.0101 16.8874 16.8715 16.1467 17.5124 15.23L15.7385 13.6484Z" fill="#6A7EFB"/>
</svg>