<svg width="16" height="16" viewBox="0 0 16 16" fill="none" xmlns="http://www.w3.org/2000/svg">
<path d="M10.6667 2.66699H12.0001C12.3537 2.66699 12.6928 2.80747 12.9429 3.05752C13.1929 3.30756 13.3334 3.6467 13.3334 4.00033V13.3337C13.3334 13.6873 13.1929 14.0264 12.9429 14.2765C12.6928 14.5265 12.3537 14.667 12.0001 14.667H4.00008C3.64646 14.667 3.30732 14.5265 3.05727 14.2765C2.80722 14.0264 2.66675 13.6873 2.66675 13.3337V4.00033C2.66675 3.6467 2.80722 3.30756 3.05727 3.05752C3.30732 2.80747 3.64646 2.66699 4.00008 2.66699H5.33341" stroke="currentColor" stroke-width="1.33" stroke-linecap="round" stroke-linejoin="round"/>
<path d="M9.99992 1.33301H5.99992C5.63173 1.33301 5.33325 1.63148 5.33325 1.99967V3.33301C5.33325 3.7012 5.63173 3.99967 5.99992 3.99967H9.99992C10.3681 3.99967 10.6666 3.7012 10.6666 3.33301V1.99967C10.6666 1.63148 10.3681 1.33301 9.99992 1.33301Z" stroke="currentColor" stroke-width="1.33" stroke-linecap="round" stroke-linejoin="round"/>
</svg>
