<svg width="16" height="16" viewBox="0 0 16 16" fill="none" xmlns="http://www.w3.org/2000/svg">
<g clip-path="url(#clip0_1504_35118)">
<path d="M11.9999 6.66699H11.1599C10.9105 5.70099 10.3951 4.82432 9.67234 4.13659C8.94957 3.44886 8.04839 2.97765 7.07119 2.77651C6.094 2.57537 5.07997 2.65235 4.14435 2.99872C3.20872 3.34509 2.389 3.94695 1.77835 4.73591C1.16769 5.52488 0.790571 6.46931 0.689849 7.46189C0.589127 8.45448 0.768838 9.45542 1.20856 10.351C1.64828 11.2465 2.33039 12.0008 3.17737 12.528C4.02434 13.0553 5.00223 13.3344 5.99991 13.3337H11.9999C12.884 13.3337 13.7318 12.9825 14.3569 12.3573C14.9821 11.7322 15.3332 10.8844 15.3332 10.0003C15.3332 9.11627 14.9821 8.26842 14.3569 7.6433C13.7318 7.01818 12.884 6.66699 11.9999 6.66699Z" stroke="currentColor" stroke-width="1.33" stroke-linecap="round" stroke-linejoin="round"/>
</g>
<defs>
<clipPath id="clip0_1504_35118">
<rect width="16" height="16" fill="white"/>
</clipPath>
</defs>
</svg>
