<svg width="16" height="16" viewBox="0 0 16 16" fill="none" xmlns="http://www.w3.org/2000/svg">
<g clip-path="url(#clip0_1504_35131)">
<path d="M8 14.667H8.00667" stroke="currentColor" stroke-width="1.33" stroke-linecap="round" stroke-linejoin="round"/>
<path d="M10.6667 13.333H10.6734" stroke="currentColor" stroke-width="1.33" stroke-linecap="round" stroke-linejoin="round"/>
<path d="M5.33325 13.333H5.33992" stroke="currentColor" stroke-width="1.33" stroke-linecap="round" stroke-linejoin="round"/>
<path d="M8 12H8.00667" stroke="currentColor" stroke-width="1.33" stroke-linecap="round" stroke-linejoin="round"/>
<path d="M13.3334 11.7205C14.0343 11.4135 14.6082 10.8748 14.9588 10.1948C15.3095 9.51481 15.4155 8.73487 15.2592 7.98592C15.1028 7.23697 14.6936 6.5646 14.1001 6.08168C13.5067 5.59877 12.7652 5.33469 12.0001 5.33379H11.1601C10.9488 4.51547 10.546 3.75909 9.98498 3.12699C9.42395 2.49489 8.72073 2.00518 7.93328 1.69821C7.14583 1.39124 6.29671 1.2758 5.45589 1.36142C4.61508 1.44704 3.80664 1.73126 3.09723 2.19065C2.38782 2.65004 1.79775 3.27145 1.37564 4.00366C0.953534 4.73587 0.711485 5.55791 0.669445 6.40203C0.627404 7.24615 0.786576 8.08817 1.13384 8.8587C1.4811 9.62922 2.00652 10.3062 2.66677 10.8338" stroke="currentColor" stroke-width="1.33" stroke-linecap="round" stroke-linejoin="round"/>
<path d="M10.6667 10.667H10.6734" stroke="currentColor" stroke-width="1.33" stroke-linecap="round" stroke-linejoin="round"/>
<path d="M5.33325 10.667H5.33992" stroke="currentColor" stroke-width="1.33" stroke-linecap="round" stroke-linejoin="round"/>
</g>
<defs>
<clipPath id="clip0_1504_35131">
<rect width="16" height="16" fill="white"/>
</clipPath>
</defs>
</svg>
