<svg width="16" height="16" viewBox="0 0 16 16" fill="none" xmlns="http://www.w3.org/2000/svg">
<g clip-path="url(#clip0_1504_35915)">
<path d="M15.0734 11.3003C15.2882 10.7932 15.374 10.2407 15.3231 9.69236C15.2722 9.14397 15.0863 8.61674 14.7818 8.15778C14.4774 7.69883 14.064 7.32246 13.5786 7.06231C13.0931 6.80216 12.5508 6.66634 12.0001 6.66699H11.1601C10.8879 5.59532 10.2895 4.63471 9.44743 3.9181C8.60541 3.20148 7.56147 2.76428 6.46008 2.66699M3.33341 3.33366C2.29213 3.90942 1.47328 4.81685 1.00713 5.9116C0.540987 7.00634 0.454311 8.22553 0.760893 9.37522C1.06748 10.5249 1.74971 11.539 2.69906 12.2563C3.64842 12.9736 4.81037 13.3528 6.00008 13.3337H12.0001C12.3866 13.3332 12.7701 13.2655 13.1334 13.1337" stroke="currentColor" stroke-width="1.33" stroke-linecap="round" stroke-linejoin="round"/>
<path d="M0.666748 0.666992L15.3334 15.3337" stroke="currentColor" stroke-width="1.33" stroke-linecap="round" stroke-linejoin="round"/>
</g>
<defs>
<clipPath id="clip0_1504_35915">
<rect width="16" height="16" fill="white"/>
</clipPath>
</defs>
</svg>
