<svg xmlns="http://www.w3.org/2000/svg" width="24" height="24" viewBox="0 0 24 24" fill="none">
  <path d="M21.029 0H2.96918C1.88455 0.00199855 1.00495 0.892824 1 1.99429V21.9421C1.00495 23.0442 1.88519 23.9353 2.97038 23.937H21.0302C22.1153 23.9353 22.9954 23.0441 23 21.9421V21.0117C22.967 19.8144 22.934 17.321 22.934 16.1908C22.934 15.5589 22.4744 15.027 21.8834 15.027C21.2264 15.027 20.7998 15.4261 20.4716 15.7582C19.4864 16.6563 18.0086 16.8226 16.7277 16.5899C16.1373 16.4564 15.5787 16.2907 15.1197 15.9915C13.7073 15.1598 12.7881 13.5975 12.7881 11.9353C12.7881 10.2731 13.7073 8.7437 15.1191 7.87908C15.6117 7.5799 16.1703 7.41356 16.7283 7.28073C17.9762 7.04797 19.4864 7.2137 20.4716 8.11183C20.8328 8.44452 21.2594 8.84301 21.8834 8.84301C22.4744 8.84301 22.934 8.31108 22.934 7.67922C22.934 6.58245 22.967 4.05561 23 2.85891V1.99429C23 0.897524 22.1132 0 21.0296 0H21.029Z" fill="#F46A54"/>
</svg>