<svg width="16" height="16" viewBox="0 0 16 16" fill="none" xmlns="http://www.w3.org/2000/svg">
<path d="M13 13C13.8284 13 14.5 12.3284 14.5 11.5C14.5 10.6716 13.8284 10 13 10C12.1716 10 11.5 10.6716 11.5 11.5C11.5 12.3284 12.1716 13 13 13Z" stroke="currentColor" stroke-width="1.33333" stroke-linecap="round" stroke-linejoin="round"/>
<path d="M8 2V4" stroke="currentColor" stroke-width="1.33333" stroke-linecap="round" stroke-linejoin="round"/>
<path d="M8.06383 7L11 5.5L8.06383 4L5 5.5L8.06383 7Z" stroke="currentColor" stroke-width="1.33333" stroke-linecap="round" stroke-linejoin="round"/>
<path d="M11 5.5H12.2C12.5 5.5 12.6157 5.61706 12.7657 5.82544C12.9157 6.03381 13 6.31643 13 6.61111V10" stroke="currentColor" stroke-width="1.33333" stroke-linecap="round" stroke-linejoin="round"/>
<path d="M5 5.5H3.8C3.5 5.5 3.38434 5.61706 3.23431 5.82544C3.08429 6.03381 3 6.31643 3 6.61111V10" stroke="currentColor" stroke-width="1.33333" stroke-linecap="round" stroke-linejoin="round"/>
<path d="M3 13C3.82843 13 4.5 12.3284 4.5 11.5C4.5 10.6716 3.82843 10 3 10C2.17157 10 1.5 10.6716 1.5 11.5C1.5 12.3284 2.17157 13 3 13Z" stroke="currentColor" stroke-width="1.33333" stroke-linecap="round" stroke-linejoin="round"/>
</svg>
