<svg xmlns="http://www.w3.org/2000/svg" width="24" height="24" viewBox="0 0 24 24" fill="none">
  <path d="M12.4824 0.18005C7.16139 1.31905 1.47839 9.06905 1.42639 15.3721C1.37539 20.899 4.52639 24.052 10.1064 23.9991C16.8224 23.9491 24.3654 17.1291 22.1964 13.0991C21.5244 11.8071 20.8004 11.7551 19.5094 12.8921C17.9074 14.2871 17.8554 13.2021 19.3024 9.99905C21.0594 6.01905 21.0074 4.67705 18.9924 2.45505C17.0304 0.38805 14.9624 -0.38895 12.4824 0.18005ZM17.8044 2.24805C20.0774 4.26305 20.1804 6.48405 18.2694 10.6681C16.8744 13.7681 16.0994 14.1831 14.4454 12.5281C13.2054 11.2881 13.1024 9.06805 14.1874 6.48405C15.3244 3.84905 15.1694 3.38405 13.6194 4.83105C9.89939 8.18905 7.16139 14.596 8.19539 17.334C8.65939 18.523 9.02039 18.729 10.9324 18.729C13.7224 18.729 17.2354 17.0241 18.8894 14.8031C20.6454 12.5291 21.6794 12.5291 21.6794 14.7511C21.6794 18.6261 15.2204 23.378 10.0544 23.378C3.80339 23.378 0.703391 18.6261 2.56339 11.9081C3.44139 8.91305 7.00639 4.00405 9.64039 2.24805C12.8954 0.0780501 15.3244 0.0780501 17.8044 2.24805Z" fill="black"/>
</svg>