<svg width="16" height="16" viewBox="0 0 16 16" fill="none" xmlns="http://www.w3.org/2000/svg">
<path d="M12.8748 3.93082C12.8647 3.91567 12.8506 3.90354 12.8341 3.89586C11.9561 3.48765 11.0194 3.18807 10.0411 3.01237C9.99919 3.00483 9.95714 3.02495 9.93699 3.06248C9.83324 3.25574 9.71958 3.49199 9.63149 3.69632C9.61333 3.73845 9.56921 3.76333 9.52379 3.75682C8.49937 3.61007 7.48392 3.60999 6.47744 3.75659C6.43194 3.76322 6.38767 3.73833 6.36939 3.69614C6.28079 3.49171 6.16476 3.25535 6.05979 3.06207C6.03952 3.02476 5.99761 3.0048 5.95582 3.0123C4.9764 3.18803 4.03866 3.48869 3.16055 3.89798C3.1439 3.90574 3.12964 3.91813 3.11953 3.93347C1.31451 6.67207 0.817923 9.3433 1.05539 11.9768C1.05793 12.0049 1.0725 12.0308 1.09522 12.0476C2.27103 12.9195 3.41175 13.4581 4.53346 13.8147C4.57432 13.8277 4.61884 13.8129 4.64376 13.7781C4.89086 13.4322 5.11413 13.0674 5.31064 12.6853C5.33768 12.6327 5.31254 12.5686 5.25758 12.5467C4.92419 12.4143 4.60245 12.2581 4.29464 12.0811C4.2329 12.0456 4.22863 11.9586 4.28476 11.9148C4.32688 11.8819 4.36851 11.8484 4.40957 11.8146C4.43965 11.7897 4.48143 11.7843 4.51686 11.8005C6.7848 12.842 9.24192 12.842 11.4833 11.8008C11.5186 11.7844 11.5604 11.7896 11.5905 11.8143C11.6321 11.8483 11.674 11.8819 11.7163 11.915C11.7721 11.9587 11.7677 12.0453 11.7062 12.0807C11.3972 12.2587 11.0742 12.4152 10.7403 12.5478C10.6853 12.5697 10.6601 12.6338 10.6872 12.6865C10.8836 13.0679 11.1061 13.4334 11.354 13.7794C11.3789 13.8142 11.4233 13.8289 11.4641 13.8159C12.587 13.4593 13.7289 12.9206 14.9048 12.0476C14.9275 12.0308 14.942 12.0048 14.9446 11.9767C15.2227 8.9272 14.4414 6.28 12.8748 3.93082ZM5.67435 10.388C4.98284 10.388 4.41574 9.74243 4.41574 8.95628C4.41574 8.17014 4.97073 7.52345 5.67435 7.52345C6.378 7.52345 6.94508 8.169 6.93297 8.95628C6.93406 9.74243 6.378 10.388 5.67435 10.388ZM10.3256 10.388C9.63408 10.388 9.06699 9.74243 9.06699 8.95628C9.06699 8.17014 9.62195 7.52345 10.3256 7.52345C11.0292 7.52345 11.5963 8.169 11.5842 8.95628C11.5842 9.74243 11.0292 10.388 10.3256 10.388Z" fill="currentColor"/>
</svg>
