<svg width="16" height="16" viewBox="0 0 16 16" fill="none" xmlns="http://www.w3.org/2000/svg">
<rect width="16" height="16" rx="2" fill="#5865F2"/>
<path d="M12.1806 4.15617C12.1705 4.14101 12.1564 4.12889 12.1399 4.12121C11.3913 3.77357 10.5931 3.51802 9.75954 3.36741C9.71761 3.35984 9.67557 3.37994 9.65548 3.41751C9.56959 3.57824 9.47633 3.77204 9.40284 3.94164C9.3846 3.98373 9.3405 4.0086 9.29508 4.00214C8.4245 3.87846 7.56147 3.87838 6.70601 4.00192C6.6605 4.00849 6.61626 3.98361 6.59788 3.94147C6.5239 3.77176 6.42872 3.57785 6.34178 3.4171C6.32158 3.37976 6.27967 3.35981 6.23788 3.36735C5.40334 3.51798 4.60418 3.77445 3.85553 4.12301C3.83888 4.13077 3.82462 4.14316 3.81452 4.15849C2.27061 6.5025 1.84483 8.78893 2.04691 11.043C2.04944 11.0712 2.06399 11.0971 2.08673 11.1139C3.08935 11.8564 4.06221 12.3165 5.01891 12.6217C5.05976 12.6347 5.1043 12.6199 5.12918 12.585C5.33559 12.2953 5.52251 11.9901 5.6876 11.6707C5.71476 11.6182 5.6896 11.5541 5.6347 11.5321C5.36084 11.4225 5.0962 11.2942 4.84251 11.1494C4.78065 11.1141 4.77636 11.0271 4.83231 10.9831C4.86029 10.961 4.88801 10.9387 4.91544 10.9162C4.94556 10.8914 4.98732 10.8859 5.02277 10.9022C6.96161 11.7897 9.06119 11.7898 10.9774 10.9024C11.0127 10.886 11.0545 10.8912 11.0846 10.9159C11.1125 10.9386 11.1405 10.9611 11.1687 10.9833C11.2244 11.0273 11.22 11.1138 11.1584 11.149C10.9036 11.2946 10.6379 11.4232 10.3635 11.533C10.3085 11.555 10.2834 11.6192 10.3106 11.6717C10.4756 11.9905 10.6619 12.2963 10.8689 12.5862C10.8938 12.621 10.9382 12.6357 10.979 12.6227C11.9367 12.3175 12.9106 11.8574 13.9133 11.1139C13.936 11.0971 13.9506 11.0711 13.9531 11.043C14.1897 8.43324 13.5209 6.1673 12.1806 4.15617ZM6.00659 9.68758C5.41386 9.68758 4.92778 9.13424 4.92778 8.4604C4.92778 7.78656 5.40348 7.23226 6.00659 7.23226C6.60971 7.23226 7.09578 7.78559 7.0854 8.4604C7.08634 9.13424 6.60971 9.68758 6.00659 9.68758ZM9.99337 9.68758C9.40064 9.68758 8.91456 9.13424 8.91456 8.4604C8.91456 7.78656 9.39025 7.23226 9.99337 7.23226C10.5965 7.23226 11.0826 7.78559 11.0722 8.4604C11.0722 9.13424 10.5965 9.68758 9.99337 9.68758Z" fill="white"/>
</svg>
