<svg xmlns="http://www.w3.org/2000/svg" width="24" height="24" viewBox="0 0 24 24" fill="none">
  <path d="M23.5749 10.3512C23.0345 9.98361 21.796 9.84578 20.8277 10.0296C20.7151 9.11067 20.1972 8.30665 19.2965 7.59452L18.7786 7.22697L18.4183 7.75532C17.9679 8.44449 17.7427 9.40931 17.8103 10.3282C17.8328 10.6498 17.9454 11.2241 18.2832 11.7295C17.9679 11.9133 17.3149 12.143 16.4592 12.143H0.178572L0.133536 12.3268C-0.024091 13.2456 -0.0240911 16.1172 1.8224 18.3225C3.21852 19.9994 5.29019 20.8494 8.01488 20.8494C13.9146 20.8494 18.2832 18.0698 20.3323 13.0389C21.143 13.0619 22.8769 13.0389 23.7551 11.316C23.7776 11.27 23.8226 11.1782 23.9802 10.8336L24.0703 10.6498L23.5749 10.3512ZM13.1941 3.87305H10.7171V6.17025H13.1941V3.87305ZM13.1941 6.62969H10.7171V8.9269H13.1941V6.62969ZM10.2667 6.62969H7.7897V8.9269H10.2667V6.62969ZM7.33934 6.62969H4.86234V8.9269H7.33934V6.62969ZM4.41198 9.38634H1.93499V11.6835H4.41198V9.38634ZM7.33934 9.38634H4.86234V11.6835H7.33934V9.38634ZM10.2667 9.38634H7.7897V11.6835H10.2667V9.38634ZM13.1941 9.38634H10.7171V11.6835H13.1941V9.38634ZM16.1214 9.38634H13.6444V11.6835H16.1214V9.38634Z" fill="#2396ED"/>
</svg>