<svg width="16" height="16" viewBox="0 0 16 16" fill="none" xmlns="http://www.w3.org/2000/svg">
<g clip-path="url(#clip0_1504_35967)">
<path d="M6.60008 2.82701C7.05897 2.7196 7.52879 2.6659 8.00008 2.66701C12.6667 2.66701 15.3334 8.00034 15.3334 8.00034C14.9287 8.75741 14.4461 9.47017 13.8934 10.127M9.41341 9.41368C9.23032 9.61017 9.00951 9.76778 8.76418 9.87709C8.51885 9.9864 8.25402 10.0452 7.98548 10.0499C7.71693 10.0547 7.45019 10.0053 7.20115 9.90467C6.95212 9.80408 6.7259 9.65436 6.53598 9.46444C6.34606 9.27453 6.19634 9.0483 6.09575 8.79927C5.99516 8.55023 5.94577 8.28349 5.9505 8.01495C5.95524 7.74641 6.01402 7.48157 6.12333 7.23624C6.23264 6.99091 6.39025 6.77011 6.58675 6.58701M11.9601 11.9603C10.8205 12.829 9.43282 13.3103 8.00008 13.3337C3.33341 13.3337 0.666748 8.00034 0.666748 8.00034C1.49601 6.45494 2.64617 5.10475 4.04008 4.04034L11.9601 11.9603Z" stroke="currentColor" stroke-width="1.33" stroke-linecap="round" stroke-linejoin="round"/>
<path d="M0.666748 0.666992L15.3334 15.3337" stroke="currentColor" stroke-width="1.33" stroke-linecap="round" stroke-linejoin="round"/>
</g>
<defs>
<clipPath id="clip0_1504_35967">
<rect width="16" height="16" fill="white"/>
</clipPath>
</defs>
</svg>
