<svg width="16" height="16" viewBox="0 0 16 16" fill="none" xmlns="http://www.w3.org/2000/svg">
<path d="M3.33334 3.66668C3.33334 3.04784 3.57918 2.45435 4.01676 2.01676C4.45435 1.57918 5.04784 1.33334 5.66668 1.33334H8.00001V6.00001H5.66668C5.04784 6.00001 4.45435 5.75418 4.01676 5.31659C3.57918 4.87901 3.33334 4.28552 3.33334 3.66668Z" stroke="currentColor" stroke-width="1.33333" stroke-linecap="round" stroke-linejoin="round"/>
<path d="M8 1.33334H10.3333C10.6398 1.33334 10.9432 1.3937 11.2263 1.51096C11.5094 1.62822 11.7666 1.80009 11.9832 2.01676C12.1999 2.23343 12.3718 2.49066 12.4891 2.77375C12.6063 3.05684 12.6667 3.36026 12.6667 3.66668C12.6667 3.97309 12.6063 4.27651 12.4891 4.5596C12.3718 4.8427 12.1999 5.09992 11.9832 5.31659C11.7666 5.53326 11.5094 5.70513 11.2263 5.8224C10.9432 5.93966 10.6398 6.00001 10.3333 6.00001H8V1.33334Z" stroke="currentColor" stroke-width="1.33333" stroke-linecap="round" stroke-linejoin="round"/>
<path d="M8 8.33333C8 8.02692 8.06035 7.7235 8.17761 7.44041C8.29488 7.15731 8.46675 6.90009 8.68342 6.68342C8.90009 6.46675 9.15731 6.29488 9.44041 6.17761C9.7235 6.06035 10.0269 6 10.3333 6C10.6398 6 10.9432 6.06035 11.2263 6.17761C11.5094 6.29488 11.7666 6.46675 11.9832 6.68342C12.1999 6.90009 12.3718 7.15731 12.4891 7.44041C12.6063 7.7235 12.6667 8.02692 12.6667 8.33333C12.6667 8.63975 12.6063 8.94317 12.4891 9.22626C12.3718 9.50935 12.1999 9.76658 11.9832 9.98325C11.7666 10.1999 11.5094 10.3718 11.2263 10.4891C10.9432 10.6063 10.6398 10.6667 10.3333 10.6667C10.0269 10.6667 9.7235 10.6063 9.44041 10.4891C9.15731 10.3718 8.90009 10.1999 8.68342 9.98325C8.46675 9.76658 8.29488 9.50935 8.17761 9.22626C8.06035 8.94317 8 8.63975 8 8.33333V8.33333Z" stroke="currentColor" stroke-width="1.33333" stroke-linecap="round" stroke-linejoin="round"/>
<path d="M3.33334 13C3.33334 12.3812 3.57918 11.7877 4.01676 11.3501C4.45435 10.9125 5.04784 10.6667 5.66668 10.6667H8.00001V13C8.00001 13.6188 7.75418 14.2123 7.31659 14.6499C6.87901 15.0875 6.28552 15.3333 5.66668 15.3333C5.04784 15.3333 4.45435 15.0875 4.01676 14.6499C3.57918 14.2123 3.33334 13.6188 3.33334 13Z" stroke="currentColor" stroke-width="1.33333" stroke-linecap="round" stroke-linejoin="round"/>
<path d="M3.33334 8.33333C3.33334 7.71449 3.57918 7.121 4.01676 6.68342C4.45435 6.24583 5.04784 6 5.66668 6H8.00001V10.6667H5.66668C5.04784 10.6667 4.45435 10.4208 4.01676 9.98325C3.57918 9.54566 3.33334 8.95217 3.33334 8.33333Z" stroke="currentColor" stroke-width="1.33333" stroke-linecap="round" stroke-linejoin="round"/>
</svg>
