<svg width="16" height="16" viewBox="0 0 16 16" fill="none" xmlns="http://www.w3.org/2000/svg">
<g clip-path="url(#clip0_5687_209648)">
<path d="M5.33168 16C6.03892 16 6.7172 15.7191 7.21729 15.219C7.71739 14.7189 7.99834 14.0406 7.99834 13.3334V10.6667H5.33168C4.62443 10.6667 3.94615 10.9476 3.44606 11.4477C2.94596 11.9478 2.66501 12.6261 2.66501 13.3334C2.66501 14.0406 2.94596 14.7189 3.44606 15.219C3.94615 15.7191 4.62443 16 5.33168 16Z" fill="#0ACF83"/>
<path d="M2.66501 7.99998C2.66501 7.29274 2.94596 6.61446 3.44606 6.11436C3.94615 5.61426 4.62443 5.33331 5.33168 5.33331H7.99834V10.6666H5.33168C4.62443 10.6666 3.94615 10.3857 3.44606 9.8856C2.94596 9.3855 2.66501 8.70722 2.66501 7.99998Z" fill="#A259FF"/>
<path d="M2.66501 2.66667C2.66501 1.95978 2.94567 1.28182 3.44532 0.781785C3.94497 0.281748 4.62271 0.000552252 5.32959 0L7.99626 0V5.33333H5.33168C4.62443 5.33333 3.94615 5.05238 3.44606 4.55228C2.94596 4.05219 2.66501 3.37391 2.66501 2.66667Z" fill="#F24E1E"/>
<path d="M7.9985 0H10.6652C11.3724 0 12.0507 0.280952 12.5508 0.781049C13.0509 1.28115 13.3318 1.95942 13.3318 2.66667C13.3318 3.37391 13.0509 4.05219 12.5508 4.55228C12.0507 5.05238 11.3724 5.33333 10.6652 5.33333H7.9985V0Z" fill="#FF7262"/>
<path d="M13.3318 7.99998C13.3318 8.70722 13.0509 9.3855 12.5508 9.8856C12.0507 10.3857 11.3724 10.6666 10.6652 10.6666C9.95793 10.6666 9.27965 10.3857 8.77955 9.8856C8.27946 9.3855 7.9985 8.70722 7.9985 7.99998C7.9985 7.29274 8.27946 6.61446 8.77955 6.11436C9.27965 5.61426 9.95793 5.33331 10.6652 5.33331C11.3724 5.33331 12.0507 5.61426 12.5508 6.11436C13.0509 6.61446 13.3318 7.29274 13.3318 7.99998Z" fill="#1ABCFE"/>
</g>
<defs>
<clipPath id="clip0_5687_209648">
<rect width="16" height="16" rx="2" fill="white"/>
</clipPath>
</defs>
</svg>
