<svg width="56" height="56" viewBox="0 0 56 56" fill="none" xmlns="http://www.w3.org/2000/svg">
<path d="M31.7332 9.33398H17.7332C16.743 9.33398 15.0452 9.54249 14.1601 10.4275C13.2751 11.3125 13.0667 13.0105 13.0667 14.0007V42.934C13.0667 43.9242 13.46 44.8737 14.1601 45.5738C14.8602 46.274 15.8097 46.6673 16.7999 46.6673H39.2C40.1902 46.6673 41.1397 46.274 41.8398 45.5738C42.54 44.8737 42.9333 43.9242 42.9333 42.934V20.534L31.7332 9.33398Z" fill="#4ECF7D"/>
<path d="M31.7333 9.33398V16.534C31.7333 18.7431 33.5241 20.534 35.7333 20.534H42.9333" fill="white" fill-opacity="0.25"/>
<path d="M23 24H21C20.4477 24 20 24.4477 20 25V27C20 27.5523 20.4477 28 21 28H23C23.5523 28 24 27.5523 24 27V25C24 24.4477 23.5523 24 23 24Z" fill="white"/>
<path d="M23 30H21C20.4477 30 20 30.4477 20 31V33C20 33.5523 20.4477 34 21 34H23C23.5523 34 24 33.5523 24 33V31C24 30.4477 23.5523 30 23 30Z" fill="white"/>
<path d="M23 36H21C20.4477 36 20 36.4477 20 37V39C20 39.5523 20.4477 40 21 40H23C23.5523 40 24 39.5523 24 39V37C24 36.4477 23.5523 36 23 36Z" fill="white"/>
<path d="M29 24H27C26.4477 24 26 24.4477 26 25V27C26 27.5523 26.4477 28 27 28H29C29.5523 28 30 27.5523 30 27V25C30 24.4477 29.5523 24 29 24Z" fill="white"/>
<path d="M29 30H27C26.4477 30 26 30.4477 26 31V33C26 33.5523 26.4477 34 27 34H29C29.5523 34 30 33.5523 30 33V31C30 30.4477 29.5523 30 29 30Z" fill="white"/>
<path d="M29 36H27C26.4477 36 26 36.4477 26 37V39C26 39.5523 26.4477 40 27 40H29C29.5523 40 30 39.5523 30 39V37C30 36.4477 29.5523 36 29 36Z" fill="white"/>
<path d="M35 24H33C32.4477 24 32 24.4477 32 25V27C32 27.5523 32.4477 28 33 28H35C35.5523 28 36 27.5523 36 27V25C36 24.4477 35.5523 24 35 24Z" fill="white"/>
<path d="M35 30H33C32.4477 30 32 30.4477 32 31V33C32 33.5523 32.4477 34 33 34H35C35.5523 34 36 33.5523 36 33V31C36 30.4477 35.5523 30 35 30Z" fill="white"/>
<path d="M35 36H33C32.4477 36 32 36.4477 32 37V39C32 39.5523 32.4477 40 33 40H35C35.5523 40 36 39.5523 36 39V37C36 36.4477 35.5523 36 35 36Z" fill="white"/>
</svg>
