<svg width="16" height="16" viewBox="0 0 16 16" fill="none" xmlns="http://www.w3.org/2000/svg">
<g clip-path="url(#clip0_5744_233799)">
<path d="M5.07992 1.59089H14.4121C14.569 1.59007 14.7186 1.6546 14.8255 1.76835C14.9349 1.88538 14.9959 2.0396 14.9959 2.19983V13.7701C14.9956 13.9303 14.9346 14.0842 14.8255 14.2016C14.7186 14.3156 14.5685 14.3798 14.4121 14.379H5.07992C4.75344 14.3733 4.49395 14.1037 4.49969 13.7772V13.7734V2.20038C4.49176 1.87308 4.74907 1.60073 5.0761 1.59089H5.07992Z" fill="#21A366"/>
<path d="M4.5 7.98547V13.7884C4.48387 14.1148 4.73461 14.3921 5.0611 14.4082L5.06602 14.4085H14.4132C14.7419 14.4028 15.0036 14.1315 14.997 13.8031V13.7993V7.99614L4.5 7.98547Z" fill="#185C37"/>
<path d="M4.5 4.78986H14.9967V7.98907H4.5V4.78986Z" fill="#107C41"/>
<path d="M14.413 1.59088H9.74866V11.1844H14.997V2.20038C14.9967 2.04014 14.9358 1.8862 14.8267 1.76889C14.7189 1.6546 14.5691 1.59034 14.413 1.59088Z" fill="#33C481"/>
<path d="M15.0002 4.78986H9.74829V7.9888H15.0002V4.78986Z" fill="#21A366"/>
<path d="M15.0002 7.98547H9.74829V11.1844H15.0002V7.98547Z" fill="#107C41"/>
<path d="M8.64886 7.98905H8.48206V7.98987H8.64886V7.98905ZM8.21354 4.20276H7.91577C7.94366 4.24651 7.96417 4.29545 7.97511 4.34768H8.04292V4.34741H8.04647C8.0503 4.34741 8.05386 4.34768 8.05769 4.34768C8.2964 4.35561 8.48425 4.55276 8.48179 4.78983H8.64831V4.6594C8.65542 4.41331 8.46073 4.20877 8.21354 4.20276Z" fill="#209D63"/>
<path d="M8.48204 7.98959V11.4601V11.4639C8.48286 11.5093 8.47657 11.5525 8.46481 11.594C8.46481 11.6304 8.45989 11.6662 8.45142 11.6999C8.57337 11.6178 8.65239 11.477 8.64884 11.3187V11.3184V7.98932L8.48204 7.98959Z" fill="#175935"/>
<path d="M8.64885 4.78986H8.48233C8.48233 4.79341 8.48233 4.79724 8.48206 4.80052V7.9888H8.64885V4.78986Z" fill="#0F783F"/>
<path d="M4.51086 11.7147V12.7442H7.41258C7.7325 12.7422 7.99172 12.486 7.99993 12.168C7.97969 12.1776 7.95809 12.1861 7.93622 12.1926C7.83915 12.3838 7.64118 12.5145 7.41258 12.5161H4.51086V12.3129V11.7147Z" fill="#175633"/>
<path d="M8.48199 7.98905H8.46395V7.98987H8.48199V7.98905ZM8.04695 4.34741H8.0434V4.34769H7.97559C7.98297 4.38132 7.98625 4.41659 7.98516 4.45269V4.53253H8.04012C8.21184 4.53937 8.35703 4.64327 8.42457 4.78983H8.48281C8.485 4.55249 8.29715 4.35562 8.05871 4.34769C8.05434 4.34769 8.05078 4.34741 8.04695 4.34741Z" fill="#1E935C"/>
<path d="M8.4646 7.98962V11.5659L8.46487 11.5744C8.46515 11.581 8.46515 11.5878 8.46515 11.5944C8.4769 11.5531 8.48292 11.5096 8.48237 11.4642V11.4604V7.99017L8.4646 7.98962Z" fill="#165332"/>
<path d="M8.48256 4.78986H8.42432C8.45221 4.85056 8.46697 4.91837 8.46451 4.98919V7.9888H8.48256V4.80079C8.48256 4.79724 8.48256 4.79368 8.48256 4.78986Z" fill="#0E703B"/>
<path d="M8.45167 11.7004C8.43472 11.7117 8.41749 11.722 8.39917 11.7308C8.35925 11.7868 8.30647 11.8333 8.24522 11.8659C8.23347 11.9151 8.21378 11.961 8.18726 12.0029C8.31796 11.9501 8.41722 11.8372 8.45167 11.7004Z" fill="#175633"/>
<path d="M8.46507 11.5941C8.45085 11.6435 8.4287 11.6895 8.39917 11.7305C8.41749 11.7218 8.43472 11.7114 8.45167 11.7001C8.46015 11.6662 8.46479 11.631 8.46507 11.5941Z" fill="#165332"/>
<path d="M8.39921 11.7308C8.35546 11.7524 8.30789 11.7669 8.2573 11.7729C8.25648 11.8046 8.25238 11.8358 8.245 11.8656C8.30679 11.833 8.35929 11.7866 8.39921 11.7308Z" fill="#155030"/>
<path d="M8.46459 7.98906H8.40252V7.98933H8.46459V7.98906ZM8.03995 4.53308H7.98499V4.55714C7.98499 4.5648 7.98526 4.57246 7.98499 4.58011V4.67335C7.98499 4.68101 7.98526 4.68867 7.98499 4.69632V4.76605C8.02792 4.76824 8.06893 4.77671 8.10776 4.79066H8.42385C8.35659 4.64382 8.21166 4.53937 8.03995 4.53308Z" fill="#1C8A56"/>
<path d="M8.40222 7.98959V11.4278V11.4281C8.40522 11.5623 8.34917 11.684 8.25757 11.768C8.25757 11.7696 8.25757 11.771 8.25757 11.7726C8.30788 11.7666 8.35573 11.7518 8.39948 11.7305C8.42874 11.6895 8.45116 11.6435 8.46538 11.594C8.46538 11.5875 8.46538 11.5809 8.46511 11.5741L8.46483 11.5656V7.98932L8.40222 7.98959Z" fill="#154E2E"/>
<path d="M8.42413 4.78986H8.10803C8.27866 4.85056 8.40116 5.01271 8.40225 5.20329V7.98907H8.46432V4.98947C8.46678 4.91837 8.45229 4.85056 8.42413 4.78986Z" fill="#0D6937"/>
<path d="M7.55047 3.99603H7.54664H4.5V4.4092V4.12318H7.54664H7.55047C7.64125 4.12537 7.72492 4.15463 7.79437 4.20302H7.91605C7.83894 4.08162 7.70469 3.99986 7.55047 3.99603Z" fill="#21A265"/>
<path d="M7.91599 4.20276H7.79431C7.84873 4.24077 7.89412 4.29026 7.92693 4.34768H7.9756C7.96412 4.29545 7.94388 4.24651 7.91599 4.20276Z" fill="#209C62"/>
<path d="M7.97531 4.34766H7.92664C7.95835 4.40316 7.97832 4.46578 7.98378 4.5325H7.98488V4.45266C7.98597 4.41684 7.98269 4.38156 7.97531 4.34766Z" fill="#1E925B"/>
<path d="M7.98547 4.53308H7.98438C7.9852 4.54101 7.98547 4.54921 7.98547 4.55714V4.53308Z" fill="#1C8855"/>
<path d="M7.93597 12.1923C7.89988 12.203 7.8616 12.2093 7.82195 12.2106H7.74019C7.64667 12.2744 7.53375 12.3115 7.41234 12.3124H4.51062V12.5155H7.41234C7.64121 12.5142 7.8389 12.3832 7.93597 12.1923Z" fill="#144B2D"/>
<path d="M4.51086 11.7147V12.3124H7.41258C7.53426 12.3116 7.64692 12.2744 7.74043 12.2107H4.77227H4.772C4.71868 12.209 4.67001 12.1888 4.63282 12.1563H4.51168V12.0184V11.7147H4.51086Z" fill="#114227"/>
<path d="M4.55653 12.0187H4.51086V12.1565H4.632C4.5918 12.1218 4.56473 12.0731 4.55653 12.0187Z" fill="#0F3A23"/>
<path d="M4.51086 11.7147V12.0187H4.55653C4.55461 12.0056 4.55379 11.9922 4.55434 11.9788V11.7168C4.55161 11.7168 4.54942 11.7168 4.54669 11.7168C4.53465 11.7168 4.5229 11.716 4.51086 11.7147Z" fill="#0D321E"/>
<path d="M8.40219 7.98906H8.25754V7.98933H8.40219V7.98906ZM7.98547 4.7655V4.78464C7.98766 4.78656 7.9904 4.7882 7.99286 4.79011H8.10825C8.06942 4.77617 8.02786 4.76769 7.98547 4.7655Z" fill="#1A8050"/>
<path d="M8.25781 7.98932V11.757C8.25781 11.7606 8.25781 11.7644 8.25781 11.7677C8.34941 11.6837 8.40574 11.5621 8.40246 11.4278V11.4275V7.98932H8.25781Z" fill="#13492B"/>
<path d="M8.10794 4.78986H7.99255C8.07349 4.85193 8.13091 4.92384 8.13091 5.00724V5.2063C8.21212 5.28943 8.26107 5.40372 8.25779 5.52923V7.98825H8.40244V5.20302C8.40107 5.01271 8.27884 4.85056 8.10794 4.78986Z" fill="#0D6233"/>
<path d="M4.50684 11.4254V11.7141C4.50793 11.7141 4.50957 11.7144 4.51066 11.7144V11.4284C4.50957 11.4275 4.5082 11.4264 4.50684 11.4254Z" fill="#155030"/>
<path d="M4.51442 11.6922H4.51086V11.7144C4.52262 11.716 4.53465 11.7166 4.54696 11.7166C4.54969 11.7166 4.55188 11.7166 4.55461 11.7166V11.7138H4.51469V11.692" fill="#0C2E1C"/>
<path d="M4.55433 11.6922H4.5144V11.7141H4.55433V11.6922Z" fill="#0B2919"/>
<path d="M4.51086 11.4289V11.6928H4.51442V11.4319C4.51333 11.4303 4.51223 11.4294 4.51086 11.4289Z" fill="#0B2919"/>
<path d="M4.5144 11.4313V11.6922H4.55433V11.4559C4.54011 11.4494 4.52671 11.4409 4.5144 11.4313Z" fill="#0A2617"/>
<path d="M4.49946 4.40869C4.45407 4.44971 4.42618 4.50959 4.42728 4.57549V4.57932V11.2531C4.42728 11.3182 4.45489 11.3772 4.49946 11.4185V11.2763C4.47075 11.2375 4.45407 11.1894 4.45599 11.1372V11.0464C4.45599 11.0417 4.45599 11.0368 4.45599 11.0322V10.9086C4.45599 10.9064 4.45599 10.9039 4.45599 10.9012V9.96521H4.49946V4.40869Z" fill="#CBCBCB"/>
<path d="M4.49939 11.2766V11.4188L4.49966 11.4191V11.2772C4.49994 11.2769 4.49994 11.2769 4.49939 11.2766Z" fill="#1A8251"/>
<path d="M4.5 11.2772V11.4191C4.50219 11.421 4.50465 11.4232 4.50684 11.4251V11.2859C4.50438 11.2829 4.50219 11.2804 4.5 11.2772Z" fill="#13492C"/>
<path d="M4.49941 9.96576H4.45593V10.9017C4.45593 10.9039 4.45593 10.9064 4.45593 10.9091V10.0967H4.49941V9.96576Z" fill="#CACACA"/>
<path d="M7.98547 4.78467V4.79014H7.99286C7.98985 4.78795 7.98766 4.78658 7.98547 4.78467Z" fill="#156A42"/>
<path d="M7.99237 4.78986H7.98499V4.92439C8.0342 4.99001 8.0651 5.06986 8.07139 5.15572C8.09245 5.17103 8.11241 5.18798 8.13045 5.20685V5.00779C8.13073 4.92411 8.07331 4.8522 7.99237 4.78986Z" fill="#0A512A"/>
<path d="M7.98547 4.92462V4.99599C7.99422 5.034 7.99915 5.07337 7.99997 5.11384C8.0254 5.1256 8.04946 5.13954 8.07161 5.15568C8.06504 5.06982 8.03415 4.99025 7.98547 4.92462Z" fill="#094926"/>
<path d="M7.98547 4.99628C7.99422 5.03428 7.99915 5.07366 7.99997 5.11413C7.99887 5.07339 7.99368 5.03428 7.98547 4.99628Z" fill="#083F21"/>
<path d="M7.98547 4.99628V5.10757C7.9904 5.10948 7.99504 5.11167 7.99997 5.11413C7.99887 5.07393 7.99368 5.03428 7.98547 4.99628Z" fill="#07381E"/>
<path d="M4.50684 11.2861V11.4253C4.50793 11.4264 4.50957 11.4275 4.51066 11.4283V11.2902C4.50957 11.2891 4.5082 11.2875 4.50684 11.2861Z" fill="#114127"/>
<path d="M4.51086 11.2908V11.4289C4.51196 11.4297 4.51305 11.4308 4.51442 11.4317V11.2947C4.51333 11.2933 4.51223 11.2919 4.51086 11.2908Z" fill="#0A2617"/>
<path d="M4.5144 11.2946V11.4316C4.52671 11.4412 4.54011 11.4497 4.55433 11.4565V11.3291C4.53983 11.319 4.52616 11.3075 4.5144 11.2946Z" fill="#092415"/>
<path d="M8.18758 12.0023C8.14191 12.0206 8.09215 12.0319 8.03992 12.0338H8V12.153C8 12.1579 8 12.1628 8 12.168C8.07711 12.1314 8.14191 12.0737 8.18758 12.0023Z" fill="#175633"/>
<path d="M8.00002 12.0338H7.99018C7.97979 12.0898 7.96146 12.1431 7.93604 12.1926C7.95791 12.1861 7.97951 12.1781 7.99975 12.168C7.99975 12.1631 7.99975 12.1582 7.99975 12.153V12.0338" fill="#155030"/>
<path d="M8.24555 11.8656C8.18539 11.8979 8.11676 11.9162 8.04375 11.9173H8V11.9279V12.0335H8.03992C8.09215 12.0316 8.14164 12.0204 8.18758 12.002C8.2141 11.9608 8.23352 11.9148 8.24555 11.8656Z" fill="#155030"/>
<path d="M7.99996 11.9282C7.99968 11.9643 7.99613 11.9996 7.99011 12.0338H7.99996V11.9282Z" fill="#144B2D"/>
<path d="M8.25731 11.7723C8.25539 11.7726 8.25348 11.7726 8.25156 11.7732C8.1832 11.8333 8.09625 11.8732 8 11.8828V11.9173H8.04348C8.11648 11.9162 8.18512 11.8973 8.24527 11.8656C8.25238 11.8358 8.25648 11.8046 8.25731 11.7723Z" fill="#144B2D"/>
<path d="M8.25785 11.7679C8.25593 11.7699 8.25402 11.7715 8.25183 11.7734C8.25375 11.7731 8.25566 11.7731 8.25757 11.7726C8.25785 11.771 8.25785 11.7693 8.25785 11.7679Z" fill="#13492B"/>
<path d="M7.98985 12.0338H7.91083C7.86708 12.104 7.80884 12.1642 7.74048 12.2107H7.82224C7.86161 12.2096 7.89962 12.203 7.93626 12.1923C7.96114 12.1429 7.97974 12.0895 7.98985 12.0338Z" fill="#12462A"/>
<path d="M7.91084 12.0338H7.76701C7.66885 12.1092 7.54607 12.1549 7.41264 12.1565H4.63232C4.66979 12.1891 4.71818 12.209 4.7715 12.2109H4.77178H7.74021C7.80885 12.1645 7.86682 12.1038 7.91084 12.0338Z" fill="#113E25"/>
<path d="M7.99994 11.9175H7.96658C7.95209 11.9586 7.93322 11.9977 7.91052 12.0338H7.98955C7.99611 11.9996 7.99939 11.9643 7.99939 11.9282V11.9175" fill="#114227"/>
<path d="M7.96667 11.9175H7.8819C7.84936 11.9613 7.81054 12.0007 7.76733 12.0338H7.91116C7.93358 11.9971 7.95245 11.9586 7.96667 11.9175Z" fill="#103B23"/>
<path d="M8.00001 11.8828C7.99235 11.8836 7.98497 11.8839 7.97731 11.8845C7.9743 11.8957 7.97075 11.9066 7.96692 11.9175H8.00001V11.8828Z" fill="#113E25"/>
<path d="M7.97729 11.8845C7.97374 11.8845 7.97046 11.8847 7.9669 11.8847H7.90429C7.8969 11.8959 7.88925 11.9066 7.88159 11.9173H7.96636C7.97046 11.9066 7.97374 11.8957 7.97729 11.8845Z" fill="#0F3821"/>
<path d="M4.9181 12.0187H4.55688C4.56481 12.0731 4.59243 12.1218 4.63235 12.1565H7.41294C7.54638 12.1548 7.66915 12.1092 7.76731 12.0337H4.98974C4.96431 12.0323 4.94024 12.0272 4.9181 12.0187Z" fill="#0E3821"/>
<path d="M7.88179 11.9175H7.7448C7.65128 11.9815 7.5378 12.0187 7.41612 12.0187C7.41503 12.0187 7.41394 12.0187 7.41257 12.0187H4.91772C4.93987 12.0275 4.96421 12.0324 4.98937 12.0338H7.76667C7.81042 12.0004 7.84925 11.9613 7.88179 11.9175Z" fill="#0E3520"/>
<path d="M7.90456 11.8847H7.78835C7.7744 11.8962 7.75991 11.9069 7.74487 11.9172H7.88187C7.88979 11.9066 7.89745 11.8959 7.90456 11.8847Z" fill="#0D331E"/>
<path d="M4.70557 11.7141H4.58717C4.57651 11.7158 4.5653 11.7163 4.55463 11.7168V11.9788C4.55436 11.9922 4.5549 12.0056 4.55682 12.0187H4.91803C4.83873 11.9881 4.78104 11.9143 4.77311 11.827C4.7403 11.797 4.71651 11.7584 4.70557 11.7141Z" fill="#0D301D"/>
<path d="M4.77283 11.8265C4.78076 11.914 4.83845 11.9875 4.91775 12.0182H7.41259C7.41369 12.0182 7.41478 12.0182 7.41615 12.0182C7.5381 12.0182 7.6513 11.981 7.74482 11.917H4.9965H4.99267C4.94974 11.9153 4.90982 11.9019 4.87673 11.8795C4.83736 11.8713 4.80181 11.8527 4.77283 11.8265Z" fill="#0C2E1C"/>
<path d="M4.87646 11.8798C4.90982 11.902 4.94947 11.9159 4.9924 11.9173H4.99623H7.74455C7.75959 11.9069 7.77408 11.8962 7.78803 11.8847H4.91994C4.90518 11.8845 4.89068 11.8828 4.87646 11.8798Z" fill="#0C2D1B"/>
<path d="M8.25156 11.7731C8.23898 11.7748 8.22668 11.7753 8.21355 11.7753H8V11.8822C8.09625 11.8732 8.1832 11.8338 8.25156 11.7731Z" fill="#13462A"/>
<path d="M8.25776 7.98907H8.13062V7.98935H8.25776V7.98907Z" fill="#18794C"/>
<path d="M8.1307 7.98932V11.0247C8.1318 11.1076 8.11074 11.1855 8.07246 11.2525V11.2566V11.2569C8.07465 11.351 8.04785 11.4387 8 11.5115V11.561V11.7751H8.21355C8.22613 11.7748 8.23899 11.774 8.25156 11.7729C8.25348 11.771 8.25539 11.7693 8.25758 11.7674C8.25758 11.7638 8.25758 11.76 8.25758 11.7567V7.98932H8.1307Z" fill="#124429"/>
<path d="M8.13062 5.20685V7.98907H8.25749V5.53005C8.26077 5.40454 8.2121 5.29025 8.13062 5.20685Z" fill="#0C5C30"/>
<path d="M7.99996 11.7759H7.99777C7.99422 11.8131 7.98738 11.8494 7.97754 11.8844C7.9852 11.8842 7.99285 11.8836 8.00023 11.8828V11.7759" fill="#103B23"/>
<path d="M7.99999 11.7247C7.99999 11.742 7.99917 11.7589 7.9978 11.7759H7.99999V11.7247Z" fill="#103A23"/>
<path d="M7.99748 11.7759H7.96029C7.94525 11.8142 7.92693 11.8508 7.90479 11.8847H7.9674C7.97096 11.8847 7.97424 11.8844 7.97779 11.8844C7.98736 11.8494 7.9942 11.8131 7.99748 11.7759Z" fill="#0E3520"/>
<path d="M8.00001 11.5615C8.00001 11.637 7.98579 11.7092 7.96008 11.7756H7.99727C7.99891 11.7587 7.99946 11.742 7.99946 11.7245V11.5615" fill="#0E341F"/>
<path d="M7.96035 11.7759H7.89008C7.86082 11.8166 7.82637 11.853 7.78809 11.8847H7.9043C7.92672 11.8508 7.94559 11.8142 7.96035 11.7759Z" fill="#0D311D"/>
<path d="M8.00003 11.5123C7.99811 11.5153 7.99593 11.5188 7.99347 11.5218C7.97925 11.6159 7.94315 11.702 7.89038 11.7759H7.96065C7.98636 11.7094 8.00058 11.637 8.00058 11.5618V11.5123" fill="#0D301D"/>
<path d="M4.77177 11.7141H4.70532C4.71599 11.7581 4.74032 11.797 4.77286 11.8268C4.77204 11.8199 4.77177 11.8125 4.77177 11.8052V11.7141Z" fill="#0C2E1C"/>
<path d="M4.77938 11.7141H4.77173V11.8054C4.77173 11.8128 4.772 11.8197 4.77282 11.827C4.80153 11.853 4.83735 11.8719 4.87673 11.8804C4.82204 11.8432 4.78513 11.7827 4.77938 11.7141Z" fill="#0C2D1B"/>
<path d="M5.0154 11.7141H4.77942C4.78489 11.7827 4.82208 11.8434 4.87649 11.8798C4.89071 11.8828 4.90493 11.8845 4.91997 11.8847H7.78778C7.82606 11.853 7.86079 11.8164 7.88977 11.7759H5.16305H5.16278C5.10563 11.774 5.05422 11.7505 5.0154 11.7141Z" fill="#0B2B1A"/>
<path d="M7.99339 11.5219C7.91519 11.6351 7.78558 11.7105 7.6371 11.7141H7.41589H5.01538C5.05366 11.751 5.10562 11.774 5.16304 11.7759H5.16331H7.89003C7.94308 11.7023 7.97972 11.6156 7.99339 11.5219Z" fill="#0B2B1A"/>
<path d="M4.58698 11.7141H4.55444V11.7168C4.56511 11.7166 4.57577 11.7158 4.58698 11.7141Z" fill="#0C2D1B"/>
<path d="M4.70128 11.6922H4.55444V11.7141H4.58698H4.70538C4.70401 11.707 4.70237 11.6996 4.70128 11.6922Z" fill="#0A2818"/>
<path d="M4.55444 11.4565V11.6928H4.70128C4.69964 11.681 4.69854 11.669 4.69909 11.6567V11.4792H4.64495C4.61269 11.4776 4.58206 11.4694 4.55444 11.4565Z" fill="#0A2516"/>
<path d="M8.07246 11.2528C8.0525 11.2878 8.02789 11.3195 8 11.348V11.512C8.04785 11.439 8.07492 11.351 8.07246 11.2575V11.2572V11.2528Z" fill="#103D24"/>
<path d="M7.99997 11.4385C7.99997 11.4669 7.99778 11.4948 7.99341 11.5221C7.9956 11.5191 7.99751 11.5156 7.99997 11.5126V11.4385Z" fill="#0C2C1B"/>
<path d="M7.99993 11.3479C7.97833 11.3695 7.95508 11.3887 7.92965 11.4051C7.83094 11.5877 7.63817 11.7124 7.41614 11.7138H7.63735C7.78583 11.7102 7.91543 11.6348 7.99364 11.5216C7.99774 11.4942 7.99965 11.4663 8.0002 11.4379V11.3477" fill="#0A2818"/>
<path d="M4.77172 11.6922H4.70117C4.70227 11.6996 4.70336 11.7067 4.70527 11.7141H4.77172V11.6922Z" fill="#0A2718"/>
<path d="M4.77856 11.6922H4.77173V11.7141H4.77938C4.77911 11.707 4.77856 11.6996 4.77856 11.6922Z" fill="#0A2617"/>
<path d="M4.9954 11.6922H4.77856C4.77856 11.6996 4.77856 11.7067 4.77938 11.7141H5.01536C5.00853 11.7072 5.00142 11.6999 4.9954 11.6922Z" fill="#0A2616"/>
<path d="M7.92974 11.4054C7.92318 11.4095 7.91662 11.4139 7.90978 11.4177C7.80587 11.5826 7.62212 11.6922 7.41267 11.6922H4.99548C5.0015 11.6999 5.00861 11.7073 5.01544 11.7141H7.41595C7.63826 11.7127 7.8313 11.5881 7.92974 11.4054Z" fill="#0A2516"/>
<path d="M4.77174 11.4786H4.69873V11.6561C4.69873 11.6684 4.69955 11.6802 4.70092 11.6922H4.77146V11.4786" fill="#0A2416"/>
<path d="M4.77856 11.4786H4.77173V11.6922H4.77856C4.77856 11.6911 4.77856 11.69 4.77856 11.6886V11.4786Z" fill="#092415"/>
<path d="M4.94573 11.4786H4.77893V11.6889C4.77893 11.69 4.77893 11.6911 4.77893 11.6925H4.99577C4.96323 11.6517 4.94436 11.6 4.946 11.544L4.94573 11.4786Z" fill="#092315"/>
<path d="M7.90975 11.4177C7.84686 11.4546 7.77358 11.4767 7.69538 11.4786H4.94569V11.5437C4.94377 11.5998 4.96291 11.652 4.99545 11.6922H7.41264C7.62209 11.6922 7.80584 11.5825 7.90975 11.4177Z" fill="#092315"/>
<path d="M8.13063 7.98907H8.07239V7.98935H8.13063V7.98907Z" fill="#14653F"/>
<path d="M8.07239 7.98932V11.2531C8.11067 11.1861 8.13172 11.1081 8.13063 11.0253V7.98959L8.07239 7.98932Z" fill="#0F3922"/>
<path d="M8.07166 5.15594C8.07275 5.1718 8.0733 5.18739 8.07248 5.20352V7.98903H8.13072V5.2068C8.11267 5.18821 8.09271 5.17126 8.07166 5.15594Z" fill="#0A4D28"/>
<path d="M4.55444 11.3286V11.456C4.58206 11.4694 4.61269 11.477 4.64522 11.4781H4.69936V11.3608L4.67394 11.3657H4.67011C4.6269 11.3646 4.58726 11.351 4.55444 11.3286Z" fill="#092315"/>
<path d="M8.07246 7.98907H8V7.98935H8.07246V7.98907Z" fill="#135C39"/>
<path d="M8 7.98932V11.3482C8.02844 11.3198 8.0525 11.2881 8.07246 11.2531V7.98932H8Z" fill="#0E341F"/>
<path d="M8 5.11414C8 5.11878 8 5.12343 8 5.12753V5.26535V5.39578V7.98906H8.07246V5.20355C8.07273 5.18742 8.07273 5.17183 8.07164 5.15597C8.04895 5.13984 8.02516 5.12589 8 5.11414Z" fill="#094624"/>
<path d="M7.98547 5.10754V5.14391C7.99422 5.18301 7.99915 5.22375 7.99997 5.26504V5.12723C7.99997 5.12258 7.99997 5.11793 7.99997 5.11383C7.99504 5.11165 7.98985 5.10946 7.98547 5.10754Z" fill="#07361D"/>
<path d="M7.98547 5.14392V5.27818C7.99422 5.31619 7.99915 5.35529 7.99997 5.39548V5.26505C7.99915 5.22376 7.99422 5.18302 7.98547 5.14392Z" fill="#07331B"/>
<path d="M7.99996 11.1265C7.99996 11.2274 7.97453 11.322 7.92969 11.4054C7.95512 11.3884 7.97836 11.3693 7.99996 11.3482V11.1265Z" fill="#0A2516"/>
<path d="M8.00002 11.1052C8.00002 11.2203 7.96694 11.3272 7.90979 11.4183C7.91663 11.4144 7.92319 11.4103 7.92975 11.4059C7.97459 11.3231 8.00002 11.2279 8.00002 11.127V11.1052Z" fill="#092315"/>
<path d="M7.98547 5.2782V5.43789C7.99422 5.47699 7.99915 5.51773 7.99997 5.55902V5.76218V7.98878V5.3955C7.99915 5.35531 7.99368 5.31621 7.98547 5.2782Z" fill="#063119"/>
<path d="M7.98547 5.43787V5.64103C7.99422 5.68013 7.99915 5.72087 7.99997 5.76216V5.559C7.99915 5.51716 7.99422 5.47697 7.98547 5.43787Z" fill="#062F19"/>
<path d="M4.77171 11.3472L4.69897 11.3614V11.4787H4.77171V11.3472Z" fill="#092315"/>
<path d="M4.77856 11.3461L4.77173 11.3472V11.4787H4.77856V11.3461Z" fill="#092214"/>
<path d="M7.98547 5.64105V5.86226C7.99477 5.90246 7.99969 5.94402 7.99997 5.98695V7.98879V5.76219C7.99915 5.72062 7.99422 5.68015 7.98547 5.64105Z" fill="#062E18"/>
<path d="M4.94563 11.314L4.77856 11.346V11.4786H4.94563V11.314Z" fill="#092214"/>
<path d="M7.99997 7.98907H7.98547L7.99997 7.98935V7.98907Z" fill="#0C3B25"/>
<path d="M7.98545 7.98907V10.4336C7.98545 10.6838 7.33987 10.9015 7.09706 10.9015L4.94592 11.3138V11.4784H7.69561C7.77381 11.4765 7.84682 11.4546 7.90999 11.4174C7.96713 11.3269 8.00022 11.2195 8.00022 11.1043V7.98853L7.98545 7.98907Z" fill="#092214"/>
<path d="M7.98547 5.86255V7.98907H7.99997V5.98724C7.99942 5.94403 7.9945 5.9022 7.98547 5.86255Z" fill="#062D18"/>
<path d="M7.55047 4.12262H7.54664H4.5V4.40864V4.23828H5.04852C5.08187 4.21668 5.12152 4.20328 5.16363 4.20219H7.79465C7.72492 4.15434 7.64125 4.12481 7.55047 4.12262Z" fill="#1F975F"/>
<path d="M7.79435 4.20276H5.16333C5.12068 4.2044 5.0813 4.21725 5.04822 4.23885H7.54634H7.55017C7.65791 4.24159 7.75607 4.28233 7.83181 4.34768H7.92697C7.89416 4.29026 7.84876 4.24077 7.79435 4.20276Z" fill="#1E925B"/>
<path d="M7.92694 4.34766H7.83179C7.88866 4.39715 7.93296 4.46086 7.95921 4.5325H7.98409C7.9789 4.46578 7.95839 4.40316 7.92694 4.34766Z" fill="#1C8855"/>
<path d="M7.98387 4.53308H7.95898C7.97484 4.5771 7.98387 4.62386 7.98551 4.67308V4.55714C7.98496 4.54867 7.98469 4.54074 7.98387 4.53308Z" fill="#1A8050"/>
<path d="M4.49938 10.0967H4.45618V10.9085V10.2052H4.49938V10.0967Z" fill="#BEBEBE"/>
<path d="M4.45617 11.0466V11.1374C4.45453 11.1896 4.47066 11.238 4.49965 11.2766V11.1719C4.4734 11.1366 4.45754 11.0931 4.45617 11.0466Z" fill="#B9B9B9"/>
<path d="M4.49939 11.1713V11.2763L4.49966 11.2766V11.1719C4.49994 11.1719 4.49994 11.1719 4.49939 11.1713Z" fill="#18774A"/>
<path d="M4.5 11.1721V11.2771C4.50219 11.2801 4.50465 11.2831 4.50684 11.2859V11.1809C4.50438 11.1779 4.50219 11.1751 4.5 11.1721Z" fill="#114328"/>
<path d="M4.50684 11.1809V11.2859C4.50793 11.2875 4.50957 11.2889 4.51066 11.2906V11.1856C4.50957 11.1842 4.5082 11.1825 4.50684 11.1809Z" fill="#103C24"/>
<path d="M4.51086 11.1855V11.2905C4.51196 11.2916 4.51305 11.2933 4.51442 11.2944V11.1894C4.51333 11.188 4.51223 11.1866 4.51086 11.1855Z" fill="#0A2516"/>
<path d="M4.5144 11.1894V11.2944C4.52616 11.3075 4.53983 11.319 4.55433 11.3286V11.2236C4.53983 11.214 4.52616 11.2025 4.5144 11.1894Z" fill="#092315"/>
<path d="M4.55444 11.2236V11.3286C4.58753 11.3507 4.62745 11.3641 4.66983 11.3658H4.67366L4.69909 11.3608V11.2558L4.67366 11.2608H4.66983C4.6269 11.2594 4.58726 11.2457 4.55444 11.2236Z" fill="#092214"/>
<path d="M4.77171 11.2419L4.69897 11.2561V11.3614L4.77171 11.3472V11.2419Z" fill="#092214"/>
<path d="M4.77856 11.2405L4.77173 11.2418V11.3471L4.77856 11.346V11.2405Z" fill="#092214"/>
<path d="M4.94563 11.2083L4.77856 11.2405V11.3461L4.94563 11.3141V11.2083Z" fill="#092114"/>
<path d="M7.98545 7.98907V10.3251C7.98545 10.5752 7.33987 10.7929 7.09706 10.7929L4.94592 11.2083V11.3138L7.09706 10.9015C7.33987 10.9015 7.98545 10.6841 7.98545 10.4336V7.98907Z" fill="#092114"/>
<path d="M5.04852 4.23883H4.5V4.40918C4.53828 4.37418 4.58941 4.35231 4.64547 4.35176H4.9591C4.97578 4.30473 5.00723 4.26508 5.04852 4.23883Z" fill="#1C8855"/>
<path d="M7.55047 4.23883H7.54665H5.04852C5.00751 4.26535 4.97606 4.30473 4.95911 4.35121H4.96376C4.97442 4.3493 4.98563 4.34821 4.99684 4.34766H7.83184C7.7561 4.28203 7.65821 4.24129 7.55047 4.23883Z" fill="#1B8453"/>
<path d="M7.83159 4.34766H4.99659C4.98538 4.34793 4.97444 4.3493 4.9635 4.35121H6.86499C7.07745 4.3523 7.28717 4.40617 7.47448 4.50734C7.48049 4.51527 7.4917 4.52375 7.5062 4.53305H7.95874C7.93276 4.46086 7.88874 4.39715 7.83159 4.34766Z" fill="#197C4E"/>
<path d="M7.95901 4.53308H7.50647C7.51795 4.53992 7.53135 4.54757 7.54721 4.55523C7.58522 4.56398 7.62159 4.57683 7.65659 4.59242C7.69487 4.61019 7.73096 4.63152 7.76432 4.6564C7.83022 4.68812 7.89858 4.72421 7.95764 4.76468H7.96749C7.9735 4.76468 7.97924 4.76496 7.98553 4.7655V4.67308C7.98389 4.62386 7.97514 4.57683 7.95901 4.53308Z" fill="#187549"/>
<path d="M7.65625 4.59241C7.69453 4.61018 7.73062 4.63151 7.76398 4.65639C7.76398 4.65639 7.76398 4.65639 7.76426 4.65639C7.73063 4.63151 7.69453 4.61018 7.65625 4.59241Z" fill="#14623D"/>
<path d="M7.54688 4.55524C7.60238 4.58367 7.68141 4.61703 7.76398 4.65641C7.73062 4.63153 7.69453 4.60992 7.65625 4.59242C7.62125 4.57684 7.58488 4.56399 7.54688 4.55524Z" fill="#115535"/>
<path d="M7.96749 4.76465H7.95764C7.96721 4.77121 7.97651 4.77777 7.98526 4.78461V4.76547C7.97924 4.76492 7.9735 4.76492 7.96749 4.76465Z" fill="#166F45"/>
<path d="M4.45618 10.9086V11.0467C4.45782 11.0931 4.4734 11.1363 4.49965 11.1713V11.0368C4.47286 11.001 4.457 10.9567 4.45618 10.9086Z" fill="#AFAFAF"/>
<path d="M4.49939 11.0368V11.1713L4.49994 11.1719V11.0374C4.49994 11.0371 4.49994 11.0371 4.49939 11.0368Z" fill="#177046"/>
<path d="M4.5 11.0376V11.1721C4.50219 11.1751 4.50465 11.1781 4.50684 11.1809V11.0463C4.50438 11.0433 4.50219 11.0406 4.5 11.0376Z" fill="#103F26"/>
<path d="M4.49941 10.2053H4.45593V10.9088C4.45675 10.9567 4.47289 11.001 4.49941 11.0371V10.2053Z" fill="#AEAEAE"/>
<path d="M4.9591 4.35126H4.64547C4.58941 4.35208 4.53855 4.37395 4.5 4.40868V10.2053V11.0368L4.50027 11.0371V7.98497V4.78958H4.50711V4.76415C4.5082 4.76387 4.50984 4.76333 4.51094 4.76305V4.53938H4.78137C4.79504 4.44587 4.86641 4.37067 4.95855 4.3518C4.95855 4.3518 4.9591 4.35153 4.9591 4.35126Z" fill="#176F46"/>
<path d="M4.5 7.98547V11.0376C4.50219 11.0406 4.50465 11.0436 4.50684 11.0463V7.98903H4.5V7.98547Z" fill="#103F26"/>
<path d="M4.50684 4.78986H4.5V7.98552V7.98907H4.50684V4.78986Z" fill="#0B552C"/>
<path d="M4.96366 4.35126H4.95901C4.95901 4.35153 4.95874 4.35208 4.95874 4.35208C4.96011 4.3518 4.96202 4.35153 4.96366 4.35126Z" fill="#166D44"/>
<path d="M4.95856 4.35236C4.86614 4.37122 4.79477 4.44642 4.78137 4.53993H4.94051C4.94243 4.53966 4.94407 4.53911 4.94598 4.53884V4.43138C4.94516 4.40322 4.94981 4.37697 4.95856 4.35236Z" fill="#156942"/>
<path d="M6.86461 4.35126H4.96313C4.96149 4.35153 4.96012 4.35208 4.9582 4.35208C4.94945 4.37669 4.94481 4.40348 4.94508 4.4311V4.53856C4.9593 4.53501 4.97379 4.53309 4.98883 4.53282H7.50555C7.49106 4.52352 7.47985 4.51505 7.47383 4.50712C7.2868 4.40594 7.07735 4.35235 6.86461 4.35126Z" fill="#156640"/>
<path d="M4.94565 4.53827C4.94374 4.53854 4.9421 4.53909 4.94019 4.53936H4.94565V4.53827Z" fill="#14643F"/>
<path d="M7.50639 4.53308H4.98967C4.97463 4.53335 4.96014 4.53527 4.94592 4.53882V4.53992H7.41233H7.41616C7.461 4.54019 7.50475 4.54566 7.54686 4.55523C7.53127 4.5473 7.51733 4.53992 7.50639 4.53308Z" fill="#14623D"/>
<path d="M7.41618 4.53992H7.41235C7.45884 4.53992 7.50368 4.54539 7.54689 4.55523C7.50478 4.54511 7.46103 4.53992 7.41618 4.53992Z" fill="#115535"/>
<path d="M7.76404 4.65637C7.80533 4.68754 7.84279 4.72391 7.87478 4.76465H7.95763C7.8983 4.72446 7.82994 4.68836 7.76404 4.65637Z" fill="#14623D"/>
<path d="M4.78129 4.53992H4.51086V4.76359V4.68484H4.51442V4.53992H4.78129Z" fill="#135E3B"/>
<path d="M7.76367 4.65637C7.80496 4.68754 7.8427 4.72391 7.87441 4.76465C7.8427 4.72391 7.80551 4.68754 7.76367 4.65637C7.76395 4.65637 7.76395 4.65637 7.76367 4.65637Z" fill="#115535"/>
<path d="M4.78128 4.53992H4.5144V4.68484H4.77909V4.57273C4.77855 4.56179 4.77991 4.55058 4.78128 4.53992Z" fill="#115233"/>
<path d="M4.9405 4.53992H4.78136C4.77972 4.55058 4.77917 4.56179 4.77917 4.573V4.68511H4.7841C4.80816 4.61402 4.86695 4.55878 4.9405 4.53992Z" fill="#104F32"/>
<path d="M4.94569 4.53992H4.94022C4.86666 4.55878 4.80788 4.61429 4.78381 4.68484H4.94569V4.53992Z" fill="#104D30"/>
<path d="M7.41233 4.53992H4.94592V4.68484H7.41233C7.50749 4.68511 7.59772 4.70863 7.67702 4.74882C7.70436 4.75156 7.73061 4.75675 7.75631 4.76468H7.87471C7.84299 4.72394 7.80526 4.68757 7.76397 4.6564C7.68194 4.61703 7.60237 4.58339 7.54686 4.55523C7.50366 4.54511 7.45881 4.53992 7.41233 4.53992Z" fill="#0F4C2F"/>
<path d="M4.51442 4.68481H4.51086V4.76356C4.51196 4.76329 4.51305 4.76274 4.51442 4.76247V4.68481Z" fill="#115233"/>
<path d="M4.7786 4.68481H4.51392V4.7622C4.52458 4.75919 4.53552 4.75755 4.54646 4.75755C4.55985 4.75755 4.57325 4.75974 4.58638 4.76411H4.77122C4.7704 4.74224 4.77313 4.72118 4.77806 4.70095V4.68481" fill="#0F4A2E"/>
<path d="M4.78385 4.68481H4.77893V4.70122C4.7803 4.69603 4.78221 4.69028 4.78385 4.68481Z" fill="#0E472C"/>
<path d="M4.77861 4.70123C4.77314 4.72147 4.77095 4.74252 4.77177 4.7644H4.77861V4.70123Z" fill="#0E472C"/>
<path d="M4.94573 4.68481H4.78385C4.78194 4.69028 4.7803 4.69603 4.77893 4.70122V4.76438H4.94573V4.68481Z" fill="#0E462C"/>
<path d="M7.41233 4.68481H4.94592V4.76466H7.63026L7.63791 4.74661H7.6453C7.65596 4.74688 7.6669 4.74771 7.67702 4.7488C7.59717 4.7086 7.50749 4.68563 7.41233 4.68481Z" fill="#0E442B"/>
<path d="M7.95736 4.76465H7.87451C7.88107 4.77258 7.88709 4.78105 7.89338 4.79008H7.98498V4.78461C7.97623 4.77805 7.96693 4.77121 7.95736 4.76465Z" fill="#135D3A"/>
<path d="M7.98552 4.78986H7.89392C7.91306 4.8172 7.93001 4.84618 7.94451 4.87681C7.95955 4.89185 7.97322 4.90743 7.98552 4.92439V4.78986Z" fill="#094725"/>
<path d="M7.875 4.76465C7.88156 4.77258 7.88758 4.78105 7.89387 4.79008C7.88758 4.7816 7.88129 4.77312 7.875 4.76465Z" fill="#105133"/>
<path d="M7.89355 4.78986C7.9127 4.8172 7.92965 4.84618 7.94387 4.87654C7.92965 4.84646 7.9127 4.8172 7.89355 4.78986Z" fill="#083E20"/>
<path d="M7.87499 4.76465H7.75659C7.77929 4.77121 7.80116 4.77996 7.82222 4.79008H7.89386C7.88757 4.7816 7.88101 4.77312 7.87499 4.76465Z" fill="#0F492E"/>
<path d="M7.8933 4.78986H7.82166C7.86732 4.81173 7.90833 4.84126 7.94361 4.87654C7.92966 4.84646 7.91244 4.8172 7.8933 4.78986Z" fill="#07371D"/>
<path d="M4.50684 11.0464V11.1809C4.50793 11.1826 4.50957 11.1839 4.51066 11.1856V11.051C4.50957 11.0494 4.5082 11.048 4.50684 11.0464Z" fill="#0F3922"/>
<path d="M4.51091 4.76361C4.50981 4.76388 4.50817 4.76443 4.50708 4.7647V4.79013H4.51091V4.76361Z" fill="#14643E"/>
<path d="M4.51091 7.98907H4.50708V11.0464C4.50817 11.048 4.50981 11.0494 4.51091 11.051V7.98907Z" fill="#0F3822"/>
<path d="M4.51094 4.78986H4.50684V7.98907H4.51094V5.4029V4.9788V4.78986Z" fill="#0A4C28"/>
<path d="M7.677 4.74939C7.68657 4.75431 7.69614 4.75978 7.70571 4.76525H7.7563C7.7306 4.75732 7.70407 4.75212 7.677 4.74939Z" fill="#0E472C"/>
<path d="M4.51442 4.76221C4.51333 4.76248 4.51223 4.76303 4.51086 4.7633V4.78982H4.51442V4.76221Z" fill="#0F4C30"/>
<path d="M4.51442 4.78986H4.51086V4.9788V4.82267H4.51442V4.78986Z" fill="#073A1E"/>
<path d="M4.54694 4.75812C4.53573 4.75812 4.52507 4.75976 4.5144 4.76277V4.79038H4.77226V4.7655V4.76523H4.58741C4.57374 4.76031 4.56034 4.75812 4.54694 4.75812Z" fill="#0E462C"/>
<path d="M4.77177 4.78986H4.51392V4.82239H4.77095C4.77122 4.82239 4.77122 4.82212 4.77177 4.82212V4.78986Z" fill="#07361C"/>
<path d="M4.77856 4.76465H4.77173V4.76492V4.7898H4.77856V4.76465Z" fill="#0E442A"/>
<path d="M4.77856 4.78986H4.77173V4.82212C4.77392 4.82021 4.77638 4.81802 4.77856 4.81611V4.78986Z" fill="#07341B"/>
<path d="M4.94573 4.76465H4.77893V4.79008H4.81776C4.84838 4.77395 4.88338 4.76465 4.92057 4.76465H4.94573Z" fill="#0D4229"/>
<path d="M4.818 4.78986H4.77917V4.81583C4.79093 4.80599 4.80406 4.79724 4.818 4.78986Z" fill="#06321A"/>
<path d="M7.64505 4.74689H7.63767L7.63001 4.76493H4.94568H7.70548C7.69591 4.75947 7.68634 4.75427 7.67677 4.74907C7.66611 4.74825 7.65599 4.74743 7.64505 4.74689Z" fill="#0D4229"/>
<path d="M4.51442 4.82263H4.51086V4.97876H4.51442V4.82263Z" fill="#07361C"/>
<path d="M4.51442 4.97876H4.51086V5.18192H4.51442V4.97876Z" fill="#07341B"/>
<path d="M4.51086 11.051V11.1856C4.51196 11.1867 4.51305 11.1883 4.51442 11.1894V11.0549C4.51333 11.0538 4.51223 11.0521 4.51086 11.051Z" fill="#0A2416"/>
<path d="M4.51442 5.18195H4.51086V5.40288H4.51442V5.18195Z" fill="#06311A"/>
<path d="M4.51442 7.98907H4.51086V11.051C4.51196 11.0521 4.51305 11.0538 4.51442 11.0549V7.98907Z" fill="#0A2416"/>
<path d="M4.51442 5.40289H4.51086V7.98906H4.51442V5.40289Z" fill="#06311A"/>
<path d="M4.77144 4.82263H4.5144V4.97876H4.69925C4.70116 4.91697 4.72878 4.86173 4.77144 4.82263Z" fill="#07321A"/>
<path d="M4.699 4.97876H4.51416V5.18192H4.58771C4.61342 5.14009 4.65225 5.10673 4.699 5.08841V4.99325V4.98587C4.699 4.98368 4.699 4.98095 4.699 4.97876Z" fill="#063019"/>
<path d="M4.5144 11.0548V11.1893C4.52616 11.2025 4.53983 11.2139 4.55433 11.2235V11.089C4.53983 11.0794 4.52616 11.0679 4.5144 11.0548Z" fill="#092214"/>
<path d="M4.58771 5.18195H4.51416V5.40316H4.55408V5.30144C4.55436 5.25741 4.56666 5.21695 4.58771 5.18195Z" fill="#062F19"/>
<path d="M4.55433 7.98907H4.5144V11.0549C4.52616 11.068 4.53983 11.0795 4.55433 11.0893V7.98907Z" fill="#092214"/>
<path d="M4.55433 5.40289H4.5144V7.98906H4.55433V5.40289Z" fill="#062E18"/>
<path d="M7.94397 4.87708C7.96174 4.91454 7.97569 4.95446 7.98499 4.99629V4.92493C7.97268 4.9077 7.95901 4.89211 7.94397 4.87708Z" fill="#084122"/>
<path d="M7.94397 4.87653C7.96202 4.91399 7.97569 4.95446 7.98526 4.99574C7.97569 4.95446 7.96202 4.91453 7.94397 4.87653C7.94397 4.87707 7.94397 4.87707 7.94397 4.87653Z" fill="#073A1E"/>
<path d="M7.7564 4.76465H7.70581C7.71921 4.77258 7.73261 4.78105 7.74519 4.79008H7.82147C7.80097 4.77996 7.77909 4.77148 7.7564 4.76465Z" fill="#0E462B"/>
<path d="M7.82202 4.78986H7.74573C7.85346 4.86478 7.93549 4.97443 7.9746 5.10294C7.97842 5.10458 7.98198 5.10595 7.98526 5.10759V4.9963C7.97569 4.95447 7.96174 4.91454 7.94397 4.87708C7.9087 4.84126 7.86768 4.81173 7.82202 4.78986Z" fill="#07351C"/>
<path d="M4.77182 4.82208C4.77154 4.82208 4.77154 4.82236 4.771 4.82236H4.77182V4.82208Z" fill="#07341B"/>
<path d="M4.77856 4.8161C4.77638 4.81802 4.77392 4.81993 4.77173 4.82212V4.82239H4.77856V4.8161Z" fill="#06321A"/>
<path d="M4.94563 4.76465H4.9202C4.88301 4.76465 4.84801 4.77395 4.81738 4.79008H4.94563V4.76465Z" fill="#0D4128"/>
<path d="M4.94563 4.78986H4.81739C4.80372 4.79724 4.7906 4.80599 4.77856 4.81583V4.82239H4.94536L4.94563 4.78986Z" fill="#06311A"/>
<path d="M7.70573 4.76465H4.94592V4.79008H7.74565C7.73252 4.78105 7.71913 4.77258 7.70573 4.76465Z" fill="#0D4128"/>
<path d="M7.74513 4.78986H4.94568V4.82239H7.41208C7.61416 4.82239 7.79326 4.92493 7.89935 5.08079C7.92505 5.08572 7.95048 5.09337 7.97427 5.10267C7.93517 4.97443 7.85341 4.86478 7.74513 4.78986Z" fill="#06311A"/>
<path d="M4.77174 4.82263H4.77092C4.72826 4.86146 4.70119 4.91697 4.69873 4.97876H4.77174V4.82263Z" fill="#06311A"/>
<path d="M4.77174 4.97876H4.69873C4.69873 4.98095 4.69873 4.98368 4.69873 4.98614V4.99353V5.08868C4.72143 5.07993 4.74603 5.07419 4.77174 5.07282V4.97876Z" fill="#062F19"/>
<path d="M4.77856 4.82263H4.77173V4.97876H4.77856V4.82263Z" fill="#063119"/>
<path d="M4.77856 4.97876H4.77173V5.0731H4.77856V4.97876Z" fill="#062F19"/>
<path d="M4.94563 4.82263H4.77856V4.97876H4.94563V4.82263Z" fill="#062F19"/>
<path d="M7.41233 4.82263H4.94592V4.97876H7.41233C7.52881 4.97958 7.63792 5.01404 7.72924 5.0731H7.82249H7.82631C7.8512 5.07392 7.87581 5.07666 7.89959 5.08158C7.7935 4.9249 7.6144 4.82263 7.41233 4.82263Z" fill="#062F19"/>
<path d="M4.94563 4.97876H4.77856V5.0731H4.94563V4.97876Z" fill="#062E18"/>
<path d="M7.41233 4.97876H4.94592V5.0731H7.72924C7.63737 5.01403 7.52881 4.97931 7.41233 4.97876Z" fill="#062E18"/>
<path d="M4.69906 5.08844C4.65257 5.10676 4.61347 5.13985 4.58777 5.18196H4.69906V5.08844Z" fill="#062F19"/>
<path d="M4.55444 11.089V11.2235C4.58753 11.2457 4.62745 11.2591 4.66983 11.2607H4.67366L4.69909 11.2558V11.1215L4.67366 11.1265C4.62964 11.1256 4.58862 11.112 4.55444 11.089Z" fill="#092214"/>
<path d="M4.699 5.18195H4.58771C4.56611 5.21695 4.55408 5.25796 4.55408 5.30171V5.40343H4.69873V5.18222" fill="#062E18"/>
<path d="M4.69909 7.98907H4.55444V11.089C4.58862 11.112 4.62964 11.1259 4.67421 11.1265L4.69964 11.1216V7.98907" fill="#092214"/>
<path d="M4.69909 5.40289H4.55444V7.98906H4.69909V5.40289Z" fill="#062E18"/>
<path d="M7.97424 5.10345C7.97834 5.11685 7.9819 5.13025 7.98491 5.1442V5.10783C7.98163 5.10592 7.97807 5.10455 7.97424 5.10345Z" fill="#07331B"/>
<path d="M7.89929 5.08105C7.93921 5.13984 7.96875 5.20656 7.98515 5.27793V5.14367C7.98214 5.12973 7.97832 5.11633 7.97449 5.10293C7.95042 5.09363 7.925 5.08652 7.89929 5.08105Z" fill="#063019"/>
<path d="M4.77174 5.07312C4.74603 5.07421 4.72143 5.07968 4.69873 5.08898V5.1825H4.77174V5.07312Z" fill="#062F19"/>
<path d="M4.77856 5.07312H4.77173V5.18195H4.77856V5.07312Z" fill="#062E18"/>
<path d="M7.82607 5.07312H7.82225H7.729C7.85643 5.1557 7.95022 5.28531 7.98522 5.43789V5.2782C7.96881 5.20683 7.93928 5.14011 7.89936 5.08132C7.87557 5.0764 7.85123 5.07394 7.82607 5.07312Z" fill="#062F19"/>
<path d="M4.94563 5.07312H4.77856V5.18195H4.94563V5.07312Z" fill="#062E18"/>
<path d="M7.72924 5.07312H4.94592V5.18195H7.41233C7.69151 5.18359 7.92557 5.3791 7.98545 5.64105V5.43789C7.95045 5.28503 7.85639 5.15515 7.72924 5.07312Z" fill="#062D18"/>
<path d="M4.77171 11.1076L4.69897 11.1218V11.2561L4.77171 11.2419V11.1076Z" fill="#092214"/>
<path d="M4.77856 11.1065L4.77173 11.1076V11.2419L4.77856 11.2405V11.1065Z" fill="#092114"/>
<path d="M4.94563 11.0742L4.77856 11.1065V11.2405L4.94563 11.2082V11.0742Z" fill="#092114"/>
<path d="M7.98545 7.98907V10.1943C7.98545 10.4445 7.33987 10.6622 7.09706 10.6622L4.94592 11.0745V11.2085L7.09706 10.7932C7.33987 10.7932 7.98545 10.5752 7.98545 10.3253V7.98907Z" fill="#092114"/>
<path d="M4.77171 5.18195H4.69897V5.40288H4.77171V5.18195Z" fill="#062E18"/>
<path d="M4.77171 7.98907H4.69897V11.1218L4.77171 11.1076V7.98907Z" fill="#092214"/>
<path d="M4.77171 5.40289H4.69897V7.98906H4.77171V5.40289Z" fill="#062D18"/>
<path d="M4.77856 5.18195H4.77173V5.40288H4.77856V5.18195Z" fill="#062D18"/>
<path d="M4.77856 7.98907H4.77173V11.1076L4.77856 11.1065V7.98907Z" fill="#092114"/>
<path d="M4.77856 5.40289H4.77173V7.98906H4.77856V5.40289Z" fill="#062D17"/>
<path d="M4.94563 5.18195H4.77856V5.40288H4.94563V5.18195Z" fill="#062D17"/>
<path d="M7.41233 5.18195H4.94592V5.40316H7.41233C7.69206 5.4048 7.92557 5.60031 7.98545 5.86226V5.64105C7.92557 5.37882 7.69151 5.18359 7.41233 5.18195Z" fill="#062C17"/>
<path d="M4.94563 7.98907H4.77856V11.1065L4.94563 11.0743V7.98907Z" fill="#092114"/>
<path d="M4.94563 5.40289H4.77856V7.98906H4.94563V5.40289Z" fill="#062C17"/>
<path d="M7.86295 7.98907H4.94592V11.0745L7.09706 10.6622C7.33987 10.6622 7.98545 10.4443 7.98545 10.1943V7.98907H7.86295Z" fill="#092114"/>
<path d="M7.41233 5.40289H4.94592V7.98879H7.86295H7.98518V5.86227C7.92557 5.60059 7.69178 5.40481 7.41233 5.40289Z" fill="#062C17"/>
<path d="M1.58403 4.32935H7.41618C7.74595 4.33892 8.00653 4.61235 7.99997 4.94239V11.0324C8.01227 11.3622 7.75688 11.6408 7.42685 11.6564H1.58403C1.25536 11.6504 0.993681 11.3794 1.00024 11.051V11.0472V4.94267C0.993681 4.61263 1.25399 4.33919 1.58403 4.32935Z" fill="#107C41"/>
<path d="M2.58813 10.2709L3.96298 8.02927L2.70052 5.81635H3.71634L4.40185 7.23084C4.45052 7.33256 4.49427 7.43674 4.53255 7.54256C4.57603 7.43756 4.62688 7.32845 4.67747 7.23084L5.40317 5.82701H6.3356L5.05536 8.02818L6.37907 10.266H5.38567L4.58751 8.72435C4.55114 8.65736 4.5186 8.58818 4.48962 8.51763C4.46556 8.58736 4.43411 8.65408 4.39528 8.71697L3.57935 10.2728L2.58813 10.2709Z" fill="white"/>
</g>
<defs>
<clipPath id="clip0_5744_233799">
<rect width="14" height="14" fill="white" transform="translate(1 1)"/>
</clipPath>
</defs>
</svg>
