<svg xmlns="http://www.w3.org/2000/svg" width="16" height="16" viewBox="0 0 16 16" fill="none">
  <path d="M9.39988 1H4.14988C3.77855 1 3.14184 1.07819 2.80993 1.41007C2.47805 1.74195 2.3999 2.3787 2.3999 2.75002V13.6C2.3999 13.9713 2.54739 14.3274 2.80993 14.5899C3.07247 14.8525 3.42856 15 3.79989 15H12.1999C12.5712 15 12.9273 14.8525 13.1898 14.5899C13.4524 14.3274 13.5999 13.9713 13.5999 13.6V5.20001L9.39988 1Z" fill="#B3B3B3"/>
  <path d="M9.3999 1V3.70001C9.3999 4.52842 10.0715 5.20001 10.8999 5.20001H13.5999" fill="white" fill-opacity="0.25"/>
  <path d="M9.03931 11.1111L10.5949 9.55555L9.03931 8" stroke="#4A5268" stroke-width="0.66" stroke-linecap="round" stroke-linejoin="round"/>
  <path d="M6.96546 8L5.40991 9.55555L6.96546 11.1111" stroke="#4A5268" stroke-width="0.66" stroke-linecap="round" stroke-linejoin="round"/>
</svg>