<svg width="56" height="56" viewBox="0 0 56 56" fill="none" xmlns="http://www.w3.org/2000/svg">
<path d="M31.7333 9.33398H17.7333C16.7431 9.33398 15.0452 9.54249 14.1601 10.4275C13.2751 11.3125 13.0667 13.0105 13.0667 14.0007V42.934C13.0667 43.9242 13.46 44.8737 14.1601 45.5738C14.8602 46.274 15.8098 46.6673 16.8 46.6673H39.2C40.1902 46.6673 41.1397 46.274 41.8398 45.5738C42.54 44.8737 42.9333 43.9242 42.9333 42.934V20.534L31.7333 9.33398Z" fill="#5882FF"/>
<path d="M31.7333 9.33398V16.534C31.7333 18.7431 33.5242 20.534 35.7333 20.534H42.9333" fill="white" fill-opacity="0.25"/>
<rect x="20" y="26" width="10" height="2" rx="1" fill="white"/>
<rect x="20" y="32" width="16" height="2" rx="1" fill="white"/>
<rect x="20" y="38" width="16" height="2" rx="1" fill="white"/>
</svg>
