<svg width="56" height="56" viewBox="0 0 56 56" fill="none" xmlns="http://www.w3.org/2000/svg">
<path d="M31.7332 9.33398H17.7332C16.743 9.33398 15.0452 9.54249 14.1601 10.4275C13.2751 11.3125 13.0667 13.0105 13.0667 14.0007V42.934C13.0667 43.9242 13.46 44.8737 14.1601 45.5738C14.8602 46.274 15.8097 46.6673 16.7999 46.6673H39.2C40.1902 46.6673 41.1397 46.274 41.8398 45.5738C42.54 44.8737 42.9333 43.9242 42.9333 42.934V20.534L31.7332 9.33398Z" fill="#485DFF"/>
<path d="M31.7333 9.33398V16.534C31.7333 18.7431 33.5242 20.534 35.7333 20.534H42.9333" fill="white" fill-opacity="0.25"/>
<path d="M21 31H20C19.4477 31 19 31.4477 19 32V35C19 35.5523 19.4477 36 20 36H21C21.5523 36 22 35.5523 22 35V32C22 31.4477 21.5523 31 21 31Z" fill="#A3ADFF"/>
<path d="M26 29.75H25C24.4477 29.75 24 30.1977 24 30.75V36.25C24 36.8023 24.4477 37.25 25 37.25H26C26.5523 37.25 27 36.8023 27 36.25V30.75C27 30.1977 26.5523 29.75 26 29.75Z" fill="#C2C9FF"/>
<path d="M31 26H30C29.4477 26 29 26.4477 29 27V40C29 40.5523 29.4477 41 30 41H31C31.5523 41 32 40.5523 32 40V27C32 26.4477 31.5523 26 31 26Z" fill="white"/>
<path d="M36 29.75H35C34.4477 29.75 34 30.1977 34 30.75V36.25C34 36.8023 34.4477 37.25 35 37.25H36C36.5523 37.25 37 36.8023 37 36.25V30.75C37 30.1977 36.5523 29.75 36 29.75Z" fill="#C2C9FF"/>
</svg>
