<svg width="56" height="56" viewBox="0 0 56 56" fill="none" xmlns="http://www.w3.org/2000/svg">
<path d="M31.7332 9.33398H17.7332C16.743 9.33398 15.0452 9.54249 14.1601 10.4275C13.2751 11.3125 13.0667 13.0105 13.0667 14.0007V42.934C13.0667 43.9242 13.46 44.8737 14.1601 45.5738C14.8602 46.274 15.8097 46.6673 16.7999 46.6673H39.2C40.1902 46.6673 41.1397 46.274 41.8398 45.5738C42.54 44.8737 42.9333 43.9242 42.9333 42.934V20.534L31.7332 9.33398Z" fill="#E26D66"/>
<path d="M31.7333 9.33398V16.534C31.7333 18.7431 33.5242 20.534 35.7333 20.534H42.9333" fill="white" fill-opacity="0.25"/>
<path d="M19 39.286C19 38.708 19.3664 38.1045 20.0991 37.4755C20.8318 36.8465 21.5706 36.345 22.3153 35.971L22.5856 36.345C22.0571 36.7077 21.5135 37.1752 20.955 37.7475C20.3964 38.3198 20.045 38.827 19.9009 39.269C20.9459 38.963 22.5375 36.8153 24.6757 32.826C25.4565 31.3413 26.0751 29.8623 26.5315 28.389C26.1351 27.1763 25.9369 26.0317 25.9369 24.955C25.9369 23.6517 26.2192 23 26.7838 23C27.0601 23 27.2643 23.0113 27.3964 23.034C27.5285 23.0567 27.6517 23.1303 27.7658 23.255C27.8799 23.3797 27.9369 23.5723 27.9369 23.833C27.9369 24.003 27.9189 24.1617 27.8829 24.309L27.3964 24.292C27.3724 23.9973 27.2703 23.765 27.0901 23.595C26.9459 23.8217 26.8739 24.2127 26.8739 24.768C26.8739 25.1987 26.9279 25.7313 27.036 26.366C27.0721 26.162 27.1231 25.8588 27.1892 25.4565C27.2553 25.0542 27.3123 24.751 27.3604 24.547L27.8288 24.598C27.8048 26.3207 27.7207 27.556 27.5766 28.304C28.009 29.5167 28.5285 30.5027 29.1351 31.262C29.7417 32.0213 30.5976 32.6957 31.7027 33.285C32.5195 33.2057 33.2162 33.166 33.7928 33.166C35.9309 33.166 37 33.5627 37 34.356C37 34.4807 36.97 34.6167 36.9099 34.764L36.8559 34.747C36.7958 35.223 36.3934 35.461 35.6486 35.461C34.3994 35.461 32.958 35.053 31.3243 34.237C28.6817 34.4863 26.3453 34.951 24.3153 35.631C22.5495 38.5437 21.1381 40 20.0811 40C19.997 40 19.9129 39.9887 19.8288 39.966C19.7447 39.9433 19.6697 39.9178 19.6036 39.8895C19.5375 39.8612 19.4565 39.8215 19.3604 39.7705C19.2643 39.7195 19.1922 39.6827 19.1441 39.66C19.048 39.5693 19 39.4447 19 39.286ZM24.7297 34.951C26.3393 34.339 28.1291 33.8573 30.0991 33.506C28.8619 32.6787 27.8769 31.4943 27.1441 29.953C26.7117 31.3243 25.9069 32.9903 24.7297 34.951ZM33.4865 34.101C34.5676 34.4977 35.4204 34.696 36.045 34.696C36.2252 34.696 36.3574 34.679 36.4414 34.645C36.4414 34.2823 35.5706 34.101 33.8288 34.101H33.4865Z" fill="white"/>
</svg>
