<svg width="16" height="16" viewBox="0 0 16 16" fill="none" xmlns="http://www.w3.org/2000/svg">
<path d="M9.4 1H4.15C3.77867 1 3.14196 1.07819 2.81005 1.41007C2.47817 1.74195 2.40002 2.3787 2.40002 2.75002V13.6C2.40002 13.9713 2.54751 14.3274 2.81005 14.5899C3.07259 14.8525 3.42869 15 3.80001 15H12.2C12.5713 15 12.9274 14.8525 13.1899 14.5899C13.4525 14.3274 13.6 13.9713 13.6 13.6V5.20001L9.4 1Z" fill="#4ECF7D"/>
<path d="M9.40002 1V3.70001C9.40002 4.52842 10.0716 5.20001 10.9 5.20001H13.6" fill="white" fill-opacity="0.25"/>
<path d="M6.12512 6.49976H5.37512C5.16802 6.49976 5.00012 6.66765 5.00012 6.87476V7.62476C5.00012 7.83186 5.16802 7.99976 5.37512 7.99976H6.12512C6.33223 7.99976 6.50012 7.83186 6.50012 7.62476V6.87476C6.50012 6.66765 6.33223 6.49976 6.12512 6.49976Z" fill="white"/>
<path d="M6.12512 8.74976H5.37512C5.16802 8.74976 5.00012 8.91765 5.00012 9.12476V9.87476C5.00012 10.0819 5.16802 10.2498 5.37512 10.2498H6.12512C6.33223 10.2498 6.50012 10.0819 6.50012 9.87476V9.12476C6.50012 8.91765 6.33223 8.74976 6.12512 8.74976Z" fill="white"/>
<path d="M6.12512 10.9998H5.37512C5.16802 10.9998 5.00012 11.1676 5.00012 11.3748V12.1248C5.00012 12.3319 5.16802 12.4998 5.37512 12.4998H6.12512C6.33223 12.4998 6.50012 12.3319 6.50012 12.1248V11.3748C6.50012 11.1676 6.33223 10.9998 6.12512 10.9998Z" fill="white"/>
<path d="M8.37512 6.49976H7.62512C7.41802 6.49976 7.25012 6.66765 7.25012 6.87476V7.62476C7.25012 7.83186 7.41802 7.99976 7.62512 7.99976H8.37512C8.58223 7.99976 8.75012 7.83186 8.75012 7.62476V6.87476C8.75012 6.66765 8.58223 6.49976 8.37512 6.49976Z" fill="white"/>
<path d="M8.37512 8.74976H7.62512C7.41802 8.74976 7.25012 8.91765 7.25012 9.12476V9.87476C7.25012 10.0819 7.41802 10.2498 7.62512 10.2498H8.37512C8.58223 10.2498 8.75012 10.0819 8.75012 9.87476V9.12476C8.75012 8.91765 8.58223 8.74976 8.37512 8.74976Z" fill="white"/>
<path d="M8.37512 10.9998H7.62512C7.41802 10.9998 7.25012 11.1676 7.25012 11.3748V12.1248C7.25012 12.3319 7.41802 12.4998 7.62512 12.4998H8.37512C8.58223 12.4998 8.75012 12.3319 8.75012 12.1248V11.3748C8.75012 11.1676 8.58223 10.9998 8.37512 10.9998Z" fill="white"/>
<path d="M10.6251 6.49976H9.87512C9.66802 6.49976 9.50012 6.66765 9.50012 6.87476V7.62476C9.50012 7.83186 9.66802 7.99976 9.87512 7.99976H10.6251C10.8322 7.99976 11.0001 7.83186 11.0001 7.62476V6.87476C11.0001 6.66765 10.8322 6.49976 10.6251 6.49976Z" fill="white"/>
<path d="M10.6251 8.74976H9.87512C9.66802 8.74976 9.50012 8.91765 9.50012 9.12476V9.87476C9.50012 10.0819 9.66802 10.2498 9.87512 10.2498H10.6251C10.8322 10.2498 11.0001 10.0819 11.0001 9.87476V9.12476C11.0001 8.91765 10.8322 8.74976 10.6251 8.74976Z" fill="white"/>
<path d="M10.6251 10.9998H9.87512C9.66802 10.9998 9.50012 11.1676 9.50012 11.3748V12.1248C9.50012 12.3319 9.66802 12.4998 9.87512 12.4998H10.6251C10.8322 12.4998 11.0001 12.3319 11.0001 12.1248V11.3748C11.0001 11.1676 10.8322 10.9998 10.6251 10.9998Z" fill="white"/>
</svg>
