<svg width="56" height="56" viewBox="0 0 56 56" fill="none" xmlns="http://www.w3.org/2000/svg">
<path d="M31.7332 9.33398H17.7332C16.743 9.33398 15.0452 9.54249 14.1601 10.4275C13.2751 11.3125 13.0667 13.0105 13.0667 14.0007V42.934C13.0667 43.9242 13.46 44.8737 14.1601 45.5738C14.8602 46.274 15.8097 46.6673 16.7999 46.6673H39.2C40.1902 46.6673 41.1397 46.274 41.8398 45.5738C42.54 44.8737 42.9333 43.9242 42.9333 42.934V20.534L31.7332 9.33398Z" fill="#48B9FF"/>
<path d="M31.7333 9.33398V16.534C31.7333 18.7431 33.5241 20.534 35.7333 20.534H42.9333" fill="white" fill-opacity="0.25"/>
<path d="M24 27.7672C24 26.9899 24.848 26.5098 25.5145 26.9097L32.5708 31.1435C33.2182 31.5319 33.2182 32.4701 32.5708 32.8585L25.5145 37.0923C24.848 37.4922 24 37.0121 24 36.2348V27.7672Z" fill="white"/>
</svg>
