<svg width="16" height="16" viewBox="0 0 16 16" fill="none" xmlns="http://www.w3.org/2000/svg">
<g clip-path="url(#clip0_5258_8643)">
<path d="M13.9839 0.665065V0.665086L13.9893 0.665043C14.1665 0.663618 14.3423 0.697501 14.5063 0.764717C14.6703 0.831932 14.8193 0.931135 14.9445 1.05654C15.0698 1.18194 15.1688 1.33103 15.2359 1.49511C15.3029 1.65919 15.3366 1.83498 15.335 2.01222L15.3349 2.01222V2.01831V8.02503C15.3349 12.0632 12.0632 15.335 8.02497 15.335H7.97947H7.97888C7.01869 15.3358 6.06775 15.1474 5.18041 14.7806C4.29307 14.4137 3.48674 13.8755 2.80749 13.1969C2.12825 12.5182 1.58942 11.7123 1.2218 10.8253C0.854173 9.93827 0.66497 8.98749 0.665 8.0273V8.02728C0.665 3.97861 3.92951 0.708612 7.97847 0.665065H13.9839Z" stroke="currentColor" stroke-width="1.33"/>
<path d="M7.97498 3.56378C5.95174 3.56378 4.31149 5.20377 4.31149 7.22727V9.71826C4.32599 10.385 4.86299 10.922 5.52974 10.9365H6.56598V8.07501H5.16599V7.27502C5.25099 5.76852 6.49773 4.59003 8.00698 4.59003C9.51622 4.59003 10.76 5.76627 10.845 7.27502V8.07501H9.42497V10.9385H10.3612V10.984C10.3512 11.6025 9.85247 12.1015 9.23622 12.109H8.11798C8.02698 12.109 7.92698 12.1545 7.92698 12.2452C7.92918 12.2952 7.95001 12.3425 7.98536 12.3779C8.02071 12.4132 8.06803 12.434 8.11798 12.4362H9.24297C10.0442 12.4312 10.6925 11.783 10.6975 10.9817V10.8907C10.9651 10.8305 11.204 10.6803 11.3743 10.4653C11.5447 10.2502 11.6362 9.98333 11.6337 9.709V7.27502C11.6792 5.21152 10.0427 3.56603 7.97023 3.56603L7.97498 3.56378Z" fill="currentColor"/>
</g>
<defs>
<clipPath id="clip0_5258_8643">
<rect width="16" height="16" fill="white"/>
</clipPath>
</defs>
</svg>
