<svg width="16" height="16" viewBox="0 0 16 16" fill="none" xmlns="http://www.w3.org/2000/svg">
<g clip-path="url(#clip0_5687_209715)">
<path d="M7.97497 6.46789e-05H13.9839C14.2495 -0.00207075 14.5128 0.0486912 14.7585 0.149389C15.0042 0.250087 15.2274 0.398705 15.415 0.586573C15.6027 0.774441 15.751 0.997797 15.8515 1.24361C15.9519 1.48943 16.0024 1.75278 15.9999 2.01831V8.02503C15.9999 12.4305 12.4304 16 8.02497 16H7.97947C6.9319 16.0009 5.89442 15.7954 4.92633 15.3951C3.95824 14.9949 3.07852 14.4077 2.33747 13.6673C1.59641 12.9269 1.00854 12.0477 0.607465 11.0799C0.206388 10.1122 -3.32492e-05 9.07485 4.01703e-09 8.02728C4.01704e-09 3.6093 3.56348 0.0455645 7.97497 6.46789e-05Z" fill="#25C16F"/>
<path d="M7.97498 3.56378C5.95174 3.56378 4.31149 5.20377 4.31149 7.22727V9.71826C4.32599 10.385 4.86299 10.922 5.52974 10.9365H6.56598V8.07501H5.16599V7.27502C5.25099 5.76852 6.49773 4.59003 8.00698 4.59003C9.51622 4.59003 10.76 5.76627 10.845 7.27502V8.07501H9.42497V10.9385H10.3612V10.984C10.3512 11.6025 9.85247 12.1015 9.23622 12.109H8.11798C8.02698 12.109 7.92698 12.1545 7.92698 12.2452C7.92918 12.2952 7.95001 12.3425 7.98536 12.3779C8.02071 12.4132 8.06803 12.434 8.11798 12.4362H9.24297C10.0442 12.4312 10.6925 11.783 10.6975 10.9817V10.8907C10.9651 10.8305 11.204 10.6803 11.3743 10.4653C11.5447 10.2502 11.6362 9.98333 11.6337 9.709V7.27502C11.6792 5.21152 10.0427 3.56603 7.97023 3.56603L7.97498 3.56378Z" fill="white"/>
</g>
<defs>
<clipPath id="clip0_5687_209715">
<rect width="16" height="16" rx="2" fill="white"/>
</clipPath>
</defs>
</svg>
