<svg width="16" height="16" viewBox="0 0 16 16" fill="none" xmlns="http://www.w3.org/2000/svg">
<g clip-path="url(#clip0_1504_35444)">
<path d="M5.99992 12.6663C2.66659 13.6663 2.66659 10.9996 1.33325 10.6663M10.6666 14.6663V12.0863C10.6916 11.7684 10.6486 11.4488 10.5406 11.1488C10.4325 10.8488 10.2619 10.5752 10.0399 10.3463C12.1333 10.113 14.3333 9.31963 14.3333 5.67963C14.3331 4.74885 13.975 3.85377 13.3333 3.17963C13.6372 2.3653 13.6157 1.4652 13.2733 0.6663C13.2733 0.6663 12.4866 0.432966 10.6666 1.65297C9.13859 1.23885 7.52791 1.23885 5.99992 1.65297C4.17992 0.432966 3.39325 0.6663 3.39325 0.6663C3.05084 1.4652 3.02935 2.3653 3.33325 3.17963C2.68667 3.85877 2.32827 4.76194 2.33325 5.69963C2.33325 9.31297 4.53325 10.1063 6.62659 10.3663C6.40725 10.5929 6.23809 10.8632 6.13012 11.1596C6.02215 11.4559 5.97779 11.7717 5.99992 12.0863V14.6663" stroke="currentColor" stroke-width="1.33" stroke-linecap="round" stroke-linejoin="round"/>
</g>
<defs>
<clipPath id="clip0_1504_35444">
<rect width="16" height="16" fill="white"/>
</clipPath>
</defs>
</svg>
