<svg width="16" height="16" viewBox="0 0 16 16" fill="none" xmlns="http://www.w3.org/2000/svg">
<rect width="16" height="16" rx="2" fill="white"/>
<path fill-rule="evenodd" clip-rule="evenodd" d="M7.99945 1C4.13446 1 1 4.13404 1 8.00032C1 11.0927 3.00556 13.7166 5.7872 14.6427C6.13743 14.7067 6.26506 14.4905 6.26506 14.3049C6.26506 14.1386 6.25897 13.6985 6.25532 13.1145C4.3082 13.5374 3.89739 12.176 3.89739 12.176C3.57896 11.3673 3.12 11.152 3.12 11.152C2.48443 10.7179 3.16812 10.7265 3.16812 10.7265C3.87072 10.776 4.24029 11.448 4.24029 11.448C4.8647 12.5176 5.87885 12.2087 6.27765 12.0295C6.34123 11.5774 6.52216 11.2688 6.72198 11.0939C5.16766 10.9169 3.53339 10.3166 3.53339 7.63419C3.53339 6.8697 3.80627 6.2453 4.25405 5.75584C4.18181 5.57878 3.94163 4.86714 4.32287 3.90325C4.32287 3.90325 4.9103 3.71504 6.24763 4.6205C6.80585 4.46535 7.40489 4.388 8.00007 4.38499C8.59481 4.38743 9.19343 4.46539 9.7525 4.6205C11.089 3.71504 11.6755 3.90325 11.6755 3.90325C12.0576 4.86714 11.8174 5.57878 11.7456 5.75584C12.1942 6.2453 12.465 6.8697 12.465 7.63419C12.465 10.3234 10.8281 10.9152 9.26905 11.0883C9.52001 11.3045 9.7439 11.7317 9.7439 12.3849C9.7439 13.3204 9.73538 14.0754 9.73538 14.3049C9.73538 14.4922 9.86171 14.7101 10.2167 14.6418C12.9962 13.714 15 11.0922 15 8.00032C15 4.13404 11.8657 1 7.99945 1Z" fill="#1B1817"/>
</svg>
