<svg width="16" height="16" viewBox="0 0 16 16" fill="none" xmlns="http://www.w3.org/2000/svg">
<g clip-path="url(#clip0_1504_35524)">
<path d="M15.1001 9.5938L8.0001 14.7538L0.900096 9.5938C0.804913 9.5238 0.734309 9.42548 0.698386 9.31292C0.662463 9.20036 0.663061 9.07933 0.700096 8.96713L1.51343 6.44713L3.1401 1.44046C3.15587 1.39967 3.18099 1.36314 3.21343 1.3338C3.26626 1.28554 3.33522 1.25879 3.40676 1.25879C3.47831 1.25879 3.54727 1.28554 3.6001 1.3338C3.63435 1.36691 3.65959 1.40821 3.67343 1.4538L5.3001 6.44713H10.7001L12.3268 1.44046C12.3425 1.39967 12.3677 1.36314 12.4001 1.3338C12.4529 1.28554 12.5219 1.25879 12.5934 1.25879C12.665 1.25879 12.7339 1.28554 12.7868 1.3338C12.821 1.36691 12.8463 1.40821 12.8601 1.4538L14.4868 6.46046L15.3334 8.96713C15.3671 9.08279 15.3626 9.20622 15.3206 9.31911C15.2785 9.432 15.2012 9.52833 15.1001 9.5938V9.5938Z" stroke="currentColor" stroke-width="1.33" stroke-linecap="round" stroke-linejoin="round"/>
</g>
<defs>
<clipPath id="clip0_1504_35524">
<rect width="16" height="16" fill="white"/>
</clipPath>
</defs>
</svg>
