<svg width="16" height="16" viewBox="0 0 16 16" fill="none" xmlns="http://www.w3.org/2000/svg">
<rect width="16" height="16" rx="2" fill="white"/>
<path d="M7.99513 14.5662L10.5711 6.63815H5.41913L7.99513 14.5662Z" fill="#E24329"/>
<path d="M7.99516 14.5662L5.41916 6.63815H1.80896L7.99516 14.5662Z" fill="#FC6D26"/>
<path d="M1.80894 6.63815L1.02614 9.04742C0.954742 9.26715 1.03294 9.50789 1.21988 9.64369L7.99514 14.5662L1.80894 6.63815Z" fill="#FCA326"/>
<path d="M1.80896 6.63817H5.41916L3.86763 1.86317C3.78783 1.61744 3.44023 1.6175 3.36043 1.86317L1.80896 6.63817Z" fill="#E24329"/>
<path d="M7.99512 14.5662L10.5711 6.63815H14.1813L7.99512 14.5662Z" fill="#FC6D26"/>
<path d="M14.1813 6.63815L14.9641 9.04742C15.0355 9.26715 14.9573 9.50789 14.7704 9.64369L7.99512 14.5662L14.1813 6.63815Z" fill="#FCA326"/>
<path d="M14.1813 6.63817H10.5711L12.1226 1.86317C12.2024 1.61744 12.55 1.6175 12.6298 1.86317L14.1813 6.63817Z" fill="#E24329"/>
</svg>
