<svg width="16" height="16" viewBox="0 0 16 16" fill="none" xmlns="http://www.w3.org/2000/svg">
<rect width="16" height="16" rx="2" fill="white"/>
<path d="M2 5.80066V11.5007C2 12.1673 2.33333 12.5007 3 12.5007H4.73333V5.80066" fill="#4285F4"/>
<path d="M11.2667 5.80066V12.5007H13C13.6667 12.5007 14 12.1673 14 11.5007V5.80066" fill="#34A853"/>
<path d="M11.1333 7.96731V4.43397L12.0667 3.73397C12.8667 3.13397 14 3.80064 14 4.73397V5.80064" fill="#FBBC04"/>
<path d="M4.6 7.76731V4.23398L8 6.80065L11.2667 4.33398V7.86731L8 10.334" fill="#EA4335"/>
<path d="M2 5.80065V4.73398C2 3.76732 3.13333 3.13398 3.93333 3.73398L4.73333 4.33398V7.86732" fill="#C5221F"/>
</svg>
