<svg width="16" height="16" viewBox="0 0 16 16" fill="none" xmlns="http://www.w3.org/2000/svg">
<rect width="16" height="16" rx="2" fill="white"/>
<path d="M2.05842 12.4705L2.67583 13.5369C2.80412 13.7614 2.98854 13.9378 3.20504 14.0661L5.41008 10.2494H1C1 10.498 1.06415 10.7466 1.19244 10.9711L2.05842 12.4705Z" fill="#0066DA"/>
<path d="M7.99999 5.75916L5.79495 1.94244C5.57846 2.07074 5.39404 2.24714 5.26575 2.47165L1.19244 9.52777C1.06651 9.74744 1.00017 9.99621 1 10.2494H5.41008L7.99999 5.75916Z" fill="#00AC47"/>
<path d="M12.795 14.0661C13.0115 13.9378 13.1959 13.7614 13.3242 13.5369L13.5808 13.0959L14.8076 10.9711C14.9358 10.7466 15 10.498 15 10.2494H10.5896L11.5281 12.0936L12.795 14.0661Z" fill="#EA4335"/>
<path d="M7.99999 5.75916L10.205 1.94244C9.98853 1.81415 9.73997 1.75 9.48338 1.75H6.5166C6.26002 1.75 6.01145 1.82216 5.79495 1.94244L7.99999 5.75916Z" fill="#00832D"/>
<path d="M10.5899 10.2494H5.41009L3.20505 14.0661C3.42154 14.1944 3.67011 14.2586 3.9267 14.2586H12.0733C12.3299 14.2586 12.5785 14.1864 12.795 14.0661L10.5899 10.2494Z" fill="#2684FC"/>
<path d="M12.7709 5.99971L10.7342 2.47165C10.6059 2.24714 10.4215 2.07074 10.205 1.94244L7.99997 5.75916L10.5899 10.2494H14.9919C14.9919 10.0009 14.9278 9.75229 14.7995 9.52777L12.7709 5.99971Z" fill="#FFBA00"/>
</svg>
