<svg width="16" height="16" viewBox="0 0 16 16" fill="none" xmlns="http://www.w3.org/2000/svg">
<g clip-path="url(#clip0_5262_214248)">
<path d="M1.20963 13.102L1.91524 14.3208C2.06186 14.5774 2.27262 14.779 2.52004 14.9256C3.22873 14.026 3.72205 13.3357 4 12.8546C4.28207 12.3664 4.62877 11.6027 5.0401 10.5636C3.93161 10.4177 3.0916 10.3448 2.52004 10.3448C1.97157 10.3448 1.13156 10.4177 0 10.5636C0 10.8477 0.0733111 11.1318 0.219931 11.3884L1.20963 13.102Z" fill="currentColor"/>
<path d="M13.48 14.9256C13.7274 14.779 13.9382 14.5774 14.0848 14.3208L14.378 13.8168L15.7801 11.3884C15.9267 11.1318 16 10.8477 16 10.5636C14.8619 10.4177 14.0234 10.3448 13.4845 10.3448C12.9054 10.3448 12.0669 10.4177 10.9691 10.5636C11.3756 11.6084 11.7177 12.3721 11.9954 12.8546C12.2756 13.3414 12.7705 14.0317 13.48 14.9256Z" fill="currentColor"/>
<path d="M8.00001 5.43191C8.81999 4.44157 9.3851 3.67792 9.69531 3.14096C9.94511 2.70859 10.22 2.01825 10.52 1.06994C10.2726 0.923315 9.98854 0.850006 9.69531 0.850006H6.3047C6.01145 0.850006 5.72738 0.932479 5.47995 1.06994C5.86159 2.15756 6.18542 2.9316 6.45144 3.39207C6.74543 3.90093 7.26162 4.58087 8.00001 5.43191Z" fill="currentColor"/>
<path d="M10.9599 10.5637H5.04009L2.52005 14.9256C2.76748 15.0723 3.05155 15.1455 3.3448 15.1455H12.6552C12.9485 15.1455 13.2325 15.0631 13.48 14.9256L10.9599 10.5637Z" fill="currentColor"/>
<path d="M8 5.43192L5.47996 1.06995C5.23254 1.21657 5.02176 1.41816 4.87514 1.67476L0.219931 9.7389C0.0733111 9.9955 0 10.2796 0 10.5637H5.0401L8 5.43192Z" fill="currentColor"/>
<path d="M13.4525 5.70684L11.1249 1.67476C10.9782 1.41816 10.7675 1.21657 10.52 1.06995L8 5.43192L10.9599 10.5637H15.9908C15.9908 10.2796 15.9175 9.9955 15.7709 9.7389L13.4525 5.70684Z" fill="currentColor"/>
</g>
<defs>
<clipPath id="clip0_5262_214248">
<rect width="16" height="16" fill="white"/>
</clipPath>
</defs>
</svg>
