<svg xmlns="http://www.w3.org/2000/svg" width="16" height="16" viewBox="0 0 16 16" fill="none">
    <g clip-path="url(#clip0_6285_222376)">
        <path d="M5.5188 11.8648C5.98154 12.4545 6.4027 13.0756 6.77922 13.7238C7.1007 14.3334 7.2347 14.7467 7.46967 15.4812C7.61374 15.887 7.74396 16.0081 8.02392 16.0081C8.32903 16.0081 8.46744 15.8021 8.57439 15.4834C8.79646 14.7898 8.97073 14.2604 9.24565 13.7603C9.78511 12.7946 10.4554 11.9365 11.1141 11.1117C11.2925 10.8783 12.4453 9.5185 12.9643 8.44555C12.9643 8.44555 13.6022 7.26691 13.6022 5.62085C13.6022 4.0811 12.9731 3.01318 12.9731 3.01318L11.1619 3.49823L10.0619 6.39528L9.78983 6.79477L9.73541 6.86711L9.66306 6.9577L9.53598 7.1024L9.35448 7.2839L8.37496 8.08193L5.92615 9.49585L5.5188 11.8648Z" fill="#34A853"/>
        <path d="M2.99121 8.24732C3.58887 9.61249 4.7414 10.8125 5.52118 11.8657L9.66292 6.95953C9.66292 6.95953 9.07942 7.72265 8.02095 7.72265C6.84199 7.72265 5.88952 6.78118 5.88952 5.59405C5.88952 4.77998 6.37928 4.2207 6.37928 4.2207L3.56779 4.97406L2.99121 8.24732Z" fill="#FBBC04"/>
        <path d="M9.70917 0.264648C11.0847 0.708171 12.2621 1.63925 12.9742 3.01229L9.66419 6.95681C9.66419 6.95681 10.1539 6.38746 10.1539 5.57843C10.1539 4.36362 9.13101 3.45612 8.02598 3.45612C6.98103 3.45612 6.38086 4.21798 6.38086 4.21798V1.73299L9.70917 0.264648Z" fill="#4285F4"/>
        <path d="M3.75 2.00743C4.57162 1.02445 6.01731 0.012207 8.01033 0.012207C8.97728 0.012207 9.70579 0.266053 9.70579 0.266053L6.37779 4.22001H4.01989L3.75 2.00743Z" fill="#1A73E8"/>
        <path d="M2.99125 8.24715C2.99125 8.24715 2.44141 7.17043 2.44141 5.61055C2.44141 4.13623 3.01453 2.8475 3.74996 2.00732L6.37964 4.22022L2.99125 8.24715Z" fill="#EA4335"/>
    </g>
    <defs>
        <clipPath id="clip0_6285_222376">
            <rect width="16" height="16" fill="white"/>
        </clipPath>
    </defs>
</svg>