<svg width="16" height="16" viewBox="0 0 16 16" fill="none" xmlns="http://www.w3.org/2000/svg">
<rect width="16" height="16" rx="2" fill="#38B2A7"/>
<path d="M10.1382 2.73284L10.1383 2.73288L10.1407 2.73199C10.435 2.62508 10.8698 2.38062 10.8698 1.83183C10.8698 1.32364 10.463 0.9 9.95081 0.9C9.44375 0.9 9.01839 1.30566 9.01839 1.80617C9.01839 1.91379 9.03643 2.01616 9.05275 2.10382C9.05381 2.10955 9.05487 2.11521 9.05591 2.12078C9.07154 2.20449 9.08372 2.26972 9.08372 2.32592C9.08372 2.42232 9.04954 2.49247 8.98722 2.54122C8.92151 2.59262 8.81303 2.629 8.65056 2.629C8.56462 2.629 8.46998 2.62095 8.36266 2.61182C8.35486 2.61116 8.34698 2.61049 8.33904 2.60982C8.22363 2.60004 8.09637 2.58992 7.96164 2.58992C6.55553 2.58992 5.40464 3.72599 5.40464 5.13408C5.40464 5.86539 5.70386 6.48795 6.18814 6.97225C6.41245 7.19681 6.67994 7.35262 6.90463 7.48349C6.95151 7.5108 6.99652 7.53701 7.03889 7.56255C7.16511 7.6386 7.26536 7.7067 7.33412 7.77867C7.40049 7.84814 7.43231 7.91562 7.43231 7.99358C7.43231 8.10865 7.38942 8.18154 7.30623 8.24635C7.21485 8.31752 7.08024 8.37465 6.89863 8.44848C6.89028 8.45187 6.88187 8.45529 6.87338 8.45873C6.51961 8.60239 6.04323 8.79582 5.57743 9.26162C4.94888 9.88959 4.55997 10.7206 4.55997 11.6867C4.55997 13.5872 6.0872 15.1 8.00072 15.1C9.91427 15.1 11.4415 13.5872 11.4415 11.6855C11.4415 10.7212 11.0526 9.88958 10.424 9.26162C9.9584 8.79572 9.48178 8.6023 9.12777 8.45864C9.11935 8.45522 9.111 8.45183 9.10273 8.44847C8.92099 8.37464 8.78625 8.31751 8.69477 8.24632C8.61147 8.18149 8.56856 8.1086 8.56856 7.99358C8.56856 7.91564 8.60039 7.84812 8.66683 7.7786C8.73565 7.70657 8.83598 7.63842 8.96226 7.56233C9.00478 7.53671 9.04996 7.5104 9.09702 7.483C9.32171 7.35216 9.58908 7.19646 9.81322 6.97234C10.2978 6.48839 10.5968 5.8659 10.5968 5.15917C10.5968 4.51675 10.3861 4.08241 10.1781 3.75557C10.1265 3.67458 10.0751 3.60013 10.028 3.5319C9.98041 3.46301 9.9378 3.40131 9.90154 3.34296C9.82777 3.22426 9.79064 3.1349 9.79064 3.05392C9.79064 2.96789 9.82205 2.91034 9.87648 2.86302C9.93573 2.81153 10.024 2.77102 10.1382 2.73284ZM8.00072 9.45917C9.22713 9.45917 10.1366 10.4497 10.1366 11.6867C10.1366 12.91 9.22679 13.9136 8.00072 13.9136C6.77463 13.9136 5.86481 12.9111 5.86481 11.6867C5.86481 10.4497 6.77431 9.45917 8.00072 9.45917ZM8.00072 3.739C8.74998 3.739 9.36956 4.36803 9.36956 5.1335C9.36956 5.89907 8.74988 6.52917 8.00072 6.52917C7.25157 6.52917 6.63189 5.89907 6.63189 5.1335C6.63189 4.36803 7.25147 3.739 8.00072 3.739Z" fill="white" stroke="white" stroke-width="0.2"/>
</svg>
