<svg width="16" height="16" viewBox="0 0 16 16" fill="none" xmlns="http://www.w3.org/2000/svg">
<rect width="16" height="16" rx="2" fill="#F54F35"/>
<path d="M10.8694 2.98647L11.0539 3.13445C11.681 3.69598 12.0963 4.49447 12.2324 5.32295C12.2418 5.50043 12.2468 5.6781 12.2481 5.85586L12.251 6.17197L12.2522 6.51095L12.2538 6.86269C12.2548 7.10822 12.2554 7.35374 12.2558 7.59917C12.2567 7.97301 12.2598 8.34684 12.2628 8.72078C12.2635 8.95978 12.2639 9.19878 12.2643 9.43769L12.268 9.77424C12.2648 10.9149 11.9397 11.8995 11.1509 12.7481C10.7077 13.1599 10.2603 13.4658 9.70121 13.6953L9.46883 13.798C8.56587 14.1247 7.49255 14.0314 6.60868 13.688C6.12036 13.4563 5.71731 13.1847 5.32031 12.8192C5.67837 12.3785 6.0417 12.002 6.48855 11.6509L6.78674 11.8821C7.32919 12.2675 7.87077 12.3894 8.53297 12.3324C9.21055 12.1977 9.7455 11.8941 10.188 11.3589C10.5943 10.6984 10.6348 10.169 10.6291 9.40264L10.6303 9.06453C10.6305 8.82952 10.6298 8.59461 10.6281 8.3596C10.6262 8.00134 10.6281 7.64308 10.6306 7.28482C10.6303 7.05574 10.6299 6.82677 10.6291 6.5977L10.6315 6.27526C10.622 5.49682 10.4629 4.98922 9.9811 4.37979C9.32046 3.84844 8.70528 3.58042 7.8477 3.62121C7.13439 3.73687 6.55504 4.07877 6.11705 4.65326C5.75567 5.22677 5.59874 5.81653 5.70972 6.49119C5.92302 7.22592 6.19834 7.84908 6.87796 8.24355C7.44728 8.54155 7.93833 8.58653 8.57561 8.60259L8.84761 8.61262C9.06724 8.6206 9.28687 8.62693 9.5065 8.63297V10.1906C7.88245 10.2561 6.62338 10.2543 5.33472 9.13453C4.52863 8.32689 4.03622 7.23127 4 6.08961C4.03836 5.12873 4.3826 4.34757 4.93089 3.57059L5.09523 3.32107C6.65385 1.67833 9.12196 1.56861 10.8694 2.98647Z" fill="white"/>
</svg>
