<svg width="16" height="16" viewBox="0 0 16 16" fill="none" xmlns="http://www.w3.org/2000/svg">
<path d="M14 10.6669V5.33359C13.9998 5.09978 13.938 4.87013 13.821 4.6677C13.704 4.46527 13.5358 4.29717 13.3333 4.18026L8.66667 1.51359C8.46397 1.39657 8.23405 1.33496 8 1.33496C7.76595 1.33496 7.53603 1.39657 7.33333 1.51359L2.66667 4.18026C2.46418 4.29717 2.29599 4.46527 2.17897 4.6677C2.06196 4.87013 2.00024 5.09978 2 5.33359V10.6669C2.00024 10.9007 2.06196 11.1304 2.17897 11.3328C2.29599 11.5353 2.46418 11.7034 2.66667 11.8203L7.33333 14.4869C7.53603 14.604 7.76595 14.6656 8 14.6656C8.23405 14.6656 8.46397 14.604 8.66667 14.4869L13.3333 11.8203C13.5358 11.7034 13.704 11.5353 13.821 11.3328C13.938 11.1304 13.9998 10.9007 14 10.6669Z" stroke="currentColor" stroke-width="1.33" stroke-linecap="round" stroke-linejoin="round"/>
</svg>
