<svg xmlns="http://www.w3.org/2000/svg" width="24" height="24" viewBox="0 0 24 24" fill="none">
    <path d="M2.39542 0.197748C2.44781 0.0503232 2.60526 -0.0300794 2.75432 0.0104613L2.77554 0.0170814C2.77554 0.0170814 7.51263 1.81089 10.817 3.06217C11.1972 2.9998 11.5746 2.96877 11.946 2.97142C13.3494 2.9811 14.6748 3.29494 16.0038 4.07697L23.7385 3.43912C23.83 3.43506 23.9164 3.48105 23.9638 3.55911C24.0314 3.67037 24.0014 3.81327 23.8982 3.88884L23.8763 3.90317C23.7803 3.95885 21.3578 5.36436 19.0444 6.70658C19.1225 6.79573 19.2007 6.88682 19.2791 6.97983C21.4805 9.59448 22.8196 13.3778 23.4592 15.5654C23.8368 16.8573 23.5916 18.2507 22.7952 19.3376C21.3577 21.2974 18.292 23.9654 12.2774 23.9228C5.71109 23.8775 2.31947 20.6234 0.689952 18.6235C-0.00442019 17.7644 -0.189804 16.603 0.202796 15.5717L0.324691 15.2542C1.2863 12.763 3.07769 8.43603 4.51263 6.82714C5.37651 5.85967 6.3727 5.02433 7.42517 4.38095L2.48638 0.525361C2.39003 0.445992 2.3537 0.315147 2.39542 0.197748Z" fill="#FF4C46"/>
    <path d="M12.0906 17.1337C12.1011 17.1068 12.1315 17.0934 12.1586 17.1039C13.2081 17.7041 14.468 17.8145 15.605 17.4088L15.6705 17.3848C15.6908 17.3754 15.7149 17.3806 15.7295 17.3975C15.745 17.4154 15.7454 17.4411 15.7321 17.4593L14.2927 19.0382C14.2012 19.1378 14.0467 19.1467 13.9442 19.0583C13.412 18.6028 12.523 17.6509 12.097 17.1836C12.0865 17.1691 12.0841 17.1503 12.0906 17.1337ZM14.0889 9.04789C17.8111 6.46824 19.829 8.70749 20.9612 11.1915C21.7791 12.9817 22.0688 16.3334 19.4135 16.8471C17.3796 17.2422 15.5001 15.1895 14.1101 13.2731C13.9674 13.0769 13.692 13.033 13.495 13.1751C13.4579 13.2019 13.4252 13.2343 13.3981 13.2711L13.3415 13.3495C12.3901 14.6785 10.1212 18.2914 6.76345 17.377C3.52343 16.4935 2.81153 12.863 4.15898 10.3534C6.1529 6.56927 9.06573 5.33628 14.0889 9.04789ZM13.5598 14.2407C13.6882 14.1177 13.8889 14.1159 14.0194 14.2325L14.0381 14.2506L15.8169 16.2697C15.8263 16.2804 15.8345 16.2923 15.8411 16.3049C15.8871 16.3929 15.8528 16.5012 15.7645 16.547C15.2291 16.8189 14.639 16.9673 14.0382 16.9811C13.2473 16.9746 12.4378 16.4517 12.1065 16.2113L12.093 16.2004C12.0236 16.1389 12.0132 16.036 12.0659 15.9623L12.0781 15.947L13.5398 14.2582L13.5422 14.2589C13.5478 14.2526 13.5537 14.2465 13.5598 14.2407Z" fill="white"/>
    <path d="M18.4086 11.2785L18.4291 11.3117C18.8595 11.9772 18.6668 12.8643 17.9986 13.293C17.3305 13.7217 16.44 13.5298 16.0095 12.8642C15.5909 12.2169 15.7614 11.3585 16.3889 10.9173L16.4236 10.8936C17.0485 10.4481 17.9177 10.5915 18.365 11.214C18.3801 11.2351 18.3947 11.2566 18.4086 11.2785ZM9.41078 10.5149C8.66177 10.7693 8.28937 11.5617 8.51255 12.2997C8.76788 13.0458 9.56339 13.4167 10.3043 13.1944C11.0533 12.9401 11.4196 12.1376 11.2025 11.4097C11.2045 11.4049 11.1996 11.3912 11.1905 11.3747C10.96 10.6564 10.2241 10.2768 9.52354 10.4752C9.49137 10.4671 9.45109 10.491 9.41078 10.5149Z" fill="#FF4C46"/>
</svg>