<svg width="16" height="16" viewBox="0 0 16 16" fill="none" xmlns="http://www.w3.org/2000/svg">
<path d="M13.8705 7.64968C13.5586 7.11734 13.1136 6.67529 12.5792 6.36695C12.1712 6.12984 11.7494 5.97925 11.273 5.9141V4.20842C11.504 4.1127 11.701 3.94987 11.8385 3.74099C11.9759 3.53212 12.0476 3.2868 12.0441 3.03677C12.045 2.86792 12.0125 2.70057 11.9484 2.54433C11.8844 2.38809 11.7901 2.24605 11.671 2.12636C11.5519 2.00666 11.4104 1.91168 11.2544 1.84687C11.0985 1.78206 10.9313 1.7487 10.7625 1.7487C10.4205 1.7487 10.0924 1.88427 9.85016 2.12571C9.60793 2.36715 9.47127 2.69476 9.47014 3.03677C9.47014 3.56012 9.74783 4.00656 10.2253 4.20842V5.90449C9.82978 5.96171 9.44608 6.08216 9.08885 6.26121L4.52293 2.80394C4.55497 2.68325 4.58274 2.55828 4.58274 2.42691C4.58274 1.63869 3.94405 1 3.15583 1C2.36761 1 1.72998 1.63869 1.72998 2.42691C1.72998 3.21514 2.36867 3.85383 3.1569 3.85383C3.42604 3.85383 3.6749 3.77479 3.88958 3.64556L4.18863 3.87199L8.2846 6.82514C8.06779 7.0238 7.86593 7.25023 7.70465 7.50443C7.37783 8.02243 7.1781 8.5917 7.1781 9.2133V9.34147C7.17955 9.76303 7.25548 10.181 7.40239 10.5761C7.52629 10.9136 7.70786 11.2212 7.93322 11.4989L6.57252 12.8628C6.16986 12.7133 5.71808 12.8126 5.41369 13.117C5.20648 13.3232 5.09007 13.6041 5.09113 13.8967C5.0922 14.1893 5.20648 14.4681 5.41475 14.6764C5.62302 14.8846 5.90178 15 6.19443 15C6.48708 15 6.76797 14.8846 6.97411 14.6764C7.18024 14.4681 7.29773 14.1893 7.29666 13.8967C7.29657 13.7844 7.27928 13.6727 7.24539 13.5656L8.65094 12.1601C8.84319 12.2936 9.05146 12.4057 9.27575 12.5018C9.73674 12.704 10.2345 12.8087 10.7379 12.8094H10.834C11.4236 12.8094 11.9801 12.6706 12.5023 12.3875C13.0392 12.0997 13.4902 11.6748 13.8096 11.1561C14.1375 10.6327 14.3169 10.0528 14.3169 9.41517V9.38312C14.3169 8.75618 14.1717 8.17836 13.8684 7.64861L13.8705 7.64968ZM12.1541 10.5996C11.7729 11.0236 11.3339 11.2853 10.8383 11.2853H10.7443C10.4613 11.2853 10.1836 11.2074 9.91338 11.0642C9.61709 10.9102 9.36604 10.6816 9.18497 10.401C8.98845 10.1233 8.88164 9.81996 8.88164 9.49847V9.40235C8.88164 9.08621 8.94252 8.78608 9.09525 8.50305C9.25867 8.18264 9.47975 7.95301 9.77347 7.76183C10.0672 7.57064 10.3694 7.47879 10.7133 7.47879H10.7454C11.0551 7.47879 11.351 7.53967 11.6287 7.68172C11.91 7.82967 12.1489 8.04693 12.3229 8.31294C12.4951 8.5797 12.6017 8.88351 12.6337 9.19942L12.6412 9.39915C12.6412 9.83384 12.4746 10.2365 12.1424 10.6018L12.1541 10.5996Z" fill="currentColor"/>
</svg>
