<svg xmlns="http://www.w3.org/2000/svg" width="24" height="24" viewBox="0 0 24 24" fill="none">
  <path d="M21.63 16.1907C21.5796 16.0007 21.498 15.8204 21.3886 15.6571C21.412 15.5711 21.4299 15.4837 21.4418 15.3954C21.5196 14.8352 21.3253 14.3223 20.9593 13.9254C20.761 13.7087 20.5485 13.5655 20.3234 13.4777C20.4711 12.8455 20.5459 12.1985 20.5462 11.5494C20.5462 11.2529 20.5295 10.9625 20.5013 10.6763C20.4867 10.5335 20.469 10.391 20.4482 10.2488C20.3838 9.82948 20.2881 9.41548 20.1621 9.01039C20.0796 8.74421 19.984 8.4822 19.8758 8.22533C19.7137 7.84491 19.5245 7.47664 19.3095 7.12339C19.1685 6.88836 19.0149 6.66109 18.8495 6.44258C18.7684 6.33223 18.6839 6.2245 18.596 6.11952C18.3355 5.80302 18.0525 5.5058 17.7491 5.2302C17.6483 5.13755 17.5447 5.04807 17.4383 4.96189C17.3336 4.87454 17.2266 4.79002 17.1173 4.70839C16.8975 4.54476 16.6703 4.39125 16.4365 4.24836C15.1446 3.46367 13.6295 3.01367 12.0101 3.01367C7.29524 3.01367 3.47399 6.83511 3.47399 11.5497C3.4738 12.2071 3.54993 12.8622 3.70087 13.502C3.49837 13.5899 3.3043 13.727 3.1243 13.9252C2.7584 14.3219 2.56405 14.8329 2.64177 15.3932C2.65359 15.4821 2.6713 15.5703 2.69493 15.6569C2.58563 15.8203 2.50412 16.0007 2.45371 16.1907C2.34121 16.6183 2.37824 17.0039 2.52121 17.3418C2.36577 17.7833 2.40459 18.2536 2.60699 18.6624C2.75418 18.961 2.96484 19.192 3.22452 19.3985C3.53324 19.6439 3.91968 19.8524 4.3858 20.0525C4.94193 20.2896 5.62077 20.5125 5.92949 20.5942C6.72693 20.8007 7.49155 20.9315 8.26649 20.9379C9.37059 20.9481 10.3214 20.6885 11.0021 20.0241C11.3365 20.0651 11.6732 20.0856 12.0101 20.0855C12.3661 20.0847 12.7217 20.0623 13.0749 20.0184C13.7541 20.687 14.7085 20.949 15.8166 20.9385C16.5915 20.9323 17.3561 20.8014 18.1515 20.5947C18.4623 20.513 19.1408 20.2901 19.6972 20.0529C20.1634 19.8526 20.5498 19.6441 20.8606 19.399C21.1183 19.1925 21.3288 18.9616 21.4761 18.663C21.6805 18.254 21.7173 17.7838 21.564 17.3422C21.7056 17.0044 21.7424 16.6179 21.63 16.1907ZM20.8387 17.3132C20.9954 17.6105 21.0054 17.9464 20.8672 18.2592C20.6576 18.7333 20.1369 19.1068 19.1256 19.5078C18.4968 19.7571 17.921 19.9166 17.9159 19.918C17.0841 20.1337 16.3319 20.2433 15.6807 20.2433C14.6024 20.2433 13.8 19.9458 13.2911 19.3581C12.4306 19.5048 11.552 19.5097 10.6898 19.373C10.1803 19.9508 9.38249 20.2433 8.31327 20.2433C7.66199 20.2433 6.90984 20.1337 6.07799 19.918C6.07293 19.9166 5.4973 19.7571 4.86824 19.5078C3.85705 19.1068 3.33618 18.7336 3.12665 18.2592C2.98846 17.9464 2.99849 17.6105 3.15515 17.3132C3.16959 17.2855 3.18515 17.2586 3.20174 17.2325C3.10786 17.0915 3.04489 16.9323 3.01696 16.7651C2.98904 16.598 2.9968 16.427 3.03974 16.2631C3.10199 16.0265 3.23052 15.8299 3.40509 15.6886C3.32099 15.5504 3.26582 15.3966 3.2429 15.2365C3.19265 14.8883 3.30824 14.5407 3.56821 14.2572C3.77071 14.0366 4.05693 13.9152 4.3738 13.9152H4.38224C4.14332 13.1494 4.02219 12.3516 4.02299 11.5494C4.02299 7.17402 7.57012 3.62661 11.9462 3.62661C16.3221 3.62661 19.8693 7.17364 19.8693 11.5494C19.8699 12.3538 19.748 13.1536 19.5075 13.9212C19.5457 13.9175 19.5832 13.9156 19.6201 13.9155C19.937 13.9155 20.2233 14.0369 20.4256 14.2575C20.6856 14.5407 20.8012 14.8886 20.7509 15.2368C20.728 15.3969 20.6728 15.5507 20.5888 15.6889C20.7634 15.8301 20.892 16.0268 20.9541 16.2634C20.9971 16.4272 21.0049 16.5983 20.9769 16.7655C20.9491 16.9325 20.8861 17.0918 20.7921 17.2328C20.8087 17.2586 20.8245 17.2855 20.8387 17.3132Z" fill="white"/>
  <path d="M20.7918 17.233C20.8858 17.092 20.9488 16.9327 20.9767 16.7656C21.0046 16.5985 20.9968 16.4274 20.9538 16.2635C20.8916 16.027 20.763 15.8303 20.5885 15.689C20.6726 15.5508 20.7277 15.3971 20.7506 15.2369C20.8009 14.8888 20.6853 14.5411 20.4253 14.2576C20.223 14.037 19.9366 13.9156 19.6198 13.9156C19.5829 13.9156 19.5454 13.9176 19.5072 13.9214C19.7474 13.1537 19.8691 12.354 19.8683 11.5498C19.8683 7.17427 16.3212 3.62695 11.9456 3.62695C7.5699 3.62695 4.02239 7.17389 4.02239 11.5498C4.0216 12.352 4.14274 13.1497 4.38165 13.9155H4.3732C4.05633 13.9155 3.77012 14.0368 3.56771 14.2574C3.30774 14.5407 3.19205 14.8887 3.24239 15.2368C3.26533 15.3969 3.3205 15.5507 3.40458 15.6889C3.23002 15.8301 3.1014 16.0268 3.03915 16.2633C2.99623 16.4273 2.9885 16.5984 3.01645 16.7655C3.04441 16.9326 3.10741 17.092 3.20133 17.233C3.18464 17.259 3.16927 17.2859 3.15474 17.3136C2.99817 17.6109 2.98806 17.9468 3.12634 18.2596C3.33596 18.7337 3.85664 19.1072 4.86792 19.5082C5.4967 19.7576 6.07262 19.917 6.07768 19.9184C6.90943 20.1342 7.66168 20.2438 8.31287 20.2438C9.38218 20.2438 10.18 19.9513 10.6895 19.3734C11.5517 19.5102 12.4303 19.5051 13.2908 19.3586C13.7997 19.9462 14.6021 20.2438 15.6804 20.2438C16.3316 20.2438 17.0838 20.1342 17.9155 19.9184C17.9206 19.917 18.4963 19.7576 19.1253 19.5082C20.1366 19.1072 20.6574 18.7337 20.8669 18.2596C21.0051 17.9468 20.9951 17.6109 20.8384 17.3136C20.8242 17.2858 20.8084 17.2588 20.7918 17.233ZM10.3249 18.4687C10.2811 18.5454 10.2341 18.6203 10.1841 18.6931C10.0524 18.886 9.87915 19.0333 9.67806 19.1428C9.29367 19.3525 8.80712 19.4257 8.31287 19.4257C7.53203 19.4257 6.73159 19.243 6.28299 19.1266C6.26087 19.1209 3.53293 18.3504 3.87831 17.6945C3.93643 17.5842 4.03205 17.5401 4.15252 17.5401C4.6388 17.5401 5.52427 18.2642 5.9048 18.2642C5.98983 18.2642 6.04983 18.228 6.0743 18.1397C6.23648 17.5581 3.60933 17.3136 3.83058 16.4713C3.86958 16.3223 3.97553 16.2617 4.1244 16.2617C4.76734 16.2616 6.21034 17.3924 6.51212 17.3924C6.53528 17.3924 6.55186 17.3855 6.56086 17.3713C6.56217 17.3691 6.56349 17.367 6.56471 17.3648C6.70637 17.1309 6.62508 16.9608 5.65467 16.3664L5.56149 16.3097C4.49358 15.6634 3.74405 15.2744 4.17033 14.8104C4.21936 14.7569 4.28892 14.7331 4.37339 14.7331C4.47352 14.7331 4.59474 14.7666 4.72824 14.8228C5.29224 15.0607 6.07393 15.7093 6.40046 15.9922C6.45183 16.0368 6.50287 16.0819 6.55355 16.1273C6.55355 16.1273 6.96699 16.5572 7.21693 16.5572C7.27449 16.5572 7.32333 16.5345 7.35642 16.4785C7.53371 16.1796 5.70989 14.7975 5.60705 14.2273C5.5373 13.8409 5.65599 13.6452 5.87536 13.6452C5.9797 13.6452 6.10702 13.6896 6.24755 13.7788C6.68348 14.0554 7.52517 15.5018 7.83333 16.0645C7.93664 16.253 8.11298 16.3327 8.27189 16.3327C8.58717 16.3327 8.83364 16.0193 8.30077 15.621C7.49986 15.0218 7.78093 14.0423 8.16315 13.982C8.17946 13.9794 8.19595 13.9781 8.21236 13.9781C8.55998 13.9781 8.71327 14.577 8.71327 14.577C8.71327 14.577 9.1627 15.7056 9.93474 16.4771C10.6352 17.1773 10.7331 17.7519 10.3249 18.4687ZM12.8214 18.6009L12.7814 18.6057L12.7131 18.6134C12.6772 18.6172 12.6412 18.6208 12.6051 18.624L12.57 18.6272L12.5378 18.6299L12.4922 18.6336L12.4419 18.6373L12.3917 18.6405L12.3805 18.6413C12.3674 18.642 12.3542 18.6429 12.3409 18.6435L12.3242 18.6445C12.3086 18.6453 12.293 18.6461 12.2773 18.6467L12.2228 18.6491L12.1734 18.6508L12.1404 18.6517H12.1236C12.1133 18.6517 12.1031 18.6523 12.0928 18.6523H12.0765C12.0662 18.6523 12.0559 18.6523 12.0456 18.6528L12.0036 18.6534H11.945C11.899 18.6534 11.8531 18.6529 11.8073 18.652L11.7702 18.6511C11.7596 18.6511 11.749 18.6507 11.7386 18.6503L11.6992 18.6492L11.6504 18.6473L11.6063 18.6453L11.595 18.6448L11.5531 18.6427C11.5413 18.642 11.5298 18.6415 11.5182 18.6406L11.4911 18.639C11.4571 18.6369 11.423 18.6345 11.389 18.6319L11.3534 18.629C11.3384 18.6279 11.3234 18.6265 11.3085 18.6252C11.2909 18.6237 11.2734 18.622 11.2559 18.6203C11.2265 18.6176 11.1972 18.6146 11.1678 18.6114H11.1664C11.5949 17.6556 11.3782 16.7629 10.5124 15.8979C9.94459 15.3308 9.56687 14.4934 9.48849 14.3096C9.32986 13.7653 8.91006 13.1604 8.21284 13.1604C8.15387 13.1604 8.09499 13.1651 8.03678 13.1743C7.73134 13.2223 7.46434 13.3981 7.27384 13.6627C7.06796 13.4067 6.8679 13.2031 6.68696 13.0882C6.41415 12.9152 6.14189 12.8275 5.87667 12.8275C5.54564 12.8275 5.24977 12.9634 5.04352 13.21L5.03827 13.2163C5.03433 13.2 5.03058 13.1838 5.02673 13.1675L5.02627 13.1653C4.98701 12.9975 4.95406 12.8283 4.92745 12.658C4.92745 12.6568 4.92745 12.6557 4.92689 12.6546C4.92483 12.6418 4.92295 12.6288 4.92099 12.616C4.91522 12.5779 4.90981 12.5398 4.90477 12.5016C4.90252 12.4843 4.90008 12.4669 4.89792 12.4496L4.89155 12.3975C4.88949 12.3802 4.8878 12.3644 4.88592 12.3479L4.88537 12.3438C4.87788 12.2763 4.87132 12.2088 4.86567 12.1411L4.86361 12.1152L4.86033 12.0709C4.85939 12.0588 4.85845 12.0466 4.8578 12.0344C4.8578 12.0315 4.85733 12.0287 4.85724 12.026C4.85485 11.9921 4.85282 11.958 4.85114 11.924C4.8502 11.9063 4.84927 11.8887 4.84852 11.8709L4.84664 11.8244L4.84617 11.8103L4.84467 11.7674L4.84373 11.731C4.84373 11.7164 4.84299 11.7019 4.8428 11.6874C4.84252 11.6729 4.84214 11.6569 4.84205 11.6415C4.84186 11.6262 4.84205 11.611 4.84158 11.5957C4.8412 11.5803 4.84158 11.565 4.84158 11.5498C4.84158 7.62605 8.02261 4.44502 11.9467 4.44502C15.8707 4.44502 19.0516 7.62595 19.0516 11.5498V11.6415C19.0516 11.6568 19.0512 11.6722 19.0509 11.6874C19.0509 11.7 19.0503 11.7125 19.05 11.7254C19.05 11.7366 19.0495 11.7479 19.0491 11.7588C19.0491 11.7732 19.0483 11.7875 19.0478 11.8018V11.803L19.0458 11.8528C19.0452 11.8673 19.0446 11.8819 19.0439 11.8964L19.0434 11.9068L19.0409 11.9533C19.0353 12.0529 19.0277 12.1524 19.0183 12.2518V12.253C19.0167 12.2693 19.0151 12.2856 19.0133 12.3019L19.0091 12.3404L19.0007 12.4158L18.996 12.454L18.9901 12.4989C18.9879 12.5152 18.9857 12.5316 18.9833 12.5478C18.9809 12.5661 18.9781 12.5843 18.9754 12.6025L18.969 12.6455L18.9613 12.6943C18.9586 12.7105 18.9558 12.7266 18.9528 12.7427C18.9497 12.7589 18.9473 12.7751 18.9445 12.7912C18.9389 12.8234 18.933 12.8557 18.9268 12.8878C18.9173 12.9359 18.9076 12.9839 18.8977 13.0319L18.8874 13.0795C18.884 13.0953 18.8804 13.1113 18.8768 13.1271C18.6768 12.9328 18.412 12.8269 18.12 12.8269C17.8549 12.8269 17.5824 12.9146 17.3097 13.0875C17.1287 13.2025 16.9288 13.4061 16.7228 13.662C16.532 13.3975 16.265 13.2217 15.9598 13.1736C15.9016 13.1644 15.8427 13.1597 15.7837 13.1597C15.0863 13.1597 14.6668 13.7647 14.5081 14.3089C14.4293 14.4928 14.0515 15.3301 13.4832 15.8981C12.618 16.7604 12.3997 17.649 12.8214 18.6009ZM20.1565 16.6875L20.1537 16.6959C20.1466 16.7147 20.1383 16.7331 20.129 16.7509C20.122 16.764 20.1144 16.7768 20.1061 16.7892C20.0905 16.8125 20.0733 16.8348 20.0547 16.8558C20.0504 16.8607 20.0462 16.8656 20.0414 16.8703C20.0346 16.8776 20.0278 16.8847 20.0207 16.8916C19.8946 17.0167 19.7022 17.1264 19.4847 17.227C19.46 17.2381 19.435 17.2493 19.4098 17.2605L19.3846 17.2717C19.3679 17.2791 19.3511 17.2864 19.3335 17.2936C19.3167 17.3009 19.2992 17.3083 19.2818 17.3154L19.2295 17.3369C19.1071 17.3873 18.9818 17.4353 18.8596 17.4826L18.8072 17.503L18.7556 17.5232C18.7212 17.5366 18.6872 17.55 18.6539 17.5634L18.6041 17.5835L18.5551 17.6035L18.5311 17.6136C18.5151 17.6203 18.4995 17.6269 18.4838 17.6336C18.1241 17.788 17.8652 17.945 17.9196 18.1398C17.9211 18.1453 17.9228 18.1506 17.9247 18.1558C17.9296 18.1702 17.9362 18.1838 17.9446 18.1966C17.9494 18.2042 17.9551 18.2114 17.9613 18.218C18.0253 18.2845 18.1416 18.274 18.2883 18.2212C18.309 18.2136 18.3295 18.2057 18.3498 18.1975L18.3626 18.1922C18.3961 18.178 18.4317 18.162 18.468 18.1448C18.4771 18.1405 18.4862 18.1363 18.4954 18.1316C18.6749 18.0438 18.8782 17.9257 19.08 17.8182C19.1607 17.7746 19.2425 17.7332 19.3254 17.6939C19.5165 17.604 19.6961 17.5403 19.8405 17.5403C19.9082 17.5403 19.9681 17.5542 20.0179 17.586L20.0263 17.5916C20.0576 17.6136 20.0838 17.6419 20.1034 17.6747C20.1073 17.681 20.111 17.6877 20.1147 17.6945C20.186 17.83 20.1263 17.9702 19.9865 18.1078C19.8524 18.2399 19.6437 18.3693 19.4065 18.4891C19.3889 18.498 19.3712 18.5069 19.3533 18.5157C18.6474 18.8623 17.7229 19.1234 17.7101 19.1267C17.4637 19.1906 17.1114 19.2744 16.7145 19.3371L16.6558 19.3463L16.6461 19.3477C16.6017 19.3544 16.5571 19.3607 16.5125 19.3665C16.4672 19.3726 16.4215 19.3782 16.3755 19.3833L16.367 19.3843C16.2001 19.4035 16.0326 19.4162 15.8647 19.4223H15.8623C15.8015 19.4245 15.7409 19.4256 15.6801 19.4256H15.6101C15.5175 19.4244 15.425 19.4202 15.3327 19.413C15.3305 19.413 15.3282 19.413 15.326 19.4125C15.2929 19.4099 15.2599 19.4068 15.2269 19.4032C15.1927 19.3995 15.1586 19.3954 15.1246 19.3908C15.1021 19.3878 15.0798 19.3844 15.0575 19.3808C15.0348 19.3771 15.0121 19.3734 14.9896 19.3694L14.9587 19.3636L14.9564 19.3632C14.9238 19.357 14.8915 19.3501 14.8592 19.3426C14.8405 19.3384 14.8218 19.3343 14.8034 19.3292L14.7922 19.3264C14.783 19.3242 14.7741 19.3217 14.765 19.3193L14.7601 19.318L14.7312 19.3095C14.7207 19.3066 14.7102 19.3034 14.6997 19.3003L14.696 19.2993L14.6687 19.291C14.6584 19.2878 14.6481 19.2844 14.6379 19.281L14.6128 19.2727L14.5943 19.2662C14.5765 19.2599 14.5588 19.2535 14.5412 19.2467L14.5246 19.2402L14.5108 19.2347C14.4841 19.224 14.4577 19.2129 14.4316 19.2012L14.4142 19.1927L14.4113 19.1914C14.4051 19.1885 14.399 19.1856 14.3928 19.1831C14.3807 19.1773 14.3687 19.1713 14.3568 19.1652L14.3532 19.1634L14.3359 19.1543C14.3053 19.1383 14.2753 19.1212 14.2458 19.1031L14.2297 19.0932C14.2216 19.0882 14.2136 19.083 14.2057 19.0778L14.1847 19.0639L14.1621 19.0483L14.1486 19.0387C14.1344 19.0286 14.1204 19.0181 14.1067 19.0073L14.0849 18.9905C14.0761 18.9835 14.0675 18.9763 14.059 18.9691C14.0518 18.9632 14.0447 18.957 14.0377 18.9508L14.0371 18.9504C14.0296 18.9437 14.0221 18.9371 14.0147 18.9302C14.0074 18.9236 14.0001 18.9168 13.993 18.91L13.9921 18.9091C13.9846 18.902 13.9773 18.8948 13.9701 18.8874C13.9629 18.8801 13.9555 18.8728 13.9485 18.8653C13.9414 18.8579 13.9342 18.8503 13.9273 18.8425C13.9203 18.8348 13.914 18.8278 13.9074 18.8202L13.9052 18.8176C13.8989 18.8103 13.8926 18.8029 13.8864 18.7953C13.873 18.7793 13.86 18.7629 13.8474 18.7461C13.8347 18.7292 13.8224 18.712 13.8103 18.6944L13.7987 18.6772C13.7834 18.6547 13.7684 18.632 13.7538 18.6089C13.743 18.5923 13.7324 18.5757 13.7221 18.5587C13.7154 18.5481 13.709 18.5374 13.7027 18.5269L13.7 18.5226C13.6939 18.5123 13.6879 18.5022 13.6821 18.4919C13.6787 18.4864 13.6756 18.4809 13.6726 18.4752C13.6695 18.4693 13.6659 18.4634 13.6626 18.4575L13.6573 18.4483L13.654 18.4423C13.6477 18.431 13.6415 18.4197 13.6355 18.4082C13.6327 18.4032 13.63 18.3981 13.6271 18.3932L13.6187 18.377L13.6103 18.361C13.5892 18.3188 13.5692 18.276 13.5505 18.2327L13.5438 18.2169C13.5395 18.2063 13.5355 18.1958 13.5312 18.1854C13.5291 18.1803 13.5271 18.1753 13.5253 18.1703C13.5152 18.1443 13.5059 18.1181 13.4972 18.0916C13.4942 18.0822 13.4911 18.0729 13.4883 18.0635C13.4816 18.0422 13.4755 18.0208 13.4701 17.9991C13.4634 17.9739 13.4575 17.9485 13.4525 17.9229C13.4515 17.9177 13.4505 17.9126 13.4496 17.9076C13.4447 17.8826 13.4408 17.8573 13.4377 17.832C13.437 17.8271 13.4364 17.8221 13.4358 17.8171L13.4342 17.8019C13.4322 17.7821 13.4306 17.7621 13.4296 17.7421C13.4296 17.7371 13.4292 17.732 13.429 17.7271C13.4285 17.7172 13.4283 17.7073 13.4282 17.6973C13.423 17.2967 13.6257 16.9116 14.0591 16.4784C14.8311 15.7071 15.2806 14.5784 15.2806 14.5784C15.2806 14.5784 15.2926 14.5311 15.3178 14.4629C15.3212 14.4535 15.3249 14.4437 15.329 14.4335C15.3436 14.3953 15.3601 14.3578 15.3784 14.3213L15.3821 14.3143C15.3976 14.2831 15.4147 14.2528 15.4331 14.2232C15.4374 14.2164 15.4415 14.2096 15.4463 14.2028C15.4601 14.1824 15.4746 14.1626 15.4899 14.1433C15.4982 14.1329 15.5073 14.1226 15.5164 14.1126C15.5201 14.1087 15.5236 14.1047 15.5275 14.101C15.5722 14.0548 15.6233 14.0171 15.6811 13.997L15.6885 13.9946C15.6933 13.993 15.6982 13.9915 15.7032 13.9901C15.7089 13.9886 15.7146 13.9873 15.7205 13.986L15.7232 13.9855C15.7354 13.983 15.7478 13.9814 15.7603 13.9806H15.7613C15.7678 13.9806 15.7743 13.9799 15.781 13.9799C15.7893 13.9799 15.7971 13.9799 15.8053 13.9808C15.8137 13.9815 15.8221 13.9825 15.8305 13.9838C15.9001 13.9949 15.9662 14.0363 16.0232 14.1002C16.0449 14.1246 16.0644 14.1508 16.0815 14.1786C16.0927 14.1966 16.1033 14.2156 16.1133 14.2357C16.1174 14.244 16.1212 14.2517 16.125 14.26C16.1347 14.2812 16.1435 14.3027 16.1512 14.3248C16.1695 14.3763 16.1833 14.4294 16.1924 14.4834C16.2002 14.5307 16.2049 14.5785 16.2064 14.6264C16.2072 14.652 16.2072 14.678 16.2064 14.7042C16.2014 14.8258 16.1764 14.9459 16.1326 15.0597C16.1287 15.0701 16.1243 15.0806 16.1201 15.0911C16.1115 15.1123 16.102 15.1331 16.0918 15.1534C16.0842 15.1689 16.0762 15.1844 16.0676 15.1999C16.062 15.2102 16.0561 15.2205 16.0501 15.2309C16.0351 15.2565 16.0187 15.282 16.0012 15.3074L15.9906 15.3226C15.9492 15.3804 15.9031 15.4346 15.8526 15.4846C15.8029 15.5344 15.7497 15.5804 15.6933 15.6224C15.6369 15.6643 15.5839 15.7106 15.535 15.7609C15.3941 15.9088 15.3613 16.0393 15.393 16.1382C15.398 16.1537 15.4047 16.1688 15.4127 16.1831C15.4222 16.1994 15.4335 16.2144 15.4462 16.2281L15.4512 16.2332L15.4562 16.2383C15.4613 16.2432 15.4666 16.2479 15.4724 16.2526L15.478 16.2571C15.4916 16.2676 15.506 16.277 15.5211 16.2853C15.5255 16.2876 15.5295 16.2899 15.5344 16.2922C15.5507 16.3002 15.5675 16.307 15.5848 16.3125C15.5896 16.3141 15.5943 16.3155 15.5992 16.317L15.6053 16.3186L15.6137 16.3209L15.621 16.3227L15.6288 16.3243L15.6366 16.3259L15.644 16.3272C15.6495 16.3281 15.6551 16.329 15.6607 16.3297L15.6661 16.3305L15.6758 16.3315L15.6818 16.3321L15.6916 16.3328H15.6975L15.7078 16.3333H15.7402L15.7495 16.3328L15.7602 16.3321L15.7732 16.3309L15.7854 16.3295C15.7882 16.3295 15.791 16.3288 15.7938 16.3282C15.8313 16.3228 15.8681 16.3128 15.9032 16.2986L15.9181 16.2923C15.9265 16.2886 15.9349 16.2848 15.9426 16.2807C15.9591 16.2724 15.9752 16.263 15.9905 16.2528C16.012 16.2388 16.0322 16.223 16.0512 16.2057C16.0557 16.2016 16.0601 16.1973 16.0644 16.1932C16.0666 16.1911 16.0686 16.1892 16.0707 16.1869C16.0748 16.1827 16.079 16.1786 16.0831 16.174C16.1131 16.141 16.1391 16.1046 16.1605 16.0655C16.344 15.7319 16.5362 15.4032 16.7371 15.0798L16.7647 15.0357L16.7926 14.9915C16.8064 14.9691 16.8205 14.9471 16.8345 14.9251L16.8485 14.9032C16.8952 14.8301 16.9426 14.7574 16.9909 14.6853L17.0195 14.6426C17.0769 14.5575 17.1341 14.4748 17.1908 14.3963L17.219 14.3574C17.2807 14.2724 17.3449 14.1891 17.4116 14.1079L17.438 14.0762C17.4424 14.071 17.4465 14.0657 17.4512 14.0607C17.46 14.0503 17.4687 14.0403 17.4772 14.0306C17.4815 14.0256 17.4856 14.0207 17.4901 14.0159L17.5153 13.9875L17.5278 13.9738C17.5405 13.9602 17.5529 13.9471 17.5651 13.9347C17.5735 13.9262 17.5813 13.9179 17.5893 13.91C17.6369 13.8614 17.6893 13.8179 17.7458 13.7801L17.7589 13.7716C17.7715 13.7632 17.7845 13.7553 17.7978 13.7482C18.0195 13.6224 18.2029 13.6131 18.3086 13.7188C18.3725 13.7827 18.408 13.8887 18.406 14.0363C18.406 14.0428 18.406 14.0493 18.4055 14.0561V14.0633C18.4055 14.07 18.405 14.0768 18.4044 14.0836C18.4044 14.0921 18.4035 14.1004 18.4026 14.1089C18.4018 14.1172 18.4013 14.1236 18.4005 14.1311C18.4005 14.1331 18.4001 14.1353 18.3997 14.1375C18.3991 14.144 18.3983 14.1507 18.3974 14.1573C18.3974 14.1593 18.3974 14.1614 18.3966 14.1634C18.3956 14.1723 18.3943 14.1811 18.3928 14.1899C18.3917 14.1984 18.3903 14.2063 18.3888 14.2145L18.3864 14.2285C18.384 14.2418 18.3809 14.2549 18.377 14.2678C18.3697 14.2921 18.3609 14.3158 18.3505 14.3389C18.336 14.3706 18.3199 14.4014 18.3023 14.4314C18.2926 14.4481 18.2825 14.4645 18.2721 14.4808C18.2614 14.4975 18.2502 14.5145 18.2386 14.5317C18.2089 14.574 18.1782 14.6156 18.1462 14.6562L18.1316 14.6746C18.0795 14.7396 18.0257 14.8033 17.9701 14.8654L17.9526 14.8851C17.929 14.9114 17.905 14.938 17.8804 14.9646L17.862 14.9847C17.8497 14.9981 17.8368 15.0115 17.8245 15.025C17.8122 15.0384 17.7993 15.052 17.7864 15.0656L17.7479 15.1062L17.7088 15.147L17.6694 15.1879C17.643 15.2153 17.6164 15.2427 17.5897 15.27C17.2096 15.6599 16.8091 16.0485 16.6735 16.2908C16.6644 16.3065 16.6562 16.3229 16.6489 16.3394C16.6296 16.3835 16.6216 16.4212 16.6271 16.4517C16.6289 16.4617 16.6323 16.4713 16.6375 16.4801C16.6451 16.4933 16.6544 16.5055 16.6651 16.5163C16.6701 16.5212 16.6754 16.5257 16.6809 16.5298C16.7088 16.5497 16.7425 16.5599 16.7768 16.559H16.7875L16.7985 16.5582L16.8094 16.5569L16.8185 16.5556C16.8197 16.5554 16.8211 16.5553 16.8223 16.5549L16.8306 16.5533L16.8328 16.5528L16.8421 16.5508L16.8453 16.55C16.8486 16.5492 16.8518 16.5483 16.8551 16.5474C16.8584 16.5464 16.8629 16.5452 16.8668 16.5439C16.8833 16.5389 16.8994 16.533 16.9153 16.5263C16.9236 16.5229 16.9318 16.5193 16.9398 16.5153C16.9441 16.5134 16.9483 16.5115 16.9522 16.5094L16.9648 16.5032C16.9948 16.4877 17.024 16.4707 17.0525 16.4525L17.065 16.4441C17.0692 16.4414 17.0734 16.4387 17.0775 16.4357L17.0899 16.4274L17.0966 16.4228L17.1146 16.4101C17.1314 16.3986 17.147 16.3867 17.1629 16.3746L17.1643 16.3735L17.1895 16.354C17.2239 16.3268 17.2565 16.2994 17.2861 16.2736L17.3058 16.2564L17.3076 16.2547L17.3179 16.2456C17.3421 16.2238 17.3637 16.2036 17.3816 16.1869L17.389 16.1797C17.3955 16.1736 17.4014 16.1679 17.4067 16.163L17.4172 16.1526L17.421 16.1489L17.422 16.1479L17.433 16.1369L17.4399 16.1297L17.4407 16.1291L17.444 16.1261L17.4481 16.1223L17.4495 16.1211L17.4529 16.1179L17.4721 16.1011L17.4827 16.0916C17.4885 16.0866 17.494 16.0815 17.4995 16.0764L17.5123 16.065C17.5146 16.0632 17.5169 16.0611 17.5192 16.059L17.5326 16.0473L17.5523 16.03L17.5628 16.0209C17.6036 15.9854 17.6532 15.9426 17.7102 15.8943L17.7335 15.8745L17.7721 15.8422L17.8115 15.8093C17.8631 15.7664 17.9186 15.721 17.9773 15.6738L18.0158 15.6429C18.0486 15.6167 18.0823 15.5901 18.1164 15.5633C18.1302 15.5525 18.1441 15.5417 18.1584 15.531C18.1933 15.5039 18.2283 15.477 18.2637 15.4505C18.3441 15.3898 18.4271 15.3289 18.5111 15.2697L18.5471 15.2445C18.5723 15.2272 18.5974 15.2098 18.6226 15.1928L18.6453 15.1774C18.6902 15.1469 18.7358 15.1172 18.7817 15.0883L18.8045 15.0739L18.8271 15.0598C18.8498 15.0458 18.8723 15.032 18.8947 15.0186L18.9171 15.0052L18.9619 14.9791L19.0059 14.9539L19.0148 14.949L19.0496 14.9299C19.0641 14.922 19.0786 14.9144 19.093 14.907L19.1145 14.896L19.1354 14.8855C19.1427 14.882 19.1499 14.8783 19.157 14.8749C19.2041 14.8516 19.2521 14.8303 19.3008 14.8108C19.3141 14.8051 19.3272 14.8001 19.3402 14.7957L19.3787 14.7822C19.3902 14.7783 19.4014 14.7747 19.4122 14.7714L19.416 14.7703C19.4218 14.7684 19.4276 14.7667 19.4333 14.7652L19.435 14.7647C19.447 14.7613 19.4589 14.7583 19.4706 14.7554H19.4715C19.5046 14.7475 19.5384 14.7418 19.5724 14.7383C19.5881 14.7367 19.6037 14.7358 19.6195 14.7359H19.6274C19.6379 14.7359 19.648 14.7366 19.658 14.7376C19.6626 14.7376 19.6672 14.7386 19.6717 14.7391H19.6736C19.6781 14.7397 19.6826 14.7403 19.6871 14.7414C19.6915 14.7422 19.696 14.743 19.7003 14.744H19.7017C19.7061 14.7449 19.7101 14.7461 19.7146 14.7474C19.7385 14.754 19.7611 14.7643 19.782 14.7779C19.7922 14.7845 19.8017 14.792 19.8106 14.8003L19.8131 14.8028C19.8148 14.8043 19.8164 14.8059 19.8179 14.8075L19.8225 14.8124C19.8601 14.8519 19.8913 14.8972 19.9147 14.9465L19.9183 14.9549C19.9262 14.9737 19.9325 14.9931 19.937 15.0129C19.9503 15.0734 19.9452 15.1366 19.9222 15.1943C19.9135 15.2175 19.9029 15.2399 19.8904 15.2613C19.8613 15.3104 19.8267 15.3561 19.7874 15.3974L19.7791 15.4063C19.7666 15.4195 19.7536 15.4326 19.7401 15.4457C19.7341 15.4516 19.7278 15.4574 19.7215 15.4634L19.7023 15.4811L19.6922 15.49C19.6681 15.5115 19.6432 15.5324 19.618 15.5527C19.6027 15.5651 19.5873 15.5772 19.5718 15.5891C19.5168 15.6311 19.4609 15.6716 19.4039 15.7107C19.3695 15.7343 19.3348 15.7574 19.2998 15.7803C19.2136 15.8368 19.1266 15.892 19.0386 15.9456C18.8541 16.059 18.6496 16.1803 18.4317 16.3123L18.3752 16.3465C18.3135 16.3842 18.2551 16.4202 18.2002 16.4545L18.1726 16.4718L18.1202 16.5054C18.0856 16.5276 18.051 16.55 18.0164 16.5724L17.9885 16.5908C17.9749 16.5996 17.9614 16.6086 17.9479 16.6176L17.9347 16.626L17.8942 16.6533L17.8727 16.668L17.8476 16.6855L17.8243 16.7017C17.7852 16.7294 17.7488 16.7557 17.7153 16.7807L17.7028 16.7903C17.6831 16.8052 17.6636 16.8204 17.6444 16.8358C17.6154 16.8592 17.589 16.8815 17.5652 16.903L17.5536 16.9136C17.547 16.9197 17.5404 16.9258 17.5341 16.9318C17.5298 16.936 17.5258 16.9402 17.5213 16.9442L17.5153 16.9502C17.5019 16.9637 17.4887 16.9775 17.4761 16.9917L17.4699 16.9988C17.4561 17.0147 17.4441 17.03 17.4336 17.0449L17.4289 17.0516C17.4207 17.0636 17.4131 17.0759 17.4062 17.0887C17.4045 17.0919 17.4029 17.0951 17.4013 17.0983L17.3967 17.1078L17.3936 17.1148L17.3916 17.1194L17.39 17.1237L17.3879 17.1294C17.3821 17.1452 17.378 17.1617 17.3757 17.1784L17.3749 17.1842L17.3744 17.1897V17.2192C17.3744 17.2216 17.3744 17.2241 17.375 17.2267L17.3755 17.2312C17.3755 17.2336 17.3761 17.236 17.3764 17.2386C17.3768 17.241 17.3775 17.2454 17.3782 17.2489V17.2494C17.3789 17.2527 17.3795 17.2558 17.3804 17.2591C17.3812 17.2624 17.3821 17.2662 17.3831 17.2695C17.3849 17.2762 17.3871 17.2828 17.3895 17.2893C17.391 17.2933 17.3924 17.2971 17.394 17.3009C17.394 17.3017 17.3945 17.3025 17.3949 17.3033L17.3983 17.3109L17.403 17.3213C17.408 17.3321 17.4136 17.3426 17.4196 17.3528L17.4257 17.3635L17.4321 17.3742C17.4332 17.3759 17.4346 17.3776 17.436 17.3792L17.438 17.3814L17.4404 17.3835L17.4428 17.3854C17.4464 17.3879 17.4502 17.3899 17.4542 17.3913C17.4564 17.3921 17.4586 17.3926 17.4609 17.3932C17.515 17.4054 17.6262 17.3607 17.7739 17.2827C17.7823 17.2782 17.7915 17.2735 17.8004 17.2686L17.8454 17.244L17.8673 17.2318C17.883 17.2235 17.8989 17.214 17.9152 17.2048L17.9449 17.188C18.1402 17.0756 18.3735 16.9312 18.6146 16.7902C18.6372 16.777 18.6599 16.7638 18.6826 16.7507L18.7281 16.7216C18.781 16.6913 18.8341 16.6614 18.8875 16.6319C18.9547 16.5949 19.0224 16.5589 19.0907 16.524L19.1354 16.5014C19.165 16.4868 19.1943 16.4726 19.2233 16.4587C19.2794 16.4321 19.3361 16.4068 19.3935 16.3828L19.4249 16.3701L19.4286 16.3686C19.595 16.3027 19.7459 16.262 19.8679 16.262C19.8943 16.2617 19.9207 16.264 19.9467 16.2685H19.9475C19.9559 16.27 19.9635 16.2717 19.9712 16.2735H19.9727C19.9926 16.2786 20.012 16.2858 20.0304 16.2951C20.0562 16.3084 20.0793 16.3261 20.0989 16.3475C20.1079 16.3574 20.1159 16.3682 20.1229 16.3797C20.1361 16.3998 20.1464 16.4217 20.1538 16.4445C20.1568 16.4534 20.1594 16.4622 20.1621 16.4714C20.1819 16.5424 20.1799 16.6177 20.1565 16.6875Z" fill="#FF9D00"/>
  <path fill-rule="evenodd" clip-rule="evenodd" d="M19.0514 11.595V11.549C19.0514 7.62518 15.8715 4.44434 11.9474 4.44434C8.02345 4.44434 4.84241 7.62537 4.84241 11.549V11.5644C4.84222 11.5746 4.84213 11.5848 4.84241 11.595C4.84287 11.6103 4.84303 11.6256 4.84288 11.6409L4.84336 11.6746L4.84363 11.6867C4.84363 11.6923 4.84383 11.6979 4.84401 11.7035C4.8443 11.7124 4.84447 11.7214 4.84447 11.7303L4.84551 11.7668L4.84701 11.8096L4.84747 11.8237L4.84935 11.868V11.8702C4.8501 11.8875 4.85105 11.9048 4.85189 11.922L4.85197 11.9233C4.85291 11.941 4.85386 11.9587 4.85498 11.9764C4.85592 11.9927 4.85685 12.009 4.85807 12.0253L4.85826 12.0282C4.85908 12.0422 4.86002 12.0563 4.86107 12.0702L4.86135 12.074L4.86444 12.1145L4.86473 12.1171C4.8653 12.125 4.86585 12.1329 4.8666 12.1405C4.87221 12.2081 4.87874 12.2756 4.8862 12.3431L4.88666 12.3473L4.89238 12.3969L4.89876 12.4489L4.90344 12.4842L4.9056 12.5008C4.9106 12.5391 4.91601 12.5772 4.92182 12.6153L4.9222 12.6178L4.92772 12.6538C4.95449 12.8253 4.98764 12.9957 5.0271 13.1648L5.02758 13.1668L5.03057 13.1795L5.0391 13.2156L5.04435 13.2093C5.2506 12.9627 5.54647 12.8268 5.87751 12.8268C6.14282 12.8268 6.41498 12.9146 6.6878 13.0875C6.86873 13.2025 7.0688 13.406 7.27467 13.662C7.46517 13.3975 7.73217 13.2216 8.03761 13.1736C8.09585 13.1644 8.15471 13.1598 8.21367 13.1597C8.9108 13.1597 9.33069 13.7647 9.48932 14.3089C9.56769 14.4927 9.94541 15.3301 10.515 15.8966C11.3809 16.7616 11.5976 17.6542 11.169 18.61H11.1705C11.1997 18.6132 11.229 18.6162 11.2586 18.619C11.2761 18.6206 11.2935 18.6223 11.3112 18.6238L11.3173 18.6244L11.3561 18.6277L11.3917 18.6305C11.4256 18.6331 11.4597 18.6356 11.4938 18.6377L11.5209 18.6393L11.5423 18.6406L11.5557 18.6414L11.5976 18.6435L11.609 18.644L11.653 18.646L11.7019 18.6478L11.7412 18.649L11.7478 18.6491C11.7561 18.6495 11.7644 18.6498 11.7728 18.6498L11.7818 18.6501C11.8371 18.6514 11.8923 18.6521 11.9476 18.652H12.0063L12.0482 18.6515C12.0585 18.651 12.0688 18.651 12.0792 18.651H12.0955L12.1096 18.6507C12.1152 18.6505 12.1207 18.6503 12.1263 18.6503H12.1431L12.176 18.6494L12.2255 18.6477L12.28 18.6453C12.2957 18.6447 12.3113 18.6439 12.3268 18.6431L12.3436 18.6421L12.3686 18.6408L12.3832 18.64L12.3943 18.6392L12.4446 18.6359L12.4949 18.6323L12.5405 18.6286L12.5726 18.6259L12.6078 18.6227C12.6667 18.6175 12.7254 18.6113 12.7841 18.6042L12.8241 18.5995C12.4023 17.6477 12.6207 16.759 13.4829 15.8974C14.0513 15.3295 14.429 14.4921 14.5078 14.3081C14.6665 13.764 15.0861 13.1591 15.7834 13.1591C15.8424 13.1591 15.9014 13.1637 15.9596 13.1729C16.2647 13.2209 16.5317 13.3968 16.7225 13.6614C16.9285 13.4054 17.1284 13.2017 17.3095 13.0868C17.5822 12.9139 17.8546 12.8261 18.1197 12.8261C18.4118 12.8261 18.6765 12.9321 18.8765 13.1264C18.8802 13.1106 18.8837 13.0947 18.8872 13.0788L18.8974 13.0314C18.9011 13.014 18.9047 12.9967 18.9082 12.9793C18.9144 12.9487 18.9206 12.918 18.9265 12.8871C18.9327 12.855 18.9386 12.8228 18.9442 12.7905L18.9471 12.7731C18.9489 12.7628 18.9506 12.7525 18.9525 12.7421C18.9557 12.7259 18.9584 12.7098 18.961 12.6935L18.962 12.6873L18.9687 12.6448L18.9752 12.6018V12.6014C18.98 12.5696 18.9845 12.5379 18.9887 12.5061L18.9898 12.4982L18.9957 12.4534L19.0004 12.4151L19.0089 12.3398L19.0122 12.3095L19.013 12.3012C19.0148 12.2849 19.0165 12.2686 19.018 12.2523V12.251C19.0192 12.2381 19.0205 12.225 19.0216 12.212C19.0283 12.1381 19.0339 12.0639 19.0384 11.9893C19.0393 11.9771 19.0399 11.9649 19.0407 11.9526V11.952L19.0431 11.906L19.0437 11.8957C19.0452 11.8646 19.0465 11.8334 19.0475 11.8023V11.8012L19.048 11.789C19.0484 11.7788 19.0488 11.7685 19.0488 11.7581L19.049 11.754C19.0494 11.7444 19.0498 11.7344 19.0498 11.7246L19.05 11.7161C19.0503 11.7063 19.0506 11.6966 19.0506 11.6867L19.0508 11.6784C19.0511 11.6659 19.0514 11.6533 19.0514 11.6409V11.595ZM10.1852 18.6925C10.7479 17.8674 10.708 17.2481 9.93604 16.4765C9.16392 15.7048 8.71457 14.5765 8.71457 14.5765C8.71457 14.5765 8.54686 13.9211 8.16436 13.9812C7.78186 14.0414 7.50126 15.0208 8.30217 15.6204C9.10298 16.2199 8.1428 16.6264 7.83455 16.0638C7.5263 15.5011 6.68469 14.0548 6.24838 13.7782C5.81207 13.5015 5.50522 13.6566 5.60807 14.2268C5.65916 14.5098 6.1343 14.9929 6.5782 15.4442C7.02858 15.9021 7.44679 16.3273 7.35735 16.4778C7.17988 16.7766 6.55486 16.1267 6.55486 16.1267C6.55486 16.1267 4.59772 14.3456 4.17172 14.8098C3.77891 15.2376 4.38463 15.6012 5.31801 16.1618C5.39733 16.2094 5.47908 16.2585 5.5628 16.3091C6.6307 16.9556 6.71375 17.1262 6.56216 17.3708C6.50619 17.4611 6.14872 17.2466 5.70904 16.9826C4.95951 16.5326 3.9712 15.9392 3.83161 16.4703C3.71086 16.93 4.43797 17.2116 5.09741 17.4671C5.64679 17.6799 6.1493 17.8745 6.07533 18.1387C5.99873 18.4126 5.58351 18.1841 5.12967 17.9344C4.62014 17.654 4.06186 17.3469 3.87914 17.6935C3.53386 18.3488 6.26133 19.1202 6.28383 19.126C7.16508 19.3545 9.40307 19.8388 10.1852 18.6925ZM13.8101 18.6925C13.2474 17.8674 13.2873 17.2481 14.0594 16.4765C14.8314 15.7048 15.2807 14.5765 15.2807 14.5765C15.2807 14.5765 15.4484 13.9211 15.8309 13.9812C16.2134 14.0414 16.494 15.0208 15.6932 15.6204C14.8923 16.2199 15.8525 16.6264 16.1608 16.0638C16.4691 15.5011 17.3101 14.0548 17.7464 13.7782C18.1828 13.5015 18.4898 13.6566 18.3868 14.2268C18.3358 14.5098 17.8606 14.9929 17.4167 15.4443C16.9664 15.9022 16.5481 16.3273 16.6375 16.4778C16.8149 16.7766 17.4404 16.1263 17.4404 16.1263C17.4404 16.1263 19.3975 14.3454 19.8237 14.8095C20.2164 15.2372 19.6107 15.601 18.6772 16.1615C18.5955 16.2105 18.514 16.2596 18.4325 16.3089C17.3646 16.9554 17.2815 17.1259 17.433 17.3704C17.4891 17.4609 17.8466 17.2462 18.2862 16.9823C19.0358 16.5323 20.0241 15.9388 20.1637 16.47C20.2845 16.9297 19.5573 17.2113 18.8979 17.4668C18.3485 17.6796 17.846 17.8742 17.9199 18.1384C17.9964 18.4122 18.4115 18.1838 18.8653 17.934C19.3748 17.6536 19.9332 17.3463 20.1158 17.6932C20.4612 18.3489 17.7332 19.1196 17.7112 19.1252C16.8299 19.3545 14.5919 19.8388 13.8101 18.6925Z" fill="#FFD21E"/>
  <path fill-rule="evenodd" clip-rule="evenodd" d="M14.2542 9.61531C14.365 9.65449 14.4474 9.77374 14.5258 9.88728C14.6317 10.0407 14.7303 10.1834 14.8816 10.103C15.0601 10.008 15.2065 9.86234 15.3021 9.68421C15.3978 9.50609 15.4386 9.30365 15.4193 9.1024C15.4049 8.95191 15.3572 8.80651 15.2798 8.67666C15.2023 8.54681 15.0971 8.43574 14.9716 8.35148C14.8461 8.26722 14.7034 8.21185 14.554 8.18936C14.4044 8.16687 14.2518 8.17783 14.1071 8.22143C13.9623 8.26502 13.8291 8.34015 13.7169 8.44142C13.6047 8.54268 13.5163 8.66757 13.4581 8.80709C13.4 8.94661 13.3735 9.09729 13.3805 9.24828C13.3876 9.39931 13.428 9.54678 13.499 9.68028C13.5691 9.81218 13.7248 9.74993 13.889 9.68421C14.0177 9.63274 14.1519 9.57912 14.2542 9.61531ZM9.43776 9.61531C9.32694 9.65449 9.24454 9.77384 9.16616 9.88728C9.06022 10.0407 8.96151 10.1834 8.81029 10.103C8.5858 9.98412 8.41365 9.78584 8.32736 9.54696C8.24108 9.30804 8.24687 9.04555 8.34358 8.81066C8.44029 8.57577 8.62101 8.38532 8.85051 8.27642C9.08001 8.16752 9.34183 8.14799 9.58494 8.22162C9.77854 8.27991 9.95047 8.39428 10.0791 8.55026C10.2077 8.70625 10.2871 8.89685 10.3075 9.09799C10.3277 9.29913 10.2879 9.50178 10.193 9.68028C10.1228 9.81218 9.96716 9.74993 9.80291 9.68431C9.6741 9.63274 9.54013 9.57912 9.43776 9.61531ZM13.509 13.9982C14.2724 13.3968 14.5528 12.4149 14.5528 11.81C14.5528 11.3319 14.2312 11.4823 13.7162 11.7373L13.6872 11.7517C13.2145 11.9858 12.5852 12.2975 11.8945 12.2975C11.2036 12.2975 10.5744 11.9858 10.1018 11.7516C9.57013 11.4882 9.23666 11.3231 9.23666 11.8101C9.23666 12.4341 9.53497 13.4587 10.3538 14.0539C10.4619 13.8346 10.614 13.64 10.8008 13.4821C10.9874 13.3242 11.2048 13.2066 11.4389 13.1365C11.5207 13.1121 11.6049 13.2528 11.691 13.3969C11.7742 13.5358 11.8592 13.678 11.9457 13.678C12.0378 13.678 12.1283 13.5379 12.2167 13.4012C12.309 13.2582 12.3991 13.119 12.4862 13.1469C12.9245 13.2876 13.2912 13.5927 13.509 13.9982Z" fill="#32343D"/>
  <path d="M13.5096 13.9983C13.112 14.3116 12.5835 14.5217 11.8953 14.5217C11.2487 14.5217 10.743 14.3363 10.3545 14.054C10.4626 13.8347 10.6147 13.64 10.8015 13.4822C10.9881 13.3243 11.2055 13.2067 11.4396 13.1366C11.6001 13.0887 11.7703 13.6781 11.9464 13.6781C12.1348 13.6781 12.3164 13.0925 12.4869 13.147C12.9251 13.2878 13.2917 13.5929 13.5096 13.9983Z" fill="#FF323D"/>
  <path fill-rule="evenodd" clip-rule="evenodd" d="M7.6128 10.4662C7.52198 10.5269 7.41755 10.5643 7.30879 10.575C7.20003 10.5858 7.09031 10.5695 6.98937 10.5276C6.90868 10.4943 6.83535 10.4454 6.77363 10.3836C6.7119 10.3219 6.66297 10.2486 6.62965 10.1679C6.58784 10.0669 6.57157 9.9572 6.58232 9.84845C6.59307 9.7397 6.63048 9.63526 6.69124 9.54442C6.76425 9.43511 6.86804 9.34992 6.98948 9.29961C7.11092 9.2493 7.24455 9.23614 7.37347 9.26181C7.5024 9.28747 7.6208 9.3508 7.71372 9.44373C7.80663 9.53673 7.86989 9.65523 7.89546 9.78414C7.92108 9.91304 7.9079 10.0466 7.85761 10.168C7.80732 10.2895 7.72206 10.3931 7.6128 10.4662ZM17.1203 10.4662C17.0294 10.5269 16.925 10.5643 16.8162 10.575C16.7074 10.5858 16.5977 10.5695 16.4967 10.5276C16.416 10.4942 16.3427 10.4454 16.281 10.3836C16.2193 10.3219 16.1704 10.2486 16.137 10.1679C16.0953 10.0669 16.0791 9.9572 16.0898 9.84845C16.1006 9.7397 16.138 9.63526 16.1986 9.54442C16.2532 9.46267 16.3253 9.39414 16.4096 9.34359C16.4938 9.29307 16.5882 9.26188 16.686 9.25227C16.7839 9.24265 16.8826 9.25485 16.9751 9.288C17.0676 9.32115 17.1516 9.3744 17.2211 9.44392C17.3141 9.53683 17.3773 9.65523 17.4029 9.78414C17.4286 9.91304 17.4154 10.0466 17.3651 10.168C17.3147 10.2895 17.2296 10.3931 17.1203 10.4662Z" fill="#FFAD03"/>
</svg>