<svg width="16" height="16" viewBox="0 0 16 16" fill="none" xmlns="http://www.w3.org/2000/svg">
<path d="M12.6667 2H3.33333C2.59695 2 2 2.59695 2 3.33333V12.6667C2 13.403 2.59695 14 3.33333 14H12.6667C13.403 14 14 13.403 14 12.6667V3.33333C14 2.59695 13.403 2 12.6667 2Z" stroke="currentColor" stroke-width="1.33" stroke-linecap="round" stroke-linejoin="round"/>
<path d="M13.9999 10.0003L10.6666 6.66699L3.33325 14.0003" stroke="currentColor" stroke-width="1.33" stroke-linecap="round" stroke-linejoin="round"/>
<path d="M5.66675 6.66699C6.21903 6.66699 6.66675 6.21928 6.66675 5.66699C6.66675 5.11471 6.21903 4.66699 5.66675 4.66699C5.11446 4.66699 4.66675 5.11471 4.66675 5.66699C4.66675 6.21928 5.11446 6.66699 5.66675 6.66699Z" stroke="currentColor" stroke-width="1.33" stroke-linecap="round" stroke-linejoin="round"/>
</svg>
