<svg width="24" height="24" viewBox="0 0 24 24" fill="none" xmlns="http://www.w3.org/2000/svg">
<path d="M14.3042 0H5.66418C5.0531 0 4.00524 0.13404 3.45902 0.70296C2.9128 1.27188 2.78418 2.36346 2.78418 3V21.6C2.78418 22.2365 3.02691 22.847 3.45902 23.297C3.89108 23.7472 4.4771 24 5.08818 24H18.9122C19.5232 24 20.1093 23.7472 20.5413 23.297C20.9735 22.847 21.2162 22.2365 21.2162 21.6V7.2L14.3042 0Z" fill="#E5E5E5"/>
<path d="M14.3047 0V5.2C14.3047 6.30457 15.1643 7.2 16.2247 7.2H21.2167" fill="white" fill-opacity="0.25"/>
<mask id="mask0_1400_22287" style="mask-type:luminance" maskUnits="userSpaceOnUse" x="6" y="10" width="12" height="10">
<path d="M17.7602 10H6.24023V19.913H17.7602V10Z" fill="white"/>
</mask>
<g mask="url(#mask0_1400_22287)">
<path d="M8.02725 19.5791C7.65861 19.5791 7.37011 19.4706 7.16174 19.2536C6.95338 19.0365 6.8492 18.736 6.8492 18.352V15.9144C6.8492 15.8616 6.83584 15.817 6.80913 15.7809L6.44851 15.2466C6.38974 15.1548 6.36035 15.0546 6.36035 14.9461C6.36035 14.8376 6.38974 14.7374 6.44851 14.6456L6.80913 14.1113C6.83584 14.064 6.8492 14.0195 6.8492 13.9777V11.5402C6.8492 11.159 6.95338 10.8598 7.16174 10.6428C7.37011 10.423 7.65861 10.313 8.02725 10.313H8.59623V11.3816H8.10739C8.04327 11.3816 7.98851 11.4052 7.9431 11.4525C7.89769 11.4998 7.87498 11.5569 7.87498 11.6237V13.9777C7.87498 14.2504 7.79751 14.5009 7.64258 14.729L7.49031 14.9461L7.64258 15.1631C7.79751 15.3913 7.87498 15.6417 7.87498 15.9144V18.2685C7.87498 18.3381 7.89769 18.3965 7.9431 18.4438C7.98851 18.4939 8.04327 18.519 8.10739 18.519H8.59623V19.5791H8.02725ZM11.4026 18.953L11.4667 18.4772C11.5948 18.4883 11.6991 18.4661 11.7792 18.4104C11.8593 18.3576 11.914 18.2796 11.9435 18.1767C11.9756 18.0765 11.9822 17.9597 11.9635 17.8261H11.4026V16.6908H12.4924V17.8261C12.4924 18.2268 12.403 18.5301 12.2239 18.736C12.045 18.9419 11.7712 19.0142 11.4026 18.953ZM11.4026 14.4536V13.3183H12.4924V14.4536H11.4026ZM15.8715 19.5791H15.3025V18.519H15.7913C15.8554 18.519 15.9101 18.4939 15.9556 18.4438C16.001 18.3965 16.0237 18.3381 16.0237 18.2685V15.9144C16.0237 15.6417 16.1012 15.3913 16.2561 15.1631L16.4084 14.9461L16.2561 14.729C16.1012 14.5009 16.0237 14.2504 16.0237 13.9777V11.6237C16.0237 11.5569 16.001 11.4998 15.9556 11.4525C15.9101 11.4052 15.8554 11.3816 15.7913 11.3816H15.3025V10.313H15.8715C16.2401 10.313 16.5286 10.423 16.7369 10.6428C16.9453 10.8598 17.0495 11.159 17.0495 11.5402V13.9777C17.0495 14.0195 17.0628 14.064 17.0895 14.1113L17.4502 14.6456C17.5116 14.7374 17.5423 14.8376 17.5423 14.9461C17.5423 15.0546 17.5116 15.1548 17.4502 15.2466L17.0895 15.7809C17.0628 15.817 17.0495 15.8616 17.0495 15.9144V18.352C17.0495 18.736 16.9453 19.0365 16.7369 19.2536C16.5286 19.4706 16.2401 19.5791 15.8715 19.5791Z" fill="black"/>
</g>
</svg>
