<svg width="21" height="20" viewBox="0 0 21 20" fill="none" xmlns="http://www.w3.org/2000/svg">
<g clip-path="url(#clip0_1347_21096)">
<mask id="mask0_1347_21096" style="mask-type:luminance" maskUnits="userSpaceOnUse" x="0" y="0" width="21" height="20">
<path d="M20.5 0H0.5V20H20.5V0Z" fill="white"/>
</mask>
<g mask="url(#mask0_1347_21096)">
<path d="M6.32818 0.844127H19.6598C19.884 0.842955 20.0977 0.935143 20.2504 1.09764C20.4067 1.26483 20.4938 1.48514 20.4938 1.71405V18.243C20.4934 18.4719 20.4063 18.6918 20.2504 18.8594C20.0977 19.0223 19.8833 19.114 19.6598 19.1129H6.32818C5.86178 19.1047 5.49108 18.7195 5.49928 18.2531V18.2476V1.71483C5.48795 1.24725 5.85553 0.85819 6.32272 0.844127H6.32818Z" fill="#21A366"/>
<path d="M5.50008 9.97931V18.2692C5.47703 18.7356 5.83523 19.1317 6.30164 19.1547L6.30867 19.1551H19.6618C20.1313 19.1469 20.5052 18.7594 20.4958 18.2902V18.2848V9.99454L5.50008 9.97931Z" fill="#185C37"/>
<path d="M5.5 5.41406H20.4953V9.98438H5.5V5.41406Z" fill="#107C41"/>
<path d="M19.6613 0.844121H12.998V14.5492H20.4957V1.71482C20.4953 1.48592 20.4082 1.266 20.2523 1.09842C20.0984 0.935137 19.8844 0.84334 19.6613 0.844121Z" fill="#33C481"/>
<path d="M20.4998 5.41406H12.9971V9.98398H20.4998V5.41406Z" fill="#21A366"/>
<path d="M20.4998 9.97931H12.9971V14.5492H20.4998V9.97931Z" fill="#107C41"/>
<path d="M11.4271 9.98436H11.1889V9.98553H11.4271V9.98436ZM10.8053 4.57538H10.3799C10.4197 4.63788 10.449 4.7078 10.4646 4.78241H10.5615L10.5666 4.78202C10.5721 4.78202 10.5771 4.78241 10.5826 4.78241C10.9236 4.79374 11.192 5.07538 11.1885 5.41405H11.4264V5.22772C11.4365 4.87616 11.1584 4.58397 10.8053 4.57538Z" fill="#209D63"/>
<path d="M11.1883 9.98513V14.9429V14.9484C11.1895 15.0133 11.1805 15.075 11.1637 15.1343C11.1637 15.1863 11.1566 15.2375 11.1445 15.2855C11.3188 15.1683 11.4316 14.9672 11.4266 14.741V9.98474L11.1883 9.98513Z" fill="#175935"/>
<path d="M11.4268 5.41406H11.1889C11.1889 5.41914 11.1889 5.42461 11.1885 5.4293V9.98398H11.4268V5.41406Z" fill="#0F783F"/>
<path d="M5.51562 15.3066V16.7773H9.66094C10.118 16.7746 10.4883 16.4086 10.5 15.9543C10.4711 15.968 10.4402 15.9801 10.409 15.9895C10.2703 16.2625 9.9875 16.4492 9.66094 16.4516H5.51562V16.1613V15.3066Z" fill="#175633"/>
<path d="M11.1883 9.98439H11.1625V9.98556H11.1883V9.98439ZM10.5668 4.78204H10.5617L10.4648 4.78243C10.4754 4.83048 10.4801 4.88087 10.4785 4.93243V5.0465H10.557C10.8023 5.05626 11.0098 5.2047 11.1063 5.41408H11.1895C11.1926 5.07501 10.9242 4.79376 10.5836 4.78243C10.5773 4.78243 10.5723 4.78204 10.5668 4.78204Z" fill="#1E935C"/>
<path d="M11.1631 9.98517V15.0942L11.1635 15.1063C11.1639 15.1156 11.1639 15.1254 11.1639 15.1348C11.1807 15.0758 11.1893 15.0137 11.1885 14.9488V14.9434V9.98595L11.1631 9.98517Z" fill="#165332"/>
<path d="M11.1896 5.41406H11.1064C11.1463 5.50078 11.1674 5.59766 11.1639 5.69883V9.98398H11.1896V5.42969C11.1896 5.42461 11.1896 5.41953 11.1896 5.41406Z" fill="#0E703B"/>
<path d="M11.1453 15.2863C11.1211 15.3023 11.0965 15.3172 11.0703 15.3297C11.0133 15.4098 10.9379 15.4762 10.8504 15.5226C10.8336 15.593 10.8055 15.6586 10.7676 15.7183C10.9543 15.643 11.0961 15.4816 11.1453 15.2863Z" fill="#175633"/>
<path d="M11.1645 15.1343C11.1441 15.205 11.1125 15.2707 11.0703 15.3293C11.0965 15.3168 11.1211 15.3019 11.1453 15.2859C11.1574 15.2375 11.1641 15.1871 11.1645 15.1343Z" fill="#165332"/>
<path d="M11.0699 15.3297C11.0074 15.3605 10.9395 15.3812 10.8672 15.3898C10.866 15.4351 10.8602 15.4797 10.8496 15.5222C10.9379 15.4757 11.0129 15.4093 11.0699 15.3297Z" fill="#155030"/>
<path d="M10.557 5.04724H10.4785V5.08162C10.4785 5.09255 10.4789 5.10349 10.4785 5.11443V5.24763C10.4785 5.25857 10.4789 5.26951 10.4785 5.28044V5.38005C10.5398 5.38318 10.5984 5.39529 10.6539 5.41521H11.1055C11.0094 5.20544 10.8023 5.05623 10.557 5.04724Z" fill="#1C8A56"/>
<path d="M11.0748 9.98513V14.8969C11.0791 15.0887 10.999 15.2629 10.8682 15.3828C10.8682 15.3851 10.8682 15.3871 10.8682 15.3894C10.94 15.3808 11.0084 15.3597 11.0709 15.3293C11.1127 15.2707 11.1447 15.2051 11.165 15.1344C11.165 15.125 11.165 15.1156 11.1646 15.1058L11.1643 15.0937V9.98474L11.0748 9.98513Z" fill="#154E2E"/>
<path d="M11.1059 5.41406H10.6543C10.898 5.50078 11.073 5.73242 11.0746 6.00469V9.98438H11.1633V5.69922C11.1668 5.59766 11.1461 5.50078 11.1059 5.41406Z" fill="#0D6937"/>
<path d="M9.85781 4.28009H9.85234H5.5V4.87032V4.46173H9.85234H9.85781C9.9875 4.46486 10.107 4.50665 10.2062 4.57579H10.3801C10.2699 4.40236 10.0781 4.28556 9.85781 4.28009Z" fill="#21A265"/>
<path d="M10.3799 4.57538H10.2061C10.2838 4.62968 10.3486 4.70038 10.3955 4.78241H10.465C10.4486 4.7078 10.4197 4.63788 10.3799 4.57538Z" fill="#209C62"/>
<path d="M10.465 4.78241H10.3955C10.4408 4.86171 10.4693 4.95116 10.4771 5.04647H10.4787V4.93241C10.4803 4.88124 10.4756 4.83085 10.465 4.78241Z" fill="#1E925B"/>
<path d="M10.4791 5.04724H10.4775C10.4787 5.05857 10.4791 5.07029 10.4791 5.08162V5.04724Z" fill="#1C8855"/>
<path d="M10.408 15.9891C10.3564 16.0043 10.3018 16.0133 10.2451 16.0152H10.1283C9.99473 16.1063 9.8334 16.1594 9.65996 16.1606H5.51465V16.4508H9.65996C9.98691 16.4488 10.2693 16.2617 10.408 15.9891Z" fill="#144B2D"/>
<path d="M5.51562 15.3066V16.1605H9.66094C9.83477 16.1594 9.9957 16.1062 10.1293 16.0152H5.88906C5.81289 16.0129 5.74297 15.984 5.68984 15.9375H5.5168V15.7406V15.3066H5.51562Z" fill="#114227"/>
<path d="M5.58086 15.741H5.51562V15.9379H5.68867C5.63125 15.8883 5.59258 15.8188 5.58086 15.741Z" fill="#0F3A23"/>
<path d="M5.51562 15.3066V15.741H5.58086C5.57813 15.7223 5.57695 15.7031 5.57773 15.684V15.3098C5.57383 15.3098 5.5707 15.3098 5.5668 15.3098C5.54961 15.3098 5.53282 15.3086 5.51562 15.3066Z" fill="#0D321E"/>
<path d="M10.4795 5.37927V5.40662C10.4826 5.40935 10.4865 5.41169 10.49 5.41443H10.6549C10.5994 5.39451 10.54 5.3824 10.4795 5.37927Z" fill="#1A8050"/>
<path d="M10.8682 9.98474V15.3672C10.8682 15.3722 10.8682 15.3777 10.8682 15.3824C10.999 15.2625 11.0795 15.0886 11.0748 14.8969V9.98474H10.8682Z" fill="#13492B"/>
<path d="M10.6541 5.41406H10.4893C10.6049 5.50273 10.6869 5.60547 10.6869 5.72461V6.00898C10.8029 6.12773 10.8729 6.29102 10.8682 6.47031V9.9832H11.0748V6.0043C11.0729 5.73242 10.8982 5.50078 10.6541 5.41406Z" fill="#0D6233"/>
<path d="M5.50977 14.8934V15.3059L5.51523 15.3063V14.8977C5.51523 14.8977 5.51172 14.8949 5.50977 14.8934Z" fill="#155030"/>
<path d="M5.5207 15.2746H5.51562V15.3063C5.53242 15.3086 5.54961 15.3094 5.56719 15.3094C5.57109 15.3094 5.57423 15.3094 5.57812 15.3094V15.3055H5.52109L5.5207 15.2746Z" fill="#0C2E1C"/>
<path d="M5.57754 15.2746H5.52051V15.3058H5.57754V15.2746Z" fill="#0B2919"/>
<path d="M5.51562 14.8984V15.2754H5.5207V14.9027C5.51914 14.9004 5.51759 14.8992 5.51562 14.8984Z" fill="#0B2919"/>
<path d="M5.52051 14.9019V15.2746H5.57754V14.9371C5.55723 14.9277 5.53809 14.9156 5.52051 14.9019Z" fill="#0A2617"/>
<path d="M5.49868 4.86951C5.43383 4.9281 5.39399 5.01365 5.39555 5.10779V5.11326V14.6472C5.39555 14.7402 5.43501 14.8246 5.49868 14.8836V14.6804C5.45766 14.625 5.43383 14.5562 5.43657 14.4816V14.3519C5.43657 14.3453 5.43657 14.3383 5.43657 14.3316V14.1551C5.43657 14.1519 5.43657 14.1484 5.43657 14.1445V12.8074H5.49868V4.86951Z" fill="#CBCBCB"/>
<path d="M5.49902 14.6808C5.4998 14.6812 5.49941 14.6804 5.49902 14.6808Z" fill="#1A8251"/>
<path d="M5.5 14.6816V14.8844C5.50312 14.8871 5.50664 14.8902 5.50977 14.893V14.6941C5.50625 14.6898 5.50312 14.6863 5.5 14.6816Z" fill="#13492C"/>
<path d="M5.49863 12.8082H5.43652V14.1453C5.43652 14.1484 5.43652 14.1519 5.43652 14.1558V12.9953H5.49863V12.8082Z" fill="#CACACA"/>
<path d="M10.4795 5.40662V5.41443H10.49C10.4857 5.4113 10.4826 5.40935 10.4795 5.40662Z" fill="#156A42"/>
<path d="M10.4891 5.41406H10.4785V5.60625C10.5488 5.7 10.593 5.81406 10.602 5.93672C10.632 5.95859 10.6605 5.98281 10.6863 6.00977V5.72539C10.6867 5.60586 10.6047 5.50312 10.4891 5.41406Z" fill="#0A512A"/>
<path d="M10.4795 5.60663V5.70858C10.492 5.76288 10.499 5.81913 10.5002 5.87694C10.5365 5.89374 10.5709 5.91366 10.6025 5.93671C10.5932 5.81405 10.549 5.70038 10.4795 5.60663Z" fill="#094926"/>
<path d="M10.4795 5.70898V5.86797C10.4865 5.8707 10.4932 5.87383 10.5002 5.87734C10.4986 5.81992 10.4912 5.76328 10.4795 5.70898Z" fill="#07381E"/>
<path d="M5.50977 14.6945V14.8933C5.51133 14.8949 5.51523 14.8976 5.51523 14.8976V14.7004C5.51367 14.6988 5.51172 14.6965 5.50977 14.6945Z" fill="#114127"/>
<path d="M5.51562 14.7012V14.8984C5.51562 14.8984 5.51875 14.9012 5.5207 14.9023V14.7066C5.51914 14.7047 5.51759 14.7027 5.51562 14.7012Z" fill="#0A2617"/>
<path d="M5.52051 14.7066V14.9023C5.53809 14.916 5.55723 14.9281 5.57754 14.9379V14.7558C5.55684 14.7414 5.5373 14.725 5.52051 14.7066Z" fill="#092415"/>
<path d="M10.768 15.7176C10.7027 15.7438 10.6316 15.7598 10.557 15.7625H10.5V15.9328C10.5 15.9399 10.5 15.9469 10.5 15.9543C10.6102 15.902 10.7027 15.8195 10.768 15.7176Z" fill="#175633"/>
<path d="M10.4996 15.7625H10.4855C10.4707 15.8426 10.4445 15.9188 10.4082 15.9895C10.4395 15.9801 10.4703 15.9688 10.4992 15.9543C10.4992 15.9473 10.4992 15.9402 10.4992 15.9328L10.4996 15.7625Z" fill="#155030"/>
<path d="M10.8508 15.5223C10.7648 15.5684 10.6668 15.5945 10.5625 15.5961H10.5V15.6113V15.7621H10.557C10.6316 15.7594 10.7023 15.7434 10.768 15.7172C10.8059 15.6582 10.8336 15.5926 10.8508 15.5223Z" fill="#155030"/>
<path d="M10.4994 15.6117C10.499 15.6633 10.4939 15.7136 10.4854 15.7625H10.4994V15.6117Z" fill="#144B2D"/>
<path d="M10.8676 15.389C10.8648 15.3894 10.8621 15.3894 10.8594 15.3902C10.7617 15.4761 10.6375 15.5332 10.5 15.5469V15.5961H10.5621C10.6664 15.5945 10.7645 15.5676 10.8504 15.5222C10.8605 15.4797 10.8664 15.4351 10.8676 15.389Z" fill="#144B2D"/>
<path d="M10.868 15.3828C10.8652 15.3855 10.8625 15.3879 10.8594 15.3906C10.8621 15.3902 10.8648 15.3902 10.8676 15.3895C10.868 15.3871 10.868 15.3848 10.868 15.3828Z" fill="#13492B"/>
<path d="M10.4852 15.7625H10.3723C10.3098 15.8629 10.2266 15.9488 10.1289 16.0152H10.2457C10.302 16.0137 10.3563 16.0043 10.4086 15.9891C10.4441 15.9184 10.4707 15.8422 10.4852 15.7625Z" fill="#12462A"/>
<path d="M10.3721 15.7625H10.1666C10.0264 15.8703 9.85098 15.9356 9.66035 15.9379H5.68848C5.74199 15.9844 5.81113 16.0129 5.8873 16.0156H10.1283C10.2264 15.9492 10.3092 15.8625 10.3721 15.7625Z" fill="#113E25"/>
<path d="M10.4998 15.5965H10.4521C10.4314 15.6551 10.4045 15.7109 10.3721 15.7625H10.485C10.4943 15.7137 10.499 15.6633 10.499 15.6117L10.4998 15.5965Z" fill="#114227"/>
<path d="M10.4518 15.5965H10.3307C10.2842 15.659 10.2287 15.7152 10.167 15.7625H10.3725C10.4045 15.7102 10.4314 15.6551 10.4518 15.5965Z" fill="#103B23"/>
<path d="M10.4994 15.5469C10.4885 15.548 10.4779 15.5484 10.467 15.5492C10.4627 15.5652 10.4576 15.5809 10.4521 15.5965H10.4994V15.5469Z" fill="#113E25"/>
<path d="M10.4678 15.5492C10.4627 15.5492 10.458 15.5496 10.4529 15.5496H10.3635C10.3529 15.5656 10.342 15.5808 10.3311 15.5961H10.4521C10.458 15.5808 10.4627 15.5652 10.4678 15.5492Z" fill="#0F3821"/>
<path d="M6.09707 15.741H5.58105C5.59238 15.8188 5.63184 15.8883 5.68887 15.9379H9.66113C9.85176 15.9356 10.0271 15.8703 10.1674 15.7625H6.19941C6.16309 15.7606 6.12871 15.7531 6.09707 15.741Z" fill="#0E3821"/>
<path d="M10.3311 15.5965H10.1354C10.0018 15.6879 9.83965 15.741 9.66582 15.741H9.66074H6.09668C6.12832 15.7535 6.16309 15.7606 6.19902 15.7625H10.1666C10.2291 15.7149 10.2846 15.659 10.3311 15.5965Z" fill="#0E3520"/>
<path d="M10.3639 15.5496H10.1979C10.1779 15.566 10.1572 15.5813 10.1357 15.5961H10.3314C10.3428 15.5809 10.3537 15.5656 10.3639 15.5496Z" fill="#0D331E"/>
<path d="M5.79384 15.3058H5.6247C5.60947 15.3082 5.59345 15.309 5.57822 15.3098V15.684C5.57783 15.7031 5.57861 15.7223 5.58134 15.741H6.09736C5.98408 15.6973 5.90166 15.5918 5.89033 15.4672C5.84345 15.4242 5.80947 15.3691 5.79384 15.3058Z" fill="#0D301D"/>
<path d="M5.88965 15.4664C5.90098 15.5914 5.9834 15.6964 6.09668 15.7402H9.66074H9.66582C9.84004 15.7402 10.0018 15.6871 10.1354 15.5957H6.20918H6.20371C6.14238 15.5933 6.08535 15.5742 6.03809 15.5422C5.98184 15.5304 5.93105 15.5039 5.88965 15.4664Z" fill="#0C2E1C"/>
<path d="M6.03809 15.5425C6.08574 15.5742 6.14238 15.5941 6.20371 15.5961H6.20918H10.1354C10.1568 15.5812 10.1775 15.566 10.1975 15.5496H6.1002C6.0791 15.5492 6.0584 15.5468 6.03809 15.5425Z" fill="#0C2D1B"/>
<path d="M10.8594 15.3902C10.8414 15.3925 10.8238 15.3933 10.8051 15.3933H10.5V15.5461C10.6375 15.5332 10.7617 15.4769 10.8594 15.3902Z" fill="#13462A"/>
<path d="M10.6867 9.98474V14.3211C10.6883 14.4394 10.6582 14.5508 10.6035 14.6465V14.6523C10.6066 14.7867 10.5684 14.9125 10.5 15.0164V15.0871V15.3929H10.8051C10.823 15.3926 10.8414 15.3914 10.8594 15.3898C10.8621 15.3871 10.8648 15.3847 10.868 15.382C10.868 15.3769 10.868 15.3715 10.868 15.3668V9.98474H10.6867Z" fill="#124429"/>
<path d="M10.6865 6.00977V9.98438H10.8678V6.47148C10.8725 6.29219 10.8029 6.12891 10.6865 6.00977Z" fill="#0C5C30"/>
<path d="M10.4998 15.3941H10.4967C10.4916 15.4472 10.4818 15.4992 10.4678 15.5492C10.4787 15.5488 10.4896 15.548 10.5002 15.5468L10.4998 15.3941Z" fill="#103B23"/>
<path d="M10.5002 15.3211C10.5002 15.3457 10.499 15.3699 10.4971 15.3942H10.5002V15.3211Z" fill="#103A23"/>
<path d="M10.4967 15.3941H10.4436C10.4221 15.4488 10.3959 15.5011 10.3643 15.5496H10.4537C10.4588 15.5496 10.4635 15.5492 10.4686 15.5492C10.4822 15.4992 10.492 15.4472 10.4967 15.3941Z" fill="#0E3520"/>
<path d="M10.4994 15.0879C10.4994 15.1957 10.4791 15.2988 10.4424 15.3937H10.4955C10.4979 15.3695 10.4986 15.3457 10.4986 15.3207L10.4994 15.0879Z" fill="#0E341F"/>
<path d="M10.4434 15.3941H10.343C10.3012 15.4523 10.252 15.5043 10.1973 15.5496H10.3633C10.3953 15.5011 10.4223 15.4488 10.4434 15.3941Z" fill="#0D311D"/>
<path d="M10.4994 15.0176C10.4967 15.0219 10.4936 15.027 10.49 15.0312C10.4697 15.1656 10.4182 15.2887 10.3428 15.3941H10.4432C10.4799 15.2992 10.5002 15.1957 10.5002 15.0883L10.4994 15.0176Z" fill="#0D301D"/>
<path d="M5.88789 15.3058H5.79297C5.8082 15.3687 5.84297 15.4242 5.88945 15.4668C5.88828 15.457 5.88789 15.4465 5.88789 15.4359V15.3058Z" fill="#0C2E1C"/>
<path d="M5.89863 15.3058H5.8877V15.4363C5.8877 15.4469 5.88809 15.4566 5.88926 15.4672C5.93027 15.5043 5.98145 15.5312 6.0377 15.5433C5.95957 15.4902 5.90684 15.4039 5.89863 15.3058Z" fill="#0C2D1B"/>
<path d="M6.23652 15.3058H5.89941C5.90723 15.4039 5.96035 15.4906 6.03809 15.5426C6.0584 15.5469 6.07871 15.5492 6.1002 15.5496H10.1971C10.2518 15.5043 10.3014 15.4519 10.3428 15.3941H6.44746C6.36582 15.3914 6.29199 15.3578 6.23652 15.3058Z" fill="#0B2B1A"/>
<path d="M10.4906 15.0312C10.3789 15.193 10.1937 15.3008 9.98164 15.3059H9.66563H6.23633C6.29102 15.3586 6.36523 15.3914 6.44727 15.3941H10.343C10.4187 15.2891 10.4711 15.1652 10.4906 15.0312Z" fill="#0B2B1A"/>
<path d="M5.62363 15.3058H5.57715V15.3098C5.59238 15.3094 5.60762 15.3082 5.62363 15.3058Z" fill="#0C2D1B"/>
<path d="M5.78691 15.2746H5.57715V15.3058H5.62363H5.79277C5.79082 15.2957 5.78848 15.2851 5.78691 15.2746Z" fill="#0A2818"/>
<path d="M5.57715 14.9379V15.2754H5.78691C5.78457 15.2586 5.78301 15.2414 5.78379 15.2238V14.9703H5.70645C5.66035 14.9679 5.6166 14.9562 5.57715 14.9379Z" fill="#0A2516"/>
<path d="M10.6035 14.6469C10.575 14.6969 10.5398 14.7422 10.5 14.7828V15.0172C10.5684 14.9129 10.607 14.7871 10.6035 14.6535V14.6469Z" fill="#103D24"/>
<path d="M10.4996 14.9121C10.4996 14.9527 10.4965 14.9926 10.4902 15.0316C10.4934 15.0273 10.4961 15.0223 10.4996 15.018V14.9121Z" fill="#0C2C1B"/>
<path d="M10.5 14.7828C10.4691 14.8137 10.4359 14.841 10.3996 14.8644C10.2586 15.1254 9.9832 15.3035 9.66602 15.3055H9.98203C10.1941 15.3004 10.3793 15.1926 10.491 15.0308C10.4969 14.9918 10.4996 14.9519 10.5004 14.9113L10.5 14.7828Z" fill="#0A2818"/>
<path d="M5.88789 15.2746H5.78711C5.78867 15.2851 5.79023 15.2953 5.79297 15.3058H5.88789V15.2746Z" fill="#0A2718"/>
<path d="M5.89746 15.2746H5.8877V15.3058H5.89863C5.89824 15.2957 5.89746 15.2851 5.89746 15.2746Z" fill="#0A2617"/>
<path d="M6.20723 15.2746H5.89746C5.89746 15.2851 5.89746 15.2953 5.89863 15.3058H6.23574C6.22598 15.2961 6.21582 15.2855 6.20723 15.2746Z" fill="#0A2616"/>
<path d="M10.3998 14.8648C10.3904 14.8707 10.3811 14.8769 10.3713 14.8824C10.2229 15.1179 9.96035 15.2746 9.66113 15.2746H6.20801C6.2166 15.2855 6.22676 15.2961 6.23652 15.3058H9.66582C9.9834 15.3039 10.2592 15.1257 10.3998 14.8648Z" fill="#0A2516"/>
<path d="M5.88848 14.9695H5.78418V15.2231C5.78418 15.2406 5.78535 15.2574 5.7873 15.2746H5.88809L5.88848 14.9695Z" fill="#0A2416"/>
<path d="M5.89746 14.9695H5.8877V15.2746H5.89746C5.89746 15.2746 5.89746 15.2715 5.89746 15.2695V14.9695Z" fill="#092415"/>
<path d="M6.13672 14.9695H5.89844V15.2699V15.275H6.2082C6.16172 15.2168 6.13477 15.143 6.13711 15.0629L6.13672 14.9695Z" fill="#092315"/>
<path d="M10.3713 14.8824C10.2814 14.9351 10.1767 14.9668 10.065 14.9695H6.13691V15.0625C6.13417 15.1425 6.16152 15.2172 6.208 15.2746H9.66112C9.96034 15.2746 10.2228 15.1179 10.3713 14.8824Z" fill="#092315"/>
<path d="M10.6035 9.98474V14.6472C10.6582 14.5515 10.6883 14.4402 10.6867 14.3219V9.98513L10.6035 9.98474Z" fill="#0F3922"/>
<path d="M10.6025 5.93707C10.6041 5.95973 10.6049 5.98199 10.6037 6.00504V9.98434H10.6869V6.00973C10.6611 5.98317 10.6326 5.95895 10.6025 5.93707Z" fill="#0A4D28"/>
<path d="M5.57715 14.7551V14.9371C5.6166 14.9562 5.66035 14.9672 5.70684 14.9687H5.78418V14.8012L5.74785 14.8082H5.74238C5.68066 14.8066 5.62402 14.7871 5.57715 14.7551Z" fill="#092315"/>
<path d="M10.5 9.98474V14.7832C10.5406 14.7426 10.575 14.6972 10.6035 14.6472V9.98474H10.5Z" fill="#0E341F"/>
<path d="M10.5 5.87732C10.5 5.88396 10.5 5.8906 10.5 5.89646V6.09333V6.27966V9.98435H10.6035V6.00505C10.6039 5.98201 10.6039 5.95974 10.6023 5.93708C10.5699 5.91404 10.5359 5.89412 10.5 5.87732Z" fill="#094624"/>
<path d="M10.4795 5.86798V5.91993C10.492 5.97579 10.499 6.034 10.5002 6.09298V5.89611C10.5002 5.88947 10.5002 5.88282 10.5002 5.87697C10.4932 5.87384 10.4857 5.87072 10.4795 5.86798Z" fill="#07361D"/>
<path d="M10.4795 5.91992V6.11172C10.492 6.16602 10.499 6.22187 10.5002 6.2793V6.09297C10.499 6.03398 10.492 5.97578 10.4795 5.91992Z" fill="#07331B"/>
<path d="M10.4998 14.4664C10.4998 14.6105 10.4635 14.7457 10.3994 14.8648C10.4357 14.8406 10.4689 14.8132 10.4998 14.7832V14.4664Z" fill="#0A2516"/>
<path d="M10.5 14.4359C10.5 14.6004 10.4527 14.7531 10.3711 14.8832C10.3809 14.8777 10.3902 14.8719 10.3996 14.8656C10.4637 14.7472 10.5 14.6113 10.5 14.4672V14.4359Z" fill="#092315"/>
<path d="M10.4795 6.11169V6.33982C10.492 6.39568 10.499 6.45388 10.5002 6.51287V6.8031V9.98396V6.27927C10.499 6.22185 10.4912 6.16599 10.4795 6.11169Z" fill="#063119"/>
<path d="M10.4795 6.33984V6.63008C10.492 6.68594 10.499 6.74414 10.5002 6.80312V6.51289C10.499 6.45312 10.492 6.3957 10.4795 6.33984Z" fill="#062F19"/>
<path d="M5.88809 14.7816L5.78418 14.8019V14.9695H5.88809V14.7816Z" fill="#092315"/>
<path d="M5.89746 14.7801L5.8877 14.7817V14.9695H5.89746V14.7801Z" fill="#092214"/>
<path d="M10.4795 6.63007V6.94608C10.4928 7.0035 10.4998 7.06288 10.5002 7.12421V9.98397V6.80311C10.499 6.74374 10.492 6.68593 10.4795 6.63007Z" fill="#062E18"/>
<path d="M6.13613 14.7344L5.89746 14.7801V14.9695H6.13613V14.7344Z" fill="#092214"/>
<path d="M10.4789 9.98436V13.4765C10.4789 13.834 9.55664 14.1449 9.20977 14.1449L6.13672 14.734V14.9691H10.0648C10.1766 14.9664 10.2809 14.9351 10.3711 14.882C10.4527 14.7527 10.5 14.5992 10.5 14.4348V9.98358L10.4789 9.98436Z" fill="#092214"/>
<path d="M10.4795 6.94647V9.98436H10.5002V7.1246C10.4994 7.06288 10.4924 7.00311 10.4795 6.94647Z" fill="#062D18"/>
<path d="M9.85781 4.46094H9.85234H5.5V4.86953V4.62617H6.28359C6.33125 4.59531 6.38789 4.57617 6.44805 4.57461H10.2066C10.107 4.50625 9.9875 4.46406 9.85781 4.46094Z" fill="#1F975F"/>
<path d="M10.2062 4.57538H6.44766C6.38672 4.57772 6.33047 4.59608 6.2832 4.62694H9.85195H9.85742C10.0113 4.63085 10.1516 4.68905 10.2598 4.78241H10.3957C10.3488 4.70038 10.284 4.62968 10.2062 4.57538Z" fill="#1E925B"/>
<path d="M10.3957 4.78241H10.2598C10.341 4.85311 10.4043 4.94413 10.4418 5.04647H10.4773C10.4699 4.95116 10.4406 4.86171 10.3957 4.78241Z" fill="#1C8855"/>
<path d="M10.477 5.04724H10.4414C10.4641 5.11013 10.477 5.17693 10.4793 5.24724V5.08162C10.4785 5.06951 10.4781 5.05818 10.477 5.04724Z" fill="#1A8050"/>
<path d="M5.49922 12.9953H5.4375V14.1551V13.1504H5.49922V12.9953Z" fill="#BEBEBE"/>
<path d="M5.43766 14.3524V14.482C5.43532 14.5567 5.45837 14.6258 5.49977 14.6809V14.5313C5.46227 14.4809 5.43962 14.4188 5.43766 14.3524Z" fill="#B9B9B9"/>
<path d="M5.49902 14.5305C5.4998 14.5312 5.49941 14.5305 5.49902 14.5305Z" fill="#18774A"/>
<path d="M5.5 14.5316V14.6816C5.50312 14.6859 5.50664 14.6902 5.50977 14.6941V14.5441C5.50625 14.5398 5.50312 14.5359 5.5 14.5316Z" fill="#114328"/>
<path d="M5.50977 14.5441V14.6941C5.51133 14.6965 5.51367 14.6984 5.51523 14.7008V14.5508C5.51367 14.5488 5.51172 14.5465 5.50977 14.5441Z" fill="#103C24"/>
<path d="M5.51562 14.5508V14.7008C5.51719 14.7023 5.51875 14.7047 5.5207 14.7063V14.5563C5.51914 14.5543 5.51759 14.5523 5.51562 14.5508Z" fill="#0A2516"/>
<path d="M5.52051 14.5562V14.7062C5.5373 14.725 5.55684 14.7414 5.57754 14.755V14.605C5.55684 14.5914 5.5373 14.575 5.52051 14.5562Z" fill="#092315"/>
<path d="M5.57715 14.605V14.755C5.62441 14.7867 5.68145 14.8058 5.74199 14.8082H5.74746L5.78379 14.8011V14.6511L5.74746 14.6582H5.74199C5.68066 14.6562 5.62402 14.6367 5.57715 14.605Z" fill="#092214"/>
<path d="M5.88809 14.6312L5.78418 14.6515V14.8019L5.88809 14.7816V14.6312Z" fill="#092214"/>
<path d="M5.89746 14.6293L5.8877 14.6312V14.7816L5.89746 14.7801V14.6293Z" fill="#092214"/>
<path d="M6.13613 14.5832L5.89746 14.6293V14.7801L6.13613 14.7344V14.5832Z" fill="#092114"/>
<path d="M10.4789 9.98438V13.3215C10.4789 13.6789 9.55664 13.9898 9.20977 13.9898L6.13672 14.5832V14.734L9.20977 14.1449C9.55664 14.1449 10.4789 13.8344 10.4789 13.4766V9.98438Z" fill="#092114"/>
<path d="M6.28359 4.62695H5.5V4.87031C5.55469 4.82031 5.62773 4.78906 5.70781 4.78828H6.15586C6.17969 4.72109 6.22461 4.66445 6.28359 4.62695Z" fill="#1C8855"/>
<path d="M9.85723 4.62695H9.85176H6.28301C6.22441 4.66484 6.17949 4.72109 6.15527 4.7875H6.16191C6.17715 4.78477 6.19316 4.7832 6.20918 4.78242H10.2592C10.151 4.68867 10.0111 4.63047 9.85723 4.62695Z" fill="#1B8453"/>
<path d="M10.2594 4.78241H6.20938C6.19336 4.7828 6.17773 4.78475 6.16211 4.78749H8.87852C9.18203 4.78905 9.48164 4.866 9.74922 5.01053C9.75781 5.02186 9.77383 5.03397 9.79453 5.04725H10.441C10.4039 4.94413 10.341 4.85311 10.2594 4.78241Z" fill="#197C4E"/>
<path d="M10.4414 5.04724H9.79492C9.81133 5.05701 9.83047 5.06794 9.85313 5.07888C9.90742 5.09138 9.95938 5.10974 10.0094 5.13201C10.0641 5.1574 10.1156 5.18787 10.1633 5.22341C10.2574 5.26873 10.3551 5.32029 10.4395 5.3781H10.4535C10.4621 5.3781 10.4703 5.37849 10.4793 5.37927V5.24724C10.477 5.17693 10.4645 5.10974 10.4414 5.04724Z" fill="#187549"/>
<path d="M9.85254 5.07892C9.93184 5.11954 10.0447 5.1672 10.1627 5.22345C10.115 5.1879 10.0635 5.15704 10.0088 5.13204C9.95879 5.10978 9.90684 5.09142 9.85254 5.07892Z" fill="#115535"/>
<path d="M10.4535 5.37811H10.4395C10.4531 5.38749 10.4664 5.39686 10.4789 5.40663V5.37929C10.4703 5.3785 10.4621 5.3785 10.4535 5.37811Z" fill="#166F45"/>
<path d="M5.4375 14.1551V14.3524C5.43984 14.4188 5.46211 14.4805 5.49961 14.5305V14.3383C5.46133 14.2871 5.43867 14.2238 5.4375 14.1551Z" fill="#AFAFAF"/>
<path d="M5.49902 14.3383V14.5304L5.4998 14.5312V14.339L5.49902 14.3383Z" fill="#177046"/>
<path d="M5.5 14.3394V14.5316C5.50312 14.5359 5.50664 14.5402 5.50977 14.5441V14.3519C5.50625 14.3476 5.50312 14.3437 5.5 14.3394Z" fill="#103F26"/>
<path d="M5.49863 13.1504H5.43652V14.1555C5.4377 14.2238 5.46074 14.2871 5.49863 14.3387V13.1504Z" fill="#AEAEAE"/>
<path d="M6.15586 4.78748H5.70781C5.62773 4.78865 5.55508 4.8199 5.5 4.86951V13.1504V14.3383L5.50039 9.97849V5.41365H5.51016V5.37732C5.51172 5.37693 5.51406 5.37615 5.51562 5.37576V5.05623H5.90195C5.92148 4.92263 6.02344 4.81521 6.15508 4.78826C6.15508 4.78826 6.15586 4.78787 6.15586 4.78748Z" fill="#176F46"/>
<path d="M5.5 9.97931V14.3395C5.50312 14.3438 5.50664 14.3481 5.50977 14.352V9.98439H5.5V9.97931Z" fill="#103F26"/>
<path d="M5.50977 5.41406H5.5V9.9793V9.98438H5.50977V5.41406Z" fill="#0B552C"/>
<path d="M6.1623 4.78748H6.15566L6.15527 4.78865C6.15527 4.78865 6.15996 4.78787 6.1623 4.78748Z" fill="#166D44"/>
<path d="M6.15449 4.78906C6.02246 4.81602 5.92051 4.92344 5.90137 5.05703H6.12871C6.13145 5.05664 6.13379 5.05586 6.13652 5.05547V4.90195C6.13535 4.86172 6.14199 4.82422 6.15449 4.78906Z" fill="#156942"/>
<path d="M8.87795 4.78748H6.16154C6.1592 4.78787 6.15724 4.78865 6.15451 4.78865C6.14201 4.8238 6.13537 4.86209 6.13576 4.90154V5.05505C6.15607 5.04998 6.17677 5.04724 6.19826 5.04685H9.79357C9.77287 5.03357 9.75685 5.02146 9.74826 5.01013C9.48107 4.8656 9.18185 4.78904 8.87795 4.78748Z" fill="#156640"/>
<path d="M6.13672 5.05469C6.13398 5.05508 6.13164 5.05586 6.12891 5.05625H6.13672V5.05469Z" fill="#14643F"/>
<path d="M9.79453 5.04724H6.19922C6.17773 5.04763 6.15703 5.05037 6.13672 5.05544V5.05701H9.66016H9.66563C9.72969 5.0574 9.79219 5.06521 9.85234 5.07888C9.83008 5.06755 9.81016 5.05701 9.79453 5.04724Z" fill="#14623D"/>
<path d="M9.66563 5.05701H9.66016C9.72656 5.05701 9.79063 5.06482 9.85234 5.07888C9.79219 5.06443 9.72969 5.05701 9.66563 5.05701Z" fill="#115535"/>
<path d="M10.1631 5.22345C10.2221 5.26798 10.2756 5.31993 10.3213 5.37814H10.4396C10.3549 5.32072 10.2572 5.26915 10.1631 5.22345Z" fill="#14623D"/>
<path d="M5.90195 5.05701H5.51562V5.37654V5.26404H5.5207V5.05701H5.90195Z" fill="#135E3B"/>
<path d="M5.90176 5.05701H5.52051V5.26404H5.89863V5.10388C5.89785 5.08826 5.8998 5.07224 5.90176 5.05701Z" fill="#115233"/>
<path d="M6.12891 5.05701H5.90156C5.89922 5.07224 5.89844 5.08826 5.89844 5.10427V5.26443H5.90547C5.93984 5.16287 6.02383 5.08396 6.12891 5.05701Z" fill="#104F32"/>
<path d="M6.13652 5.05701H6.12871C6.02363 5.08396 5.93965 5.16326 5.90527 5.26404H6.13652V5.05701Z" fill="#104D30"/>
<path d="M9.66016 5.05701H6.13672V5.26404H9.66016C9.79609 5.26443 9.925 5.29802 10.0383 5.35544C10.0773 5.35935 10.1148 5.36677 10.1516 5.3781H10.3207C10.2754 5.3199 10.2215 5.26794 10.1625 5.22341C10.0453 5.16716 9.93164 5.11912 9.85234 5.07888C9.79063 5.06443 9.72656 5.05701 9.66016 5.05701Z" fill="#0F4C2F"/>
<path d="M5.5207 5.26404H5.51562V5.37654L5.5207 5.37498V5.26404Z" fill="#115233"/>
<path d="M5.89766 5.26404H5.51953V5.37459C5.53477 5.37029 5.55039 5.36794 5.56602 5.36794C5.58516 5.36794 5.6043 5.37107 5.62305 5.37732H5.88711C5.88594 5.34607 5.88984 5.31599 5.89688 5.28709L5.89766 5.26404Z" fill="#0F4A2E"/>
<path d="M5.90547 5.26404H5.89844V5.28748C5.90039 5.28005 5.90313 5.27185 5.90547 5.26404Z" fill="#0E472C"/>
<path d="M5.8977 5.28748C5.88989 5.31638 5.88676 5.34646 5.88793 5.37771H5.8977V5.28748Z" fill="#0E472C"/>
<path d="M6.13672 5.26404H5.90547C5.90273 5.27185 5.90039 5.28005 5.89844 5.28748V5.37771H6.13672V5.26404Z" fill="#0E462C"/>
<path d="M9.66016 5.26404H6.13672V5.3781H9.97148L9.98242 5.35232H9.99297C10.0082 5.35271 10.0238 5.35388 10.0383 5.35544C9.92422 5.29802 9.79609 5.26521 9.66016 5.26404Z" fill="#0E442B"/>
<path d="M10.4387 5.37811H10.3203C10.3297 5.38944 10.3383 5.40155 10.3473 5.41444H10.4781V5.40663C10.4656 5.39725 10.4523 5.38749 10.4387 5.37811Z" fill="#135D3A"/>
<path d="M10.4795 5.41406H10.3486C10.376 5.45313 10.4002 5.49453 10.4209 5.53828C10.4424 5.55977 10.4619 5.58203 10.4795 5.60625V5.41406Z" fill="#094725"/>
<path d="M10.3215 5.37811H10.1523C10.1848 5.38749 10.216 5.39999 10.2461 5.41444H10.3484C10.3395 5.40233 10.3301 5.39022 10.3215 5.37811Z" fill="#0F492E"/>
<path d="M10.3475 5.41406H10.2451C10.3104 5.44531 10.3689 5.4875 10.4193 5.53789C10.3994 5.49492 10.3748 5.45313 10.3475 5.41406Z" fill="#07371D"/>
<path d="M5.50977 14.3519V14.5441C5.51133 14.5465 5.51367 14.5484 5.51523 14.5508V14.3586C5.51367 14.3562 5.51172 14.3543 5.50977 14.3519Z" fill="#0F3922"/>
<path d="M5.51523 5.37653L5.50977 5.37809V5.41442H5.51523V5.37653Z" fill="#14643E"/>
<path d="M5.51523 9.98438H5.50977V14.352C5.51133 14.3543 5.51367 14.3562 5.51523 14.3586V9.98438Z" fill="#0F3822"/>
<path d="M5.51562 5.41406H5.50977V9.98438H5.51562V6.28984V5.68398V5.41406Z" fill="#0A4C28"/>
<path d="M10.0381 5.35626C10.0518 5.36329 10.0654 5.37111 10.0791 5.37892H10.1514C10.1146 5.36759 10.0768 5.36017 10.0381 5.35626Z" fill="#0E472C"/>
<path d="M5.5207 5.37457C5.5207 5.37457 5.51759 5.37574 5.51562 5.37614V5.41403H5.5207V5.37457Z" fill="#0F4C30"/>
<path d="M5.5207 5.41406H5.51562V5.68398V5.46094H5.5207V5.41406Z" fill="#073A1E"/>
<path d="M5.56699 5.36871C5.55098 5.36871 5.53574 5.37106 5.52051 5.37535V5.41481H5.88887V5.37926L5.6248 5.37887C5.60527 5.37184 5.58613 5.36871 5.56699 5.36871Z" fill="#0E462C"/>
<path d="M5.88789 5.41406H5.51953V5.46055H5.88672L5.88789 5.46016V5.41406Z" fill="#07361C"/>
<path d="M5.89746 5.37811H5.8877V5.41405H5.89746V5.37811Z" fill="#0E442A"/>
<path d="M5.89746 5.41406H5.8877V5.46016C5.89082 5.45742 5.89434 5.4543 5.89746 5.45156V5.41406Z" fill="#07341B"/>
<path d="M6.13672 5.37811H5.89844V5.41444H5.95391C5.99766 5.39139 6.04766 5.37811 6.10078 5.37811H6.13672Z" fill="#0D4229"/>
<path d="M5.95391 5.41406H5.89844V5.45117C5.91523 5.43711 5.93398 5.42461 5.95391 5.41406Z" fill="#06321A"/>
<path d="M9.99297 5.35272H9.98242L9.97148 5.3785H6.13672H10.0793C10.0656 5.37069 10.052 5.36327 10.0383 5.35585C10.023 5.35468 10.0086 5.3535 9.99297 5.35272Z" fill="#0D4229"/>
<path d="M5.5207 5.46094H5.51562V5.68398H5.5207V5.46094Z" fill="#07361C"/>
<path d="M5.5207 5.68396H5.51562V5.97419H5.5207V5.68396Z" fill="#07341B"/>
<path d="M5.51562 14.3586V14.5508C5.51719 14.5523 5.51875 14.5547 5.5207 14.5562V14.3641C5.51914 14.3625 5.51759 14.3601 5.51562 14.3586Z" fill="#0A2416"/>
<path d="M5.5207 5.97418H5.51562V6.28981H5.5207V5.97418Z" fill="#06311A"/>
<path d="M5.5207 9.98438H5.51562V14.3586C5.51719 14.3602 5.51875 14.3625 5.5207 14.3641V9.98438Z" fill="#0A2416"/>
<path d="M5.5207 6.28986H5.51562V9.98439H5.5207V6.28986Z" fill="#06311A"/>
<path d="M5.88769 5.46094H5.52051V5.68398H5.78457C5.7873 5.5957 5.82676 5.5168 5.88769 5.46094Z" fill="#07321A"/>
<path d="M5.78457 5.68396H5.52051V5.97419H5.62559C5.6623 5.91443 5.71777 5.86677 5.78457 5.8406V5.70466V5.69412C5.78457 5.69099 5.78457 5.68708 5.78457 5.68396Z" fill="#063019"/>
<path d="M5.52051 14.3641V14.5563C5.5373 14.575 5.55684 14.5914 5.57754 14.6051V14.4129C5.55684 14.3992 5.5373 14.3828 5.52051 14.3641Z" fill="#092214"/>
<path d="M5.62559 5.97418H5.52051V6.2902H5.57754V6.14488C5.57793 6.08199 5.59551 6.02418 5.62559 5.97418Z" fill="#062F19"/>
<path d="M5.57754 9.98438H5.52051V14.3641C5.5373 14.3828 5.55684 14.3992 5.57754 14.4133V9.98438Z" fill="#092214"/>
<path d="M5.57754 6.28986H5.52051V9.98439H5.57754V6.28986Z" fill="#062E18"/>
<path d="M10.4199 5.53864C10.4453 5.59215 10.4652 5.64918 10.4785 5.70895V5.60699C10.4609 5.58239 10.4414 5.56012 10.4199 5.53864Z" fill="#084122"/>
<path d="M10.1514 5.37811H10.0791C10.0982 5.38944 10.1174 5.40155 10.1354 5.41444H10.2443C10.215 5.39999 10.1838 5.38788 10.1514 5.37811Z" fill="#0E462B"/>
<path d="M10.2457 5.41406H10.1367C10.2906 5.52109 10.4078 5.67773 10.4637 5.86133C10.4691 5.86367 10.4742 5.86562 10.4789 5.86797V5.70898C10.4652 5.64922 10.4453 5.59219 10.4199 5.53867C10.3695 5.4875 10.3109 5.44531 10.2457 5.41406Z" fill="#07351C"/>
<path d="M5.89746 5.45154C5.89434 5.45427 5.89082 5.45701 5.8877 5.46013L5.89746 5.46052V5.45154Z" fill="#06321A"/>
<path d="M6.13633 5.37811H6.1C6.04687 5.37811 5.99687 5.39139 5.95312 5.41444H6.13633V5.37811Z" fill="#0D4128"/>
<path d="M6.13613 5.41406H5.95293C5.9334 5.42461 5.91465 5.43711 5.89746 5.45117V5.46055H6.13574L6.13613 5.41406Z" fill="#06311A"/>
<path d="M10.0793 5.37811H6.13672V5.41444H10.1363C10.1176 5.40155 10.0984 5.38944 10.0793 5.37811Z" fill="#0D4128"/>
<path d="M10.1359 5.41406H6.13672V5.46055H9.66016C9.94883 5.46055 10.2047 5.60703 10.3563 5.82969C10.393 5.83672 10.4293 5.84766 10.4633 5.86094C10.4074 5.67773 10.2906 5.52109 10.1359 5.41406Z" fill="#06311A"/>
<path d="M5.88848 5.46094H5.8873C5.82637 5.51641 5.7877 5.5957 5.78418 5.68398H5.88848V5.46094Z" fill="#06311A"/>
<path d="M5.88848 5.68396H5.78418C5.78418 5.68708 5.78418 5.69099 5.78418 5.69451V5.70505V5.84099C5.8166 5.82849 5.85176 5.82029 5.88848 5.81834V5.68396Z" fill="#062F19"/>
<path d="M5.89746 5.46094H5.8877V5.68398H5.89746V5.46094Z" fill="#063119"/>
<path d="M5.89746 5.68396H5.8877V5.81873H5.89746V5.68396Z" fill="#062F19"/>
<path d="M6.13613 5.46094H5.89746V5.68398H6.13613V5.46094Z" fill="#062F19"/>
<path d="M9.66016 5.46094H6.13672V5.68398H9.66016C9.82656 5.68516 9.98242 5.73438 10.1129 5.81875H10.2461H10.2516C10.2871 5.81992 10.3223 5.82383 10.3563 5.83086C10.2047 5.60703 9.94883 5.46094 9.66016 5.46094Z" fill="#062F19"/>
<path d="M6.13613 5.68396H5.89746V5.81873H6.13613V5.68396Z" fill="#062E18"/>
<path d="M9.66016 5.68396H6.13672V5.81873H10.1129C9.98164 5.73435 9.82656 5.68474 9.66016 5.68396Z" fill="#062E18"/>
<path d="M5.78398 5.84064C5.71758 5.86681 5.66172 5.91407 5.625 5.97423H5.78398V5.84064Z" fill="#062F19"/>
<path d="M5.57715 14.4129V14.6051C5.62441 14.6367 5.68145 14.6559 5.74199 14.6582H5.74746L5.78379 14.6512V14.4594L5.74746 14.4664C5.68457 14.4652 5.62598 14.4457 5.57715 14.4129Z" fill="#092214"/>
<path d="M5.78418 5.97418H5.6252C5.59434 6.02418 5.57715 6.08278 5.57715 6.14528V6.29059H5.78379L5.78418 5.97418Z" fill="#062E18"/>
<path d="M5.78379 9.98438H5.57715V14.4129C5.62598 14.4457 5.68457 14.4656 5.74824 14.4664L5.78457 14.4594L5.78379 9.98438Z" fill="#092214"/>
<path d="M5.78379 6.28986H5.57715V9.98439H5.78379V6.28986Z" fill="#062E18"/>
<path d="M10.4629 5.86212C10.4687 5.88126 10.4738 5.9004 10.4781 5.92032V5.86837C10.4734 5.86564 10.4684 5.86368 10.4629 5.86212Z" fill="#07331B"/>
<path d="M10.3564 5.83008C10.4135 5.91406 10.4557 6.00937 10.4791 6.11133V5.91953C10.4748 5.89961 10.4693 5.88047 10.4639 5.86133C10.4295 5.84805 10.3932 5.83789 10.3564 5.83008Z" fill="#063019"/>
<path d="M5.88848 5.81873C5.85176 5.82029 5.8166 5.8281 5.78418 5.84138V5.97498H5.88848V5.81873Z" fill="#062F19"/>
<path d="M5.89746 5.81873H5.8877V5.97419H5.89746V5.81873Z" fill="#062E18"/>
<path d="M10.251 5.81873H10.2455H10.1123C10.2943 5.93669 10.4283 6.12185 10.4783 6.33982V6.11169C10.4549 6.00974 10.4127 5.91443 10.3557 5.83044C10.3217 5.82341 10.2869 5.8199 10.251 5.81873Z" fill="#062F19"/>
<path d="M6.13613 5.81873H5.89746V5.97419H6.13613V5.81873Z" fill="#062E18"/>
<path d="M10.1129 5.81873H6.13672V5.97419H9.66016C10.059 5.97654 10.3934 6.25583 10.4789 6.63005V6.33982C10.4289 6.12146 10.2945 5.93591 10.1129 5.81873Z" fill="#062D18"/>
<path d="M5.88809 14.4395L5.78418 14.4598V14.6516L5.88809 14.6313V14.4395Z" fill="#092214"/>
<path d="M5.89746 14.4379L5.8877 14.4394V14.6312L5.89746 14.6293V14.4379Z" fill="#092114"/>
<path d="M6.13613 14.3918L5.89746 14.4379V14.6293L6.13613 14.5832V14.3918Z" fill="#092114"/>
<path d="M10.4789 9.98438V13.1348C10.4789 13.4922 9.55664 13.8031 9.20977 13.8031L6.13672 14.3922V14.5836L9.20977 13.9902C9.55664 13.9902 10.4789 13.6789 10.4789 13.3219V9.98438Z" fill="#092114"/>
<path d="M5.88809 5.97418H5.78418V6.28981H5.88809V5.97418Z" fill="#062E18"/>
<path d="M5.88809 9.98438H5.78418V14.4598L5.88809 14.4395V9.98438Z" fill="#092214"/>
<path d="M5.88809 6.28986H5.78418V9.98439H5.88809V6.28986Z" fill="#062D18"/>
<path d="M5.89746 5.97418H5.8877V6.28981H5.89746V5.97418Z" fill="#062D18"/>
<path d="M5.89746 9.98438H5.8877V14.4395L5.89746 14.4379V9.98438Z" fill="#092114"/>
<path d="M5.89746 6.28986H5.8877V9.98439H5.89746V6.28986Z" fill="#062D17"/>
<path d="M6.13613 5.97418H5.89746V6.28981H6.13613V5.97418Z" fill="#062D17"/>
<path d="M9.66016 5.97418H6.13672V6.2902H9.66016C10.0598 6.29254 10.3934 6.57184 10.4789 6.94606V6.63004C10.3934 6.25543 10.059 5.97653 9.66016 5.97418Z" fill="#062C17"/>
<path d="M6.13613 9.98438H5.89746V14.4379L6.13613 14.3918V9.98438Z" fill="#092114"/>
<path d="M6.13613 6.28986H5.89746V9.98439H6.13613V6.28986Z" fill="#062C17"/>
<path d="M10.3039 9.98438H6.13672V14.3922L9.20977 13.8031C9.55664 13.8031 10.4789 13.4918 10.4789 13.1348V9.98438H10.3039Z" fill="#092114"/>
<path d="M9.66016 6.28986H6.13672V9.984H10.3039H10.4785V6.94611C10.3934 6.57228 10.0594 6.29259 9.66016 6.28986Z" fill="#062C17"/>
<path d="M1.33416 4.75623H9.6658C10.1369 4.7699 10.5092 5.16052 10.4998 5.63201V14.332C10.5174 14.8031 10.1525 15.2011 9.68103 15.2234H1.33416C0.864627 15.2148 0.490798 14.8277 0.500173 14.3586V14.3531V5.6324C0.490798 5.16091 0.862673 4.77029 1.33416 4.75623Z" fill="#107C41"/>
<path d="M2.76855 13.2441L4.73262 10.0418L2.9291 6.88043H4.38027L5.35957 8.90114C5.4291 9.04645 5.4916 9.19528 5.54629 9.34645C5.6084 9.19645 5.68105 9.04059 5.75332 8.90114L6.79004 6.89567H8.12208L6.29316 10.0402L8.18419 13.2371H6.76504L5.6248 11.0347C5.57285 10.939 5.52637 10.8402 5.48496 10.7394C5.45059 10.839 5.40566 10.9343 5.35019 11.0242L4.18457 13.2468L2.76855 13.2441Z" fill="white"/>
</g>
</g>
<defs>
<clipPath id="clip0_1347_21096">
<rect width="21" height="20" fill="white"/>
</clipPath>
</defs>
</svg>
