<svg width="21" height="20" viewBox="0 0 21 20" fill="none" xmlns="http://www.w3.org/2000/svg">
<mask id="mask0_1347_21344" style="mask-type:luminance" maskUnits="userSpaceOnUse" x="0" y="0" width="21" height="20">
<path d="M20.5 0H0.5V20H20.5V0Z" fill="white"/>
</mask>
<g mask="url(#mask0_1347_21344)">
<path d="M13.1411 -0.0043335L18.167 5.01039H8.11523L13.1411 -0.0043335Z" fill="#7EC9A6"/>
<path d="M3.08499 0H13.1444V19.082C13.1444 19.3255 13.0476 19.559 12.8755 19.7311C12.7033 19.9033 12.4698 20 12.2264 20H3.08499C2.84152 20 2.60803 19.9033 2.43587 19.7311C2.26371 19.559 2.16699 19.3255 2.16699 19.082V0.918C2.16699 0.674531 2.26371 0.441034 2.43587 0.268876C2.60803 0.0967176 2.84152 0 3.08499 0Z" fill="#109C56"/>
<path d="M8.0762 5.00958H18.1666V19.082C18.1666 19.3255 18.0699 19.5589 17.8978 19.7311C17.7256 19.9033 17.4921 20 17.2486 20H8.0762C7.83273 20 7.59924 19.9033 7.42708 19.7311C7.25492 19.5589 7.1582 19.3255 7.1582 19.082V5.92758C7.1582 5.68411 7.25492 5.45062 7.42708 5.27846C7.59924 5.1063 7.83273 5.00958 8.0762 5.00958Z" fill="#109C56"/>
<path d="M18.1657 5.00957L18.1681 10.0287L13.1465 5.00714L18.1657 5.00957Z" fill="#0C7540"/>
<path d="M15.1574 9.00385H5.17871V10.0018H15.1574V9.00385Z" fill="white"/>
<path d="M15.1574 11.002H5.17871V12H15.1574V11.002Z" fill="white"/>
<path d="M15.1574 13.0002H5.17871V13.9982H15.1574V13.0002Z" fill="white"/>
<path d="M15.1574 14.9984H5.17871V15.9964H15.1574V14.9984Z" fill="white"/>
<path d="M6.17671 15.9963V9.00385H5.17871V15.9963H6.17671Z" fill="white"/>
<path d="M9.16598 15.9963V9.00385H8.16797V15.9963H9.16598Z" fill="white"/>
<path d="M15.165 15.9963V9.00385H14.167V15.9963H15.165Z" fill="white"/>
</g>
</svg>
