<svg width="21" height="20" viewBox="0 0 21 20" fill="none" xmlns="http://www.w3.org/2000/svg">
<path d="M12.5 0H5C4.46955 0 3.55995 0.1117 3.0858 0.5858C2.61165 1.0599 2.5 1.96955 2.5 2.5V18C2.5 18.5305 2.7107 19.0392 3.0858 19.4142C3.46085 19.7893 3.96955 20 4.5 20H16.5C17.0305 20 17.5392 19.7893 17.9142 19.4142C18.2893 19.0392 18.5 18.5305 18.5 18V6L12.5 0Z" fill="#3FB067"/>
<path d="M12.5 0V4C12.5 5.10457 13.3954 6 14.5 6H18.5" fill="black" fill-opacity="0.25"/>
<path d="M7.75673 7.85706H6.81387C6.4825 7.85706 6.21387 8.12568 6.21387 8.45706V9.39992C6.21387 9.73129 6.4825 9.99992 6.81387 9.99992H7.75673C8.0881 9.99992 8.35673 9.73129 8.35673 9.39992V8.45706C8.35673 8.12568 8.0881 7.85706 7.75673 7.85706Z" fill="white"/>
<path d="M7.75673 11.0716H6.81387C6.4825 11.0716 6.21387 11.3402 6.21387 11.6716V12.6145C6.21387 12.9458 6.4825 13.2145 6.81387 13.2145H7.75673C8.0881 13.2145 8.35673 12.9458 8.35673 12.6145V11.6716C8.35673 11.3402 8.0881 11.0716 7.75673 11.0716Z" fill="white"/>
<path d="M7.75673 14.2856H6.81387C6.4825 14.2856 6.21387 14.5542 6.21387 14.8856V15.8285C6.21387 16.1598 6.4825 16.4285 6.81387 16.4285H7.75673C8.0881 16.4285 8.35673 16.1598 8.35673 15.8285V14.8856C8.35673 14.5542 8.0881 14.2856 7.75673 14.2856Z" fill="white"/>
<path d="M10.9706 7.85718H10.0277C9.69636 7.85718 9.42773 8.12581 9.42773 8.45718V9.40004C9.42773 9.73141 9.69636 10 10.0277 10H10.9706C11.302 10 11.5706 9.73141 11.5706 9.40004V8.45718C11.5706 8.12581 11.302 7.85718 10.9706 7.85718Z" fill="white"/>
<path d="M10.9706 11.0716H10.0277C9.69636 11.0716 9.42773 11.3402 9.42773 11.6716V12.6145C9.42773 12.9458 9.69636 13.2145 10.0277 13.2145H10.9706C11.302 13.2145 11.5706 12.9458 11.5706 12.6145V11.6716C11.5706 11.3402 11.302 11.0716 10.9706 11.0716Z" fill="white"/>
<path d="M10.9706 14.2856H10.0277C9.69636 14.2856 9.42773 14.5542 9.42773 14.8856V15.8285C9.42773 16.1598 9.69636 16.4285 10.0277 16.4285H10.9706C11.302 16.4285 11.5706 16.1598 11.5706 15.8285V14.8856C11.5706 14.5542 11.302 14.2856 10.9706 14.2856Z" fill="white"/>
<path d="M14.1854 7.85718H13.2426C12.9112 7.85718 12.6426 8.12581 12.6426 8.45718V9.40004C12.6426 9.73141 12.9112 10 13.2426 10H14.1854C14.5168 10 14.7854 9.73141 14.7854 9.40004V8.45718C14.7854 8.12581 14.5168 7.85718 14.1854 7.85718Z" fill="white"/>
<path d="M14.1854 11.0716H13.2426C12.9112 11.0716 12.6426 11.3402 12.6426 11.6716V12.6145C12.6426 12.9458 12.9112 13.2145 13.2426 13.2145H14.1854C14.5168 13.2145 14.7854 12.9458 14.7854 12.6145V11.6716C14.7854 11.3402 14.5168 11.0716 14.1854 11.0716Z" fill="white"/>
<path d="M14.1854 14.2856H13.2426C12.9112 14.2856 12.6426 14.5542 12.6426 14.8856V15.8285C12.6426 16.1598 12.9112 16.4285 13.2426 16.4285H14.1854C14.5168 16.4285 14.7854 16.1598 14.7854 15.8285V14.8856C14.7854 14.5542 14.5168 14.2856 14.1854 14.2856Z" fill="white"/>
</svg>
