<svg width="21" height="20" viewBox="0 0 21 20" fill="none" xmlns="http://www.w3.org/2000/svg">
<g clip-path="url(#clip0_1347_21073)">
<mask id="mask0_1347_21073" style="mask-type:luminance" maskUnits="userSpaceOnUse" x="0" y="0" width="21" height="20">
<path d="M20.5 0H0.5V20H20.5V0Z" fill="white"/>
</mask>
<g mask="url(#mask0_1347_21073)">
<path d="M9.44693 1.85164L1.99394 4.9356C1.57947 5.10712 1.58377 5.69582 2.00083 5.86113L9.48501 8.82904C10.1426 9.08983 10.875 9.08983 11.5325 8.82904L19.0168 5.86113C19.4337 5.69582 19.4381 5.10712 19.0235 4.9356L11.5707 1.85164C10.8907 1.57029 10.1268 1.57029 9.44693 1.85164Z" fill="#FFBF00"/>
<path d="M11.1729 10.4498V17.864C11.1729 18.2167 11.5284 18.4581 11.8562 18.3282L20.1959 15.0911C20.3863 15.0156 20.5112 14.8317 20.5112 14.6269V7.21271C20.5112 6.86005 20.1556 6.61858 19.8278 6.74853L11.4881 9.98559C11.2978 10.0611 11.1729 10.245 11.1729 10.4498Z" fill="#26B5F8"/>
<path d="M9.22537 10.8323L6.75034 12.0273L6.49904 12.1488L1.27441 14.6522C0.94322 14.812 0.520508 14.5706 0.520508 14.2027V7.24385C0.520508 7.11074 0.588756 6.99582 0.680282 6.90927C0.718474 6.87097 0.761751 6.83944 0.806723 6.81447C0.931581 6.73955 1.10966 6.71955 1.26107 6.77944L9.18379 9.91854C9.5865 10.0783 9.61814 10.6426 9.22537 10.8323Z" fill="#ED3049"/>
<path d="M9.22575 10.8323L6.75072 12.0274L0.680664 6.90927C0.718856 6.87097 0.762133 6.83944 0.807105 6.81447C0.931964 6.73955 1.11004 6.71955 1.26146 6.77944L9.18417 9.91854C9.58688 10.0783 9.61852 10.6426 9.22575 10.8323Z" fill="black" fill-opacity="0.25"/>
</g>
</g>
<defs>
<clipPath id="clip0_1347_21073">
<rect width="21" height="20" fill="white"/>
</clipPath>
</defs>
</svg>
