<svg width="21" height="20" viewBox="0 0 21 20" fill="none" xmlns="http://www.w3.org/2000/svg">
<g clip-path="url(#clip0_1347_21378)">
<mask id="mask0_1347_21378" style="mask-type:luminance" maskUnits="userSpaceOnUse" x="0" y="0" width="21" height="20">
<path d="M20.5 0H0.5V20H20.5V0Z" fill="white"/>
</mask>
<g mask="url(#mask0_1347_21378)">
<g opacity="0.5">
<path d="M2.95964 15.9757C2.05953 15.9776 1.22799 15.4951 0.783067 14.7126C0.344559 13.935 0.370855 12.9789 0.851441 12.2265L5.33373 5.18776C5.80079 4.41761 6.64609 3.95831 7.54639 3.98552C8.44603 4.00708 9.26434 4.51149 9.68783 5.30552C10.1057 6.09562 10.0534 7.0462 9.55298 7.78787L5.07353 14.8266C4.61186 15.546 3.81444 15.9795 2.95964 15.9757Z" fill="#F62B54"/>
<path d="M10.6475 15.9757C9.74344 15.9757 8.91155 15.4923 8.47472 14.7155C8.03719 13.9399 8.06349 12.9862 8.54309 12.236L13.0168 5.2134C13.4772 4.43219 14.325 3.96211 15.2314 3.98551C16.1431 4.00546 16.9692 4.51541 17.3871 5.31311C17.8021 6.11081 17.7413 7.06709 17.2256 7.80686L12.7528 14.8294C12.2926 15.5457 11.4989 15.9779 10.6475 15.9757Z" fill="#FFCC00"/>
<path d="M18.1641 16.0346C19.4385 16.0346 20.4717 15.0231 20.4717 13.7754C20.4717 12.5276 19.4385 11.5162 18.1641 11.5162C16.8896 11.5162 15.8564 12.5276 15.8564 13.7754C15.8564 15.0231 16.8896 16.0346 18.1641 16.0346Z" fill="#00CA72"/>
</g>
</g>
</g>
<defs>
<clipPath id="clip0_1347_21378">
<rect width="21" height="20" fill="white"/>
</clipPath>
</defs>
</svg>
