<svg width="21" height="20" viewBox="0 0 21 20" fill="none" xmlns="http://www.w3.org/2000/svg">
<g clip-path="url(#clip0_1347_21361)">
<mask id="mask0_1347_21361" style="mask-type:luminance" maskUnits="userSpaceOnUse" x="0" y="0" width="21" height="20">
<path d="M20.5 0H0.5V20H20.5V0Z" fill="white"/>
</mask>
<g mask="url(#mask0_1347_21361)">
<g opacity="0.5">
<path d="M8.83302 4.49401C9.47739 3.8226 10.3745 3.40621 11.3667 3.40621C12.6856 3.40621 13.8363 4.14165 14.4491 5.23344C14.9816 4.9955 15.571 4.86315 16.1912 4.86315C18.57 4.86315 20.4986 6.8085 20.4986 9.20809C20.4986 11.608 18.57 13.5533 16.1912 13.5533C15.9009 13.5533 15.6171 13.5243 15.3427 13.4688C14.8031 14.4314 13.7748 15.0817 12.5945 15.0817C12.1004 15.0817 11.6331 14.9676 11.217 14.7646C10.6699 16.0514 9.39542 16.9536 7.91002 16.9536C6.36313 16.9536 5.04479 15.9748 4.53875 14.6021C4.3176 14.6491 4.08848 14.6736 3.85339 14.6736C2.01165 14.6736 0.518555 13.1651 0.518555 11.304C0.518555 10.0568 1.18939 8.96788 2.18612 8.38527C1.98091 7.91309 1.86678 7.39196 1.86678 6.84408C1.86678 4.70377 3.60435 2.96875 5.74751 2.96875C7.00579 2.96875 8.12405 3.56701 8.83302 4.49401Z" fill="#00A1E0"/>
<path d="M3.41272 10.221C3.4002 10.2537 3.41727 10.2605 3.42126 10.2662C3.45883 10.2936 3.49696 10.3132 3.53539 10.3351C3.73917 10.4433 3.93157 10.4749 4.1328 10.4749C4.54264 10.4749 4.79709 10.2568 4.79709 9.9059V9.89907C4.79709 9.5746 4.50991 9.45677 4.24038 9.37167L4.20537 9.36029C4.00216 9.29426 3.82683 9.23734 3.82683 9.10357V9.09645C3.82683 8.98204 3.9293 8.89779 4.08811 8.89779C4.26457 8.89779 4.47405 8.95642 4.60896 9.03099C4.60896 9.03099 4.64852 9.0566 4.66303 9.01818C4.671 8.99769 4.73931 8.81383 4.74643 8.7939C4.75411 8.77227 4.74045 8.75634 4.7265 8.7478C4.57253 8.65416 4.35963 8.59012 4.13934 8.59012L4.09836 8.5904C3.72323 8.5904 3.46139 8.81696 3.46139 9.1417V9.14854C3.46139 9.49093 3.75027 9.60193 4.02094 9.67934L4.06449 9.69272C4.26173 9.75334 4.43164 9.80543 4.43164 9.94432V9.95115C4.43164 10.0781 4.32121 10.1726 4.14304 10.1726C4.07388 10.1726 3.8533 10.1712 3.61508 10.0206C3.58633 10.0038 3.56954 9.99157 3.54734 9.97819C3.53567 9.97079 3.50636 9.95798 3.49355 9.99669L3.41272 10.221Z" fill="white"/>
<path d="M9.41272 10.221C9.4002 10.2537 9.41727 10.2605 9.42126 10.2662C9.45883 10.2936 9.49696 10.3132 9.53539 10.3351C9.73917 10.4433 9.93157 10.4749 10.1328 10.4749C10.5426 10.4749 10.7971 10.2568 10.7971 9.9059V9.89907C10.7971 9.5746 10.5099 9.45677 10.2404 9.37167L10.2054 9.36029C10.0022 9.29426 9.82683 9.23734 9.82683 9.10357V9.09645C9.82683 8.98204 9.9293 8.89779 10.0881 8.89779C10.2646 8.89779 10.474 8.95642 10.609 9.03099C10.609 9.03099 10.6485 9.0566 10.663 9.01818C10.671 8.99769 10.7393 8.81383 10.7464 8.7939C10.7541 8.77227 10.7404 8.75634 10.7265 8.7478C10.5725 8.65416 10.3596 8.59012 10.1393 8.59012L10.0984 8.5904C9.72323 8.5904 9.46139 8.81696 9.46139 9.1417V9.14854C9.46139 9.49093 9.75027 9.60193 10.0209 9.67934L10.0645 9.69272C10.2617 9.75334 10.4319 9.80543 10.4319 9.94432V9.95115C10.4319 10.0781 10.3212 10.1726 10.143 10.1726C10.0739 10.1726 9.8533 10.1712 9.61508 10.0206C9.58633 10.0038 9.56926 9.99214 9.54763 9.97819C9.54023 9.97335 9.5055 9.95997 9.49355 9.99669L9.41272 10.221Z" fill="white"/>
<path d="M13.508 9.53352C13.508 9.7319 13.471 9.88815 13.3981 9.99859C13.3261 10.1079 13.2171 10.1611 13.0651 10.1611C12.9129 10.1611 12.8044 10.1082 12.7335 9.99859C12.6618 9.88844 12.6254 9.7319 12.6254 9.53352C12.6254 9.33543 12.6618 9.17946 12.7335 9.07017C12.8044 8.96202 12.9129 8.90936 13.0651 8.90936C13.2171 8.90936 13.3261 8.96202 13.3984 9.07017C13.471 9.17946 13.508 9.33543 13.508 9.53352ZM13.8501 9.1658C13.8165 9.05224 13.7641 8.95205 13.6944 8.86866C13.6247 8.78499 13.5364 8.71782 13.4317 8.66886C13.3273 8.62019 13.2037 8.59543 13.0651 8.59543C12.9262 8.59543 12.8027 8.62019 12.6983 8.66886C12.5935 8.71782 12.5053 8.78499 12.4353 8.86866C12.3658 8.95234 12.3135 9.05252 12.2796 9.1658C12.2463 9.27879 12.2295 9.40232 12.2295 9.53352C12.2295 9.66473 12.2463 9.78854 12.2796 9.90125C12.3135 10.0145 12.3655 10.1147 12.4356 10.1984C12.5053 10.2821 12.5938 10.3489 12.6983 10.3965C12.803 10.444 12.9262 10.4682 13.0651 10.4682C13.2037 10.4682 13.327 10.444 13.4317 10.3965C13.5362 10.3489 13.6247 10.2821 13.6944 10.1984C13.7641 10.115 13.8165 10.0148 13.8501 9.90125C13.8837 9.78825 13.9005 9.66445 13.9005 9.53352C13.9005 9.4026 13.8837 9.27879 13.8501 9.1658Z" fill="white"/>
<path d="M16.6603 10.1082C16.6489 10.0749 16.6167 10.0874 16.6167 10.0874C16.5669 10.1065 16.514 10.1241 16.4576 10.1329C16.4004 10.1417 16.3375 10.1463 16.2701 10.1463C16.1044 10.1463 15.9729 10.0971 15.8787 9.99972C15.7842 9.90238 15.7313 9.74499 15.7318 9.5321C15.7324 9.33828 15.7791 9.19255 15.8631 9.08155C15.9464 8.97112 16.0734 8.91448 16.2427 8.91448C16.3839 8.91448 16.4915 8.93071 16.6042 8.96628C16.6042 8.96628 16.6312 8.97795 16.644 8.94266C16.6739 8.85955 16.6961 8.80007 16.728 8.70871C16.7371 8.68281 16.7149 8.67171 16.7069 8.66858C16.6625 8.65122 16.5578 8.62304 16.4787 8.61108C16.4047 8.5997 16.3182 8.59372 16.222 8.59372C16.0782 8.59372 15.9501 8.6182 15.8406 8.66715C15.7313 8.71582 15.6385 8.78299 15.5651 8.86667C15.4916 8.95035 15.4358 9.05053 15.3986 9.16381C15.3616 9.2768 15.3428 9.40089 15.3428 9.5321C15.3428 9.81586 15.4193 10.0453 15.5705 10.2132C15.7219 10.3817 15.9493 10.4673 16.2459 10.4673C16.4212 10.4673 16.6011 10.4318 16.7303 10.3808C16.7303 10.3808 16.755 10.3689 16.7442 10.3401L16.6603 10.1082Z" fill="white"/>
<path d="M17.2582 9.34355C17.2745 9.2334 17.3049 9.14176 17.3519 9.07032C17.4227 8.96188 17.5309 8.9024 17.6829 8.9024C17.8349 8.9024 17.9353 8.96217 18.0073 9.07032C18.0552 9.14176 18.0759 9.23739 18.0842 9.34355H17.2582ZM18.4101 9.10134C18.381 8.99177 18.309 8.88105 18.2618 8.83039C18.1872 8.75013 18.1144 8.69406 18.0421 8.66275C17.9476 8.62234 17.8343 8.59558 17.7102 8.59558C17.5656 8.59558 17.4344 8.61977 17.328 8.66987C17.2212 8.71996 17.1316 8.78827 17.0613 8.87337C16.991 8.95818 16.938 9.05922 16.9045 9.17392C16.8706 9.28805 16.8535 9.41243 16.8535 9.54364C16.8535 9.67712 16.8712 9.8015 16.9062 9.91335C16.9415 10.026 16.9978 10.1254 17.0741 10.2076C17.1501 10.2905 17.248 10.3553 17.3653 10.4006C17.4817 10.4456 17.6231 10.4689 17.7856 10.4686C18.1201 10.4675 18.2962 10.3929 18.3688 10.3528C18.3816 10.3457 18.3939 10.3331 18.3785 10.2973L18.3028 10.0852C18.2914 10.0537 18.2592 10.0653 18.2592 10.0653C18.1764 10.0961 18.0586 10.1513 17.7839 10.1507C17.6043 10.1504 17.4711 10.0975 17.3877 10.0147C17.3021 9.92986 17.2602 9.8052 17.2528 9.6293L18.4109 9.63044C18.4109 9.63044 18.4414 9.62987 18.4445 9.60027C18.4457 9.58775 18.4844 9.36234 18.4101 9.10134Z" fill="white"/>
<path d="M7.98382 9.34355C8.00033 9.2334 8.0305 9.14176 8.07746 9.07032C8.14833 8.96188 8.25649 8.9024 8.40847 8.9024C8.56046 8.9024 8.66092 8.96217 8.73322 9.07032C8.78075 9.14176 8.80152 9.23739 8.80978 9.34355H7.98382ZM9.13538 9.10134C9.10635 8.99177 9.03462 8.88105 8.98738 8.83039C8.91281 8.75013 8.83995 8.69406 8.76766 8.66275C8.67316 8.62234 8.55989 8.59558 8.43579 8.59558C8.29149 8.59558 8.16 8.61977 8.05356 8.66987C7.94682 8.71996 7.85717 8.78827 7.78687 8.87337C7.71657 8.95818 7.66363 9.05922 7.63005 9.17392C7.59646 9.28805 7.5791 9.41243 7.5791 9.54364C7.5791 9.67712 7.59675 9.8015 7.63176 9.91335C7.66705 10.026 7.7234 10.1254 7.79968 10.2076C7.87567 10.2905 7.97358 10.3553 8.09084 10.4006C8.20725 10.4456 8.3487 10.4689 8.51122 10.4686C8.84564 10.4675 9.02182 10.3929 9.09439 10.3528C9.1072 10.3457 9.11944 10.3331 9.10407 10.2973L9.02865 10.0852C9.01698 10.0537 8.98482 10.0653 8.98482 10.0653C8.90199 10.0961 8.78445 10.1513 8.50922 10.1507C8.32992 10.1504 8.19672 10.0975 8.11332 10.0147C8.02766 9.92986 7.98582 9.8052 7.97842 9.6293L9.13652 9.63044C9.13652 9.63044 9.16697 9.62987 9.1701 9.60027C9.17124 9.58775 9.20995 9.36234 9.13538 9.10134Z" fill="white"/>
<path d="M5.48064 10.1018C5.43538 10.0657 5.42912 10.0565 5.41375 10.0332C5.39098 9.99764 5.37931 9.94698 5.37931 9.88266C5.37931 9.78076 5.4129 9.70762 5.48263 9.65838C5.48178 9.65866 5.58224 9.57157 5.81848 9.5747C5.98441 9.57698 6.13269 9.60145 6.13269 9.60145V10.128C6.13269 10.128 5.98583 10.1596 5.82018 10.1695C5.58452 10.1838 5.47978 10.1015 5.48064 10.1018ZM5.94143 9.28809C5.89447 9.28468 5.83356 9.28269 5.7607 9.28269C5.66137 9.28269 5.56545 9.29521 5.47551 9.3194C5.38501 9.34359 5.30361 9.38145 5.23359 9.43154C5.16329 9.48192 5.10665 9.54624 5.06567 9.62252C5.02468 9.69879 5.00391 9.78873 5.00391 9.88949C5.00391 9.99195 5.02155 10.081 5.05684 10.1539C5.09214 10.227 5.14308 10.2879 5.20798 10.3349C5.2723 10.3819 5.35171 10.4163 5.44392 10.4371C5.53471 10.4579 5.63774 10.4684 5.75045 10.4684C5.86914 10.4684 5.98754 10.4587 6.10224 10.4391C6.2158 10.4197 6.35526 10.3915 6.39397 10.3827C6.43239 10.3736 6.47508 10.3619 6.47508 10.3619C6.50383 10.3548 6.50155 10.3241 6.50155 10.3241L6.50098 9.26504C6.50098 9.03279 6.43894 8.8606 6.31684 8.75387C6.19531 8.64742 6.01628 8.59363 5.78489 8.59363C5.69808 8.59363 5.55834 8.60559 5.47466 8.62238C5.47466 8.62238 5.22164 8.67133 5.11747 8.75273C5.11747 8.75273 5.0947 8.76696 5.10722 8.79884L5.18919 9.01913C5.19944 9.04759 5.22704 9.03792 5.22704 9.03792C5.22704 9.03792 5.23587 9.0345 5.24611 9.02852C5.46897 8.90728 5.75074 8.91098 5.75074 8.91098C5.87597 8.91098 5.97217 8.93602 6.03706 8.98583C6.10024 9.03422 6.13241 9.10736 6.13241 9.26162V9.31058C6.03279 9.29635 5.94143 9.28809 5.94143 9.28809Z" fill="white"/>
<path d="M15.2822 8.69138C15.291 8.6652 15.2725 8.65267 15.2648 8.64983C15.2452 8.64214 15.1467 8.62137 15.0707 8.61654C14.9253 8.60771 14.8445 8.63218 14.7722 8.66463C14.7004 8.69707 14.6207 8.74945 14.5763 8.80894V8.66804C14.5763 8.6484 14.5624 8.63275 14.543 8.63275H14.2462C14.2268 8.63275 14.2129 8.6484 14.2129 8.66804V10.3954C14.2129 10.4147 14.2288 10.4307 14.2482 10.4307H14.5524C14.5718 10.4307 14.5874 10.4147 14.5874 10.3954V9.53242C14.5874 9.41658 14.6003 9.30103 14.6259 9.22845C14.6509 9.15673 14.6851 9.09923 14.7272 9.05796C14.7696 9.01698 14.8177 8.98823 14.8704 8.97201C14.9241 8.9555 14.9836 8.9501 15.0258 8.9501C15.0864 8.9501 15.153 8.96575 15.153 8.96575C15.1752 8.96831 15.1877 8.95465 15.1951 8.93444C15.215 8.8815 15.2714 8.72297 15.2822 8.69138Z" fill="white"/>
<path d="M12.4261 7.89084C12.3891 7.87945 12.3555 7.87177 12.3117 7.86351C12.2673 7.85554 12.2143 7.85156 12.1543 7.85156C11.9448 7.85156 11.7797 7.91076 11.6639 8.02745C11.5486 8.14357 11.4703 8.32032 11.4311 8.55285L11.4168 8.63112H11.1539C11.1539 8.63112 11.122 8.62998 11.1151 8.6647L11.0722 8.90577C11.069 8.92854 11.079 8.94306 11.1097 8.94306H11.3656L11.106 10.3923C11.0858 10.509 11.0625 10.6049 11.0366 10.6778C11.0113 10.7495 10.9865 10.8033 10.9558 10.8426C10.9262 10.8802 10.8983 10.908 10.8499 10.9243C10.81 10.9376 10.7639 10.9439 10.7136 10.9439C10.6857 10.9439 10.6484 10.9394 10.6208 10.9337C10.5934 10.9283 10.5789 10.9223 10.5582 10.9135C10.5582 10.9135 10.5283 10.9021 10.5163 10.932C10.5069 10.9567 10.4386 11.1443 10.4304 11.1673C10.4224 11.1904 10.4338 11.2083 10.4483 11.2137C10.4824 11.2257 10.5078 11.2336 10.5542 11.2447C10.6185 11.2598 10.6729 11.2607 10.7238 11.2607C10.8302 11.2607 10.9276 11.2456 11.0081 11.2166C11.089 11.1873 11.1595 11.1363 11.2222 11.0674C11.2896 10.9929 11.332 10.9149 11.3724 10.8081C11.4126 10.7028 11.447 10.5719 11.4743 10.4194L11.7353 8.94306H12.1167C12.1167 8.94306 12.1489 8.9442 12.1554 8.90919L12.1987 8.6684C12.2015 8.64535 12.1918 8.63112 12.1608 8.63112H11.7905C11.7925 8.62287 11.8093 8.49251 11.8517 8.36984C11.8699 8.31776 11.9041 8.27535 11.9328 8.24632C11.9613 8.21786 11.994 8.19765 12.0299 8.18598C12.0666 8.17403 12.1085 8.16834 12.1543 8.16834C12.189 8.16834 12.2234 8.17232 12.2493 8.17773C12.2852 8.18541 12.2991 8.1894 12.3085 8.19224C12.3464 8.20363 12.3515 8.19253 12.3589 8.17431L12.4474 7.93125C12.4565 7.90507 12.4341 7.89397 12.4261 7.89084Z" fill="white"/>
<path d="M7.25232 10.3955C7.25232 10.4148 7.23838 10.4305 7.21902 10.4305H6.91192C6.89257 10.4305 6.87891 10.4148 6.87891 10.3955V7.92386C6.87891 7.90451 6.89257 7.88885 6.91192 7.88885H7.21902C7.23838 7.88885 7.25232 7.90451 7.25232 7.92386V10.3955Z" fill="white"/>
</g>
</g>
</g>
<defs>
<clipPath id="clip0_1347_21361">
<rect width="21" height="20" fill="white"/>
</clipPath>
</defs>
</svg>
