<svg width="16" height="16" viewBox="0 0 16 16" fill="none" xmlns="http://www.w3.org/2000/svg">
<path d="M14.6666 8H10.6666L9.33325 10H6.66658L5.33325 8H1.33325" stroke="currentColor" stroke-width="1.33" stroke-linecap="round" stroke-linejoin="round"/>
<path d="M3.63325 3.40699L1.33325 8.00033V12.0003C1.33325 12.3539 1.47373 12.6931 1.72378 12.9431C1.97382 13.1932 2.31296 13.3337 2.66659 13.3337H13.3333C13.6869 13.3337 14.026 13.1932 14.2761 12.9431C14.5261 12.6931 14.6666 12.3539 14.6666 12.0003V8.00033L12.3666 3.40699C12.2562 3.18485 12.086 2.99791 11.8752 2.86718C11.6644 2.73645 11.4213 2.66712 11.1733 2.66699H4.82658C4.57853 2.66712 4.33543 2.73645 4.12461 2.86718C3.9138 2.99791 3.74364 3.18485 3.63325 3.40699V3.40699Z" stroke="currentColor" stroke-width="1.33" stroke-linecap="round" stroke-linejoin="round"/>
</svg>
