<svg width="16" height="16" viewBox="0 0 16 16" fill="none" xmlns="http://www.w3.org/2000/svg">
<g clip-path="url(#clip0_1504_35309)">
<path d="M11.3333 1.33301H4.66658C2.82564 1.33301 1.33325 2.82539 1.33325 4.66634V11.333C1.33325 13.174 2.82564 14.6663 4.66658 14.6663H11.3333C13.1742 14.6663 14.6666 13.174 14.6666 11.333V4.66634C14.6666 2.82539 13.1742 1.33301 11.3333 1.33301Z" stroke="currentColor" stroke-width="1.33" stroke-linecap="round" stroke-linejoin="round"/>
<path d="M10.6666 7.5802C10.7488 8.13503 10.6541 8.70168 10.3957 9.19954C10.1374 9.69741 9.72865 10.1011 9.22764 10.3533C8.72662 10.6055 8.15885 10.6933 7.60508 10.6042C7.0513 10.515 6.53973 10.2536 6.14311 9.85698C5.7465 9.46036 5.48504 8.94878 5.39593 8.39501C5.30682 7.84124 5.3946 7.27346 5.64677 6.77245C5.89894 6.27144 6.30268 5.86269 6.80054 5.60436C7.29841 5.34603 7.86506 5.25126 8.41989 5.33353C8.98583 5.41746 9.50979 5.68118 9.91435 6.08574C10.3189 6.4903 10.5826 7.01425 10.6666 7.5802Z" stroke="currentColor" stroke-width="1.33" stroke-linecap="round" stroke-linejoin="round"/>
<path d="M11.6667 4.33301H11.6734" stroke="currentColor" stroke-width="1.33" stroke-linecap="round" stroke-linejoin="round"/>
</g>
<defs>
<clipPath id="clip0_1504_35309">
<rect width="16" height="16" fill="white"/>
</clipPath>
</defs>
</svg>
