<svg width="16" height="16" viewBox="0 0 16 16" fill="none" xmlns="http://www.w3.org/2000/svg">
<g clip-path="url(#clip0_5687_209617)">
<path d="M8.00261 0C4.66268 0 3.68588 0.00344645 3.49601 0.0192016C2.8106 0.0761911 2.3841 0.184139 1.91945 0.415543C1.56136 0.593404 1.27895 0.799575 1.00024 1.08858C0.492639 1.61564 0.185005 2.26407 0.0736409 3.03484C0.0194972 3.40903 0.0037463 3.48534 0.000546906 5.39664C-0.000683632 6.03374 0.000546906 6.87221 0.000546906 7.99686C0.000546906 11.335 0.00423852 12.3111 0.0202355 12.5006C0.0756097 13.1678 0.180205 13.5875 0.401702 14.0466C0.825007 14.9254 1.63347 15.5852 2.58591 15.8314C2.91569 15.9163 3.27993 15.9631 3.74753 15.9852C3.94565 15.9938 5.96496 16 7.98551 16C10.006 16 12.0266 15.9975 12.2198 15.9877C12.7612 15.9622 13.0756 15.92 13.4233 15.8301C14.3818 15.5827 15.1755 14.9328 15.6075 14.0417C15.8246 13.5936 15.9348 13.1579 15.9846 12.5256C15.9954 12.3878 16 10.1898 16 7.99477C16 5.79938 15.9951 3.60547 15.9843 3.46762C15.9338 2.8251 15.8237 2.39306 15.5995 1.93641C15.4155 1.56259 15.2112 1.28343 14.9147 0.997992C14.3854 0.492349 13.7381 0.184631 12.9668 0.0733601C12.5931 0.0193247 12.5187 0.00332336 10.6064 0H8.00261Z" fill="url(#paint0_radial_5687_209617)"/>
<path d="M8.00261 0C4.66268 0 3.68588 0.00344644 3.49601 0.0192016C2.8106 0.0761911 2.3841 0.184139 1.91945 0.415543C1.56136 0.593404 1.27895 0.799575 1.00024 1.08858C0.492639 1.61564 0.185005 2.26407 0.0736409 3.03484C0.0194972 3.40903 0.0037463 3.48534 0.000546906 5.39664C-0.000683632 6.03374 0.000546906 6.87221 0.000546906 7.99686C0.000546906 11.335 0.00423852 12.3111 0.0202355 12.5006C0.0756097 13.1678 0.180205 13.5875 0.401702 14.0466C0.825007 14.9254 1.63347 15.5852 2.58591 15.8314C2.91569 15.9163 3.27993 15.9631 3.74753 15.9852C3.94565 15.9938 5.96496 16 7.98551 16C10.006 16 12.0266 15.9975 12.2198 15.9877C12.7612 15.9622 13.0756 15.92 13.4233 15.8301C14.3818 15.5827 15.1755 14.9328 15.6075 14.0417C15.8246 13.5936 15.9348 13.1579 15.9846 12.5256C15.9954 12.3878 16 10.1898 16 7.99477C16 5.79938 15.9951 3.60547 15.9843 3.46762C15.9338 2.8251 15.8237 2.39306 15.5995 1.93641C15.4155 1.56259 15.2112 1.28343 14.9147 0.997992C14.3854 0.492349 13.7381 0.184631 12.9668 0.0733601C12.5931 0.0193247 12.5187 0.00332336 10.6064 0H8.00261Z" fill="url(#paint1_radial_5687_209617)"/>
<path d="M8.00056 2C6.37105 2 6.16654 2.00713 5.52654 2.03625C4.88778 2.0655 4.45178 2.16663 4.07027 2.315C3.67564 2.46825 3.34089 2.67325 3.00739 3.00688C2.67363 3.34038 2.46863 3.67512 2.31488 4.06962C2.16613 4.45125 2.06488 4.88738 2.03613 5.52588C2.0075 6.16587 2 6.3705 2 8C2 9.6295 2.00725 9.83338 2.03625 10.4734C2.06563 11.1121 2.16675 11.5481 2.315 11.9296C2.46838 12.3242 2.67338 12.659 3.00701 12.9925C3.34039 13.3263 3.67514 13.5318 4.06952 13.685C4.45128 13.8334 4.8874 13.9345 5.52604 13.9637C6.16604 13.9929 6.37042 14 7.99981 14C9.62945 14 9.83333 13.9929 10.4733 13.9637C11.1121 13.9345 11.5486 13.8334 11.9304 13.685C12.3249 13.5318 12.6591 13.3263 12.9925 12.9925C13.3262 12.659 13.5312 12.3243 13.685 11.9298C13.8325 11.5481 13.9337 11.112 13.9637 10.4735C13.9925 9.8335 14 9.6295 14 8C14 6.3705 13.9925 6.166 13.9637 5.526C13.9337 4.88725 13.8325 4.45125 13.685 4.06975C13.5312 3.67512 13.3262 3.34038 12.9925 3.00688C12.6587 2.67313 12.325 2.46813 11.93 2.315C11.5475 2.16663 11.1112 2.0655 10.4725 2.03625C9.83246 2.00713 9.6287 2 7.99869 2H8.00056ZM7.46231 3.08125C7.62206 3.081 7.80031 3.08125 8.00056 3.08125C9.60258 3.08125 9.79246 3.087 10.4251 3.11575C11.0101 3.1425 11.3276 3.24025 11.5391 3.32238C11.8191 3.43113 12.0187 3.56112 12.2286 3.77112C12.4386 3.98112 12.5686 4.18112 12.6776 4.46112C12.7597 4.67237 12.8576 4.98987 12.8842 5.57487C12.913 6.20738 12.9192 6.39737 12.9192 7.99862C12.9192 9.59987 12.913 9.78987 12.8842 10.4224C12.8575 11.0074 12.7597 11.3249 12.6776 11.5361C12.5689 11.8161 12.4386 12.0155 12.2286 12.2254C12.0186 12.4354 11.8192 12.5654 11.5391 12.6741C11.3278 12.7566 11.0101 12.8541 10.4251 12.8809C9.79258 12.9096 9.60258 12.9159 8.00056 12.9159C6.39842 12.9159 6.20854 12.9096 5.57604 12.8809C4.99103 12.8539 4.67353 12.7561 4.4619 12.674C4.1819 12.5652 3.9819 12.4353 3.77189 12.2253C3.56189 12.0153 3.43189 11.8158 3.32289 11.5356C3.24076 11.3244 3.14289 11.0069 3.11626 10.4219C3.08751 9.78937 3.08176 9.59937 3.08176 7.99712C3.08176 6.39487 3.08751 6.20588 3.11626 5.57338C3.14301 4.98838 3.24076 4.67087 3.32289 4.45937C3.43164 4.17937 3.56189 3.97937 3.77189 3.76937C3.9819 3.55937 4.1819 3.42937 4.4619 3.32037C4.6734 3.23787 4.99103 3.14038 5.57604 3.1135C6.12954 3.0885 6.34405 3.081 7.46231 3.07975V3.08125ZM11.2033 4.0775C10.8058 4.0775 10.4833 4.39962 10.4833 4.79725C10.4833 5.19475 10.8058 5.51725 11.2033 5.51725C11.6008 5.51725 11.9234 5.19475 11.9234 4.79725C11.9234 4.39975 11.6008 4.07725 11.2033 4.07725V4.0775ZM8.00056 4.91875C6.29892 4.91875 4.91928 6.29838 4.91928 8C4.91928 9.70162 6.29892 11.0806 8.00056 11.0806C9.7022 11.0806 11.0813 9.70162 11.0813 8C11.0813 6.29838 9.7022 4.91875 8.00056 4.91875ZM8.00056 6C9.10507 6 10.0006 6.89538 10.0006 8C10.0006 9.1045 9.10507 10 8.00056 10C6.89593 10 6.00054 9.1045 6.00054 8C6.00054 6.89538 6.89593 6 8.00056 6Z" fill="white"/>
</g>
<defs>
<radialGradient id="paint0_radial_5687_209617" cx="0" cy="0" r="1" gradientUnits="userSpaceOnUse" gradientTransform="translate(4.25002 17.2323) rotate(-90) scale(15.8572 14.7484)">
<stop stop-color="#FFDD55"/>
<stop offset="0.1" stop-color="#FFDD55"/>
<stop offset="0.5" stop-color="#FF543E"/>
<stop offset="1" stop-color="#C837AB"/>
</radialGradient>
<radialGradient id="paint1_radial_5687_209617" cx="0" cy="0" r="1" gradientUnits="userSpaceOnUse" gradientTransform="translate(-2.68008 1.15261) rotate(78.6806) scale(7.08823 29.218)">
<stop stop-color="#3771C8"/>
<stop offset="0.128" stop-color="#3771C8"/>
<stop offset="1" stop-color="#6600FF" stop-opacity="0"/>
</radialGradient>
<clipPath id="clip0_5687_209617">
<rect width="16" height="16" rx="2" fill="white"/>
</clipPath>
</defs>
</svg>
