<svg width="16" height="16" viewBox="0 0 16 16" fill="none" xmlns="http://www.w3.org/2000/svg">
<g clip-path="url(#clip0_5687_209718)">
<rect width="16" height="16" rx="2" fill="white"/>
<path d="M13.8667 8.79675C13.8652 8.9372 13.8083 9.07138 13.7085 9.17017C13.6086 9.26895 13.4738 9.32435 13.3333 9.32435C13.1929 9.32435 13.0581 9.26895 12.9582 9.17017C12.8584 9.07138 12.8015 8.9372 12.8 8.79675V4C12.8015 3.85955 12.8584 3.72537 12.9582 3.62658C13.0581 3.5278 13.1929 3.4724 13.3333 3.4724C13.4738 3.4724 13.6086 3.5278 13.7085 3.62658C13.8083 3.72537 13.8652 3.85955 13.8667 4V8.79675ZM13.6806 12.1351C13.5981 12.2056 11.6224 13.8635 8 13.8635C4.37762 13.8635 2.402 12.2056 2.31956 12.135C2.21219 12.0429 2.14577 11.912 2.13493 11.7709C2.12409 11.6299 2.16971 11.4903 2.26175 11.3829C2.35359 11.2757 2.48423 11.2093 2.62498 11.1982C2.76574 11.1872 2.90513 11.2325 3.01256 11.3241C3.04387 11.3503 4.80813 12.7968 8.00006 12.7968C11.2321 12.7968 12.969 11.3399 12.9862 11.3252C13.2094 11.1335 13.5467 11.1593 13.7382 11.383C13.8303 11.4904 13.876 11.6299 13.8652 11.771C13.8543 11.912 13.7879 12.043 13.6806 12.1351ZM2.13331 4C2.13483 3.85955 2.19169 3.72537 2.29155 3.62658C2.39141 3.5278 2.5262 3.4724 2.66666 3.4724C2.80712 3.4724 2.94191 3.5278 3.04176 3.62658C3.14162 3.72537 3.19848 3.85955 3.2 4V8.79675C3.19848 8.9372 3.14162 9.07138 3.04176 9.17017C2.94191 9.26895 2.80712 9.32435 2.66666 9.32435C2.5262 9.32435 2.39141 9.26895 2.29155 9.17017C2.19169 9.07138 2.13483 8.9372 2.13331 8.79675V4ZM4.80006 2.93331C4.80221 2.79328 4.85934 2.65971 4.95912 2.56145C5.0589 2.46318 5.19333 2.4081 5.33337 2.4081C5.47342 2.4081 5.60785 2.46318 5.70763 2.56145C5.80741 2.65971 5.86454 2.79328 5.86669 2.93331V10.0584C5.86454 10.1984 5.80741 10.332 5.70763 10.4302C5.60785 10.5285 5.47342 10.5836 5.33337 10.5836C5.19333 10.5836 5.0589 10.5285 4.95912 10.4302C4.85934 10.332 4.80221 10.1984 4.80006 10.0584V2.93331ZM7.46669 2.66344C7.46668 2.5934 7.48047 2.52405 7.50727 2.45934C7.53407 2.39463 7.57335 2.33583 7.62287 2.28631C7.6724 2.23679 7.73119 2.1975 7.7959 2.1707C7.86061 2.14391 7.92996 2.13012 8 2.13013C8.07004 2.13011 8.1394 2.14389 8.20412 2.17069C8.26883 2.19748 8.32764 2.23676 8.37717 2.28629C8.4267 2.33581 8.46599 2.39461 8.49279 2.45932C8.51959 2.52404 8.53338 2.59339 8.53337 2.66344V10.3968C8.53185 10.5372 8.47499 10.6714 8.37514 10.7702C8.27528 10.8689 8.14049 10.9244 8.00003 10.9244C7.85957 10.9244 7.72478 10.8689 7.62493 10.7702C7.52507 10.6714 7.46821 10.5372 7.46669 10.3968V2.66344ZM10.1334 2.93331C10.1355 2.79328 10.1927 2.65971 10.2924 2.56145C10.3922 2.46318 10.5266 2.4081 10.6667 2.4081C10.8067 2.4081 10.9412 2.46318 11.0409 2.56145C11.1407 2.65971 11.1979 2.79328 11.2 2.93331V10.0584C11.1979 10.1984 11.1407 10.332 11.0409 10.4302C10.9412 10.5285 10.8067 10.5836 10.6667 10.5836C10.5266 10.5836 10.3922 10.5285 10.2924 10.4302C10.1927 10.332 10.1355 10.1984 10.1334 10.0584V2.93331ZM14 0H2C0.895437 0 0 0.895437 0 2V14C0 15.1045 0.895437 16 2 16H14C15.1046 16 16 15.1045 16 14V2C16 0.895437 15.1046 0 14 0Z" fill="#1F8DED"/>
</g>
<defs>
<clipPath id="clip0_5687_209718">
<rect width="16" height="16" rx="2" fill="white"/>
</clipPath>
</defs>
</svg>
