<svg width="16" height="16" viewBox="0 0 16 16" fill="none" xmlns="http://www.w3.org/2000/svg">
<path d="M13.8667 8.79675C13.8652 8.9372 13.8083 9.07139 13.7084 9.17017C13.6086 9.26895 13.4738 9.32435 13.3333 9.32435C13.1929 9.32435 13.0581 9.26895 12.9582 9.17017C12.8584 9.07139 12.8015 8.9372 12.8 8.79675V4C12.8015 3.85955 12.8584 3.72537 12.9582 3.62659C13.0581 3.52781 13.1929 3.4724 13.3333 3.4724C13.4738 3.4724 13.6086 3.52781 13.7084 3.62659C13.8083 3.72537 13.8652 3.85955 13.8667 4V8.79675ZM13.6806 12.1351C13.5981 12.2056 11.6224 13.8635 7.99999 13.8635C4.37761 13.8635 2.40199 12.2056 2.31955 12.135C2.21217 12.0429 2.14576 11.912 2.13492 11.7709C2.12408 11.6299 2.1697 11.4903 2.26174 11.3829C2.35358 11.2757 2.48421 11.2093 2.62497 11.1982C2.76573 11.1872 2.90511 11.2325 3.01255 11.3241C3.04386 11.3503 4.80811 12.7968 8.00005 12.7968C11.2321 12.7968 12.969 11.3399 12.9862 11.3252C13.2094 11.1335 13.5467 11.1593 13.7382 11.383C13.8303 11.4904 13.876 11.6299 13.8651 11.771C13.8543 11.912 13.7879 12.043 13.6806 12.1351ZM2.1333 4C2.13482 3.85955 2.19168 3.72537 2.29154 3.62659C2.39139 3.52781 2.52618 3.4724 2.66664 3.4724C2.8071 3.4724 2.94189 3.52781 3.04175 3.62659C3.14161 3.72537 3.19847 3.85955 3.19999 4V8.79675C3.19847 8.9372 3.14161 9.07139 3.04175 9.17017C2.94189 9.26895 2.8071 9.32435 2.66664 9.32435C2.52618 9.32435 2.39139 9.26895 2.29154 9.17017C2.19168 9.07139 2.13482 8.9372 2.1333 8.79675V4ZM4.80005 2.93331C4.80219 2.79329 4.85933 2.65972 4.95911 2.56145C5.05889 2.46318 5.19332 2.4081 5.33336 2.4081C5.47341 2.4081 5.60784 2.46318 5.70762 2.56145C5.8074 2.65972 5.86453 2.79329 5.86668 2.93331V10.0584C5.86453 10.1984 5.8074 10.332 5.70762 10.4302C5.60784 10.5285 5.47341 10.5836 5.33336 10.5836C5.19332 10.5836 5.05889 10.5285 4.95911 10.4302C4.85933 10.332 4.80219 10.1984 4.80005 10.0584V2.93331ZM7.46668 2.66344C7.46667 2.5934 7.48046 2.52405 7.50726 2.45934C7.53405 2.39463 7.57334 2.33584 7.62286 2.28631C7.67239 2.23679 7.73118 2.1975 7.79589 2.17071C7.8606 2.14391 7.92995 2.13012 7.99999 2.13013C8.07003 2.13011 8.13939 2.14389 8.20411 2.17069C8.26882 2.19748 8.32763 2.23677 8.37716 2.28629C8.42669 2.33582 8.46598 2.39461 8.49278 2.45933C8.51958 2.52404 8.53337 2.5934 8.53336 2.66344V10.3968C8.53184 10.5372 8.47498 10.6714 8.37513 10.7702C8.27527 10.8689 8.14048 10.9244 8.00002 10.9244C7.85956 10.9244 7.72477 10.8689 7.62491 10.7702C7.52506 10.6714 7.4682 10.5372 7.46668 10.3968V2.66344ZM10.1334 2.93331C10.1355 2.79329 10.1926 2.65972 10.2924 2.56145C10.3922 2.46318 10.5266 2.4081 10.6667 2.4081C10.8067 2.4081 10.9411 2.46318 11.0409 2.56145C11.1407 2.65972 11.1978 2.79329 11.2 2.93331V10.0584C11.1978 10.1984 11.1407 10.332 11.0409 10.4302C10.9411 10.5285 10.8067 10.5836 10.6667 10.5836C10.5266 10.5836 10.3922 10.5285 10.2924 10.4302C10.1926 10.332 10.1355 10.1984 10.1334 10.0584V2.93331Z" fill="currentColor"/>
</svg>
