<svg xmlns="http://www.w3.org/2000/svg" width="16" height="16" viewBox="0 0 16 16" fill="none">
  <path d="M6.42112 11.361C6.39 11.3298 6.35961 11.2981 6.32995 11.2658L3.20005 8.00039L3.20005 6.00039L6.80005 2.40039L8.89167 4.49826L6.42112 6.96881C5.83869 7.55125 5.51148 8.3412 5.51148 9.16489C5.51148 9.94456 5.80465 10.694 6.32995 11.2658L6.42112 11.361Z" fill="#9AA2AF" stroke="none" class="nc-duo-path"/>
  <path d="M4.57034 15C3.9879 14.4175 3.66069 13.6276 3.66069 12.8039C3.66069 11.9802 3.9879 11.1903 4.57034 10.6078L5.11936 10.0588" stroke="currentColor" stroke-width="1.33" stroke-linecap="round" stroke-linejoin="round"/>
  <path d="M6.49167 2.09769L13.0799 8.68584L10.6093 11.1564C10.0269 11.7388 9.23695 12.066 8.41326 12.066C7.58957 12.066 6.79962 11.7388 6.21718 11.1564L4.02112 8.96039C3.43868 8.37795 3.11147 7.588 3.11147 6.76431C3.11147 5.94062 3.43868 5.15067 4.02112 4.56824L6.49167 2.09769Z" stroke="currentColor" stroke-width="1.33" stroke-linecap="round" stroke-linejoin="round"/>
  <path d="M14.178 4.29395L11.7074 6.76453" stroke="currentColor" stroke-width="1.33" stroke-linecap="round" stroke-linejoin="round"/>
  <path d="M10.884 1L8.41345 3.47058" stroke="currentColor" stroke-width="1.33" stroke-linecap="round" stroke-linejoin="round"/>
</svg>