<svg xmlns="http://www.w3.org/2000/svg" width="24" height="24" viewBox="0 0 24 24" fill="none">
  <path d="M6.0988 5.91797C2.7359 5.91797 0 8.64667 0 12.0005C0 15.3543 2.736 18.083 6.0988 18.083H17.9012C21.2641 18.083 24 15.3543 24 12.0005C24 8.64667 21.264 5.91797 17.9012 5.91797H6.0988ZM5.9774 7.85147C6.4704 7.86387 6.9974 8.10107 7.2504 8.47427C7.6177 8.93347 7.7282 9.54107 8.1448 9.96747C8.7052 10.5793 9.3438 11.118 9.8609 11.7695C10.3501 12.3649 10.6995 13.0632 11.0045 13.767C11.1289 14.0005 11.1302 14.2872 11.3145 14.4867C11.4053 14.6071 11.8491 14.935 11.7528 15.0512C11.8083 15.1716 12.223 15.3372 12.0791 15.4539C11.8847 15.4939 11.6662 15.5015 11.5175 15.3465C11.4626 15.4725 11.3345 15.4061 11.2356 15.3897C11.227 15.4141 11.2187 15.4387 11.2106 15.4633C10.8818 15.4852 10.6352 15.1507 10.4786 14.8983C10.1675 14.7303 9.8144 14.6281 9.4966 14.4523C9.4784 14.7418 9.5418 15.1008 9.2656 15.2876C9.2516 15.8441 10.1092 15.3532 10.1878 15.768C10.1268 15.7747 10.0592 15.7585 10.0104 15.8053C9.7865 16.0225 9.5299 15.6408 9.2719 15.7983C8.9255 15.9723 8.8911 16.1144 8.4623 16.1503C8.4386 16.1144 8.448 16.0911 8.4682 16.0692C8.5889 15.9293 8.5977 15.7646 8.8038 15.7049C8.5916 15.6715 8.4139 15.7882 8.2352 15.8806C8.0029 15.9756 8.0048 15.6665 7.6474 15.897C7.6078 15.8648 7.6266 15.8355 7.6492 15.8106C7.74 15.6999 7.8594 15.6836 7.9942 15.6898C7.3312 15.3212 7.0191 16.1405 6.7129 15.733C6.6209 15.7573 6.5864 15.8398 6.5284 15.8982C6.4784 15.8434 6.5161 15.777 6.5185 15.7125C6.4587 15.6845 6.3829 15.6715 6.4006 15.5759C6.2835 15.5364 6.2018 15.6054 6.1146 15.6711C6.0359 15.6103 6.1678 15.5219 6.1922 15.4586C6.2624 15.337 6.4222 15.4336 6.5033 15.346C6.7339 15.2152 7.0553 15.4274 7.3188 15.3915C7.5218 15.417 7.7732 15.209 7.6714 15.0015C7.4543 14.7248 7.4924 14.3629 7.4875 14.032C7.4607 13.8391 6.9965 13.5938 6.8623 13.3858C6.6964 13.1985 6.5673 12.9811 6.438 12.7676C5.9714 11.8668 6.1182 10.7092 5.5303 9.87287C5.2643 10.0195 4.9178 9.95027 4.6885 9.75387C4.5647 9.86637 4.5593 10.0137 4.5495 10.17C4.2525 9.87377 4.2902 9.31407 4.5275 8.98447C4.6244 8.85427 4.7402 8.74717 4.8695 8.65287C4.8987 8.63157 4.9086 8.61097 4.908 8.57817C5.0254 8.05147 5.4844 7.83907 5.9774 7.85147ZM18.3845 8.31147C18.942 8.31147 19.4651 8.52737 19.8585 8.91967C20.2519 9.31197 20.4685 9.83417 20.4685 10.3901C20.4685 10.9461 20.2518 11.4681 19.8585 11.8599L18.9565 12.76C18.7164 12.9997 18.4212 13.1771 18.0968 13.2766L18.0804 13.2813L18.0746 13.2977C17.9708 13.5724 17.8091 13.8216 17.6006 14.0285L16.6988 14.928C16.3054 15.3204 15.7818 15.5363 15.2243 15.5363C14.6668 15.5363 14.1437 15.3203 13.7503 14.928C12.9373 14.1173 12.9373 12.7986 13.7503 11.9878L14.6522 11.0883C14.8915 10.8488 15.1862 10.6722 15.5102 10.574L15.5272 10.5687L15.533 10.5529C15.6374 10.2773 15.7994 10.0271 16.0082 9.81917L16.91 8.91967C17.3034 8.52727 17.8271 8.31147 18.3845 8.31147ZM18.3845 9.20797C18.2288 9.20746 18.0745 9.2378 17.9305 9.29721C17.7865 9.35663 17.6558 9.44396 17.5457 9.55417L16.6439 10.4537C16.5234 10.5741 16.4305 10.7191 16.3713 10.8788C16.3122 11.0385 16.2882 11.2091 16.3012 11.3789L16.3065 11.4361C16.3388 11.7013 16.4555 11.9405 16.6439 12.1278C16.7739 12.2574 16.9172 12.3392 17.091 12.3964C17.1003 12.4486 17.105 12.5015 17.105 12.5546C17.1054 12.6717 17.0826 12.7877 17.0378 12.896C16.993 13.0042 16.9272 13.1024 16.8441 13.185L16.7887 13.2404C16.4874 13.1376 16.2362 12.9874 16.0093 12.7612C15.7093 12.4633 15.5081 12.0804 15.4332 11.6644L15.4233 11.6066L15.3772 11.6434C15.3466 11.6682 15.3174 11.6948 15.2896 11.7228L14.3872 12.6223C13.9249 13.0833 13.9249 13.8343 14.3872 14.2953C14.6183 14.5258 14.9222 14.6413 15.2266 14.6414C15.5309 14.6414 15.8343 14.5258 16.0654 14.2952L16.9673 13.3957C17.4296 12.9347 17.4296 12.1844 16.9673 11.7227C16.844 11.5997 16.6948 11.5058 16.5306 11.4478C16.5216 11.3945 16.5169 11.3407 16.5166 11.2867C16.5166 11.0276 16.6189 10.7817 16.8067 10.5944C17.1086 10.6972 17.3767 10.8638 17.6029 11.0894C17.9036 11.3893 18.1023 11.7684 18.1785 12.1862L18.189 12.244L18.2345 12.2067C18.2655 12.1818 18.2951 12.1553 18.3232 12.1273L19.2252 11.2277C19.6874 10.7667 19.688 10.0153 19.2252 9.55417C19.1151 9.44388 18.9842 9.3565 18.8401 9.29708C18.696 9.23766 18.5416 9.20737 18.3857 9.20797H18.3845ZM8.4115 14.3647C8.3322 14.6725 8.3061 15.1971 7.9049 15.2123C7.8719 15.3899 8.0277 15.4568 8.1704 15.3997C8.3114 15.3352 8.3785 15.4505 8.4261 15.5654C8.6438 15.5971 8.9655 15.4929 8.9777 15.2356C8.6527 15.0489 8.5524 14.6938 8.4115 14.3647Z" fill="black"/>
</svg>