<svg width="16" height="16" viewBox="0 0 16 16" fill="none" xmlns="http://www.w3.org/2000/svg">
<rect width="16" height="16" rx="2" fill="#42464F"/>
<path d="M13.8871 13.3682L11.6281 11.1089C11.5567 11.0389 11.4608 10.9997 11.3609 10.9997C11.261 10.9997 11.165 11.0389 11.0937 11.1089L8.83468 13.3682C8.7808 13.4196 8.74384 13.4861 8.72872 13.559C8.71359 13.6319 8.72101 13.7077 8.75 13.7762C8.77899 13.8448 8.82817 13.9029 8.89099 13.9428C8.95381 13.9828 9.0273 14.0026 9.10168 13.9997H13.6201C13.694 14.0016 13.7668 13.9811 13.829 13.941C13.8912 13.9009 13.9398 13.843 13.9686 13.7749C13.9974 13.7068 14.0051 13.6315 13.9905 13.559C13.976 13.4865 13.9399 13.42 13.8871 13.3682Z" fill="#F9FBF8"/>
<path opacity="0.7" d="M13.9622 5.25322L13.2546 3.15245C13.2226 3.05745 13.1717 2.96993 13.1049 2.8952L2.08588 13.9139C2.15054 13.9718 2.23501 14.0025 2.32175 13.9998H5.45152C5.53899 14.0002 5.62569 13.9833 5.70664 13.9502C5.78759 13.9171 5.86121 13.8683 5.92327 13.8066L13.8122 5.91772C13.8979 5.83277 13.9576 5.72509 13.9842 5.60736C14.0108 5.48963 14.0031 5.36675 13.9622 5.25322Z" fill="#C6C7CB"/>
<path d="M12.8475 2.74478L10.7467 2.03753C10.6332 1.99659 10.5103 1.98896 10.3926 2.01554C10.2748 2.04211 10.1672 2.10179 10.0822 2.18753L2.19292 10.0764C2.06882 10.202 1.99951 10.3716 2.00017 10.5482V13.678C1.99742 13.7647 2.02817 13.8492 2.08605 13.9138L13.1051 2.89517C13.0303 2.82815 12.9426 2.77699 12.8475 2.74478Z" fill="white"/>
</svg>
