<svg width="16" height="16" viewBox="0 0 16 16" fill="none" xmlns="http://www.w3.org/2000/svg">
<g clip-path="url(#clip0_5262_214201)">
<path d="M15.8493 15.1577L12.8373 12.1451C12.7422 12.0519 12.6143 11.9996 12.4811 11.9996C12.3478 11.9996 12.2199 12.0519 12.1248 12.1451L9.11279 15.1577C9.04095 15.2261 8.99167 15.3149 8.9715 15.412C8.95133 15.5092 8.96123 15.6102 8.99988 15.7016C9.03853 15.7931 9.1041 15.8705 9.18786 15.9238C9.27163 15.977 9.36961 16.0035 9.46879 15.9997H15.4933C15.5919 16.0021 15.689 15.9748 15.7719 15.9214C15.8548 15.8679 15.9196 15.7907 15.958 15.6999C15.9964 15.609 16.0066 15.5087 15.9872 15.412C15.9678 15.3153 15.9198 15.2267 15.8493 15.1577Z" fill="#374151"/>
<path opacity="0.7" d="M15.9496 4.33756L15.0061 1.53654C14.9635 1.40987 14.8956 1.29317 14.8066 1.19354L0.114502 15.8851C0.200723 15.9623 0.31335 16.0033 0.429003 15.9996H4.60202C4.71865 16.0002 4.83425 15.9777 4.94219 15.9335C5.05012 15.8894 5.14828 15.8243 5.23103 15.7421L15.7496 5.22356C15.8639 5.1103 15.9435 4.96673 15.9789 4.80975C16.0143 4.65278 16.0042 4.48894 15.9496 4.33756Z" fill="#374151"/>
<path d="M14.4633 0.993045L11.6623 0.0500403C11.5109 -0.00454248 11.3471 -0.0147159 11.1901 0.0207187C11.0331 0.0561533 10.8895 0.135719 10.7763 0.250041L0.257229 10.7686C0.0917568 10.936 -0.000651241 11.1622 0.000227083 11.3976V15.5706C-0.00344603 15.6863 0.0375579 15.7989 0.114728 15.8851L14.8068 1.19356C14.707 1.1042 14.5902 1.03599 14.4633 0.993045Z" fill="#374151"/>
</g>
<defs>
<clipPath id="clip0_5262_214201">
<rect width="16" height="16" fill="white"/>
</clipPath>
</defs>
</svg>
