<svg width="32" height="32" viewBox="0 0 32 32" fill="none" xmlns="http://www.w3.org/2000/svg">
<path d="M0.391909 19.687C0.320869 19.3833 0.68247 19.1923 0.902951 19.4128L12.5868 31.0964C12.8076 31.3172 12.6163 31.6788 12.3126 31.6074C6.41657 30.2241 1.77495 25.5829 0.391909 19.687ZM0.000548304 15.0042C-0.00209072 15.049 0.00481773 15.0939 0.0208161 15.1358C0.0368145 15.1777 0.0615378 15.2158 0.0933486 15.2474L16.752 31.9066C16.8163 31.9706 16.9049 32.0049 16.9952 31.9994C17.7536 31.9518 18.4976 31.8522 19.2233 31.7028C19.4681 31.6526 19.5529 31.3521 19.3763 31.1755L0.824231 12.6231C0.64759 12.4468 0.347109 12.5316 0.296869 12.7764C0.146067 13.5112 0.0470495 14.2556 0.000548304 15.0042ZM1.34711 9.50543C1.3213 9.56395 1.31384 9.62892 1.32573 9.69177C1.33761 9.75461 1.36828 9.81237 1.41367 9.85743L22.1421 30.5854C22.2345 30.6782 22.3744 30.7054 22.4941 30.6519C23.0634 30.3983 23.6174 30.1115 24.1533 29.7931C24.1943 29.7684 24.2292 29.7347 24.2552 29.6945C24.2812 29.6542 24.2977 29.6086 24.3033 29.561C24.309 29.5135 24.3037 29.4652 24.2878 29.4201C24.2719 29.3749 24.246 29.3339 24.2118 29.3003L2.69944 7.78738C2.66583 7.75319 2.62485 7.72714 2.57962 7.71125C2.53439 7.69535 2.48612 7.69003 2.43851 7.69568C2.3909 7.70133 2.34522 7.71782 2.30497 7.74386C2.26472 7.76991 2.23097 7.80483 2.20631 7.84594C1.88788 8.38176 1.6011 8.93577 1.34743 9.50511L1.34711 9.50543ZM4.05048 5.78358C3.99318 5.72687 3.95976 5.65038 3.95709 5.56981C3.95441 5.48924 3.98267 5.41069 4.03608 5.35031C6.96953 2.06716 11.2355 0 15.9846 0C24.8294 0 32 7.17011 32 16.0151C32 20.7638 29.9328 25.03 26.6496 27.963C26.5892 28.0164 26.5107 28.0447 26.4301 28.042C26.3495 28.0393 26.273 28.0059 26.2163 27.9486L4.0508 5.78358H4.05048Z" fill="#5E6AD2"/>
</svg>
