<svg width="16" height="16" viewBox="0 0 16 16" fill="none" xmlns="http://www.w3.org/2000/svg">
<path d="M3.99992 6H1.33325V14H3.99992V6Z" stroke="currentColor" stroke-width="1.33" stroke-linecap="round" stroke-linejoin="round"/>
<path d="M10.6667 5.33301C11.7276 5.33301 12.745 5.75444 13.4952 6.50458C14.2453 7.25473 14.6667 8.27214 14.6667 9.33301V13.9997H12.0001V9.33301C12.0001 8.97939 11.8596 8.64025 11.6096 8.3902C11.3595 8.14015 11.0204 7.99967 10.6667 7.99967C10.3131 7.99967 9.97399 8.14015 9.72394 8.3902C9.47389 8.64025 9.33341 8.97939 9.33341 9.33301V13.9997H6.66675V9.33301C6.66675 8.27214 7.08818 7.25473 7.83832 6.50458C8.58847 5.75444 9.60588 5.33301 10.6667 5.33301V5.33301Z" stroke="currentColor" stroke-width="1.33" stroke-linecap="round" stroke-linejoin="round"/>
<path d="M2.66659 3.99967C3.40297 3.99967 3.99992 3.40272 3.99992 2.66634C3.99992 1.92996 3.40297 1.33301 2.66659 1.33301C1.93021 1.33301 1.33325 1.92996 1.33325 2.66634C1.33325 3.40272 1.93021 3.99967 2.66659 3.99967Z" stroke="currentColor" stroke-width="1.33" stroke-linecap="round" stroke-linejoin="round"/>
</svg>
