<svg width="16" height="16" viewBox="0 0 16 16" fill="none" xmlns="http://www.w3.org/2000/svg">
<path d="M12.6667 7.33301H3.33333C2.59695 7.33301 2 7.92996 2 8.66634V13.333C2 14.0694 2.59695 14.6663 3.33333 14.6663H12.6667C13.403 14.6663 14 14.0694 14 13.333V8.66634C14 7.92996 13.403 7.33301 12.6667 7.33301Z" stroke="currentColor" stroke-width="1.33" stroke-linecap="round" stroke-linejoin="round"/>
<path d="M4.66675 7.33301V4.66634C4.66675 3.78229 5.01794 2.93444 5.64306 2.30932C6.26818 1.6842 7.11603 1.33301 8.00008 1.33301C8.88414 1.33301 9.73198 1.6842 10.3571 2.30932C10.9822 2.93444 11.3334 3.78229 11.3334 4.66634V7.33301" stroke="currentColor" stroke-width="1.33" stroke-linecap="round" stroke-linejoin="round"/>
</svg>
