<svg xmlns="http://www.w3.org/2000/svg" width="24" height="24" viewBox="0 0 24 24" fill="none">
  <path d="M11.4489 1.86652e-06C10.6679 0.000341654 9.95056 0.427705 9.58344 1.11148C9.21632 1.79525 9.25918 2.62404 9.6949 3.26698L10.598 2.37254C10.5682 2.28332 10.5531 2.18988 10.5535 2.09587C10.5535 1.60747 10.9527 1.21154 11.4451 1.21154C11.9376 1.21154 12.3368 1.60747 12.3368 2.09587C12.3368 2.58427 11.9376 2.9802 11.4451 2.9802C11.3508 2.98041 11.257 2.96548 11.1674 2.93599L10.2656 3.83043C11.0166 4.3356 12.009 4.30884 12.7312 3.76393C13.4535 3.21903 13.7443 2.27764 13.4538 1.42499C13.1634 0.572339 12.3564 -0.00119399 11.4489 1.86652e-06Z" fill="#34A853"/>
  <path d="M10.6082 6.10775C10.6096 5.39976 10.3784 4.71059 9.94964 4.14453L8.77773 5.30553C9.14423 5.97035 9.01234 6.7967 8.45673 7.31676L9.09364 8.86055C10.0373 8.25779 10.6078 7.22097 10.6082 6.10775Z" fill="#FBBC04"/>
  <path d="M7.33326 7.77448H7.30268C6.58387 7.77454 5.94451 7.32142 5.71172 6.64694C5.47892 5.97247 5.70419 5.22582 6.27226 4.789C6.84033 4.35218 7.62556 4.32181 8.2262 4.71343L9.38665 3.56253C8.25825 2.65526 6.66474 2.58527 5.4599 3.39007C4.25505 4.19487 3.72149 5.68568 4.14508 7.06374C4.56866 8.44181 5.85005 9.38389 7.30268 9.38523C7.52682 9.38533 7.75042 9.36333 7.97017 9.31953L7.33326 7.77448Z" fill="#EA4335"/>
  <path d="M11.4935 9.10966C10.7601 9.10892 10.0305 9.21491 9.32803 9.42423L10.2566 11.6742C10.6609 11.5749 11.0758 11.5248 11.4922 11.5252C13.9053 11.5258 15.9819 13.2169 16.4521 15.5642C16.9224 17.9116 15.6553 20.2615 13.4258 21.177C11.1962 22.0925 8.6251 21.3186 7.28466 19.3286C5.94421 17.3386 6.20774 14.6866 7.91409 12.9944C8.27014 12.6424 8.67662 12.3444 9.1204 12.1101L8.20197 9.8664C4.77851 11.5292 3.15761 15.4747 4.4345 19.0369C5.71139 22.599 9.47971 24.6444 13.1933 23.7908C16.9068 22.9373 19.3838 19.4565 18.9506 15.7004C18.5174 11.9443 15.3119 9.10822 11.4999 9.1084L11.4935 9.10966Z" fill="#4285F4"/>
</svg>