<svg width="16" height="16" viewBox="0 0 16 16" fill="none" xmlns="http://www.w3.org/2000/svg">
<rect width="16" height="16" rx="2" fill="#FFDD22"/>
<path d="M14.0887 9.86975L13.8625 9.22902C13.8625 9.22902 14.8048 7.79681 12.468 7.30684C12.468 7.30684 12.6188 5.53542 11.7896 4.70624C13.5987 2.93482 13.1841 0.258847 9.07594 1.99258C6.96531 -2.04023 -1.17568 7.41991 2.2164 8.9275C1.87719 9.37978 1.87719 11.6412 4.21396 11.8673C5.79693 15.2594 9.64129 15.4855 11.865 14.4679C14.0887 13.4503 15.3701 10.209 14.0887 9.86975ZM4.17627 11.3773C2.25409 11.1889 2.06564 8.5506 3.72399 8.28678C5.38234 8.02295 5.79693 11.5281 4.17627 11.3773ZM3.61092 7.79681C3.08326 7.79681 2.44254 8.51291 2.44254 8.51291C-0.120369 7.26915 7.07838 -0.984917 8.62367 2.21872C8.62367 2.21872 4.85468 4.02783 3.61092 7.79681ZM11.1489 11.0004C11.1489 10.8497 10.3574 11.2266 8.92518 10.7366C9.03825 9.94513 10.7343 11.415 13.561 9.49285L13.7872 10.2843C14.8425 10.0959 13.7872 13.6764 10.3951 13.6387C7.64373 13.601 6.77687 10.7743 8.28446 9.22902C8.58598 8.9275 7.19145 8.32447 7.45528 7.00532C7.56835 6.43997 8.05832 5.6108 9.30208 5.83694C10.5458 6.06308 10.8097 4.93238 11.6388 5.34697C12.468 5.76156 11.9781 7.34453 12.0911 7.57067C12.2042 7.79681 13.4103 7.8345 13.6364 8.47522C13.8625 9.11595 12.0911 10.5105 9.33977 10.1336C8.69904 10.0582 8.32215 10.8874 8.73673 11.415C9.56591 12.6211 12.958 11.8296 13.5233 10.6612C12.0911 11.7542 9.15132 12.1688 8.92518 11.0004C9.75436 11.3773 11.1489 11.1512 11.1489 11.0004ZM6.21152 5.04545C7.04069 4.02783 8.1337 3.42479 8.1337 3.42479L7.90756 3.99014C7.90756 3.99014 8.69904 3.3871 9.56591 3.3871L9.26439 3.68862C10.2443 3.72631 10.6589 4.10321 10.6589 4.10321C10.6589 4.10321 8.35984 3.42479 6.21152 5.04545ZM11.2996 6.51535C11.7896 6.47766 11.6388 7.60836 11.6388 7.60836H11.3373C11.3373 7.60836 10.8097 6.55304 11.2996 6.51535ZM9.07594 7.75912C8.73673 7.79681 8.35984 7.98526 8.39753 7.8345C8.54829 7.23146 9.94281 7.38222 9.90512 7.90988C9.86743 8.43753 9.56591 7.68374 9.07594 7.75912ZM9.86743 8.2114C9.90512 8.28678 9.6036 8.2114 9.37746 8.24909C9.15132 8.28678 8.92518 8.39984 8.92518 8.32447C8.92518 8.24909 9.79205 7.90988 9.86743 8.2114ZM10.6212 8.32447C10.7343 8.09833 11.1866 8.32447 11.0735 8.5506C10.9604 8.77674 10.5082 8.5506 10.6212 8.32447ZM11.5635 8.39984C11.3373 8.39984 11.3373 7.90988 11.5635 7.90988C11.7896 7.90988 11.7896 8.43753 11.5635 8.43753V8.39984ZM4.77931 10.3974C4.89237 10.5105 4.55317 10.7366 4.28934 10.5482C4.02551 10.3597 4.59086 9.45516 3.91244 9.22902C3.23402 9.00288 3.42247 9.86975 3.23402 9.75668C3.04557 9.64361 3.49785 8.43753 4.28934 8.9275C5.08082 9.41747 4.0632 10.1713 4.51548 10.3974C4.96775 10.6235 4.70393 10.322 4.77931 10.3974Z" fill="#222222"/>
</svg>
