<svg xmlns="http://www.w3.org/2000/svg" width="24" height="24" viewBox="0 0 24 24" fill="none">
  <path d="M17.7756 22.7742C19.4674 21.7009 20.6371 15.9442 20.3798 14.23C20.3798 14.23 20.1117 13.3096 19.4573 13.3096C18.803 13.3096 18.5307 13.999 18.5307 13.999C18.5307 13.999 18.3585 14.6354 18.0882 15.4368C17.6701 16.6764 17.4942 18.2059 16.4037 18.5932C15.3132 18.9805 14.2227 18.614 14.2227 18.614C14.9642 21.4264 16.0837 23.8476 17.7756 22.7742Z" fill="black"/>
  <path fill-rule="evenodd" clip-rule="evenodd" d="M9.39274 12.24C8.77122 12.3096 8.44384 12.5445 8.33344 12.655C7.89715 13.0912 7.67905 13.5275 7.67905 13.7456C7.67905 13.9637 7.1659 12.7245 7.05318 12.6084C6.71748 12.2627 6.72565 11.7103 7.07133 11.3747C7.55658 10.9035 8.35017 10.601 9.19834 10.5059C10.0781 10.4073 11.1213 10.5172 12.1769 10.9848C13.4088 11.5305 14.0687 12.6811 14.3179 13.7327C14.4444 14.2665 14.4768 14.8149 14.4119 15.3149C14.349 15.8001 14.1833 16.3191 13.8387 16.7141C13.1208 17.5369 12.062 17.4442 11.4892 17.3227C11.1664 17.2542 10.8818 17.1537 10.6815 17.0729C10.58 17.0319 10.4966 16.9946 10.4367 16.9666C10.4067 16.9525 10.3824 16.9407 10.3644 16.9318C10.3554 16.9273 10.348 16.9236 10.3422 16.9207L10.3348 16.9169L10.332 16.9155L10.3304 16.9146C10.3304 16.9146 10.3299 16.9143 10.7328 16.1405L10.3304 16.9146C9.90297 16.6921 9.73647 16.165 9.95899 15.7376C10.1811 15.3111 10.7063 15.1448 11.1332 15.3654M11.1332 15.3654L11.1395 15.3685C11.1465 15.372 11.1591 15.3782 11.1767 15.3864C11.2119 15.4029 11.2659 15.4272 11.3342 15.4547C11.4735 15.5109 11.6576 15.5747 11.8513 15.6158C12.3115 15.7134 12.477 15.6207 12.5239 15.567C12.5617 15.5236 12.6441 15.3791 12.6815 15.0905C12.717 14.8166 12.702 14.4808 12.6201 14.1351C12.4524 13.4274 12.0509 12.8373 11.4702 12.5802C10.7131 12.2448 9.98277 12.1738 9.39274 12.24" fill="black"/>
  <path fill-rule="evenodd" clip-rule="evenodd" d="M3.62452 3.22475C3.41231 3.65734 3.59098 4.18005 4.02358 4.39226C4.64493 4.69705 5.18413 4.99759 5.718 5.59954C6.03772 5.95999 6.58912 5.99299 6.94965 5.67327C7.3101 5.35354 7.3431 4.80214 7.02337 4.44166C6.26265 3.58394 5.47957 3.16294 4.79203 2.82569C4.35943 2.61348 3.83672 2.79215 3.62452 3.22475Z" fill="black"/>
  <path fill-rule="evenodd" clip-rule="evenodd" d="M8.33978 0.684459C7.87229 0.801324 7.58811 1.275 7.70496 1.74246C7.78664 2.06904 7.86276 2.34829 7.93244 2.60392C8.06586 3.0932 8.17574 3.49596 8.2554 3.97847C8.33385 4.45388 8.78288 4.77566 9.2583 4.69718C9.73365 4.61869 10.0555 4.16968 9.97695 3.69427C9.88283 3.12397 9.7362 2.58437 9.58905 2.04277C9.52395 1.80294 9.45863 1.56272 9.3978 1.31926C9.28095 0.851807 8.80725 0.567594 8.33978 0.684459Z" fill="black"/>
  <path fill-rule="evenodd" clip-rule="evenodd" d="M13.3264 1.22142C12.9144 0.971469 12.3778 1.10279 12.1279 1.51472C11.6708 2.26805 11.3107 3.21517 11.1754 4.25388C11.1132 4.73169 11.4501 5.16947 11.9278 5.23169C12.4057 5.29389 12.8434 4.957 12.9057 4.4792C13.0081 3.69207 13.2827 2.97523 13.6197 2.41988C13.8696 2.00795 13.7383 1.47137 13.3264 1.22142Z" fill="black"/>
  <path fill-rule="evenodd" clip-rule="evenodd" d="M15.2465 8.29327C16.9772 8.63909 16.9775 8.63782 16.9775 8.63782L16.9777 8.63654L16.9782 8.63384L16.9792 8.62837L16.9813 8.61659C16.9828 8.60842 16.9843 8.59949 16.9858 8.58982C16.9889 8.57062 16.9922 8.54849 16.9955 8.52374C17.0019 8.47454 17.0084 8.41304 17.0128 8.34194C17.0211 8.20477 17.0228 8.00557 16.9877 7.77449C16.9213 7.33672 16.6663 6.50699 15.7679 6.02602L15.5902 5.93084L15.396 5.87707L14.9494 7.54147C15.3476 7.75469 15.2465 8.29327 15.2465 8.29327ZM14.9697 9.39134L15.2465 8.29327L16.9772 8.63909L16.9677 8.68979L16.6883 9.79829C16.6346 10.0708 16.6275 10.2265 16.6304 10.3088C16.6328 10.3758 16.6415 10.3978 16.6458 10.4086L16.6462 10.4098C16.6572 10.4377 16.6855 10.498 16.7887 10.6546C16.8309 10.7185 16.8746 10.7825 16.9304 10.864C16.9451 10.8856 16.9607 10.9084 16.9774 10.9328C17.0523 11.0426 17.14 11.172 17.2329 11.3168C17.8134 12.2215 17.8704 13.0897 17.8673 13.6462C17.8673 13.6543 17.8673 13.6624 17.8672 13.6705C17.9366 13.6943 18.0103 13.7183 18.0886 13.7433C18.1144 13.7515 18.1486 13.7623 18.1846 13.7737C18.2351 13.7896 18.2889 13.8066 18.3274 13.8189C18.4031 13.8432 18.4997 13.8748 18.5931 13.9096C18.6581 13.9338 18.7205 13.958 18.7792 13.9823C18.8356 14.0056 18.9043 14.0356 18.9767 14.0721C19.0329 14.1004 19.1243 14.149 19.2277 14.2207L20.1368 14.6119L20.1236 15.7765C20.1158 16.4612 19.8404 17.1831 19.645 17.63C19.4296 18.1227 19.1449 18.6481 18.883 18.9974C18.517 19.4851 18.1024 20.0002 17.6036 20.3296C17.3096 20.5237 16.9545 20.678 16.5355 20.7286C16.1623 20.7738 15.8393 20.7238 15.602 20.666L15.532 20.6517C15.4617 20.6372 15.3609 20.6164 15.2383 20.5909C14.9933 20.5399 14.6594 20.4697 14.3053 20.3927C13.6525 20.251 12.7675 20.0527 12.3501 19.9141L12.32 19.9041L12.2902 19.8931C12.1051 19.8243 11.792 19.7472 11.2736 19.629C11.2422 19.6218 11.2102 19.6145 11.1778 19.6072C10.7305 19.5054 10.18 19.3801 9.65872 19.2222C9.11887 19.0587 8.45108 18.8155 7.88414 18.4193C7.28901 18.0034 6.61244 17.2701 6.57471 16.1701C6.56909 16.0054 6.57283 15.8463 6.58303 15.6952C6.31506 15.4048 6.09013 15.025 5.97651 14.5388C5.86573 14.065 5.92701 13.645 6.00471 13.3503C6.08256 13.0547 6.20091 12.7964 6.29983 12.6033C6.33321 12.5381 6.36786 12.4738 6.40236 12.4117C6.07521 12.3085 5.70576 12.181 5.34614 12.0277C4.87645 11.8274 4.21002 11.4971 3.71249 10.9639C3.44453 10.6768 3.16396 10.2652 3.05051 9.72704C2.93179 9.16387 3.03044 8.62357 3.26161 8.16089C3.82437 7.03462 4.89928 6.63674 5.85531 6.60232C6.71863 6.57119 7.63724 6.81277 8.4603 7.10144C9.21023 7.36447 10.2836 7.85369 11.1954 8.27977C11.4958 7.78732 11.8916 7.23082 12.2664 6.78142L12.3409 6.69209L12.427 6.61372C13.0719 6.02677 13.7963 5.82944 14.3483 5.78707C14.6189 5.76637 14.8518 5.78182 15.0261 5.80447C15.1142 5.81587 15.1901 5.82952 15.2518 5.84242C15.2827 5.84887 15.3103 5.85524 15.3344 5.86109C15.3464 5.86402 15.3575 5.86687 15.3678 5.86957L15.3826 5.87347L15.3895 5.87527L15.3928 5.87624L15.3944 5.87669C15.3944 5.87669 15.396 5.87707 14.9494 7.54147C14.9494 7.54147 14.2529 7.34864 13.6542 7.87717C13.6482 7.88249 13.6421 7.88789 13.6361 7.89337C13.6176 7.91564 13.5989 7.93822 13.5803 7.96102C13.5535 7.99379 13.5267 8.02709 13.4998 8.06092C13.492 8.07082 13.4841 8.08072 13.4763 8.09069C12.8788 8.84879 12.9142 9.16552 11.8235 10.4743C11.8235 10.4743 11.2554 10.2112 10.9156 10.0515C10.6824 9.94184 10.436 9.82604 10.1848 9.70927C9.37455 9.33254 8.51565 8.94622 7.89748 8.72939C6.37566 8.19569 5.2537 8.12789 4.84417 8.94749C4.30394 10.0287 6.49768 10.6551 7.59996 10.9699C7.83208 11.0362 8.01583 11.0887 8.11551 11.1286C8.68087 11.3556 8.72032 11.8109 8.55195 12.2191C8.4537 12.4572 8.39768 12.5914 8.11574 12.8734C7.67946 13.3096 7.60791 13.8262 7.69124 14.1825C7.73293 14.3609 7.81543 14.4907 7.91354 14.585C8.17664 14.8381 8.55188 14.8366 8.55188 14.8366C8.55188 14.8366 8.30993 15.4548 8.33362 16.1453C8.3388 16.2973 8.37967 16.4356 8.4501 16.5622C8.86837 17.313 10.3288 17.6457 11.5559 17.9251C12.0712 18.0426 12.5454 18.1506 12.884 18.2762C13.4907 18.4776 15.9674 18.9807 15.9674 18.9807C16.4244 19.1006 16.7077 18.9555 17.4594 17.9535C17.7716 17.5373 18.3567 16.3601 18.3638 15.7238C18.2689 15.683 18.2623 15.6688 18.2556 15.6544C18.2464 15.6348 18.2372 15.615 17.9972 15.5256C17.917 15.4957 17.8095 15.4618 17.6866 15.423C17.1748 15.2616 16.3943 15.0154 16.1857 14.6185C16.0844 14.4257 16.0925 14.1671 16.1017 13.8647C16.1162 13.3945 16.134 12.8184 15.7495 12.2192C15.6552 12.0721 15.5647 11.9398 15.48 11.8159C14.9979 11.1112 14.7054 10.6835 14.9697 9.39134ZM6.90824 11.5198C6.90936 11.5165 6.90899 11.5173 6.90756 11.5216L6.90824 11.5198ZM17.8584 14.201C17.8584 14.201 17.8584 14.1942 17.857 14.1824C17.8575 14.1954 17.8584 14.201 17.8584 14.201Z" fill="black"/>
</svg>