<svg width="16" height="16" viewBox="0 0 16 16" fill="none" xmlns="http://www.w3.org/2000/svg">
<path d="M5.33325 15.333H10.6666" stroke="currentColor" stroke-width="1.33" stroke-linecap="round" stroke-linejoin="round"/>
<path d="M8 12.667V15.3337" stroke="currentColor" stroke-width="1.33" stroke-linecap="round" stroke-linejoin="round"/>
<path d="M8 0.666992C7.46957 0.666992 6.96086 0.877706 6.58579 1.25278C6.21071 1.62785 6 2.13656 6 2.66699V8.00033C6 8.53076 6.21071 9.03947 6.58579 9.41454C6.96086 9.78961 7.46957 10.0003 8 10.0003C8.53043 10.0003 9.03914 9.78961 9.41421 9.41454C9.78929 9.03947 10 8.53076 10 8.00033V2.66699C10 2.13656 9.78929 1.62785 9.41421 1.25278C9.03914 0.877706 8.53043 0.666992 8 0.666992V0.666992Z" stroke="currentColor" stroke-width="1.33" stroke-linecap="round" stroke-linejoin="round"/>
<path d="M12.6666 6.66699V8.00033C12.6666 9.238 12.1749 10.425 11.2997 11.3002C10.4246 12.1753 9.2376 12.667 7.99992 12.667C6.76224 12.667 5.57526 12.1753 4.70009 11.3002C3.82492 10.425 3.33325 9.238 3.33325 8.00033V6.66699" stroke="currentColor" stroke-width="1.33" stroke-linecap="round" stroke-linejoin="round"/>
</svg>
