<svg width="16" height="16" viewBox="0 0 16 16" fill="none" xmlns="http://www.w3.org/2000/svg">
<g clip-path="url(#clip0_5687_209709)">
<path d="M-0.192627 4.22644C-0.192627 2.0173 1.59823 0.22644 3.80737 0.22644H11.8074C14.0165 0.22644 15.8074 2.0173 15.8074 4.22644V12.2264C15.8074 14.4356 14.0165 16.2264 11.8074 16.2264H3.80737C1.59823 16.2264 -0.192627 14.4356 -0.192627 12.2264V4.22644Z" fill="#FFDD33"/>
<path d="M10.4446 3.27643H8.99212L10.2025 5.40303L7.53967 3.27643H6.08727L7.41867 5.87568L4.63481 3.27643H3.18237L4.63481 6.58498L3.18237 13.2014H4.63481L7.41867 6.11233L6.08727 13.2014H7.53967L10.2025 5.63968L8.99212 13.2014H10.4446L13.1074 4.93039L10.4446 3.27643Z" fill="black"/>
</g>
<defs>
<clipPath id="clip0_5687_209709">
<rect width="16" height="16" rx="2" fill="white"/>
</clipPath>
</defs>
</svg>
