<svg width="16" height="16" viewBox="0 0 16 16" fill="none" xmlns="http://www.w3.org/2000/svg">
<g clip-path="url(#clip0_5711_161943)">
<rect width="16" height="16" rx="2" fill="white"/>
<path d="M1.99034 12.7729C1.27026 12.7745 0.605039 12.3885 0.249107 11.7625C-0.101695 11.1404 -0.0806589 10.3755 0.303805 9.7736L3.8896 4.14269C4.26324 3.52657 4.93947 3.15914 5.6597 3.18091C6.37941 3.19816 7.03404 3.60168 7.37283 4.23689C7.7071 4.86897 7.66531 5.62943 7.26495 6.22275L3.68144 11.8537C3.3121 12.4292 2.67418 12.7759 1.99034 12.7729Z" fill="#F62B54"/>
<path d="M8.1409 12.7729C7.41766 12.7729 6.75216 12.3862 6.4027 11.7648C6.05267 11.1443 6.07371 10.3814 6.4574 9.78119L10.0364 4.1632C10.4046 3.53824 11.0828 3.16218 11.808 3.1809C12.5373 3.19686 13.1982 3.60482 13.5325 4.24297C13.8645 4.88112 13.8159 5.64614 13.4033 6.23794L9.82515 11.8559C9.45699 12.429 8.822 12.7747 8.1409 12.7729Z" fill="#FFCC00"/>
<path d="M14.1539 12.82C15.1735 12.82 16 12.0108 16 11.0127C16 10.0145 15.1735 9.20534 14.1539 9.20534C13.1344 9.20534 12.3079 10.0145 12.3079 11.0127C12.3079 12.0108 13.1344 12.82 14.1539 12.82Z" fill="#00CA72"/>
</g>
<defs>
<clipPath id="clip0_5711_161943">
<rect width="16" height="16" rx="2" fill="white"/>
</clipPath>
</defs>
</svg>
