<svg width="16" height="16" viewBox="0 0 16 16" fill="none" xmlns="http://www.w3.org/2000/svg">
<path d="M12.6667 8.66634C13.0349 8.66634 13.3333 8.36786 13.3333 7.99967C13.3333 7.63148 13.0349 7.33301 12.6667 7.33301C12.2985 7.33301 12 7.63148 12 7.99967C12 8.36786 12.2985 8.66634 12.6667 8.66634Z" stroke="currentColor" stroke-width="1.33" stroke-linecap="round" stroke-linejoin="round"/>
<path d="M7.99992 8.66634C8.36811 8.66634 8.66659 8.36786 8.66659 7.99967C8.66659 7.63148 8.36811 7.33301 7.99992 7.33301C7.63173 7.33301 7.33325 7.63148 7.33325 7.99967C7.33325 8.36786 7.63173 8.66634 7.99992 8.66634Z" stroke="currentColor" stroke-width="1.33" stroke-linecap="round" stroke-linejoin="round"/>
<path d="M3.33341 8.66634C3.7016 8.66634 4.00008 8.36786 4.00008 7.99967C4.00008 7.63148 3.7016 7.33301 3.33341 7.33301C2.96522 7.33301 2.66675 7.63148 2.66675 7.99967C2.66675 8.36786 2.96522 8.66634 3.33341 8.66634Z" stroke="currentColor" stroke-width="1.33" stroke-linecap="round" stroke-linejoin="round"/>
</svg>
