<svg width="16" height="16" viewBox="0 0 16 16" fill="none" xmlns="http://www.w3.org/2000/svg">
<g clip-path="url(#clip0_5261_214113)">
<path d="M10.5362 7.54818V10.8076C10.5362 11.1515 10.4314 11.4872 10.2357 11.77C10.04 12.0528 9.7627 12.2692 9.44082 12.3903L8.28614 12.825C8.23495 12.8443 8.17984 12.8509 8.12553 12.8442C8.07123 12.8375 8.01936 12.8178 7.97438 12.7866C7.9294 12.7555 7.89265 12.7139 7.8673 12.6654C7.84194 12.6169 7.82872 12.563 7.82879 12.5083V8.53754L5.56742 9.36355C5.43749 9.41144 5.32538 9.49803 5.24622 9.61165C5.16706 9.72526 5.12466 9.86043 5.12474 9.9989V15.323C5.12474 15.793 5.59142 16.1197 6.03343 15.9583L12.8076 13.483C13.1332 13.3641 13.4144 13.148 13.6131 12.864C13.8118 12.5799 13.9183 12.2416 13.9182 11.8949V5.1308C13.918 5.4773 13.8113 5.81536 13.6127 6.09927C13.414 6.38317 13.133 6.59921 12.8076 6.71817L10.5362 7.54818ZM10.5362 7.19351V6.21549C10.5362 5.87134 10.4312 5.53537 10.2352 5.25246C10.0393 4.96954 9.76167 4.75313 9.43949 4.63213L8.28747 4.19879C8.23628 4.17963 8.18121 4.17316 8.12697 4.17991C8.07274 4.18666 8.02094 4.20643 7.976 4.23755C7.93107 4.26866 7.89433 4.31019 7.86893 4.35858C7.84353 4.40698 7.83021 4.4608 7.83013 4.51546V7.57552C7.83013 8.04286 7.36679 8.36953 6.92678 8.21286L2.52936 6.64217C2.39786 6.59526 2.28409 6.50883 2.20365 6.39473C2.1232 6.28063 2.08002 6.14443 2.08002 6.00482V0.676718C2.08002 0.209375 2.54336 -0.117298 2.98403 0.0400386L12.7962 3.54411C13.0715 3.64248 13.3166 3.8105 13.5076 4.03179C13.6987 4.25309 13.8291 4.52009 13.8862 4.8068C13.7956 5.38081 13.1862 6.22549 12.6929 6.4055L10.5362 7.19351Z" fill="currentColor"/>
</g>
<defs>
<clipPath id="clip0_5261_214113">
<rect width="16" height="16" fill="white"/>
</clipPath>
</defs>
</svg>
