<svg width="16" height="16" viewBox="0 0 16 16" fill="none" xmlns="http://www.w3.org/2000/svg">
<rect width="16" height="16" rx="2" fill="white"/>
<path d="M2.82001 1.5924C2.82001 1.18308 3.22551 0.897315 3.61098 1.03498L12.7854 4.31157C13.021 4.39571 13.1782 4.61884 13.1782 4.86899V9.53036C13.1782 9.94025 12.7728 10.2258 12.3866 10.0882L10.6103 9.45452C10.3746 9.37044 10.2173 9.14727 10.2173 8.89704V6.43768C10.2173 5.82063 9.83549 5.26868 9.25839 5.05264L8.25068 4.67383C8.05684 4.60132 7.85115 4.74485 7.85115 4.95054V7.62805C7.85115 8.03735 7.44569 8.32312 7.06021 8.18549L3.21287 6.81177C2.97728 6.72764 2.82001 6.5045 2.82001 6.25433V1.5924Z" fill="url(#paint0_linear_5687_209728)"/>
<path d="M13.1783 5.48764C13.1783 6.10913 12.7906 6.66552 12.2061 6.8786L5.8724 9.19293C5.63894 9.27824 5.48364 9.50032 5.48364 9.74889V14.4075C5.48364 14.8187 5.8925 15.1046 6.27868 14.9635L12.7896 12.5845C13.023 12.4992 13.1783 12.2771 13.1783 12.0286V5.48764Z" fill="url(#paint1_linear_5687_209728)"/>
<path opacity="0.5" d="M13.1783 5.48764C13.1783 6.10913 12.7906 6.66552 12.2061 6.8786L5.8724 9.19293C5.63894 9.27824 5.48364 9.50032 5.48364 9.74889V14.4075C5.48364 14.8187 5.8925 15.1046 6.27868 14.9635L12.7896 12.5845C13.023 12.4992 13.1783 12.2771 13.1783 12.0286V5.48764Z" fill="url(#paint2_linear_5687_209728)"/>
<path opacity="0.5" d="M10.2188 7.60666L7.84973 8.47379V11.9453C7.84973 12.1524 8.0569 12.2945 8.24926 12.222L9.25993 11.8417C9.83703 11.6242 10.2188 11.0737 10.2188 10.4567V7.60666Z" fill="#B0ADFF"/>
<defs>
<linearGradient id="paint0_linear_5687_209728" x1="6.22787" y1="0.922663" x2="8.98168" y2="8.13348" gradientUnits="userSpaceOnUse">
<stop stop-color="#0B53CE"/>
<stop offset="1" stop-color="#7252AA"/>
</linearGradient>
<linearGradient id="paint1_linear_5687_209728" x1="9.33099" y1="14.7346" x2="9.33099" y2="6.14169" gradientUnits="userSpaceOnUse">
<stop stop-color="#2266E3"/>
<stop offset="1" stop-color="#AE7FE2"/>
</linearGradient>
<linearGradient id="paint2_linear_5687_209728" x1="13.1783" y1="10.3708" x2="10.2307" y2="10.3708" gradientUnits="userSpaceOnUse">
<stop stop-color="#94B9FF"/>
<stop offset="0.29" stop-color="#94B9FF" stop-opacity="0.52"/>
<stop offset="1" stop-color="#538FFF" stop-opacity="0"/>
</linearGradient>
</defs>
</svg>
