<svg xmlns="http://www.w3.org/2000/svg" width="16" height="16" viewBox="0 0 16 16" fill="none">
  <path d="M3.8335 6.33331C5.21421 6.33331 6.3335 5.21403 6.3335 3.83331C6.3335 2.4526 5.21421 1.33331 3.8335 1.33331C2.45278 1.33331 1.3335 2.4526 1.3335 3.83331C1.3335 5.21403 2.45278 6.33331 3.8335 6.33331Z" stroke="currentColor" stroke-width="1.33333" stroke-linecap="round" stroke-linejoin="round"/>
  <path d="M3.8335 14.67C5.21421 14.67 6.3335 13.5507 6.3335 12.17C6.3335 10.7893 5.21421 9.67 3.8335 9.67C2.45278 9.67 1.3335 10.7893 1.3335 12.17C1.3335 13.5507 2.45278 14.67 3.8335 14.67Z" stroke="currentColor" stroke-width="1.33333" stroke-linecap="round" stroke-linejoin="round"/>
  <path d="M12.1699 6.33331C13.5506 6.33331 14.6699 5.21403 14.6699 3.83331C14.6699 2.4526 13.5506 1.33331 12.1699 1.33331C10.7892 1.33331 9.66992 2.4526 9.66992 3.83331C9.66992 5.21403 10.7892 6.33331 12.1699 6.33331Z" stroke="currentColor" stroke-width="1.33333" stroke-linecap="round" stroke-linejoin="round"/>
  <path d="M12.1699 14.67C13.5506 14.67 14.6699 13.5507 14.6699 12.17C14.6699 10.7893 13.5506 9.67 12.1699 9.67C10.7892 9.67 9.66992 10.7893 9.66992 12.17C9.66992 13.5507 10.7892 14.67 12.1699 14.67Z" stroke="currentColor" stroke-width="1.33333" stroke-linecap="round" stroke-linejoin="round"/>
</svg>