<svg xmlns="http://www.w3.org/2000/svg" width="24" height="24" viewBox="0 0 24 24" fill="none">
  <path d="M21.4737 5.68359C20.2965 5.68359 19.3074 6.48869 19.0269 7.57829H16.1314C14.8964 7.57829 13.8424 8.47129 13.6394 9.68929L13.5356 10.3123C13.4865 10.6073 13.3343 10.8752 13.1061 11.0685C12.878 11.2618 12.5886 11.3678 12.2896 11.3678H11.289C11.0085 10.2782 10.0194 9.47309 8.8422 9.47309C7.665 9.47309 6.6759 10.2782 6.3955 11.3678H4.973C4.6925 10.2782 3.7034 9.47309 2.5262 9.47309C1.1311 9.47309 0 10.6041 0 11.9994C0 13.3947 1.131 14.5257 2.5263 14.5257C3.7035 14.5257 4.6926 13.7206 4.9731 12.631H6.3954C6.6758 13.7206 7.665 14.5257 8.8421 14.5257C10.0193 14.5257 11.0084 13.7206 11.2889 12.631H12.2897C12.5887 12.631 12.878 12.737 13.1062 12.9303C13.3343 13.1236 13.4865 13.3916 13.5356 13.6865L13.6394 14.3095C13.8424 15.5275 14.8964 16.4205 16.1314 16.4205H16.5006C16.781 17.51 17.7702 18.3152 18.9474 18.3152C20.3426 18.3152 21.4737 17.1842 21.4737 15.7889C21.4737 14.3936 20.3427 13.2626 18.9474 13.2626C17.7702 13.2626 16.781 14.0676 16.5006 15.1573H16.1314C15.8324 15.1573 15.543 15.0513 15.3149 14.858C15.0867 14.6647 14.9345 14.3968 14.8854 14.1018L14.7817 13.4788C14.6867 12.9058 14.3967 12.3832 13.9607 11.9994C14.3967 11.6156 14.6867 11.093 14.7817 10.52L14.8855 9.89699C14.9346 9.60205 15.0868 9.3341 15.3149 9.14082C15.5431 8.94755 15.8324 8.84148 16.1314 8.84149H19.0269C19.3074 9.93109 20.2965 10.7362 21.4737 10.7362C22.8689 10.7362 24 9.60519 24 8.20989C24 6.81459 22.869 5.68359 21.4737 5.68359ZM21.4737 6.94679C21.6396 6.94678 21.8038 6.97944 21.9571 7.04291C22.1103 7.10639 22.2496 7.19943 22.3669 7.31672C22.4842 7.43401 22.5772 7.57326 22.6407 7.72651C22.7042 7.87976 22.7368 8.04402 22.7368 8.20989C22.7368 8.37578 22.7042 8.54004 22.6407 8.69331C22.5772 8.84657 22.4842 8.98583 22.3669 9.10313C22.2496 9.22044 22.1104 9.31348 21.9571 9.37696C21.8038 9.44044 21.6396 9.47311 21.4737 9.47309C21.3078 9.47312 21.1435 9.44046 20.9903 9.37699C20.837 9.31352 20.6977 9.22047 20.5804 9.10317C20.4631 8.98587 20.3701 8.8466 20.3066 8.69333C20.2431 8.54006 20.2105 8.37579 20.2105 8.20989C20.2105 8.04401 20.2432 7.87975 20.3066 7.72649C20.3701 7.57323 20.4632 7.43398 20.5805 7.31668C20.6978 7.19939 20.837 7.10635 20.9903 7.04289C21.1435 6.97942 21.3078 6.94677 21.4737 6.94679ZM2.5263 10.7362C2.69219 10.7362 2.85647 10.7688 3.00974 10.8323C3.16301 10.8958 3.30227 10.9888 3.41958 11.1061C3.53688 11.2234 3.62993 11.3627 3.6934 11.516C3.75687 11.6692 3.78953 11.8335 3.7895 11.9994C3.78953 12.1653 3.75687 12.3296 3.6934 12.4828C3.62993 12.6361 3.53688 12.7754 3.41958 12.8927C3.30227 13.01 3.16301 13.103 3.00974 13.1665C2.85647 13.23 2.69219 13.2626 2.5263 13.2626C2.36042 13.2626 2.19615 13.2299 2.04289 13.1665C1.88964 13.103 1.75038 13.0099 1.63309 12.8926C1.5158 12.7753 1.42276 12.6361 1.35929 12.4828C1.29583 12.3295 1.26317 12.1653 1.2632 11.9994C1.26317 11.8335 1.29583 11.6692 1.35929 11.516C1.42276 11.3627 1.5158 11.2235 1.63309 11.1062C1.75038 10.9889 1.88964 10.8958 2.04289 10.8323C2.19615 10.7688 2.36042 10.7362 2.5263 10.7362ZM8.8421 10.7362C9.00799 10.7362 9.17227 10.7688 9.32554 10.8323C9.47881 10.8958 9.61807 10.9888 9.73538 11.1061C9.85268 11.2234 9.94573 11.3627 10.0092 11.516C10.0727 11.6692 10.1053 11.8335 10.1053 11.9994C10.1053 12.1653 10.0727 12.3296 10.0092 12.4828C9.94573 12.6361 9.85268 12.7754 9.73538 12.8927C9.61807 13.01 9.47881 13.103 9.32554 13.1665C9.17227 13.23 9.00799 13.2626 8.8421 13.2626C8.67622 13.2626 8.51195 13.2299 8.35869 13.1665C8.20543 13.103 8.06618 13.0099 7.94889 12.8926C7.83159 12.7753 7.73856 12.6361 7.67509 12.4828C7.61163 12.3295 7.57897 12.1653 7.579 11.9994C7.57897 11.8335 7.61163 11.6692 7.6751 11.516C7.73857 11.3627 7.83162 11.2234 7.94892 11.1061C8.06623 10.9888 8.20549 10.8958 8.35876 10.8323C8.51203 10.7688 8.67621 10.7362 8.8421 10.7362ZM18.9475 14.5257C19.1134 14.5257 19.2776 14.5583 19.4309 14.6218C19.5842 14.6853 19.7234 14.7783 19.8407 14.8957C19.958 15.013 20.051 15.1522 20.1145 15.3055C20.178 15.4587 20.2106 15.623 20.2106 15.7889C20.2106 15.9548 20.178 16.119 20.1145 16.2723C20.051 16.4255 19.958 16.5648 19.8407 16.6821C19.7234 16.7994 19.5841 16.8924 19.4309 16.9559C19.2776 17.0193 19.1134 17.052 18.9475 17.052C18.7816 17.052 18.6173 17.0194 18.4641 16.9559C18.3108 16.8924 18.1716 16.7994 18.0543 16.6821C17.937 16.5648 17.8439 16.4256 17.7804 16.2723C17.717 16.119 17.6843 15.9548 17.6843 15.7889C17.6843 15.623 17.7169 15.4587 17.7804 15.3055C17.8439 15.1522 17.9369 15.0129 18.0542 14.8956C18.1715 14.7783 18.3108 14.6853 18.4641 14.6218C18.6173 14.5583 18.7816 14.5257 18.9475 14.5257Z" fill="#EA4B71"/>
</svg>