<svg xmlns="http://www.w3.org/2000/svg" width="16" height="16" viewBox="0 0 16 16" fill="none">
  <path d="M8.13731 2.72491C8.73742 2.00477 9.55136 1.6002 10.4 1.6002C11.2487 1.6002 7.20005 1.2002 7.20005 1.2002L4.80005 2.4002L4.00005 6.4002L2.80005 11.2002H5.60005C5.60005 11.2002 7.20005 9.92019 7.20005 5.4402C7.20005 4.42176 7.53719 3.44504 8.13731 2.72491Z" fill="#9AA2AF" stroke="none"/>
  <path d="M12 5.33301C12 4.27214 11.5786 3.25473 10.8284 2.50458C10.0783 1.75444 9.06087 1.33301 8 1.33301C6.93913 1.33301 5.92172 1.75444 5.17157 2.50458C4.42143 3.25473 4 4.27214 4 5.33301C4 9.99967 2 11.333 2 11.333H14C14 11.333 12 9.99967 12 5.33301Z" stroke="currentColor" stroke-width="1.33" stroke-linecap="round" stroke-linejoin="round"/>
  <path d="M9.15335 14C9.03614 14.2021 8.86791 14.3698 8.6655 14.4864C8.46309 14.6029 8.2336 14.6643 8.00001 14.6643C7.76643 14.6643 7.53694 14.6029 7.33453 14.4864C7.13212 14.3698 6.96389 14.2021 6.84668 14" stroke="currentColor" stroke-width="1.33" stroke-linecap="round" stroke-linejoin="round"/>
</svg>