<svg xmlns="http://www.w3.org/2000/svg" width="23" height="24" viewBox="0 0 23 24" fill="none">
  <path d="M1.44581 1.0333L14.7425 0.0544521C16.3757 -0.0852686 16.7954 0.00894313 17.8223 0.753056L22.0668 3.7335C22.7669 4.24607 23 4.38579 23 4.94388V21.2896C23 22.314 22.6267 22.9199 21.3203 23.0126L5.87936 23.9443C4.89893 23.9906 4.43195 23.8509 3.91851 23.1986L0.792993 19.1475C0.232291 18.4018 0 17.8437 0 17.1914V2.66204C0 1.82451 0.373267 1.12591 1.44581 1.0333Z" fill="white"/>
  <path d="M14.7425 0.0544521L1.44581 1.0333C0.373267 1.12591 0 1.82451 0 2.66204V17.1914C0 17.8437 0.232291 18.4018 0.792993 19.1475L3.91851 23.1986C4.43195 23.8509 4.89893 23.9906 5.87936 23.9443L21.3203 23.0126C22.6259 22.9199 23 22.314 23 21.2896V4.94388C23 4.41454 22.7901 4.26204 22.1726 3.81014C22.137 3.78463 22.1015 3.75908 22.066 3.7335L17.8223 0.753056C16.7954 0.00894313 16.3757 -0.0852686 14.7425 0.0544521ZM6.2286 4.67641C4.96782 4.76104 4.68186 4.78021 3.96577 4.19977L2.14509 2.75625C1.96005 2.56942 2.05297 2.33629 2.51915 2.28998L15.3016 1.35904C16.3749 1.26563 16.934 1.63849 17.3537 1.96423L19.5461 3.54747C19.6398 3.59458 19.8729 3.87322 19.5925 3.87322L6.392 4.66524L6.2286 4.67641ZM4.75876 21.1499V7.27362C4.75876 6.66763 4.94539 6.38819 5.50449 6.34108L20.6659 5.45645C21.1801 5.41015 21.4124 5.73589 21.4124 6.34108V20.1247C21.4124 20.7307 21.3187 21.2433 20.4792 21.2896L5.97068 22.1279C5.13123 22.1742 4.75876 21.8956 4.75876 21.1499ZM19.0807 8.01773C19.1736 8.4369 19.0807 8.85606 18.6602 8.90396L17.9609 9.04209V19.2872C17.3537 19.613 16.7946 19.799 16.3276 19.799C15.5811 19.799 15.3945 19.5658 14.8354 18.868L10.2625 11.6968V18.6349L11.7091 18.9615C11.7091 18.9615 11.7091 19.7998 10.542 19.7998L7.32437 19.9858C7.23065 19.799 7.32437 19.3335 7.65038 19.2409L8.49063 19.0086V9.8349L7.32437 9.74069C7.23065 9.32153 7.46375 8.71634 8.11736 8.66923L11.5697 8.43769L16.3276 15.7016V9.27522L15.1149 9.1363C15.0212 8.62292 15.3945 8.25007 15.8607 8.20456L19.0807 8.01773Z" fill="black"/>
</svg>