<svg width="16" height="16" viewBox="0 0 16 16" fill="none" xmlns="http://www.w3.org/2000/svg">
<rect width="16" height="16" rx="2" fill="white"/>
<path d="M5.01078 1.00395C4.86664 1.03093 4.73057 1.09049 4.61295 1.17808C4.27812 1.43241 4.01884 1.97198 3.90917 2.64456C3.86507 2.93467 3.84187 3.22757 3.83975 3.52101C3.83975 3.83892 3.87709 4.24462 3.93017 4.5252C3.94242 4.58762 3.94854 4.64275 3.94329 4.64683C3.90757 4.67683 3.8714 4.70629 3.8348 4.7352C3.6458 4.88599 3.42968 5.11816 3.28093 5.3302C2.99524 5.73638 2.80773 6.20334 2.73318 6.6943C2.70314 6.89147 2.69498 7.2893 2.71918 7.48646C2.77227 7.94087 2.90906 8.3247 3.14326 8.67645L3.21968 8.7902L3.19751 8.82724C3.04089 9.09061 2.90701 9.47181 2.8446 9.83756C2.7956 10.1272 2.78918 10.2045 2.78918 10.5924C2.78918 10.9832 2.79443 11.0608 2.84081 11.3312C2.89622 11.6549 3.00851 11.9976 3.13422 12.2257C3.17535 12.3004 3.27597 12.4549 3.28793 12.4631C3.29201 12.4652 3.28005 12.5022 3.2608 12.5454C3.10646 12.8939 2.99897 13.2614 2.94114 13.6382C2.90497 13.8815 2.90001 13.9596 2.90001 14.216C2.90001 14.5427 2.9181 14.7016 2.98635 14.9618L2.99656 15H3.85784L3.82984 14.9469C3.65601 14.6252 3.63996 14.0282 3.78959 13.432C3.85784 13.1567 3.93542 12.9546 4.08008 12.676L4.16642 12.5072V12.4036C4.16642 12.3074 4.16467 12.2963 4.13346 12.233C4.10925 12.1846 4.07717 12.1434 4.01971 12.0872C3.92548 11.9969 3.84945 11.8893 3.79571 11.7704C3.54838 11.2338 3.50026 10.4366 3.67409 9.75706C3.74642 9.47356 3.866 9.22128 3.99171 9.08361C4.07717 8.98911 4.12121 8.88353 4.12121 8.77416C4.12121 8.66041 4.08096 8.56707 3.99054 8.46937C3.73126 8.19229 3.57142 7.85425 3.51426 7.46138C3.43259 6.90139 3.58047 6.29123 3.91617 5.80765C4.24487 5.3334 4.70629 5.02891 5.22195 4.94724C5.33744 4.92828 5.55357 4.9312 5.67402 4.95337C5.80586 4.9767 5.8884 4.96941 5.97269 4.92916C6.07739 4.87987 6.1296 4.81862 6.19085 4.67804C6.2451 4.55233 6.28739 4.48379 6.40085 4.34233C6.53793 4.17229 6.66918 4.0565 6.88034 3.91709C7.12068 3.75955 7.38836 3.64836 7.66959 3.58926C7.76904 3.56913 7.81542 3.56622 8.00121 3.56622C8.187 3.56622 8.23337 3.56913 8.33283 3.58955C8.73416 3.67063 9.13198 3.87771 9.4499 4.17142C9.51815 4.23471 9.68177 4.43771 9.73427 4.522C9.75439 4.55525 9.78969 4.62554 9.81156 4.67804C9.87281 4.81862 9.92531 4.87987 10.0297 4.92916C10.1111 4.96853 10.1966 4.97641 10.3231 4.95541C10.5051 4.92116 10.6921 4.92414 10.8729 4.96416C11.5405 5.0992 12.1212 5.64898 12.3788 6.38572C12.6031 7.03205 12.5395 7.70842 12.2058 8.22524C12.1495 8.31274 12.0932 8.38274 12.0119 8.46937C11.836 8.65749 11.836 8.89053 12.011 9.08361C12.2983 9.39831 12.4782 10.1721 12.424 10.8546C12.3878 11.3049 12.2723 11.708 12.1134 11.9364C12.0742 11.9903 12.0305 12.0407 11.9827 12.0872C11.9255 12.1434 11.8932 12.1846 11.869 12.233C11.838 12.296 11.836 12.3071 11.836 12.4036V12.5072L11.9223 12.6763C12.0673 12.9546 12.1446 13.1564 12.2128 13.4317C12.3607 14.02 12.3476 14.6051 12.1787 14.9376C12.1647 14.9659 12.1524 14.9918 12.1524 14.995C12.1524 14.9983 12.3447 15 12.5797 15H13.0061L13.0169 14.9568C13.0231 14.9335 13.0333 14.8985 13.0382 14.8784C13.0493 14.834 13.0712 14.7034 13.0896 14.578C13.1065 14.4511 13.1065 13.9847 13.0896 13.8441C13.0251 13.3334 12.9175 12.9283 12.7416 12.5454C12.7227 12.5022 12.7104 12.4649 12.7145 12.4628C12.7194 12.4599 12.7477 12.4197 12.7778 12.3744C12.9968 12.0428 13.1316 11.6257 13.2001 11.0748C13.2182 10.9231 13.2182 10.2707 13.2001 10.1248C13.1517 9.74889 13.0934 9.49369 12.9968 9.23528C12.9569 9.12794 12.8501 8.90074 12.8049 8.82724L12.7827 8.7902L12.8591 8.67645C13.0934 8.3247 13.2301 7.94058 13.2835 7.48646C13.3074 7.2893 13.2996 6.89147 13.2692 6.6943C13.1947 6.20334 13.0072 5.73638 12.7215 5.3302C12.5727 5.11816 12.3569 4.88599 12.1676 4.7352C12.1122 4.69087 12.0632 4.65062 12.0591 4.64683C12.0542 4.64275 12.0603 4.58733 12.0722 4.5252C12.1939 3.89084 12.1898 3.09985 12.062 2.48181C11.9515 1.94282 11.7505 1.51466 11.4912 1.26733C11.2842 1.07045 11.073 0.985871 10.8198 1.00191C10.2388 1.03633 9.77044 1.70482 9.58552 2.75802C9.55519 2.92806 9.52923 3.12697 9.52923 3.18122C9.52923 3.20222 9.52515 3.21943 9.52019 3.21943C9.51523 3.21943 9.47586 3.1993 9.43356 3.17422C8.98528 2.90881 8.48683 2.76706 8.0015 2.76706C7.51617 2.76706 7.01713 2.90881 6.56885 3.17422C6.52656 3.1993 6.48747 3.21943 6.48251 3.21943C6.47756 3.21943 6.47347 3.20222 6.47347 3.18122C6.47347 3.12493 6.44635 2.91989 6.41718 2.75831C6.24918 1.81215 5.86419 1.18595 5.35261 1.02816C5.28232 1.00716 5.08224 0.993162 5.01078 1.00395ZM5.1817 1.82236C5.32636 1.93698 5.48736 2.26452 5.57982 2.63143C5.59703 2.69793 5.61482 2.77435 5.62007 2.80235C5.62415 2.82947 5.63523 2.89072 5.64427 2.93797C5.68336 3.15089 5.70144 3.3813 5.70348 3.66188L5.70436 3.93809L5.63523 4.04075L5.56582 4.14429H5.40394C5.21495 4.14429 5.02682 4.1685 4.84687 4.21662L4.70833 4.25162C4.68937 4.25571 4.68616 4.24987 4.67508 4.16733C4.61587 3.71992 4.61879 3.22439 4.68412 2.81227C4.75645 2.3529 4.92532 1.93698 5.09041 1.81419C5.12949 1.78503 5.13649 1.78619 5.1817 1.82236ZM10.9132 1.81536C11.0129 1.88857 11.1223 2.08369 11.2037 2.33306C11.3676 2.83152 11.4137 3.51605 11.3273 4.16733C11.3163 4.24958 11.3133 4.25571 11.2944 4.25192C11.2821 4.249 11.22 4.23267 11.1555 4.21662C10.9738 4.16835 10.7865 4.14403 10.5985 4.14429H10.4369L10.3675 4.04075L10.2981 3.93809L10.2992 3.66159C10.3013 3.27164 10.3371 2.96714 10.4238 2.62852C10.5153 2.26452 10.6769 1.93669 10.8207 1.82236C10.8659 1.78619 10.8732 1.78503 10.9132 1.81507V1.81536Z" fill="#374151"/>
<path d="M7.84546 6.87427C7.62729 6.89556 7.56809 6.90343 7.46338 6.92473C7.29363 6.95973 7.06672 7.03847 6.90864 7.11547C6.35972 7.3838 5.98202 7.83122 5.86623 8.34921C5.8429 8.45129 5.83998 8.48571 5.83998 8.65837C5.83998 8.82929 5.8429 8.86662 5.86536 8.96404C6.01906 9.64069 6.64235 10.14 7.4485 10.2316C7.6235 10.2509 8.3792 10.2509 8.55391 10.2316C9.2014 10.1581 9.75848 9.80753 10.0087 9.31491C10.0749 9.18337 10.107 9.09791 10.1371 8.96404C10.1595 8.86662 10.1624 8.82929 10.1624 8.65866C10.1624 8.48571 10.1595 8.45158 10.1362 8.34892C9.96847 7.59701 9.23873 7.00493 8.34391 6.89235C8.22724 6.87835 7.92187 6.8661 7.84546 6.87427ZM8.22141 7.42114C8.5211 7.45381 8.80892 7.55641 9.06169 7.72067C9.19148 7.80701 9.37436 7.98813 9.45252 8.10684C9.54935 8.25354 9.60448 8.40317 9.62956 8.58516C9.64065 8.66858 9.63481 8.73187 9.60448 8.86662C9.55723 9.06787 9.41052 9.27787 9.21248 9.42457C9.08749 9.50872 8.95248 9.57691 8.81057 9.62757C8.58716 9.69874 8.44162 9.71215 7.921 9.70807C7.58121 9.70515 7.52084 9.70194 7.42342 9.68386C7.09063 9.62144 6.82726 9.48874 6.63622 9.28691C6.48164 9.12387 6.41106 8.97512 6.37285 8.73479C6.35593 8.62337 6.38802 8.43846 6.45335 8.28271C6.53268 8.09255 6.73772 7.8563 6.94072 7.72067C7.19041 7.55839 7.47435 7.45626 7.77021 7.4223C7.92035 7.41026 8.07121 7.40987 8.22141 7.42114Z" fill="#374151"/>
<path d="M7.61709 8.15496C7.54097 8.19609 7.48759 8.3008 7.50363 8.37809C7.52172 8.4615 7.59521 8.54608 7.70984 8.61521C7.77109 8.65254 7.77517 8.6575 7.77809 8.69483C7.78013 8.717 7.77225 8.78029 7.76088 8.83658C7.75065 8.87916 7.74363 8.92245 7.73988 8.96608C7.74075 9.00925 7.781 9.07983 7.82329 9.11395C7.86063 9.14399 7.86763 9.14516 7.97204 9.14808C8.06742 9.15099 8.08754 9.14895 8.12575 9.13087C8.22433 9.08275 8.24941 8.99437 8.21325 8.82462C8.18321 8.68258 8.18904 8.66071 8.26458 8.61754C8.34391 8.57088 8.4285 8.48979 8.45358 8.43438C8.5017 8.3288 8.45766 8.20921 8.35091 8.15409C8.31769 8.13956 8.28154 8.13297 8.24533 8.13484C8.17212 8.13484 8.12488 8.15205 8.03825 8.20717L7.98925 8.23838L7.95804 8.21942C7.83029 8.14388 7.80725 8.13484 7.72967 8.13601C7.67426 8.13601 7.64451 8.14096 7.61709 8.15496ZM5.17674 6.98802C4.99883 7.04402 4.86612 7.17468 4.79758 7.36077C4.76462 7.44914 4.74858 7.58885 4.76258 7.66409C4.79583 7.84434 4.94341 8.00826 5.11141 8.05317C5.32228 8.10859 5.48036 8.07242 5.62007 7.93359C5.70144 7.85426 5.74549 7.78484 5.78982 7.67226C5.8219 7.59293 5.82394 7.57893 5.82394 7.46635L5.82511 7.3456L5.78282 7.25927C5.75055 7.19263 5.70447 7.13361 5.64765 7.08614C5.59083 7.03867 5.52456 7.00383 5.45324 6.98394C5.37362 6.96352 5.24616 6.96469 5.17674 6.98773M10.5454 6.9851C10.4749 7.00535 10.4094 7.04022 10.3533 7.08746C10.2971 7.1347 10.2516 7.19324 10.2196 7.25927L10.1773 7.3456L10.1785 7.46635C10.1785 7.57893 10.1805 7.59293 10.2126 7.67226C10.2569 7.78484 10.301 7.85426 10.3823 7.93388C10.5223 8.07242 10.6798 8.10888 10.891 8.05347C11.0126 8.02138 11.1343 7.91872 11.1926 7.79914C11.2428 7.69764 11.255 7.62414 11.239 7.50864C11.2016 7.2441 11.0468 7.05219 10.8166 6.98481C10.7496 6.96469 10.6186 6.96469 10.5454 6.98481" fill="#374151"/>
</svg>
