<svg xmlns="http://www.w3.org/2000/svg" height="40" width="40" viewBox="0 0 40 40"><defs><clipPath id="f" clipPathUnits="userSpaceOnUse"><path fill="#ceeeab" d="M1.406 1.914S2.578 3.945 3.242 6.25s.977 3.984.977 3.984-.859 1.992-1.289 3.867-.898 3.594-.898 3.594.898 2.5 1.445 4.688.586 3.789.586 3.789-.625 1.602-1.172 3.789-.781 4.805-.781 4.805 1.445-.313 4.453.195 5.039.938 5.039.938 1.992-.43 3.75-.977 2.539-1.016 2.539-1.016.859.078 3.516.977 4.57 1.328 4.57 1.328 2.031-.43 4.063-.898 4.141-1.25 4.141-1.25-.117-.781.664-3.828 1.367-4.375 1.367-4.375-.078-.703-.586-3.086-1.563-4.649-1.563-4.649.273-1.641 1.055-3.711 1.601-4.18 1.601-4.18-.742-2.383-1.172-4.648-1.289-4.023-1.289-4.023-3.789 1.406-4.961 1.64-3.281.82-3.281.82-1.523-.664-3.438-1.328-4.648-.859-4.648-.859-.508.547-3.438 1.25-4.297.898-4.297.898-2.891-1.406-4.922-1.797-3.75-.313-3.867-.273"/></clipPath><clipPath id="g" clipPathUnits="userSpaceOnUse"><path fill="#ceeeab" d="M1.406 1.914S2.578 3.945 3.242 6.25s.977 3.984.977 3.984-.859 1.992-1.289 3.867-.898 3.594-.898 3.594.898 2.5 1.445 4.688.586 3.789.586 3.789-.625 1.602-1.172 3.789-.781 4.805-.781 4.805 1.445-.313 4.453.195 5.039.938 5.039.938 1.992-.43 3.75-.977 2.539-1.016 2.539-1.016.859.078 3.516.977 4.57 1.328 4.57 1.328 2.031-.43 4.063-.898 4.141-1.25 4.141-1.25-.117-.781.664-3.828 1.367-4.375 1.367-4.375-.078-.703-.586-3.086-1.563-4.649-1.563-4.649.273-1.641 1.055-3.711 1.601-4.18 1.601-4.18-.742-2.383-1.172-4.648-1.289-4.023-1.289-4.023-3.789 1.406-4.961 1.64-3.281.82-3.281.82-1.523-.664-3.438-1.328-4.648-.859-4.648-.859-.508.547-3.438 1.25-4.297.898-4.297.898-2.891-1.406-4.922-1.797-3.75-.313-3.867-.273"/></clipPath><clipPath id="d" clipPathUnits="userSpaceOnUse"><path fill="#ceeeab" d="M1.406 1.914S2.578 3.945 3.242 6.25s.977 3.984.977 3.984-.859 1.992-1.289 3.867-.898 3.594-.898 3.594.898 2.5 1.445 4.688.586 3.789.586 3.789-.625 1.602-1.172 3.789-.781 4.805-.781 4.805 1.445-.313 4.453.195 5.039.938 5.039.938 1.992-.43 3.75-.977 2.539-1.016 2.539-1.016.859.078 3.516.977 4.57 1.328 4.57 1.328 2.031-.43 4.063-.898 4.141-1.25 4.141-1.25-.117-.781.664-3.828 1.367-4.375 1.367-4.375-.078-.703-.586-3.086-1.563-4.649-1.563-4.649.273-1.641 1.055-3.711 1.601-4.18 1.601-4.18-.742-2.383-1.172-4.648-1.289-4.023-1.289-4.023-3.789 1.406-4.961 1.64-3.281.82-3.281.82-1.523-.664-3.438-1.328-4.648-.859-4.648-.859-.508.547-3.438 1.25-4.297.898-4.297.898-2.891-1.406-4.922-1.797-3.75-.313-3.867-.273"/></clipPath><clipPath id="j" clipPathUnits="userSpaceOnUse"><path fill="#ceeeab" d="M1.406 1.914S2.578 3.945 3.242 6.25s.977 3.984.977 3.984-.859 1.992-1.289 3.867-.898 3.594-.898 3.594.898 2.5 1.445 4.688.586 3.789.586 3.789-.625 1.602-1.172 3.789-.781 4.805-.781 4.805 1.445-.313 4.453.195 5.039.938 5.039.938 1.992-.43 3.75-.977 2.539-1.016 2.539-1.016.859.078 3.516.977 4.57 1.328 4.57 1.328 2.031-.43 4.063-.898 4.141-1.25 4.141-1.25-.117-.781.664-3.828 1.367-4.375 1.367-4.375-.078-.703-.586-3.086-1.563-4.649-1.563-4.649.273-1.641 1.055-3.711 1.601-4.18 1.601-4.18-.742-2.383-1.172-4.648-1.289-4.023-1.289-4.023-3.789 1.406-4.961 1.64-3.281.82-3.281.82-1.523-.664-3.438-1.328-4.648-.859-4.648-.859-.508.547-3.438 1.25-4.297.898-4.297.898-2.891-1.406-4.922-1.797-3.75-.313-3.867-.273"/></clipPath><clipPath id="k" clipPathUnits="userSpaceOnUse"><path fill="#ceeeab" d="M1.406 1.914S2.578 3.945 3.242 6.25s.977 3.984.977 3.984-.859 1.992-1.289 3.867-.898 3.594-.898 3.594.898 2.5 1.445 4.688.586 3.789.586 3.789-.625 1.602-1.172 3.789-.781 4.805-.781 4.805 1.445-.313 4.453.195 5.039.938 5.039.938 1.992-.43 3.75-.977 2.539-1.016 2.539-1.016.859.078 3.516.977 4.57 1.328 4.57 1.328 2.031-.43 4.063-.898 4.141-1.25 4.141-1.25-.117-.781.664-3.828 1.367-4.375 1.367-4.375-.078-.703-.586-3.086-1.563-4.649-1.563-4.649.273-1.641 1.055-3.711 1.601-4.18 1.601-4.18-.742-2.383-1.172-4.648-1.289-4.023-1.289-4.023-3.789 1.406-4.961 1.64-3.281.82-3.281.82-1.523-.664-3.438-1.328-4.648-.859-4.648-.859-.508.547-3.438 1.25-4.297.898-4.297.898-2.891-1.406-4.922-1.797-3.75-.313-3.867-.273"/></clipPath><clipPath id="C" clipPathUnits="userSpaceOnUse"><path fill="#ceeeab" d="M1.406 1.914S2.578 3.945 3.242 6.25s.977 3.984.977 3.984-.859 1.992-1.289 3.867-.898 3.594-.898 3.594.898 2.5 1.445 4.688.586 3.789.586 3.789-.625 1.602-1.172 3.789-.781 4.805-.781 4.805 1.445-.313 4.453.195 5.039.938 5.039.938 1.992-.43 3.75-.977 2.539-1.016 2.539-1.016.859.078 3.516.977 4.57 1.328 4.57 1.328 2.031-.43 4.063-.898 4.141-1.25 4.141-1.25-.117-.781.664-3.828 1.367-4.375 1.367-4.375-.078-.703-.586-3.086-1.563-4.649-1.563-4.649.273-1.641 1.055-3.711 1.601-4.18 1.601-4.18-.742-2.383-1.172-4.648-1.289-4.023-1.289-4.023-3.789 1.406-4.961 1.64-3.281.82-3.281.82-1.523-.664-3.438-1.328-4.648-.859-4.648-.859-.508.547-3.438 1.25-4.297.898-4.297.898-2.891-1.406-4.922-1.797-3.75-.313-3.867-.273"/></clipPath><clipPath id="i" clipPathUnits="userSpaceOnUse"><path d="M19.316 22.041c3.255 3.163 8.532 3.014 11.787-.333s3.255-8.624 0-11.787-8.532-3.014-11.787.333-3.255 8.624 0 11.787" fill="url(#a)"/></clipPath><clipPath id="D" clipPathUnits="userSpaceOnUse"><path opacity=".039" d="M1.406 3.528s1.172 1.936 1.836 4.188.977 3.905.977 3.905-.859 2.062-1.289 3.971-.899 3.666-.899 3.666.898 2.427 1.445 4.571.587 3.741.587 3.741-.625 1.652-1.172 3.884-.781 4.868-.781 4.868 1.445-.429 4.453-.165 5.039.53 5.039.53 1.992-.591 3.75-1.28 2.539-1.221 2.539-1.221.859.009 3.516.692c2.656.684 4.57.959 4.57.959s2.031-.594 4.063-1.227 4.141-1.585 4.141-1.585-.117-.772.664-3.882 1.367-4.486 1.367-4.486-.08-.696-.586-3.039c-.273-1.267-.352-.636-.352-.636s2.541-4.087 2.578-6.302c.039-2.347-1.133-5.69-1.133-5.69s-.742-2.323-1.172-4.554S34.258.517 34.258.517s-3.789 1.714-4.961 2.044-3.281 1.086-3.281 1.086-1.523-.541-3.438-1.05-4.648-.483-4.648-.483-.508.588-3.438 1.528-4.297 1.246-4.297 1.246-2.891-1.172-4.922-1.399-3.75-.009-3.867.039" fill="url(#e)"/></clipPath><radialGradient id="K" gradientUnits="userSpaceOnUse" cy="86" cx="128" gradientTransform="matrix(1.0213 0 0 -1.0213 -212.72 173.83)" r="47"><stop stop-color="#d0e9f2" stop-opacity="0" offset="0"/><stop stop-color="#d0e9f2" stop-opacity="0" offset=".839"/><stop stop-color="#d0e9f2" stop-opacity=".282" offset=".943"/><stop stop-color="#d0e9f2" offset="1"/></radialGradient><radialGradient id="Q" gradientUnits="userSpaceOnUse" cy="86" cx="128" gradientTransform="scale(1.4216 -1.4216)rotate(-45 -51.091 19.464)" r="47"><stop stop-color="#d0e9f2" stop-opacity="0" offset="0"/><stop stop-color="#d0e9f2" stop-opacity="0" offset=".839"/><stop stop-color="#d0e9f2" stop-opacity=".282" offset=".943"/><stop stop-color="#d0e9f2" offset="1"/></radialGradient><radialGradient id="Y" gradientUnits="userSpaceOnUse" cy="72.588" cx="159.61" gradientTransform="matrix(1.2125 0 0 .83915 -46.348 24.528)" r="38.417"><stop stop-color="#fff" offset="0"/><stop stop-color="#fff" stop-opacity=".93" offset=".5"/><stop stop-color="#fff" stop-opacity="0" offset="1"/></radialGradient><radialGradient id="X" gradientUnits="userSpaceOnUse" cx="159.61" cy="72.588" r="38.417" gradientTransform="matrix(1.2125 0 0 .83915 -45.92 25.814)"><stop stop-color="#fff" offset="0"/><stop stop-color="#fff" stop-opacity="0" offset="1"/></radialGradient><radialGradient id="a" gradientUnits="userSpaceOnUse" cy="86" cx="128" gradientTransform="matrix(.80254 .77986 .80254 -.82522 -10.402 73.423)" r="47"><stop stop-color="#d0e9f2" stop-opacity="0" offset="0"/><stop stop-color="#d0e9f2" stop-opacity="0" offset=".839"/><stop stop-color="#d0e9f2" stop-opacity=".282" offset=".943"/><stop stop-color="#d0e9f2" offset="1"/></radialGradient><filter id="E"><feGaussianBlur stdDeviation="4.287"/></filter><filter id="b"><feGaussianBlur stdDeviation="6.311"/></filter><filter id="c"><feGaussianBlur stdDeviation="4.457"/></filter></defs><path opacity=".7" d="M27.231 5.605c-2.75 0-5.498 1.037-7.612 3.11-.025.026-.052.047-.078.073-3.445 3.446-4.095 8.633-1.948 12.734l-.356.255a11.3 11.3 0 0 0 1.266 1.894l-2.081 2.084a3.3 3.3 0 0 0-.712-.214l-.444.444a1.5 1.5 0 0 0-.479-.136L4.766 35.869a1.3 1.3 0 0 0 .103.512l-.083.084-.171.17c.112.584.314 1.066.855 1.606s1.003.723 1.606.855l.171-.172.112-.111c.17.072.333.122.483.131l10.019-10.02a3 3 0 0 0-.161-.453l.469-.469a2.6 2.6 0 0 0-.205-.719l2.075-2.075c.597.494 1.233.914 1.895 1.266l.253-.356c4.102 2.147 9.287 1.497 12.734-1.948.027-.027.048-.053.073-.078 4.17-4.253 4.148-11.082-.073-15.303a10.84 10.84 0 0 0-7.691-3.184m-.078.513h.048a11 11 0 0 1 .894.059l.044.005.045.005.067.01q.211.025.42.059.145.025.288.054l.163.029q.167.037.336.078l.147.034.034.01q.221.059.444.127l.034.01q.223.071.444.151l.025.01a11 11 0 0 1 .908.386l.02.01q.219.104.434.22l.014.01q.217.117.43.244l.016.01q.212.128.419.269.128.088.255.181l.17.122q.006.002.009.005.207.156.406.322a11 11 0 0 1 .791.718q.38.38.712.786l.005.005q.167.2.323.405l.127.181q.088.121.17.244l.011.01q.138.208.267.42l.011.015a12 12 0 0 1 .244.43l.009.015q.116.215.22.435l.009.02q.106.218.2.439l.009.024q.095.22.177.444l.009.024q.082.221.152.444l.009.034q.07.221.128.444l.009.034q.018.073.034.147.042.168.078.337.015.08.028.161.03.143.055.288.033.21.058.42l.011.068.005.044.005.044a10 10 0 0 1 .058.894q.002.023 0 .048.005.246-.005.492-.008.22-.023.436l-.006.058a8 8 0 0 1-.044.43q-.029.227-.067.45l-.006.039-.009.058a9 9 0 0 1-.088.425l-.014.064a13 13 0 0 1-.108.414l-.083.273q-.04.133-.083.264-.07.2-.147.4-.014.038-.03.073l-.019.053a9 9 0 0 1-.363.787l-.039.072a9 9 0 0 1-.244.45l-.097.156q-.087.138-.177.273.002.003 0 .005-.115.176-.239.347-.109.148-.225.292c-.03.041-.056.083-.088.123l-.064.078-.078.092a9 9 0 0 1-.269.308 10 10 0 0 1-.292.313l-.073.078c-3.302 3.302-8.166 3.827-12.061 1.742l.02-.028a10.3 10.3 0 0 1-1.661-1.059 10 10 0 0 1-.248-.206q-.121-.1-.239-.205l-.044-.039a14 14 0 0 1-.377-.361 13 13 0 0 1-.361-.377q-.021-.022-.039-.044a9 9 0 0 1-.205-.239q-.105-.123-.206-.248a10.3 10.3 0 0 1-1.059-1.661l-.03.02c-2.083-3.895-1.558-8.76 1.744-12.061l.078-.073a11 11 0 0 1 .621-.562l.127-.107c.055-.043.112-.08.166-.122.098-.075.194-.153.294-.225q.174-.124.352-.239.136-.09.273-.176.104-.065.209-.127c.108-.062.214-.118.323-.176a10 10 0 0 1 .527-.264q.203-.093.405-.176c.025-.01.05-.015.073-.025q.227-.09.455-.171.131-.044.264-.083.136-.043.273-.083.208-.058.414-.107l.034-.005.195-.044q.16-.035.317-.063l.039-.005q.224-.04.45-.068a10 10 0 0 1 1.416-.078" transform="matrix(1 .06864 0 .8487 0 26.913)" filter="url(#b)" fill="#2d3335"/><path opacity=".5" d="M1.406 2.695s1.172 1.719 1.836 4.023.977 3.985.977 3.985-.859 1.992-1.289 3.867-.898 3.906-.898 3.906.898 2.5 1.445 4.688.586 3.477.586 3.477-.625 1.602-1.172 3.789-.781 4.805-.781 4.805 1.445-.313 4.453.195 5.039.938 5.039.938 1.992-.43 3.75-.977 2.539-1.016 2.539-1.016.859.078 3.516.977 4.57 1.328 4.57 1.328 2.031-.43 4.063-.898 4.141-1.25 4.141-1.25-.117-.781.664-3.828 1.367-4.375 1.367-4.375-.078-.391-.586-2.773-1.563-4.65-1.563-4.65.273-1.953 1.055-4.023 1.601-4.18 1.601-4.18-.742-2.383-1.172-4.648-1.289-3.711-1.289-3.711-3.789 1.406-4.961 1.64-3.281.82-3.281.82-1.523-.664-3.438-1.328-4.648-.859-4.648-.859-.508.547-3.438 1.25-4.297.898-4.297.898-2.891-1.406-4.922-1.797-3.75-.313-3.867-.273" transform="matrix(1 0 0 .84657 0 27.66)" filter="url(#c)" fill="url(#h)"/><path fill="#ceeeab" d="M1.406.352s1.172 2.031 1.836 4.336.977 3.984.977 3.984-.859 1.992-1.289 3.867-.898 3.594-.898 3.594.898 2.5 1.445 4.688.586 3.788.586 3.788-.625 1.602-1.172 3.789-.781 4.805-.781 4.805 1.445-.313 4.453.195 5.039.938 5.039.938 1.992-.43 3.75-.977 2.539-1.016 2.539-1.016.859.078 3.516.977 4.57 1.328 4.57 1.328 2.031-.43 4.063-.898 4.141-1.25 4.141-1.25-.117-.781.664-3.828 1.367-4.375 1.367-4.375-.078-.703-.586-3.086-1.563-4.648-1.563-4.648.273-1.641 1.055-3.711 1.601-4.18 1.601-4.18-.742-2.383-1.172-4.648S34.258 0 34.258 0s-3.789 1.406-4.961 1.641-3.281.82-3.281.82-1.523-.664-3.438-1.328S17.93.274 17.93.274s-.508.547-3.438 1.25-4.297.898-4.297.898S7.304 1.016 5.273.625 1.523.313 1.406.352"/><g transform="translate(0 -10)" clip-path="url(#d)"><path fill="#a6dd8b" d="m17.305.859-.664 1.094c-.117 1.406-.352 2.148-1.328 2.578s-1.914.547-1.719 1.172 2.031 1.445 2.227 2.031 1.289.273 1.719 1.094.313 2.383-.586 2.695-2.734.078-3.164 1.484-.742 1.641-1.406 1.992-1.133 1.641-.547 2.578 1.914-.195 2.344-1.016 1.132-1.366 1.132-1.366h3.711l9.219-.273.508-.586s.508.625.43 1.367-.586 2.305.039 2.695 3.047-.313 3.75-1.094-.742-4.414-1.641-4.609-2.891-.273-2.656-1.094 1.836.703 2.695.508 2.617-3.281 1.875-3.945-3.789-.82-4.023-1.25 3.281-1.25 3.477-1.719-.391-1.133-.977-1.328-2.189 2.539-3.282 2.461-3.125.898-2.695 1.797-.938 1.719-2.266 1.016-3.867-2.031-3.398-3.75 3.359-2.93 3.359-2.93zm-2.119 16.754c-.249.023-.698.733-.772 1.098-.078.391-.508 1.055-.547 1.914s.742 1.055 1.367 1.016.43-1.055.313-2.344c-.039 0-.078-1.602-.313-1.68a.1.1 0 0 0-.049-.005m14.488 8.072c-.991.045-1.036 1.166-1.158 1.386-.195.352.352 2.148.313 2.813s-.742.82-1.484 1.523.078 2.5 1.758 4.844l6.992.195-.156-5.469s.742-.664-3.242-3.789c-1.494-1.172-2.428-1.531-3.022-1.503M6.241 28.267c-.63-.017-1.294.892-1.514 1.186-.234.313-.977.781-2.656 1.484l-2.266 5.352 8.281.664s.273-1.719-.664-2.461-2.695-.898-2.852-2.07 1.445-1.563 2.148-2.227.313-1.758-.352-1.914a.6.6 0 0 0-.127-.014"/></g><path fill="#aac3e7" d="M24.77 11.772c-.744-.002-1.411.151-1.802.493-1.25 1.094-5.469.117-7.578 1.094s-2.07 5.938-2.305 6.953-2.734 3.242-3.125 3.672-2.07 1.133-3.047 1.328-1.992 1.133-2.422 1.719c-.316.431-1.157 1.008-1.582 1.284l-.02.083q-.03.125-.059.255c.778-.252 1.747-1.278 2.598-2.13.977-.977 3.125-1.211 4.336-1.797s2.228-3.085 4.142-3.71 3.32 1.836 3.789 2.891.273 1.992.586 2.656 1.719 1.836 1.797 2.109-.781 1.016-.977 1.328-1.641 1.094-1.836 1.367c-.152.211-.3 1.058-.361 1.441l.175-.073c.077-.395.237-1.106.459-1.328.313-.313 1.758-.703 1.953-1.328s1.094-1.016 1.094-1.016.43.625 2.5 2.188c1.38 1.042 1.994 2.427 2.252 3.237.105.027.239.064.317.083-.191-.675-.756-2.537-1.397-3.242-.781-.859-2.891-1.68-3.555-3.438s-3.827-5.352-2.733-6.289 2.578-.625 4.453 1.172 7.227.898 9.023.586c1.555-.27 3.255 2.325 3.736 4.067.092-.327.175-.625.258-.898a4.8 4.8 0 0 1-.83-1.294c-.586-1.328-1.875-2.07-1.875-2.07s1.367-.781 2.305-1.211c.253-.116.47-.263.655-.416l-.069-.327-.014-.069c-.745.869-3.006 1.503-3.384 1.709-.43.234-2.852.469-5.586.703s-4.18-1.172-5.352-2.305-2.031-5.625-.469-5.938 3.125 2.148 4.688 2.656 3.359-2.461 3.086-4.219c-.188-1.208-2.188-1.973-3.823-1.978m-8.334 2.075c.198 0 .916.249 1.025.371.352.391.313 1.133 0 1.25s-1.992 1.25-1.641 2.227.273 2.813-.547 2.813-1.25 0-1.563-.391-.313-1.875 0-3.086.547-2.344 1.25-2.852c.483-.349 1.036-.333 1.475-.332m2.123 11.421c.031.002.298.548.737 1.098.469.586.508 1.289.508 1.289s-.664-.742-.938-1.25-.313-1.133-.313-1.133q.001-.006.005-.005"/><path opacity=".387" stroke-linejoin="round" d="M19.18 9.727c.977.078 1.914-.352 1.68-1.016s-1.953-1.133-2.07-.469.313 1.641.391 1.484m-2.188-2.422c-1.328-.859-1.328-1.133-1.094-1.25s1.602.781 1.992 1.25-.352.313-.898 0" stroke="#6d7f42" stroke-linecap="round" fill="none" stroke-width=".156"/><g clip-path="url(#f)" transform="translate(0 -10)" stroke="#6d7f42" fill="none"><path opacity=".387" stroke-linejoin="round" d="M2.461 23.633c5.156-.391 5.977-.547 5.664-1.602s-1.367-3.672-3.594-3.516S.976 17.46.976 17.46" stroke-linecap="round"/><path opacity=".387" d="M2.734 27.695c2.852-1.563 4.492-1.328 5.469-1.797s2.07-.898 2.461-1.484.898-1.797.898-2.813-.547-5.625.508-6.797 2.695-4.063 4.063-3.633 1.914 1.523 3.438 1.484 3.398-.624 3.788-1.913-2.461-2.5-2.5-3.594.859-2.227 3.164-2.656 3.672-1.797 3.672-1.797"/><path opacity=".387" stroke-linejoin="round" d="M2.266 25.156c2.383-.234 3.477.547 4.922.273s2.07-.469 2.773-.898.938-.586.977-1.016.156-1.953-.469-3.438-1.953-4.921-1.289-6.054.82-3.359 2.461-3.828 3.281-.976 4.336-.195 1.992 2.227 3.125 2.266 1.836-.235 2.265-.703.703-1.602.273-2.148-2.422-.859-2.695-1.484-1.68-2.656-.039-4.18 5.664-1.289 5.664-1.289" stroke-linecap="round"/><path opacity=".387" stroke-linejoin="round" d="M3.32 24.844c2.148.156 3.359.664 5.234-.078s2.109-.82 2.148-1.367-.039-2.461-.469-3.125-2.031-2.148-2.461-3.789.039-6.406 1.328-7.539 5-1.133 5.859-1.641.82-2.617 2.031-3.828 4.219-1.914 4.219-1.914m8.479 1.328c1.836.781 6.094 1.523 7.383 6.289M1.523 33.438c2.969-1.953 5.625-.195 7.656-.625s5.977-5.82 7.188-5.781.859-1.836 1.328-2.07.859.938 1.836 1.25 3.828-.43 3.672-.898-1.094-1.211-.859-1.328 1.328.781 1.992.547 6.836-.156 7.578-2.109 3.359-2.109 3.359-2.109M12.109 36.484c2.109-1.797 3.633-3.906 4.453-4.219s1.992-.586 2.461-1.25.391-1.68.82-1.875.586.898 1.367.938 5.742-.781 6.68-1.836 5.039-1.953 5.078-2.266-.156-.742.039-.859 3.867-.938 3.867-.938M26.367 36.875c1.406-2.148 3.203-6.406 4.609-6.563s1.602-.391 1.953-.664 2.656.352 2.656.352" stroke-linecap="round"/></g><g clip-path="url(#g)" transform="translate(0 -10)" stroke="#d38484" stroke-linecap="round" stroke-width="2" fill="none"><path d="M9.023 3.125 7.695 7.539l2.813.977 1.211 5.664-3.281 3.476 1.406 1.641-1.875 1.797.078.703 3.164 3.828 2.188-1.055 3.203 2.891-1.641 4.414 1.602 1.328-.43 2.031"/><path d="m16.523 33.164 1.953-4.336 1.719-1.094 4.297 2.461 3.203-.586-.039-2.461-1.602-.938 1.992-4.102.898-.586 6.055-1.563"/></g><g opacity=".504"><path d="M34.258 51.563s-3.789 1.406-4.961 1.641-3.281.82-3.281.82-1.523-.664-3.438-1.328-4.648-.859-4.648-.859-.508.547-3.438 1.25-4.297.898-4.297.898-2.891-1.406-4.922-1.797-3.75-.313-3.867-.273c0 0 1.172 2.031 1.836 4.336s.977 3.983.977 3.983l8.042.801 7.652-.625 8.164 1.88c1.622-.69 8.142-.766 8.642-2.056 0 0-.742-2.383-1.172-4.648s-1.289-4.023-1.289-4.023" fill="#b1e479"/><path d="M4.219 60.234s-.859 1.992-1.289 3.867-.898 3.594-.898 3.594l7.964 2.558 8.394-2.459 8.164 2.739c2.556-.666 5.061-1.425 7.509-2.408 0 0 .273-1.641 1.055-3.711s1.601-4.18 1.601-4.18c-.5 1.29-7.02 1.365-8.642 2.056l-8.164-1.88-7.495.625z" fill="#87d531"/><path d="M36.211 75.859a142 142 0 0 1-8.486 3.345l-8.164-2.895-7.847 1.406-7.651-1.543s-.625 1.602-1.172 3.789-.781 4.805-.781 4.805 1.445-.313 4.453.195 5.039.938 5.039.938 1.992-.43 3.75-.977 2.539-1.016 2.539-1.016.859.078 3.516.977 4.57 1.328 4.57 1.328 2.031-.43 4.063-.898 4.141-1.25 4.141-1.25-.117-.781.664-3.828 1.367-4.375 1.367-4.375" fill="#ceeeab"/><path d="M2.031 67.695s.898 2.5 1.445 4.688.587 3.789.587 3.789l7.651 1.544 7.847-1.406 8.164 2.895a142 142 0 0 0 8.486-3.345s-.078-.703-.586-3.086-1.562-4.649-1.562-4.649c-2.448.983-4.953 1.742-7.509 2.408l-8.164-2.739-8.394 2.459z" fill="#b9e787"/></g><g opacity=".522"><path d="M2.144 51.88c-.426-.001-.693.02-.737.034 0 0 1.172 2.031 1.836 4.336s.976 3.984.976 3.984-.859 1.992-1.289 3.867-.898 3.594-.898 3.594.898 2.5 1.445 4.688.586 3.789.586 3.789-.625 1.602-1.172 3.789-.781 4.805-.781 4.805 1.445-.313 4.453.195 5.039.938 5.039.938l.234-8.32-1.914-7.266 2.5-9.336c-.347-2.419-1.417-4.695-2.227-6.992 0 0-2.891-1.406-4.922-1.797a17.4 17.4 0 0 0-3.13-.308" fill="#83d32b"/><path d="M17.93 51.836s-.508.547-3.438 1.25-4.297.898-4.297.898c.81 2.298 1.88 4.573 2.227 6.992l-2.5 9.337 1.914 7.266-.234 8.32s1.992-.43 3.75-.977 2.539-1.016 2.539-1.016l1.758-7.578-1.289-8.477 1.836-7.031c-.537-1.52-1.259-8.895-2.266-8.984" fill="#b1e479"/><path d="M34.258 51.563s-3.789 1.406-4.961 1.641-3.281.82-3.281.82c.769-.212 1.787 7.093 2.227 8.164l-1.758 8.32 1.484 8.594-1.992 7.109s2.031-.43 4.063-.898 4.141-1.25 4.141-1.25-.117-.781.664-3.828 1.367-4.375 1.367-4.375-.078-.703-.586-3.086-1.563-4.649-1.563-4.649.273-1.641 1.055-3.711 1.601-4.18 1.601-4.18-.742-2.383-1.172-4.648-1.289-4.023-1.289-4.023" fill="#a4df62"/><path d="M17.93 51.836c1.006.089 1.728 7.465 2.266 8.984l-1.836 7.031 1.289 8.32-1.758 7.735s.859.078 3.516.977 4.57 1.328 4.57 1.328l1.992-7.109-1.484-8.594 1.757-8.32c-.439-1.072-1.458-8.376-2.227-8.164 0 0-1.523-.664-3.438-1.328s-4.648-.859-4.648-.859" fill="#ceeeab"/></g><path opacity=".039" d="M1.406-29.648s1.172 2.031 1.836 4.336.977 3.984.977 3.984-.859 1.992-1.289 3.867-.898 3.594-.898 3.594.898 2.5 1.445 4.688.586 3.788.586 3.788-.625 1.602-1.172 3.789-.781 4.805-.781 4.805 1.445-.313 4.453.195 5.039.938 5.039.938 1.992-.43 3.75-.977 2.539-1.015 2.539-1.015.859.078 3.516.977 4.57 1.328 4.57 1.328 2.031-.43 4.063-.898 4.141-1.25 4.141-1.25-.118-.782.663-3.829 1.367-4.375 1.367-4.375-.078-.703-.586-3.086-1.562-4.649-1.562-4.649.273-1.641 1.055-3.711 1.601-4.179 1.601-4.179-.742-2.383-1.172-4.648-1.289-4.023-1.289-4.023-3.789 1.406-4.961 1.641-3.281.82-3.281.82-1.523-.664-3.438-1.328-4.648-.859-4.648-.859-.508.547-3.438 1.25-4.297.898-4.297.898-2.891-1.406-4.922-1.797-3.75-.313-3.867-.273" fill="url(#l)" transform="translate(0 192)"/><g opacity=".27"><path fill="url(#m)" d="M34.258-28.438s-3.789 1.406-4.961 1.641-3.281.82-3.281.82c.769-.213 1.787 7.092 2.227 8.164l-.009.044c1.845-.636 8.002-.745 8.486-1.997 0 0-.742-2.383-1.172-4.648s-1.29-4.024-1.29-4.024" transform="translate(0 182)"/><path fill="url(#n)" d="M4.219-19.766s-.859 1.992-1.289 3.867-.898 3.594-.898 3.594l7.91 2.544 2.466-9.205z" transform="translate(0 182)"/><path fill="url(#o)" d="M4.063-3.828S3.438-2.227 2.891-.039 2.11 4.766 2.11 4.766s.023-.007.068-.015c.318-.053 1.753-.234 4.385.21 3.008.508 5.039.938 5.039.938l.23-8.203-.117.02z" transform="translate(0 182)"/><path fill="url(#p)" d="M17.93-28.164s-.508.547-3.438 1.25-4.297.898-4.297.898c.81 2.297 1.88 4.573 2.227 6.992l-.015.048 7.505-.616.175.041c-.525-2.083-1.217-8.531-2.158-8.614" transform="translate(0 182)"/><path fill="url(#q)" d="M18.373-12.202 9.995-9.746l-.054-.015-.019.073 1.914 7.266-.005.117 7.73-1.387.083.029.005-.01-1.289-8.477z" transform="translate(0 182)"/><path fill="url(#r)" d="M20.087-19.55c.037.144.073.272.108.37l-1.822 6.978.016-.005 8.095 2.715 1.748-8.277a2 2 0 0 0-.156.059z" transform="translate(0 182)"/><path fill="url(#s)" d="m19.614-3.672-1.723 7.578s.859.078 3.516.977q.497.17.956.317.463.145.88.269c1.659.5 2.734.742 2.734.742l1.988-7.095q-.12.043-.239.088z" transform="translate(0 182)"/><path fill="url(#t)" d="M34.063-11.875c-2.448.983-4.953 1.742-7.509 2.407l-.069-.024 1.484 8.594-.005.015a142 142 0 0 0 8.247-3.257s-.078-.703-.586-3.086-1.562-4.649-1.562-4.649" transform="translate(0 182)"/></g><g opacity=".043"><path fill="url(#u)" d="M2.144-28.12c-.173 0-.308.005-.425.009-.07.003-.134.006-.181.011q-.008-.002-.015 0a1 1 0 0 0-.117.014s1.172 2.031 1.836 4.336.977 3.984.977 3.984l8.042.8.146-.009.015-.048c-.347-2.419-1.417-4.695-2.227-6.992 0 0-2.891-1.406-4.922-1.797a15 15 0 0 0-.469-.083l-.273-.044q-.054-.007-.107-.016a16 16 0 0 0-.596-.072c-.115-.013-.218-.02-.327-.03l-.313-.025a10 10 0 0 0-.435-.023 13 13 0 0 0-.61-.016" transform="translate(0 182)"/><path fill="url(#v)" d="M2.031-12.305s.898 2.5 1.445 4.688.587 3.789.587 3.789l7.651 1.543.117-.02.005-.117-1.914-7.266.02-.073z" transform="translate(0 182)"/><path fill="url(#w)" d="m19.913-19.591-7.495.625h-.01L9.941-9.761l.054.015 8.378-2.456 1.822-6.978a6 6 0 0 1-.108-.37z" transform="translate(0 182)"/><path fill="url(#x)" d="m19.561-3.691-7.73 1.386-.23 8.203s1.993-.429 3.751-.976 2.539-1.016 2.539-1.016l1.753-7.568z" transform="translate(0 182)"/><path fill="url(#y)" d="M17.93-28.164c.941.083 1.633 6.531 2.158 8.614l7.989 1.841q.071-.031.156-.059l.009-.044c-.439-1.072-1.458-8.377-2.227-8.164l-.269-.112a56 56 0 0 0-3.169-1.216c-1.914-.664-4.648-.859-4.648-.859" transform="translate(0 182)"/><path fill="url(#z)" d="m18.389-12.207-.016.005-.014.054 1.289 8.32-.034.156 8.111 2.876q.12-.043.239-.088l.005-.015-1.484-8.594z" transform="translate(0 182)"/><path fill="url(#A)" d="M36.211-4.141a142 142 0 0 1-8.247 3.257l-1.987 7.095s2.031-.43 4.063-.898 4.141-1.25 4.141-1.25-.118-.782.663-3.829 1.367-4.375 1.367-4.375" transform="translate(0 182)"/><path fill="url(#B)" d="M36.719-19.766c-.484 1.252-6.641 1.361-8.486 1.997l-1.749 8.277.069.024c2.556-.665 5.061-1.425 7.51-2.407 0 0 .273-1.641 1.055-3.711s1.601-4.18 1.601-4.18" transform="translate(0 182)"/></g><g clip-path="url(#i)" transform="matrix(1.2525 .0354 0 1.2525 -27.809 -48.344)"><path fill="#ceeeab" d="M1.406 1.914S2.578 3.945 3.242 6.25s.977 3.984.977 3.984-.859 1.992-1.289 3.867-.898 3.594-.898 3.594.898 2.5 1.445 4.688.586 3.789.586 3.789-.625 1.602-1.172 3.789-.781 4.805-.781 4.805 1.445-.313 4.453.195 5.039.938 5.039.938 1.992-.43 3.75-.977 2.539-1.016 2.539-1.016.859.078 3.516.977 4.57 1.328 4.57 1.328 2.031-.43 4.063-.898 4.141-1.25 4.141-1.25-.117-.781.664-3.828 1.367-4.375 1.367-4.375-.078-.703-.586-3.086-1.563-4.649-1.563-4.649.273-1.641 1.055-3.711 1.601-4.18 1.601-4.18-.742-2.383-1.172-4.648-1.289-4.023-1.289-4.023-3.789 1.406-4.961 1.64-3.281.82-3.281.82-1.523-.664-3.438-1.328-4.648-.859-4.648-.859-.508.547-3.438 1.25-4.297.898-4.297.898-2.891-1.406-4.922-1.797-3.75-.313-3.867-.273"/><g clip-path="url(#j)"><path fill="#a6dd8b" d="m17.305.859-.664 1.094c-.117 1.406-.352 2.148-1.328 2.578s-1.914.547-1.719 1.172 2.031 1.445 2.227 2.031 1.289.273 1.719 1.094.313 2.383-.586 2.695-2.734.078-3.164 1.484-.742 1.641-1.406 1.992-1.133 1.641-.547 2.578 1.914-.195 2.344-1.016 1.132-1.366 1.132-1.366h3.711l9.219-.273.508-.586s.508.625.43 1.367-.586 2.305.039 2.695 3.047-.313 3.75-1.094-.742-4.414-1.641-4.609-2.891-.273-2.656-1.094 1.836.703 2.695.508 2.617-3.281 1.875-3.945-3.789-.82-4.023-1.25 3.281-1.25 3.477-1.719-.391-1.133-.977-1.328-2.189 2.539-3.282 2.461-3.125.898-2.695 1.797-.938 1.719-2.266 1.016-3.867-2.031-3.398-3.75 3.359-2.93 3.359-2.93zm-2.119 16.754c-.249.023-.698.733-.772 1.098-.078.391-.508 1.055-.547 1.914s.742 1.055 1.367 1.016.43-1.055.313-2.344c-.039 0-.078-1.602-.313-1.68a.1.1 0 0 0-.049-.005m14.488 8.072c-.991.045-1.036 1.166-1.158 1.386-.195.352.352 2.148.313 2.813s-.742.82-1.484 1.523.078 2.5 1.758 4.844l6.992.195-.156-5.469s.742-.664-3.242-3.789c-1.494-1.172-2.428-1.531-3.022-1.503M6.241 28.267c-.63-.017-1.294.892-1.514 1.186-.234.313-.977.781-2.656 1.484l-2.266 5.352 8.281.664s.273-1.719-.664-2.461-2.695-.898-2.852-2.07 1.445-1.563 2.148-2.227.313-1.758-.352-1.914a.6.6 0 0 0-.127-.014"/></g><path fill="#aac3e7" d="M24.77 13.335c-.744-.002-1.411.151-1.802.493-1.25 1.094-5.469.117-7.578 1.094s-2.07 5.938-2.305 6.953-2.734 3.242-3.125 3.672-2.07 1.133-3.047 1.328-1.992 1.133-2.422 1.719c-.316.431-1.157 1.008-1.582 1.284l-.02.083q-.03.125-.059.255c.778-.252 1.747-1.278 2.598-2.13.977-.977 3.125-1.211 4.336-1.797s2.228-3.086 4.142-3.711 3.32 1.836 3.789 2.891.273 1.992.586 2.656 1.719 1.836 1.797 2.109-.781 1.016-.977 1.328-1.641 1.094-1.836 1.367c-.152.211-.3 1.058-.361 1.441l.175-.073c.077-.395.237-1.106.459-1.328.313-.313 1.758-.703 1.953-1.328s1.094-1.016 1.094-1.016.43.625 2.5 2.188c1.38 1.042 1.994 2.427 2.252 3.237.105.027.239.064.317.083-.191-.675-.756-2.537-1.397-3.242-.781-.859-2.891-1.68-3.555-3.438s-3.827-5.351-2.733-6.289 2.578-.625 4.453 1.172 7.227.898 9.023.586c1.555-.27 3.255 2.325 3.736 4.067.092-.327.175-.625.258-.898a4.8 4.8 0 0 1-.83-1.294c-.586-1.328-1.875-2.07-1.875-2.07s1.367-.781 2.305-1.211c.253-.116.47-.263.655-.416l-.069-.327-.014-.069c-.745.869-3.006 1.503-3.384 1.709-.43.234-2.852.469-5.586.703s-4.18-1.172-5.352-2.305-2.031-5.625-.469-5.938 3.125 2.148 4.688 2.656 3.359-2.461 3.086-4.219c-.188-1.208-2.188-1.973-3.823-1.978m-8.334 2.075c.198 0 .916.249 1.025.371.352.391.313 1.133 0 1.25s-1.992 1.25-1.641 2.227.273 2.813-.547 2.813-1.25 0-1.563-.391-.313-1.875 0-3.086.547-2.344 1.25-2.852c.483-.349 1.036-.333 1.475-.332m2.123 11.421c.031.002.298.548.737 1.098.469.586.508 1.289.508 1.289s-.664-.742-.938-1.25-.313-1.133-.313-1.133q.001-.006.005-.005"/><path opacity=".387" stroke-linejoin="round" d="M19.18 11.289c.977.078 1.914-.352 1.68-1.016s-1.953-1.133-2.07-.469.313 1.641.391 1.484m-2.188-2.422c-1.328-.859-1.328-1.133-1.094-1.25s1.602.781 1.992 1.25-.352.313-.898 0" stroke="#6d7f42" stroke-linecap="round" fill="none" stroke-width=".156"/><g stroke="#6d7f42" fill="none" clip-path="url(#k)"><path opacity=".387" stroke-linejoin="round" d="M2.461 23.633c5.156-.391 5.977-.547 5.664-1.602s-1.367-3.672-3.594-3.516S.976 17.46.976 17.46" stroke-linecap="round"/><path opacity=".387" d="M2.734 27.695c2.852-1.563 4.492-1.328 5.469-1.797s2.07-.898 2.461-1.484.898-1.797.898-2.813-.547-5.625.508-6.797 2.695-4.063 4.063-3.633 1.914 1.523 3.438 1.484 3.398-.624 3.788-1.913-2.461-2.5-2.5-3.594.859-2.227 3.164-2.656 3.672-1.797 3.672-1.797"/><path opacity=".387" stroke-linejoin="round" d="M2.266 25.156c2.383-.234 3.477.547 4.922.273s2.07-.469 2.773-.898.938-.586.977-1.016.156-1.953-.469-3.438-1.953-4.921-1.289-6.054.82-3.359 2.461-3.828 3.281-.976 4.336-.195 1.992 2.227 3.125 2.266 1.836-.235 2.265-.703.703-1.602.273-2.148-2.422-.859-2.695-1.484-1.68-2.656-.039-4.18 5.664-1.289 5.664-1.289" stroke-linecap="round"/><path opacity=".387" stroke-linejoin="round" d="M3.32 24.844c2.148.156 3.359.664 5.234-.078s2.109-.82 2.148-1.367-.039-2.461-.469-3.125-2.031-2.148-2.461-3.789.039-6.406 1.328-7.539 5-1.133 5.859-1.641.82-2.617 2.031-3.828 4.219-1.914 4.219-1.914m8.479 1.328c1.836.781 6.094 1.523 7.383 6.289M1.523 33.438c2.969-1.953 5.625-.195 7.656-.625s5.977-5.82 7.188-5.781.859-1.836 1.328-2.07.859.938 1.836 1.25 3.828-.43 3.672-.898-1.094-1.211-.859-1.328 1.328.781 1.992.547 6.836-.156 7.578-2.109 3.359-2.109 3.359-2.109M12.109 36.484c2.109-1.797 3.633-3.906 4.453-4.219s1.992-.586 2.461-1.25.391-1.68.82-1.875.586.898 1.367.938 5.742-.781 6.68-1.836 5.039-1.953 5.078-2.266-.156-.742.039-.859 3.867-.938 3.867-.938M26.367 36.875c1.406-2.148 3.203-6.406 4.609-6.563s1.602-.391 1.953-.664 2.656.352 2.656.352" stroke-linecap="round"/></g><g clip-path="url(#C)" stroke="#d38484" stroke-linecap="round" stroke-width="2" fill="none"><path d="M9.023 3.125 7.695 7.539l2.813.977 1.211 5.664-3.281 3.476 1.406 1.641-1.875 1.797.078.703 3.164 3.828 2.188-1.055 3.203 2.891-1.641 4.414 1.602 1.328-.43 2.031"/><path d="m16.523 33.164 1.953-4.336 1.719-1.094 4.297 2.461 3.203-.586-.039-2.461-1.602-.938 1.992-4.102.898-.586 6.055-1.563"/></g><path opacity=".039" d="M1.406 1.914S2.578 3.945 3.242 6.25s.977 3.984.977 3.984-.859 1.992-1.289 3.867-.898 3.594-.898 3.594.898 2.5 1.445 4.688.586 3.789.586 3.789-.625 1.602-1.172 3.789-.781 4.805-.781 4.805 1.445-.313 4.453.195 5.039.938 5.039.938 1.992-.43 3.75-.977 2.539-1.016 2.539-1.016.859.078 3.516.977 4.57 1.328 4.57 1.328 2.031-.43 4.063-.898 4.141-1.25 4.141-1.25-.117-.781.664-3.828 1.367-4.375 1.367-4.375-.078-.703-.586-3.086-1.563-4.649-1.563-4.649.273-1.641 1.055-3.711 1.601-4.18 1.601-4.18-.742-2.383-1.172-4.648-1.289-4.023-1.289-4.023-3.789 1.406-4.961 1.64-3.281.82-3.281.82-1.523-.664-3.438-1.328-4.648-.859-4.648-.859-.508.547-3.438 1.25-4.297.898-4.297.898-2.891-1.406-4.922-1.797-3.75-.313-3.867-.273" fill="url(#G)"/><g opacity=".27"><path fill="url(#m)" d="M34.258-28.438s-3.789 1.406-4.961 1.641-3.281.82-3.281.82c.769-.213 1.787 7.092 2.227 8.164l-.009.044c1.845-.636 8.002-.745 8.486-1.997 0 0-.742-2.383-1.172-4.648s-1.29-4.024-1.29-4.024" transform="translate(0 192)"/><path fill="url(#n)" d="M4.219-19.766s-.859 1.992-1.289 3.867-.898 3.594-.898 3.594l7.91 2.544 2.466-9.205z" transform="translate(0 192)"/><path fill="url(#o)" d="M4.063-3.828S3.438-2.227 2.891-.039 2.11 4.766 2.11 4.766s.023-.007.068-.015c.318-.053 1.753-.234 4.385.21 3.008.508 5.039.938 5.039.938l.23-8.203-.117.02z" transform="translate(0 192)"/><path fill="url(#p)" d="M17.93-28.164s-.508.547-3.438 1.25-4.297.898-4.297.898c.81 2.297 1.88 4.573 2.227 6.992l-.015.048 7.505-.616.175.041c-.525-2.083-1.217-8.531-2.158-8.614" transform="translate(0 192)"/><path fill="url(#q)" d="M18.373-12.202 9.995-9.746l-.054-.015-.019.073 1.914 7.266-.005.117 7.73-1.387.083.029.005-.01-1.289-8.477z" transform="translate(0 192)"/><path fill="url(#r)" d="M20.087-19.55c.037.144.073.272.108.37l-1.822 6.978.016-.005 8.095 2.715 1.748-8.277a2 2 0 0 0-.156.059z" transform="translate(0 192)"/><path fill="url(#s)" d="m19.614-3.672-1.723 7.578s.859.078 3.516.977q.497.17.956.317.463.145.88.269c1.659.5 2.734.742 2.734.742l1.988-7.095q-.12.043-.239.088z" transform="translate(0 192)"/><path fill="url(#t)" d="M34.063-11.875c-2.448.983-4.953 1.742-7.509 2.407l-.069-.024 1.484 8.594-.005.015a142 142 0 0 0 8.247-3.257s-.078-.703-.586-3.086-1.562-4.649-1.562-4.649" transform="translate(0 192)"/></g><g opacity=".043"><path fill="url(#u)" d="M2.144-28.12c-.173 0-.308.005-.425.009-.07.003-.134.006-.181.011q-.008-.002-.015 0a1 1 0 0 0-.117.014s1.172 2.031 1.836 4.336.977 3.984.977 3.984l8.042.8.146-.009.015-.048c-.347-2.419-1.417-4.695-2.227-6.992 0 0-2.891-1.406-4.922-1.797a15 15 0 0 0-.469-.083l-.273-.044q-.054-.007-.107-.016a16 16 0 0 0-.596-.072c-.115-.013-.218-.02-.327-.03l-.313-.025a10 10 0 0 0-.435-.023 13 13 0 0 0-.61-.016" transform="translate(0 192)"/><path fill="url(#v)" d="M2.031-12.305s.898 2.5 1.445 4.688.587 3.789.587 3.789l7.651 1.543.117-.02.005-.117-1.914-7.266.02-.073z" transform="translate(0 192)"/><path fill="url(#w)" d="m19.913-19.591-7.495.625h-.01L9.941-9.761l.054.015 8.378-2.456 1.822-6.978a6 6 0 0 1-.108-.37z" transform="translate(0 192)"/><path fill="url(#x)" d="m19.561-3.691-7.73 1.386-.23 8.203s1.993-.429 3.751-.976 2.539-1.016 2.539-1.016l1.753-7.568z" transform="translate(0 192)"/><path fill="url(#y)" d="M17.93-28.164c.941.083 1.633 6.531 2.158 8.614l7.989 1.841q.071-.031.156-.059l.009-.044c-.439-1.072-1.458-8.377-2.227-8.164l-.269-.112a56 56 0 0 0-3.169-1.216c-1.914-.664-4.648-.859-4.648-.859" transform="translate(0 192)"/><path fill="url(#z)" d="m18.389-12.207-.016.005-.014.054 1.289 8.32-.034.156 8.111 2.876q.12-.043.239-.088l.005-.015-1.484-8.594z" transform="translate(0 192)"/><path fill="url(#A)" d="M36.211-4.141a142 142 0 0 1-8.247 3.257l-1.987 7.095s2.031-.43 4.063-.898 4.141-1.25 4.141-1.25-.118-.782.663-3.829 1.367-4.375 1.367-4.375" transform="translate(0 192)"/><path fill="url(#B)" d="M36.719-19.766c-.484 1.252-6.641 1.361-8.486 1.997l-1.749 8.277.069.024c2.556-.665 5.061-1.425 7.51-2.407 0 0 .273-1.641 1.055-3.711s1.601-4.18 1.601-4.18" transform="translate(0 192)"/></g></g><path d="M27.231 5.605c-2.75 0-5.498 1.037-7.612 3.11-.025.026-.052.047-.078.073-3.445 3.446-4.095 8.633-1.948 12.734l-.356.255a11.3 11.3 0 0 0 1.266 1.894l-2.081 2.084a3.3 3.3 0 0 0-.712-.214l-.444.444a1.5 1.5 0 0 0-.479-.136L4.766 35.869a1.3 1.3 0 0 0 .103.512l-.083.084-.171.17c.112.584.314 1.066.855 1.606s1.003.723 1.606.855l.171-.172.112-.111c.17.072.333.122.483.131l10.019-10.02a3 3 0 0 0-.161-.453l.469-.469a2.6 2.6 0 0 0-.205-.719l2.075-2.075c.597.494 1.233.914 1.895 1.266l.253-.356c4.102 2.147 9.287 1.497 12.734-1.948.027-.027.048-.053.073-.078 4.17-4.253 4.148-11.082-.073-15.303a10.84 10.84 0 0 0-7.691-3.184m-.078.513h.048a11 11 0 0 1 .894.059l.044.005.045.005.067.01q.211.025.42.059.145.025.288.054l.163.029q.167.037.336.078l.147.034.034.01q.221.059.444.127l.034.01q.223.071.444.151l.025.01a11 11 0 0 1 .908.386l.02.01q.219.104.434.22l.014.01q.217.117.43.244l.016.01q.212.128.419.269.128.088.255.181l.17.122q.006.002.009.005.207.156.406.322a11 11 0 0 1 .791.718q.38.38.712.786l.005.005q.167.2.323.405l.127.181q.088.121.17.244l.011.01q.138.208.267.42l.011.015a12 12 0 0 1 .244.43l.009.015q.116.215.22.435l.009.02q.106.218.2.439l.009.024q.095.22.177.444l.009.024q.082.221.152.444l.009.034q.07.221.128.444l.009.034q.018.073.034.147.042.168.078.337.015.08.028.161.03.143.055.288.033.21.058.42l.011.068.005.044.005.044a10 10 0 0 1 .058.894q.002.023 0 .048.005.246-.005.492-.008.22-.023.436l-.006.058a8 8 0 0 1-.044.43q-.029.227-.067.45l-.006.039-.009.058a9 9 0 0 1-.088.425l-.014.064a13 13 0 0 1-.108.414l-.083.273q-.04.133-.083.264-.07.2-.147.4-.014.038-.03.073l-.019.053a9 9 0 0 1-.363.787l-.039.072a9 9 0 0 1-.244.45l-.097.156q-.087.138-.177.273.002.003 0 .005-.115.176-.239.347-.109.148-.225.292c-.03.041-.056.083-.088.123l-.064.078-.078.092a9 9 0 0 1-.269.308 10 10 0 0 1-.292.313l-.073.078c-3.302 3.302-8.166 3.827-12.061 1.742l.02-.028a10.3 10.3 0 0 1-1.661-1.059 10 10 0 0 1-.248-.206q-.121-.1-.239-.205l-.044-.039a14 14 0 0 1-.377-.361 13 13 0 0 1-.361-.377q-.021-.022-.039-.044a9 9 0 0 1-.205-.239q-.105-.123-.206-.248a10.3 10.3 0 0 1-1.059-1.661l-.03.02c-2.083-3.895-1.558-8.76 1.744-12.061l.078-.073a11 11 0 0 1 .621-.562l.127-.107c.055-.043.112-.08.166-.122.098-.075.194-.153.294-.225q.174-.124.352-.239.136-.09.273-.176.104-.065.209-.127c.108-.062.214-.118.323-.176a10 10 0 0 1 .527-.264q.203-.093.405-.176c.025-.01.05-.015.073-.025q.227-.09.455-.171.131-.044.264-.083.136-.043.273-.083.208-.058.414-.107l.034-.005.195-.044q.16-.035.317-.063l.039-.005q.224-.04.45-.068a10 10 0 0 1 1.416-.078" clip-path="url(#D)" transform="matrix(1 .08088 0 1 0 -21.056)" filter="url(#E)" fill="#2d3335"/><path d="m7.502 35.541-.751.711c-.782-.83-1.6-1.672-2.356-2.52l.702-.636c1.067 1.02 1.386 1.333 2.406 2.445" fill="url(#J)"/><path d="M-14.922 35.156a8.125 8.125 0 1 1 0 16.25 8.125 8.125 0 0 1 0-16.25" fill-opacity=".476" fill="#d0e9f2"/><path d="M-12.813 21.25a7.814 7.814 0 1 1 .001-15.627 7.814 7.814 0 0 1-.001 15.627m0-.469c4.142 0 7.5-3.202 7.5-7.344s-3.358-7.344-7.5-7.344-7.5 3.202-7.5 7.344 3.358 7.344 7.5 7.344" fill="#2d3335"/><path fill="#9eaaac" d="M-12.813 21.25a7.814 7.814 0 0 1-7.813-7.813v-.078a7.815 7.815 0 0 0 15.626 0v.078a7.814 7.814 0 0 1-7.813 7.813m-7.5-7.891v-.078c0-4.142 3.358-7.344 7.5-7.344s7.5 3.202 7.5 7.344v.078c-.042-4.104-3.384-7.265-7.5-7.265s-7.458 3.162-7.5 7.266"/><path d="M-12.813 20.938a7.5 7.5 0 1 0 0-15 7.5 7.5 0 0 0 0 15" fill-opacity=".476" fill="#d0e9f2"/><path d="M-12.813 20.938a7.5 7.5 0 1 0 0-15 7.5 7.5 0 0 0 0 15" fill="url(#K)"/><path fill="url(#L)" d="m-15.068 20.425-.132.781a8.16 8.16 0 0 0 4.775.001l-.132-.781a7.34 7.34 0 0 1-4.512-.001"/><path fill="url(#M)" d="M-12.813 21.289c.275 0 .536.047.781.127v4.161c-.245.08-.507.127-.781.127s-.536-.047-.781-.127v-4.161c.245-.08.507-.127.781-.127"/><path d="M-12.813 23.516c.549 0 .877.102 1.25.381v10.488c-.49.142-.701.225-1.25.225s-.76-.083-1.25-.225V23.897c.412-.28.701-.381 1.25-.381" fill="url(#N)"/><path d="M-12.813 24.141c.549 0 1.131.122 1.563.381v10.175c-.314.28-1.013.381-1.563.381s-1.229-.023-1.563-.381V24.522c.295-.259 1.013-.381 1.563-.381" fill="url(#O)"/><path d="M-12.813 33.984c.549 0 .916.122 1.25.381v.8c-.373.241-.701.381-1.25.381s-.897-.141-1.25-.381v-.8c.373-.298.701-.381 1.25-.381" fill="url(#P)"/><path fill="#e0bb41" d="M-12.813 34.609c-.549 0-.877.044-1.25.381v.175c.353.241.701.381 1.25.381s.877-.141 1.25-.381v-.175c-.393-.319-.701-.381-1.25-.381"/><path d="M19.541 21.045c-4.246-4.247-4.246-11.133 0-15.38s11.133-4.247 15.38 0 4.247 11.133 0 15.38-11.133 4.247-15.38 0m.463-.463c4.077 4.078 10.533 4.231 14.609.155 4.078-4.078 3.923-10.534-.153-14.611-4.077-4.077-10.533-4.231-14.611-.154-4.077 4.077-3.923 10.533.155 14.61" fill="#2d3335"/><path fill="#9eaaac" d="M19.541 21.045c-4.246-4.247-4.246-11.133 0-15.38l.078-.077c-4.17 4.253-4.145 11.082.077 15.302 4.22 4.222 11.05 4.247 15.302.077q-.037.04-.077.078c-4.247 4.247-11.133 4.247-15.38 0m.384-15.149.078-.077c4.077-4.077 10.533-3.923 14.609.154 4.078 4.077 4.231 10.533.155 14.61l-.078.078c3.998-4.081 3.822-10.483-.23-14.534s-10.453-4.229-14.534-.231"/><path d="M19.848 20.738c4.078 4.077 10.688 4.077 14.764 0 4.078-4.078 4.078-10.688 0-14.765-4.077-4.077-10.686-4.077-14.764 0s-4.077 10.686 0 14.765" fill-opacity=".476" fill="#d0e9f2"/><path d="M19.848 20.738c4.078 4.077 10.688 4.077 14.764 0 4.078-4.078 4.078-10.688 0-14.765-4.077-4.077-10.686-4.077-14.764 0s-4.077 10.686 0 14.765" fill="url(#Q)"/><path fill="url(#R)" d="m18.133 18.012-.898.639a11.3 11.3 0 0 0 2 2.7 11.3 11.3 0 0 0 2.7 2l.639-.898c-.925-.475-1.795-1.095-2.57-1.87s-1.395-1.645-1.87-2.57"/><path fill="url(#S)" d="M19.503 21.083c.27.27.481.573.644.894l-4.095 4.095a3.5 3.5 0 0 1-.893-.644 3.5 3.5 0 0 1-.644-.894l4.095-4.095c.32.163.623.373.894.644"/><path d="M18.167 24.88 7.844 35.203c-.623-.342-.911-.469-1.452-1.009s-.667-.828-1.009-1.452l10.323-10.323c.791.586 1.894 1.625 2.461 2.461" fill="url(#T)"/><path d="M16.528 24.081c.541.541 1.161 1.041 1.331 1.722L7.843 35.819c-1.018-.806-2.274-1.998-3.076-3.077l10.016-10.016c.545.036 1.196.806 1.737 1.347z" fill="url(#U)"/><path opacity=".596" d="M16.489 24.119c.541.541 1.2 1.003 1.37 1.684L7.843 35.819C6.612 34.739 6 34.158 4.767 32.742l10.016-10.016c.545.036 1.159.852 1.7 1.392z" fill="url(#V)"/><path opacity=".604" d="M20.495 5.789C26.848.762 32.703 3.8 32.648 6.618s-8.839 10.993-11.933 10.331-3.977-8.342-.22-11.159" fill="url(#W)"/><text opacity=".461" font-weight="bold" xml:space="preserve" transform="rotate(-8.9)" font-size="19.8" y="69.184" x="99.839" font-family="Monospace" fill="url(#X)"><tspan y="69.184" x="99.839">01011001</tspan><tspan y="93.934" x="99.839">00110101</tspan><tspan y="118.684" x="99.839">10010011</tspan></text><text font-weight="bold" xml:space="preserve" transform="rotate(-8.9)" font-size="19.8" y="67.898" x="99.41" font-family="Monospace" fill="url(#Y)"><tspan y="67.898" x="99.41">01011001</tspan><tspan y="92.648" x="99.41">00110101</tspan><tspan y="117.398" x="99.41">10010011</tspan></text><path opacity=".765" d="M34.291 20.17c-4.186 3.434-6.533 3.283-5.948 2.053.583-1.23 6.612-6.509 8.039-6.836 1.425-.327.355 2.819-2.091 4.783" fill="url(#Z)"/><script/></svg>