<svg width="16" height="16" viewBox="0 0 16 16" fill="none" xmlns="http://www.w3.org/2000/svg">
<g clip-path="url(#clip0_5257_8222)">
<path d="M14.949 6.54744C15.3159 5.45755 15.1889 4.26457 14.6005 3.27363C13.7157 1.7545 11.9375 0.973066 10.2008 1.34025C9.22213 0.26642 7.73718 -0.21109 6.30494 0.0874658C4.87269 0.386022 3.71056 1.41532 3.256 2.78792C2.11523 3.01868 1.13064 3.72324 0.55417 4.7213C-0.340218 6.23797 -0.137215 8.15112 1.05617 9.45225C0.68788 10.5416 0.813733 11.7348 1.40149 12.7261C2.28735 14.2457 4.06675 15.0271 5.80435 14.6594C6.57723 15.5179 7.68757 16.0064 8.8515 15.9999C10.6316 16.0015 12.2086 14.868 12.7524 13.196C13.893 12.9649 14.8774 12.2604 15.4542 11.2626C16.3378 9.74862 16.1339 7.8458 14.949 6.54744ZM8.8515 14.9528C8.14098 14.9539 7.45274 14.7082 6.90746 14.2589L7.00338 14.2053L10.2328 12.3665C10.3963 12.2719 10.4971 12.0993 10.4982 11.9123V7.42109L11.8635 8.20012C11.8771 8.20699 11.8866 8.21988 11.8891 8.23481V11.9565C11.8855 13.6098 10.5276 14.9493 8.8515 14.9528ZM2.32235 12.2025C1.96603 11.5956 1.83809 10.8842 1.96104 10.1934L2.05696 10.2502L5.28956 12.089C5.45243 12.1832 5.65427 12.1832 5.81714 12.089L9.76596 9.84334V11.3982C9.76522 11.4146 9.75698 11.4297 9.74358 11.4392L6.47261 13.3001C5.01909 14.1261 3.16203 13.6349 2.32235 12.2025ZM1.47183 5.26378C1.83062 4.65296 2.39695 4.18706 3.07055 3.94858V7.73333C3.06807 7.91957 3.16853 8.09239 3.33274 8.18435L7.26238 10.4205L5.89707 11.1995C5.88208 11.2074 5.86411 11.2074 5.84911 11.1995L2.58454 9.34186C1.13387 8.51245 0.636361 6.68201 1.47183 5.24801V5.26378ZM12.6884 7.83426L8.74598 5.57602L10.1081 4.80015C10.1231 4.7923 10.1411 4.7923 10.156 4.80015L13.4206 6.66099C14.4395 7.24095 15.0273 8.34907 14.9295 9.50543C14.8316 10.6618 14.0657 11.6584 12.9634 12.0637V8.27897C12.9577 8.09327 12.8532 7.92429 12.6884 7.83426ZM14.0473 5.81888L13.9514 5.76211L10.7252 3.90758C10.5613 3.81273 10.3583 3.81273 10.1944 3.90758L6.24879 6.1532V4.59829C6.24708 4.58219 6.25444 4.56646 6.26798 4.55729L9.53255 2.69961C10.5539 2.11919 11.8234 2.17336 12.7902 2.8386C13.7569 3.50384 14.2468 4.6603 14.0473 5.80626V5.81888ZM5.50379 8.57544L4.13849 7.79957C4.12469 7.79132 4.11532 7.77746 4.11291 7.76172V4.0495C4.11447 2.887 4.79688 1.83007 5.86419 1.33709C6.93151 0.844118 8.19149 1.00389 9.0977 1.74711L9.00178 1.80073L5.77237 3.63949C5.60887 3.73409 5.50802 3.90669 5.50699 4.09366L5.50379 8.57544ZM6.24559 6.99846L8.00418 5.99865L9.76596 6.99846V8.99807L8.01057 9.99788L6.24879 8.99807L6.24559 6.99846Z" fill="currentColor"/>
</g>
<defs>
<clipPath id="clip0_5257_8222">
<rect width="16" height="16" fill="white"/>
</clipPath>
</defs>
</svg>
