<svg width="16" height="16" viewBox="0 0 16 16" fill="none" xmlns="http://www.w3.org/2000/svg">
<rect width="16" height="16" rx="2" fill="white"/>
<path d="M13.9026 6.72901C14.2192 5.77536 14.1096 4.7315 13.6018 3.86443C12.8381 2.53518 11.3033 1.85143 9.80438 2.17272C8.95967 1.23312 7.67801 0.815296 6.44183 1.07653C5.20565 1.33777 4.20261 2.23841 3.81027 3.43943C2.82567 3.64135 1.97586 4.25783 1.47831 5.13114C0.706356 6.45822 0.881569 8.13223 1.91158 9.27071C1.59371 10.2239 1.70234 11.2679 2.20963 12.1353C2.97422 13.465 4.51004 14.1487 6.00977 13.827C6.67684 14.5782 7.63518 15.0056 8.63978 14.9999C10.1762 15.0013 11.5373 14.0095 12.0066 12.5465C12.9911 12.3442 13.8408 11.7279 14.3386 10.8548C15.1012 9.53005 14.9253 7.86508 13.9026 6.72901ZM8.63978 14.0837C8.02653 14.0846 7.4325 13.8697 6.96187 13.4765L7.04466 13.4296L9.83198 11.8207C9.9731 11.7379 10.0601 11.5869 10.061 11.4233V7.49346L11.2394 8.17511C11.2512 8.18112 11.2594 8.1924 11.2615 8.20546V11.4619C11.2585 12.9086 10.0865 14.0806 8.63978 14.0837ZM3.00443 11.6772C2.69689 11.1461 2.58647 10.5237 2.69258 9.91925L2.77538 9.96892L5.56545 11.5778C5.70603 11.6603 5.88023 11.6603 6.0208 11.5778L9.42906 9.61292V10.9735C9.42842 10.9877 9.42131 11.0009 9.40974 11.0093L6.58655 12.6376C5.33201 13.3603 3.72917 12.9306 3.00443 11.6772ZM2.27035 5.60581C2.58002 5.07134 3.06882 4.66368 3.65021 4.45501V7.76667C3.64807 7.92963 3.73478 8.08084 3.8765 8.16131L7.2682 10.1179L6.0898 10.7996C6.07685 10.8065 6.06135 10.8065 6.0484 10.7996L3.23073 9.17412C1.97865 8.44839 1.54925 6.84676 2.27035 5.59201V5.60581ZM11.9514 7.85498L8.54871 5.87902L9.72435 5.20013C9.73729 5.19326 9.7528 5.19326 9.76574 5.20013L12.5834 6.82836C13.4628 7.33583 13.9702 8.30544 13.8857 9.31725C13.8012 10.3291 13.1402 11.2011 12.1888 11.5558V8.2441C12.1838 8.08161 12.0936 7.93375 11.9514 7.85498ZM13.1243 6.09152L13.0415 6.04184L10.257 4.41913C10.1155 4.33614 9.94029 4.33614 9.79886 4.41913L6.39337 6.38405V5.02351C6.39189 5.00942 6.39824 4.99565 6.40992 4.98763L9.2276 3.36216C10.1092 2.85429 11.2048 2.90169 12.0393 3.48377C12.8737 4.06586 13.2965 5.07776 13.1243 6.08048V6.09152ZM5.75035 8.50351L4.57195 7.82462C4.56004 7.81741 4.55195 7.80527 4.54987 7.79151V4.54332C4.55122 3.52612 5.14021 2.60131 6.06142 2.16996C6.98262 1.7386 8.07012 1.8784 8.85228 2.52872L8.76948 2.57564L5.98217 4.18455C5.84105 4.26733 5.754 4.41835 5.75311 4.58195L5.75035 8.50351ZM6.39061 7.12365L7.90845 6.24882L9.42906 7.12365V8.87331L7.91397 9.74815L6.39337 8.87331L6.39061 7.12365Z" fill="black"/>
</svg>
