<svg width="16" height="16" viewBox="0 0 16 16" fill="none" xmlns="http://www.w3.org/2000/svg">
<rect width="16" height="16" rx="2" fill="white"/>
<path d="M13.2713 2.40002H5.84397C5.52938 2.40002 5.27435 2.65505 5.27435 2.96964V11.8432C5.27435 12.1578 5.52938 12.4129 5.84397 12.4129H13.2713C13.5859 12.4129 13.8409 12.1578 13.8409 11.8432V2.96964C13.8409 2.65505 13.5859 2.40002 13.2713 2.40002Z" fill="#0055AA"/>
<path d="M13.8038 7.59189V8.44483L14.3601 8.14816C14.3601 8.14816 14.3601 7.88856 14.1746 7.8144L13.8038 7.59189ZM5.27435 9.18652V11.7824H8.12986V9.18652H5.27435Z" fill="#113366"/>
<path d="M5.27435 3.99463V6.59055H8.12986V3.99463H5.27435ZM8.12986 6.59055V9.18647H10.9854V6.59055H8.12986ZM10.9854 9.18647V11.7824H13.8409V9.18647H10.9854Z" fill="#1177DD"/>
<path d="M8.12969 3.99463V6.59055H10.9852V3.99463H8.12969ZM10.9852 6.59055V9.18647H13.8407V6.59055H10.9852Z" fill="#33AAEE"/>
<path d="M10.9853 3.99463H13.8408V6.59055H10.9853V3.99463Z" fill="#55CCFF"/>
<path d="M14.3601 8.11108L9.50198 10.8924C9.50198 10.8924 13.9892 13.5996 14.1005 13.5254C14.2859 13.4142 14.3601 13.1175 14.3601 12.8579V8.11108Z" fill="#1199EE"/>
<path d="M4.97751 8.29645C4.82918 8.4077 4.75501 8.55604 4.75501 8.74146V13.0804C4.75501 13.377 4.97751 13.5995 5.27419 13.5995H13.8036C13.952 13.5995 13.9891 13.5995 14.1003 13.5254" fill="#22AAEE"/>
<path d="M7.44892 4.81049H2.20962C1.89503 4.81049 1.64 5.06551 1.64 5.3801V10.6194C1.64 10.934 1.89503 11.189 2.20962 11.189H7.44892C7.76351 11.189 8.01854 10.934 8.01854 10.6194V5.3801C8.01854 5.06551 7.76351 4.81049 7.44892 4.81049Z" fill="#1188EE"/>
<path d="M4.79213 6.96144C5.31131 6.96144 5.60799 7.36937 5.60799 8.03689C5.60799 8.70441 5.27423 9.07526 4.75504 9.07526C4.34711 9.07526 3.93918 8.70441 3.93918 8.03689C3.93918 7.48062 4.19878 6.96144 4.79213 6.96144ZM4.75504 9.74278C5.71924 9.74278 6.38676 9.07526 6.38676 7.9998C6.38676 7.07269 5.79341 6.29391 4.79213 6.29391C3.75376 6.29391 3.16041 7.03561 3.16041 8.07397C3.16041 9.07526 3.9021 9.74278 4.75504 9.74278Z" fill="white"/>
</svg>
