<svg width="16" height="16" viewBox="0 0 16 16" fill="none" xmlns="http://www.w3.org/2000/svg">
<path fill-rule="evenodd" clip-rule="evenodd" d="M1.12 2.55934L9.19292 1L9.1649 15L1.12 13.3306V2.55934ZM3.98245 9.82957C3.37193 9.11496 3.20179 7.99199 3.49404 7.05919C3.90038 5.76208 4.93127 5.32371 5.79401 5.62396C6.28643 5.79611 6.7248 6.21047 6.95901 6.84501C7.0711 7.14927 7.13115 7.49757 7.13516 7.85187C7.14316 8.48842 6.92297 9.23706 6.4866 9.75951C5.81603 10.5602 4.67905 10.6423 3.98446 9.82957H3.98245ZM4.61099 9.15099C4.31074 8.7046 4.22867 8.004 4.37079 7.4215C4.56896 6.61281 5.07539 6.33858 5.49775 6.52674C5.73996 6.63483 5.95414 6.89305 6.06824 7.28939C6.12229 7.47955 6.15231 7.69574 6.15432 7.91793C6.15832 8.31427 6.05023 8.78267 5.83604 9.10895C5.50776 9.60938 4.95128 9.65942 4.61099 9.15299V9.15099ZM9.71937 3.95053H14.4054C14.6676 3.95053 14.8818 4.16471 14.8818 4.42694V4.59909L11.1986 7.08321C11.1506 7.11524 11.0325 7.20732 10.9344 7.26937C10.7903 7.36345 10.7803 7.34544 10.6281 7.25937C10.3939 7.12925 9.9896 6.85302 9.71737 6.66486V3.95053H9.71937ZM14.8838 5.70203V10.7143C14.8838 11.1147 14.5555 11.445 14.1532 11.445H9.71937V7.73778C9.9856 7.91393 10.3399 8.14613 10.5581 8.28024C10.7342 8.38833 10.7663 8.43838 10.9624 8.32428C11.0525 8.27223 11.1406 8.20418 11.2006 8.16414L14.8838 5.70403V5.70203Z" fill="currentColor"/>
</svg>
