<svg width="16" height="16" viewBox="0 0 16 16" fill="none" xmlns="http://www.w3.org/2000/svg">
<g clip-path="url(#clip0_1504_35464)">
<path d="M3.46004 8.53974C2.33727 6.80841 1.63628 4.83785 1.41337 2.78641C1.39671 2.60205 1.41862 2.41625 1.4777 2.24082C1.53679 2.0654 1.63175 1.9042 1.75655 1.76749C1.88134 1.63077 2.03324 1.52155 2.20256 1.44675C2.37189 1.37196 2.55493 1.33325 2.74004 1.33307H4.74004C5.06357 1.32989 5.37723 1.44446 5.62254 1.65543C5.86786 1.8664 6.02809 2.15937 6.07337 2.47974C6.15779 3.11978 6.31434 3.74822 6.54004 4.35307C6.62973 4.59169 6.64914 4.85102 6.59597 5.10033C6.5428 5.34964 6.41928 5.57848 6.24004 5.75974L5.39337 6.60641M7.12004 8.87307C7.79661 9.55024 8.56125 10.1333 9.39337 10.6064L10.24 9.75974C10.4213 9.5805 10.6501 9.45697 10.8994 9.4038C11.1488 9.35063 11.4081 9.37004 11.6467 9.45974C12.2516 9.68544 12.88 9.84199 13.52 9.92641C13.8404 9.97169 14.1334 10.1319 14.3443 10.3772C14.5553 10.6225 14.6699 10.9362 14.6667 11.2597V13.2597C14.6675 13.4454 14.6294 13.6292 14.555 13.7993C14.4807 13.9694 14.3716 14.1221 14.2348 14.2476C14.0979 14.3732 13.9364 14.4687 13.7605 14.5282C13.5847 14.5877 13.3983 14.6098 13.2134 14.5931C11.1619 14.3702 9.19137 13.6692 7.46004 12.5464C6.65688 12.0364 5.91239 11.4395 5.24004 10.7664L7.12004 8.87307Z" stroke="currentColor" stroke-width="1.33" stroke-linecap="round" stroke-linejoin="round"/>
<path d="M15.3334 0.666992L0.666748 15.3337" stroke="currentColor" stroke-width="1.33" stroke-linecap="round" stroke-linejoin="round"/>
</g>
<defs>
<clipPath id="clip0_1504_35464">
<rect width="16" height="16" fill="white"/>
</clipPath>
</defs>
</svg>
