<svg width="16" height="16" viewBox="0 0 16 16" fill="none" xmlns="http://www.w3.org/2000/svg">
<path d="M9.08107 1C7.52551 1 6.6181 1.69801 6.18933 2.18661C6.13947 1.76781 5.86027 1.22934 4.79332 1.22934H2.45001V3.66239H3.40728C3.56682 3.66239 3.61668 3.71225 3.61668 3.87179V15H6.38876V10.8219C6.38876 10.7123 6.38876 10.6026 6.37879 10.5128C6.80756 10.9117 7.6352 11.4601 8.93149 11.4601C11.6437 11.4601 13.5383 9.30627 13.5383 6.23504C13.5583 3.10399 11.7534 1 9.08107 1ZM8.51269 9.03704C7.01696 9.03704 6.3389 7.61111 6.3389 6.2849C6.3389 4.20086 7.47565 3.45299 8.55258 3.45299C9.85884 3.45299 10.7463 4.57977 10.7463 6.26496C10.7363 8.18946 9.61953 9.03704 8.51269 9.03704Z" fill="currentColor"/>
</svg>
