<svg width="16" height="16" viewBox="0 0 16 16" fill="none" xmlns="http://www.w3.org/2000/svg">
<rect width="16" height="16" rx="2" fill="#007737"/>
<path d="M8.93376 2C7.60043 2 6.82265 2.59829 6.45513 3.01709C6.41239 2.65812 6.17308 2.19658 5.25855 2.19658H3.25V4.28205H4.07051C4.20727 4.28205 4.25 4.32479 4.25 4.46154V14H6.62607V10.4188C6.62607 10.3248 6.62607 10.2308 6.61752 10.1538C6.98504 10.4957 7.69445 10.9658 8.80556 10.9658C11.1303 10.9658 12.7543 9.11966 12.7543 6.48718C12.7714 3.80342 11.2244 2 8.93376 2ZM8.44658 8.88889C7.16453 8.88889 6.58333 7.66667 6.58333 6.52991C6.58333 4.74359 7.55769 4.10256 8.48077 4.10256C9.60043 4.10256 10.3611 5.06838 10.3611 6.51282C10.3526 8.16239 9.3953 8.88889 8.44658 8.88889Z" fill="white"/>
</svg>
