<svg xmlns="http://www.w3.org/2000/svg" width="22" height="24" viewBox="0 0 22 24" fill="none">
    <path d="M7.01548 19.0893C7.01548 19.8465 6.40248 20.5348 5.58514 20.5348C4.7678 20.5348 4.1548 19.9153 4.1548 19.0893V12.8941C4.1548 12.137 4.7678 11.4486 5.58514 11.4486C6.40248 11.4486 7.01548 12.0681 7.01548 12.8941V19.0893ZM11.1022 20.7413C11.1022 21.4985 10.4892 22.1868 9.67183 22.1868C8.85449 22.1868 8.3096 21.5673 8.3096 20.7413V11.311C8.3096 10.5538 8.9226 9.86542 9.73994 9.86542C10.5573 9.86542 11.1703 10.4849 11.1703 11.311V20.7413H11.1022ZM2.86068 17.7126C2.86068 18.4698 2.24768 19.1581 1.43034 19.1581C0.613003 19.1581 0 18.5386 0 17.7126V14.3397C0 13.5825 0.613003 12.8941 1.43034 12.8941C2.24768 12.8941 2.86068 13.5825 2.86068 14.3397V17.7126ZM15.1889 22.2557C15.1889 23.0128 14.5759 23.7012 13.7585 23.7012C13.0093 23.7012 12.3963 23.0128 12.3963 22.2557V9.72775C12.3963 8.97057 13.0093 8.28223 13.8266 8.28223C14.5759 8.28223 15.257 8.90174 15.257 9.72775V22.2557H15.1889Z" fill="#231F20"/>
    <path d="M19.6842 21.6365C19.4117 21.6365 19.2074 21.5677 18.935 21.4989L17.2322 20.9482C16.9597 20.8794 16.7554 20.5352 16.8916 20.2598C16.9597 19.9845 17.3003 19.778 17.5727 19.9157L19.3436 20.4664C19.6842 20.604 20.0929 20.5352 20.4334 20.2598C20.774 20.0533 20.9102 19.6403 20.9102 19.2962V7.80077C20.9102 7.25009 20.5696 6.76825 20.0929 6.63058L3.40555 1.53681C3.065 1.39914 2.65633 1.46798 2.31577 1.67448C2.04332 1.94982 1.83899 2.29399 1.83899 2.707V10.623C1.83899 10.9672 1.56654 11.1737 1.2941 11.1737C0.953541 11.1737 0.749207 10.8983 0.749207 10.623V2.707C0.749207 1.94982 1.08976 1.26147 1.70277 0.848467C2.31577 0.366624 3.065 0.297789 3.74611 0.504293L20.3653 5.59806C21.3189 5.8734 22 6.83708 22 7.8696V19.365C22 20.1222 21.6594 20.8105 21.0464 21.2924C20.6378 21.43 20.161 21.6365 19.6842 21.6365Z" fill="#231F20"/>
</svg>