<svg width="16" height="16" viewBox="0 0 16 16" fill="none" xmlns="http://www.w3.org/2000/svg">
<g clip-path="url(#clip0_5262_214219)">
<path d="M0.00680202 7.98636C0.00764459 10.3674 1.92784 12.3037 4.30893 12.3247H4.9181V10.7331H4.30893C2.83276 11.1359 1.31025 10.2655 0.908344 8.78933C0.904973 8.77753 0.902446 8.76573 0.899076 8.75394C0.485378 7.25839 1.35153 5.70892 2.84202 5.27837H3.14619C3.52787 5.19496 3.92303 5.19496 4.30471 5.27837H5.78425V13.7284C5.77667 14.6224 6.49537 15.3537 7.38933 15.3622V3.60504H4.31819C1.92026 3.61768 -0.0125768 5.57158 6.16283e-05 7.96951V7.97036L0.00680202 7.98636ZM11.6974 3.60673H11.0882V5.28258H11.6974C13.1702 4.88068 14.6893 5.74852 15.0912 7.22048C15.0946 7.23143 15.0971 7.24322 15.1005 7.25418C15.5116 8.74467 14.648 10.2882 13.1634 10.718H12.8592C12.4776 10.8014 12.0824 10.8014 11.7007 10.718H10.2212V2.26874C10.2288 1.37478 9.51006 0.643435 8.6161 0.63501V12.409H11.6872C14.1062 12.3711 16.0365 10.3801 15.9995 7.96109C15.9624 5.59517 14.054 3.68593 11.6872 3.64885L11.6974 3.60673Z" fill="currentColor"/>
</g>
<defs>
<clipPath id="clip0_5262_214219">
<rect width="16" height="16" fill="white"/>
</clipPath>
</defs>
</svg>
