<svg width="16" height="16" viewBox="0 0 16 16" fill="none" xmlns="http://www.w3.org/2000/svg">
<g clip-path="url(#clip0_5687_209754)">
<path d="M8 16C12.4183 16 16 12.4183 16 8C16 3.58172 12.4183 0 8 0C3.58172 0 0 3.58172 0 8C0 12.4183 3.58172 16 8 16Z" fill="#2CA01C"/>
<path d="M1.92832 7.99744C1.92896 9.80608 3.38752 11.2768 5.19616 11.2928H5.65888V10.0838H5.19616C4.07488 10.3898 2.9184 9.72864 2.61312 8.60736C2.61056 8.5984 2.60864 8.58944 2.60608 8.58048C2.29184 7.44448 2.94976 6.26752 4.08192 5.94048H4.31296C4.60288 5.87712 4.90304 5.87712 5.19296 5.94048H6.3168V12.359C6.31104 13.0381 6.85696 13.5936 7.536 13.6V4.66944H5.2032C3.38176 4.67904 1.9136 6.1632 1.9232 7.98464V7.98528L1.92832 7.99744ZM10.8083 4.67072H10.3456V5.94368H10.8083C11.927 5.6384 13.081 6.2976 13.3862 7.41568C13.3888 7.424 13.3907 7.43296 13.3933 7.44128C13.7056 8.57344 13.0496 9.74592 11.9219 10.0723H11.6909C11.401 10.1357 11.1008 10.1357 10.8109 10.0723H9.68704V3.6544C9.6928 2.97536 9.14688 2.41984 8.46784 2.41344V11.3568H10.8006C12.6381 11.328 14.1043 9.81568 14.0762 7.97824C14.048 6.18112 12.5984 4.73088 10.8006 4.70272L10.8083 4.67072Z" fill="white"/>
</g>
<defs>
<clipPath id="clip0_5687_209754">
<rect width="16" height="16" rx="2" fill="white"/>
</clipPath>
</defs>
</svg>
