<svg width="16" height="16" viewBox="0 0 16 16" fill="none" xmlns="http://www.w3.org/2000/svg">
<path d="M8.00008 9.33366C8.73646 9.33366 9.33341 8.73671 9.33341 8.00033C9.33341 7.26395 8.73646 6.66699 8.00008 6.66699C7.2637 6.66699 6.66675 7.26395 6.66675 8.00033C6.66675 8.73671 7.2637 9.33366 8.00008 9.33366Z" stroke="currentColor" stroke-width="1.33" stroke-linecap="round" stroke-linejoin="round"/>
<path d="M10.8266 5.17378C11.1985 5.54527 11.4936 5.98642 11.6949 6.47201C11.8962 6.95761 11.9998 7.47811 11.9998 8.00378C11.9998 8.52944 11.8962 9.04995 11.6949 9.53554C11.4936 10.0211 11.1985 10.4623 10.8266 10.8338M5.17329 10.8271C4.80139 10.4556 4.50635 10.0145 4.30505 9.52887C4.10376 9.04328 4.00015 8.52277 4.00015 7.99711C4.00015 7.47145 4.10376 6.95094 4.30505 6.46535C4.50635 5.97976 4.80139 5.5386 5.17329 5.16711M12.7133 3.28711C13.9631 4.53729 14.6652 6.23268 14.6652 8.00044C14.6652 9.7682 13.9631 11.4636 12.7133 12.7138M3.28663 12.7138C2.03682 11.4636 1.33472 9.7682 1.33472 8.00044C1.33472 6.23268 2.03682 4.53729 3.28663 3.28711" stroke="currentColor" stroke-width="1.33" stroke-linecap="round" stroke-linejoin="round"/>
</svg>
