<svg width="16" height="16" viewBox="0 0 16 16" fill="none" xmlns="http://www.w3.org/2000/svg">
<path d="M15.3333 13.333V9.33301H11.3333" stroke="currentColor" stroke-width="1.33" stroke-linecap="round" stroke-linejoin="round"/>
<path d="M0.666748 2.66699V6.66699H4.66675" stroke="currentColor" stroke-width="1.33" stroke-linecap="round" stroke-linejoin="round"/>
<path d="M13.6601 6.00038C13.322 5.0449 12.7473 4.19064 11.9898 3.51732C11.2322 2.844 10.3164 2.37355 9.32789 2.14988C8.33934 1.92621 7.31025 1.9566 6.33662 2.23823C5.363 2.51985 4.47658 3.04352 3.76008 3.76038L0.666748 6.66704M15.3334 9.33371L12.2401 12.2404C11.5236 12.9572 10.6372 13.4809 9.66354 13.7625C8.68992 14.0441 7.66082 14.0745 6.67227 13.8509C5.68373 13.6272 4.76795 13.1568 4.01039 12.4834C3.25284 11.8101 2.67819 10.9559 2.34008 10.0004" stroke="currentColor" stroke-width="1.33" stroke-linecap="round" stroke-linejoin="round"/>
</svg>
