<svg width="16" height="16" viewBox="0 0 16 16" fill="none" xmlns="http://www.w3.org/2000/svg">
<path d="M0.666748 13.333V9.33301H4.66675" stroke="currentColor" stroke-width="1.33" stroke-linecap="round" stroke-linejoin="round"/>
<path d="M15.3333 2.66699V6.66699H11.3333" stroke="currentColor" stroke-width="1.33" stroke-linecap="round" stroke-linejoin="round"/>
<path d="M2.34008 6.00038C2.67819 5.0449 3.25284 4.19064 4.01039 3.51732C4.76795 2.844 5.68373 2.37355 6.67227 2.14988C7.66082 1.92621 8.68992 1.9566 9.66354 2.23823C10.6372 2.51985 11.5236 3.04352 12.2401 3.76038L15.3334 6.66704M0.666748 9.33371L3.76008 12.2404C4.47658 12.9572 5.363 13.4809 6.33662 13.7625C7.31025 14.0441 8.33934 14.0745 9.32789 13.8509C10.3164 13.6272 11.2322 13.1568 11.9898 12.4834C12.7473 11.8101 13.322 10.9559 13.6601 10.0004" stroke="currentColor" stroke-width="1.33" stroke-linecap="round" stroke-linejoin="round"/>
</svg>
