<svg xmlns="http://www.w3.org/2000/svg" width="24" height="24" viewBox="0 0 24 24" fill="none">
  <path d="M2 1.4961C2 0.669856 2.6716 0 3.5 0H10.5C11.3284 0 12 0.669856 12 1.4961V7.97922H3.5C2.6716 7.97922 2 7.30937 2 6.48312V1.4961ZM12 7.97922H20.5C21.3284 7.97922 22 8.64908 22 9.47533V14.4623C22 15.2886 21.3284 15.9584 20.5 15.9584H12V7.97922ZM2 17.4545C2 16.6283 2.6716 15.9584 3.5 15.9584H12V22.4416C12 23.2678 11.3284 23.9377 10.5 23.9377H3.5C2.6716 23.9377 2 23.2678 2 22.4416V17.4545Z" fill="#F26207"/>
</svg>