<svg xmlns="http://www.w3.org/2000/svg" width="24" height="24" viewBox="0 0 24 24" fill="none">
  <path d="M22.9005 20C23.5077 20 24 20.4923 24 21.0995V21.8009C24 23.0154 23.0154 24 21.8009 24H13.1991C11.9846 24 11 23.0154 11 21.8009V21.0995C11 20.4923 11.4923 20 12.0995 20H22.9005ZM21.8009 8C23.0154 8 24 8.98456 24 10.1991V15.9005C24 16.5077 23.5077 17 22.9005 17H2.19907C0.984556 17 0 16.0154 0 14.8009V9.09953C0 8.49228 0.492278 8 1.09953 8H21.8009ZM10.8009 0C12.0154 0 13 0.984555 13 2.19907V3.90047C13 4.50772 12.5077 5 11.9005 5H1.09953C0.492278 5 0 4.50772 0 3.90047V2.19906C0 0.984555 0.984555 0 2.19907 0H10.8009Z" fill="#262626"/>
</svg>