<svg width="16" height="16" viewBox="0 0 16 16" fill="none" xmlns="http://www.w3.org/2000/svg">
<path d="M6.12341 3.62753L6.59266 4.24484L7.13124 3.68699C7.53204 3.27184 8.08329 3.01614 8.68365 3.01614C9.48494 3.01614 10.1891 3.46227 10.5722 4.14212L10.8702 4.67087L11.4239 4.42235C11.7627 4.27028 12.1435 4.18525 12.5511 4.18525C14.0862 4.18525 15.335 5.43897 15.335 6.99736C15.335 8.55393 14.0794 9.80951 12.5463 9.80972C12.3628 9.80947 12.1797 9.79115 11.9998 9.75501L11.5252 9.65969L11.2887 10.082C10.9704 10.6502 10.3628 11.0341 9.66558 11.0341C9.37608 11.0341 9.09753 10.9661 8.84862 10.8482L8.22284 10.5517L7.95194 11.189C7.61521 11.9811 6.82805 12.5381 5.91731 12.5381C4.96684 12.5381 4.15286 11.938 3.84261 11.0912L3.64553 10.5533L3.08437 10.6685C2.94832 10.6965 2.80978 10.7105 2.67089 10.7104C1.56784 10.7085 0.665007 9.80667 0.665009 8.67156L0.665005 8.67002C0.664182 8.31373 0.756732 7.96343 0.933434 7.65404C1.11014 7.34464 1.36482 7.08695 1.67212 6.90663L2.18382 6.60636L1.94364 6.06386C1.81487 5.77303 1.74215 5.4461 1.74216 5.09599L1.74215 5.09355C1.73726 3.76095 2.83229 2.665 4.17863 2.665L4.17967 2.665C4.5559 2.66442 4.92716 2.75097 5.26434 2.91788C5.60133 3.08469 5.8956 3.32784 6.12341 3.62753Z" stroke="currentColor" stroke-width="1.33"/>
</svg>
