<svg width="20" height="20" viewBox="0 0 20 20" fill="none" xmlns="http://www.w3.org/2000/svg">
<rect x="1.81812" y="1.59082" width="16.3636" height="0.454545" rx="0.227273" fill="#D5D5D9"/>
<rect x="1.81812" y="7.04541" width="16.3636" height="0.454545" rx="0.227273" fill="#D5D5D9"/>
<rect x="1.81812" y="12.5" width="16.3636" height="0.454545" rx="0.227273" fill="#D5D5D9"/>
<rect x="14.7727" y="3.18188" width="1.81818" height="1.81818" rx="0.909091" fill="#5C85FF"/>
<rect x="10.6819" y="4.09082" width="1.81818" height="1.81818" rx="0.909091" fill="#5C85FF"/>
<rect x="12.9546" y="6.59082" width="1.81818" height="1.81818" rx="0.909091" fill="#5C85FF"/>
<rect x="11.5908" y="10.2273" width="1.81818" height="1.81818" rx="0.909091" fill="#85A3FF"/>
<rect x="8.18188" y="6.81812" width="1.81818" height="1.81818" rx="0.909091" fill="#85A3FF"/>
<rect x="7.72729" y="10.2273" width="1.81818" height="1.81818" rx="0.909091" fill="#ADC2FF"/>
<rect x="4.54541" y="8.40918" width="1.81818" height="1.81818" rx="0.909091" fill="#ADC2FF"/>
<rect x="3.63647" y="12.0454" width="1.81818" height="1.81818" rx="0.909091" fill="#D6E0FF"/>
<rect x="2.72729" y="15.6819" width="1.81818" height="1.81818" rx="0.909091" fill="#D6E0FF"/>
<rect x="6.81812" y="14.5454" width="1.81818" height="1.81818" rx="0.909091" fill="#D6E0FF"/>
<rect x="10.6819" y="14.5454" width="1.81818" height="1.81818" rx="0.909091" fill="#ADC2FF"/>
<rect x="1.81812" y="17.9546" width="16.3636" height="0.454544" rx="0.227272" fill="#D5D5D9"/>
</svg>
