<svg xmlns="http://www.w3.org/2000/svg" width="16" height="16" viewBox="0 0 16 16" fill="none">
  <path d="M5.23529 7.5C5.23529 8.3934 5.94118 11.0588 7 13L5.23529 12L3.5 11.3824L2.5 9.5L2 7.5V6L3 4L5.23529 2.5L7 2C5.23529 4.26471 5.23529 6.6066 5.23529 7.5Z" fill="#9AA2AF" stroke="none" class="nc-duo-path"/>
  <path d="M7.33333 12.6667C10.2789 12.6667 12.6667 10.2789 12.6667 7.33333C12.6667 4.38781 10.2789 2 7.33333 2C4.38781 2 2 4.38781 2 7.33333C2 10.2789 4.38781 12.6667 7.33333 12.6667Z" stroke="currentColor" stroke-width="1.33" stroke-linecap="round" stroke-linejoin="round"/>
  <path d="M13.9999 13.9996L11.0999 11.0996" stroke="currentColor" stroke-width="1.33" stroke-linecap="round" stroke-linejoin="round"/>
</svg>