<svg width="16" height="16" viewBox="0 0 16 16" fill="none" xmlns="http://www.w3.org/2000/svg">
<g clip-path="url(#clip0_1504_35805)">
<path d="M8 10C9.10457 10 10 9.10457 10 8C10 6.89543 9.10457 6 8 6C6.89543 6 6 6.89543 6 8C6 9.10457 6.89543 10 8 10Z" stroke="currentColor" stroke-width="1.33" stroke-linecap="round" stroke-linejoin="round"/>
<path d="M12.9334 10.0003C12.8447 10.2014 12.8182 10.4245 12.8574 10.6407C12.8966 10.857 12.9997 11.0565 13.1534 11.2137L13.1934 11.2537C13.3174 11.3775 13.4157 11.5245 13.4828 11.6864C13.5499 11.8483 13.5845 12.0218 13.5845 12.197C13.5845 12.3722 13.5499 12.5457 13.4828 12.7076C13.4157 12.8694 13.3174 13.0165 13.1934 13.1403C13.0696 13.2643 12.9225 13.3626 12.7607 13.4297C12.5988 13.4968 12.4253 13.5314 12.2501 13.5314C12.0749 13.5314 11.9014 13.4968 11.7395 13.4297C11.5776 13.3626 11.4306 13.2643 11.3067 13.1403L11.2667 13.1003C11.1096 12.9466 10.9101 12.8435 10.6938 12.8043C10.4775 12.7651 10.2545 12.7916 10.0534 12.8803C9.85624 12.9648 9.68807 13.1052 9.56962 13.284C9.45117 13.4629 9.3876 13.6725 9.38675 13.887V14.0003C9.38675 14.3539 9.24627 14.6931 8.99622 14.9431C8.74618 15.1932 8.40704 15.3337 8.05341 15.3337C7.69979 15.3337 7.36065 15.1932 7.11061 14.9431C6.86056 14.6931 6.72008 14.3539 6.72008 14.0003V13.9403C6.71492 13.7197 6.64349 13.5057 6.51509 13.3261C6.38668 13.1466 6.20724 13.0098 6.00008 12.9337C5.799 12.8449 5.57595 12.8184 5.35969 12.8577C5.14343 12.8969 4.94387 13 4.78675 13.1537L4.74675 13.1937C4.62292 13.3176 4.47587 13.416 4.314 13.4831C4.15214 13.5502 3.97864 13.5847 3.80341 13.5847C3.62819 13.5847 3.45469 13.5502 3.29283 13.4831C3.13096 13.416 2.98391 13.3176 2.86008 13.1937C2.73611 13.0698 2.63777 12.9228 2.57067 12.7609C2.50357 12.599 2.46903 12.4255 2.46903 12.2503C2.46903 12.0751 2.50357 11.9016 2.57067 11.7397C2.63777 11.5779 2.73611 11.4308 2.86008 11.307L2.90008 11.267C3.05377 11.1099 3.15687 10.9103 3.19608 10.6941C3.2353 10.4778 3.20882 10.2547 3.12008 10.0537C3.03557 9.85648 2.89525 9.68831 2.71639 9.56986C2.53753 9.45141 2.32794 9.38785 2.11341 9.38699H2.00008C1.64646 9.38699 1.30732 9.24652 1.05727 8.99647C0.807224 8.74642 0.666748 8.40728 0.666748 8.05366C0.666748 7.70004 0.807224 7.3609 1.05727 7.11085C1.30732 6.8608 1.64646 6.72033 2.00008 6.72033H2.06008C2.28074 6.71516 2.49475 6.64374 2.67428 6.51533C2.85381 6.38693 2.99056 6.20748 3.06675 6.00033C3.15549 5.79925 3.18196 5.5762 3.14275 5.35993C3.10354 5.14367 3.00044 4.94411 2.84675 4.78699L2.80675 4.74699C2.68278 4.62316 2.58443 4.47611 2.51734 4.31425C2.45024 4.15238 2.4157 3.97888 2.4157 3.80366C2.4157 3.62844 2.45024 3.45494 2.51734 3.29307C2.58443 3.13121 2.68278 2.98416 2.80675 2.86033C2.93058 2.73636 3.07763 2.63801 3.23949 2.57091C3.40136 2.50381 3.57486 2.46928 3.75008 2.46928C3.9253 2.46928 4.0988 2.50381 4.26067 2.57091C4.42253 2.63801 4.56958 2.73636 4.69341 2.86033L4.73341 2.90033C4.89053 3.05402 5.09009 3.15712 5.30636 3.19633C5.52262 3.23554 5.74567 3.20907 5.94675 3.12033H6.00008C6.19726 3.03582 6.36543 2.8955 6.48388 2.71664C6.60233 2.53778 6.66589 2.32818 6.66675 2.11366V2.00033C6.66675 1.6467 6.80722 1.30757 7.05727 1.05752C7.30732 0.807468 7.64646 0.666992 8.00008 0.666992C8.3537 0.666992 8.69284 0.807468 8.94289 1.05752C9.19294 1.30757 9.33341 1.6467 9.33341 2.00033V2.06033C9.33427 2.27485 9.39784 2.48444 9.51629 2.6633C9.63474 2.84216 9.8029 2.98248 10.0001 3.06699C10.2012 3.15574 10.4242 3.18221 10.6405 3.143C10.8567 3.10378 11.0563 3.00068 11.2134 2.84699L11.2534 2.80699C11.3772 2.68302 11.5243 2.58468 11.6862 2.51758C11.848 2.45048 12.0215 2.41594 12.1967 2.41594C12.372 2.41594 12.5455 2.45048 12.7073 2.51758C12.8692 2.58468 13.0163 2.68302 13.1401 2.80699C13.264 2.93082 13.3624 3.07787 13.4295 3.23974C13.4966 3.4016 13.5311 3.5751 13.5311 3.75033C13.5311 3.92555 13.4966 4.09905 13.4295 4.26091C13.3624 4.42278 13.264 4.56983 13.1401 4.69366L13.1001 4.73366C12.9464 4.89078 12.8433 5.09034 12.8041 5.3066C12.7649 5.52286 12.7913 5.74592 12.8801 5.94699V6.00033C12.9646 6.19751 13.1049 6.36567 13.2838 6.48412C13.4626 6.60257 13.6722 6.66614 13.8867 6.66699H14.0001C14.3537 6.66699 14.6928 6.80747 14.9429 7.05752C15.1929 7.30757 15.3334 7.6467 15.3334 8.00033C15.3334 8.35395 15.1929 8.69309 14.9429 8.94313C14.6928 9.19318 14.3537 9.33366 14.0001 9.33366H13.9401C13.7256 9.33451 13.516 9.39808 13.3371 9.51653C13.1582 9.63498 13.0179 9.80315 12.9334 10.0003V10.0003Z" stroke="currentColor" stroke-width="1.33" stroke-linecap="round" stroke-linejoin="round"/>
</g>
<defs>
<clipPath id="clip0_1504_35805">
<rect width="16" height="16" fill="white"/>
</clipPath>
</defs>
</svg>
