<svg xmlns="http://www.w3.org/2000/svg" width="24" height="24" viewBox="0 0 24 24" fill="none">
    <path d="M12.1016 0L5.33797 0.789103L0.101562 8.54555L12.1016 23.965L24.1016 8.54555L18.8652 0.789103L12.1016 0Z" fill="#FDB300"/>
    <path d="M0.101562 8.5459L12.1016 23.9653L4.96212 8.5459H0.101562Z" fill="#EB6C00"/>
    <path d="M19.241 8.5459L12.1016 23.9653L24.1015 8.5459H19.241Z" fill="#EB6C00"/>
    <path d="M4.96216 8.5459L12.1016 23.9653L19.241 8.5459H4.96216Z" fill="#FDAD00"/>
    <path d="M5.33794 0.789104L4.9621 8.54555L12.1015 0L5.33794 0.789104Z" fill="#FDD231"/>
    <path d="M19.241 8.54555L18.8652 0.789L12.1016 0L19.241 8.54555Z" fill="#FDD231"/>
    <path d="M19.241 8.54561H24.1015L18.8652 0.789062L19.241 8.54561Z" fill="#FDAD00"/>
    <path d="M0.101562 8.54561H4.96212L5.33797 0.789062L0.101562 8.54561Z" fill="#FDAD00"/>
    <path d="M12.1015 0L4.9621 8.54555H19.241L12.1015 0Z" fill="#FEEEB7"/>
</svg>