<svg width="16" height="16" viewBox="0 0 16 16" fill="none" xmlns="http://www.w3.org/2000/svg">
<rect width="16" height="16" rx="2" fill="white"/>
<g clip-path="url(#clip0_5687_209627)">
<path d="M4.55518 9.56741C4.55518 10.2546 3.99474 10.8159 3.30746 10.8159C2.62027 10.8159 2.05908 10.2546 2.05908 9.56741C2.05908 8.88022 2.62036 8.31894 3.30755 8.31894H4.55527L4.55518 9.56741ZM5.18414 9.56741C5.18414 8.88022 5.74543 8.31894 6.43261 8.31894C7.1198 8.31894 7.68108 8.88013 7.68108 9.56741V12.6926C7.68108 13.3798 7.11989 13.941 6.43261 13.941C5.74543 13.941 5.18414 13.3798 5.18414 12.6926V9.56741Z" fill="#DE1C59"/>
<path d="M6.43261 4.55515C5.74543 4.55515 5.18414 3.99471 5.18414 3.30743C5.18414 2.62024 5.74543 2.05905 6.43261 2.05905C7.1198 2.05905 7.68108 2.62033 7.68108 3.30752V4.55524L6.43261 4.55515ZM6.43261 5.18411C7.1198 5.18411 7.68108 5.74539 7.68108 6.43258C7.68108 7.11977 7.11989 7.68105 6.43261 7.68105H3.30746C2.62027 7.68105 2.05908 7.11986 2.05908 6.43258C2.05908 5.74539 2.62036 5.18411 3.30755 5.18411H6.43261Z" fill="#35C5F0"/>
<path d="M11.4448 6.43258C11.4448 5.74539 12.0053 5.18411 12.6925 5.18411C13.3797 5.18411 13.941 5.74539 13.941 6.43258C13.941 7.11977 13.3797 7.68105 12.6925 7.68105H11.4448V6.43258ZM10.8158 6.43258C10.8158 7.11977 10.2546 7.68105 9.56738 7.68105C8.88019 7.68105 8.31891 7.11986 8.31891 6.43258V3.30743C8.31891 2.62024 8.8801 2.05905 9.56738 2.05905C10.2546 2.05905 10.8158 2.62033 10.8158 3.30752V6.43258Z" fill="#2EB57D"/>
<path d="M9.56738 11.4448C10.2546 11.4448 10.8158 12.0053 10.8158 12.6926C10.8158 13.3798 10.2546 13.941 9.56738 13.941C8.88019 13.941 8.31891 13.3798 8.31891 12.6926V11.4448H9.56738ZM9.56738 10.8159C8.88019 10.8159 8.31891 10.2546 8.31891 9.56741C8.31891 8.88022 8.8801 8.31894 9.56738 8.31894H12.6925C13.3797 8.31894 13.941 8.88013 13.941 9.56741C13.941 10.2546 13.3797 10.8159 12.6925 10.8159H9.56738Z" fill="#EBB02E"/>
</g>
<defs>
<clipPath id="clip0_5687_209627">
<rect width="12" height="12" fill="white" transform="translate(2 2)"/>
</clipPath>
</defs>
</svg>
