<svg width="16" height="16" viewBox="0 0 16 16" fill="none" xmlns="http://www.w3.org/2000/svg">
<g clip-path="url(#clip0_184_5188)">
<path d="M10.3333 12.6667H9.33331V13.6667C9.33331 14.22 9.77998 14.6667 10.3333 14.6667C10.8866 14.6667 11.3333 14.22 11.3333 13.6667C11.3333 13.1133 10.8866 12.6667 10.3333 12.6667Z" stroke="currentColor" stroke-width="1.33333" stroke-linecap="round" stroke-linejoin="round"/>
<path d="M6.33331 9.33334C6.88665 9.33334 7.33331 9.78001 7.33331 10.3333V13.6667C7.33331 14.22 6.88665 14.6667 6.33331 14.6667C5.77998 14.6667 5.33331 14.22 5.33331 13.6667V10.3333C5.33331 9.78001 5.77998 9.33334 6.33331 9.33334Z" stroke="currentColor" stroke-width="1.33333" stroke-linecap="round" stroke-linejoin="round"/>
<path d="M2.33331 9.33334H3.33331V10.3333C3.33331 10.8867 2.88665 11.3333 2.33331 11.3333C1.77998 11.3333 1.33331 10.8867 1.33331 10.3333C1.33331 9.78001 1.77998 9.33334 2.33331 9.33334Z" stroke="currentColor" stroke-width="1.33333" stroke-linecap="round" stroke-linejoin="round"/>
<path d="M9.33331 9.66666C9.33331 9.11332 9.77998 8.66666 10.3333 8.66666H13.6666C14.22 8.66666 14.6666 9.11332 14.6666 9.66666C14.6666 10.22 14.22 10.6667 13.6666 10.6667H10.3333C9.77998 10.6667 9.33331 10.22 9.33331 9.66666Z" stroke="currentColor" stroke-width="1.33333" stroke-linecap="round" stroke-linejoin="round"/>
<path d="M6.66665 6.33334C6.66665 5.78001 6.21998 5.33334 5.66665 5.33334H2.33331C1.77998 5.33334 1.33331 5.78001 1.33331 6.33334C1.33331 6.88668 1.77998 7.33334 2.33331 7.33334H5.66665C6.21998 7.33334 6.66665 6.88668 6.66665 6.33334Z" stroke="currentColor" stroke-width="1.33333" stroke-linecap="round" stroke-linejoin="round"/>
<path d="M13.6667 6.66666H12.6667V5.66666C12.6667 5.11332 13.1134 4.66666 13.6667 4.66666C14.22 4.66666 14.6667 5.11332 14.6667 5.66666C14.6667 6.21999 14.22 6.66666 13.6667 6.66666Z" stroke="currentColor" stroke-width="1.33333" stroke-linecap="round" stroke-linejoin="round"/>
<path d="M9.66669 6.66668C9.11335 6.66668 8.66669 6.22001 8.66669 5.66668V2.33334C8.66669 1.78001 9.11335 1.33334 9.66669 1.33334C10.22 1.33334 10.6667 1.78001 10.6667 2.33334V5.66668C10.6667 6.22001 10.22 6.66668 9.66669 6.66668Z" stroke="currentColor" stroke-width="1.33333" stroke-linecap="round" stroke-linejoin="round"/>
<path d="M5.66669 3.33334H6.66669V2.33334C6.66669 1.78001 6.22002 1.33334 5.66669 1.33334C5.11335 1.33334 4.66669 1.78001 4.66669 2.33334C4.66669 2.88668 5.11335 3.33334 5.66669 3.33334Z" stroke="currentColor" stroke-width="1.33333" stroke-linecap="round" stroke-linejoin="round"/>
</g>
<defs>
<clipPath id="clip0_184_5188">
<rect width="16" height="16" fill="white"/>
</clipPath>
</defs>
</svg>
