<svg xmlns="http://www.w3.org/2000/svg" width="24" height="24" viewBox="0 0 24 24" fill="none">
    <path d="M21.6 0H2.4C1.07452 0 0 1.07452 0 2.39999V8.4C0 9.72547 1.07452 10.8 2.4 10.8H21.6C22.9255 10.8 24 9.72547 24 8.4V2.39999C24 1.07452 22.9255 0 21.6 0Z" fill="#F9A619"/>
    <path d="M21.5999 13.1992H15.6C14.2745 13.1992 13.2 14.2737 13.2 15.5992V21.5992C13.2 22.9247 14.2745 23.9992 15.6 23.9992H21.5999C22.9254 23.9992 24 22.9247 24 21.5992V15.5992C24 14.2737 22.9254 13.1992 21.5999 13.1992Z" fill="#3B85DB"/>
    <path d="M5.39886 24.0009C8.38058 24.0009 10.7978 21.5837 10.7978 18.602C10.7978 15.6203 8.38058 13.2031 5.39886 13.2031C2.41715 13.2031 0 15.6203 0 18.602C0 21.5837 2.41715 24.0009 5.39886 24.0009Z" fill="#EB3669"/>
</svg>