<svg width="16" height="16" viewBox="0 0 16 16" fill="none" xmlns="http://www.w3.org/2000/svg">
<path d="M3.33149 5.72321C3.2286 4.31296 3.81705 3.13607 5.09683 2.19254C5.68528 1.75383 6.36216 1.42633 7.12837 1.21179C7.85692 0.996819 8.67392 0.945593 9.58023 1.05768C10.4861 1.16976 11.3316 1.44516 12.1162 1.8843C12.0978 2.25821 12.0978 2.61286 12.1162 2.94911C12.1722 4.06077 12.1253 4.77531 11.9765 5.09274C11.8924 5.08354 11.6494 5.0183 11.2479 4.89659C10.9112 4.7937 10.603 4.71927 10.3232 4.67242C10.0338 4.61638 9.74879 4.57916 9.46858 4.56033C8.81446 4.50429 8.35255 4.68161 8.08153 5.09274C8.15596 5.50386 8.33372 5.81209 8.61393 6.01744C8.89415 6.21359 9.27725 6.38653 9.7628 6.53583C10.2203 6.66674 10.5426 6.78802 10.7295 6.90011C11.7852 7.55423 12.4345 8.577 12.677 9.96843V11.1593C12.677 11.9159 12.469 12.5814 12.0535 13.1558C11.638 13.7303 11.0842 14.1624 10.3928 14.4523C9.41254 14.863 8.27024 15.0433 6.96769 14.9912C5.6647 14.94 4.54604 14.662 3.61214 14.158C3.64016 13.7749 3.64016 13.4059 3.61214 13.0512C3.58412 12.6589 3.57493 12.2802 3.58412 11.9159C3.60251 11.5144 3.65855 11.1926 3.75225 10.9496C3.92038 10.9772 4.14455 11.0289 4.42476 11.1037C4.91951 11.2438 5.2654 11.3323 5.46154 11.3695C7.00271 11.7062 7.82934 11.5192 7.94142 10.8095C7.96945 10.6042 7.92041 10.415 7.79431 10.2421C7.66822 10.0687 7.50709 9.93122 7.31095 9.82876C7.04912 9.69785 6.82539 9.5954 6.63844 9.52053C6.36786 9.40844 6.19447 9.3292 6.11961 9.28235C5.70892 9.06781 5.43308 8.91807 5.29298 8.83445C4.76058 8.51658 4.3871 8.19915 4.17213 7.88173C3.66775 7.16149 3.38753 6.44213 3.33149 5.72321Z" stroke="currentColor" stroke-width="1.33"/>
</svg>
