<svg width="16" height="16" viewBox="0 0 16 16" fill="none" xmlns="http://www.w3.org/2000/svg">
<rect width="16" height="16" rx="2" fill="#6772E5"/>
<path fill-rule="evenodd" clip-rule="evenodd" d="M7.14996 5.56824C7.14996 5.0545 7.57746 4.85575 8.2682 4.85575C9.4114 4.88045 10.5332 5.17072 11.5449 5.70361V2.60241C10.5017 2.19243 9.38902 1.98806 8.2682 2.00054C5.60573 2.00054 3.82001 3.39515 3.82001 5.72386C3.82001 9.36731 8.82319 8.77557 8.82319 10.3461C8.82319 10.9603 8.2982 11.1508 7.55946 11.1508C6.4701 11.1508 5.06312 10.7 3.95951 10.1001V13.2418C5.09574 13.7362 6.32071 13.9941 7.55983 14C10.2962 14 12.1824 12.6481 12.1824 10.2789C12.1824 6.34673 7.14996 7.0491 7.14996 5.56899V5.56824Z" fill="white"/>
</svg>
