<svg width="16" height="16" viewBox="0 0 16 16" fill="none" xmlns="http://www.w3.org/2000/svg">
<path d="M14.1084 8.78574C13.9561 8.78626 13.8044 8.80509 13.6566 8.84181C13.094 6.62974 11.2914 4.95008 9.0451 4.54501C8.94758 4.52757 8.84961 4.51272 8.7513 4.50048C8.76857 3.95015 8.7937 3.31441 9.60337 2.74255L9.4755 2.42001C9.4755 2.42001 7.89497 2.90995 7.7161 4.25988C7.63777 3.89275 6.90217 3.43301 6.5379 3.34608L6.35677 3.63835C6.35677 3.63835 6.83957 3.87975 6.95737 4.54568C4.7113 4.94941 2.90784 6.62761 2.34377 8.83888C1.33084 8.58821 0.306439 9.20608 0.0557722 10.2191C-0.194894 11.232 0.422972 12.2564 1.43597 12.5071C1.81672 12.6013 2.21735 12.5747 2.5823 12.4309C2.74344 12.8332 2.94924 13.2161 3.19584 13.5725L4.7641 12.5157C4.3387 11.9776 4.0837 11.1901 4.03924 10.3999C3.99257 9.53788 4.2023 8.68294 4.75264 8.18008C5.88704 7.21454 7.12337 7.65494 7.89497 8.58021H8.10257C8.8763 7.65488 10.1141 7.21521 11.2449 8.18008C11.7945 8.68294 12.005 9.53861 11.9583 10.3999C11.9146 11.1901 11.6596 11.9775 11.2334 12.5157L12.8017 13.5725C13.0488 13.2162 13.255 12.8333 13.4166 12.4309C14.3867 12.8143 15.4839 12.3387 15.8673 11.3686C16.2507 10.3985 15.775 9.30134 14.805 8.91794C14.5832 8.83033 14.3469 8.78548 14.1084 8.78574ZM1.85737 11.2283C1.70952 11.2283 1.56773 11.1696 1.46318 11.0651C1.35864 10.9605 1.2999 10.8187 1.2999 10.6709C1.2999 10.523 1.35864 10.3812 1.46318 10.2767C1.56773 10.1721 1.70952 10.1134 1.85737 10.1134C1.96878 10.1139 2.07755 10.1474 2.1699 10.2097C2.17464 10.5024 2.1945 10.7947 2.2295 11.0854C2.13137 11.1751 1.9803 11.2407 1.85737 11.2283ZM14.1422 11.2283C14.0047 11.228 13.8722 11.1768 13.7701 11.0847C13.8051 10.794 13.825 10.5017 13.8297 10.2089C13.9135 10.1521 14.0112 10.1192 14.1123 10.1138C14.2134 10.1083 14.3141 10.1305 14.4035 10.1781C14.4929 10.2256 14.5677 10.2966 14.6198 10.3834C14.6718 10.4702 14.6992 10.5696 14.699 10.6709C14.7042 10.9758 14.4442 11.2429 14.1422 11.2283Z" fill="currentColor"/>
</svg>
