<svg width="16" height="16" viewBox="0 0 16 16" fill="none" xmlns="http://www.w3.org/2000/svg">
<rect width="16" height="16" rx="2" fill="white"/>
<path d="M13.3494 8.57203C13.2162 8.57271 13.0836 8.58935 12.9544 8.62159C12.7134 7.67359 12.2048 6.81493 11.4892 6.14806C10.7737 5.4812 9.88133 5.03428 8.91872 4.86065C8.83093 4.84507 8.75163 4.83374 8.66243 4.82241C8.67659 4.34097 8.69924 3.78447 9.40867 3.2832L9.2968 3C9.2968 3 7.91618 3.42481 7.75617 4.61001C7.68679 4.28858 7.04817 3.88643 6.72531 3.80996L6.56672 4.06626C6.70774 4.1514 6.82804 4.26686 6.9189 4.40426C7.00977 4.54166 7.06892 4.69755 7.09206 4.86065C6.12938 5.03393 5.23688 5.48052 4.52105 6.14714C3.80522 6.81375 3.29629 7.67224 3.055 8.62017C2.8022 8.55698 2.53805 8.55441 2.28407 8.61268C2.03009 8.67095 1.79348 8.7884 1.59351 8.95547C1.39353 9.12254 1.23587 9.3345 1.13336 9.57406C1.03085 9.81363 0.986393 10.074 1.00362 10.334C1.02084 10.594 1.09926 10.8463 1.23247 11.0702C1.36569 11.2942 1.54994 11.4835 1.7702 11.6227C1.99046 11.762 2.2405 11.8472 2.49995 11.8714C2.7594 11.8957 3.0209 11.8583 3.26315 11.7623C3.40407 12.1146 3.58409 12.4499 3.79982 12.762L5.17195 11.8374L5.16062 11.8218C4.77771 11.2822 4.56157 10.6422 4.53899 9.98096C4.49792 9.22764 4.68059 8.47857 5.16345 8.03819C6.15466 7.18858 7.2365 7.57798 7.91335 8.38794H8.09602C8.77288 7.57798 9.8533 7.19283 10.8459 8.03819C11.3274 8.47857 11.5115 9.22764 11.4704 9.98096C11.4478 10.6422 11.2317 11.2822 10.8488 11.8218L10.8374 11.8374L12.2095 12.762C12.4253 12.4499 12.6053 12.1146 12.7462 11.7623C12.9724 11.8507 13.2152 11.8881 13.4574 11.8719C13.6997 11.8558 13.9354 11.7864 14.1478 11.6689C14.3602 11.5513 14.5441 11.3883 14.6864 11.1916C14.8287 10.9949 14.9259 10.7692 14.9711 10.5307C15.0163 10.2921 15.0084 10.0466 14.9479 9.81142C14.8874 9.57629 14.7759 9.35737 14.6212 9.17024C14.4665 8.98311 14.2725 8.83237 14.0529 8.72873C13.8333 8.62509 13.5936 8.5711 13.3509 8.57061L13.3494 8.57203ZM2.62736 10.713C2.50253 10.7063 2.38503 10.652 2.29904 10.5612C2.21305 10.4705 2.16513 10.3502 2.16513 10.2252C2.16513 10.1002 2.21305 9.97996 2.29904 9.88921C2.38503 9.79846 2.50253 9.74414 2.62736 9.73741C2.72487 9.73798 2.82001 9.76756 2.90065 9.82237C2.90487 10.0785 2.92236 10.3342 2.95305 10.5884C2.86351 10.6686 2.74756 10.713 2.62736 10.713ZM13.382 10.713C13.2618 10.713 13.1459 10.6686 13.0563 10.5884C13.087 10.3342 13.1045 10.0785 13.1087 9.82237C13.1821 9.77264 13.2676 9.74388 13.3561 9.73917C13.4446 9.73446 13.5328 9.75399 13.611 9.79565C13.6892 9.83732 13.7546 9.89954 13.8001 9.97561C13.8456 10.0517 13.8694 10.1387 13.8691 10.2273C13.8689 10.2913 13.8562 10.3546 13.8315 10.4137C13.8068 10.4727 13.7708 10.5263 13.7254 10.5714C13.6801 10.6165 13.6263 10.6522 13.5671 10.6765C13.5079 10.7008 13.4446 10.7132 13.3806 10.713H13.382Z" fill="#00BF6F"/>
</svg>
