<svg width="14" height="14" viewBox="0 0 14 14" fill="none" xmlns="http://www.w3.org/2000/svg">
<g clip-path="url(#clip0_5687_209963)">
<path d="M9.76516 5.36871H13.3814C13.723 5.36871 14 5.64567 14 5.98732V9.28122C14 10.5369 12.9821 11.5548 11.7265 11.5548H11.7157C10.4601 11.5549 9.44204 10.5372 9.44186 9.28154C9.44186 9.28154 9.44186 9.28133 9.44186 9.28122V5.69202C9.44186 5.51346 9.58661 5.36871 9.76516 5.36871Z" fill="#5059C9"/>
<path d="M12.2093 4.71756C13.0185 4.71756 13.6744 4.0616 13.6744 3.25244C13.6744 2.44328 13.0185 1.78732 12.2093 1.78732C11.4001 1.78732 10.7442 2.44328 10.7442 3.25244C10.7442 4.0616 11.4001 4.71756 12.2093 4.71756Z" fill="#5059C9"/>
<path d="M7.65116 4.71755C8.81995 4.71755 9.76744 3.77006 9.76744 2.60127C9.76744 1.43248 8.81995 0.484985 7.65116 0.484985C6.48237 0.484985 5.53488 1.43248 5.53488 2.60127C5.53488 3.77006 6.48237 4.71755 7.65116 4.71755Z" fill="#7B83EB"/>
<path d="M10.473 5.36871H4.50376C4.16618 5.37707 3.89914 5.65722 3.90697 5.99481V9.7517C3.85983 11.7775 5.46259 13.4587 7.48837 13.5083C9.51416 13.4587 11.1169 11.7775 11.0698 9.7517V5.99481C11.0776 5.65722 10.8106 5.37707 10.473 5.36871Z" fill="#7B83EB"/>
<path opacity="0.1" d="M7.81395 5.36871V10.6334C7.81233 10.8748 7.66603 11.0917 7.44279 11.1836C7.37171 11.2137 7.29532 11.2292 7.21814 11.2292H4.19348C4.15116 11.1217 4.11209 11.0143 4.07953 10.9036C3.96556 10.53 3.90741 10.1416 3.90697 9.75104V5.99383C3.89914 5.65678 4.16574 5.37707 4.50278 5.36871H7.81395Z" fill="black"/>
<path opacity="0.2" d="M7.48837 5.36871V10.9589C7.48837 11.0361 7.47286 11.1125 7.44279 11.1836C7.35087 11.4068 7.13398 11.5531 6.89256 11.5548H4.34651C4.29116 11.4473 4.23907 11.3399 4.19348 11.2292C4.1479 11.1185 4.11209 11.0143 4.07953 10.9036C3.96556 10.53 3.90741 10.1416 3.90697 9.75104V5.99383C3.89914 5.65678 4.16574 5.37707 4.50278 5.36871H7.48837Z" fill="black"/>
<path opacity="0.2" d="M7.48837 5.36871V10.3078C7.48589 10.6358 7.22059 10.9011 6.89256 10.9036H4.07954C3.96557 10.53 3.90741 10.1416 3.90697 9.75104V5.99383C3.89915 5.65678 4.16575 5.37707 4.50279 5.36871H7.48837Z" fill="black"/>
<path opacity="0.2" d="M7.16279 5.36871V10.3078C7.16031 10.6358 6.895 10.9011 6.56697 10.9036H4.07954C3.96557 10.53 3.90741 10.1416 3.90697 9.75104V5.99383C3.89915 5.65678 4.16575 5.37707 4.50279 5.36871H7.16279Z" fill="black"/>
<path opacity="0.1" d="M7.81395 3.68547V4.71105C7.7586 4.7143 7.70651 4.71756 7.65116 4.71756C7.59581 4.71756 7.54372 4.71431 7.48837 4.71105C7.37847 4.70376 7.26948 4.68632 7.16279 4.65896C6.50348 4.50282 5.95879 4.04044 5.69767 3.41524C5.65274 3.31025 5.61786 3.20123 5.59348 3.08966H7.21813C7.54668 3.0909 7.8127 3.35692 7.81395 3.68547Z" fill="black"/>
<path opacity="0.2" d="M7.48837 4.01103V4.71103C7.37848 4.70374 7.26948 4.6863 7.16279 4.65894C6.50349 4.50281 5.9588 4.04043 5.69768 3.41522H6.89256C7.2211 3.41647 7.48712 3.68249 7.48837 4.01103Z" fill="black"/>
<path opacity="0.2" d="M7.48837 4.01103V4.71103C7.37848 4.70374 7.26948 4.6863 7.16279 4.65894C6.50349 4.50281 5.9588 4.04043 5.69768 3.41522H6.89256C7.2211 3.41647 7.48712 3.68249 7.48837 4.01103Z" fill="black"/>
<path opacity="0.2" d="M7.16279 4.01104V4.65894C6.50348 4.50281 5.95879 4.04043 5.69767 3.41522H6.56697C6.89552 3.41647 7.16154 3.6825 7.16279 4.01104Z" fill="black"/>
<path d="M0.596788 3.41522H6.566C6.8956 3.41522 7.16278 3.68242 7.16278 4.01201V9.98122C7.16278 10.3108 6.89559 10.578 6.566 10.578H0.596788C0.267188 10.578 0 10.3108 0 9.98122V4.01201C0 3.68242 0.267195 3.41522 0.596788 3.41522Z" fill="url(#paint0_linear_5687_209963)"/>
<path d="M5.15201 5.68712H3.95874V8.93642H3.19852V5.68712H2.0108V5.05679H5.15201V5.68712Z" fill="white"/>
</g>
<defs>
<linearGradient id="paint0_linear_5687_209963" x1="124.432" y1="-43.2168" x2="591.847" y2="766.326" gradientUnits="userSpaceOnUse">
<stop stop-color="#5A62C3"/>
<stop offset="0.5" stop-color="#4D55BD"/>
<stop offset="1" stop-color="#3940AB"/>
</linearGradient>
<clipPath id="clip0_5687_209963">
<rect width="14" height="13.0703" fill="white" transform="translate(0 0.484985)"/>
</clipPath>
</defs>
</svg>
