<svg width="16" height="16" viewBox="0 0 16 16" fill="none" xmlns="http://www.w3.org/2000/svg">
<path d="M13.0312 5.8125C13.8769 5.8125 14.5625 5.12694 14.5625 4.28125C14.5625 3.43556 13.8769 2.75 13.0312 2.75C12.1856 2.75 11.5 3.43556 11.5 4.28125C11.5 5.12694 12.1856 5.8125 13.0312 5.8125Z" fill="currentColor"/>
<path d="M14.3438 6.25H10.9046C10.8303 6.25 10.7591 6.2795 10.7066 6.33201C10.6541 6.38452 10.6246 6.45574 10.6246 6.53V10.0781C10.6151 10.5916 10.7823 11.0928 11.0983 11.4977C11.4142 11.9027 11.8597 12.1867 12.3601 12.3024C12.6788 12.3692 13.0085 12.3642 13.325 12.2876C13.6415 12.211 13.9369 12.0648 14.1898 11.8596C14.4427 11.6544 14.6466 11.3954 14.7868 11.1015C14.927 10.8075 14.9998 10.486 15 10.1604V6.90625C15 6.7322 14.9309 6.56528 14.8078 6.44221C14.6847 6.31914 14.5178 6.25 14.3438 6.25Z" fill="currentColor"/>
<path d="M12.5 6.90625V11.0625C12.5004 11.8327 12.2466 12.5816 11.7779 13.1928C11.3092 13.8041 10.6519 14.2435 9.90795 14.443C9.16399 14.6424 8.37499 14.5907 7.6634 14.2959C6.95181 14.0011 6.35743 13.4797 5.9725 12.8125C5.88831 12.6726 5.81517 12.5263 5.75375 12.375C5.69649 12.2323 5.64827 12.0862 5.60938 11.9375C5.53725 11.6514 5.50052 11.3575 5.5 11.0625V6.90625C5.49989 6.82004 5.51678 6.73465 5.54972 6.65498C5.58266 6.57531 5.63099 6.50292 5.69196 6.44196C5.75292 6.38099 5.82531 6.33266 5.90498 6.29972C5.98465 6.26678 6.07004 6.24989 6.15625 6.25H11.8438C11.93 6.24989 12.0154 6.26678 12.095 6.29972C12.1747 6.33266 12.2471 6.38099 12.308 6.44196C12.369 6.50292 12.4173 6.57531 12.4503 6.65498C12.4832 6.73465 12.5001 6.82004 12.5 6.90625Z" fill="white"/>
<path d="M8.4375 5.66682C9.56517 5.66682 10.4793 4.75267 10.4793 3.625C10.4793 2.49734 9.56517 1.58319 8.4375 1.58319C7.30984 1.58319 6.39569 2.49734 6.39569 3.625C6.39569 4.75267 7.30984 5.66682 8.4375 5.66682Z" fill="currentColor"/>
<path d="M11.9375 6.90625V11.0625C11.9379 11.8327 11.6841 12.5816 11.2154 13.1928C10.7467 13.8041 10.0894 14.2435 9.34545 14.443C8.60149 14.6424 7.81249 14.5907 7.1009 14.2959C6.38931 14.0011 5.79493 13.4797 5.41 12.8125C5.32581 12.6726 5.25267 12.5263 5.19125 12.375C5.13399 12.2323 5.08577 12.0862 5.04688 11.9375C4.97475 11.6514 4.93802 11.3575 4.9375 11.0625V6.90625C4.93739 6.82004 4.95428 6.73465 4.98722 6.65498C5.02016 6.57531 5.06849 6.50292 5.12946 6.44196C5.19042 6.38099 5.26281 6.33266 5.34248 6.29972C5.42215 6.26678 5.50754 6.24989 5.59375 6.25H11.2812C11.3675 6.24989 11.4529 6.26678 11.5325 6.29972C11.6122 6.33266 11.6846 6.38099 11.7455 6.44196C11.8065 6.50292 11.8548 6.57531 11.8878 6.65498C11.9207 6.73465 11.9376 6.82004 11.9375 6.90625Z" fill="currentColor"/>
<path d="M1.1665 4H7.8335C8.01027 4 8.17979 4.07022 8.30479 4.19521C8.42978 4.32021 8.5 4.48973 8.5 4.6665V11.3335C8.5 11.5103 8.42978 11.6798 8.30479 11.8048C8.17979 11.9298 8.01027 12 7.8335 12H1.1665C0.989733 12 0.820206 11.9298 0.695213 11.8048C0.57022 11.6798 0.5 11.5103 0.5 11.3335L0.5 4.6665C0.5 4.48973 0.57022 4.32021 0.695213 4.19521C0.820206 4.07022 0.989733 4 1.1665 4Z" fill="white"/>
<path d="M1.58319 4.5H7.41681C7.57148 4.5 7.71982 4.56144 7.82919 4.67081C7.93856 4.78018 8 4.92852 8 5.08319V10.9168C8 11.0715 7.93856 11.2198 7.82919 11.3292C7.71982 11.4386 7.57148 11.5 7.41681 11.5H1.58319C1.42852 11.5 1.28018 11.4386 1.17081 11.3292C1.06144 11.2198 1 11.0715 1 10.9168V5.08319C1 4.92852 1.06144 4.78018 1.17081 4.67081C1.28018 4.56144 1.42852 4.5 1.58319 4.5Z" fill="currentColor"/>
<path d="M6.24125 6.67657H4.93313V10.1853H4.07475V6.67657H2.75875V5.8147H6.24125V6.67657Z" fill="white"/>
</svg>
