<svg width="16" height="16" viewBox="0 0 16 16" fill="none" xmlns="http://www.w3.org/2000/svg">
<path d="M1.96229 7.19499C5.72109 5.55772 8.22696 4.47822 9.4799 3.9567C13.0614 2.46748 13.8047 2.20884 14.2902 2.20009C14.397 2.19836 14.6347 2.22475 14.7898 2.35025C14.9187 2.456 14.9549 2.59902 14.9731 2.69933C14.9892 2.79965 15.0113 3.02828 14.9932 3.20675C14.7998 5.24529 13.9598 10.1922 13.5328 12.4754C13.3535 13.4416 12.997 13.7655 12.6525 13.7971C11.9032 13.866 11.3351 13.3024 10.61 12.8272C9.47587 12.0833 8.8353 11.6204 7.73344 10.8946C6.46036 10.0558 7.28625 9.59471 8.01142 8.84133C8.20077 8.64413 11.5003 5.64373 11.5627 5.37159C11.5708 5.33755 11.5789 5.21064 11.5023 5.14377C11.4278 5.07669 11.317 5.09965 11.2364 5.11778C11.1216 5.14356 9.31069 6.34171 5.79764 8.71201C5.28397 9.06533 4.81866 9.23756 4.39967 9.22849C3.94039 9.21862 3.05407 8.96824 2.39538 8.75431C1.58963 8.49184 0.947047 8.35305 1.00345 7.90727C1.03165 7.67522 1.35193 7.43772 1.96229 7.19499Z" stroke="currentColor" stroke-width="1.33"/>
</svg>
