<svg width="16" height="16" viewBox="0 0 16 16" fill="none" xmlns="http://www.w3.org/2000/svg">
<g clip-path="url(#clip0_5687_209698)">
<path d="M8 0C5.87875 0 3.8425 0.843375 2.34375 2.34313C0.84375 3.84288 0 5.87913 0 8C0 10.1209 0.84375 12.1571 2.34375 13.6569C3.8425 15.1566 5.87875 16 8 16C10.1213 16 12.1575 15.1566 13.6562 13.6569C15.1562 12.1571 16 10.1209 16 8C16 5.87913 15.1562 3.84288 13.6562 2.34313C12.1575 0.843375 10.1213 0 8 0Z" fill="url(#paint0_linear_5687_209698)"/>
<path d="M3.62125 7.91546C5.95375 6.89946 7.50875 6.22958 8.28625 5.90596C10.5087 4.98183 10.97 4.82133 11.2712 4.81591C11.3375 4.81483 11.485 4.83121 11.5812 4.90908C11.6612 4.97471 11.6837 5.06346 11.695 5.12571C11.705 5.18796 11.7187 5.32983 11.7075 5.44058C11.5875 6.70558 11.0662 9.77533 10.8012 11.1922C10.69 11.7917 10.4687 11.9927 10.255 12.0124C9.79 12.0551 9.4375 11.7054 8.9875 11.4105C8.28375 10.9488 7.88625 10.6616 7.2025 10.2112C6.4125 9.69071 6.925 9.40458 7.375 8.93708C7.4925 8.81471 9.54 6.95283 9.57875 6.78396C9.58375 6.76283 9.58875 6.68408 9.54125 6.64258C9.495 6.60096 9.42625 6.61521 9.37625 6.62646C9.305 6.64246 8.18125 7.38596 6.00125 8.85683C5.6825 9.07608 5.39375 9.18296 5.13375 9.17733C4.84875 9.17121 4.29875 9.01583 3.89 8.88308C3.39 8.72021 2.99125 8.63408 3.02625 8.35746C3.04375 8.21346 3.2425 8.06608 3.62125 7.91546Z" fill="white"/>
</g>
<defs>
<linearGradient id="paint0_linear_5687_209698" x1="800" y1="0" x2="800" y2="1600" gradientUnits="userSpaceOnUse">
<stop stop-color="#2AABEE"/>
<stop offset="1" stop-color="#229ED9"/>
</linearGradient>
<clipPath id="clip0_5687_209698">
<rect width="16" height="16" rx="2" fill="white"/>
</clipPath>
</defs>
</svg>
