<svg width="16" height="16" viewBox="0 0 16 16" fill="none" xmlns="http://www.w3.org/2000/svg">
<g clip-path="url(#clip0_1504_35908)">
<path d="M4.66659 14.6663H2.66659C2.31296 14.6663 1.97382 14.5259 1.72378 14.2758C1.47373 14.0258 1.33325 13.6866 1.33325 13.333V8.66634C1.33325 8.31272 1.47373 7.97358 1.72378 7.72353C1.97382 7.47348 2.31296 7.33301 2.66659 7.33301H4.66659M9.33325 5.99967V3.33301C9.33325 2.80257 9.12254 2.29387 8.74747 1.91879C8.37239 1.54372 7.86369 1.33301 7.33325 1.33301L4.66659 7.33301V14.6663H12.1866C12.5081 14.67 12.8202 14.5573 13.0652 14.349C13.3102 14.1407 13.4717 13.8509 13.5199 13.533L14.4399 7.53301C14.4689 7.34191 14.456 7.1468 14.4021 6.96118C14.3483 6.77556 14.2547 6.60387 14.1278 6.45802C14.001 6.31216 13.844 6.19563 13.6676 6.11649C13.4913 6.03734 13.2999 5.99749 13.1066 5.99967H9.33325Z" stroke="currentColor" stroke-width="1.33" stroke-linecap="round" stroke-linejoin="round"/>
</g>
<defs>
<clipPath id="clip0_1504_35908">
<rect width="16" height="16" fill="white"/>
</clipPath>
</defs>
</svg>
