<svg width="16" height="16" viewBox="0 0 16 16" fill="none" xmlns="http://www.w3.org/2000/svg">
<g clip-path="url(#clip0_5687_209711)">
<path d="M14.4375 0H1.5625C0.699555 0 0 0.699555 0 1.5625V14.4375C0 15.3004 0.699555 16 1.5625 16H14.4375C15.3004 16 16 15.3004 16 14.4375V1.5625C16 0.699555 15.3004 0 14.4375 0Z" fill="url(#paint0_linear_5687_209711)"/>
<path d="M13.17 2.08002H9.78998C9.37576 2.08002 9.03998 2.4158 9.03998 2.83002V8.33002C9.03998 8.74423 9.37576 9.08002 9.78998 9.08002H13.17C13.5842 9.08002 13.92 8.74423 13.92 8.33002V2.83002C13.92 2.4158 13.5842 2.08002 13.17 2.08002Z" fill="white"/>
<path d="M6.21002 2.08002H2.83002C2.4158 2.08002 2.08002 2.4158 2.08002 2.83002V12.33C2.08002 12.7442 2.4158 13.08 2.83002 13.08H6.21002C6.62423 13.08 6.96002 12.7442 6.96002 12.33V2.83002C6.96002 2.4158 6.62423 2.08002 6.21002 2.08002Z" fill="white"/>
</g>
<defs>
<linearGradient id="paint0_linear_5687_209711" x1="800" y1="0" x2="800" y2="1600" gradientUnits="userSpaceOnUse">
<stop stop-color="#0091E6"/>
<stop offset="1" stop-color="#0079BF"/>
</linearGradient>
<clipPath id="clip0_5687_209711">
<rect width="16" height="16" rx="2" fill="white"/>
</clipPath>
</defs>
</svg>
