<svg width="16" height="16" viewBox="0 0 16 16" fill="none" xmlns="http://www.w3.org/2000/svg">
<path d="M9.78998 2.74499H13.17C13.2169 2.74499 13.255 2.78304 13.255 2.82999V8.32999C13.255 8.37693 13.2169 8.41499 13.17 8.41499H9.78998C9.74303 8.41499 9.70498 8.37693 9.70498 8.32999V2.82999C9.70498 2.78304 9.74303 2.74499 9.78998 2.74499Z" stroke="currentColor" stroke-width="1.33"/>
<path d="M2.82999 2.74499H6.20999C6.25693 2.74499 6.29499 2.78304 6.29499 2.82999V12.33C6.29499 12.3769 6.25693 12.415 6.20999 12.415H2.82999C2.78304 12.415 2.74499 12.3769 2.74499 12.33V2.82999C2.74499 2.78304 2.78304 2.74499 2.82999 2.74499Z" stroke="currentColor" stroke-width="1.33"/>
</svg>
