<svg width="16" height="16" viewBox="0 0 16 16" fill="none" xmlns="http://www.w3.org/2000/svg">
<rect width="16" height="16" rx="2" fill="white"/>
<path d="M7.96359 1C6.11024 1.00965 4.33637 1.7539 3.03097 3.06954C1.72557 4.38518 0.995197 6.16482 1.00002 8.01818C1.00485 9.87154 1.74448 11.6474 3.05672 12.9562C4.36895 14.265 6.14668 15 8.00005 15C9.85342 15 11.6311 14.265 12.9434 12.9562C14.2556 11.6474 14.9952 9.87154 15.0001 8.01818C15.0049 6.16482 14.2745 4.38518 12.9691 3.06954C11.6637 1.7539 9.88985 1.00965 8.03651 1M8.03651 2.85939C9.3967 2.86903 10.6976 3.41738 11.6543 4.38431C12.611 5.35124 13.1455 6.65793 13.1407 8.01815C13.1359 9.37837 12.5921 10.6812 11.6286 11.6414C10.6651 12.6015 9.36028 13.1406 8.00005 13.1406C6.63982 13.1406 5.33503 12.6015 4.3715 11.6414C3.40797 10.6812 2.86424 9.37837 2.85942 8.01815C2.8546 6.65793 3.38907 5.35124 4.34577 4.38431C5.30247 3.41738 6.60339 2.86903 7.96359 2.85939M6.25733 4.82815C5.87506 4.83297 5.51022 4.98882 5.24246 5.26168C4.97471 5.53455 4.82577 5.90227 4.82818 6.28456C4.83059 6.66685 4.98414 7.03266 5.25531 7.30213C5.52649 7.5716 5.89326 7.72285 6.27556 7.72285C6.65785 7.72285 7.02462 7.5716 7.2958 7.30213C7.56697 7.03266 7.72053 6.66685 7.72293 6.28456C7.72534 5.90227 7.57641 5.53455 7.30865 5.26168C7.04089 4.98882 6.67605 4.83297 6.29379 4.82815H9.70631C9.32404 4.83297 8.95921 4.98882 8.69145 5.26168C8.42369 5.53455 8.27475 5.90227 8.27716 6.28456C8.27957 6.66685 8.43312 7.03266 8.70429 7.30213C8.97547 7.5716 9.34224 7.72285 9.72454 7.72285C10.1068 7.72285 10.4736 7.5716 10.7448 7.30213C11.016 7.03266 11.1695 6.66685 11.1719 6.28456C11.1743 5.90227 11.0254 5.53455 10.7576 5.26168C10.4899 4.98882 10.125 4.83297 9.74277 4.82815M6.25733 8.27349C5.87506 8.2783 5.51022 8.43415 5.24246 8.70702C4.97471 8.97989 4.82577 9.3476 4.82818 9.72989C4.83059 10.1122 4.98414 10.478 5.25531 10.7475C5.52649 11.0169 5.89326 11.1682 6.27556 11.1682C6.65785 11.1682 7.02462 11.0169 7.2958 10.7475C7.56697 10.478 7.72053 10.1122 7.72293 9.72989C7.72534 9.3476 7.57641 8.97989 7.30865 8.70702C7.04089 8.43415 6.67605 8.2783 6.29379 8.27349H9.70631C9.32404 8.2783 8.95921 8.43415 8.69145 8.70702C8.42369 8.97989 8.27475 9.3476 8.27716 9.72989C8.27957 10.1122 8.43312 10.478 8.70429 10.7475C8.97547 11.0169 9.34224 11.1682 9.72454 11.1682C10.1068 11.1682 10.4736 11.0169 10.7448 10.7475C11.016 10.478 11.1695 10.1122 11.1719 9.72989C11.1743 9.3476 11.0254 8.97989 10.7576 8.70702C10.4899 8.43415 10.125 8.2783 9.74277 8.27349" fill="#F12E45"/>
</svg>
