<svg width="16" height="16" viewBox="0 0 16 16" fill="none" xmlns="http://www.w3.org/2000/svg">
<path d="M5.55703 6.1763V6.17541C5.55703 5.17482 5.64149 4.55113 5.96796 4.14447C6.26624 3.77293 6.91959 3.415 8.55368 3.415H12.3433C13.9775 3.415 14.6289 3.773 14.9258 4.1442C15.2516 4.55137 15.335 5.17615 15.335 6.18033V9.83705C15.335 10.8379 15.2536 11.4576 14.9298 11.8617C14.6346 12.2302 13.9839 12.5876 12.3433 12.5876H8.56844C6.90725 12.5876 6.25318 12.2438 5.95798 11.8829C5.63632 11.4897 5.55214 10.8748 5.55211 9.82774C5.55211 9.82757 5.55211 9.82739 5.55211 9.82721L5.55703 6.1763ZM0.665 5.37811C0.665 4.58437 0.824125 4.08453 1.02668 3.80072C1.20614 3.54925 1.45435 3.415 1.83082 3.415C2.21074 3.415 2.46001 3.55004 2.63963 3.80122C2.84242 4.0848 3.00156 4.58431 3.00156 5.37811V10.6245C3.00156 11.4174 2.84154 11.917 2.63814 12.2009C2.45747 12.4531 2.2076 12.5876 1.83082 12.5876C1.45435 12.5876 1.20614 12.4534 1.02668 12.2019C0.824125 11.9181 0.665 11.4182 0.665 10.6245V5.37811Z" stroke="currentColor" stroke-width="1.33"/>
</svg>
