<svg width="16" height="16" viewBox="0 0 16 16" fill="none" xmlns="http://www.w3.org/2000/svg">
<rect width="16" height="16" rx="2" fill="white"/>
<path d="M6.33402 6.56995V6.56906C6.33402 5.81331 6.40187 5.40371 6.60561 5.14993C6.78116 4.93127 7.20566 4.665 8.41526 4.665H11.2575C12.4672 4.665 12.89 4.93133 13.0645 5.1495C13.2679 5.40365 13.335 5.81404 13.335 6.57275V9.31529C13.335 10.0719 13.2693 10.4781 13.0676 10.7298C12.8945 10.9459 12.4723 11.212 11.2575 11.212H8.42633C7.19331 11.212 6.76933 10.9549 6.59717 10.7444C6.39851 10.5016 6.33035 10.1007 6.33033 9.30809C6.33033 9.30803 6.33033 9.30797 6.33033 9.30791L6.33402 6.56995ZM2.665 5.97109C2.665 5.39389 2.78137 5.05831 2.90533 4.88462C3.00621 4.74327 3.13999 4.665 3.37312 4.665C3.60908 4.665 3.74362 4.74405 3.84449 4.88512C3.96853 5.05858 4.08492 5.39383 4.08492 5.97109V9.90588C4.08492 10.4822 3.96797 10.8176 3.84346 10.9913C3.74169 11.1334 3.60655 11.212 3.37312 11.212C3.13999 11.212 3.00621 11.1337 2.90533 10.9923C2.78137 10.8187 2.665 10.4831 2.665 9.90588V5.97109Z" fill="#21262E" stroke="#21262E" stroke-width="1.33"/>
</svg>
