<svg xmlns="http://www.w3.org/2000/svg" width="12" height="14" viewBox="0 0 12 14" fill="none">
<g>
<path d="M9.88889 6.4502H2.11111C1.49746 6.4502 1 6.94766 1 7.56131V11.4502C1 12.0638 1.49746 12.5613 2.11111 12.5613H9.88889C10.5025 12.5613 11 12.0638 11 11.4502V7.56131C11 6.94766 10.5025 6.4502 9.88889 6.4502Z" stroke="currentColor" stroke-width="1.33333" stroke-linecap="round" stroke-linejoin="round"/>
<path d="M7.69047 2.83943C7.94387 3.10527 8.36481 3.11535 8.63065 2.86194C8.89649 2.60854 8.90657 2.1876 8.65317 1.92176L7.69047 2.83943ZM3.665 4.4502C3.665 3.16061 4.71042 2.1152 6 2.1152V0.785195C3.97588 0.785195 2.335 2.42607 2.335 4.4502H3.665ZM2.335 4.4502V6.4502H3.665V4.4502H2.335ZM6 2.1152C6.6651 2.1152 7.26436 2.39241 7.69047 2.83943L8.65317 1.92176C7.98649 1.22237 7.04375 0.785195 6 0.785195V2.1152Z" fill="currentColor"/>
</g>
</svg>