<svg width="16" height="16" viewBox="0 0 16 16" fill="none" xmlns="http://www.w3.org/2000/svg">
<path d="M11.8889 7.45001H4.11111C3.49746 7.45001 3 7.94747 3 8.56112V12.45C3 13.0637 3.49746 13.5611 4.11111 13.5611H11.8889C12.5025 13.5611 13 13.0637 13 12.45V8.56112C13 7.94747 12.5025 7.45001 11.8889 7.45001Z" stroke="currentColor" stroke-width="1.33333" stroke-linecap="round" stroke-linejoin="round"/>
<path d="M10.1718 3.38041L10.6532 2.92158L10.6532 2.92158L10.1718 3.38041ZM10.2156 4.71044C10.3319 5.05884 10.7085 5.24705 11.0569 5.13082C11.4053 5.0146 11.5935 4.63795 11.4773 4.28956L10.2156 4.71044ZM5.665 5.45001C5.665 4.16043 6.71042 3.11501 8 3.11501V1.78501C5.97588 1.78501 4.335 3.42589 4.335 5.45001H5.665ZM4.335 5.45001V7.45001H5.665V5.45001H4.335ZM8 3.11501C8.6651 3.11501 9.26436 3.39222 9.69047 3.83924L10.6532 2.92158C9.98649 2.22219 9.04375 1.78501 8 1.78501V3.11501ZM9.69047 3.83924C9.92513 4.08542 10.1061 4.38208 10.2156 4.71044L11.4773 4.28956C11.3046 3.77199 11.0201 3.30655 10.6532 2.92158L9.69047 3.83924Z" stroke="transparent" fill="currentColor"/>
</svg>
