<svg width="16" height="16" viewBox="0 0 16 16" fill="none" xmlns="http://www.w3.org/2000/svg">
<path d="M15.3333 14.0002V12.6669C15.3328 12.0761 15.1362 11.5021 14.7742 11.0351C14.4122 10.5682 13.9053 10.2346 13.3333 10.0869" stroke="currentColor" stroke-width="1.33" stroke-linecap="round" stroke-linejoin="round"/>
<path d="M11.3334 14V12.6667C11.3334 11.9594 11.0525 11.2811 10.5524 10.781C10.0523 10.281 9.37399 10 8.66675 10H3.33341C2.62617 10 1.94789 10.281 1.4478 10.781C0.9477 11.2811 0.666748 11.9594 0.666748 12.6667V14" stroke="currentColor" stroke-width="1.33" stroke-linecap="round" stroke-linejoin="round"/>
<path d="M10.6667 2.08691C11.2404 2.23378 11.7488 2.56738 12.1118 3.03512C12.4749 3.50286 12.672 4.07813 12.672 4.67025C12.672 5.26236 12.4749 5.83763 12.1118 6.30537C11.7488 6.77311 11.2404 7.10671 10.6667 7.25358" stroke="currentColor" stroke-width="1.33" stroke-linecap="round" stroke-linejoin="round"/>
<path d="M5.99992 7.33333C7.47268 7.33333 8.66659 6.13943 8.66659 4.66667C8.66659 3.19391 7.47268 2 5.99992 2C4.52716 2 3.33325 3.19391 3.33325 4.66667C3.33325 6.13943 4.52716 7.33333 5.99992 7.33333Z" stroke="currentColor" stroke-width="1.33" stroke-linecap="round" stroke-linejoin="round"/>
</svg>
