<svg width="16" height="16" viewBox="0 0 16 16" fill="none" xmlns="http://www.w3.org/2000/svg">
<path d="M10.6667 14V12.6667C10.6667 11.9594 10.3858 11.2811 9.8857 10.781C9.3856 10.281 8.70733 10 8.00008 10H3.33341C2.62617 10 1.94789 10.281 1.4478 10.781C0.9477 11.2811 0.666748 11.9594 0.666748 12.6667V14" stroke="currentColor" stroke-width="1.33" stroke-linecap="round" stroke-linejoin="round"/>
<path d="M12 5.33301L15.3333 8.66634" stroke="currentColor" stroke-width="1.33" stroke-linecap="round" stroke-linejoin="round"/>
<path d="M15.3333 5.33301L12 8.66634" stroke="currentColor" stroke-width="1.33" stroke-linecap="round" stroke-linejoin="round"/>
<path d="M5.66667 7.33333C7.13943 7.33333 8.33333 6.13943 8.33333 4.66667C8.33333 3.19391 7.13943 2 5.66667 2C4.19391 2 3 3.19391 3 4.66667C3 6.13943 4.19391 7.33333 5.66667 7.33333Z" stroke="currentColor" stroke-width="1.33" stroke-linecap="round" stroke-linejoin="round"/>
</svg>
