<svg width="16" height="16" viewBox="0 0 16 16" fill="none" xmlns="http://www.w3.org/2000/svg">
<rect width="16" height="16" rx="2" fill="white"/>
<path d="M2 14.0585L2.84785 10.9607C2.1279 9.70969 1.88475 8.24023 2.16329 6.82378C2.44184 5.40733 3.22327 4.13958 4.36325 3.2547C5.50323 2.36981 6.92474 1.92758 8.36522 2.00968C9.8057 2.09178 11.1678 2.69267 12.2 3.70135C13.2322 4.71004 13.8647 6.05837 13.9807 7.49731C14.0966 8.93625 13.6883 10.3686 12.831 11.5297C11.9737 12.6909 10.7254 13.5024 9.31673 13.8144C7.90802 14.1264 6.43405 13.9178 5.16707 13.2272M3.43508 12.6399L5.31553 12.1451C6.3504 12.8174 7.59844 13.0805 8.81665 12.8832C10.0349 12.6859 11.136 12.0423 11.9058 11.0776C12.6755 10.113 13.0586 8.89644 12.9807 7.66482C12.9027 6.4332 12.3691 5.27468 11.4839 4.41485C10.5986 3.55502 9.42506 3.05542 8.19169 3.01333C6.95832 2.97124 5.75343 3.38968 4.81163 4.18717C3.86983 4.98465 3.25854 6.1041 3.09677 7.32754C2.93501 8.55098 3.23436 9.79083 3.93653 10.8057M7.00463 6.61591C7.07061 6.78086 7.00463 6.94581 6.64174 7.3483C6.4438 7.54624 6.50978 7.61222 6.85948 8.10707C7.20917 8.60193 7.7832 9.06379 8.31105 9.31122C8.83889 9.55865 8.8059 9.54215 9.02694 9.27823C9.52179 8.71739 9.38983 8.58543 9.88469 8.80977L10.7754 9.23864C11.0394 9.3706 11.0525 9.3706 11.0558 9.53555C11.0591 9.70051 10.9998 10.1294 10.8249 10.3141C10.6501 10.4989 10.0002 11.1323 8.84549 10.71C7.69083 10.2877 6.89906 9.95123 5.57945 8.16975C4.25984 6.38828 5.52667 5.33259 5.69822 5.26661C5.86977 5.20063 5.92915 5.21712 6.25905 5.22372C6.34703 5.22372 6.424 5.2787 6.48998 5.38867" fill="#25D366"/>
</svg>
