<svg width="16" height="16" viewBox="0 0 16 16" fill="none" xmlns="http://www.w3.org/2000/svg">
<path d="M1 15.0683L1.98916 11.4542C1.14922 9.99464 0.865536 8.28027 1.19051 6.62775C1.51548 4.97522 2.42715 3.49618 3.75713 2.46381C5.0871 1.43145 6.74553 0.915511 8.42609 1.01129C10.1067 1.10708 11.6958 1.80811 12.9 2.98491C14.1042 4.16171 14.8421 5.73477 14.9774 7.41353C15.1127 9.09229 14.6363 10.7633 13.6362 12.118C12.636 13.4727 11.1797 14.4195 9.53618 14.7835C7.89269 15.1475 6.17305 14.9041 4.69492 14.0984M2.67426 13.4133L4.86812 12.8359C6.07546 13.6203 7.53152 13.9273 8.95276 13.6971C10.374 13.4669 11.6587 12.716 12.5567 11.5906C13.4547 10.4652 13.9018 9.04585 13.8108 7.60896C13.7198 6.17207 13.0973 4.82046 12.0645 3.81733C11.0317 2.81419 9.66257 2.23132 8.22364 2.18222C6.78471 2.13312 5.37901 2.62129 4.28024 3.55169C3.18147 4.48209 2.46829 5.78811 2.27957 7.21546C2.09085 8.64281 2.44009 10.0893 3.25929 11.2733M6.83874 6.38523C6.91572 6.57767 6.83874 6.77012 6.41536 7.23968C6.18443 7.47061 6.26141 7.54759 6.66939 8.12492C7.07737 8.70225 7.74707 9.24109 8.36289 9.52976C8.97871 9.81842 8.94022 9.79918 9.1981 9.49127C9.77543 8.83696 9.62147 8.683 10.1988 8.94473L11.238 9.44508C11.5459 9.59904 11.5613 9.59904 11.5652 9.79148C11.569 9.98392 11.4997 10.4843 11.2957 10.6998C11.0917 10.9154 10.3335 11.6543 8.98641 11.1617C7.6393 10.669 6.71557 10.2764 5.17603 8.19805C3.63648 6.11966 5.11444 4.88802 5.31458 4.81104C5.51473 4.73406 5.58401 4.75331 5.96889 4.761C6.07153 4.761 6.16134 4.82515 6.23831 4.95345" fill="currentColor"/>
</svg>
