<svg width="16" height="16" viewBox="0 0 16 16" fill="none" xmlns="http://www.w3.org/2000/svg">
<g clip-path="url(#clip0_1504_35733)">
<path d="M0.666748 0.666992L15.3334 15.3337" stroke="currentColor" stroke-width="1.33" stroke-linecap="round" stroke-linejoin="round"/>
<path d="M8 13.333H8.00667" stroke="currentColor" stroke-width="1.33" stroke-linecap="round" stroke-linejoin="round"/>
<path d="M5.68677 10.7401C6.36357 10.2593 7.17322 10.001 8.00343 10.001C8.83365 10.001 9.6433 10.2593 10.3201 10.7401" stroke="currentColor" stroke-width="1.33" stroke-linecap="round" stroke-linejoin="round"/>
<path d="M11.1467 7.37305C11.6928 7.63955 12.2034 7.97324 12.6667 8.36638" stroke="currentColor" stroke-width="1.33" stroke-linecap="round" stroke-linejoin="round"/>
<path d="M3.33325 8.36677C4.32131 7.54066 5.5105 6.99091 6.77992 6.77344" stroke="currentColor" stroke-width="1.33" stroke-linecap="round" stroke-linejoin="round"/>
<path d="M0.946777 6.00008C1.87155 5.18264 2.93191 4.5329 4.08011 4.08008" stroke="currentColor" stroke-width="1.33" stroke-linecap="round" stroke-linejoin="round"/>
<path d="M7.13989 3.36649C8.56817 3.25141 10.005 3.42527 11.3646 3.87771C12.7242 4.33014 13.9787 5.05188 15.0532 5.99983" stroke="currentColor" stroke-width="1.33" stroke-linecap="round" stroke-linejoin="round"/>
</g>
<defs>
<clipPath id="clip0_1504_35733">
<rect width="16" height="16" fill="white"/>
</clipPath>
</defs>
</svg>
