<svg xmlns:xlink="http://www.w3.org/1999/xlink" id="wgV5LS1LZIasurnR" xmlns="http://www.w3.org/2000/svg" xlink:href="http://www.w3.org/1999/xlink" focusable="false" viewBox="0 0 46 25" height="25" preserveAspectRatio="xMidYMin slice" aria-hidden="true" class="kelyfos-2gQsg" width="46" ><defs><symbol id="logoW2" viewBox="0 0 46 25" fill="none"><path fill-rule="evenodd" clip-rule="evenodd" d="M30.8794 6.94402c.0361 1.79747-.6864 4.06228-2.1676 6.65068-.578 1.0425-1.2644 2.085-2.0592 3.1635 0 0-.8309 1.1504-2.276 2.5884C9.74542 33.4387.605418 15.5359.316406 2.66604V1.22806H5.69925C6.24115 7.69895 7.43333 18.6276 14.767 19.8139c2.1315.3595 4.5519-.4314 7.2253-2.9478 1.3006-1.0785 2.276-2.6963 2.276-2.6963 8.5981-12.3306-8.7065-11.71946-.4697-.6111-.3612 1.3661-2.0953 2.9119-2.0953 2.9119-3.1069-3.8106-4.2991-6.97418-4.3352-9.41874-.1084-6.470888 7.4782-8.19646 11.3437-4.96101 1.2645 1.07848 2.1315 2.6962 2.1676 4.85317Zm10.3322.71097c.0121-.05591.0241-.11183.0362-.17173l3.8294.21569c-.7226 9.74225-8.2007 17.54335-16.4015 14.37975-.7225-.2876-1.445-.6471-2.1675-1.1144.0361 0 .0722.0359.0722.0359.7225-.5392 1.4812-1.2222 2.1315-2.0131.0722-.0899.1354-.1798.1987-.2697.0632-.0898.1264-.1797.1987-.2696 6.6472 3.5231 11.0547-2.8759 12.0301-10.4253.0241-.14381.0482-.25566.0722-.36751Z" fill="#004038"></path></symbol></defs><desc aria-hidden="true"><p>SVGs not supported by this browser.</p></desc><use xlink:href="#logoW2" fill-rule="evenodd" class="kelyfos-3t2eQ kelyfos-3SNxf kelyfos-1T7TD"></use></svg>