<svg xmlns="http://www.w3.org/2000/svg" width="24" height="24" viewBox="0 0 24 24" fill="none">
  <g clip-path="url(#clip0_336_18826)">
    <mask id="mask0_336_18826" style="mask-type:luminance" maskUnits="userSpaceOnUse" x="0" y="0" width="25" height="24">
      <path d="M24.0612 0H0.0611572V24H24.0612V0Z" fill="white"/>
    </mask>
    <g mask="url(#mask0_336_18826)">
      <path fill-rule="evenodd" clip-rule="evenodd" d="M3.50318 11.7549H5.14798C5.38118 11.7549 5.58358 11.9116 5.63678 12.1334L7.84818 21.0684C7.87858 21.0688 10.2846 12.1405 10.2846 12.1405C10.3458 11.9133 10.5566 11.7549 10.7978 11.7549H13.3458C13.5746 11.7549 13.7746 11.9052 13.8328 12.1208L16.2564 21.1066C16.346 21.0502 18.4858 12.1334 18.4858 12.1334C18.5392 11.9116 18.7416 11.7549 18.9746 11.7549H20.6184C20.9482 11.7549 21.1892 12.0587 21.1058 12.3697L18.0898 23.6332C18.0326 23.8476 17.8354 23.9978 17.6086 23.9998L15.121 23.996C14.8926 23.9956 14.6936 23.8472 14.6352 23.6322C14.21 22.0712 12.1142 14.1768 12.1142 14.1768C12.1142 14.1768 9.91258 22.071 9.48758 23.6322C9.42898 23.8472 9.22998 23.9956 9.00178 23.996L6.51398 23.9998C6.28738 23.9978 6.09018 23.8476 6.03278 23.6332L3.01658 12.3685C2.93338 12.0581 3.17378 11.7549 3.50318 11.7549Z" fill="#005CB9"/>
      <path fill-rule="evenodd" clip-rule="evenodd" d="M19.926 8.44898C20.0322 8.44898 20.1402 8.43452 20.2476 8.4043C20.8836 8.22494 21.2554 7.55824 21.0782 6.9151C21.0524 6.82164 21.0252 6.72856 20.9966 6.63638C19.767 2.66698 16.175 0 12.0586 0C7.94723 0 4.35663 2.66266 3.12403 6.62562C3.09683 6.71272 3.07063 6.80126 3.04583 6.89026C2.86543 7.53264 3.23443 8.20108 3.86983 8.38316C4.50443 8.5654 5.16583 8.19222 5.34603 7.54984C5.36483 7.4834 5.38403 7.41752 5.40443 7.352C6.32263 4.40036 8.99663 2.41786 12.0586 2.41786C15.1244 2.41786 17.7994 4.40354 18.7148 7.35912C18.7358 7.42706 18.756 7.49552 18.775 7.56438C18.9224 8.0989 19.4028 8.44898 19.926 8.44898Z" fill="#F38B00"/>
    </g>
  </g>
  <defs>
    <clipPath id="clip0_336_18826">
      <rect width="24" height="24" fill="white"/>
    </clipPath>
  </defs>
</svg>