<svg width="16" height="16" viewBox="0 0 16 16" fill="none" xmlns="http://www.w3.org/2000/svg">
<g clip-path="url(#clip0_5687_209738)">
<g clip-path="url(#clip1_5687_209738)">
<path d="M8 16C12.4183 16 16 12.4183 16 8C16 3.58172 12.4183 0 8 0C3.58172 0 0 3.58172 0 8C0 12.4183 3.58172 16 8 16Z" fill="#005CB9"/>
<path d="M4.24 5.68C4.26 5.64 4.26 5.6 4.28 5.56C4.8 3.9 6.3 2.78 8.02 2.78C9.74 2.78 11.24 3.9 11.76 5.54C11.78 5.58 11.78 5.62 11.8 5.66C11.88 5.92 11.72 6.2 11.46 6.28C11.2 6.36 10.92 6.2 10.84 5.94C10.82 5.92 10.82 5.88 10.82 5.86C10.4 4.62 9.28 3.8 8 3.8C6.72 3.8 5.6 4.64 5.22 5.86C5.2 5.9 5.2 5.92 5.2 5.94C5.14 6.16 4.94 6.3 4.72 6.3C4.68 6.3 4.64 6.3 4.58 6.28C4.32 6.22 4.16 5.94 4.24 5.68Z" fill="#F38B00"/>
<path d="M11.78 7.94L10.52 12.7C10.5 12.78 10.42 12.86 10.32 12.86H9.27997C9.27997 12.86 9.09997 12.84 9.07997 12.74C8.89997 12.08 7.97997 8.74 7.97997 8.74C7.97997 8.74 7.09997 12.08 6.93997 12.74C6.91997 12.82 6.73997 12.9 6.73997 12.9H5.69997C5.59997 12.9 5.51997 12.84 5.49997 12.74L4.23997 7.98C4.19997 7.86 4.29997 7.72 4.43997 7.72H5.11997C5.21997 7.72 5.29997 7.78 5.31997 7.88C5.31997 7.88 6.21997 11.66 6.25997 11.68L7.27997 7.88C7.29997 7.8 7.39997 7.72 7.47997 7.72H8.53997C8.63997 7.72 8.71997 7.78 8.75997 7.88C8.75997 7.88 9.75997 11.66 9.77997 11.66L10.7 7.88C10.72 7.78 10.8 7.72 10.9 7.72H11.58C11.72 7.72 11.82 7.84 11.78 7.98" fill="white"/>
</g>
</g>
<defs>
<clipPath id="clip0_5687_209738">
<rect width="16" height="16" rx="2" fill="white"/>
</clipPath>
<clipPath id="clip1_5687_209738">
<rect width="16" height="16" fill="white"/>
</clipPath>
</defs>
</svg>
