<svg width="16" height="16" viewBox="0 0 16 16" fill="none" xmlns="http://www.w3.org/2000/svg">
<path fill-rule="evenodd" clip-rule="evenodd" d="M2.29548 7.83673H3.39201C3.54748 7.83673 3.68241 7.94121 3.71788 8.08905L5.19214 14.0457C5.21241 14.046 6.81641 8.09382 6.81641 8.09382C6.85721 7.94234 6.99775 7.83673 7.15855 7.83673H8.85721C9.00974 7.83673 9.14308 7.93693 9.18188 8.08068L10.7976 14.0712C10.8573 14.0336 12.2839 8.08905 12.2839 8.08905C12.3195 7.94121 12.4544 7.83673 12.6097 7.83673H13.7056C13.9255 7.83673 14.0861 8.03929 14.0305 8.24662L12.0199 15.7556C11.9817 15.8985 11.8503 15.9987 11.6991 16L10.0407 15.9975C9.88841 15.9972 9.75574 15.8983 9.71681 15.7549C9.43334 14.7143 8.03615 9.45133 8.03615 9.45133C8.03615 9.45133 6.56841 14.7141 6.28508 15.7549C6.24601 15.8983 6.11334 15.9972 5.96121 15.9975L4.30268 16C4.15161 15.9987 4.02014 15.8985 3.98188 15.7556L1.97108 8.24584C1.91561 8.03885 2.07588 7.83673 2.29548 7.83673Z" fill="currentColor"/>
<path fill-rule="evenodd" clip-rule="evenodd" d="M13.2441 5.63265C13.3149 5.63265 13.3869 5.62301 13.4585 5.60287C13.8825 5.48329 14.1303 5.03883 14.0122 4.61007C13.995 4.54776 13.9769 4.48571 13.9578 4.42425C13.1381 1.77799 10.7434 0 7.99913 0C5.25819 0 2.86446 1.77511 2.04273 4.41708C2.02459 4.47515 2.00713 4.53417 1.99059 4.59351C1.87033 5.02176 2.11633 5.46739 2.53993 5.58877C2.96299 5.71027 3.40393 5.46148 3.52406 5.03323C3.53659 4.98893 3.54939 4.94501 3.56299 4.90133C4.17513 2.93357 5.95779 1.61191 7.99913 1.61191C10.043 1.61191 11.8263 2.93569 12.4366 4.90608C12.4506 4.95137 12.4641 4.99701 12.4767 5.04292C12.575 5.39927 12.8953 5.63265 13.2441 5.63265Z" fill="currentColor"/>
</svg>
