<svg xmlns="http://www.w3.org/2000/svg" width="23" height="24" viewBox="0 0 23 24" fill="none">
    <path d="M11.478 23.7338C17.8159 23.7338 22.9539 18.4788 22.9539 11.9973C22.9539 5.51466 17.8164 0.260742 11.478 0.260742C5.13963 0.260742 0.00164795 5.51466 0.00164795 11.9973C0.00164795 18.4788 5.13963 23.7338 11.478 23.7338Z" fill="#13B5EA"/>    <path d="M5.49531 11.9656L7.45361 9.95694C7.51226 9.88807 7.54302 9.79899 7.53963 9.7078C7.53624 9.6166 7.49896 9.53015 7.43537 9.46602C7.37177 9.40189 7.28664 9.3649 7.19728 9.36257C7.10792 9.36023 7.02105 9.39274 6.95433 9.45346L4.99705 11.4533L3.03211 9.44981C2.96576 9.38298 2.87613 9.34579 2.78293 9.34642C2.68972 9.34706 2.60059 9.38547 2.53512 9.4532C2.46966 9.52093 2.43323 9.61244 2.43385 9.7076C2.43448 9.80275 2.4721 9.89376 2.53844 9.96059L4.49674 11.9625L2.53947 13.966C2.50492 13.9986 2.47714 14.038 2.45778 14.0818C2.43841 14.1256 2.42786 14.1729 2.42674 14.2209C2.42561 14.269 2.43395 14.3167 2.45125 14.3614C2.46855 14.4061 2.49446 14.4468 2.52745 14.4811C2.56044 14.5153 2.59983 14.5425 2.64329 14.5609C2.68675 14.5794 2.73339 14.5887 2.78045 14.5884C2.82752 14.5881 2.87404 14.5782 2.91727 14.5592C2.9605 14.5402 2.99955 14.5125 3.03211 14.4778L4.99449 12.4733L6.94922 14.47C6.99739 14.5223 7.05986 14.5586 7.12851 14.5741C7.19716 14.5896 7.2688 14.5837 7.3341 14.557C7.39939 14.5304 7.45532 14.4843 7.49459 14.4248C7.53387 14.3652 7.55467 14.295 7.55429 14.2232C7.55451 14.1762 7.54559 14.1297 7.52805 14.0862C7.5105 14.0428 7.48468 14.0033 7.45208 13.9702L5.4948 11.9635M17.1373 11.9651C17.1373 12.3251 17.4235 12.6173 17.7761 12.6173C17.9455 12.6172 18.108 12.5484 18.2277 12.4261C18.3475 12.3037 18.4147 12.1378 18.4146 11.9649C18.4145 11.7919 18.3472 11.626 18.2273 11.5038C18.1075 11.3815 17.945 11.3129 17.7756 11.3129C17.4245 11.3129 17.1388 11.6051 17.1388 11.9651M15.9287 11.9651C15.9287 10.9242 16.7566 10.0764 17.7756 10.0764C18.7925 10.0764 19.6219 10.9242 19.6219 11.9651C19.6219 13.006 18.793 13.8538 17.7756 13.8538C17.2855 13.853 16.8157 13.6536 16.4694 13.2995C16.1232 12.9454 15.9287 12.4655 15.9287 11.9651ZM15.202 11.9651C15.202 13.4155 16.3569 14.5968 17.7756 14.5968C19.1942 14.5968 20.3492 13.4166 20.3492 11.9656C20.3492 10.5152 19.1942 9.33398 17.7756 9.33398C17.0927 9.33537 16.4383 9.6132 15.9558 10.1066C15.4733 10.5999 15.2022 11.268 15.202 11.9651ZM15.0195 9.37885H14.9122C14.5877 9.37885 14.275 9.4832 14.0138 9.68929C13.9959 9.60959 13.9521 9.53841 13.8896 9.48728C13.8271 9.43615 13.7495 9.40805 13.6694 9.40755C13.6236 9.40755 13.5782 9.41679 13.5359 9.43475C13.4936 9.45271 13.4552 9.47903 13.4229 9.5122C13.3906 9.54537 13.3651 9.58472 13.3477 9.62801C13.3304 9.67129 13.3216 9.71765 13.3219 9.76442L13.3229 14.1966C13.3279 14.2882 13.367 14.3743 13.4323 14.4373C13.4976 14.5003 13.5841 14.5353 13.6739 14.5352C13.7638 14.535 13.8501 14.4998 13.9153 14.4366C13.9804 14.3734 14.0193 14.2871 14.024 14.1955V11.47C14.024 10.5622 14.1058 10.1949 14.8662 10.0978C14.9378 10.0889 15.0134 10.0905 15.0144 10.0905C15.2219 10.0827 15.3701 9.93607 15.3701 9.73833C15.3698 9.64304 15.3326 9.55173 15.2665 9.48445C15.2004 9.41716 15.1108 9.37938 15.0175 9.37938M8.28098 11.5326C8.28098 11.5222 8.282 11.5117 8.28252 11.5023C8.38462 11.0906 8.61909 10.7257 8.94838 10.4661C9.27768 10.2065 9.68276 10.0672 10.0988 10.0705C10.5148 10.0738 10.9177 10.2196 11.243 10.4843C11.5683 10.7491 11.7972 11.1177 11.893 11.531H8.28047L8.28098 11.5326ZM12.611 11.4648C12.4597 10.7328 12.0678 10.1312 11.4714 9.74511C11.0392 9.46813 10.5364 9.32778 10.0263 9.34171C9.51624 9.35563 9.02155 9.52321 8.60447 9.82338C8.18243 10.1334 7.86088 10.5652 7.6812 11.0633C7.50151 11.5613 7.47191 12.1029 7.59619 12.6183C7.72614 13.1313 8.00369 13.5927 8.39302 13.943C8.78235 14.2934 9.26559 14.5165 9.78037 14.5837C10.0911 14.6223 10.3936 14.6046 10.7053 14.5211C10.9783 14.4534 11.2384 14.3398 11.475 14.1851C11.7238 14.0218 11.9318 13.8058 12.1342 13.5475C12.1373 13.5423 12.1414 13.5387 12.1455 13.5335C12.2855 13.3561 12.2594 13.1025 12.1061 12.9825C11.9763 12.8808 11.7586 12.8396 11.5879 13.0639C11.5511 13.1182 11.5097 13.1735 11.4653 13.2282C11.3288 13.3822 11.1597 13.5309 10.9573 13.6467C10.6987 13.7875 10.4054 13.8674 10.0936 13.8695C9.07258 13.8575 8.52679 13.1286 8.33209 12.6089C8.29808 12.5104 8.27193 12.4092 8.2539 12.3063L8.24879 12.2515H11.9129C12.4148 12.2401 12.6846 11.8775 12.61 11.4637L12.611 11.4648Z" fill="white"/>
</svg>