<svg width="16" height="16" viewBox="0 0 16 16" fill="none" xmlns="http://www.w3.org/2000/svg">
<path d="M7.37455 11.2757L7.37448 11.2758L7.37851 11.2796C8.25368 12.1119 9.35472 12.5981 10.5888 12.5981C11.8214 12.5981 12.9678 12.1147 13.8465 11.1429C14.6814 10.3064 15.165 9.1629 15.165 7.9326C15.165 7.31399 15.0328 6.7434 14.8155 6.17675L14.8156 6.17672L14.8138 6.17241C14.5943 5.64527 14.2858 5.15947 13.8456 4.71936L13.8458 4.71919L13.8392 4.71321C13.4082 4.32661 12.9251 3.97291 12.3926 3.7512C11.8643 3.53127 11.2488 3.4 10.6324 3.4C10.2456 3.4 9.85626 3.44128 9.50692 3.5273C9.44646 3.53057 9.4001 3.54632 9.36836 3.55865C9.35753 3.56286 9.35182 3.5652 9.34786 3.56682C9.3461 3.56754 9.34469 3.56812 9.34334 3.56865L9.33281 3.57037C8.97718 3.62819 8.79259 3.98253 8.90261 4.2863C8.96871 4.62799 9.31209 4.80455 9.6094 4.70087C9.62965 4.69753 9.64675 4.69213 9.65961 4.68739C9.67826 4.68053 9.69556 4.67207 9.70512 4.6674L9.70681 4.66657L9.7153 4.6625H9.72101L9.74329 4.65611C10.0257 4.57514 10.3074 4.53582 10.5888 4.53582C11.52 4.53582 12.3693 4.89975 13.0183 5.54876C13.6673 6.19777 14.0313 7.04709 14.0313 7.97829C14.0313 8.9095 13.6673 9.75882 13.0183 10.4078C12.3693 11.0568 11.52 11.4208 10.5888 11.4208C9.69702 11.4208 8.84897 11.0976 8.20286 10.4514L5.78428 8.03287C5.78414 8.03273 5.78399 8.03258 5.78384 8.03243C5.67923 7.9259 5.61983 7.7973 5.61983 7.68131C5.61983 7.56452 5.67994 7.43409 5.78334 7.33069L5.78381 7.33021C5.97236 7.14011 6.29116 7.13941 6.48244 7.33063C6.48246 7.33065 6.48248 7.33067 6.4825 7.33069L8.68805 9.53832L8.6881 9.53837C9.34652 10.1968 10.3856 10.1968 11.044 9.53837L11.0443 9.53874L11.0528 9.52879C11.3257 9.20891 11.516 8.79012 11.516 8.36043C11.516 7.94153 11.3765 7.51505 11.044 7.18249L8.62446 4.76297L8.6245 4.76293L8.62149 4.76008C7.74632 3.92781 6.64527 3.44154 5.41121 3.44154C4.80259 3.44154 4.18279 3.52654 3.60157 3.7953L3.60153 3.79522L3.59679 3.7976C3.07799 4.05806 2.59439 4.36447 2.15436 4.80451L2.15417 4.80432L2.14794 4.8113C1.7624 5.24318 1.40837 5.7241 1.18635 6.3006C0.921736 6.8799 0.835 7.49757 0.835 8.10498C0.835 9.29627 1.31852 10.4424 2.20094 11.2796C3.07674 12.1125 4.2195 12.5981 5.41121 12.5981C5.84466 12.5981 6.24052 12.5536 6.67845 12.4237C7.02671 12.3603 7.20624 12.0103 7.09739 11.7098C7.03042 11.3635 6.6788 11.1869 6.37885 11.2994C6.0567 11.3796 5.73291 11.4187 5.41121 11.4187C4.51945 11.4187 3.6714 11.0955 3.02529 10.4494L3.02511 10.4492C2.37559 9.80166 2.01235 8.9501 2.01235 8.06345C2.01235 7.12496 2.33757 6.23648 2.98168 5.59237C3.63069 4.94336 4.48001 4.57943 5.41121 4.57943C6.30298 4.57943 7.15103 4.90265 7.79714 5.54876L10.2136 7.96525C10.2138 7.96539 10.2139 7.96553 10.2141 7.96567C10.3187 8.0722 10.3781 8.20082 10.3781 8.31682C10.3781 8.43361 10.318 8.56404 10.2146 8.66744L10.2141 8.66791C10.0256 8.85799 9.70683 8.85872 9.51554 8.66755C9.5155 8.66751 9.51546 8.66747 9.51543 8.66744L7.31201 6.45986L7.31238 6.45949L7.30231 6.4509C6.98244 6.178 6.56364 5.98775 6.13396 5.98775C5.66884 5.98775 5.28693 6.12884 4.95602 6.45975L4.95565 6.45939L4.94716 6.46933C4.67426 6.78921 4.48401 7.20801 4.48401 7.63769C4.48401 8.05638 4.62332 8.48264 4.9555 8.81511C4.95567 8.81529 4.95584 8.81546 4.95602 8.81563L7.37455 11.2757Z" fill="currentColor" stroke="currentColor" stroke-width="0.33"/>
</svg>
