<svg width="16" height="16" viewBox="0 0 16 16" fill="none" xmlns="http://www.w3.org/2000/svg">
<rect width="16" height="16" rx="2" fill="white"/>
<g clip-path="url(#clip0_5687_209730)">
<path d="M2.65204 4.15555C2.49354 4.39479 2.4231 4.67834 2.46713 4.96188L3.09229 8.84733L1.65707 9.0777L1.03191 5.19226C0.926252 4.50998 1.08474 3.83657 1.48097 3.2872C1.86839 2.73783 2.45832 2.37454 3.12751 2.26821L6.97971 1.6391L7.20864 3.09226L3.34763 3.72138C3.06587 3.76568 2.81933 3.92517 2.65204 4.15555Z" fill="#E42527"/>
<path d="M4.13461 13.3132C4.37234 13.4727 4.65409 13.5436 4.93585 13.4993L8.79686 12.8701L9.02579 14.3144L5.16479 14.9436C4.4868 15.0499 3.81762 14.8904 3.2717 14.4917C2.72579 14.1018 2.36479 13.5081 2.25912 12.8347L1.63397 8.95807L3.07799 8.72769L3.70315 12.6132C3.74718 12.8967 3.90567 13.1448 4.13461 13.3132Z" fill="#FAB31C"/>
<path d="M13.2731 11.8201C13.4315 11.5808 13.502 11.2973 13.458 11.0137L12.8328 7.12833L14.268 6.89795L14.8932 10.7833C14.9988 11.4656 14.8403 12.139 14.4441 12.6884C14.0567 13.2378 13.4668 13.6011 12.7976 13.7074L8.94542 14.3365L8.71649 12.8833L12.5775 12.2542C12.8592 12.2099 13.1058 12.0504 13.2731 11.8201Z" fill="#226DB4"/>
<path d="M11.7906 2.66249C11.5529 2.503 11.2711 2.43211 10.9893 2.47642L7.12834 3.10553L6.89941 1.66123L10.7604 1.03211C11.4384 0.925786 12.1076 1.08528 12.6535 1.48401C13.1994 1.87389 13.5604 2.46755 13.6661 3.14097L14.2912 7.01755L12.8472 7.24793L12.222 3.36249C12.178 3.07895 12.0195 2.83085 11.7906 2.66249Z" fill="#089949"/>
</g>
<defs>
<clipPath id="clip0_5687_209730">
<rect width="14" height="14" fill="white" transform="translate(1 1)"/>
</clipPath>
</defs>
</svg>
