<svg xmlns="http://www.w3.org/2000/svg" width="25" height="24" viewBox="0 0 25 24" fill="none">
  <g clip-path="url(#clip0_998_23440)">
    <path fill-rule="evenodd" clip-rule="evenodd" d="M6.45961 0C3.26016 0 0.666504 2.59366 0.666504 5.7931V17.3793C0.666504 20.5788 3.26016 23.1724 6.45961 23.1724H18.0458C18.16 23.1724 18.2735 23.1691 18.3861 23.1626C18.1672 22.6582 18.0458 22.1018 18.0458 21.517C18.0458 19.2322 19.8992 17.3793 22.1859 17.3793C22.7696 17.3793 23.3253 17.5005 23.8291 17.7192C23.8356 17.6067 23.8389 17.4934 23.8389 17.3793V5.7931C23.8389 2.59366 21.2453 0 18.0458 0H6.45961Z" fill="white"/>
    <path fill-rule="evenodd" clip-rule="evenodd" d="M6.45966 0.828125C3.71728 0.828125 1.49414 3.05126 1.49414 5.79364V17.3798C1.49414 20.1222 3.71728 22.3454 6.45966 22.3454H18.0459C18.0735 22.3454 18.1011 22.3452 18.1286 22.3447C18.0743 22.0774 18.0459 21.8008 18.0459 21.5176C18.0459 19.2327 19.8993 17.3798 22.1859 17.3798C22.4683 17.3798 22.7442 17.4082 23.0107 17.4623C23.0112 17.4348 23.0114 17.4074 23.0114 17.3798V5.79364C23.0114 3.05126 20.7882 0.828125 18.0459 0.828125H6.45966Z" fill="white"/>
    <path fill-rule="evenodd" clip-rule="evenodd" d="M6.45966 0.828125C3.71728 0.828125 1.49414 3.05126 1.49414 5.79364V17.3798C1.49414 20.1222 3.71728 22.3454 6.45966 22.3454H18.0459C18.0735 22.3454 18.1011 22.3452 18.1286 22.3447C18.0743 22.0774 18.0459 21.8008 18.0459 21.5176C18.0459 19.2327 19.8993 17.3798 22.1859 17.3798C22.4683 17.3798 22.7442 17.4082 23.0107 17.4623C23.0112 17.4348 23.0114 17.4074 23.0114 17.3798V5.79364C23.0114 3.05126 20.7882 0.828125 18.0459 0.828125H6.45966Z" fill="url(#paint0_linear_998_23440)"/>
    <path fill-rule="evenodd" clip-rule="evenodd" d="M6.04575 2.89648C4.67456 2.89648 3.56299 4.00805 3.56299 5.37924V17.793C3.56299 19.1642 4.67456 20.2758 6.04575 20.2758H18.2353C18.6395 18.9895 19.6554 17.9737 20.9423 17.5691V5.37924C20.9423 4.00805 19.8307 2.89648 18.4595 2.89648H6.04575Z" fill="white"/>
    <path d="M9.75798 11.4715V15.8553C9.75798 16.6378 9.19555 17.2724 8.50191 17.2712L6.45972 17.2671L6.47043 12.1926V12.0286C6.48773 10.7594 7.52076 9.95062 8.47448 10.2876C8.70587 10.3699 8.91347 10.5226 9.08519 10.7158L9.75798 11.4715Z" fill="url(#paint1_linear_998_23440)"/>
    <path d="M14.7468 11.7955V7.20889C14.7468 6.42579 15.3099 5.79119 16.0035 5.79297L18.0457 5.79657L18.035 11.0744V11.2378C18.0171 12.5076 16.9841 13.3164 16.0309 12.9788C15.7989 12.8971 15.592 12.7444 15.4202 12.5512L14.7468 11.7955Z" fill="url(#paint2_linear_998_23440)"/>
    <path d="M18.0314 10.8896V14.7181C18.041 16.5629 16.3375 17.8112 14.9974 17.0311C14.8345 16.9362 14.6878 16.8104 14.5554 16.6678L10.3935 12.1851L9.7577 11.4717L9.08495 10.716C8.91319 10.5228 8.70559 10.3701 8.47419 10.2878C7.52048 9.95082 6.48749 10.7596 6.47019 12.0288V11.9865L6.46899 8.7711V8.24264C6.46899 6.24936 8.44854 5.1281 9.80603 6.35434L15.2658 12.3187C15.397 12.4624 15.5532 12.5835 15.7316 12.6622C16.7563 13.1179 18.0314 12.2346 18.0314 10.8896Z" fill="url(#paint3_linear_998_23440)"/>
    <path d="M18.0314 14.4659V14.717C18.041 16.5618 16.3375 17.8101 14.9974 17.03C14.8345 16.9352 14.6878 16.8093 14.5554 16.6668L10.3935 12.184L9.7577 11.4706L9.08495 10.715C8.91319 10.5217 8.70559 10.369 8.47419 10.2867C7.52048 9.94975 6.48749 10.7585 6.47019 12.0277V11.9854L6.46899 8.77003V8.72467C6.7183 7.55865 8.04298 7.04811 8.87144 7.94513L15.6272 15.2538C16.458 16.1533 17.7869 15.6367 18.0314 14.4659Z" fill="url(#paint4_linear_998_23440)"/>
    <path d="M24.6664 21.5178C24.6664 22.8889 23.5544 24.0007 22.1849 24.0007C20.813 24.0007 19.7009 22.8889 19.7009 21.5178C19.7009 20.1469 20.813 19.0352 22.1849 19.0352C23.5544 19.0352 24.6664 20.1469 24.6664 21.5178Z" fill="url(#paint5_linear_998_23440)"/>
  </g>
  <defs>
    <linearGradient id="paint0_linear_998_23440" x1="5.81791" y1="17.9909" x2="25.4352" y2="-1.53259" gradientUnits="userSpaceOnUse">
      <stop stop-color="#4351E8"/>
      <stop offset="1" stop-color="#2A1EA5"/>
    </linearGradient>
    <linearGradient id="paint1_linear_998_23440" x1="7.69729" y1="14.0296" x2="1.13477" y2="17.5128" gradientUnits="userSpaceOnUse">
      <stop stop-color="#4351E8"/>
      <stop offset="1" stop-color="#2A1EA5"/>
    </linearGradient>
    <linearGradient id="paint2_linear_998_23440" x1="16.6256" y1="9.24272" x2="23.7968" y2="11.7576" gradientUnits="userSpaceOnUse">
      <stop stop-color="#4351E8"/>
      <stop offset="1" stop-color="#2A1EA5"/>
    </linearGradient>
    <linearGradient id="paint3_linear_998_23440" x1="8.13182" y1="11.8767" x2="20.6651" y2="10.8879" gradientUnits="userSpaceOnUse">
      <stop stop-color="#4351E8"/>
      <stop offset="1" stop-color="#2A1EA5"/>
    </linearGradient>
    <linearGradient id="paint4_linear_998_23440" x1="3.22261" y1="8.04655" x2="17.0602" y2="15.0162" gradientUnits="userSpaceOnUse">
      <stop stop-color="#4351E8"/>
      <stop offset="1" stop-color="#2A1EA5"/>
    </linearGradient>
    <linearGradient id="paint5_linear_998_23440" x1="809.806" y1="-261.569" x2="790.697" y2="-272.877" gradientUnits="userSpaceOnUse">
      <stop stop-color="#ED1A2C"/>
      <stop offset="1" stop-color="#EE215D"/>
    </linearGradient>
    <clipPath id="clip0_998_23440">
      <rect width="24" height="24" fill="white" transform="translate(0.666504)"/>
    </clipPath>
  </defs>
</svg>