<svg xmlns="http://www.w3.org/2000/svg" width="60" height="60" viewBox="0 0 60 60" fill="none">
  <path d="M34 10H19C17.9391 10 16.1199 10.2234 15.1716 11.1716C14.2233 12.1198 14 13.9391 14 15V46C14 47.0609 14.4214 48.0783 15.1716 48.8284C15.9217 49.5786 16.9391 50 18 50H42C43.0609 50 44.0783 49.5786 44.8284 48.8284C45.5786 48.0783 46 47.0609 46 46V22L34 10Z" fill="#1FAB51"/>
  <path d="M32 43.5H8C6.61929 43.5 5.5 44.6193 5.5 46V53C5.5 54.3807 6.61929 55.5 8 55.5H32C33.3807 55.5 34.5 54.3807 34.5 53V46C34.5 44.6193 33.3807 43.5 32 43.5Z" fill="#1FAB51"/>
  <path d="M32 43.5H8C6.61929 43.5 5.5 44.6193 5.5 46V53C5.5 54.3807 6.61929 55.5 8 55.5H32C33.3807 55.5 34.5 54.3807 34.5 53V46C34.5 44.6193 33.3807 43.5 32 43.5Z" stroke="white"/>
  <mask id="mask0_643_392371" style="mask-type:luminance" maskUnits="userSpaceOnUse" x="7" y="45" width="26" height="9">
    <path d="M33 45H7V54H33V45Z" fill="white"/>
  </mask>
  <g mask="url(#mask0_643_392371)">
    <path d="M7.23199 53.1699V51.6229H8.77899V53.1699H7.23199ZM14.2199 53.3799C13.4452 53.3799 12.7872 53.2072 12.2459 52.8619C11.7045 52.5166 11.2892 52.0429 10.9999 51.4409C10.7152 50.8389 10.5705 50.1552 10.5659 49.3899C10.5705 48.6106 10.7199 47.9222 11.0139 47.3249C11.3079 46.7229 11.7279 46.2516 12.2739 45.9109C12.8199 45.5702 13.4755 45.3999 14.2409 45.3999C15.0669 45.3999 15.7715 45.6052 16.3549 46.0159C16.9429 46.4266 17.3302 46.9889 17.5169 47.7029L16.0609 48.1229C15.9162 47.6982 15.6782 47.3692 15.3469 47.1359C15.0202 46.8979 14.6445 46.7789 14.2199 46.7789C13.7392 46.7789 13.3449 46.8932 13.0369 47.1219C12.7289 47.3459 12.5002 47.6539 12.3509 48.0459C12.2015 48.4379 12.1245 48.8859 12.1199 49.3899C12.1245 50.1692 12.3019 50.7992 12.6519 51.2799C13.0065 51.7606 13.5292 52.0009 14.2199 52.0009C14.6912 52.0009 15.0715 51.8936 15.3609 51.6789C15.6549 51.4596 15.8789 51.1469 16.0329 50.7409L17.5169 51.0909C17.2695 51.8282 16.8612 52.3952 16.2919 52.7919C15.7225 53.1839 15.0319 53.3799 14.2199 53.3799ZM21.8339 53.3729C20.9146 53.3729 20.1656 53.1699 19.5869 52.7639C19.0082 52.3579 18.6536 51.7862 18.5229 51.0489L20.0209 50.8179C20.1142 51.2099 20.3289 51.5202 20.6649 51.7489C21.0056 51.9729 21.4279 52.0849 21.9319 52.0849C22.3892 52.0849 22.7462 51.9916 23.0029 51.8049C23.2642 51.6182 23.3949 51.3616 23.3949 51.0349C23.3949 50.8436 23.3482 50.6896 23.2549 50.5729C23.1662 50.4516 22.9772 50.3372 22.6879 50.2299C22.3986 50.1226 21.9576 49.9896 21.3649 49.8309C20.7162 49.6629 20.2006 49.4832 19.8179 49.2919C19.4399 49.0959 19.1692 48.8696 19.0059 48.6129C18.8472 48.3516 18.7679 48.0366 18.7679 47.6679C18.7679 47.2106 18.8892 46.8116 19.1319 46.4709C19.3746 46.1302 19.7152 45.8666 20.1539 45.6799C20.5972 45.4932 21.1152 45.3999 21.7079 45.3999C22.2866 45.3999 22.8022 45.4909 23.2549 45.6729C23.7076 45.8549 24.0739 46.1139 24.3539 46.4499C24.6339 46.7812 24.8019 47.1709 24.8579 47.6189L23.3599 47.8919C23.3086 47.5279 23.1382 47.2409 22.8489 47.0309C22.5596 46.8209 22.1839 46.7066 21.7219 46.6879C21.2786 46.6692 20.9192 46.7439 20.6439 46.9119C20.3686 47.0752 20.2309 47.3016 20.2309 47.5909C20.2309 47.7589 20.2822 47.9012 20.3849 48.0179C20.4922 48.1346 20.6976 48.2466 21.0009 48.3539C21.3042 48.4612 21.7522 48.5896 22.3449 48.7389C22.9796 48.9022 23.4836 49.0842 23.8569 49.2849C24.2302 49.4809 24.4962 49.7166 24.6549 49.9919C24.8182 50.2626 24.8999 50.5916 24.8999 50.9789C24.8999 51.7256 24.6269 52.3112 24.0809 52.7359C23.5396 53.1606 22.7906 53.3729 21.8339 53.3729ZM28.2193 53.1699L25.4753 45.6099H26.9523L28.9613 51.3359L30.9703 45.6099H32.4473L29.7033 53.1699H28.2193Z" fill="white"/>
  </g>
  <path d="M34 10V22H46" fill="#7DE6A3"/>
  <path d="M53.5 50C53.5 45.8579 50.1421 42.5 46 42.5C41.8579 42.5 38.5 45.8579 38.5 50C38.5 54.1421 41.8579 57.5 46 57.5C50.1421 57.5 53.5 54.1421 53.5 50Z" fill="#1FAB51"/>
  <path d="M53.5 50C53.5 45.8579 50.1421 42.5 46 42.5C41.8579 42.5 38.5 45.8579 38.5 50C38.5 54.1421 41.8579 57.5 46 57.5C50.1421 57.5 53.5 54.1421 53.5 50Z" stroke="white"/>
  <mask id="mask1_643_392371" style="mask-type:luminance" maskUnits="userSpaceOnUse" x="38" y="42" width="16" height="16">
    <path d="M54 42H38V58H54V42Z" fill="white"/>
  </mask>
  <g mask="url(#mask1_643_392371)">
    <path d="M50 51.3335V53.1113C50 53.347 49.9063 53.5731 49.7396 53.7398C49.573 53.9065 49.3468 54.0002 49.1111 54.0002H42.8889C42.6532 54.0002 42.427 53.9065 42.2604 53.7398C42.0937 53.5731 42 53.347 42 53.1113V51.3335" stroke="white" stroke-width="1.33333" stroke-linecap="round" stroke-linejoin="round"/>
    <path d="M48.2222 48.2222L46 46L43.7778 48.2222" stroke="white" stroke-width="1.33333" stroke-linecap="round" stroke-linejoin="round"/>
    <path d="M46 46V51.3333" stroke="white" stroke-width="1.33333" stroke-linecap="round" stroke-linejoin="round"/>
  </g>
  <path d="M37 26H23C21.8954 26 21 26.8954 21 28V37C21 38.1046 21.8954 39 23 39H37C38.1046 39 39 38.1046 39 37V28C39 26.8954 38.1046 26 37 26Z" stroke="white" stroke-width="1.3"/>
  <path d="M21 30.3501H39" stroke="white" stroke-width="1.3"/>
  <path d="M26.65 26V39" stroke="white" stroke-width="1.3"/>
  <path d="M33.65 26V39" stroke="white" stroke-width="1.3"/>
  <path d="M21 34.3501H39" stroke="white" stroke-width="1.3"/>
</svg>