<svg width="64" height="64" viewBox="0 0 64 64" fill="none" xmlns="http://www.w3.org/2000/svg">
<g clip-path="url(#clip0_2195_252100)">
<rect width="64" height="64" fill="white"/>
<rect x="12" width="40" height="4" rx="2" fill="#F4F4F5"/>
<rect x="12" y="60" width="40" height="4" rx="2" fill="#F4F4F5"/>
<rect x="60" y="12" width="4" height="40" rx="2" fill="#F4F4F5"/>
<rect y="12" width="4" height="40" rx="2" fill="#F4F4F5"/>
<path d="M35.8889 31.45H28.1111C27.4975 31.45 27 31.9475 27 32.5611V36.45C27 37.0637 27.4975 37.5611 28.1111 37.5611H35.8889C36.5025 37.5611 37 37.0637 37 36.45V32.5611C37 31.9475 36.5025 31.45 35.8889 31.45Z" stroke="#374151" stroke-width="1.33333" stroke-linecap="round" stroke-linejoin="round"/>
<path d="M35 31.45V29.45C35 27.7931 33.6569 26.45 32 26.45C30.3431 26.45 29 27.7931 29 29.45V31.45" stroke="#374151" stroke-width="1.33"/>
</g>
<defs>
<clipPath id="clip0_2195_252100">
<rect width="64" height="64" fill="white"/>
</clipPath>
</defs>
</svg>
