<svg width="40" height="40" viewBox="0 0 40 40" fill="none" xmlns="http://www.w3.org/2000/svg">
<rect width="40" height="40" rx="6" fill="#1F293A"/>
<g clip-path="url(#clip0_2206_21909)">
<path fill-rule="evenodd" clip-rule="evenodd" d="M6.03918 19.75C6.03918 18.9216 6.71076 18.25 7.53918 18.25H32.4608C33.2892 18.25 33.9608 18.9216 33.9608 19.75C33.9608 20.5784 33.2892 21.25 32.4608 21.25H7.53918C6.71076 21.25 6.03918 20.5784 6.03918 19.75Z" fill="white"/>
<path d="M7.16663 7.77778C7.16663 7.30628 7.35539 6.8541 7.69139 6.5207C8.0274 6.1873 8.48311 6 8.95829 6H31.0416C31.5168 6 31.9725 6.1873 32.3085 6.5207C32.6445 6.8541 32.8333 7.30628 32.8333 7.77778V13.5556C32.8333 14.0271 32.6445 14.4792 32.3085 14.8126C31.9725 15.146 31.5168 15.3333 31.0416 15.3333H8.95829C8.48311 15.3333 8.0274 15.146 7.69139 14.8126C7.35539 14.4792 7.16663 14.0271 7.16663 13.5556V7.77778Z" fill="#D5D5D9"/>
<path d="M7.16663 26.4448C7.16663 25.9733 7.35539 25.5211 7.69139 25.1877C8.0274 24.8543 8.48311 24.667 8.95829 24.667H31.0416C31.5168 24.667 31.9725 24.8543 32.3085 25.1877C32.6445 25.5211 32.8333 25.9733 32.8333 26.4448V32.2225C32.8333 32.694 32.6445 33.1462 32.3085 33.4796C31.9725 33.813 31.5168 34.0003 31.0416 34.0003H8.95829C8.48311 34.0003 8.0274 33.813 7.69139 33.4796C7.35539 33.1462 7.16663 32.694 7.16663 32.2225V26.4448Z" fill="#D5D5D9"/>
</g>
<defs>
<clipPath id="clip0_2206_21909">
<rect width="28" height="28" fill="white" transform="translate(6 6)"/>
</clipPath>
</defs>
</svg>
