<svg width="56" height="56" viewBox="0 0 56 56" fill="none" xmlns="http://www.w3.org/2000/svg">
<path d="M2.5 9.13021C2.5 6.09272 4.88908 3.5 7.99172 3.5H37.2986C38.8366 3.5 40.312 4.11328 41.4001 5.20555C42.4883 6.29787 43.1 7.77979 43.1 9.32539V46.7862C43.1 49.8275 40.7107 52.42 37.6083 52.42H7.99172C4.88926 52.42 2.5 49.8275 2.5 46.7862V9.13021Z" fill="#F9F9FA" stroke="#D5D5D9"/>
<rect x="9.28003" y="11.3198" width="26" height="12.48" rx="2" fill="#8FBFFA"/>
<path fill-rule="evenodd" clip-rule="evenodd" d="M11.5242 31.0801C10.929 31.0801 10.3582 31.3126 9.93733 31.7264C9.51647 32.1402 9.28003 32.7015 9.28003 33.2868C9.28003 33.8721 9.51647 34.4333 9.93733 34.8472C10.3582 35.261 10.929 35.4935 11.5242 35.4935H30.9558C31.2506 35.4935 31.5424 35.4364 31.8147 35.3255C32.0869 35.2146 32.3343 35.0521 32.5427 34.8472C32.7511 34.6423 32.9164 34.399 33.0292 34.1313C33.142 33.8635 33.2 33.5766 33.2 33.2868C33.2 32.997 33.142 32.7101 33.0292 32.4423C32.9164 32.1746 32.7511 31.9313 32.5427 31.7264C32.3343 31.5215 32.0869 31.359 31.8147 31.2481C31.5424 31.1372 31.2506 31.0801 30.9558 31.0801H11.5242ZM11.5242 39.1466C10.929 39.1466 10.3582 39.3791 9.93733 39.793C9.51647 40.2068 9.28003 40.7681 9.28003 41.3534C9.28003 41.9386 9.51647 42.4999 9.93733 42.9137C10.3582 43.3276 10.929 43.5601 11.5242 43.5601H26.4783C27.0734 43.5601 27.6443 43.3276 28.0651 42.9137C28.486 42.4999 28.7224 41.9386 28.7224 41.3534C28.7224 40.7681 28.486 40.2068 28.0651 39.793C27.6443 39.3791 27.0734 39.1466 26.4783 39.1466H11.5242Z" fill="#2859C5"/>
<path d="M41.0249 41.9903C40.8117 42.2045 40.5375 42.3482 40.2395 42.402L33.8978 43.537C33.6653 43.5786 33.4261 43.5641 33.2003 43.4947C32.9746 43.4252 32.7689 43.3028 32.6006 43.1377C32.4322 42.9726 32.3061 42.7697 32.2328 42.546C32.1595 42.3223 32.1413 42.0843 32.1795 41.8521L33.2394 35.4363C33.2893 35.1322 33.4339 34.8514 33.6527 34.6336L45.8048 22.59C46.0792 22.3144 46.4058 22.0956 46.7656 21.9463C47.1253 21.7971 47.5112 21.7202 47.901 21.7202C48.2907 21.7202 48.6766 21.7971 49.0364 21.9463C49.3962 22.0956 49.7227 22.3144 49.9972 22.59L53.1267 25.7067C53.4034 25.9801 53.6231 26.3053 53.773 26.6636C53.9229 27.0219 54 27.4062 54 27.7944C54 28.1825 53.9229 28.5668 53.773 28.9252C53.6231 29.2835 53.4034 29.6087 53.1267 29.882L41.0249 41.9903Z" fill="#2859C5"/>
</svg>
