
<svg width="40" height="40" viewBox="0 0 40 40" fill="none" xmlns="http://www.w3.org/2000/svg">
<rect width="40" height="40" rx="6" fill="#1F293A"/>
<g clip-path="url(#clip0_2206_21899)">
<path d="M31 34C31.394 34 31.7841 33.9224 32.1481 33.7716C32.512 33.6209 32.8427 33.3999 33.1213 33.1213C33.3999 32.8427 33.6209 32.512 33.7716 32.1481C33.9224 31.7841 34 31.394 34 31V9C34 8.60603 33.9224 8.21593 33.7716 7.85195C33.6209 7.48797 33.3999 7.15726 33.1213 6.87868C32.8427 6.6001 32.512 6.37913 32.1481 6.22836C31.7841 6.0776 31.394 6 31 6H9C8.20435 6 7.44129 6.31607 6.87868 6.87868C6.31607 7.44129 6 8.20435 6 9V31C6 31.7956 6.31607 32.5587 6.87868 33.1213C7.44129 33.6839 8.20435 34 9 34H31Z" fill="#D5D5D9"/>
<path fill-rule="evenodd" clip-rule="evenodd" d="M9.99993 13.5C9.99993 12.5717 10.3687 11.6815 11.0251 11.0251C11.6814 10.3687 12.5717 10 13.4999 10C14.4282 10 15.3184 10.3687 15.9748 11.0251C16.6312 11.6815 16.9999 12.5717 16.9999 13.5C16.9999 14.4283 16.6312 15.3185 15.9748 15.9749C15.3184 16.6313 14.4282 17 13.4999 17C12.5717 17 11.6814 16.6313 11.0251 15.9749C10.3687 15.3185 9.99993 14.4283 9.99993 13.5ZM30.9999 34C31.3939 34 31.784 33.9224 32.148 33.7716C32.512 33.6209 32.8427 33.3999 33.1212 33.1213C33.3998 32.8427 33.6208 32.512 33.7716 32.1481C33.9223 31.7841 33.9999 31.394 33.9999 31V25L25.3739 18.962C24.9889 18.6927 24.5213 18.5675 24.0532 18.6084C23.5851 18.6494 23.1463 18.8539 22.8139 19.186L8.12793 33.872C8.41071 33.9574 8.70455 34.0005 8.99993 34H30.9999Z" fill="white"/>
</g>
<defs>
<clipPath id="clip0_2206_21899">
<rect width="28" height="28" fill="white" transform="translate(6 6)"/>
</clipPath>
</defs>
</svg>
