<svg width="40" height="40" viewBox="0 0 40 40" fill="none" xmlns="http://www.w3.org/2000/svg">
<g id="Text-Square--Streamline-Core.svg" clip-path="url(#clip0_2239_274124)">
<g id="text-square--text-options-formatting-format-square-color-border-fill">
<path id="Rectangle 677" d="M0 4.28571C0 3.14907 0.451529 2.05898 1.25526 1.25526C2.05898 0.451529 3.14907 0 4.28571 0L35.7143 0C36.8509 0 37.941 0.451529 38.7447 1.25526C39.5485 2.05898 40 3.14907 40 4.28571V35.7143C40 36.8509 39.5485 37.941 38.7447 38.7447C37.941 39.5485 36.8509 40 35.7143 40H4.28571C3.72291 40 3.16561 39.8891 2.64564 39.6738C2.12568 39.4584 1.65322 39.1427 1.25526 38.7447C0.857291 38.3468 0.541608 37.8743 0.326231 37.3544C0.110853 36.8344 0 36.2771 0 35.7143L0 4.28571Z" fill="#1F293A"/>
<path id="Vector 1 (Stroke)" fill-rule="evenodd" clip-rule="evenodd" d="M20 11.071C19.8545 11.0708 19.7126 11.1166 19.5946 11.2017C19.4766 11.2869 19.3885 11.4071 19.3428 11.5452L15.9285 21.7852H24.0714L20.6571 11.5452C20.6114 11.4071 20.5233 11.2869 20.4053 11.2017C20.2873 11.1166 20.1455 11.0708 20 11.071ZM28.2285 22.9681L24.0457 10.4138C23.7635 9.56386 23.2208 8.82437 22.4946 8.30028C21.7684 7.7762 20.8955 7.49414 20 7.49414C19.1044 7.49414 18.2316 7.7762 17.5054 8.30028C16.7791 8.82437 16.2364 9.56386 15.9543 10.4138L11.7714 22.971C11.7613 22.9964 11.7518 23.0222 11.7428 23.0481L9.37711 30.151C9.22707 30.6003 9.26168 31.0909 9.47333 31.5147C9.68498 31.9385 10.0563 32.2609 10.5057 32.411C10.955 32.561 11.4456 32.5264 11.8694 32.3147C12.2932 32.1031 12.6156 31.7317 12.7657 31.2824L14.7371 25.3595H25.26L27.2343 31.2824C27.3843 31.7317 27.7067 32.1031 28.1305 32.3147C28.5543 32.5264 29.0449 32.561 29.4943 32.411C29.9436 32.2609 30.3149 31.9385 30.5266 31.5147C30.7382 31.0909 30.7729 30.6003 30.6228 30.151L28.2543 23.0481C28.2463 23.0222 28.2377 22.9965 28.2285 22.971V22.9681Z" fill="#D5D5D9"/>
</g>
</g>
<defs>
<clipPath id="clip0_2239_274124">
<rect width="40" height="40" fill="white"/>
</clipPath>
</defs>
</svg>
