<?xml version="1.0" standalone="no"?>
<!DOCTYPE svg PUBLIC "-//W3C//DTD SVG 1.1//EN" "http://www.w3.org/Graphics/SVG/1.1/DTD/svg11.dtd" >
<svg xmlns="http://www.w3.org/2000/svg" xmlns:xlink="http://www.w3.org/1999/xlink" version="1.1">
<metadata>
Created by FontForge 20170731 at Sun Aug 19 20:07:01 2018
 By Aleksey,,,
Copyright (c) 2016 Swiss Typefaces Sarl. All rights reserved. |DCNT
</metadata>
<defs>
<font id="SuisseIntl-SemiBold" horiz-adv-x="0" >
  <font-face 
    font-family="Suisse Intl SemiBold"
    font-weight="600"
    font-stretch="normal"
    units-per-em="1000"
    panose-1="2 11 5 4 0 0 0 0 0 0"
    ascent="750"
    descent="-250"
    x-height="538"
    cap-height="725"
    bbox="-226 -686 2813 1141"
    underline-thickness="70"
    underline-position="-180"
    unicode-range="U+0020-FEFC"
  />
<missing-glyph horiz-adv-x="500" 
d="M0 0v725h500v-725h-500zM239 362l-220 334v-667zM260 362l221 -333v667zM250 346l-217 -327h433zM33 706l217 -328l216 328h-433z" />
    <glyph glyph-name="uniFC43" unicode="&#xfedf;&#xfef0;" horiz-adv-x="868" arabic-form="isolated" 
d="M665 725h126v-528q0 -91 -56 -144q-28 -26 -70 -40q-42 -107 -127 -165q-92 -63 -234 -63q-130 0 -203 72t-73 205q0 61 10 106.5t34 116.5h117q-43 -113 -43 -199q0 -88 44.5 -128.5t137.5 -40.5q94 0 158 37q35 21 56 46l-48 2q-41 3 -80 10l15 129q72 -9 140 -9
q54 0 75 20t21 66v507z" />
    <glyph glyph-name="uniFC86" unicode="&#xfee0;&#xfef0;" horiz-adv-x="889" arabic-form="final" 
d="M667 725h126v-507q0 -46 21 -66t75 -20q10 0 10 -10v-111q0 -11 -10 -11q-110 0 -166 53l-8 7l-5 -4q-18 -16 -39 -30l-1 -1q-42 -115 -132 -177q-92 -63 -234 -63q-130 0 -203 72t-73 205q0 61 10 106.5t34 116.5h117q-43 -113 -43 -199q0 -88 44.5 -128.5t137.5 -40.5
q94 0 158 37q35 21 56 46l-48 2q-41 3 -80 10l15 129q72 -9 140 -9q36 0 69 11q22 10 31 16q-2 24 -2 38v528z" />
    <glyph glyph-name="uniFEF5" unicode="&#xfedf;&#xfe82;" horiz-adv-x="600" arabic-form="isolated" 
d="M353 775h125v-223q0 -79 -25 -144q-7 -18 -17 -41l60 -54q77 -71 77 -148q0 -69 -47 -117t-141 -48h-315l-57 132q189 104 257 181q18 22 26 34l-270 243l4 10h149l163 -148q11 47 11 100v223zM282 191q-43 -31 -94 -59h207q51 0 51 42q0 39 -54 87l-17 15
q-43 -49 -93 -85zM72 773q22 0 65 -18.5t65 -18.5q45 0 80 26l-1 -83q-33 -25 -77 -25q-24 0 -62.5 18.5t-57.5 18.5q-45 0 -51 -39h-64q0 57 27.5 89t75.5 32z" />
    <glyph glyph-name="uniFEF6" unicode="&#xfee0;&#xfe82;" horiz-adv-x="675" arabic-form="final" 
d="M453 725h126v-507q0 -46 21 -66t75 -20q10 0 10 -10v-111q0 -11 -10 -11q-110 0 -166 53l-3 2q-11 -5 -37 -15q-108 -40 -210 -40q-139 0 -241 34v127q49 -14 114 -22q58 -6 87 -7v5q-1 29 -6 57q-6 43 -90 406h130q71 -326 80 -396q3 -24 2 -51v-18q18 1 47 5
q38 4 74 12q-3 21 -3 45v528zM144 776q22 0 65 -18.5t65 -18.5q45 0 80 26l-1 -83q-33 -25 -77 -25q-24 0 -62.5 18.5t-57.5 18.5q-45 0 -51 -39h-64q0 57 27.5 89t75.5 32z" />
    <glyph glyph-name="uniFEF7" unicode="&#xfedf;&#xfe84;" horiz-adv-x="600" arabic-form="isolated" 
d="M353 775h125v-223q0 -79 -25 -144q-7 -18 -17 -41l60 -54q77 -71 77 -148q0 -69 -47 -117t-141 -48h-315l-57 132q189 104 257 181q18 22 26 34l-270 243l4 10h149l163 -148q11 47 11 100v223zM282 191q-43 -31 -94 -59h207q51 0 51 42q0 39 -54 87l-17 15
q-43 -49 -93 -85zM130 735h110l-20 -75h-167q-37 0 -75 -12v73q28 10 40 11l22 3q-22 21 -22 54q0 39 28 65.5t69 26.5q49 0 87 -20v-70q-43 16 -66 16q-19 0 -33 -11t-14 -28q0 -16 14 -25q9 -6 27 -8z" />
    <glyph glyph-name="uniFEF8" unicode="&#xfee0;&#xfe84;" horiz-adv-x="675" arabic-form="final" 
d="M453 725h126v-507q0 -46 21 -66t75 -20q10 0 10 -10v-111q0 -11 -10 -11q-110 0 -166 53l-3 2q-11 -5 -37 -15q-108 -40 -210 -40q-139 0 -241 34v127q49 -14 114 -22q58 -6 87 -7v5q-1 29 -6 57q-6 43 -90 406h130q71 -326 80 -396q3 -24 2 -51v-18q18 1 47 5
q38 4 74 12q-3 21 -3 45v528zM204 736h103l-20 -75h-167q-37 0 -75 -12v73q28 10 39 11l23 3q-22 21 -22 54q0 39 28 65.5t69 26.5q49 0 87 -20v-70q-43 16 -66 16q-19 0 -33 -11t-14 -28q0 -15 13.5 -24t34.5 -9z" />
    <glyph glyph-name="uniFEF9" unicode="&#xfedf;&#xfe88;" horiz-adv-x="600" arabic-form="isolated" 
d="M353 775h125v-223q0 -79 -25 -144q-7 -18 -17 -41l60 -54q77 -71 77 -148q0 -69 -47 -117t-141 -48h-315l-57 132q189 104 257 181q18 22 26 34l-270 243l4 10h149l163 -148q11 47 11 100v223zM282 191q-43 -31 -94 -59h207q51 0 51 42q0 39 -54 87l-17 15
q-43 -49 -93 -85zM337 -186h102l-20 -74h-167q-37 0 -75 -12v72q26 9 40 12q14 2 25 2l-8 9q-16 19 -16 46q0 39 28 65.5t69 26.5q48 0 86 -20v-70q-40 15 -65 15q-21 0 -34 -10.5t-13 -27.5q0 -15 13.5 -24.5t34.5 -9.5z" />
    <glyph glyph-name="uniFEFA" unicode="&#xfee0;&#xfe88;" horiz-adv-x="675" arabic-form="final" 
d="M453 725h126v-507q0 -46 21 -66t75 -20q10 0 10 -10v-111q0 -11 -10 -11q-110 0 -166 53l-3 2q-11 -5 -37 -15q-108 -40 -210 -40q-139 0 -241 34v127q49 -14 114 -22q58 -6 87 -7v5q-1 29 -6 57q-6 43 -90 406h130q71 -326 80 -396q3 -24 2 -51v-18q18 1 47 5
q38 4 74 12q-3 21 -3 45v528zM322 -187h102l-20 -74h-167q-37 0 -75 -12v72q26 9 39 12q14 2 25 2l-8 9q-15 20 -15 46q0 39 28 65.5t69 26.5q48 0 86 -20v-70q-40 15 -65 15q-21 0 -34 -10.5t-13 -27.5q0 -15 13.5 -24.5t34.5 -9.5z" />
    <glyph glyph-name="uniFEFB" unicode="&#xfedf;&#xfe8e;" horiz-adv-x="600" arabic-form="isolated" 
d="M353 775h125v-223q0 -79 -25 -144q-7 -18 -17 -41l60 -54q77 -71 77 -148q0 -69 -47 -117t-141 -48h-315l-57 132q189 104 257 181q18 22 26 34l-270 243l4 10h149l163 -148q11 47 11 100v223zM282 191q-43 -31 -94 -59h207q51 0 51 42q0 39 -54 87l-17 15
q-43 -49 -93 -85z" />
    <glyph glyph-name="uniFEFC" unicode="&#xfee0;&#xfe8e;" horiz-adv-x="675" arabic-form="final" 
d="M453 725h126v-507q0 -46 21 -66t75 -20q10 0 10 -10v-111q0 -11 -10 -11q-110 0 -166 53l-3 2q-11 -5 -37 -15q-108 -40 -210 -40q-139 0 -241 34v127q49 -14 114 -22q58 -6 87 -7v5q-1 29 -6 57q-6 43 -90 406h130q71 -326 80 -396q3 -24 2 -51v-18q18 1 47 5
q38 4 74 12q-3 21 -3 45v528z" />
    <glyph glyph-name="uni0407_uni0407" unicode="&#x407;&#x407;" horiz-adv-x="550" 
d="M220 725v-725h-143v725h143zM473 725v-725h-143v725h143zM429 886h143v-113h-143v113zM204 886h143v-113h-143v113zM-21 886h143v-113h-143v113z" />
    <glyph glyph-name="uni0457_uni0457" unicode="&#x457;&#x457;" horiz-adv-x="533" 
d="M326 538h138v-538h-138v538zM69 538h138v-538h-138v538zM-29 725h115v-116h-115v116zM448 725h115v-116h-115v116zM209 725h115v-116h-115v116z" />
    <glyph glyph-name="uniFEDF_uniFB51" unicode="&#xfedf;&#xfb51;" horiz-adv-x="600" 
d="M353 775h125v-223q0 -79 -25 -144q-7 -18 -17 -41l60 -54q77 -71 77 -148q0 -69 -47 -117t-141 -48h-315l-57 132q189 104 257 181q18 22 26 34l-270 243l4 10h149l163 -148q11 47 11 100v223zM282 191q-43 -31 -94 -59h207q51 0 51 42q0 39 -54 87l-17 15
q-43 -49 -93 -85zM194 838q41 0 68 -26.5t27 -65.5q0 -49 -40.5 -76t-113.5 -27q-76 0 -152 30l21 66q22 -8 40 -12l32 38q62 73 118 73zM136 715q73 0 73 31q0 10 -8 16t-20 6q-21 0 -46 -19q-11 -8 -37 -32q28 -2 38 -2z" />
    <glyph glyph-name="uniFEE0_uniFB51" unicode="&#xfee0;&#xfb51;" horiz-adv-x="675" 
d="M453 725h126v-507q0 -46 21 -66t75 -20q10 0 10 -10v-111q0 -11 -10 -11q-110 0 -166 53l-3 2q-11 -5 -37 -15q-108 -40 -210 -40q-139 0 -241 34v127q49 -14 114 -22q58 -6 87 -7v5q-1 29 -6 57q-6 43 -90 406h130q71 -326 80 -396q3 -24 2 -51v-18q18 1 47 5
q38 4 74 12q-3 21 -3 45v528zM250 841q41 0 68 -26.5t27 -65.5q0 -49 -40.5 -76t-113.5 -27q-76 0 -152 30l21 66q22 -8 40 -12q16 21 32 38q62 73 118 73zM192 718q73 0 73 31q0 10 -8 16t-20 6q-21 0 -46 -19q-12 -7 -38 -32q30 -2 39 -2z" />
    <glyph glyph-name="uni066E.init" unicode="&#x66e;" horiz-adv-x="270" 
d="M67 485h125q30 -207 30 -288q0 -93 -57 -145t-165 -52q-10 0 -10 11v111q0 10 10 10q54 0 75.5 20t21.5 66q0 64 -30 267z" />
    <glyph glyph-name="uni066E.medi" unicode="&#x66e;" horiz-adv-x="311" 
d="M109 370h116q0 -91 -10 -154q-3 -23 -13 -60q19 -10 40 -15q34 -9 69 -9q10 0 10 -10v-111q0 -11 -10 -11q-57 0 -103 25q-26 13 -54 38q-20 -23 -43 -36q-43 -27 -111 -27q-10 0 -10 11v111q0 10 10 10q64 0 87 47q22 47 22 191z" />
    <glyph glyph-name="uni066E.fina" unicode="&#x66e;" horiz-adv-x="838" 
d="M636 370h116q0 -91 -10 -154q-3 -23 -13 -60q19 -10 40 -15q35 -9 69 -9q10 0 10 -10v-111q0 -11 -10 -11q-57 0 -103 25q-26 13 -54 38q-20 -23 -43 -36q-33 -21 -84 -26q-1 -1 -5 -1h-12h-10h-3h-234q-128 0 -195.5 63.5t-67.5 181.5q0 68 25 195h117
q-19 -101 -19 -162q0 -78 37 -112t133 -34h217q29 2 44 11q21 11 33 36q22 47 22 191z" />
    <glyph glyph-name="uni066F.fina" unicode="&#x66f;" horiz-adv-x="780" 
d="M501 492q95 0 153.5 -61.5t64.5 -173.5q3 -75 3 -82q1 -13 1 -43h57q10 0 10 -10v-111q0 -11 -10 -11h-59q-15 -88 -85 -143q-92 -72 -275 -72q-170 0 -251.5 69t-81.5 208q0 61 10 106.5t34 116.5h117q-43 -113 -43 -199q0 -94 55 -136.5t182 -42.5q158 0 207 80
q5 8 6 13h-67q-120 0 -191 64.5t-71 175.5q0 109 66.5 180.5t167.5 71.5zM600 153l-6 94q-9 115 -99 115q-46 0 -76.5 -33t-30.5 -85q0 -115 156 -115q15 0 33 0.5t24 0.5q-1 8 -1 23z" />
    <glyph glyph-name="uni06A1.init" unicode="&#x6a1;" horiz-adv-x="527" 
d="M264 502q97 0 161.5 -67t64.5 -167q0 -121 -72.5 -194.5t-193.5 -73.5h-224q-10 1 -10 11v111q0 10 10 10h92l-14 21q-45 63 -45 130q0 93 66 156t165 63zM213 132h13q63 0 100 34.5t37 94.5q0 48 -29.5 80.5t-74.5 32.5q-47 0 -76.5 -31.5t-29.5 -77.5q0 -38 35 -90
q21 -35 25 -43z" />
    <glyph glyph-name="uni06A1.medi" unicode="&#x6a1;" horiz-adv-x="535" 
d="M268 502q97 0 160 -63.5t63 -161.5q0 -63 -46 -124q-12 -15 -13 -16l9 -1q33 -4 94 -4q10 0 10 -10v-111q0 -11 -10 -11q-75 0 -173 20q-39 7 -82 20l-11 -3q-119 -37 -269 -37q-10 1 -10 11v111q0 10 10 10q64 0 100 4q-5 5 -13 15q-44 55 -44 126q0 93 64 159t161 66z
M341 186q26 35 26 76q0 50 -29 80.5t-75 30.5q-45 0 -73 -30t-28 -78q0 -42 26 -77q26 -34 73 -50q56 17 80 48z" />
    <glyph glyph-name="uni06A1.fina" unicode="&#x6a1;" horiz-adv-x="950" 
d="M683 502q97 0 160 -63.5t63 -161.5q0 -63 -46 -124q-12 -15 -13 -16l9 -1q33 -4 94 -4q10 0 10 -10v-111q0 -11 -10 -11q-75 0 -173 20q-39 7 -82 20l-11 -3q-119 -37 -269 -37q-10 1 -10 11v111q0 10 10 10q64 0 100 4q-5 5 -13 15q-44 55 -44 126q0 93 64 159t161 66z
M756 186q26 35 26 76q0 50 -29 80.5t-75 30.5q-45 0 -73 -30t-28 -78q0 -42 26 -77q26 -34 73 -50q56 17 80 48zM47 388h118q-15 -73 -15 -110q0 -78 37 -112t133 -34h110q10 0 10 -10v-111q0 -11 -10 -11h-139q-128 0 -195 62.5t-67 180.5q0 61 18 145z" />
    <glyph glyph-name="uni06AA.init" unicode="&#x6aa;" horiz-adv-x="810" 
d="M254 725h169l-271 -282h369q112 0 181.5 -60t69.5 -158q0 -104 -62 -164.5t-167 -60.5h-543q-10 0 -10 11v111q0 10 10 10h534q54 0 83.5 23.5t29.5 66.5q0 46 -32 71t-89 25h-435l-71 125z" />
    <glyph glyph-name="uni06AA.medi" unicode="&#x6aa;" horiz-adv-x="851" 
d="M254 725h169l-271 -282h369q112 0 181.5 -60t69.5 -158q0 -104 -62 -164.5t-167 -60.5h-543q-10 0 -10 11v111q0 10 10 10h534q54 0 83.5 23.5t29.5 66.5q0 46 -32 71t-89 25h-435l-71 125zM655 104l56 71q64 -43 140 -43q10 0 10 -10v-111q0 -11 -10 -11
q-108 0 -196 104z" />
    <glyph glyph-name="uni06AA.fina" unicode="&#x6aa;" horiz-adv-x="945" 
d="M357 725h169l-271 -282h362q112 0 182 -60t70 -158q0 -104 -62.5 -164.5t-167.5 -60.5h-391q-66 0 -117 16t-109 54l57 114q87 -52 176 -52h375q54 0 83.5 23.5t29.5 66.5q0 46 -32 71t-89 25h-428l-71 125zM749 104l56 71q64 -43 140 -43q10 0 10 -10v-111
q0 -11 -10 -11q-108 0 -196 104z" />
    <glyph glyph-name="uni06C2.fina" unicode="&#x6c2;" horiz-adv-x="537" 
d="M342 538h126v-336q0 -35 15.5 -52.5t53.5 -17.5q10 0 10 -10v-111q0 -11 -10 -11q-49 0 -87 15q-34 14 -55 35q-35 -20 -66 -33q-42 -17 -89 -17q-98 0 -155 54t-57 147q0 73 45.5 139.5t142.5 109.5q58 24 126 34v54zM214 324q-63 -44 -63 -111q0 -40 23.5 -62t67.5 -22
q33 0 67 8q24 5 38 11q-5 32 -5 60v164q-80 -15 -128 -48zM410 676h110l-20 -75h-167q-37 0 -75 -12v73q28 10 40 11l22 3q-22 21 -22 54q0 39 28 65.5t69 26.5q49 0 87 -20v-70q-43 16 -66 16q-19 0 -33 -11t-14 -28q0 -16 14 -25q9 -6 27 -8z" />
    <glyph glyph-name="uni06C3.fina" unicode="&#x6c3;" horiz-adv-x="629" 
d="M304 445q64 0 110 -39t92 -129q5 -10 18 -37.5t21 -41t21.5 -32t29 -26.5t33.5 -8q10 0 10 -10v-111q0 -11 -10 -11q-73 0 -121 40.5t-87 137.5q-31 75 -54.5 104.5t-62.5 29.5q-37 0 -65 -32t-66 -119l-37 -84l-108 50l37 84q56 129 110 181.5t129 52.5zM128 609l93 94
l77 -75l75 75l94 -94l-92 -93l-77 74l-76 -74z" />
    <glyph glyph-name="uniFB51" unicode="&#x671;" horiz-adv-x="300" arabic-form="final" 
d="M78 600h126v-382q0 -46 21.5 -66t74.5 -20q10 0 10 -10v-111q0 -11 -10 -11q-108 0 -165 52t-57 145v403zM191 820q41 0 68 -26.5t27 -65.5q0 -49 -40.5 -76t-113.5 -27q-76 0 -152 30l21 66q22 -8 40 -12l32 38q62 73 118 73zM133 697q73 0 73 31q0 10 -8 16t-20 6
q-21 0 -46 -19q-11 -8 -37 -32q28 -2 38 -2z" />
    <glyph glyph-name="uniFB57" unicode="&#x67e;" horiz-adv-x="838" arabic-form="final" 
d="M636 370h116q0 -91 -10 -154q-3 -23 -13 -60q19 -10 40 -15q35 -9 69 -9q10 0 10 -10v-111q0 -11 -10 -11q-57 0 -103 25q-26 13 -54 38q-20 -23 -43 -36q-33 -21 -84 -26q-1 -1 -5 -1h-259q-128 0 -195.5 63.5t-67.5 181.5q0 68 25 195h117q-19 -101 -19 -162
q0 -78 37 -112t133 -34h207q64 0 87 47q22 47 22 191zM267 -158l93 94l81 -79l79 79l94 -94l-93 -93l-80 78l-79 -78zM371 -290l70 71l71 -71l-70 -70z" />
    <glyph glyph-name="uniFB58" unicode="&#x67e;" horiz-adv-x="348" arabic-form="initial" 
d="M148 485h126q30 -206 30 -288q0 -93 -57 -145t-165 -52h-82q-10 0 -10 11v111q0 10 10 10h82q54 0 75 20t21 66q0 64 -30 267zM-36 -151l93 94l81 -79l79 79l94 -94l-93 -93l-80 78l-79 -78zM68 -283l70 71l71 -71l-70 -70z" />
    <glyph glyph-name="uniFB59" unicode="&#x67e;" horiz-adv-x="375" arabic-form="medial" 
d="M139 370h117q0 -77 -8 -146q-5 -33 -10 -52q33 -19 61 -28q41 -12 76 -12q10 0 10 -10v-111q0 -11 -10 -11q-56 0 -111 29q-38 22 -67 49q-23 -30 -60 -50q-52 -28 -137 -28q-10 0 -10 11v111q0 10 10 10q85 0 113 45q17 27 21.5 70t4.5 123zM-1 -154l93 94l81 -79l79 79
l94 -94l-93 -93l-80 78l-79 -78zM103 -286l70 71l71 -71l-70 -70z" />
    <glyph glyph-name="uniFB67" unicode="&#x679;" horiz-adv-x="838" arabic-form="final" 
d="M636 370h116q0 -91 -10 -154q-3 -23 -13 -60q19 -10 40 -15q35 -9 69 -9q10 0 10 -10v-111q0 -11 -10 -11q-57 0 -103 25q-26 13 -54 38q-20 -23 -43 -36q-33 -21 -84 -26q-1 -1 -5 -1h-12h-10h-3h-234q-128 0 -195.5 63.5t-67.5 181.5q0 68 25 195h117
q-19 -101 -19 -162q0 -78 37 -112t133 -34h204h3h10q29 2 44 11q21 11 33 36q22 47 22 191zM347 670h63v-98q22 25 39 37q43 33 77 33q44 0 72.5 -28t28.5 -68q0 -49 -48 -77.5t-129 -28.5h-130l-36 68h63v162zM409 508h41q97 0 97 38q0 13 -10 20.5t-25 7.5
q-18 0 -37 -11.5t-52 -41.5z" />
    <glyph glyph-name="uniFB68" unicode="&#x679;" horiz-adv-x="383" arabic-form="initial" 
d="M148 485h126q30 -206 30 -288q0 -93 -57 -145t-165 -52h-82q-10 0 -10 11v111q0 10 10 10h82q54 0 75 20t21 66q0 64 -30 267zM85 768h63v-98q24 26 39 37q43 33 77 33q44 0 72.5 -28t28.5 -68q0 -49 -48 -77.5t-129 -28.5h-130l-36 68h63v162zM148 606h40q97 0 97 38
q0 13 -10 20.5t-25 7.5q-32 0 -88 -53z" />
    <glyph glyph-name="uniFB69" unicode="&#x679;" horiz-adv-x="375" arabic-form="medial" 
d="M139 370h117q0 -77 -8 -146q-5 -33 -10 -52q33 -19 61 -28q41 -12 76 -12q10 0 10 -10v-111q0 -11 -10 -11q-56 0 -111 29q-38 22 -67 49q-23 -30 -60 -50q-52 -28 -137 -28q-10 0 -10 11v111q0 10 10 10q85 0 113 45q17 27 21.5 70t4.5 123zM84 671h63v-98q24 26 39 37
q44 33 77 33q45 0 73 -28.5t28 -67.5q0 -49 -48 -77.5t-129 -28.5h-130l-36 68h63v162zM147 509h40q97 0 97 38q0 13 -10 20.5t-25 7.5q-32 0 -88 -53z" />
    <glyph glyph-name="uniFB6B" unicode="&#x6a4;" horiz-adv-x="950" arabic-form="final" 
d="M683 502q97 0 160 -63.5t63 -161.5q0 -63 -46 -124q-12 -15 -13 -16l9 -1q33 -4 94 -4q10 0 10 -10v-111q0 -11 -10 -11q-75 0 -173 20q-39 7 -82 20l-11 -3q-119 -37 -269 -37q-10 1 -10 11v111q0 10 10 10q64 0 100 4q-5 5 -13 15q-44 55 -44 126q0 93 64 159t161 66z
M756 186q26 35 26 76q0 50 -29 80.5t-75 30.5q-45 0 -73 -30t-28 -78q0 -42 26 -77q26 -34 73 -50q56 17 80 48zM47 388h118q-15 -73 -15 -110q0 -78 37 -112t133 -34h110q10 0 10 -10v-111q0 -11 -10 -11h-139q-128 0 -195 62.5t-67 180.5q0 61 18 145zM511 636l93 93
l79 -78l80 78l94 -93l-93 -94l-81 78l-78 -78zM614 769l69 71l71 -71l-70 -70z" />
    <glyph glyph-name="uniFB6C" unicode="&#x6a4;" horiz-adv-x="527" arabic-form="initial" 
d="M264 502q97 0 161.5 -67t64.5 -167q0 -121 -72.5 -194.5t-193.5 -73.5h-224q-10 1 -10 11v111q0 10 10 10h92l-14 21q-45 63 -45 130q0 93 66 156t165 63zM213 132h13q63 0 100 34.5t37 94.5q0 48 -29.5 80.5t-74.5 32.5q-47 0 -76.5 -31.5t-29.5 -77.5q0 -38 35 -90
q21 -35 25 -43zM94 636l93 93l79 -78l80 78l94 -93l-93 -94l-81 78l-78 -78zM197 769l69 71l71 -71l-70 -70z" />
    <glyph glyph-name="uniFB6D" unicode="&#x6a4;" horiz-adv-x="535" arabic-form="medial" 
d="M268 502q97 0 160 -63.5t63 -161.5q0 -63 -46 -124q-12 -15 -13 -16l9 -1q33 -4 94 -4q10 0 10 -10v-111q0 -11 -10 -11q-75 0 -173 20q-39 7 -82 20l-11 -3q-119 -37 -269 -37q-10 1 -10 11v111q0 10 10 10q64 0 100 4q-5 5 -13 15q-44 55 -44 126q0 93 64 159t161 66z
M341 186q26 35 26 76q0 50 -29 80.5t-75 30.5q-45 0 -73 -30t-28 -78q0 -42 26 -77q26 -34 73 -50q56 17 80 48zM98 636l93 93l79 -78l80 78l94 -93l-93 -94l-81 78l-78 -78zM201 769l69 71l71 -71l-70 -70z" />
    <glyph glyph-name="uniFB7B" unicode="&#x686;" horiz-adv-x="651" arabic-form="final" 
d="M199 538q41 0 82 -17t78.5 -43.5t74.5 -54.5t85 -53.5t97 -36.5l-36 -128q-14 0 -46 -2q2 -37 30 -53q30 -18 87 -18q10 0 10 -10v-111q0 -11 -10 -11q-192 0 -192 169v24q-14 -3 -61 -14q-103 -29 -171.5 -81t-68.5 -121q0 -40 17 -74.5t60 -79.5l-119 -44
q-81 93 -81 184q0 111 78.5 186t206.5 111q56 17 112 27q-14 7 -40 23q-11 7 -42 28.5t-43.5 29t-36 19.5t-43 16.5t-40.5 4.5q-51 0 -116 -24v118q56 36 128 36zM277 -155l93 94l81 -79l79 79l94 -94l-93 -93l-80 78l-79 -78zM381 -287l70 71l71 -71l-70 -70z" />
    <glyph glyph-name="uniFB7C" unicode="&#x686;" horiz-adv-x="606" arabic-form="initial" 
d="M189 492q50 0 100 -23.5t88 -54t95.5 -63.5t116.5 -47l-36 -128q-64 -10 -116 -32t-89 -45.5t-79.5 -46.5t-110 -37.5t-157.5 -14.5q-11 0 -11 11v111q0 10 11 10q88 0 164 15t105.5 27t97.5 42q28 14 63 27q-38 18 -58 31q-8 5 -33 21.5t-34 22t-29.5 17t-33 15.5
t-30.5 8t-35 4q-47 0 -116 -24v117q58 37 127 37zM109 -155l93 94l81 -79l79 79l94 -94l-93 -93l-80 78l-79 -78zM213 -287l70 71l71 -71l-70 -70z" />
    <glyph glyph-name="uniFB7D" unicode="&#x686;" horiz-adv-x="631" arabic-form="medial" 
d="M189 492q50 0 100 -23.5t88 -54t95.5 -63.5t116.5 -47l-36 -128l-30 -5q4 -7 14 -17q25 -22 94 -22q10 0 10 -10v-111q0 -11 -10 -11q-93 0 -142 45q-38 35 -46 101q-36 -15 -66 -33q-11 -6 -43.5 -25.5t-47.5 -27.5t-49 -22t-63.5 -20.5t-75 -12t-97.5 -5.5
q-11 0 -11 11v111q0 10 11 10q88 0 164 15t105.5 27t97.5 42q28 14 63 27q-38 18 -58 31q-8 5 -33 21.5t-34 22t-29.5 17t-33 15.5t-30.5 8t-35 4q-47 0 -116 -24v117q58 37 127 37zM109 -155l93 94l81 -79l79 79l94 -94l-93 -93l-80 78l-79 -78zM213 -287l70 71l71 -71
l-70 -70z" />
    <glyph glyph-name="uniFB89" unicode="&#x688;" horiz-adv-x="509" arabic-form="final" 
d="M8 34v127q100 -29 181 -29q40 0 80 5q17 1 36 6q-7 13 -12 31q-34 100 -73 311h130q33 -207 53 -267q27 -86 106 -86q10 0 10 -10v-111q0 -11 -10 -11q-87 0 -144 54q-83 -54 -181 -54q-49 0 -83 6.5t-93 27.5zM152 768h63v-98q24 26 39 37q43 33 77 33q45 0 73 -28
t28 -68q0 -49 -48 -77.5t-129 -28.5h-130l-36 68h63v162zM215 606h40q97 0 97 38q0 13 -10 20.5t-25 7.5q-32 0 -88 -53z" />
    <glyph glyph-name="uniFB8B" unicode="&#x698;" horiz-adv-x="355" arabic-form="final" 
d="M102 440h125q17 -114 23 -203l3 -46q6 -34 32 -46q26 -13 69 -13q10 0 10 -10v-111q0 -11 -10 -11q-64 0 -92 34l-3 3v-15q0 -116 -69.5 -176.5t-197.5 -60.5v114q68 0 107 32.5t39 98.5q0 113 -36 410zM-14 602l93 93l79 -78l80 78l94 -93l-93 -94l-81 78l-78 -78z
M89 735l69 71l71 -71l-70 -70z" />
    <glyph glyph-name="uniFB8D" unicode="&#x691;" horiz-adv-x="355" arabic-form="final" 
d="M102 440h125q17 -114 23 -203l3 -43v-1v-2q6 -34 32 -46q26 -13 69 -13q10 0 10 -10v-111q0 -11 -10 -11q-64 0 -92 34l-3 3v-15q0 -116 -69.5 -176.5t-197.5 -60.5v114q68 0 107 32.5t39 98.5q0 113 -36 410zM58 725h63v-98q22 25 39 37q43 33 77 33q45 0 73 -28.5
t28 -67.5q0 -49 -48 -77.5t-129 -28.5h-130l-36 68h63v162zM120 563h41q97 0 97 38q0 13 -10 20.5t-25 7.5q-18 0 -37 -11.5t-52 -41.5z" />
    <glyph glyph-name="uniFB8F" unicode="&#x6a9;" horiz-adv-x="998" arabic-form="final" 
d="M53 440h117q-19 -101 -19 -162q0 -78 37 -112t133 -34h229q10 0 10 -10v-111q0 -11 -10 -11h-259q-128 0 -195.5 63.5t-67.5 181.5q0 68 25 195zM697 795h182v-5l-345 -286l160 -70q186 -80 186 -223q0 -98 -70.5 -154.5t-193.5 -56.5h-289q-10 0 -10 11v111q0 10 10 10
h297q58 0 94 20.5t36 53.5t-28.5 60t-94.5 56l-250 110v88zM802 104l56 71q64 -43 140 -43q10 0 10 -10v-111q0 -11 -10 -11q-108 0 -196 104z" />
    <glyph glyph-name="uniFB90" unicode="&#x6a9;" horiz-adv-x="581" arabic-form="initial" 
d="M370 795h182v-5l-345 -286l160 -70q186 -80 186 -223q0 -98 -70.5 -154.5t-193.5 -56.5h-289q-10 0 -10 11v111q0 10 10 10h297q58 0 94 20.5t36 53.5t-28.5 60t-94.5 56l-250 110v88z" />
    <glyph glyph-name="uniFB91" unicode="&#x6a9;" horiz-adv-x="651" arabic-form="medial" 
d="M370 795h182v-5l-345 -286l160 -70q186 -80 186 -223q0 -98 -70.5 -154.5t-193.5 -56.5h-289q-10 0 -10 11v111q0 10 10 10h297q58 0 94 20.5t36 53.5t-28.5 60t-94.5 56l-250 110v88zM455 104l56 71q64 -43 140 -43q10 0 10 -10v-111q0 -11 -10 -11q-108 0 -196 104z
" />
    <glyph glyph-name="uniFB93" unicode="&#x6af;" horiz-adv-x="998" arabic-form="final" 
d="M53 440h117q-19 -101 -19 -162q0 -78 37 -112t133 -34h229q10 0 10 -10v-111q0 -11 -10 -11h-259q-128 0 -195.5 63.5t-67.5 181.5q0 68 25 195zM697 795h182v-5l-345 -286l160 -70q186 -80 186 -223q0 -98 -70.5 -154.5t-193.5 -56.5h-289q-10 0 -10 11v111q0 10 10 10
h297q58 0 94 20.5t36 53.5t-28.5 60t-94.5 56l-250 110v88zM802 104l56 71q64 -43 140 -43q10 0 10 -10v-111q0 -11 -10 -11q-108 0 -196 104zM545 795v-4l-223 -207l-46 49l164 162h105z" />
    <glyph glyph-name="uniFB94" unicode="&#x6af;" horiz-adv-x="731" arabic-form="initial" 
d="M520 795h182v-5l-345 -286l160 -70q186 -80 186 -223q0 -98 -70.5 -154.5t-193.5 -56.5h-289q-10 0 -10 11v111q0 10 10 10h297q58 0 94 20.5t36 53.5t-28.5 60t-94.5 56l-250 110v88zM337 795v-4l-223 -207l-46 49l164 162h105zM0 132h194q10 0 10 -10v-111
q0 -11 -10 -11h-194q-10 0 -10 11v111q0 10 10 10z" />
    <glyph glyph-name="uniFB95" unicode="&#x6af;" horiz-adv-x="813" arabic-form="medial" 
d="M532 795h182v-5l-345 -286l160 -70q186 -80 186 -223q0 -98 -70.5 -154.5t-193.5 -56.5h-289q-10 0 -10 11v111q0 10 10 10h297q58 0 94 20.5t36 53.5t-28.5 60t-94.5 56l-250 110v88zM617 104l56 71q64 -43 140 -43q10 0 10 -10v-111q0 -11 -10 -11q-108 0 -196 104z
M349 795v-4l-223 -207l-46 49l164 162h105zM0 132h194q10 0 10 -10v-111q0 -11 -10 -11h-194q-10 0 -10 11v111q0 10 10 10z" />
    <glyph glyph-name="uniFB9F" unicode="&#x6ba;" horiz-adv-x="694" arabic-form="final" 
d="M435 440h126q13 -88 26 -190q4 -35 5 -50l1 -6q9 -62 101 -62q10 0 10 -10v-111q0 -11 -10 -11q-64 0 -92 34l-8 10q-4 -37 -17 -74q-29 -88 -101.5 -136.5t-181.5 -48.5q-129 0 -197.5 71t-68.5 206q0 61 10 106.5t34 116.5h117q-43 -113 -43 -199q0 -78 37.5 -123.5
t115.5 -45.5q175 0 175 186q0 74 -39 337z" />
    <glyph glyph-name="uniFBA7" unicode="&#x6c1;" horiz-adv-x="629" arabic-form="final" 
d="M304 445q64 0 110 -39t92 -129q5 -10 18 -37.5t21 -41t21.5 -32t29 -26.5t33.5 -8q10 0 10 -10v-111q0 -11 -10 -11q-73 0 -121 40.5t-87 137.5q-31 75 -54.5 104.5t-62.5 29.5q-37 0 -65 -32t-66 -119l-37 -84l-108 50l37 84q56 129 110 181.5t129 52.5z" />
    <glyph glyph-name="uniFBA8" unicode="&#x6c1;" horiz-adv-x="274" arabic-form="initial" 
d="M83 -45h94l-47 -102h63l-20 -128h-140v126zM67 485h125q30 -207 30 -288q0 -93 -57 -145t-165 -52q-10 0 -10 11v111q0 10 10 10q54 0 75.5 20t21.5 66q0 64 -30 267z" />
    <glyph glyph-name="uniFBA9" unicode="&#x6c1;" horiz-adv-x="736" arabic-form="medial" 
d="M110 370h128v-330q0 -93 44 -137q39 -39 125 -44v40q0 112 53 172.5t152 60.5h124q10 0 10 -11v-111q0 -10 -10 -10h-119q-51 0 -73.5 -28.5t-22.5 -91.5v-51l-98 -104q-160 0 -237 77q-75 76 -76 233l-2 -1q-45 -34 -108 -34q-10 0 -10 11v111q0 10 10 10q110 0 110 82
v156zM613 -45h94l-47 -102h63l-20 -128h-140v126z" />
    <glyph glyph-name="uniFBAB" unicode="&#x6be;" horiz-adv-x="624" arabic-form="final" 
d="M329 575h102q69 -61 107.5 -134.5t38.5 -147.5q0 -88 -58 -150q19 -4 26 -5q41 -6 80 -6q10 0 10 -11v-111q0 -10 -10 -10q-25 0 -44 4q-13 2 -37 11q16 -20 23 -38q9 -23 9 -45q0 -66 -48 -106.5t-126 -40.5q-136 0 -212 97q-21 27 -35 57q-27 -19 -76 -59l-71 93
q55 51 114 91q-2 38 -2 57q0 129 53.5 247.5t155.5 206.5zM240 128l56 22q156 48 156 140q0 60 -30 107q-24 39 -59 71q-21 -22 -41 -50q-82 -121 -82 -277v-13zM339 34q-46 -17 -72 -29q9 -19 18 -31q43 -62 107 -62q73 0 73 52q0 30 -16 56q-12 21 -34 46q-35 -18 -76 -32
z" />
    <glyph glyph-name="uniFBAC" unicode="&#x6be;" horiz-adv-x="764" arabic-form="initial" 
d="M238 565v125q231 0 359.5 -101.5t128.5 -284.5q0 -86 -43 -203l-119 -114q-120 0 -247 46q-3 1 -12.5 4.5t-15.5 5.5l-20 -6q-119 -37 -269 -37q-10 1 -10 11v111q0 10 10 10q64 0 100 4q-5 5 -13 15q-44 55 -44 126q0 93 64 159t161 66t160 -63.5t63 -161.5
q0 -63 -46 -124q-18 -21 -19 -22q23 -4 31 -5q46 -7 105 -7q40 95 40 179q0 117 -96 192t-268 75zM341 186q26 35 26 76q0 50 -29 80.5t-75 30.5q-45 0 -73 -30t-28 -78q0 -42 26 -77q26 -34 73 -50q56 17 80 48z" />
    <glyph glyph-name="uniFBAD" unicode="&#x6be;" horiz-adv-x="551" arabic-form="medial" 
d="M257 572h102q145 -130 145 -279q0 -75 -40 -130q-5 -7 -17 -21l24 -4q41 -6 80 -6q10 0 10 -11v-111q0 -10 -10 -10q-24 0 -43 4q-11 2 -38 11q16 -20 23 -38q9 -23 9 -45q0 -66 -47.5 -106.5t-126.5 -40.5q-102 0 -169 53t-95 144l-6 19q-19 -1 -58 -1q-10 0 -10 11v111
q0 10 10 10h46q1 52 14 109q48 206 197 331zM162 141l15 3q201 33 201 146q0 59 -29 106q-23 36 -57 69q-23 -22 -45 -53q-55 -80 -75 -181q-8 -43 -10 -90zM195 18l-12 -3q8 -19 25 -44q44 -59 111 -59q73 0 73 52q0 30 -16 56q-10 21 -33 45q-61 -30 -148 -47z" />
    <glyph glyph-name="uniFBAF" unicode="&#x6d2;" horiz-adv-x="742" arabic-form="final" 
d="M279 134h464q10 0 10 -10v-113q0 -11 -10 -11h-493q-84 0 -84 -44q0 -45 106 -45h364l-52 -126h-287q-259 0 -259 168q0 181 241 181z" />
    <glyph glyph-name="uniFBB1" unicode="&#x6d3;" horiz-adv-x="742" arabic-form="final" 
d="M279 134h464q10 0 10 -10v-113q0 -11 -10 -11h-493q-84 0 -84 -44q0 -45 106 -45h364l-52 -126h-287q-259 0 -259 168q0 181 241 181zM375 332h93l-29 -95h-130q-52 0 -106 -17v92q37 12 55 16l-1 1q-20 22 -20 55q0 44 31.5 74t84.5 30q31 0 75 -21v-86q-41 14 -71 14
q-20 0 -32 -9t-12 -23q0 -31 62 -31z" />
    <glyph glyph-name="uniFBFD" unicode="&#x6cc;" horiz-adv-x="679" arabic-form="final" 
d="M474 40v126q131 -34 204 -34q10 0 10 -10v-111q0 -11 -10 -11h-2q-44 -98 -126 -152q-95 -63 -238 -63q-130 0 -207 72.5t-77 204.5q0 61 10 106.5t34 116.5h117q-43 -113 -43 -199q0 -88 47.5 -128.5t142.5 -40.5t162 37q43 24 69 59l-30 8z" />
    <glyph glyph-name="uniFBFE" unicode="&#x6cc;" horiz-adv-x="348" arabic-form="initial" 
d="M148 485h126q30 -206 30 -288q0 -93 -57 -145t-165 -52h-82q-10 0 -10 11v111q0 10 10 10h82q54 0 75 20t21 66q0 64 -30 267zM-20 -153l93 93l75 -72l73 72l94 -93l-93 -93l-74 73l-73 -73z" />
    <glyph glyph-name="uniFBFF" unicode="&#x6cc;" horiz-adv-x="375" arabic-form="medial" 
d="M139 370h117q0 -77 -8 -146q-5 -33 -10 -52q33 -19 61 -28q41 -12 76 -12q10 0 10 -10v-111q0 -11 -10 -11q-56 0 -111 29q-38 22 -67 49q-23 -30 -60 -50q-52 -28 -137 -28q-10 0 -10 11v111q0 10 10 10q85 0 113 45q17 27 21.5 70t4.5 123zM3 -154l93 93l75 -72l73 72
l94 -93l-93 -93l-74 73l-73 -73z" />
    <glyph glyph-name="uniFC02" unicode="&#xfc02;" horiz-adv-x="560" arabic-form="isolated" 
d="M395 532h10l79 -77q-48 -45 -68.5 -81.5t-20.5 -75.5q0 -51 35 -92q27 -31 83 -71l19 -13l-67 -118q-51 6 -92 31q-31 19 -54 42q-19 6 -34 9q-29 6 -52 6q-79 0 -79 -88q0 -79 30 -279h-126q-30 186 -30 289q0 91 55 149.5t140 58.5q26 0 49 -4q16 -2 25 -4
q-28 50 -28 107q0 118 126 211zM434 692h93l-29 -95h-130q-52 0 -106 -17v92q38 12 55 16l-1 1q-20 22 -20 55q0 44 31.5 74t84.5 30q32 0 75 -21v-86q-41 14 -71 14q-20 0 -32 -9t-12 -23q0 -31 62 -31z" />
    <glyph glyph-name="uniFC03" unicode="&#xfc03;" horiz-adv-x="876" arabic-form="isolated" 
d="M661 485h126q29 -199 29 -288q0 -96 -57 -147q-38 -33 -97 -44q-42 -103 -124 -158q-92 -63 -234 -63q-130 0 -203 72t-73 205q0 61 10 106.5t34 116.5h117q-43 -113 -43 -199q0 -88 44.5 -128.5t137.5 -40.5q94 0 158 37q35 21 56 46l-35 2q-67 6 -93 10l15 129
q86 -9 166 -9q54 0 75 20t21 66q0 64 -30 267zM764 632h93l-29 -95h-130q-52 0 -106 -17v92q38 12 55 16l-1 1q-20 22 -20 55q0 44 31.5 74t84.5 30q32 0 75 -21v-86q-41 14 -71 14q-20 0 -32 -9t-12 -23q0 -31 62 -31z" />
    <glyph glyph-name="uniFC04" unicode="&#xfc04;" horiz-adv-x="876" arabic-form="isolated" 
d="M661 485h126q29 -199 29 -288q0 -96 -57 -147q-38 -33 -97 -44q-42 -103 -124 -158q-92 -63 -234 -63q-130 0 -203 72t-73 205q0 61 10 106.5t34 116.5h117q-43 -113 -43 -199q0 -88 44.5 -128.5t137.5 -40.5q94 0 158 37q35 21 56 46l-35 2q-67 6 -93 10l15 129
q86 -9 166 -9q54 0 75 20t21 66q0 64 -30 267zM764 632h93l-29 -95h-130q-52 0 -106 -17v92q38 12 55 16l-1 1q-20 22 -20 55q0 44 31.5 74t84.5 30q32 0 75 -21v-86q-41 14 -71 14q-20 0 -32 -9t-12 -23q0 -31 62 -31zM240 -355l93 93l75 -72l73 72l94 -93l-93 -93l-74 73
l-73 -73z" />
    <glyph glyph-name="uniFC08" unicode="&#xfc08;" horiz-adv-x="560" arabic-form="isolated" 
d="M395 532h10l79 -77q-48 -45 -68.5 -81.5t-20.5 -75.5q0 -51 35 -92q27 -31 83 -71l19 -13l-67 -118q-51 6 -92 31q-31 19 -54 42q-19 6 -34 9q-29 6 -52 6q-79 0 -79 -88q0 -79 30 -279h-126q-30 186 -30 289q0 91 55 149.5t140 58.5q26 0 49 -4q16 -2 25 -4
q-28 50 -28 107q0 118 126 211zM244 -153l93 93l94 -93l-93 -93z" />
    <glyph glyph-name="uniFC09" unicode="&#xfc09;" horiz-adv-x="876" arabic-form="isolated" 
d="M661 485h126q29 -199 29 -288q0 -96 -57 -147q-38 -33 -97 -44q-42 -103 -124 -158q-92 -63 -234 -63q-130 0 -203 72t-73 205q0 61 10 106.5t34 116.5h117q-43 -113 -43 -199q0 -88 44.5 -128.5t137.5 -40.5q94 0 158 37q35 21 56 46l-35 2q-67 6 -93 10l15 129
q86 -9 166 -9q54 0 75 20t21 66q0 64 -30 267zM641 -153l93 93l94 -93l-93 -93z" />
    <glyph glyph-name="uniFC0A" unicode="&#xfc0a;" horiz-adv-x="876" arabic-form="isolated" 
d="M661 485h126q29 -199 29 -288q0 -96 -57 -147q-38 -33 -97 -44q-42 -103 -124 -158q-92 -63 -234 -63q-130 0 -203 72t-73 205q0 61 10 106.5t34 116.5h117q-43 -113 -43 -199q0 -88 44.5 -128.5t137.5 -40.5q94 0 158 37q35 21 56 46l-35 2q-67 6 -93 10l15 129
q86 -9 166 -9q54 0 75 20t21 66q0 64 -30 267zM641 -153l93 93l94 -93l-93 -93zM240 -355l93 93l75 -72l73 72l94 -93l-93 -93l-74 73l-73 -73z" />
    <glyph glyph-name="uniFC0E" unicode="&#xfc0e;" horiz-adv-x="560" arabic-form="isolated" 
d="M395 532h10l79 -77q-48 -45 -68.5 -81.5t-20.5 -75.5q0 -51 35 -92q27 -31 83 -71l19 -13l-67 -118q-51 6 -92 31q-31 19 -54 42q-19 6 -34 9q-29 6 -52 6q-79 0 -79 -88q0 -79 30 -279h-126q-30 186 -30 289q0 91 55 149.5t140 58.5q26 0 49 -4q16 -2 25 -4
q-28 50 -28 107q0 118 126 211zM234 671l93 94l77 -75l75 75l94 -94l-92 -93l-77 74l-76 -74z" />
    <glyph glyph-name="uniFC0F" unicode="&#xfc0f;" horiz-adv-x="911" arabic-form="isolated" 
d="M661 485h126q29 -199 29 -288q0 -96 -57 -147q-38 -33 -97 -44q-42 -103 -124 -158q-92 -63 -234 -63q-130 0 -203 72t-73 205q0 61 10 106.5t34 116.5h117q-43 -113 -43 -199q0 -88 44.5 -128.5t137.5 -40.5q94 0 158 37q35 21 56 46l-35 2q-67 6 -93 10l15 129
q86 -9 166 -9q54 0 75 20t21 66q0 64 -30 267zM552 644l93 94l77 -75l75 75l94 -94l-92 -93l-77 74l-76 -74z" />
    <glyph glyph-name="uniFC10" unicode="&#xfc10;" horiz-adv-x="911" arabic-form="isolated" 
d="M661 485h126q29 -199 29 -288q0 -96 -57 -147q-38 -33 -97 -44q-42 -103 -124 -158q-92 -63 -234 -63q-130 0 -203 72t-73 205q0 61 10 106.5t34 116.5h117q-43 -113 -43 -199q0 -88 44.5 -128.5t137.5 -40.5q94 0 158 37q35 21 56 46l-35 2q-67 6 -93 10l15 129
q86 -9 166 -9q54 0 75 20t21 66q0 64 -30 267zM552 644l93 94l77 -75l75 75l94 -94l-92 -93l-77 74l-76 -74zM240 -355l93 93l75 -72l73 72l94 -93l-93 -93l-74 73l-73 -73z" />
    <glyph glyph-name="uniFC12" unicode="&#xfc12;" horiz-adv-x="560" arabic-form="isolated" 
d="M395 532h10l79 -77q-48 -45 -68.5 -81.5t-20.5 -75.5q0 -51 35 -92q27 -31 83 -71l19 -13l-67 -118q-51 6 -92 31q-31 19 -54 42q-19 6 -34 9q-29 6 -52 6q-79 0 -79 -88q0 -79 30 -279h-126q-30 186 -30 289q0 91 55 149.5t140 58.5q26 0 49 -4q16 -2 25 -4
q-28 50 -28 107q0 118 126 211zM236 680l93 93l79 -78l80 78l94 -93l-93 -94l-81 78l-78 -78zM339 813l69 71l71 -71l-70 -70z" />
    <glyph glyph-name="uniFC13" unicode="&#xfc13;" horiz-adv-x="918" arabic-form="isolated" 
d="M661 485h126q29 -199 29 -288q0 -96 -57 -147q-38 -33 -97 -44q-42 -103 -124 -158q-92 -63 -234 -63q-130 0 -203 72t-73 205q0 61 10 106.5t34 116.5h117q-43 -113 -43 -199q0 -88 44.5 -128.5t137.5 -40.5q94 0 158 37q35 21 56 46l-35 2q-67 6 -93 10l15 129
q86 -9 166 -9q54 0 75 20t21 66q0 64 -30 267zM553 632l93 93l79 -78l80 78l94 -93l-93 -94l-81 78l-78 -78zM656 765l69 71l71 -71l-70 -70z" />
    <glyph glyph-name="uniFC14" unicode="&#xfc14;" horiz-adv-x="918" arabic-form="isolated" 
d="M661 485h126q29 -199 29 -288q0 -96 -57 -147q-38 -33 -97 -44q-42 -103 -124 -158q-92 -63 -234 -63q-130 0 -203 72t-73 205q0 61 10 106.5t34 116.5h117q-43 -113 -43 -199q0 -88 44.5 -128.5t137.5 -40.5q94 0 158 37q35 21 56 46l-35 2q-67 6 -93 10l15 129
q86 -9 166 -9q54 0 75 20t21 66q0 64 -30 267zM553 632l93 93l79 -78l80 78l94 -93l-93 -94l-81 78l-78 -78zM656 765l69 71l71 -71l-70 -70zM240 -355l93 93l75 -72l73 72l94 -93l-93 -93l-74 73l-73 -73z" />
    <glyph glyph-name="uniFC31" unicode="&#xfc31;" horiz-adv-x="872" arabic-form="isolated" 
d="M610 600q95 0 154 -60.5t65 -170.5q6 -100 5 -150q0 -77 -42.5 -130.5t-125.5 -74.5q-91 -229 -362 -229q-130 0 -203 72t-73 205q0 61 10 106.5t34 116.5h117q-43 -113 -43 -199q0 -88 44.5 -128.5t137.5 -40.5q145 0 214 86q-100 5 -138 9l15 119q72 -9 142 -9
q73 0 108 19t41 64q-51 -23 -105 -23q-97 0 -151 52.5t-54 144.5q0 96 60 158.5t150 62.5zM602 472q-35 0 -58.5 -25.5t-23.5 -65.5q-1 -45 25 -70t72 -25q52 0 88 13l-4 60q-4 56 -30 84.5t-69 28.5zM518 747l93 93l94 -93l-93 -93z" />
    <glyph glyph-name="uniFC32" unicode="&#xfc32;" horiz-adv-x="872" arabic-form="isolated" 
d="M610 600q95 0 154 -60.5t65 -170.5q6 -100 5 -150q0 -77 -42.5 -130.5t-125.5 -74.5q-91 -229 -362 -229q-130 0 -203 72t-73 205q0 61 10 106.5t34 116.5h117q-43 -113 -43 -199q0 -88 44.5 -128.5t137.5 -40.5q145 0 214 86q-100 5 -138 9l15 119q72 -9 142 -9
q73 0 108 19t41 64q-51 -23 -105 -23q-97 0 -151 52.5t-54 144.5q0 96 60 158.5t150 62.5zM602 472q-35 0 -58.5 -25.5t-23.5 -65.5q-1 -45 25 -70t72 -25q52 0 88 13l-4 60q-4 56 -30 84.5t-69 28.5zM510 747l93 93l94 -93l-93 -93zM212 -355l93 93l75 -72l73 72l94 -93
l-93 -93l-74 73l-73 -73z" />
    <glyph glyph-name="uniFC35" unicode="&#xfc35;" horiz-adv-x="872" arabic-form="isolated" 
d="M610 600q95 0 154 -60.5t65 -170.5q6 -100 5 -150q0 -77 -42.5 -130.5t-125.5 -74.5q-91 -229 -362 -229q-130 0 -203 72t-73 205q0 61 10 106.5t34 116.5h117q-43 -113 -43 -199q0 -88 44.5 -128.5t137.5 -40.5q145 0 214 86q-100 5 -138 9l15 119q72 -9 142 -9
q73 0 108 19t41 64q-51 -23 -105 -23q-97 0 -151 52.5t-54 144.5q0 96 60 158.5t150 62.5zM602 472q-35 0 -58.5 -25.5t-23.5 -65.5q-1 -45 25 -70t72 -25q52 0 88 13l-4 60q-4 56 -30 84.5t-69 28.5zM444 747l93 94l77 -75l75 75l94 -94l-92 -93l-77 74l-76 -74z" />
    <glyph glyph-name="uniFC36" unicode="&#xfc36;" horiz-adv-x="872" arabic-form="isolated" 
d="M610 600q95 0 154 -60.5t65 -170.5q6 -100 5 -150q0 -77 -42.5 -130.5t-125.5 -74.5q-91 -229 -362 -229q-130 0 -203 72t-73 205q0 61 10 106.5t34 116.5h117q-43 -113 -43 -199q0 -88 44.5 -128.5t137.5 -40.5q145 0 214 86q-100 5 -138 9l15 119q72 -9 142 -9
q73 0 108 19t41 64q-51 -23 -105 -23q-97 0 -151 52.5t-54 144.5q0 96 60 158.5t150 62.5zM602 472q-35 0 -58.5 -25.5t-23.5 -65.5q-1 -45 25 -70t72 -25q52 0 88 13l-4 60q-4 56 -30 84.5t-69 28.5zM444 747l93 94l77 -75l75 75l94 -94l-92 -93l-77 74l-76 -74zM230 -355
l93 93l75 -72l73 72l94 -93l-93 -93l-74 73l-73 -73z" />
    <glyph glyph-name="uniFC3D" unicode="&#xfc3d;" horiz-adv-x="1440" arabic-form="isolated" 
d="M1228 795h181v-5l-344 -286l160 -70q186 -80 186 -223q0 -98 -71 -154.5t-194 -56.5h-247h-2h-1q-108 0 -170 54q-62 56 -62 151q0 33 5 88q5 40 12 77q-50 -4 -100 -16q-68 -17 -104 -46t-36 -58q0 -21 14 -37.5t55 -42.5l35 -24q54 -36 78.5 -74t24.5 -85
q0 -89 -84 -145.5t-221 -56.5q-160 0 -237.5 68.5t-77.5 208.5q0 61 10 106.5t34 116.5h117q-43 -113 -43 -199q0 -91 53 -131t177 -40q65 0 109.5 18t44.5 45t-70 75l-48 34q-89 64 -89 155t92 165t282 93l112 -78q-29 -132 -29 -182q0 -52 30 -80q29 -26 83 -28h3h1h2h255
q58 0 94.5 20.5t36.5 53.5t-28.5 60t-95.5 56l-249 110v88z" />
    <glyph glyph-name="uniFC3E" unicode="&#xfc3e;" horiz-adv-x="1440" arabic-form="isolated" 
d="M1228 795h181v-5l-344 -286l160 -70q186 -80 186 -223q0 -98 -71 -154.5t-194 -56.5h-247h-2h-1q-108 0 -170 54q-62 56 -62 151q0 33 5 88q5 40 12 77q-50 -4 -100 -16q-68 -17 -104 -46t-36 -58q0 -21 14 -37.5t55 -42.5l35 -24q54 -36 78.5 -74t24.5 -85
q0 -89 -84 -145.5t-221 -56.5q-160 0 -237.5 68.5t-77.5 208.5q0 61 10 106.5t34 116.5h117q-43 -113 -43 -199q0 -91 53 -131t177 -40q65 0 109.5 18t44.5 45t-70 75l-48 34q-89 64 -89 155t92 165t282 93l112 -78q-29 -132 -29 -182q0 -52 30 -80q29 -26 83 -28h3h1h2h255
q58 0 94.5 20.5t36.5 53.5t-28.5 60t-95.5 56l-249 110v88zM240 -355l93 93l75 -72l73 72l94 -93l-93 -93l-74 73l-73 -73z" />
    <glyph glyph-name="uniFC42" unicode="&#xfc42;" horiz-adv-x="548" arabic-form="isolated" 
d="M290 725h126v-528q28 -13 36 -17q39 -20 95 -58l-67 -118q-51 6 -92 31q-32 19 -54 42q-19 6 -34 9q-28 6 -52 6q-79 0 -79 -88q0 -79 30 -279h-126q-30 186 -30 289q0 91 55 149.5t140 58.5q26 0 49 -4q3 -1 11 -1q-4 22 -6 46q-2 36 -2 49v413z" />
    <glyph glyph-name="uniFC44" unicode="&#xfc44;" horiz-adv-x="868" arabic-form="isolated" 
d="M665 725h126v-528q0 -91 -56 -144q-28 -26 -70 -40q-42 -107 -127 -165q-92 -63 -234 -63q-130 0 -203 72t-73 205q0 61 10 106.5t34 116.5h117q-43 -113 -43 -199q0 -88 44.5 -128.5t137.5 -40.5q94 0 158 37q35 21 56 46l-48 2q-41 3 -80 10l15 129q72 -9 140 -9
q54 0 75 20t21 66v507zM209 -351l93 93l75 -72l73 72l94 -93l-93 -93l-74 73l-73 -73z" />
    <glyph glyph-name="uniFC4E" unicode="&#xfc4e;" horiz-adv-x="560" arabic-form="isolated" 
d="M395 532h10l79 -77q-48 -45 -68.5 -81.5t-20.5 -75.5q0 -51 35 -92q27 -31 83 -71l19 -13l-67 -118q-51 6 -92 31q-31 19 -54 42q-19 6 -34 9q-29 6 -52 6q-79 0 -79 -88q0 -79 30 -279h-126q-30 186 -30 289q0 91 55 149.5t140 58.5q26 0 49 -4q16 -2 25 -4
q-28 50 -28 107q0 118 126 211zM313 688l93 93l94 -93l-93 -93z" />
    <glyph glyph-name="uniFC4F" unicode="&#xfc4f;" horiz-adv-x="864" arabic-form="isolated" 
d="M661 485h126q29 -199 29 -288q0 -96 -57 -147q-38 -33 -97 -44q-42 -103 -124 -158q-92 -63 -234 -63q-130 0 -203 72t-73 205q0 61 10 106.5t34 116.5h117q-43 -113 -43 -199q0 -88 44.5 -128.5t137.5 -40.5q94 0 158 37q35 21 56 46l-35 2q-67 6 -93 10l15 129
q86 -9 166 -9q54 0 75 20t21 66q0 64 -30 267zM623 639l93 93l94 -93l-93 -93z" />
    <glyph glyph-name="uniFC50" unicode="&#xfc50;" horiz-adv-x="864" arabic-form="isolated" 
d="M661 485h126q29 -199 29 -288q0 -96 -57 -147q-38 -33 -97 -44q-42 -103 -124 -158q-92 -63 -234 -63q-130 0 -203 72t-73 205q0 61 10 106.5t34 116.5h117q-43 -113 -43 -199q0 -88 44.5 -128.5t137.5 -40.5q94 0 158 37q35 21 56 46l-35 2q-67 6 -93 10l15 129
q86 -9 166 -9q54 0 75 20t21 66q0 64 -30 267zM623 639l93 93l94 -93l-93 -93zM240 -355l93 93l75 -72l73 72l94 -93l-93 -93l-74 73l-73 -73z" />
    <glyph glyph-name="uniFC58" unicode="&#xfc58;" horiz-adv-x="560" arabic-form="isolated" 
d="M395 532h10l79 -77q-48 -45 -68.5 -81.5t-20.5 -75.5q0 -51 35 -92q27 -31 83 -71l19 -13l-67 -118q-51 6 -92 31q-31 19 -54 42q-19 6 -34 9q-29 6 -52 6q-79 0 -79 -88q0 -79 30 -279h-126q-30 186 -30 289q0 91 55 149.5t140 58.5q26 0 49 -4q16 -2 25 -4
q-28 50 -28 107q0 118 126 211zM203 -148l93 93l75 -72l73 72l94 -93l-93 -93l-74 73l-73 -73z" />
    <glyph glyph-name="uniFC64" unicode="&#xfc64;" horiz-adv-x="610" arabic-form="final" 
d="M443 461l107 -60q-21 -90 -21 -161q0 -108 81 -108q10 0 10 -10v-111q0 -11 -10 -11q-100 0 -148 45t-48 139q0 45 4 81l9 63q-47 -24 -86 -38q-44 -15 -95 -24q4 -37 5 -47q8 -79 8 -197q0 -115 -72 -176t-195 -61v114q62 0 104 33.5t42 97.5q0 105 -26 328l10 12
q166 14 321 91zM497 642h93l-29 -95h-130q-52 0 -106 -17v92q38 12 55 16l-1 1q-20 22 -20 55q0 44 31.5 74t84.5 30q31 0 75 -21v-86q-41 14 -71 14q-20 0 -32 -9t-12 -23q0 -31 62 -31z" />
    <glyph glyph-name="uniFC65" unicode="&#xfc65;" horiz-adv-x="610" arabic-form="final" 
d="M443 461l107 -60q-21 -90 -21 -161q0 -108 81 -108q10 0 10 -10v-111q0 -11 -10 -11q-100 0 -148 45t-48 139q0 45 4 81l9 63q-47 -24 -86 -38q-44 -15 -95 -24q4 -37 5 -47q8 -79 8 -197q0 -115 -72 -176t-195 -61v114q62 0 104 33.5t42 97.5q0 105 -26 328l10 12
q166 14 321 91zM46 552l93 93l94 -93l-93 -93zM512 642h93l-29 -95h-130q-52 0 -106 -17v92q37 12 55 16l-1 1q-20 22 -20 55q0 44 31.5 74t84.5 30q32 0 75 -21v-86q-41 14 -71 14q-20 0 -32 -9t-12 -23q0 -31 62 -31z" />
    <glyph glyph-name="uniFC67" unicode="&#xfc67;" horiz-adv-x="948" arabic-form="final" 
d="M781 461l107 -60q-23 -85 -21 -161q0 -108 81 -108q10 0 10 -10v-111q0 -11 -10 -11q-102 0 -149.5 45t-47.5 139q0 36 5 81q3 30 9 62q-45 -23 -81 -35q-43 -16 -98 -27l7 -80q4 -39 4 -88q0 -143 -79 -227.5t-224 -84.5q-129 0 -197.5 71t-68.5 206q0 61 10 106.5
t34 116.5h117q-43 -113 -43 -199q0 -78 37.5 -123.5t115.5 -45.5q89 0 130.5 46t41.5 140q0 90 -22 255l10 12q168 13 322 91zM826 640h93l-29 -95h-130q-52 0 -106 -17v92l31 10q12 4 24 6l-1 1q-20 22 -20 55q0 44 31.5 74t84.5 30q32 0 75 -21v-86q-41 14 -71 14
q-20 0 -32 -9t-12 -23q0 -31 62 -31zM201 479l93 93l94 -93l-93 -93z" />
    <glyph glyph-name="uniFC68" unicode="&#xfc68;" horiz-adv-x="899" arabic-form="final" 
d="M697 500l113 -66q-30 -129 -30 -194q0 -52 30.5 -80t89.5 -28q10 0 10 -10v-111q0 -11 -10 -11q-109 0 -172.5 55t-63.5 150q0 33 5 88q5 40 12 77q-50 -4 -100 -16q-68 -17 -104 -46t-36 -58q0 -21 14 -37.5t55 -42.5l35 -24q54 -36 78.5 -74t24.5 -85q0 -89 -84 -145.5
t-221 -56.5q-160 0 -237.5 68.5t-77.5 208.5q0 61 10 106.5t34 116.5h117q-43 -113 -43 -199q0 -91 53 -131t177 -40q65 0 109.5 18t44.5 45t-70 75l-48 34q-89 64 -89 155t92 165t282 93zM731 675h93l-29 -95h-130q-52 0 -106 -17v92q37 13 55 16l-1 1q-20 22 -20 55
q0 44 31.5 74t84.5 30q31 0 75 -21v-86q-41 14 -71 14q-20 0 -32 -9t-12 -23q0 -31 62 -31z" />
    <glyph glyph-name="uniFC69" unicode="&#xfc69;" horiz-adv-x="899" arabic-form="final" 
d="M697 500l113 -66q-30 -129 -30 -194q0 -52 30.5 -80t89.5 -28q10 0 10 -10v-111q0 -11 -10 -11q-109 0 -172.5 55t-63.5 150q0 33 5 88q5 40 12 77q-50 -4 -100 -16q-68 -17 -104 -46t-36 -58q0 -21 14 -37.5t55 -42.5l35 -24q54 -36 78.5 -74t24.5 -85q0 -89 -84 -145.5
t-221 -56.5q-160 0 -237.5 68.5t-77.5 208.5q0 61 10 106.5t34 116.5h117q-43 -113 -43 -199q0 -91 53 -131t177 -40q65 0 109.5 18t44.5 45t-70 75l-48 34q-89 64 -89 155t92 165t282 93zM731 675h93l-29 -95h-130q-52 0 -106 -17v92q37 13 55 16l-1 1q-20 22 -20 55
q0 44 31.5 74t84.5 30q31 0 75 -21v-86q-41 14 -71 14q-20 0 -32 -9t-12 -23q0 -31 62 -31zM240 -355l93 93l75 -72l73 72l94 -93l-93 -93l-74 73l-73 -73z" />
    <glyph glyph-name="uniFC6A" unicode="&#xfc6a;" horiz-adv-x="610" arabic-form="final" 
d="M443 461l107 -60q-21 -90 -21 -161q0 -108 81 -108q10 0 10 -10v-111q0 -11 -10 -11q-100 0 -148 45t-48 139q0 45 4 81l9 63q-47 -24 -86 -38q-44 -15 -95 -24q4 -37 5 -47q8 -79 8 -197q0 -115 -72 -176t-195 -61v114q62 0 104 33.5t42 97.5q0 105 -26 328l10 12
q166 14 321 91zM304 -153l93 93l94 -93l-93 -93z" />
    <glyph glyph-name="uniFC6B" unicode="&#xfc6b;" horiz-adv-x="610" arabic-form="final" 
d="M443 461l107 -60q-21 -90 -21 -161q0 -108 81 -108q10 0 10 -10v-111q0 -11 -10 -11q-100 0 -148 45t-48 139q0 45 4 81l9 63q-47 -24 -86 -38q-44 -15 -95 -24q4 -37 5 -47q8 -79 8 -197q0 -115 -72 -176t-195 -61v114q62 0 104 33.5t42 97.5q0 105 -26 328l10 12
q166 14 321 91zM46 552l93 93l94 -93l-93 -93zM304 -153l93 93l94 -93l-93 -93z" />
    <glyph glyph-name="uniFC6D" unicode="&#xfc6d;" horiz-adv-x="948" arabic-form="final" 
d="M781 461l107 -60q-23 -85 -21 -161q0 -108 81 -108q10 0 10 -10v-111q0 -11 -10 -11q-102 0 -149.5 45t-47.5 139q0 36 5 81q3 30 9 62q-45 -23 -81 -35q-43 -16 -98 -27l7 -80q4 -39 4 -88q0 -143 -79 -227.5t-224 -84.5q-129 0 -197.5 71t-68.5 206q0 61 10 106.5
t34 116.5h117q-43 -113 -43 -199q0 -78 37.5 -123.5t115.5 -45.5q89 0 130.5 46t41.5 140q0 90 -22 255l10 12q168 13 322 91zM616 -154l93 93l94 -93l-93 -93zM201 479l93 93l94 -93l-93 -93z" />
    <glyph glyph-name="uniFC6E" unicode="&#xfc6e;" horiz-adv-x="899" arabic-form="final" 
d="M697 500l113 -66q-30 -129 -30 -194q0 -52 30.5 -80t89.5 -28q10 0 10 -10v-111q0 -11 -10 -11q-109 0 -172.5 55t-63.5 150q0 33 5 88q5 40 12 77q-50 -4 -100 -16q-68 -17 -104 -46t-36 -58q0 -21 14 -37.5t55 -42.5l35 -24q54 -36 78.5 -74t24.5 -85q0 -89 -84 -145.5
t-221 -56.5q-160 0 -237.5 68.5t-77.5 208.5q0 61 10 106.5t34 116.5h117q-43 -113 -43 -199q0 -91 53 -131t177 -40q65 0 109.5 18t44.5 45t-70 75l-48 34q-89 64 -89 155t92 165t282 93zM679 -153l93 93l94 -93l-93 -93z" />
    <glyph glyph-name="uniFC6F" unicode="&#xfc6f;" horiz-adv-x="899" arabic-form="final" 
d="M697 500l113 -66q-30 -129 -30 -194q0 -52 30.5 -80t89.5 -28q10 0 10 -10v-111q0 -11 -10 -11q-109 0 -172.5 55t-63.5 150q0 33 5 88q5 40 12 77q-50 -4 -100 -16q-68 -17 -104 -46t-36 -58q0 -21 14 -37.5t55 -42.5l35 -24q54 -36 78.5 -74t24.5 -85q0 -89 -84 -145.5
t-221 -56.5q-160 0 -237.5 68.5t-77.5 208.5q0 61 10 106.5t34 116.5h117q-43 -113 -43 -199q0 -91 53 -131t177 -40q65 0 109.5 18t44.5 45t-70 75l-48 34q-89 64 -89 155t92 165t282 93zM679 -153l93 93l94 -93l-93 -93zM240 -355l93 93l75 -72l73 72l94 -93l-93 -93
l-74 73l-73 -73z" />
    <glyph glyph-name="uniFC70" unicode="&#xfc70;" horiz-adv-x="610" arabic-form="final" 
d="M443 461l107 -60q-21 -90 -21 -161q0 -108 81 -108q10 0 10 -10v-111q0 -11 -10 -11q-100 0 -148 45t-48 139q0 45 4 81l9 63q-47 -24 -86 -38q-44 -15 -95 -24q4 -37 5 -47q8 -79 8 -197q0 -115 -72 -176t-195 -61v114q62 0 104 33.5t42 97.5q0 105 -26 328l10 12
q166 14 321 91zM267 632l93 94l77 -75l75 75l94 -94l-92 -93l-77 74l-76 -74z" />
    <glyph glyph-name="uniFC71" unicode="&#xfc71;" horiz-adv-x="610" arabic-form="final" 
d="M443 461l107 -60q-21 -90 -21 -161q0 -108 81 -108q10 0 10 -10v-111q0 -11 -10 -11q-100 0 -148 45t-48 139q0 45 4 81l9 63q-47 -24 -86 -38q-44 -15 -95 -24q4 -37 5 -47q8 -79 8 -197q0 -115 -72 -176t-195 -61v114q62 0 104 33.5t42 97.5q0 105 -26 328l10 12
q166 14 321 91zM46 552l93 93l94 -93l-93 -93zM285 632l93 94l77 -75l75 75l94 -94l-92 -93l-77 74l-76 -74z" />
    <glyph glyph-name="uniFC73" unicode="&#xfc73;" horiz-adv-x="948" arabic-form="final" 
d="M781 461l107 -60q-23 -85 -21 -161q0 -108 81 -108q10 0 10 -10v-111q0 -11 -10 -11q-102 0 -149.5 45t-47.5 139q0 36 5 81q3 30 9 62q-45 -23 -81 -35q-43 -16 -98 -27l7 -80q4 -39 4 -88q0 -143 -79 -227.5t-224 -84.5q-129 0 -197.5 71t-68.5 206q0 61 10 106.5
t34 116.5h117q-43 -113 -43 -199q0 -78 37.5 -123.5t115.5 -45.5q89 0 130.5 46t41.5 140q0 90 -22 255l10 12q168 13 322 91zM600 633l93 94l77 -75l75 75l94 -94l-92 -93l-77 74l-76 -74zM201 479l93 93l94 -93l-93 -93z" />
    <glyph glyph-name="uniFC74" unicode="&#xfc74;" horiz-adv-x="899" arabic-form="final" 
d="M697 500l113 -66q-30 -129 -30 -194q0 -52 30.5 -80t89.5 -28q10 0 10 -10v-111q0 -11 -10 -11q-109 0 -172.5 55t-63.5 150q0 33 5 88q5 40 12 77q-50 -4 -100 -16q-68 -17 -104 -46t-36 -58q0 -21 14 -37.5t55 -42.5l35 -24q54 -36 78.5 -74t24.5 -85q0 -89 -84 -145.5
t-221 -56.5q-160 0 -237.5 68.5t-77.5 208.5q0 61 10 106.5t34 116.5h117q-43 -113 -43 -199q0 -91 53 -131t177 -40q65 0 109.5 18t44.5 45t-70 75l-48 34q-89 64 -89 155t92 165t282 93zM508 664l93 94l77 -75l75 75l94 -94l-92 -93l-77 74l-76 -74z" />
    <glyph glyph-name="uniFC75" unicode="&#xfc75;" horiz-adv-x="899" arabic-form="final" 
d="M697 500l113 -66q-30 -129 -30 -194q0 -52 30.5 -80t89.5 -28q10 0 10 -10v-111q0 -11 -10 -11q-109 0 -172.5 55t-63.5 150q0 33 5 88q5 40 12 77q-50 -4 -100 -16q-68 -17 -104 -46t-36 -58q0 -21 14 -37.5t55 -42.5l35 -24q54 -36 78.5 -74t24.5 -85q0 -89 -84 -145.5
t-221 -56.5q-160 0 -237.5 68.5t-77.5 208.5q0 61 10 106.5t34 116.5h117q-43 -113 -43 -199q0 -91 53 -131t177 -40q65 0 109.5 18t44.5 45t-70 75l-48 34q-89 64 -89 155t92 165t282 93zM508 664l93 94l77 -75l75 75l94 -94l-92 -93l-77 74l-76 -74zM241 -355l93 93
l75 -72l73 72l94 -93l-93 -93l-74 73l-73 -73z" />
    <glyph glyph-name="uniFC76" unicode="&#xfc76;" horiz-adv-x="610" arabic-form="final" 
d="M443 461l107 -60q-21 -90 -21 -161q0 -108 81 -108q10 0 10 -10v-111q0 -11 -10 -11q-100 0 -148 45t-48 139q0 45 4 81l9 63q-47 -24 -86 -38q-44 -15 -95 -24q4 -37 5 -47q8 -79 8 -197q0 -115 -72 -176t-195 -61v114q62 0 104 33.5t42 97.5q0 105 -26 328l10 12
q166 14 321 91zM265 632l93 93l79 -78l80 78l94 -93l-93 -94l-81 78l-78 -78zM368 765l69 71l71 -71l-70 -70z" />
    <glyph glyph-name="uniFC77" unicode="&#xfc77;" horiz-adv-x="610" arabic-form="final" 
d="M443 461l107 -60q-21 -90 -21 -161q0 -108 81 -108q10 0 10 -10v-111q0 -11 -10 -11q-100 0 -148 45t-48 139q0 45 4 81l9 63q-47 -24 -86 -38q-44 -15 -95 -24q4 -37 5 -47q8 -79 8 -197q0 -115 -72 -176t-195 -61v114q62 0 104 33.5t42 97.5q0 105 -26 328l10 12
q166 14 321 91zM46 552l93 93l94 -93l-93 -93zM280 632l93 93l79 -78l80 78l94 -93l-93 -94l-81 78l-78 -78zM383 765l69 71l71 -71l-70 -70z" />
    <glyph glyph-name="uniFC79" unicode="&#xfc79;" horiz-adv-x="948" arabic-form="final" 
d="M781 461l107 -60q-23 -85 -21 -161q0 -108 81 -108q10 0 10 -10v-111q0 -11 -10 -11q-102 0 -149.5 45t-47.5 139q0 36 5 81q3 30 9 62q-45 -23 -81 -35q-43 -16 -98 -27l7 -80q4 -39 4 -88q0 -143 -79 -227.5t-224 -84.5q-129 0 -197.5 71t-68.5 206q0 61 10 106.5
t34 116.5h117q-43 -113 -43 -199q0 -78 37.5 -123.5t115.5 -45.5q89 0 130.5 46t41.5 140q0 90 -22 255l10 12q168 13 322 91zM599 633l93 93l79 -78l80 78l94 -93l-93 -94l-81 78l-78 -78zM201 479l93 93l94 -93l-93 -93zM702 766l69 71l71 -71l-70 -70z" />
    <glyph glyph-name="uniFC7A" unicode="&#xfc7a;" horiz-adv-x="899" arabic-form="final" 
d="M697 500l113 -66q-30 -129 -30 -194q0 -52 30.5 -80t89.5 -28q10 0 10 -10v-111q0 -11 -10 -11q-109 0 -172.5 55t-63.5 150q0 33 5 88q5 40 12 77q-50 -4 -100 -16q-68 -17 -104 -46t-36 -58q0 -21 14 -37.5t55 -42.5l35 -24q54 -36 78.5 -74t24.5 -85q0 -89 -84 -145.5
t-221 -56.5q-160 0 -237.5 68.5t-77.5 208.5q0 61 10 106.5t34 116.5h117q-43 -113 -43 -199q0 -91 53 -131t177 -40q65 0 109.5 18t44.5 45t-70 75l-48 34q-89 64 -89 155t92 165t282 93zM512 643l93 93l79 -78l80 78l94 -93l-93 -94l-81 78l-78 -78zM615 776l69 71l71 -71
l-70 -70z" />
    <glyph glyph-name="uniFC7B" unicode="&#xfc7b;" horiz-adv-x="899" arabic-form="final" 
d="M697 500l113 -66q-30 -129 -30 -194q0 -52 30.5 -80t89.5 -28q10 0 10 -10v-111q0 -11 -10 -11q-109 0 -172.5 55t-63.5 150q0 33 5 88q5 40 12 77q-50 -4 -100 -16q-68 -17 -104 -46t-36 -58q0 -21 14 -37.5t55 -42.5l35 -24q54 -36 78.5 -74t24.5 -85q0 -89 -84 -145.5
t-221 -56.5q-160 0 -237.5 68.5t-77.5 208.5q0 61 10 106.5t34 116.5h117q-43 -113 -43 -199q0 -91 53 -131t177 -40q65 0 109.5 18t44.5 45t-70 75l-48 34q-89 64 -89 155t92 165t282 93zM512 643l93 93l79 -78l80 78l94 -93l-93 -94l-81 78l-78 -78zM615 776l69 71l71 -71
l-70 -70zM240 -355l93 93l75 -72l73 72l94 -93l-93 -93l-74 73l-73 -73z" />
    <glyph glyph-name="uniFC83" unicode="&#xfc83;" horiz-adv-x="1521" arabic-form="final" 
d="M1228 795h181v-5l-344 -286l160 -70q186 -80 186 -223q0 -98 -71 -154.5t-194 -56.5h-247h-2h-1q-108 0 -170 54q-62 56 -62 151q0 33 5 88q5 40 12 77q-50 -4 -100 -16q-68 -17 -104 -46t-36 -58q0 -21 14 -37.5t55 -42.5l35 -24q54 -36 78.5 -74t24.5 -85
q0 -89 -84 -145.5t-221 -56.5q-160 0 -237.5 68.5t-77.5 208.5q0 61 10 106.5t34 116.5h117q-43 -113 -43 -199q0 -91 53 -131t177 -40q65 0 109.5 18t44.5 45t-70 75l-48 34q-89 64 -89 155t92 165t282 93l112 -78q-29 -132 -29 -182q0 -52 30 -80q29 -26 83 -28h3h1h2h255
q58 0 94.5 20.5t36.5 53.5t-28.5 60t-95.5 56l-249 110v88zM1325 104l56 71q64 -43 140 -43q10 0 10 -10v-111q0 -11 -10 -11q-108 0 -196 104z" />
    <glyph glyph-name="uniFC84" unicode="&#xfc84;" horiz-adv-x="1521" arabic-form="final" 
d="M1228 795h181v-5l-344 -286l160 -70q186 -80 186 -223q0 -98 -71 -154.5t-194 -56.5h-247h-2h-1q-108 0 -170 54q-62 56 -62 151q0 33 5 88q5 40 12 77q-50 -4 -100 -16q-68 -17 -104 -46t-36 -58q0 -21 14 -37.5t55 -42.5l35 -24q54 -36 78.5 -74t24.5 -85
q0 -89 -84 -145.5t-221 -56.5q-160 0 -237.5 68.5t-77.5 208.5q0 61 10 106.5t34 116.5h117q-43 -113 -43 -199q0 -91 53 -131t177 -40q65 0 109.5 18t44.5 45t-70 75l-48 34q-89 64 -89 155t92 165t282 93l112 -78q-29 -132 -29 -182q0 -52 30 -80q29 -26 83 -28h3h1h2h255
q58 0 94.5 20.5t36.5 53.5t-28.5 60t-95.5 56l-249 110v88zM1325 104l56 71q64 -43 140 -43q10 0 10 -10v-111q0 -11 -10 -11q-108 0 -196 104zM240 -355l93 93l75 -72l73 72l94 -93l-93 -93l-74 73l-73 -73z" />
    <glyph glyph-name="uniFC87" unicode="&#xfc87;" horiz-adv-x="889" arabic-form="final" 
d="M667 725h126v-507q0 -46 21 -66t75 -20q10 0 10 -10v-111q0 -11 -10 -11q-110 0 -166 53l-8 7l-5 -4q-18 -16 -39 -30l-1 -1q-42 -115 -132 -177q-92 -63 -234 -63q-130 0 -203 72t-73 205q0 61 10 106.5t34 116.5h117q-43 -113 -43 -199q0 -88 44.5 -128.5t137.5 -40.5
q94 0 158 37q35 21 56 46l-48 2q-41 3 -80 10l15 129q72 -9 140 -9q36 0 69 11q22 10 31 16q-2 24 -2 38v528zM228 -351l93 93l75 -72l73 72l94 -93l-93 -93l-74 73l-73 -73z" />
    <glyph glyph-name="uniFC8A" unicode="&#xfc8a;" horiz-adv-x="610" arabic-form="final" 
d="M443 461l107 -60q-21 -90 -21 -161q0 -108 81 -108q10 0 10 -10v-111q0 -11 -10 -11q-100 0 -148 45t-48 139q0 45 4 81l9 63q-47 -24 -86 -38q-44 -15 -95 -24q4 -37 5 -47q8 -79 8 -197q0 -115 -72 -176t-195 -61v114q62 0 104 33.5t42 97.5q0 105 -26 328l10 12
q166 14 321 91zM355 633l93 93l94 -93l-93 -93z" />
    <glyph glyph-name="uniFC8B" unicode="&#xfc8b;" horiz-adv-x="610" arabic-form="final" 
d="M443 461l107 -60q-21 -90 -21 -161q0 -108 81 -108q10 0 10 -10v-111q0 -11 -10 -11q-100 0 -148 45t-48 139q0 45 4 81l9 63q-47 -24 -86 -38q-44 -15 -95 -24q4 -37 5 -47q8 -79 8 -197q0 -115 -72 -176t-195 -61v114q62 0 104 33.5t42 97.5q0 105 -26 328l10 12
q166 14 321 91zM46 552l93 93l94 -93l-93 -93zM355 633l93 93l94 -93l-93 -93z" />
    <glyph glyph-name="uniFC8D" unicode="&#xfc8d;" horiz-adv-x="948" arabic-form="final" 
d="M781 461l107 -60q-23 -85 -21 -161q0 -108 81 -108q10 0 10 -10v-111q0 -11 -10 -11q-102 0 -149.5 45t-47.5 139q0 36 5 81q3 30 9 62q-45 -23 -81 -35q-43 -16 -98 -27l7 -80q4 -39 4 -88q0 -143 -79 -227.5t-224 -84.5q-129 0 -197.5 71t-68.5 206q0 61 10 106.5
t34 116.5h117q-43 -113 -43 -199q0 -78 37.5 -123.5t115.5 -45.5q89 0 130.5 46t41.5 140q0 90 -22 255l10 12q168 13 322 91zM683 652l93 93l94 -93l-93 -93zM201 479l93 93l94 -93l-93 -93z" />
    <glyph glyph-name="uniFC8E" unicode="&#xfc8e;" horiz-adv-x="899" arabic-form="final" 
d="M697 500l113 -66q-30 -129 -30 -194q0 -52 30.5 -80t89.5 -28q10 0 10 -10v-111q0 -11 -10 -11q-109 0 -172.5 55t-63.5 150q0 33 5 88q5 40 12 77q-50 -4 -100 -16q-68 -17 -104 -46t-36 -58q0 -21 14 -37.5t55 -42.5l35 -24q54 -36 78.5 -74t24.5 -85q0 -89 -84 -145.5
t-221 -56.5q-160 0 -237.5 68.5t-77.5 208.5q0 61 10 106.5t34 116.5h117q-43 -113 -43 -199q0 -91 53 -131t177 -40q65 0 109.5 18t44.5 45t-70 75l-48 34q-89 64 -89 155t92 165t282 93zM598 685l93 93l94 -93l-93 -93z" />
    <glyph glyph-name="uniFC8F" unicode="&#xfc8f;" horiz-adv-x="899" arabic-form="final" 
d="M697 500l113 -66q-30 -129 -30 -194q0 -52 30.5 -80t89.5 -28q10 0 10 -10v-111q0 -11 -10 -11q-109 0 -172.5 55t-63.5 150q0 33 5 88q5 40 12 77q-50 -4 -100 -16q-68 -17 -104 -46t-36 -58q0 -21 14 -37.5t55 -42.5l35 -24q54 -36 78.5 -74t24.5 -85q0 -89 -84 -145.5
t-221 -56.5q-160 0 -237.5 68.5t-77.5 208.5q0 61 10 106.5t34 116.5h117q-43 -113 -43 -199q0 -91 53 -131t177 -40q65 0 109.5 18t44.5 45t-70 75l-48 34q-89 64 -89 155t92 165t282 93zM598 685l93 93l94 -93l-93 -93zM240 -355l93 93l75 -72l73 72l94 -93l-93 -93
l-74 73l-73 -73z" />
    <glyph glyph-name="uniFC91" unicode="&#xfc91;" horiz-adv-x="610" arabic-form="final" 
d="M443 461l107 -60q-21 -90 -21 -161q0 -108 81 -108q10 0 10 -10v-111q0 -11 -10 -11q-100 0 -148 45t-48 139q0 45 4 81l9 63q-47 -24 -86 -38q-44 -15 -95 -24q4 -37 5 -47q8 -79 8 -197q0 -115 -72 -176t-195 -61v114q62 0 104 33.5t42 97.5q0 105 -26 328l10 12
q166 14 321 91zM249 -148l93 93l75 -72l73 72l94 -93l-93 -93l-74 73l-73 -73z" />
    <glyph glyph-name="uniFC92" unicode="&#xfc92;" horiz-adv-x="610" arabic-form="final" 
d="M443 461l107 -60q-21 -90 -21 -161q0 -108 81 -108q10 0 10 -10v-111q0 -11 -10 -11q-100 0 -148 45t-48 139q0 45 4 81l9 63q-47 -24 -86 -38q-44 -15 -95 -24q4 -37 5 -47q8 -79 8 -197q0 -115 -72 -176t-195 -61v114q62 0 104 33.5t42 97.5q0 105 -26 328l10 12
q166 14 321 91zM46 552l93 93l94 -93l-93 -93zM249 -148l93 93l75 -72l73 72l94 -93l-93 -93l-74 73l-73 -73z" />
    <glyph glyph-name="uniFC94" unicode="&#xfc94;" horiz-adv-x="948" arabic-form="final" 
d="M781 461l107 -60q-23 -85 -21 -161q0 -108 81 -108q10 0 10 -10v-111q0 -11 -10 -11q-102 0 -149.5 45t-47.5 139q0 36 5 81q3 30 9 62q-45 -23 -81 -35q-43 -16 -98 -27l7 -80q4 -39 4 -88q0 -143 -79 -227.5t-224 -84.5q-129 0 -197.5 71t-68.5 206q0 61 10 106.5
t34 116.5h117q-43 -113 -43 -199q0 -78 37.5 -123.5t115.5 -45.5q89 0 130.5 46t41.5 140q0 90 -22 255l10 12q168 13 322 91zM573 -148l93 93l75 -72l73 72l94 -93l-93 -93l-74 73l-73 -73zM201 479l93 93l94 -93l-93 -93z" />
    <glyph glyph-name="uniFCCC" unicode="&#xfccc;" horiz-adv-x="313" arabic-form="initial" 
d="M0 132q34 0 66 -3q11 -1 35 -5l-2 10q-9 65 -9 102v489h126v-623l28 -14q47 -24 92 -58l-64 -114q-50 11 -90 31q-32 15 -54 37l-15 3q-55 13 -113 13q-10 0 -10 10v111q0 11 10 11z" />
    <glyph glyph-name="uniFCFB" unicode="&#xfcfb;" horiz-adv-x="1487" arabic-form="isolated" 
d="M1284 485h126q30 -200 30 -291q0 -85 -57 -139.5t-146 -54.5q-46 0 -101 20q-31 11 -77 40q-18 -18 -46 -33q-53 -27 -118 -27q-105 0 -168 55t-63 150q0 33 5 88q5 40 12 77q-50 -4 -100 -16q-68 -17 -104 -46t-36 -58q0 -21 14 -37.5t55 -42.5l35 -24q54 -36 78.5 -74
t24.5 -85q0 -89 -84 -145.5t-221 -56.5q-160 0 -237.5 68.5t-77.5 208.5q0 61 10 106.5t34 116.5h117q-43 -113 -43 -199q0 -91 53 -131t177 -40q65 0 109.5 18t44.5 45t-70 75l-48 34q-89 64 -89 155t92 165t282 93l113 -66q-30 -129 -30 -194q0 -51 30.5 -79.5t86.5 -28.5
q77 0 100 47q22 47 22 191h116q0 -91 -10 -154q-4 -31 -14 -62q26 -10 38 -13q35 -9 69 -9q50 0 73 20t23 63q0 65 -30 270z" />
    <glyph glyph-name="uniFCFC" unicode="&#xfcfc;" horiz-adv-x="1487" arabic-form="isolated" 
d="M1284 485h126q30 -200 30 -291q0 -85 -57 -139.5t-146 -54.5q-46 0 -101 20q-31 11 -77 40q-18 -18 -46 -33q-53 -27 -118 -27q-105 0 -168 55t-63 150q0 33 5 88q5 40 12 77q-50 -4 -100 -16q-68 -17 -104 -46t-36 -58q0 -21 14 -37.5t55 -42.5l35 -24q54 -36 78.5 -74
t24.5 -85q0 -89 -84 -145.5t-221 -56.5q-160 0 -237.5 68.5t-77.5 208.5q0 61 10 106.5t34 116.5h117q-43 -113 -43 -199q0 -91 53 -131t177 -40q65 0 109.5 18t44.5 45t-70 75l-48 34q-89 64 -89 155t92 165t282 93l113 -66q-30 -129 -30 -194q0 -51 30.5 -79.5t86.5 -28.5
q77 0 100 47q22 47 22 191h116q0 -91 -10 -154q-4 -31 -14 -62q26 -10 38 -13q35 -9 69 -9q50 0 73 20t23 63q0 65 -30 270zM240 -355l93 93l75 -72l73 72l94 -93l-93 -93l-74 73l-73 -73z" />
    <glyph glyph-name="uniFCFD" unicode="&#xfcfd;" horiz-adv-x="1487" arabic-form="isolated" 
d="M1284 485h126q30 -200 30 -291q0 -85 -57 -139.5t-146 -54.5q-46 0 -101 20q-31 11 -77 40q-18 -18 -46 -33q-53 -27 -118 -27q-105 0 -168 55t-63 150q0 33 5 88q5 40 12 77q-50 -4 -100 -16q-68 -17 -104 -46t-36 -58q0 -21 14 -37.5t55 -42.5l35 -24q54 -36 78.5 -74
t24.5 -85q0 -89 -84 -145.5t-221 -56.5q-160 0 -237.5 68.5t-77.5 208.5q0 61 10 106.5t34 116.5h117q-43 -113 -43 -199q0 -91 53 -131t177 -40q65 0 109.5 18t44.5 45t-70 75l-48 34q-89 64 -89 155t92 165t282 93l113 -66q-30 -129 -30 -194q0 -51 30.5 -79.5t86.5 -28.5
q77 0 100 47q22 47 22 191h116q0 -91 -10 -154q-4 -31 -14 -62q26 -10 38 -13q35 -9 69 -9q50 0 73 20t23 63q0 65 -30 270zM916 554l93 93l79 -78l80 78l94 -93l-93 -94l-81 78l-78 -78zM1019 687l69 71l71 -71l-70 -70z" />
    <glyph glyph-name="uniFCFE" unicode="&#xfcfe;" horiz-adv-x="1487" arabic-form="isolated" 
d="M1284 485h126q30 -200 30 -291q0 -85 -57 -139.5t-146 -54.5q-46 0 -101 20q-31 11 -77 40q-18 -18 -46 -33q-53 -27 -118 -27q-105 0 -168 55t-63 150q0 33 5 88q5 40 12 77q-50 -4 -100 -16q-68 -17 -104 -46t-36 -58q0 -21 14 -37.5t55 -42.5l35 -24q54 -36 78.5 -74
t24.5 -85q0 -89 -84 -145.5t-221 -56.5q-160 0 -237.5 68.5t-77.5 208.5q0 61 10 106.5t34 116.5h117q-43 -113 -43 -199q0 -91 53 -131t177 -40q65 0 109.5 18t44.5 45t-70 75l-48 34q-89 64 -89 155t92 165t282 93l113 -66q-30 -129 -30 -194q0 -51 30.5 -79.5t86.5 -28.5
q77 0 100 47q22 47 22 191h116q0 -91 -10 -154q-4 -31 -14 -62q26 -10 38 -13q35 -9 69 -9q50 0 73 20t23 63q0 65 -30 270zM240 -355l93 93l75 -72l73 72l94 -93l-93 -93l-74 73l-73 -73zM905 554l93 93l79 -78l80 78l94 -93l-93 -94l-81 78l-78 -78zM1008 687l69 71
l71 -71l-70 -70z" />
    <glyph glyph-name="uniFD05" unicode="&#xfd05;" horiz-adv-x="1514" arabic-form="isolated" 
d="M1257 539q95 0 157 -63.5t62 -158.5q0 -145 -111 -231t-300 -86h-159q-117 0 -179.5 52.5t-62.5 152.5q0 33 5 88q5 40 12 77q-50 -4 -100 -16q-68 -17 -104 -46t-36 -58q0 -21 14 -37.5t55 -42.5l35 -24q54 -36 78.5 -74t24.5 -85q0 -89 -84 -145.5t-221 -56.5
q-160 0 -237.5 68.5t-77.5 208.5q0 61 10 106.5t34 116.5h117q-43 -113 -43 -199q0 -91 53 -131t177 -40q65 0 109.5 18t44.5 45t-70 75l-48 34q-89 64 -89 155t92 165t282 93l113 -66q-30 -130 -30 -191q0 -32 8 -56l2 -7q82 101 131 152q107 116 182.5 161.5t153.5 45.5z
M885 132h23h147q133 0 213.5 46t80.5 121q0 48 -32.5 78.5t-83.5 30.5q-56 0 -113.5 -38.5t-146.5 -137.5z" />
    <glyph glyph-name="uniFD06" unicode="&#xfd06;" horiz-adv-x="1514" arabic-form="isolated" 
d="M1257 539q95 0 157 -63.5t62 -158.5q0 -145 -111 -231t-300 -86h-159q-117 0 -179.5 52.5t-62.5 152.5q0 33 5 88q5 40 12 77q-50 -4 -100 -16q-68 -17 -104 -46t-36 -58q0 -21 14 -37.5t55 -42.5l35 -24q54 -36 78.5 -74t24.5 -85q0 -89 -84 -145.5t-221 -56.5
q-160 0 -237.5 68.5t-77.5 208.5q0 61 10 106.5t34 116.5h117q-43 -113 -43 -199q0 -91 53 -131t177 -40q65 0 109.5 18t44.5 45t-70 75l-48 34q-89 64 -89 155t92 165t282 93l113 -66q-30 -130 -30 -191q0 -32 8 -56l2 -7q82 101 131 152q107 116 182.5 161.5t153.5 45.5z
M885 132h23h147q133 0 213.5 46t80.5 121q0 48 -32.5 78.5t-83.5 30.5q-56 0 -113.5 -38.5t-146.5 -137.5zM240 -355l93 93l75 -72l73 72l94 -93l-93 -93l-74 73l-73 -73z" />
    <glyph glyph-name="uniFD07" unicode="&#xfd07;" horiz-adv-x="1514" arabic-form="isolated" 
d="M1257 539q95 0 157 -63.5t62 -158.5q0 -145 -111 -231t-300 -86h-159q-117 0 -179.5 52.5t-62.5 152.5q0 33 5 88q5 40 12 77q-50 -4 -100 -16q-68 -17 -104 -46t-36 -58q0 -21 14 -37.5t55 -42.5l35 -24q54 -36 78.5 -74t24.5 -85q0 -89 -84 -145.5t-221 -56.5
q-160 0 -237.5 68.5t-77.5 208.5q0 61 10 106.5t34 116.5h117q-43 -113 -43 -199q0 -91 53 -131t177 -40q65 0 109.5 18t44.5 45t-70 75l-48 34q-89 64 -89 155t92 165t282 93l113 -66q-30 -130 -30 -191q0 -32 8 -56l2 -7q82 101 131 152q107 116 182.5 161.5t153.5 45.5z
M885 132h23h147q133 0 213.5 46t80.5 121q0 48 -32.5 78.5t-83.5 30.5q-56 0 -113.5 -38.5t-146.5 -137.5zM922 638l93 93l94 -93l-93 -93z" />
    <glyph glyph-name="uniFD08" unicode="&#xfd08;" horiz-adv-x="1514" arabic-form="isolated" 
d="M1257 539q95 0 157 -63.5t62 -158.5q0 -145 -111 -231t-300 -86h-159q-117 0 -179.5 52.5t-62.5 152.5q0 33 5 88q5 40 12 77q-50 -4 -100 -16q-68 -17 -104 -46t-36 -58q0 -21 14 -37.5t55 -42.5l35 -24q54 -36 78.5 -74t24.5 -85q0 -89 -84 -145.5t-221 -56.5
q-160 0 -237.5 68.5t-77.5 208.5q0 61 10 106.5t34 116.5h117q-43 -113 -43 -199q0 -91 53 -131t177 -40q65 0 109.5 18t44.5 45t-70 75l-48 34q-89 64 -89 155t92 165t282 93l113 -66q-30 -130 -30 -191q0 -32 8 -56l2 -7q82 101 131 152q107 116 182.5 161.5t153.5 45.5z
M885 132h23h147q133 0 213.5 46t80.5 121q0 48 -32.5 78.5t-83.5 30.5q-56 0 -113.5 -38.5t-146.5 -137.5zM240 -355l93 93l75 -72l73 72l94 -93l-93 -93l-74 73l-73 -73zM922 638l93 93l94 -93l-93 -93z" />
    <glyph glyph-name="uniFD0D" unicode="&#xfd0d;" horiz-adv-x="1227" arabic-form="isolated" 
d="M440 495h118q-40 -166 -40 -226q0 -72 29.5 -104.5t96.5 -32.5q69 0 92 47q22 47 22 191h116q0 -91 -10 -154q-4 -31 -14 -62q26 -10 38 -13q34 -9 69 -9q50 0 73 20t23 63q0 65 -30 270h126q30 -200 30 -291q0 -85 -57 -139.5t-146 -54.5q-46 0 -101 20q-36 13 -76 39
q-18 -18 -43 -32q-50 -27 -114 -27q-117 0 -179 62t-62 177q0 39 4 70l1 11q-14 -3 -38.5 -9t-30.5 -7q-48 -12 -92 -27q4 -43 5 -55q9 -93 9 -200q0 -115 -72 -176t-195 -61v114q62 0 104 33.5t42 97.5q0 126 -20 277l89 90q73 16 131 27q45 9 89 15l1 2q8 30 12 54z
M645 553l93 93l79 -78l80 78l94 -93l-93 -94l-81 78l-78 -78zM748 686l69 71l71 -71l-70 -70z" />
    <glyph glyph-name="uniFD0E" unicode="&#xfd0e;" horiz-adv-x="1227" arabic-form="isolated" 
d="M440 495h118q-40 -166 -40 -226q0 -72 29.5 -104.5t96.5 -32.5q69 0 92 47q22 47 22 191h116q0 -91 -10 -154q-4 -31 -14 -62q26 -10 38 -13q34 -9 69 -9q50 0 73 20t23 63q0 65 -30 270h126q30 -200 30 -291q0 -85 -57 -139.5t-146 -54.5q-46 0 -101 20q-36 13 -76 39
q-18 -18 -43 -32q-50 -27 -114 -27q-117 0 -179 62t-62 177q0 39 4 70l1 11q-14 -3 -38.5 -9t-30.5 -7q-48 -12 -92 -27q4 -43 5 -55q9 -93 9 -200q0 -115 -72 -176t-195 -61v114q62 0 104 33.5t42 97.5q0 126 -20 277l89 90q73 16 131 27q45 9 89 15l1 2q8 30 12 54z" />
    <glyph glyph-name="uniFD0F" unicode="&#xfd0f;" horiz-adv-x="1288" arabic-form="isolated" 
d="M1030 539q95 0 157.5 -64t62.5 -158q0 -145 -111.5 -231t-299.5 -86h-111q-327 0 -327 239q0 39 4 70l1 11q-14 -3 -38.5 -9t-30.5 -7q-48 -12 -92 -27q4 -43 5 -55q9 -93 9 -200q0 -115 -72 -176t-195 -61v114q62 0 104 33.5t42 97.5q0 126 -20 277l89 90q73 16 131 27
q45 9 89 15l1 2q8 30 12 54h118q-40 -166 -40 -226q0 -36 11 -63q9 -21 27 -36q81 100 139 162q107 116 183 161.5t152 45.5zM735 132h93q134 0 214.5 46t80.5 121q0 48 -33 78.5t-84 30.5q-56 0 -113.5 -39.5t-145.5 -137.5q-66 -73 -85 -96q31 -3 73 -3z" />
    <glyph glyph-name="uniFD10" unicode="&#xfd10;" horiz-adv-x="1288" arabic-form="isolated" 
d="M1030 539q95 0 157.5 -64t62.5 -158q0 -145 -111.5 -231t-299.5 -86h-111q-327 0 -327 239q0 39 4 70l1 11q-14 -3 -38.5 -9t-30.5 -7q-48 -12 -92 -27q4 -43 5 -55q9 -93 9 -200q0 -115 -72 -176t-195 -61v114q62 0 104 33.5t42 97.5q0 126 -20 277l89 90q73 16 131 27
q45 9 89 15l1 2q8 30 12 54h118q-40 -166 -40 -226q0 -36 11 -63q9 -21 27 -36q81 100 139 162q107 116 183 161.5t152 45.5zM735 132h93q134 0 214.5 46t80.5 121q0 48 -33 78.5t-84 30.5q-56 0 -113.5 -39.5t-145.5 -137.5q-66 -73 -85 -96q31 -3 73 -3zM659 626l93 93
l94 -93l-93 -93z" />
    <glyph glyph-name="uniFD17" unicode="&#xfd17;" horiz-adv-x="1525" arabic-form="final" 
d="M1311 440h117v-70q0 -91 -10 -154q-5 -31 -12 -55q27 -14 50 -20q34 -9 69 -9q10 0 10 -10v-111q0 -11 -10 -11q-57 0 -103 25q-31 17 -60 43q-17 -22 -46 -41q-42 -27 -105 -27q-44 0 -83 19q-36 17 -74 43q-20 -22 -45 -35q-47 -27 -109 -27q-109 0 -172.5 55.5
t-63.5 149.5q0 33 5 88q5 40 12 77q-50 -4 -100 -16q-68 -17 -104 -46t-36 -58q0 -21 14 -37.5t55 -42.5l35 -24q54 -36 78.5 -74t24.5 -85q0 -89 -84 -145.5t-221 -56.5q-160 0 -237.5 68.5t-77.5 208.5q0 61 10 106.5t34 116.5h117q-43 -113 -43 -199q0 -91 53 -131
t177 -40q65 0 109.5 18t44.5 45t-70 75l-48 34q-89 64 -89 155t92 165t282 93l113 -66q-30 -129 -30 -194q0 -52 31 -80t90 -28q64 0 87 47q22 47 22 191h116q0 -91 -10 -154q-4 -31 -14 -62q21 -10 36 -13q34 -9 64 -9q66 0 87 47q22 47 22 191v70z" />
    <glyph glyph-name="uniFD18" unicode="&#xfd18;" horiz-adv-x="1525" arabic-form="final" 
d="M1311 440h117v-70q0 -91 -10 -154q-5 -31 -12 -55q27 -14 50 -20q34 -9 69 -9q10 0 10 -10v-111q0 -11 -10 -11q-57 0 -103 25q-31 17 -60 43q-17 -22 -46 -41q-42 -27 -105 -27q-44 0 -83 19q-36 17 -74 43q-20 -22 -45 -35q-47 -27 -109 -27q-109 0 -172.5 55.5
t-63.5 149.5q0 33 5 88q5 40 12 77q-50 -4 -100 -16q-68 -17 -104 -46t-36 -58q0 -21 14 -37.5t55 -42.5l35 -24q54 -36 78.5 -74t24.5 -85q0 -89 -84 -145.5t-221 -56.5q-160 0 -237.5 68.5t-77.5 208.5q0 61 10 106.5t34 116.5h117q-43 -113 -43 -199q0 -91 53 -131
t177 -40q65 0 109.5 18t44.5 45t-70 75l-48 34q-89 64 -89 155t92 165t282 93l113 -66q-30 -129 -30 -194q0 -52 31 -80t90 -28q64 0 87 47q22 47 22 191h116q0 -91 -10 -154q-4 -31 -14 -62q21 -10 36 -13q34 -9 64 -9q66 0 87 47q22 47 22 191v70zM240 -356l93 93l75 -72
l73 72l94 -93l-93 -93l-74 73l-73 -73z" />
    <glyph glyph-name="uniFD19" unicode="&#xfd19;" horiz-adv-x="1525" arabic-form="final" 
d="M1311 440h117v-70q0 -91 -10 -154q-5 -31 -12 -55q27 -14 50 -20q34 -9 69 -9q10 0 10 -10v-111q0 -11 -10 -11q-57 0 -103 25q-31 17 -60 43q-17 -22 -46 -41q-42 -27 -105 -27q-44 0 -83 19q-36 17 -74 43q-20 -22 -45 -35q-47 -27 -109 -27q-109 0 -172.5 55.5
t-63.5 149.5q0 33 5 88q5 40 12 77q-50 -4 -100 -16q-68 -17 -104 -46t-36 -58q0 -21 14 -37.5t55 -42.5l35 -24q54 -36 78.5 -74t24.5 -85q0 -89 -84 -145.5t-221 -56.5q-160 0 -237.5 68.5t-77.5 208.5q0 61 10 106.5t34 116.5h117q-43 -113 -43 -199q0 -91 53 -131
t177 -40q65 0 109.5 18t44.5 45t-70 75l-48 34q-89 64 -89 155t92 165t282 93l113 -66q-30 -129 -30 -194q0 -52 31 -80t90 -28q64 0 87 47q22 47 22 191h116q0 -91 -10 -154q-4 -31 -14 -62q21 -10 36 -13q34 -9 64 -9q66 0 87 47q22 47 22 191v70zM896 553l93 93l79 -78
l80 78l94 -93l-93 -94l-81 78l-78 -78zM999 686l69 71l71 -71l-70 -70z" />
    <glyph glyph-name="uniFD1A" unicode="&#xfd1a;" horiz-adv-x="1525" arabic-form="final" 
d="M1311 440h117v-70q0 -91 -10 -154q-5 -31 -12 -55q27 -14 50 -20q34 -9 69 -9q10 0 10 -10v-111q0 -11 -10 -11q-57 0 -103 25q-31 17 -60 43q-17 -22 -46 -41q-42 -27 -105 -27q-44 0 -83 19q-36 17 -74 43q-20 -22 -45 -35q-47 -27 -109 -27q-109 0 -172.5 55.5
t-63.5 149.5q0 33 5 88q5 40 12 77q-50 -4 -100 -16q-68 -17 -104 -46t-36 -58q0 -21 14 -37.5t55 -42.5l35 -24q54 -36 78.5 -74t24.5 -85q0 -89 -84 -145.5t-221 -56.5q-160 0 -237.5 68.5t-77.5 208.5q0 61 10 106.5t34 116.5h117q-43 -113 -43 -199q0 -91 53 -131
t177 -40q65 0 109.5 18t44.5 45t-70 75l-48 34q-89 64 -89 155t92 165t282 93l113 -66q-30 -129 -30 -194q0 -52 31 -80t90 -28q64 0 87 47q22 47 22 191h116q0 -91 -10 -154q-4 -31 -14 -62q21 -10 36 -13q34 -9 64 -9q66 0 87 47q22 47 22 191v70zM889 553l93 93l79 -78
l80 78l94 -93l-93 -94l-81 78l-78 -78zM240 -356l93 93l75 -72l73 72l94 -93l-93 -93l-74 73l-73 -73zM992 686l69 71l71 -71l-70 -70z" />
    <glyph glyph-name="uniFD21" unicode="&#xfd21;" horiz-adv-x="1551" arabic-form="final" 
d="M1257 539q95 0 157 -63.5t62 -158.5q0 -145 -111 -231t-300 -86h-159q-117 0 -179.5 52.5t-62.5 152.5q0 33 5 88q5 40 12 77q-50 -4 -100 -16q-68 -17 -104 -46t-36 -58q0 -21 14 -37.5t55 -42.5l35 -24q54 -36 78.5 -74t24.5 -85q0 -89 -84 -145.5t-221 -56.5
q-160 0 -237.5 68.5t-77.5 208.5q0 61 10 106.5t34 116.5h117q-43 -113 -43 -199q0 -91 53 -131t177 -40q65 0 109.5 18t44.5 45t-70 75l-48 34q-89 64 -89 155t92 165t282 93l113 -66q-30 -130 -30 -191q0 -32 8 -56l2 -7q82 101 131 152q107 116 182.5 161.5t153.5 45.5z
M885 132h23h147q133 0 213.5 46t80.5 121q0 48 -32.5 78.5t-83.5 30.5q-56 0 -113.5 -38.5t-146.5 -137.5zM1355 104l56 71q64 -43 140 -43q10 0 10 -10v-111q0 -11 -10 -11q-108 0 -196 104z" />
    <glyph glyph-name="uniFD22" unicode="&#xfd22;" horiz-adv-x="1551" arabic-form="final" 
d="M1257 539q95 0 157 -63.5t62 -158.5q0 -145 -111 -231t-300 -86h-159q-117 0 -179.5 52.5t-62.5 152.5q0 33 5 88q5 40 12 77q-50 -4 -100 -16q-68 -17 -104 -46t-36 -58q0 -21 14 -37.5t55 -42.5l35 -24q54 -36 78.5 -74t24.5 -85q0 -89 -84 -145.5t-221 -56.5
q-160 0 -237.5 68.5t-77.5 208.5q0 61 10 106.5t34 116.5h117q-43 -113 -43 -199q0 -91 53 -131t177 -40q65 0 109.5 18t44.5 45t-70 75l-48 34q-89 64 -89 155t92 165t282 93l113 -66q-30 -130 -30 -191q0 -32 8 -56l2 -7q82 101 131 152q107 116 182.5 161.5t153.5 45.5z
M885 132h23h147q133 0 213.5 46t80.5 121q0 48 -32.5 78.5t-83.5 30.5q-56 0 -113.5 -38.5t-146.5 -137.5zM1355 104l56 71q64 -43 140 -43q10 0 10 -10v-111q0 -11 -10 -11q-108 0 -196 104zM240 -355l93 93l75 -72l73 72l94 -93l-93 -93l-74 73l-73 -73z" />
    <glyph glyph-name="uniFD23" unicode="&#xfd23;" horiz-adv-x="1551" arabic-form="final" 
d="M1257 539q95 0 157 -63.5t62 -158.5q0 -145 -111 -231t-300 -86h-159q-117 0 -179.5 52.5t-62.5 152.5q0 33 5 88q5 40 12 77q-50 -4 -100 -16q-68 -17 -104 -46t-36 -58q0 -21 14 -37.5t55 -42.5l35 -24q54 -36 78.5 -74t24.5 -85q0 -89 -84 -145.5t-221 -56.5
q-160 0 -237.5 68.5t-77.5 208.5q0 61 10 106.5t34 116.5h117q-43 -113 -43 -199q0 -91 53 -131t177 -40q65 0 109.5 18t44.5 45t-70 75l-48 34q-89 64 -89 155t92 165t282 93l113 -66q-30 -130 -30 -191q0 -32 8 -56l2 -7q82 101 131 152q107 116 182.5 161.5t153.5 45.5z
M885 132h23h147q133 0 213.5 46t80.5 121q0 48 -32.5 78.5t-83.5 30.5q-56 0 -113.5 -38.5t-146.5 -137.5zM1355 104l56 71q64 -43 140 -43q10 0 10 -10v-111q0 -11 -10 -11q-108 0 -196 104zM922 638l93 93l94 -93l-93 -93z" />
    <glyph glyph-name="uniFD24" unicode="&#xfd24;" horiz-adv-x="1551" arabic-form="final" 
d="M1257 539q95 0 157 -63.5t62 -158.5q0 -145 -111 -231t-300 -86h-159q-117 0 -179.5 52.5t-62.5 152.5q0 33 5 88q5 40 12 77q-50 -4 -100 -16q-68 -17 -104 -46t-36 -58q0 -21 14 -37.5t55 -42.5l35 -24q54 -36 78.5 -74t24.5 -85q0 -89 -84 -145.5t-221 -56.5
q-160 0 -237.5 68.5t-77.5 208.5q0 61 10 106.5t34 116.5h117q-43 -113 -43 -199q0 -91 53 -131t177 -40q65 0 109.5 18t44.5 45t-70 75l-48 34q-89 64 -89 155t92 165t282 93l113 -66q-30 -130 -30 -191q0 -32 8 -56l2 -7q82 101 131 152q107 116 182.5 161.5t153.5 45.5z
M885 132h23h147q133 0 213.5 46t80.5 121q0 48 -32.5 78.5t-83.5 30.5q-56 0 -113.5 -38.5t-146.5 -137.5zM1355 104l56 71q64 -43 140 -43q10 0 10 -10v-111q0 -11 -10 -11q-108 0 -196 104zM240 -355l93 93l75 -72l73 72l94 -93l-93 -93l-74 73l-73 -73zM922 638l93 93
l94 -93l-93 -93z" />
    <glyph glyph-name="uniFD29" unicode="&#xfd29;" horiz-adv-x="1264" arabic-form="final" 
d="M441 495h118q-40 -166 -40 -226q1 -73 30.5 -105t91.5 -32q64 0 87 47q22 47 22 191h116q0 -91 -10 -154q-4 -31 -14 -62q21 -10 36 -13q34 -9 64 -9q66 0 87 47q22 47 22 191v70h117v-70q0 -91 -10 -154q-5 -31 -12 -55q28 -15 49 -20q35 -9 69 -9q10 0 10 -10v-111
q0 -11 -10 -11q-57 0 -103 25q-31 17 -60 43q-18 -24 -45 -41q-42 -27 -105 -27q-44 0 -83 19q-36 17 -74 43q-20 -22 -45 -35q-47 -27 -109 -27q-112 0 -174.5 61t-63.5 178q0 39 4 70l1 11l-70 -16q-48 -12 -92 -27q4 -43 5 -55q9 -93 9 -200q0 -115 -72 -176t-195 -61
v114q62 0 104 33.5t42 97.5q0 126 -20 277l89 90q73 16 131 27q48 9 90 15l1 2q7 30 12 54zM635 552l93 93l79 -78l80 78l94 -93l-93 -94l-81 78l-78 -78zM738 685l69 71l71 -71l-70 -70z" />
    <glyph glyph-name="uniFD2A" unicode="&#xfd2a;" horiz-adv-x="1264" arabic-form="final" 
d="M441 495h118q-40 -166 -40 -226q1 -73 30.5 -105t91.5 -32q64 0 87 47q22 47 22 191h116q0 -91 -10 -154q-4 -31 -14 -62q21 -10 36 -13q34 -9 64 -9q66 0 87 47q22 47 22 191v70h117v-70q0 -91 -10 -154q-5 -31 -12 -55q28 -15 49 -20q35 -9 69 -9q10 0 10 -10v-111
q0 -11 -10 -11q-57 0 -103 25q-31 17 -60 43q-18 -24 -45 -41q-42 -27 -105 -27q-44 0 -83 19q-36 17 -74 43q-20 -22 -45 -35q-47 -27 -109 -27q-112 0 -174.5 61t-63.5 178q0 39 4 70l1 11l-70 -16q-48 -12 -92 -27q4 -43 5 -55q9 -93 9 -200q0 -115 -72 -176t-195 -61
v114q62 0 104 33.5t42 97.5q0 126 -20 277l89 90q73 16 131 27q48 9 90 15l1 2q7 30 12 54z" />
    <glyph glyph-name="uniFD2B" unicode="&#xfd2b;" horiz-adv-x="1312" arabic-form="final" 
d="M1030 539q95 0 157.5 -64t62.5 -158q0 -145 -111.5 -231t-299.5 -86h-111q-327 0 -327 239q0 39 4 70l1 11q-14 -3 -38.5 -9t-30.5 -7q-48 -12 -92 -27q4 -43 5 -55q9 -93 9 -200q0 -115 -72 -176t-195 -61v114q62 0 104 33.5t42 97.5q0 126 -20 277l89 90q73 16 131 27
q45 9 89 15l1 2q8 30 12 54h118q-40 -166 -40 -226q0 -36 11 -63q9 -21 27 -36q81 100 139 162q107 116 183 161.5t152 45.5zM735 132h93q134 0 214.5 46t80.5 121q0 48 -33 78.5t-84 30.5q-56 0 -113.5 -39.5t-145.5 -137.5q-66 -73 -85 -96q31 -3 73 -3zM1116 104l56 71
q64 -43 140 -43q10 0 10 -10v-111q0 -11 -10 -11q-108 0 -196 104z" />
    <glyph glyph-name="uniFD2C" unicode="&#xfd2c;" horiz-adv-x="1312" arabic-form="final" 
d="M1030 539q95 0 157.5 -64t62.5 -158q0 -145 -111.5 -231t-299.5 -86h-111q-327 0 -327 239q0 39 4 70l1 11q-14 -3 -38.5 -9t-30.5 -7q-48 -12 -92 -27q4 -43 5 -55q9 -93 9 -200q0 -115 -72 -176t-195 -61v114q62 0 104 33.5t42 97.5q0 126 -20 277l89 90q73 16 131 27
q45 9 89 15l1 2q8 30 12 54h118q-40 -166 -40 -226q0 -36 11 -63q9 -21 27 -36q81 100 139 162q107 116 183 161.5t152 45.5zM735 132h93q134 0 214.5 46t80.5 121q0 48 -33 78.5t-84 30.5q-56 0 -113.5 -39.5t-145.5 -137.5q-66 -73 -85 -96q31 -3 73 -3zM1116 104l56 71
q64 -43 140 -43q10 0 10 -10v-111q0 -11 -10 -11q-108 0 -196 104zM659 626l93 93l94 -93l-93 -93z" />
    <glyph glyph-name="uniFE82" unicode="&#x622;" horiz-adv-x="300" arabic-form="final" 
d="M78 600h126v-382q0 -46 21.5 -66t74.5 -20q10 0 10 -10v-111q0 -11 -10 -11q-108 0 -165 52t-57 145v403zM75 764q22 0 65 -18.5t65 -18.5q45 0 80 26l-1 -83q-33 -25 -77 -25q-24 0 -62.5 18.5t-57.5 18.5q-45 0 -51 -39h-64q0 57 27.5 89t75.5 32z" />
    <glyph glyph-name="uniFE84" unicode="&#x623;" horiz-adv-x="300" arabic-form="final" 
d="M78 600h126v-382q0 -46 21.5 -66t74.5 -20q10 0 10 -10v-111q0 -11 -10 -11q-108 0 -165 52t-57 145v403zM159 730h110l-20 -75h-167q-37 0 -75 -12v73q28 10 40 11l22 3q-22 21 -22 54q0 39 28 65.5t69 26.5q49 0 87 -20v-70q-43 16 -66 16q-19 0 -33 -11t-14 -28
q0 -16 14 -25q9 -6 27 -8z" />
    <glyph glyph-name="uniFE86" unicode="&#x624;" horiz-adv-x="551" arabic-form="final" 
d="M272 492q95 0 153.5 -61.5t64.5 -173.5l3 -84q1 -13 1 -41h57q10 0 10 -10v-111q0 -11 -10 -11h-58q-4 -29 -15 -58q-61 -157 -355 -157v114q126 0 188 37q43 25 57 64h-68q-120 0 -191 64.5t-71 175.5q0 109 66.5 180.5t167.5 71.5zM371 155l-6 92q-7 115 -99 115
q-46 0 -76.5 -33t-30.5 -85q0 -115 156 -115q15 0 33 0.5t24 0.5q-1 9 -1 25zM304 659h93l-29 -95h-130q-52 0 -106 -17v92q38 13 55 16l-1 1q-20 22 -20 55q0 44 31.5 74t84.5 30q32 0 75 -21v-86q-41 14 -71 14q-20 0 -32 -9t-12 -23q0 -31 62 -31z" />
    <glyph glyph-name="uniFE88" unicode="&#x625;" horiz-adv-x="300" arabic-form="final" 
d="M78 725h126v-507q0 -46 21 -66t75 -20q10 0 10 -10v-111q0 -11 -10 -11q-108 0 -165 52t-57 145v528zM167 -190h102l-20 -74h-167q-37 0 -75 -12v72q26 9 40 12q14 2 25 2l-8 9q-16 19 -16 46q0 39 28 65.5t69 26.5q48 0 86 -20v-70q-40 15 -65 15q-21 0 -34 -10.5
t-13 -27.5q0 -15 13.5 -24.5t34.5 -9.5z" />
    <glyph glyph-name="uniFE8A" unicode="&#x626;" horiz-adv-x="679" arabic-form="final" 
d="M474 40v126q131 -34 204 -34q10 0 10 -10v-111q0 -11 -10 -11h-2q-44 -98 -126 -152q-95 -63 -238 -63q-130 0 -207 72.5t-77 204.5q0 61 10 106.5t34 116.5h117q-43 -113 -43 -199q0 -88 47.5 -128.5t142.5 -40.5t162 37q43 24 69 59l-30 8zM531 353h93l-29 -95h-130
q-52 0 -106 -17v92q37 13 55 16l-1 1q-20 22 -20 55q0 44 31.5 74t84.5 30q31 0 75 -21v-86q-41 14 -71 14q-20 0 -32 -9t-12 -23q0 -31 62 -31z" />
    <glyph glyph-name="uniFE8B" unicode="&#x626;" horiz-adv-x="348" arabic-form="initial" 
d="M148 485h126q30 -206 30 -288q0 -93 -57 -145t-165 -52h-82q-10 0 -10 11v111q0 10 10 10h82q54 0 75 20t21 66q0 64 -30 267zM249 634h93l-29 -95h-130q-52 0 -106 -17v92q37 12 55 16l-1 1q-20 22 -20 55q0 44 31.5 74t84.5 30q31 0 75 -21v-86q-41 14 -71 14
q-20 0 -32 -9t-12 -23q0 -31 62 -31z" />
    <glyph glyph-name="uniFE8C" unicode="&#x626;" horiz-adv-x="375" arabic-form="medial" 
d="M139 370h117q0 -77 -8 -146q-5 -33 -10 -52q33 -19 61 -28q41 -12 76 -12q10 0 10 -10v-111q0 -11 -10 -11q-56 0 -111 29q-38 22 -67 49q-23 -30 -60 -50q-52 -28 -137 -28q-10 0 -10 11v111q0 10 10 10q85 0 113 45q17 27 21.5 70t4.5 123zM244 537h93l-29 -95h-130
q-52 0 -106 -17v92q38 13 55 16l-1 1q-20 22 -20 55q0 44 31.5 74t84.5 30q32 0 75 -21v-86q-41 14 -71 14q-20 0 -32 -9t-12 -23q0 -31 62 -31z" />
    <glyph glyph-name="uniFE8E" unicode="&#x627;" horiz-adv-x="300" arabic-form="final" 
d="M78 725h126v-507q0 -46 21 -66t75 -20q10 0 10 -10v-111q0 -11 -10 -11q-108 0 -165 52t-57 145v528z" />
    <glyph glyph-name="uniFE90" unicode="&#x628;" horiz-adv-x="838" arabic-form="final" 
d="M636 370h116q0 -91 -10 -154q-3 -23 -13 -60q19 -10 40 -15q35 -9 69 -9q10 0 10 -10v-111q0 -11 -10 -11q-57 0 -103 25q-26 13 -54 38q-20 -23 -43 -36q-33 -21 -84 -26q-1 -1 -5 -1h-22h-3h-234q-128 0 -195.5 63.5t-67.5 181.5q0 68 25 195h117q-19 -101 -19 -162
q0 -78 37 -112t133 -34h217q29 2 44 11q21 11 33 36q22 47 22 191zM334 -147l93 93l94 -93l-93 -93z" />
    <glyph glyph-name="uniFE91" unicode="&#x628;" horiz-adv-x="270" arabic-form="initial" 
d="M67 485h125q30 -207 30 -288q0 -93 -57 -145t-165 -52q-10 0 -10 11v111q0 10 10 10q54 0 75.5 20t21.5 66q0 64 -30 267zM16 -152l93 93l94 -93l-93 -93z" />
    <glyph glyph-name="uniFE92" unicode="&#x628;" horiz-adv-x="311" arabic-form="medial" 
d="M109 370h116q0 -91 -10 -154q-3 -23 -13 -60q19 -10 40 -15q34 -9 69 -9q10 0 10 -10v-111q0 -11 -10 -11q-57 0 -103 25q-26 13 -54 38q-20 -23 -43 -36q-43 -27 -111 -27q-10 0 -10 11v111q0 10 10 10q64 0 87 47q22 47 22 191zM60 -153l93 93l94 -93l-93 -93z" />
    <glyph glyph-name="uniFE94" unicode="&#x629;" horiz-adv-x="537" arabic-form="final" 
d="M342 538h126v-336q0 -35 15.5 -52.5t53.5 -17.5q10 0 10 -10v-111q0 -11 -10 -11q-49 0 -87 15q-34 14 -55 35q-35 -20 -66 -33q-42 -17 -89 -17q-98 0 -155 54t-57 147q0 73 45.5 139.5t142.5 109.5q58 24 126 34v54zM214 324q-63 -44 -63 -111q0 -40 23.5 -62t67.5 -22
q33 0 67 8q24 5 38 11q-5 32 -5 60v164q-80 -15 -128 -48zM198 693l93 94l77 -75l75 75l94 -94l-92 -93l-77 74l-76 -74z" />
    <glyph glyph-name="uniFE96" unicode="&#x62a;" horiz-adv-x="838" arabic-form="final" 
d="M636 370h116q0 -91 -10 -154q-3 -23 -13 -60q19 -10 40 -15q35 -9 69 -9q10 0 10 -10v-111q0 -11 -10 -11q-57 0 -103 25q-26 13 -54 38q-20 -23 -43 -36q-33 -21 -84 -26q-1 -1 -5 -1h-12h-10h-237q-128 0 -195.5 63.5t-67.5 181.5q0 68 25 195h117q-19 -101 -19 -162
q0 -78 37 -112t133 -34h204h3h10q29 2 44 11q21 11 33 36q22 47 22 191zM274 535l93 94l77 -75l75 75l94 -94l-92 -93l-77 74l-76 -74z" />
    <glyph glyph-name="uniFE97" unicode="&#x62a;" horiz-adv-x="387" arabic-form="initial" 
d="M148 485h126q30 -206 30 -288q0 -93 -57 -145t-165 -52h-82q-10 0 -10 11v111q0 10 10 10h82q54 0 75 20t21 66q0 64 -30 267zM29 643l93 94l77 -75l75 75l94 -94l-92 -93l-77 74l-76 -74z" />
    <glyph glyph-name="uniFE98" unicode="&#x62a;" horiz-adv-x="375" arabic-form="medial" 
d="M139 370h117q0 -77 -8 -146q-5 -33 -10 -52q33 -19 61 -28q41 -12 76 -12q10 0 10 -10v-111q0 -11 -10 -11q-56 0 -111 29q-38 22 -67 49q-23 -30 -60 -50q-52 -28 -137 -28q-10 0 -10 11v111q0 10 10 10q85 0 113 45q17 27 21.5 70t4.5 123zM27 535l93 94l77 -75l75 75
l94 -94l-92 -93l-77 74l-76 -74z" />
    <glyph glyph-name="uniFE9A" unicode="&#x62b;" horiz-adv-x="838" arabic-form="final" 
d="M636 370h116q0 -91 -10 -154q-3 -23 -13 -60q19 -10 40 -15q35 -9 69 -9q10 0 10 -10v-111q0 -11 -10 -11q-57 0 -103 25q-26 13 -54 38q-20 -23 -43 -36q-33 -21 -84 -26q-1 -1 -5 -1h-259q-128 0 -195.5 63.5t-67.5 181.5q0 68 25 195h117q-19 -101 -19 -162
q0 -78 37 -112t133 -34h217q29 2 44 11q21 11 33 36q22 47 22 191zM260 534l93 93l79 -78l80 78l94 -93l-93 -94l-81 78l-78 -78zM363 667l69 71l71 -71l-70 -70z" />
    <glyph glyph-name="uniFE9B" unicode="&#x62b;" horiz-adv-x="392" arabic-form="initial" 
d="M148 485h126q30 -206 30 -288q0 -93 -57 -145t-165 -52h-82q-10 0 -10 11v111q0 10 10 10h82q54 0 75 20t21 66q0 64 -30 267zM27 641l93 93l79 -78l80 78l94 -93l-93 -94l-81 78l-78 -78zM130 774l69 71l71 -71l-70 -70z" />
    <glyph glyph-name="uniFE9C" unicode="&#x62b;" horiz-adv-x="375" arabic-form="medial" 
d="M139 370h117q0 -77 -8 -146q-5 -33 -10 -52q33 -19 61 -28q41 -12 76 -12q10 0 10 -10v-111q0 -11 -10 -11q-56 0 -111 29q-38 22 -67 49q-23 -30 -60 -50q-52 -28 -137 -28q-10 0 -10 11v111q0 10 10 10q85 0 113 45q17 27 21.5 70t4.5 123zM16 536l93 93l79 -78l80 78
l94 -93l-93 -94l-81 78l-78 -78zM119 669l69 71l71 -71l-70 -70z" />
    <glyph glyph-name="uniFE9E" unicode="&#x62c;" horiz-adv-x="651" arabic-form="final" 
d="M192 538q41 0 82 -17t78.5 -43.5t74.5 -54.5t85 -53.5t97 -36.5l-36 -128q-12 0 -40 -2q2 -37 30 -53q31 -18 88 -18q10 0 10 -10v-111q0 -11 -10 -11q-190 0 -190 172v22q-26 -4 -62 -14q-105 -27 -176 -77.5t-71 -118.5q0 -61 43.5 -94.5t126.5 -33.5q99 0 229 38v-122
q-142 -47 -236 -47q-137 0 -212 62t-75 176q0 111 78.5 186t206.5 111q56 17 112 27q-14 7 -40 23q-11 7 -42 28.5t-43.5 29t-36 19.5t-43 16.5t-40.5 4.5q-52 0 -116 -24v118q56 36 128 36zM265 11l93 93l94 -93l-93 -93z" />
    <glyph glyph-name="uniFE9F" unicode="&#x62c;" horiz-adv-x="606" arabic-form="initial" 
d="M189 492q50 0 100 -23.5t88 -54t95.5 -63.5t116.5 -47l-36 -128q-64 -10 -116 -32t-89 -45.5t-79.5 -46.5t-110 -37.5t-157.5 -14.5q-11 0 -11 11v111q0 10 11 10q88 0 164 15t105.5 27t97.5 42q28 14 63 27q-38 18 -58 31q-8 5 -33 21.5t-34 22t-29.5 17t-33 15.5
t-30.5 8t-35 4q-47 0 -116 -24v117q58 37 127 37zM153 -152l93 93l94 -93l-93 -93z" />
    <glyph glyph-name="uniFEA0" unicode="&#x62c;" horiz-adv-x="631" arabic-form="medial" 
d="M189 492q50 0 100 -23.5t88 -54t95.5 -63.5t116.5 -47l-36 -128l-30 -5q4 -7 14 -17q25 -22 94 -22q10 0 10 -10v-111q0 -11 -10 -11q-93 0 -142 45q-38 35 -46 101q-36 -15 -66 -33q-11 -6 -43.5 -25.5t-47.5 -27.5t-49 -22t-63.5 -20.5t-75 -12t-97.5 -5.5
q-11 0 -11 11v111q0 10 11 10q88 0 164 15t105.5 27t97.5 42q28 14 63 27q-38 18 -58 31q-8 5 -33 21.5t-34 22t-29.5 17t-33 15.5t-30.5 8t-35 4q-47 0 -116 -24v117q58 37 127 37zM156 -153l93 93l94 -93l-93 -93z" />
    <glyph glyph-name="uniFEA2" unicode="&#x62d;" horiz-adv-x="651" arabic-form="final" 
d="M192 538q41 0 82 -17t78.5 -43.5t74.5 -54.5t85 -53.5t97 -36.5l-36 -128q-12 0 -40 -2q2 -37 30 -53q31 -18 88 -18q10 0 10 -10v-111q0 -11 -10 -11q-190 0 -190 172v22q-26 -4 -62 -14q-105 -27 -176 -77.5t-71 -118.5q0 -61 43.5 -94.5t126.5 -33.5q99 0 229 38v-122
q-142 -47 -236 -47q-137 0 -212 62t-75 176q0 111 78.5 186t206.5 111q56 17 112 27q-14 7 -40 23q-11 7 -42 28.5t-43.5 29t-36 19.5t-43 16.5t-40.5 4.5q-52 0 -116 -24v118q56 36 128 36z" />
    <glyph glyph-name="uniFEA3" unicode="&#x62d;" horiz-adv-x="606" arabic-form="initial" 
d="M189 492q50 0 100 -23.5t88 -54t95.5 -63.5t116.5 -47l-36 -128q-64 -10 -116 -32t-89 -45.5t-79.5 -46.5t-110 -37.5t-157.5 -14.5q-11 0 -11 11v111q0 10 11 10q88 0 164 15t105.5 27t97.5 42q28 14 63 27q-38 18 -58 31q-8 5 -33 21.5t-34 22t-29.5 17t-33 15.5
t-30.5 8t-35 4q-47 0 -116 -24v117q58 37 127 37z" />
    <glyph glyph-name="uniFEA4" unicode="&#x62d;" horiz-adv-x="631" arabic-form="medial" 
d="M189 492q50 0 100 -23.5t88 -54t95.5 -63.5t116.5 -47l-36 -128l-30 -5q4 -7 14 -17q25 -22 94 -22q10 0 10 -10v-111q0 -11 -10 -11q-93 0 -142 45q-38 35 -46 101q-36 -15 -66 -33q-11 -6 -43.5 -25.5t-47.5 -27.5t-49 -22t-63.5 -20.5t-75 -12t-97.5 -5.5
q-11 0 -11 11v111q0 10 11 10q88 0 164 15t105.5 27t97.5 42q28 14 63 27q-38 18 -58 31q-8 5 -33 21.5t-34 22t-29.5 17t-33 15.5t-30.5 8t-35 4q-47 0 -116 -24v117q58 37 127 37z" />
    <glyph glyph-name="uniFEA6" unicode="&#x62e;" horiz-adv-x="651" arabic-form="final" 
d="M192 538q41 0 82 -17t78.5 -43.5t74.5 -54.5t85 -53.5t97 -36.5l-36 -128q-12 0 -40 -2q2 -37 30 -53q31 -18 88 -18q10 0 10 -10v-111q0 -11 -10 -11q-190 0 -190 172v22q-26 -4 -62 -14q-105 -27 -176 -77.5t-71 -118.5q0 -61 43.5 -94.5t126.5 -33.5q99 0 229 38v-122
q-142 -47 -236 -47q-137 0 -212 62t-75 176q0 111 78.5 186t206.5 111q56 17 112 27q-14 7 -40 23q-11 7 -42 28.5t-43.5 29t-36 19.5t-43 16.5t-40.5 4.5q-52 0 -116 -24v118q56 36 128 36zM332 633l93 93l94 -93l-93 -93z" />
    <glyph glyph-name="uniFEA7" unicode="&#x62e;" horiz-adv-x="606" arabic-form="initial" 
d="M189 492q50 0 100 -23.5t88 -54t95.5 -63.5t116.5 -47l-36 -128q-64 -10 -116 -32t-89 -45.5t-79.5 -46.5t-110 -37.5t-157.5 -14.5q-11 0 -11 11v111q0 10 11 10q88 0 164 15t105.5 27t97.5 42q28 14 63 27q-38 18 -58 31q-8 5 -33 21.5t-34 22t-29.5 17t-33 15.5
t-30.5 8t-35 4q-47 0 -116 -24v117q58 37 127 37zM160 647l93 93l94 -93l-93 -93z" />
    <glyph glyph-name="uniFEA8" unicode="&#x62e;" horiz-adv-x="631" arabic-form="medial" 
d="M189 492q50 0 100 -23.5t88 -54t95.5 -63.5t116.5 -47l-36 -128l-30 -5q4 -7 14 -17q25 -22 94 -22q10 0 10 -10v-111q0 -11 -10 -11q-93 0 -142 45q-38 35 -46 101q-36 -15 -66 -33q-11 -6 -43.5 -25.5t-47.5 -27.5t-49 -22t-63.5 -20.5t-75 -12t-97.5 -5.5
q-11 0 -11 11v111q0 10 11 10q88 0 164 15t105.5 27t97.5 42q28 14 63 27q-38 18 -58 31q-8 5 -33 21.5t-34 22t-29.5 17t-33 15.5t-30.5 8t-35 4q-47 0 -116 -24v117q58 37 127 37zM160 647l93 93l94 -93l-93 -93z" />
    <glyph glyph-name="uniFEAA" unicode="&#x62f;" horiz-adv-x="509" arabic-form="final" 
d="M8 34v127q100 -29 181 -29q40 0 80 5q17 1 36 6q-7 13 -12 31q-34 100 -73 311h130q33 -207 53 -267q27 -86 106 -86q10 0 10 -10v-111q0 -11 -10 -11q-87 0 -144 54q-83 -54 -181 -54q-49 0 -83 6.5t-93 27.5z" />
    <glyph glyph-name="uniFEAC" unicode="&#x630;" horiz-adv-x="509" arabic-form="final" 
d="M8 34v127q100 -29 181 -29q40 0 80 5q17 1 36 6q-7 13 -12 31q-34 100 -73 311h130q33 -207 53 -267q27 -86 106 -86q10 0 10 -10v-111q0 -11 -10 -11q-87 0 -144 54q-83 -54 -181 -54q-49 0 -83 6.5t-93 27.5zM190 639l93 93l94 -93l-93 -93z" />
    <glyph glyph-name="uniFEAE" unicode="&#x631;" horiz-adv-x="355" arabic-form="final" 
d="M102 440h125q17 -114 23 -203l3 -43v-3q6 -34 32 -46q26 -13 69 -13q10 0 10 -10v-111q0 -11 -10 -11q-64 0 -92 34l-3 3v-15q0 -116 -69.5 -176.5t-197.5 -60.5v114q68 0 107 32.5t39 98.5q0 113 -36 410z" />
    <glyph glyph-name="uniFEB0" unicode="&#x632;" horiz-adv-x="355" arabic-form="final" 
d="M102 440h125q17 -114 23 -203l3 -44q9 -61 101 -61q10 0 10 -10v-111q0 -11 -10 -11q-64 0 -92 34l-3 3v-15q0 -116 -69.5 -176.5t-197.5 -60.5v114q68 0 107 32.5t39 98.5q0 113 -36 410zM62 600l93 93l94 -93l-93 -93z" />
    <glyph glyph-name="uniFEB2" unicode="&#x633;" horiz-adv-x="1325" arabic-form="final" 
d="M435 440h126q30 -203 33 -269l1 -14q18 -10 42 -16q35 -9 64 -9q66 0 87 47q22 47 22 191h117q0 -91 -10 -154q-4 -31 -14 -62q21 -10 36 -13q35 -9 64 -9q66 0 87 47q22 47 22 191v70h117v-70q0 -91 -10 -154q-5 -31 -12 -55q28 -15 49 -20q34 -9 69 -9q10 0 10 -10
v-111q0 -11 -10 -11q-57 0 -103 25q-31 17 -60 43q-18 -24 -45 -41q-42 -27 -105 -27q-44 0 -83 19q-31 15 -74 43q-16 -21 -40 -35q-42 -27 -105 -27q-44 0 -83 19q-14 6 -34 18q-4 -30 -16 -67q-29 -88 -101.5 -136.5t-181.5 -48.5q-129 0 -197.5 71t-68.5 206
q0 61 10 106.5t34 116.5h117q-43 -113 -43 -199q0 -78 37.5 -123.5t115.5 -45.5q175 0 175 186q0 74 -39 337z" />
    <glyph glyph-name="uniFEB3" unicode="&#x633;" horiz-adv-x="876" arabic-form="initial" 
d="M98 370h117q0 -129 -24 -212q20 -11 43 -17q34 -9 64 -9q66 0 87 47q22 47 22 191h117q0 -91 -10 -154q-4 -31 -14 -62q26 -10 37 -13q35 -9 69 -9q50 0 73 20t23 63q0 65 -30 270h126q30 -200 30 -291q0 -85 -57 -139.5t-146 -54.5q-46 0 -101 20q-40 15 -75 38
q-16 -18 -37 -31q-42 -27 -105 -27q-44 0 -83 19q-34 16 -77 45q-17 -22 -42 -37q-43 -27 -105 -27q-10 0 -10 11v111q0 10 10 10q56 0 76 47q22 47 22 191z" />
    <glyph glyph-name="uniFEB4" unicode="&#x633;" horiz-adv-x="922" arabic-form="medial" 
d="M98 370h117q0 -129 -24 -212q20 -11 43 -17q34 -9 64 -9q66 0 87 47q22 47 22 191h117q0 -91 -10 -154q-4 -31 -14 -62q21 -9 35 -13q35 -9 64 -9q66 0 87 47q22 47 22 191v70h117v-70q0 -91 -10 -154q-5 -31 -12 -55q27 -14 50 -20q35 -9 69 -9q10 0 10 -10v-111
q0 -11 -10 -11q-57 0 -103 25q-31 17 -60 43q-17 -22 -46 -41q-42 -27 -105 -27q-44 0 -83 19q-30 13 -73 42q-21 -22 -40 -34q-42 -27 -105 -27q-44 0 -83 19q-34 16 -77 45q-17 -22 -42 -37q-43 -27 -105 -27q-10 0 -10 11v111q0 10 10 10q56 0 76 47q22 47 22 191z" />
    <glyph glyph-name="uniFEB6" unicode="&#x634;" horiz-adv-x="1325" arabic-form="final" 
d="M435 440h126q30 -203 33 -269l1 -14q18 -10 42 -16q35 -9 64 -9q66 0 87 47q22 47 22 191h117q0 -91 -10 -154q-4 -31 -14 -62q21 -10 36 -13q35 -9 64 -9q66 0 87 47q22 47 22 191v70h117v-70q0 -91 -10 -154q-5 -31 -12 -55q28 -15 49 -20q34 -9 69 -9q10 0 10 -10
v-111q0 -11 -10 -11q-57 0 -103 25q-31 17 -60 43q-18 -24 -45 -41q-42 -27 -105 -27q-44 0 -83 19q-31 15 -74 43q-16 -21 -40 -35q-42 -27 -105 -27q-44 0 -83 19q-14 6 -34 18q-4 -30 -16 -67q-29 -88 -101.5 -136.5t-181.5 -48.5q-129 0 -197.5 71t-68.5 206
q0 61 10 106.5t34 116.5h117q-43 -113 -43 -199q0 -78 37.5 -123.5t115.5 -45.5q175 0 175 186q0 74 -39 337zM692 557l93 93l79 -78l80 78l94 -93l-93 -94l-81 78l-78 -78zM795 690l69 71l71 -71l-70 -70z" />
    <glyph glyph-name="uniFEB7" unicode="&#x634;" horiz-adv-x="876" arabic-form="initial" 
d="M98 370h117q0 -129 -24 -212q20 -11 43 -17q34 -9 64 -9q66 0 87 47q22 47 22 191h117q0 -91 -10 -154q-4 -31 -14 -62q26 -10 37 -13q35 -9 69 -9q50 0 73 20t23 63q0 65 -30 270h126q30 -200 30 -291q0 -85 -57 -139.5t-146 -54.5q-46 0 -101 20q-40 15 -75 38
q-16 -18 -37 -31q-42 -27 -105 -27q-44 0 -83 19q-34 16 -77 45q-17 -22 -42 -37q-43 -27 -105 -27q-10 0 -10 11v111q0 10 10 10q56 0 76 47q22 47 22 191zM292 555l93 93l79 -78l80 78l94 -93l-93 -94l-81 78l-78 -78zM395 688l69 71l71 -71l-70 -70z" />
    <glyph glyph-name="uniFEB8" unicode="&#x634;" horiz-adv-x="922" arabic-form="medial" 
d="M98 370h117q0 -129 -24 -212q20 -11 43 -17q34 -9 64 -9q66 0 87 47q22 47 22 191h117q0 -91 -10 -154q-4 -31 -14 -62q21 -9 35 -13q35 -9 64 -9q66 0 87 47q22 47 22 191v70h117v-70q0 -91 -10 -154q-5 -31 -12 -55q27 -14 50 -20q35 -9 69 -9q10 0 10 -10v-111
q0 -11 -10 -11q-57 0 -103 25q-31 17 -60 43q-17 -22 -46 -41q-42 -27 -105 -27q-44 0 -83 19q-30 13 -73 42q-21 -22 -40 -34q-42 -27 -105 -27q-44 0 -83 19q-34 16 -77 45q-17 -22 -42 -37q-43 -27 -105 -27q-10 0 -10 11v111q0 10 10 10q56 0 76 47q22 47 22 191z
M288 554l93 93l79 -78l80 78l94 -93l-93 -94l-81 78l-78 -78zM391 687l69 71l71 -71l-70 -70z" />
    <glyph glyph-name="uniFEBA" unicode="&#x635;" horiz-adv-x="1295" arabic-form="final" 
d="M435 440h126l14 -102l10 -76q52 52 97 94q100 92 178 134t154 42q96 0 158 -63.5t62 -159.5q0 -68 -29 -126q-5 -10 -17 -28q23 -10 38 -14q34 -9 69 -9q10 0 10 -10v-111q0 -11 -10 -11q-57 0 -103 25q-35 18 -74 57q-52 -38 -126 -60q-75 -22 -170 -22q-81 0 -206 23
l-25 4q-5 -34 -14 -57q-29 -88 -101.5 -136.5t-181.5 -48.5q-129 0 -197.5 71t-68.5 206q0 61 10 106.5t34 116.5h117q-43 -113 -43 -199q0 -78 37.5 -123.5t115.5 -45.5q175 0 175 186q0 74 -39 337zM684 138q62 -6 128 -6q133 0 214 44.5t81 114.5q0 48 -33 78.5t-84 30.5
q-53 0 -115 -34t-156 -115q-43 -36 -115 -102q48 -8 80 -11z" />
    <glyph glyph-name="uniFEBB" unicode="&#x635;" horiz-adv-x="991" arabic-form="initial" 
d="M139 370h114q-13 -120 -24 -171l-4 -20l11 -4l20 -6q84 100 141 161q107 113 183.5 157.5t154.5 44.5q95 0 157 -63.5t62 -159.5q0 -139 -112 -224t-299 -85q-183 0 -334 53l-40 15q-15 -16 -34 -28q-62 -40 -135 -40q-10 0 -10 11v111q0 10 10 10q50 0 77 17t38 56
q15 56 24 165zM371 144l43 -6q54 -6 118 -6q133 0 214 44.5t81 114.5q0 48 -32.5 78.5t-83.5 30.5q-56 0 -115 -38.5t-148 -133.5z" />
    <glyph glyph-name="uniFEBC" unicode="&#x635;" horiz-adv-x="1018" arabic-form="medial" 
d="M139 370h114q-13 -120 -24 -171l-4 -20l11 -4l20 -6q84 100 141 161q107 113 183.5 157.5t154.5 44.5q95 0 157 -63.5t62 -159.5q0 -139 -112 -224t-299 -85q-183 0 -334 53l-40 15q-15 -16 -34 -28q-62 -40 -135 -40q-10 0 -10 11v111q0 10 10 10q50 0 77 17t38 56
q15 56 24 165zM371 144l43 -6q54 -6 118 -6q133 0 214 44.5t81 114.5q0 48 -32.5 78.5t-83.5 30.5q-56 0 -115 -38.5t-148 -133.5zM822 104l56 71q64 -43 140 -43q10 0 10 -10v-111q0 -11 -10 -11q-108 0 -196 104z" />
    <glyph glyph-name="uniFEBE" unicode="&#x636;" horiz-adv-x="1295" arabic-form="final" 
d="M435 440h126l14 -102l10 -76q52 52 97 94q100 92 178 134t154 42q96 0 158 -63.5t62 -159.5q0 -68 -29 -126q-5 -10 -17 -28q23 -10 38 -14q34 -9 69 -9q10 0 10 -10v-111q0 -11 -10 -11q-57 0 -103 25q-35 18 -74 57q-52 -38 -126 -60q-75 -22 -170 -22q-81 0 -206 23
l-25 4q-5 -34 -14 -57q-29 -88 -101.5 -136.5t-181.5 -48.5q-129 0 -197.5 71t-68.5 206q0 61 10 106.5t34 116.5h117q-43 -113 -43 -199q0 -78 37.5 -123.5t115.5 -45.5q175 0 175 186q0 74 -39 337zM684 138q62 -6 128 -6q133 0 214 44.5t81 114.5q0 48 -33 78.5t-84 30.5
q-53 0 -115 -34t-156 -115q-43 -36 -115 -102q48 -8 80 -11zM644 630l93 93l94 -93l-93 -93z" />
    <glyph glyph-name="uniFEBF" unicode="&#x636;" horiz-adv-x="991" arabic-form="initial" 
d="M139 370h114q-13 -120 -24 -171l-4 -20l11 -4l20 -6q84 100 141 161q107 113 183.5 157.5t154.5 44.5q95 0 157 -63.5t62 -159.5q0 -139 -112 -224t-299 -85q-183 0 -334 53l-40 15q-15 -16 -34 -28q-62 -40 -135 -40q-10 0 -10 11v111q0 10 10 10q50 0 77 17t38 56
q15 56 24 165zM371 144l43 -6q54 -6 118 -6q133 0 214 44.5t81 114.5q0 48 -32.5 78.5t-83.5 30.5q-56 0 -115 -38.5t-148 -133.5zM355 625l93 93l94 -93l-93 -93z" />
    <glyph glyph-name="uniFEC0" unicode="&#x636;" horiz-adv-x="1018" arabic-form="medial" 
d="M139 370h114q-13 -120 -24 -171l-4 -20l11 -4l20 -6q84 100 141 161q107 113 183.5 157.5t154.5 44.5q95 0 157 -63.5t62 -159.5q0 -139 -112 -224t-299 -85q-183 0 -334 53l-40 15q-15 -16 -34 -28q-62 -40 -135 -40q-10 0 -10 11v111q0 10 10 10q50 0 77 17t38 56
q15 56 24 165zM371 144l43 -6q54 -6 118 -6q133 0 214 44.5t81 114.5q0 48 -32.5 78.5t-83.5 30.5q-56 0 -115 -38.5t-148 -133.5zM822 104l56 71q64 -43 140 -43q10 0 10 -10v-111q0 -11 -10 -11q-108 0 -196 104zM355 625l93 93l94 -93l-93 -93z" />
    <glyph glyph-name="uniFEC2" unicode="&#x637;" horiz-adv-x="883" arabic-form="final" 
d="M158 725h126v-224q0 -69 -16 -143l-12 -53l15 17q108 117 181 163.5t149 46.5q95 0 157 -63.5t62 -159.5q0 -139 -111.5 -224t-299.5 -85q-227 0 -401 43v128q63 -14 113 -20l37 42v532zM399 132q133 0 214 44.5t81 114.5q0 48 -33 78.5t-84 30.5q-55 0 -108.5 -37.5
t-145.5 -136.5q-17 -18 -82 -89q85 -5 158 -5zM687 104l56 71q64 -43 140 -43q10 0 10 -10v-111q0 -11 -10 -11q-108 0 -196 104z" />
    <glyph glyph-name="uniFEC3" unicode="&#x637;" horiz-adv-x="792" arabic-form="initial" 
d="M100 725h126v-224q0 -69 -16 -143l-12 -54l4 4q104 122 181 173t152 51q95 0 157 -63.5t62 -159.5q0 -139 -112 -224t-299 -85h-343q-10 0 -10 11v111q0 10 10 10h57q7 8 21.5 26t21.5 27v540zM177 132h155q133 0 214 44.5t81 114.5q0 48 -32.5 78.5t-83.5 30.5
q-53 0 -109 -41t-150 -145z" />
    <glyph glyph-name="uniFEC4" unicode="&#x637;" horiz-adv-x="817" arabic-form="medial" 
d="M100 725h126v-224q0 -69 -16 -143l-12 -54l4 4q104 122 181 173t152 51q95 0 157 -63.5t62 -159.5q0 -139 -112 -224t-299 -85h-343q-10 0 -10 11v111q0 10 10 10h57q7 8 21.5 26t21.5 27v540zM177 132h155q133 0 214 44.5t81 114.5q0 48 -32.5 78.5t-83.5 30.5
q-53 0 -109 -41t-150 -145zM621 104l56 71q64 -43 140 -43q10 0 10 -10v-111q0 -11 -10 -11q-108 0 -196 104z" />
    <glyph glyph-name="uniFEC6" unicode="&#x638;" horiz-adv-x="883" arabic-form="final" 
d="M158 725h126v-224q0 -69 -16 -143l-12 -53l15 17q108 117 181 163.5t149 46.5q95 0 157 -63.5t62 -159.5q0 -139 -111.5 -224t-299.5 -85q-227 0 -401 43v128q63 -14 113 -20l37 42v532zM399 132q133 0 214 44.5t81 114.5q0 48 -33 78.5t-84 30.5q-55 0 -108.5 -37.5
t-145.5 -136.5q-17 -18 -82 -89q85 -5 158 -5zM687 104l56 71q64 -43 140 -43q10 0 10 -10v-111q0 -11 -10 -11q-108 0 -196 104zM358 653l93 93l94 -93l-93 -93z" />
    <glyph glyph-name="uniFEC7" unicode="&#x638;" horiz-adv-x="792" arabic-form="initial" 
d="M100 725h126v-224q0 -69 -16 -143l-12 -54l4 4q104 122 181 173t152 51q95 0 157 -63.5t62 -159.5q0 -139 -112 -224t-299 -85h-343q-10 0 -10 11v111q0 10 10 10h57q7 8 21.5 26t21.5 27v540zM177 132h155q133 0 214 44.5t81 114.5q0 48 -32.5 78.5t-83.5 30.5
q-53 0 -109 -41t-150 -145zM289 653l93 93l94 -93l-93 -93z" />
    <glyph glyph-name="uniFEC8" unicode="&#x638;" horiz-adv-x="817" arabic-form="medial" 
d="M100 725h126v-224q0 -69 -16 -143l-12 -54l4 4q104 122 181 173t152 51q95 0 157 -63.5t62 -159.5q0 -139 -112 -224t-299 -85h-343q-10 0 -10 11v111q0 10 10 10h57q7 8 21.5 26t21.5 27v540zM177 132h155q133 0 214 44.5t81 114.5q0 48 -32.5 78.5t-83.5 30.5
q-53 0 -109 -41t-150 -145zM621 104l56 71q64 -43 140 -43q10 0 10 -10v-111q0 -11 -10 -11q-108 0 -196 104zM289 653l93 93l94 -93l-93 -93z" />
    <glyph glyph-name="uniFECA" unicode="&#x639;" horiz-adv-x="591" arabic-form="final" 
d="M319 538q98 0 162 -53t64 -130q0 -105 -119 -188l-13 -9l17 -6q70 -20 161 -20q10 0 10 -10v-111q0 -11 -10 -11q-137 0 -240 64l-43 28l-25 -15q-124 -71 -124 -132q0 -44 44.5 -67t126.5 -23q97 0 229 37v-121q-138 -46 -236 -46q-287 0 -287 202q0 108 139 196l38 25
l-31 51q-40 68 -85 119l-23 25q-14 -6 -42 -20v119q63 43 141.5 69.5t145.5 26.5zM316 211q53 33 80 58.5t27 52.5q0 39 -31 63t-85 24q-55 0 -129 -24l-1 -1q29 -29 60 -73q36 -51 69 -107q1 1 10 7z" />
    <glyph glyph-name="uniFECB" unicode="&#x639;" horiz-adv-x="543" arabic-form="initial" 
d="M525 174l-26 -131q-240 -43 -499 -43q-10 0 -10 11v111q0 10 10 10q79 0 114 1q-73 58 -73 154q0 91 65.5 152t165.5 61q72 0 174 -40v-117q-96 29 -158 29q-57 0 -91 -27t-34 -72q0 -52 51 -91.5t132 -33.5l-2 -1l53 7q49 6 128 20z" />
    <glyph glyph-name="uniFECC" unicode="&#x639;" horiz-adv-x="592" arabic-form="medial" 
d="M318 505q99 0 163 -53t64 -130q0 -99 -87 -181l-2 -2l21 -2q44 -5 113 -5q10 0 10 -10v-111q0 -11 -10 -11q-107 0 -179 22q-42 13 -83 32l-39 -15q-60 -23 -123 -31t-166 -8q-10 1 -10 11v111q0 10 10 10q72 0 126 3q23 1 69 7q-7 14 -15 24q-47 75 -86 119
q-1 1 -9.5 10.5t-12.5 14.5q-5 -2 -19.5 -9t-21.5 -11v118q64 44 143 70.5t144 26.5zM311 155l18 9q43 23 68 57t25 68q0 39 -31 62.5t-85 23.5q-56 0 -129 -24h-1q29 -30 57 -71q36 -51 78 -125z" />
    <glyph glyph-name="uniFECE" unicode="&#x63a;" horiz-adv-x="591" arabic-form="final" 
d="M319 538q98 0 162 -53t64 -130q0 -105 -119 -188l-13 -9l17 -6q70 -20 161 -20q10 0 10 -10v-111q0 -11 -10 -11q-137 0 -240 64l-43 28l-25 -15q-124 -71 -124 -132q0 -44 44.5 -67t126.5 -23q97 0 229 37v-121q-138 -46 -236 -46q-287 0 -287 202q0 108 139 196l38 25
l-31 51q-40 68 -85 119l-23 25q-14 -6 -42 -20v119q63 43 141.5 69.5t145.5 26.5zM316 211q53 33 80 58.5t27 52.5q0 39 -31 63t-85 24q-55 0 -129 -24l-1 -1q29 -29 60 -73q36 -51 69 -107q1 1 10 7zM214 683l93 93l94 -93l-93 -93z" />
    <glyph glyph-name="uniFECF" unicode="&#x63a;" horiz-adv-x="543" arabic-form="initial" 
d="M525 174l-26 -131q-240 -43 -499 -43q-10 0 -10 11v111q0 10 10 10q79 0 114 1q-73 58 -73 154q0 91 65.5 152t165.5 61q72 0 174 -40v-117q-96 29 -158 29q-57 0 -91 -27t-34 -72q0 -52 51 -91.5t132 -33.5l-2 -1l53 7q49 6 128 20zM164 643l93 93l94 -93l-93 -93z" />
    <glyph glyph-name="uniFED0" unicode="&#x63a;" horiz-adv-x="592" arabic-form="medial" 
d="M318 505q99 0 163 -53t64 -130q0 -99 -87 -181l-2 -2l21 -2q44 -5 113 -5q10 0 10 -10v-111q0 -11 -10 -11q-107 0 -179 22q-42 13 -83 32l-39 -15q-60 -23 -123 -31t-166 -8q-10 1 -10 11v111q0 10 10 10q72 0 126 3q23 1 69 7q-7 14 -15 24q-47 75 -86 119
q-1 1 -9.5 10.5t-12.5 14.5q-5 -2 -19.5 -9t-21.5 -11v118q64 44 143 70.5t144 26.5zM311 155l18 9q43 23 68 57t25 68q0 39 -31 62.5t-85 23.5q-56 0 -129 -24h-1q29 -30 57 -71q36 -51 78 -125zM203 647l93 93l94 -93l-93 -93z" />
    <glyph glyph-name="uniFED2" unicode="&#x641;" horiz-adv-x="950" arabic-form="final" 
d="M683 502q97 0 160 -63.5t63 -161.5q0 -63 -46 -124q-12 -15 -13 -16l9 -1q33 -4 94 -4q10 0 10 -10v-111q0 -11 -10 -11q-75 0 -173 20q-39 7 -82 20l-11 -3q-119 -37 -269 -37q-10 1 -10 11v111q0 10 10 10q64 0 100 4q-5 5 -13 15q-44 55 -44 126q0 93 64 159t161 66z
M756 186q26 35 26 76q0 50 -29 80.5t-75 30.5q-45 0 -73 -30t-28 -78q0 -42 26 -77q26 -34 73 -50q56 17 80 48zM47 388h118q-15 -73 -15 -110q0 -78 37 -112t133 -34h110q10 0 10 -10v-111q0 -11 -10 -11h-139q-128 0 -195 62.5t-67 180.5q0 61 18 145zM586 644l93 93
l94 -93l-93 -93z" />
    <glyph glyph-name="uniFED3" unicode="&#x641;" horiz-adv-x="527" arabic-form="initial" 
d="M264 502q97 0 161.5 -67t64.5 -167q0 -121 -72.5 -194.5t-193.5 -73.5h-224q-10 1 -10 11v111q0 10 10 10h92l-14 21q-45 63 -45 130q0 93 66 156t165 63zM213 132h13q63 0 100 34.5t37 94.5q0 48 -29.5 80.5t-74.5 32.5q-47 0 -76.5 -31.5t-29.5 -77.5q0 -38 35 -90
q21 -35 25 -43zM170 644l93 93l94 -93l-93 -93z" />
    <glyph glyph-name="uniFED4" unicode="&#x641;" horiz-adv-x="535" arabic-form="medial" 
d="M268 502q97 0 160 -63.5t63 -161.5q0 -63 -46 -124q-12 -15 -13 -16l9 -1q33 -4 94 -4q10 0 10 -10v-111q0 -11 -10 -11q-75 0 -173 20q-39 7 -82 20l-11 -3q-119 -37 -269 -37q-10 1 -10 11v111q0 10 10 10q64 0 100 4q-5 5 -13 15q-44 55 -44 126q0 93 64 159t161 66z
M341 186q26 35 26 76q0 50 -29 80.5t-75 30.5q-45 0 -73 -30t-28 -78q0 -42 26 -77q26 -34 73 -50q56 17 80 48zM175 644l93 93l94 -93l-93 -93z" />
    <glyph glyph-name="uniFED6" unicode="&#x642;" horiz-adv-x="780" arabic-form="final" 
d="M501 492q95 0 153.5 -61.5t64.5 -173.5q3 -75 3 -82q1 -13 1 -43h57q10 0 10 -10v-111q0 -11 -10 -11h-59q-15 -88 -85 -143q-92 -72 -275 -72q-170 0 -251.5 69t-81.5 208q0 61 10 106.5t34 116.5h117q-43 -113 -43 -199q0 -94 55 -136.5t182 -42.5q158 0 207 80
q5 8 6 13h-67q-120 0 -191 64.5t-71 175.5q0 109 66.5 180.5t167.5 71.5zM600 153l-6 94q-9 115 -99 115q-46 0 -76.5 -33t-30.5 -85q0 -115 156 -115q15 0 33 0.5t24 0.5q-1 8 -1 23zM328 645l93 94l77 -75l75 75l94 -94l-92 -93l-77 74l-76 -74z" />
    <glyph glyph-name="uniFED7" unicode="&#x642;" horiz-adv-x="527" arabic-form="initial" 
d="M264 502q97 0 161.5 -67t64.5 -167q0 -121 -72.5 -194.5t-193.5 -73.5h-224q-10 1 -10 11v111q0 10 10 10h92l-14 21q-45 63 -45 130q0 93 66 156t165 63zM213 132h13q63 0 100 34.5t37 94.5q0 48 -29.5 80.5t-74.5 32.5q-47 0 -76.5 -31.5t-29.5 -77.5q0 -38 35 -90
q21 -35 25 -43zM95 645l93 94l77 -75l75 75l94 -94l-92 -93l-77 74l-76 -74z" />
    <glyph glyph-name="uniFED8" unicode="&#x642;" horiz-adv-x="535" arabic-form="medial" 
d="M268 502q97 0 160 -63.5t63 -161.5q0 -63 -46 -124q-12 -15 -13 -16l9 -1q33 -4 94 -4q10 0 10 -10v-111q0 -11 -10 -11q-75 0 -173 20q-39 7 -82 20l-11 -3q-119 -37 -269 -37q-10 1 -10 11v111q0 10 10 10q64 0 100 4q-5 5 -13 15q-44 55 -44 126q0 93 64 159t161 66z
M341 186q26 35 26 76q0 50 -29 80.5t-75 30.5q-45 0 -73 -30t-28 -78q0 -42 26 -77q26 -34 73 -50q56 17 80 48zM95 645l93 94l77 -75l75 75l94 -94l-92 -93l-77 74l-76 -74z" />
    <glyph glyph-name="uniFEDA" unicode="&#x643;" horiz-adv-x="883" arabic-form="final" 
d="M46 388h118q-15 -73 -15 -110q0 -78 37 -112t133 -34h103q156 0 240 38q-1 9 -1 27v528h126v-507q0 -46 21 -66t75 -20q10 0 10 -10v-111q0 -11 -10 -11q-110 0 -166 53q-11 9 -18 18q-53 -34 -107 -49q-69 -20 -163 -22h-139q-128 0 -195 62.5t-67 180.5q0 61 18 145z
M460 436h93l-29 -95h-130q-52 0 -106 -17v92l31 10q12 4 24 6l-1 1q-20 22 -20 55q0 44 31.5 74t84.5 30q32 0 75 -21v-86q-41 14 -71 14q-20 0 -32 -9t-12 -23q0 -31 62 -31z" />
    <glyph glyph-name="uniFEDB" unicode="&#x643;" horiz-adv-x="581" arabic-form="initial" 
d="M370 795h182v-5l-345 -286l160 -70q186 -80 186 -223q0 -98 -70.5 -154.5t-193.5 -56.5h-289q-10 0 -10 11v111q0 10 10 10h297q58 0 94 20.5t36 53.5t-28.5 60t-94.5 56l-250 110v88z" />
    <glyph glyph-name="uniFEDC" unicode="&#x643;" horiz-adv-x="651" arabic-form="medial" 
d="M370 795h182v-5l-345 -286l160 -70q186 -80 186 -223q0 -98 -70.5 -154.5t-193.5 -56.5h-289q-10 0 -10 11v111q0 10 10 10h297q58 0 94 20.5t36 53.5t-28.5 60t-94.5 56l-250 110v88zM455 104l56 71q64 -43 140 -43q10 0 10 -10v-111q0 -11 -10 -11q-108 0 -196 104z
" />
    <glyph glyph-name="uniFEDE" unicode="&#x644;" horiz-adv-x="698" arabic-form="final" 
d="M471 725h126v-515q0 -78 102 -78q10 0 10 -10v-111q0 -11 -10 -11q-66 0 -106 38q-4 -35 -15 -67q-29 -88 -100 -137t-180 -49q-129 0 -199.5 71.5t-70.5 205.5q0 61 10 106.5t34 116.5h117q-43 -113 -43 -199q0 -78 39.5 -123.5t117.5 -45.5q88 0 128 45.5t40 140.5v622
z" />
    <glyph glyph-name="uniFEDF" unicode="&#x644;" horiz-adv-x="300" arabic-form="initial" 
d="M96 725h126v-528q0 -93 -57 -145t-165 -52q-10 0 -10 11v111q0 10 10 10q54 0 75 20t21 66v507z" />
    <glyph glyph-name="uniFEE0" unicode="&#x644;" horiz-adv-x="321" arabic-form="medial" 
d="M99 725h126v-507q0 -46 21 -66t75 -20q10 0 10 -10v-111q0 -11 -10 -11q-110 0 -166 53l-8 7l-5 -4q-59 -56 -142 -56q-10 0 -10 11v111q0 10 10 10q39 0 70 11q22 10 31 17q-2 22 -2 37v528z" />
    <glyph glyph-name="uniFEE2" unicode="&#x645;" horiz-adv-x="667" arabic-form="final" 
d="M394 476q122 0 168 -151l24 -83q16 -59 34 -84.5t46 -25.5q10 0 10 -10v-111q0 -11 -10 -11q-77 0 -125 58q-11 15 -20 29l-21 -87q-187 0 -275 60q-14 9 -30 25q-41 -18 -41 -81q0 -79 30 -279h-126q-30 186 -30 289q0 66 31.5 116t84.5 73l19 7l5 24q20 93 80 167.5
t146 74.5zM479 193l-18 61q-28 94 -78 94q-34 0 -68 -43t-54 -119q72 -43 176 -53q20 -2 64 -4q-10 26 -22 64z" />
    <glyph glyph-name="uniFEE3" unicode="&#x645;" horiz-adv-x="552" arabic-form="initial" 
d="M313 476q183 0 211 -348l-87 -141q-101 0 -192 18q-72 14 -139 44l-2 -3q-39 -46 -104 -46q-10 1 -10 11v111q0 10 10 10q28 0 43.5 26t55.5 126q38 97 88.5 144.5t125.5 47.5zM281 130q64 -10 127 -10q-6 112 -33 168q-29 60 -69 60q-39 0 -66.5 -32t-57.5 -112l-16 -40
q53 -25 115 -34z" />
    <glyph glyph-name="uniFEE4" unicode="&#x645;" horiz-adv-x="563" arabic-form="medial" 
d="M290 476q122 0 168 -151l24 -83q16 -59 34 -84.5t46 -25.5q10 0 10 -10v-111q0 -11 -10 -11q-77 0 -125 58q-11 15 -20 29l-21 -87q-84 0 -157 14q-62 12 -107 38l-27 -21q-47 -31 -105 -31q-10 0 -10 11v111q0 10 10 10q36 0 61 7q-4 15 -4 35q0 42 16 93t44 98.5t74 79
t99 31.5zM375 193l-18 61q-28 94 -78 94q-34 0 -68 -43t-54 -119q72 -43 176 -53q20 -2 64 -4q-10 26 -22 64z" />
    <glyph glyph-name="uniFEE6" unicode="&#x646;" horiz-adv-x="694" arabic-form="final" 
d="M435 440h126q13 -88 26 -190q4 -35 5 -50l1 -6q9 -62 101 -62q10 0 10 -10v-111q0 -11 -10 -11q-64 0 -92 34l-8 10q-4 -37 -17 -74q-29 -88 -101.5 -136.5t-181.5 -48.5q-129 0 -197.5 71t-68.5 206q0 61 10 106.5t34 116.5h117q-43 -113 -43 -199q0 -78 37.5 -123.5
t115.5 -45.5q175 0 175 186q0 74 -39 337zM204 479l93 93l94 -93l-93 -93z" />
    <glyph glyph-name="uniFEE7" unicode="&#x646;" horiz-adv-x="270" arabic-form="initial" 
d="M67 485h125q30 -207 30 -288q0 -93 -57 -145t-165 -52q-10 0 -10 11v111q0 10 10 10q54 0 75.5 20t21.5 66q0 64 -30 267zM31 639l93 93l94 -93l-93 -93z" />
    <glyph glyph-name="uniFEE8" unicode="&#x646;" horiz-adv-x="311" arabic-form="medial" 
d="M109 370h116q0 -91 -10 -154q-3 -23 -13 -60q19 -10 40 -15q34 -9 69 -9q10 0 10 -10v-111q0 -11 -10 -11q-57 0 -103 25q-26 13 -54 38q-20 -23 -43 -36q-43 -27 -111 -27q-10 0 -10 11v111q0 10 10 10q64 0 87 47q22 47 22 191zM69 534l93 93l94 -93l-93 -93z" />
    <glyph glyph-name="uniFEE9" unicode="&#x647;" horiz-adv-x="833" arabic-form="isolated" 
d="M307 565v125q231 0 359.5 -101.5t128.5 -284.5q0 -82 -43 -203l-119 -114q-120 0 -247 46l-27 10l-22 -8q-108 -35 -192 -35q-63 0 -135 23v127q70 -18 129 -18q22 0 33 1l-16 18q-44 55 -44 126q0 93 64 159t161 66t160 -63.5t63 -161.5q0 -64 -47 -124q-10 -14 -18 -22
q23 -4 31 -5q46 -7 105 -7q40 95 40 179q0 117 -96 192t-268 75zM409 186q26 35 26 76q0 50 -28.5 80.5t-74.5 30.5q-45 0 -73.5 -30t-28.5 -78q0 -42 26 -77q26 -33 74 -50q55 16 79 48z" />
    <glyph glyph-name="uniFEEA" unicode="&#x647;" horiz-adv-x="537" arabic-form="final" 
d="M342 538h126v-336q0 -35 15.5 -52.5t53.5 -17.5q10 0 10 -10v-111q0 -11 -10 -11q-49 0 -87 15q-34 14 -55 35q-35 -20 -66 -33q-42 -17 -89 -17q-98 0 -155 54t-57 147q0 73 45.5 139.5t142.5 109.5q58 24 126 34v54zM214 324q-63 -44 -63 -111q0 -40 23.5 -62t67.5 -22
q33 0 67 8q24 5 38 11q-5 32 -5 60v164q-80 -15 -128 -48z" />
    <glyph glyph-name="uniFEEB" unicode="&#x647;" horiz-adv-x="764" arabic-form="initial" 
d="M238 565v125q231 0 359.5 -101.5t128.5 -284.5q0 -86 -43 -203l-119 -114q-120 0 -247 46q-3 1 -12.5 4.5t-15.5 5.5l-20 -6q-119 -37 -269 -37q-10 1 -10 11v111q0 10 10 10q64 0 100 4q-5 5 -13 15q-44 55 -44 126q0 93 64 159t161 66t160 -63.5t63 -161.5
q0 -63 -46 -124q-18 -21 -19 -22q23 -4 31 -5q46 -7 105 -7q40 95 40 179q0 117 -96 192t-268 75zM341 186q26 35 26 76q0 50 -29 80.5t-75 30.5q-45 0 -73 -30t-28 -78q0 -42 26 -77q26 -34 73 -50q56 17 80 48z" />
    <glyph glyph-name="uniFEEC" unicode="&#x647;" horiz-adv-x="551" arabic-form="medial" 
d="M257 572h102q145 -130 145 -279q0 -75 -40 -130q-5 -7 -17 -21l24 -4q41 -6 80 -6q10 0 10 -11v-111q0 -10 -10 -10q-24 0 -43 4q-11 2 -38 11q16 -20 23 -38q9 -23 9 -45q0 -66 -47.5 -106.5t-126.5 -40.5q-102 0 -169 53t-95 144l-6 19q-19 -1 -58 -1q-10 0 -10 11v111
q0 10 10 10h46q1 52 14 109q48 206 197 331zM162 141l15 3q201 33 201 146q0 59 -29 106q-23 36 -57 69q-23 -22 -45 -53q-55 -80 -75 -181q-8 -43 -10 -90zM195 18l-12 -3q8 -19 25 -44q44 -59 111 -59q73 0 73 52q0 30 -16 56q-10 21 -33 45q-61 -30 -148 -47z" />
    <glyph glyph-name="uniFEEE" unicode="&#x648;" horiz-adv-x="551" arabic-form="final" 
d="M272 492q95 0 153.5 -61.5t64.5 -173.5l3 -84q1 -13 1 -41h57q10 0 10 -10v-111q0 -11 -10 -11h-58q-4 -29 -15 -58q-61 -157 -355 -157v114q126 0 188 37q43 25 57 64h-68q-120 0 -191 64.5t-71 175.5q0 109 66.5 180.5t167.5 71.5zM371 155l-6 92q-7 115 -99 115
q-46 0 -76.5 -33t-30.5 -85q0 -115 156 -115q15 0 33 0.5t24 0.5q-1 9 -1 25z" />
    <glyph glyph-name="uniFEF0" unicode="&#x649;" horiz-adv-x="679" arabic-form="final" 
d="M474 40v126q131 -34 204 -34q10 0 10 -10v-111q0 -11 -10 -11h-2q-44 -98 -126 -152q-95 -63 -238 -63q-130 0 -207 72.5t-77 204.5q0 61 10 106.5t34 116.5h117q-43 -113 -43 -199q0 -88 47.5 -128.5t142.5 -40.5t162 37q43 24 69 59l-30 8z" />
    <glyph glyph-name="uniFEF2" unicode="&#x64a;" horiz-adv-x="679" arabic-form="final" 
d="M474 40v126q131 -34 204 -34q10 0 10 -10v-111q0 -11 -10 -11h-2q-44 -98 -126 -152q-95 -63 -238 -63q-130 0 -207 72.5t-77 204.5q0 61 10 106.5t34 116.5h117q-43 -113 -43 -199q0 -88 47.5 -128.5t142.5 -40.5t162 37q43 24 69 59l-30 8zM228 -351l93 93l75 -72
l73 72l94 -93l-93 -93l-74 73l-73 -73z" />
    <glyph glyph-name="uniFEF3" unicode="&#x64a;" horiz-adv-x="348" arabic-form="initial" 
d="M148 485h126q30 -206 30 -288q0 -93 -57 -145t-165 -52h-82q-10 0 -10 11v111q0 10 10 10h82q54 0 75 20t21 66q0 64 -30 267zM-20 -153l93 93l75 -72l73 72l94 -93l-93 -93l-74 73l-73 -73z" />
    <glyph glyph-name="uniFEF4" unicode="&#x64a;" horiz-adv-x="375" arabic-form="medial" 
d="M139 370h117q0 -77 -8 -146q-5 -33 -10 -52q33 -19 61 -28q41 -12 76 -12q10 0 10 -10v-111q0 -11 -10 -11q-56 0 -111 29q-38 22 -67 49q-23 -30 -60 -50q-52 -28 -137 -28q-10 0 -10 11v111q0 10 10 10q85 0 113 45q17 27 21.5 70t4.5 123zM3 -154l93 93l75 -72l73 72
l94 -93l-93 -93l-74 73l-73 -73z" />
    <glyph glyph-name=".notdef" horiz-adv-x="500" 
d="M0 0v725h500v-725h-500zM239 362l-220 334v-667zM260 362l221 -333v667zM250 346l-217 -327h433zM33 706l217 -328l216 328h-433z" />
    <glyph glyph-name=".null" 
 />
    <glyph glyph-name="nonmarkingreturn" horiz-adv-x="333" 
 />
    <glyph glyph-name="space" unicode=" " horiz-adv-x="226" 
 />
    <glyph glyph-name="exclam" unicode="!" horiz-adv-x="250" 
d="M172 214h-91l-25 325v186h138v-186zM199 0h-148v150h148v-150z" />
    <glyph glyph-name="quotedbl" unicode="&#x22;" horiz-adv-x="341" 
d="M182 725h145l-20 -259h-106zM14 725h145l-20 -259h-106z" />
    <glyph glyph-name="numbersign" unicode="#" horiz-adv-x="725" 
d="M57 557h140l23 168h124l-23 -168h133l23 168h124l-23 -168h138l-13 -107h-140l-21 -151h137l-11 -106h-141l-26 -193h-124l26 193h-133l-26 -193h-124l26 193h-137l13 106h139l21 151h-136zM306 450l-21 -151h133l21 151h-133z" />
    <glyph glyph-name="dollar" unicode="$" horiz-adv-x="624" 
d="M280 810h57v-74q109 -10 174 -75.5t65 -165.5h-134q0 59 -29.5 92.5t-75.5 42.5v-201l8 -2q39 -10 67.5 -19t63.5 -27t57 -40t37.5 -56.5t15.5 -76.5q0 -100 -71.5 -157t-177.5 -63v-84h-57v85q-111 8 -179.5 77.5t-66.5 174.5h135q0 -66 31.5 -103.5t79.5 -43.5v224
l-38 9q-197 48 -197 207q0 95 69 145.5t166 57.5v73zM457 199q0 42 -29.5 65.5t-90.5 39.5v-211q52 2 86 28.5t34 77.5zM174 541q0 -74 98 -97l8 -2v190q-44 -3 -75 -25.5t-31 -65.5z" />
    <glyph glyph-name="percent" unicode="%" horiz-adv-x="1067" 
d="M207 310q-87 0 -132.5 55.5t-45.5 156.5q0 100 45.5 155t132.5 55q86 0 131 -55t45 -155q0 -101 -45 -156.5t-131 -55.5zM207 380q36 0 57 35t21 107q0 139 -78 139q-79 0 -79 -139q0 -142 79 -142zM354 0h-142l501 725h142zM862 -7q-87 0 -132.5 55.5t-45.5 156.5
q0 100 45.5 155t132.5 55q86 0 131 -55t45 -155q0 -101 -45 -156.5t-131 -55.5zM862 63q36 0 57 35t21 107q0 139 -78 139q-79 0 -79 -139q0 -142 79 -142z" />
    <glyph glyph-name="ampersand" unicode="&#x26;" horiz-adv-x="692" 
d="M253 -13q-107 0 -175 61.5t-68 154.5q0 77 48.5 129.5t122.5 79.5q-74 92 -74 165q0 74 58.5 117.5t149.5 43.5q51 0 93.5 -14.5t74 -52.5t31.5 -95q0 -59 -38 -109.5t-97 -77.5l96 -106q19 53 24 124h136q-13 -116 -72 -221l170 -186h-184l-70 78q-97 -91 -226 -91z
M273 91q75 0 133 68l-154 173q-101 -42 -101 -122q0 -52 34 -85.5t88 -33.5zM248 580q0 -47 64 -117l1 -1q70 36 70 108q0 32 -19 50.5t-49 18.5q-28 0 -47.5 -16.5t-19.5 -42.5z" />
    <glyph glyph-name="quotesingle" unicode="'" horiz-adv-x="173" 
d="M14 725h145l-20 -259h-106z" />
    <glyph glyph-name="parenleft" unicode="(" horiz-adv-x="267" 
d="M18 275q0 241 138 450h126q-122 -202 -122 -450q0 -250 122 -450h-126q-56 83 -97 199.5t-41 250.5z" />
    <glyph glyph-name="parenright" unicode=")" horiz-adv-x="267" 
d="M246 275q0 -242 -138 -450h-126q122 200 122 450q0 248 -122 450h126q138 -206 138 -450z" />
    <glyph glyph-name="asterisk" unicode="*" horiz-adv-x="382" 
d="M236 725v-104l99 38l33 -87l-102 -35l61 -85l-72 -54l-65 87l-59 -87l-78 53l61 85l-100 36l32 87l97 -38v104h93z" />
    <glyph glyph-name="plus" unicode="+" horiz-adv-x="678" 
d="M402 0h-125v207h-216v120h216v211h125v-211h215v-120h-215v-207z" />
    <glyph glyph-name="comma" unicode="," horiz-adv-x="257" 
d="M51 0v150h155v-161l-82 -159h-79l74 170h-68z" />
    <glyph glyph-name="hyphen" unicode="-" horiz-adv-x="418" 
d="M374 207h-331v120h331v-120z" />
    <glyph glyph-name="period" unicode="." horiz-adv-x="250" 
d="M199 0h-148v150h148v-150z" />
    <glyph glyph-name="slash" unicode="/" horiz-adv-x="397" 
d="M123 0h-128l280 725h128z" />
    <glyph glyph-name="zero" unicode="0" horiz-adv-x="663" 
d="M332 -13q-141 0 -216.5 103t-75.5 274q0 170 75 272t217 102q140 0 215.5 -102t75.5 -272t-75.5 -273.5t-215.5 -103.5zM332 91q74 0 112 70.5t38 202.5t-38 201t-112 69t-112.5 -69t-38.5 -201t38.5 -202.5t112.5 -70.5z" />
    <glyph glyph-name="one" unicode="1" horiz-adv-x="369" 
d="M294 0h-138v542h-156v94q45 1 69.5 4t50 12t41 26.5t28.5 46.5h105v-725z" />
    <glyph glyph-name="two" unicode="2" horiz-adv-x="579" 
d="M301 738q111 0 174.5 -50.5t63.5 -144.5q0 -190 -355 -427h372v-116h-533v112q103 83 159.5 131.5t113.5 105.5t80.5 101t23.5 86q0 48 -28 74t-79 26q-52 0 -87.5 -35t-35.5 -110h-134q-2 111 71 179t194 68z" />
    <glyph glyph-name="three" unicode="3" horiz-adv-x="614" 
d="M299 91q58 0 97 31.5t39 81.5q0 61 -49.5 90t-132.5 29h-29v108h24q79 0 124 27.5t45 78.5q0 45 -33.5 71t-81.5 26q-62 0 -100 -35t-43 -93h-131q12 110 85 171t197 61q64 0 118 -19.5t91 -65t37 -110.5q0 -51 -27 -93t-71 -66q55 -23 86 -71.5t31 -104.5
q0 -106 -79.5 -163.5t-200.5 -57.5q-120 0 -193.5 68.5t-79.5 172.5h130q9 -60 46 -98.5t101 -38.5z" />
    <glyph glyph-name="four" unicode="4" horiz-adv-x="634" 
d="M366 550l-207 -259h207v259zM627 291v-117h-124v-174h-137v174h-358v108l360 443h135v-434h124z" />
    <glyph glyph-name="five" unicode="5" horiz-adv-x="623" 
d="M312 91q58 0 94.5 39.5t36.5 107.5q0 71 -39.5 109.5t-94.5 38.5q-46 0 -79 -19t-45 -47l-126 6l48 399h447v-116h-334l-20 -155q54 40 144 40q99 0 169 -68t70 -187q0 -116 -78.5 -184t-194.5 -68q-121 0 -191.5 70t-76.5 171h130q6 -61 41.5 -99t98.5 -38z" />
    <glyph glyph-name="six" unicode="6" horiz-adv-x="628" 
d="M186 235q0 -64 37.5 -104t95.5 -40q57 0 93.5 39.5t36.5 104.5q0 63 -36.5 102t-93.5 39q-58 0 -95.5 -39t-37.5 -102zM325 633q-69 0 -108 -59.5t-39 -161.5q55 69 165 69q104 0 175 -67t71 -181q0 -111 -75.5 -178.5t-194.5 -67.5q-139 0 -209 99t-70 260
q0 81 16 149.5t49.5 124t91.5 87t137 31.5q110 0 171.5 -60.5t68.5 -139.5h-135q-5 44 -36.5 69.5t-77.5 25.5z" />
    <glyph glyph-name="seven" unicode="7" horiz-adv-x="510" 
d="M-3 609v116h533v-116q-148 -150 -217 -285.5t-78 -323.5h-152q8 176 91.5 330.5t216.5 278.5h-394z" />
    <glyph glyph-name="eight" unicode="8" horiz-adv-x="641" 
d="M320 738q114 0 183.5 -52.5t69.5 -133.5q0 -110 -88 -164q110 -64 110 -181q0 -103 -77.5 -161.5t-197.5 -58.5q-118 0 -196 59t-78 161q0 119 111 181q-43 25 -66 69t-23 94q0 82 69.5 134.5t182.5 52.5zM320 332q-61 0 -97 -32.5t-36 -86.5t36.5 -88t96.5 -34
q62 0 98 33.5t36 88.5q0 54 -36 86.5t-98 32.5zM439 535q0 45 -32.5 72t-86.5 27t-86 -27t-32 -72q0 -46 32.5 -75t85.5 -29t86 29t33 75z" />
    <glyph glyph-name="nine" unicode="9" horiz-adv-x="622" 
d="M435 491q0 64 -37.5 103t-94.5 39q-58 0 -94 -38.5t-36 -103.5q0 -63 36.5 -102t93.5 -39t94.5 39t37.5 102zM297 93q69 0 108 59t39 161q-55 -69 -166 -69q-104 0 -174.5 67.5t-70.5 180.5q0 111 75.5 178.5t194.5 67.5q139 0 209 -99t70 -260q0 -81 -16 -149.5
t-49.5 -124t-92 -87t-136.5 -31.5q-109 0 -171 60.5t-69 139.5h135q5 -44 36.5 -69t77.5 -25z" />
    <glyph glyph-name="colon" unicode=":" horiz-adv-x="250" 
d="M199 388h-148v150h148v-150zM199 0h-148v150h148v-150z" />
    <glyph glyph-name="semicolon" unicode=";" horiz-adv-x="257" 
d="M199 388h-148v150h148v-150zM51 0v150h155v-161l-82 -159h-79l74 170h-68z" />
    <glyph glyph-name="less" unicode="&#x3c;" horiz-adv-x="678" 
d="M76 324l516 220v-134l-364 -143l364 -143v-135l-516 221v114z" />
    <glyph glyph-name="equal" unicode="=" horiz-adv-x="678" 
d="M593 314h-508v120h508v-120zM593 103h-508v121h508v-121z" />
    <glyph glyph-name="greater" unicode="&#x3e;" horiz-adv-x="678" 
d="M602 324v-114l-516 -221v135l365 143l-365 143v134z" />
    <glyph glyph-name="question" unicode="?" horiz-adv-x="524" 
d="M275 738q100 0 171.5 -47.5t71.5 -135.5q0 -113 -123 -184q-54 -32 -74 -56.5t-20 -75.5v-31h-135v34q0 70 26 111t81 73q54 32 80 59t26 63q0 37 -32 61t-74 24q-58 0 -94 -33t-38 -102h-136q0 109 76 174.5t194 65.5zM307 0h-148v150h148v-150z" />
    <glyph glyph-name="at" unicode="@" horiz-adv-x="825" 
d="M408 492q-54 0 -86.5 -46.5t-32.5 -111.5q0 -105 83 -105q57 0 90 48t33 117q0 47 -22.5 72.5t-64.5 25.5zM605 153q-41 0 -69 24t-34 68q-48 -89 -152 -89q-63 0 -105.5 45t-42.5 134q0 92 56.5 162t148.5 70q84 0 115 -76q1 7 3.5 27.5t4.5 31.5h71l-29 -218
q-4 -20 -4 -40q0 -67 46 -67q40 0 67.5 48t27.5 129q0 122 -76 187.5t-202 65.5q-137 0 -224 -88t-87 -221q0 -128 76 -207t200 -79q101 0 190 43l28 -67q-99 -49 -218 -49q-158 0 -257 101t-99 261t113 268t280 108q100 0 177.5 -33t126.5 -106.5t49 -179.5
q0 -116 -54 -184.5t-127 -68.5z" />
    <glyph glyph-name="A" unicode="A" horiz-adv-x="685" 
d="M0 0l270 725h144l271 -725h-155l-51 147h-282l-51 -147h-146zM338 550l-100 -286h200z" />
    <glyph glyph-name="B" unicode="B" horiz-adv-x="664" 
d="M65 0v725h282q41 0 76.5 -5t71 -18.5t60.5 -34.5t40.5 -54.5t15.5 -76.5q0 -47 -25.5 -90t-56.5 -63q50 -24 79 -62.5t29 -106.5q0 -110 -78 -162t-200 -52h-294zM208 318v-206h158q125 0 125 102q0 104 -131 104h-152zM208 613v-187h148q52 0 80 24.5t28 71.5
q0 43 -29 67t-79 24h-148z" />
    <glyph glyph-name="C" unicode="C" horiz-adv-x="719" 
d="M557 238h136q-14 -112 -100 -181.5t-214 -69.5q-160 0 -249.5 101.5t-89.5 277.5q0 172 92.5 272t250.5 100q127 0 209.5 -67t100.5 -181h-136q-36 134 -175 134q-85 0 -139.5 -68t-54.5 -190q0 -125 53.5 -195t135.5 -70q147 0 180 137z" />
    <glyph glyph-name="D" unicode="D" horiz-adv-x="719" 
d="M535 363q0 63 -15 109t-38.5 73t-59 42.5t-70 20.5t-78.5 5h-66v-501h66q56 0 97.5 9t81.5 34t61 77t21 131zM65 725h215q73 0 131 -10t110 -35t87 -65t55 -104t20 -148t-20 -148t-55 -104.5t-87 -65.5t-110 -35t-131 -10h-215v725z" />
    <glyph glyph-name="E" unicode="E" horiz-adv-x="617" 
d="M65 0v725h528v-116h-385v-180h364v-116h-364v-197h385v-116h-528z" />
    <glyph glyph-name="F" unicode="F" horiz-adv-x="593" 
d="M65 0v725h528v-116h-385v-180h364v-116h-364v-313h-143z" />
    <glyph glyph-name="G" unicode="G" horiz-adv-x="766" 
d="M395 738q125 0 208 -65t101 -168h-136q-17 58 -64 88.5t-110 30.5q-94 0 -150 -66t-56 -192q0 -127 55 -196t150 -69q69 0 125 38t56 117v12h-181v117h313v-385h-113l-4 85q-67 -98 -218 -98q-153 0 -242 102.5t-89 276.5q0 170 95 271t260 101z" />
    <glyph glyph-name="H" unicode="H" horiz-adv-x="741" 
d="M533 725h143v-725h-143v313h-325v-313h-143v725h143v-296h325v296z" />
    <glyph glyph-name="I" unicode="I" horiz-adv-x="273" 
d="M208 725v-725h-143v725h143z" />
    <glyph glyph-name="J" unicode="J" horiz-adv-x="575" 
d="M261 -13q-117 0 -182.5 68.5t-67.5 181.5h143q2 -71 29 -102t78 -31q106 0 106 133v488h143v-488q0 -116 -65.5 -183t-183.5 -67z" />
    <glyph glyph-name="K" unicode="K" horiz-adv-x="681" 
d="M208 725v-332l296 332h167l-267 -292l287 -433h-169l-214 327l-100 -109v-218h-143v725h143z" />
    <glyph glyph-name="L" unicode="L" horiz-adv-x="561" 
d="M208 725v-609h353v-116h-496v725h143z" />
    <glyph glyph-name="M" unicode="M" horiz-adv-x="895" 
d="M519 0h-142l-179 545v-545h-133v725h208l176 -565l171 565h210v-725h-133v545z" />
    <glyph glyph-name="N" unicode="N" horiz-adv-x="741" 
d="M676 0h-186l-290 553v-553h-135v725h186l290 -553v553h135v-725z" />
    <glyph glyph-name="O" unicode="O" horiz-adv-x="782" 
d="M184 363q0 -123 59 -192.5t148 -69.5t148 69.5t59 192.5t-59 192t-148 69t-148 -69t-59 -192zM746 363q0 -169 -97 -272.5t-258 -103.5t-258 103.5t-97 272.5t97 272t258 103t258 -103t97 -272z" />
    <glyph glyph-name="P" unicode="P" horiz-adv-x="639" 
d="M65 725h248q52 0 91 -3.5t84.5 -18t74.5 -39t49 -70.5t20 -109q0 -67 -25 -113.5t-70.5 -71t-98.5 -35t-121 -10.5h-109v-255h-143v725zM316 613h-108v-247h118q75 0 117 25.5t42 92.5q0 34 -10.5 59t-26 38t-40 20.5t-45 9.5t-47.5 2z" />
    <glyph glyph-name="Q" unicode="Q" horiz-adv-x="781" 
d="M746 363q0 -202 -130 -303l86 -113l-88 -66l-97 125q-62 -19 -126 -19q-161 0 -258 103.5t-97 272.5t97 272t258 103t258 -103t97 -272zM184 363q0 -123 59 -192.5t148 -69.5q26 0 50 6l-55 72l89 67l60 -80q63 73 63 197q0 123 -59 192t-148 69t-148 -69t-59 -192z" />
    <glyph glyph-name="R" unicode="R" horiz-adv-x="677" 
d="M504 0l-144 284h-34h-118v-284h-143v725h238q177 0 253.5 -52.5t76.5 -167.5q0 -135 -131 -191l161 -314h-159zM319 613h-111v-218h118q160 0 160 109t-167 109z" />
    <glyph glyph-name="S" unicode="S" horiz-adv-x="651" 
d="M350 301l-92 17q-217 45 -217 210q0 69 45.5 118.5t109 70.5t134.5 21q115 0 197 -62.5t88 -164.5h-138q-8 59 -51.5 86t-101.5 27q-57 0 -98.5 -22.5t-41.5 -67.5q0 -71 101 -90l95 -17q51 -10 89.5 -23t77.5 -37t60 -64t21 -94q0 -105 -87.5 -163.5t-206.5 -58.5
q-134 0 -216.5 67.5t-92.5 184.5h138q21 -138 176 -138q57 0 101 24t44 77q0 43 -35 65.5t-99 33.5z" />
    <glyph glyph-name="T" unicode="T" horiz-adv-x="600" 
d="M228 0v609h-223v116h590v-116h-224v-609h-143z" />
    <glyph glyph-name="U" unicode="U" horiz-adv-x="708" 
d="M54 725h143v-419q0 -105 32.5 -155t125.5 -50t124.5 49.5t31.5 155.5v419h143v-418q0 -177 -69 -248.5t-230 -71.5q-162 0 -231.5 71.5t-69.5 248.5v418z" />
    <glyph glyph-name="V" unicode="V" horiz-adv-x="638" 
d="M-5 725h155l173 -546l168 546h152l-250 -725h-146z" />
    <glyph glyph-name="W" unicode="W" horiz-adv-x="890" 
d="M529 725l111 -531l99 531h146l-161 -725h-169l-110 540l-110 -540h-169l-161 725h148l108 -528l101 528h167z" />
    <glyph glyph-name="X" unicode="X" horiz-adv-x="667" 
d="M-16 0l266 371l-249 354h172l164 -233l167 233h162l-249 -347l266 -378h-172l-181 257l-185 -257h-161z" />
    <glyph glyph-name="Y" unicode="Y" horiz-adv-x="650" 
d="M-11 725h167l169 -303l172 303h163l-267 -445v-280h-143v282z" />
    <glyph glyph-name="Z" unicode="Z" horiz-adv-x="622" 
d="M587 725v-112l-390 -491h401v-122h-579v112l392 492h-361v121h537z" />
    <glyph glyph-name="bracketleft" unicode="[" horiz-adv-x="342" 
d="M65 725h257v-100h-134v-699h134v-101h-257v900z" />
    <glyph glyph-name="backslash" unicode="\" horiz-adv-x="397" 
d="M123 725l280 -725h-128l-280 725h128z" />
    <glyph glyph-name="bracketright" unicode="]" horiz-adv-x="342" 
d="M20 725h257v-900h-257v101h135v699h-135v100z" />
    <glyph glyph-name="asciicircum" unicode="^" horiz-adv-x="555" 
d="M335 725l199 -387h-134l-122 249l-121 -249h-135l199 387h114z" />
    <glyph glyph-name="underscore" unicode="_" horiz-adv-x="491" 
d="M470 -121h-448v121h448v-121z" />
    <glyph glyph-name="grave" unicode="`" horiz-adv-x="296" 
d="M172 609l-150 116h157l95 -116h-102z" />
    <glyph glyph-name="a" unicode="a" horiz-adv-x="585" 
d="M398 206v40q-122 -13 -169 -32t-47 -62q0 -31 24 -51t69 -20q123 0 123 125zM410 67q-56 -80 -176 -80q-80 0 -137 43.5t-57 114.5q0 46 24.5 79t74.5 54.5t109 33.5t146 22v9q0 112 -101 112q-42 0 -70 -22t-30 -65h-129q8 82 71 133t165 51q232 0 232 -237
q0 -4 -1 -56.5t-1 -80.5q0 -113 16 -178h-127q-3 13 -9 67z" />
    <glyph glyph-name="b" unicode="b" horiz-adv-x="616" 
d="M321 93q54 0 88.5 48.5t34.5 126.5t-34.5 127t-88.5 49q-57 0 -91.5 -47t-34.5 -128q0 -82 34 -129t92 -47zM200 0h-138v725h138v-256q22 38 63 59.5t92 21.5q99 0 166.5 -78t67.5 -203q0 -126 -67.5 -204t-166.5 -78q-108 0 -155 81v-68z" />
    <glyph glyph-name="c" unicode="c" horiz-adv-x="566" 
d="M297 550q91 0 160.5 -50.5t83.5 -145.5h-132q-8 39 -40 64t-72 25q-56 0 -92.5 -46t-36.5 -127q0 -83 36 -129.5t94 -46.5q39 0 71 22t45 67h132q-22 -103 -92 -149.5t-163 -46.5q-119 0 -191.5 78.5t-72.5 202.5t75 203t195 79z" />
    <glyph glyph-name="d" unicode="d" horiz-adv-x="616" 
d="M554 0h-138v68q-47 -81 -155 -81q-99 0 -166.5 78t-67.5 204q0 125 67.5 203t166.5 78q51 0 92 -21.5t63 -59.5v256h138v-725zM295 93q58 0 92 47t34 129q0 81 -34.5 128t-91.5 47q-54 0 -88.5 -49t-34.5 -127t34.5 -126.5t88.5 -48.5z" />
    <glyph glyph-name="e" unicode="e" horiz-adv-x="588" 
d="M561 231h-397q6 -66 44.5 -101.5t91.5 -35.5q76 0 113 62h142q-25 -70 -89 -119.5t-165 -49.5q-126 0 -200 81.5t-74 202.5t75.5 200t194.5 79q124 0 196 -88t68 -231zM296 449q-46 0 -84 -30t-46 -93h255q-2 63 -38.5 93t-86.5 30z" />
    <glyph glyph-name="f" unicode="f" horiz-adv-x="329" 
d="M75 538v30q0 50 11.5 81.5t38 48t60.5 22t89 5.5h47v-102h-27q-51 0 -66 -10.5t-15 -48.5v-26h108v-95h-108v-443h-138v443h-76v95h76z" />
    <glyph glyph-name="g" unicode="g" horiz-adv-x="615" 
d="M296 124q57 0 90.5 44t33.5 117q0 72 -33.5 116t-90.5 44q-53 0 -88.5 -46.5t-35.5 -114.5q0 -67 35.5 -113.5t88.5 -46.5zM415 538h137v-484q0 -128 -67.5 -185t-196.5 -57q-95 0 -158.5 39.5t-76.5 127.5h131q18 -66 111 -66q120 0 120 115v72q-48 -81 -154 -81
q-100 0 -167 74.5t-67 191.5q0 115 66.5 190t167.5 75q50 0 93 -23t61 -59v70z" />
    <glyph glyph-name="h" unicode="h" horiz-adv-x="596" 
d="M200 725v-258q47 83 156 83q186 0 186 -211v-339h-138v309q0 60 -19.5 95t-73.5 35q-63 0 -87 -43t-24 -116v-280h-138v725h138z" />
    <glyph glyph-name="i" unicode="i" horiz-adv-x="262" 
d="M62 538h138v-538h-138v538zM62 725h138v-128h-138v128z" />
    <glyph glyph-name="j" unicode="j" horiz-adv-x="262" 
d="M62 725h138v-128h-138v128zM62 6v532h138v-534q0 -110 -35 -144.5t-139 -34.5h-36v103h18q37 0 45.5 15t8.5 63z" />
    <glyph glyph-name="k" unicode="k" horiz-adv-x="555" 
d="M62 725h138v-403l196 216h155l-193 -206l204 -332h-155l-141 233l-66 -71v-162h-138v725z" />
    <glyph glyph-name="l" unicode="l" horiz-adv-x="262" 
d="M200 725v-725h-138v725h138z" />
    <glyph glyph-name="m" unicode="m" horiz-adv-x="916" 
d="M724 0v313q0 27 -2.5 45.5t-10 39t-26 31t-47.5 10.5q-63 0 -85 -43t-22 -116v-280h-138v313q0 27 -2.5 45.5t-10 39t-26 31t-47.5 10.5q-63 0 -85 -43t-22 -116v-280h-138v538h138v-71q49 83 150 83q106 0 153 -88q63 88 177 88q182 0 182 -211v-339h-138z" />
    <glyph glyph-name="n" unicode="n" horiz-adv-x="596" 
d="M200 538v-71q47 83 156 83q186 0 186 -211v-339h-138v309q0 60 -19.5 95t-73.5 35q-63 0 -87 -43t-24 -116v-280h-138v538h138z" />
    <glyph glyph-name="o" unicode="o" horiz-adv-x="592" 
d="M296 442q-59 0 -94.5 -45.5t-35.5 -128.5t35.5 -128t94.5 -45t94.5 45t35.5 128t-35.5 128.5t-94.5 45.5zM296 -13q-110 0 -190 74t-80 207q0 134 80 208t190 74t190 -74t80 -208q0 -133 -80 -207t-190 -74z" />
    <glyph glyph-name="p" unicode="p" horiz-adv-x="616" 
d="M321 93q54 0 88.5 48.5t34.5 126.5t-34.5 127t-88.5 49q-57 0 -91.5 -47t-34.5 -128q0 -82 34 -129t92 -47zM200 -175h-138v713h138v-69q22 38 63 59.5t92 21.5q99 0 166.5 -78t67.5 -203q0 -126 -68 -204t-167 -78q-107 0 -154 81v-243z" />
    <glyph glyph-name="q" unicode="q" horiz-adv-x="617" 
d="M295 93q58 0 92 47t34 129q0 81 -34.5 128t-91.5 47q-54 0 -88.5 -49t-34.5 -127t34.5 -126.5t88.5 -48.5zM554 538v-713h-138v243q-47 -81 -155 -81q-99 0 -166.5 78t-67.5 204q0 125 67.5 203t166.5 78q51 0 92 -21.5t63 -59.5v69h138z" />
    <glyph glyph-name="r" unicode="r" horiz-adv-x="379" 
d="M370 535v-130q-20 3 -57 3q-56 0 -84.5 -27.5t-28.5 -98.5v-282h-138v538h136v-94q43 93 142 93q12 0 30 -2z" />
    <glyph glyph-name="s" unicode="s" horiz-adv-x="529" 
d="M494 376h-129q-9 35 -38.5 56t-76.5 21q-39 0 -63 -14t-24 -38q0 -46 72 -62l72 -16q48 -11 77.5 -20.5t60.5 -27.5t45.5 -46t14.5 -68q0 -78 -68.5 -126t-164.5 -48q-101 0 -168 50.5t-77 140.5h133q6 -41 35 -66t81 -25q45 0 71 16t26 45q0 27 -23 41.5t-65 24.5
l-80 17q-82 17 -125 54t-43 107t65 115t155 45q91 0 157.5 -44t79.5 -132z" />
    <glyph glyph-name="t" unicode="t" horiz-adv-x="357" 
d="M81 538v146h138v-146h112v-95h-112v-278q0 -40 15 -53t53 -13h42v-99h-101q-90 0 -118.5 30.5t-28.5 114.5v298h-76v95h76z" />
    <glyph glyph-name="u" unicode="u" horiz-adv-x="593" 
d="M393 0v71q-23 -41 -64.5 -62.5t-92.5 -21.5q-181 0 -181 211v340h138v-310q0 -63 17.5 -96.5t70.5 -33.5q63 0 87.5 43t24.5 117v280h138v-538h-138z" />
    <glyph glyph-name="v" unicode="v" horiz-adv-x="534" 
d="M145 538l126 -398l126 398h137l-193 -538h-145l-196 538h145z" />
    <glyph glyph-name="w" unicode="w" horiz-adv-x="734" 
d="M209 166l84 372h147l85 -371l72 371h137l-127 -538h-142l-98 408l-99 -408h-142l-126 538h137z" />
    <glyph glyph-name="x" unicode="x" horiz-adv-x="543" 
d="M534 538l-189 -257l198 -281h-155l-122 173l-126 -173h-140l198 271l-187 267h154l112 -159l116 159h141z" />
    <glyph glyph-name="y" unicode="y" horiz-adv-x="538" 
d="M116 -175h-58v106h52q22 0 31 1t21.5 6t20.5 16.5t17 32.5l6 15l-206 536h151l122 -388l125 388h140l-197 -522q-48 -126 -86.5 -158.5t-138.5 -32.5z" />
    <glyph glyph-name="z" unicode="z" horiz-adv-x="498" 
d="M22 0v109l283 320h-267v109h432v-109l-283 -320h291v-109h-456z" />
    <glyph glyph-name="braceleft" unicode="{" horiz-adv-x="331" 
d="M311 -175h-36q-107 0 -153 36.5t-46 136.5v119q0 54 -15 79t-61 25v109q46 0 61 25t15 79v118q0 100 46 136.5t153 36.5h36v-110h-16q-49 0 -65 -15.5t-16 -55.5v-131q0 -64 -25 -94.5t-70 -41.5v-3q45 -11 70 -41.5t25 -94.5v-133q0 -40 16 -55.5t65 -15.5h16v-109z" />
    <glyph glyph-name="bar" unicode="|" horiz-adv-x="245" 
d="M65 725h115v-815h-115v815z" />
    <glyph glyph-name="braceright" unicode="}" horiz-adv-x="331" 
d="M20 -175v109h16q49 0 65 15.5t16 55.5v133q0 64 25 94.5t70 41.5v3q-45 11 -70 41.5t-25 94.5v131q0 40 -16 55.5t-65 15.5h-16v110h36q107 0 153 -36.5t46 -136.5v-118q0 -54 15 -79t61 -25v-109q-46 0 -61 -25t-15 -79v-119q0 -100 -46 -136.5t-153 -36.5h-36z" />
    <glyph glyph-name="asciitilde" unicode="~" horiz-adv-x="678" 
d="M430 292q56 0 57 68h98q-8 -187 -150 -187q-37 0 -97.5 34.5t-89.5 34.5q-56 0 -57 -69h-98q7 187 150 187q45 0 103.5 -34t83.5 -34z" />
    <glyph glyph-name="uni00A0" unicode="&#xa0;" horiz-adv-x="226" 
 />
    <glyph glyph-name="exclamdown" unicode="&#xa1;" horiz-adv-x="250" 
d="M194 0v-175h-138v175l23 325h90zM199 388h-148v150h148v-150z" />
    <glyph glyph-name="cent" unicode="&#xa2;" horiz-adv-x="565" 
d="M259 620h51v-70q90 -4 153.5 -53.5t77.5 -142.5h-132q-8 37 -34.5 61t-64.5 27v-348q81 5 104 89h132q-23 -99 -85.5 -146t-150.5 -49v-77h-51v78q-106 12 -166 88t-60 191q0 113 61 189t165 90v73zM174 270q0 -140 85 -169v335q-85 -31 -85 -166z" />
    <glyph glyph-name="sterling" unicode="&#xa3;" horiz-adv-x="585" 
d="M309 633q-49 0 -83.5 -25.5t-34.5 -64.5q0 -48 51 -146h167v-75h-133q10 -27 10 -52q0 -84 -88 -147l1 -2q34 14 66 14q23 0 66.5 -13t73.5 -13q52 0 129 31l40 -111q-80 -43 -164 -43q-35 0 -102.5 22.5t-103.5 22.5q-54 0 -134 -44l-49 98q66 33 98 72.5t32 108.5
q0 23 -12 56h-128v75h90q-50 94 -50 160q0 89 76 135t182 46q127 0 197 -67.5t68 -183.5h-135q0 77 -35.5 111.5t-94.5 34.5z" />
    <glyph glyph-name="currency" unicode="&#xa4;" horiz-adv-x="636" 
d="M79 346q0 78 44 139l-69 70l49 49l68 -68q63 49 144 49q83 0 147 -51l71 70l49 -49l-72 -72q44 -64 44 -137q0 -76 -44 -137l72 -71l-49 -49l-71 70q-65 -49 -147 -49q-81 0 -143 48l-69 -69l-49 49l69 70q-44 61 -44 138zM190 346q0 -56 35 -94.5t89 -38.5q58 0 95 38.5
t37 94.5q0 58 -37 97.5t-95 39.5q-54 0 -89 -39.5t-35 -97.5z" />
    <glyph glyph-name="yen" unicode="&#xa5;" horiz-adv-x="671" 
d="M590 88h-188v-88h-138v88h-182v88h182v80h-182v88h139l-221 381h162l174 -325l176 325h159l-225 -381h144v-88h-188v-80h188v-88z" />
    <glyph glyph-name="brokenbar" unicode="&#xa6;" horiz-adv-x="239" 
d="M62 725h115v-305h-115v305zM62 215h115v-305h-115v305z" />
    <glyph glyph-name="section" unicode="&#xa7;" horiz-adv-x="612" 
d="M305 -94q39 0 64 19.5t25 52.5q0 31 -20 51.5t-71 45.5l-127 64q-144 71 -144 178q0 86 104 141q-53 51 -53 122q0 72 65.5 115t152.5 43q96 0 158.5 -49.5t73.5 -136.5h-127q-6 40 -34.5 63.5t-73.5 23.5q-39 0 -62 -14t-23 -38q0 -26 18.5 -44t57.5 -37l136 -69
q78 -39 116.5 -78.5t38.5 -94.5q0 -94 -112 -147q58 -53 58 -126q0 -84 -64.5 -134t-160.5 -50q-100 0 -166 58.5t-72 158.5h127q9 -59 36 -88.5t79 -29.5zM353 335l-133 66q-59 -21 -59 -70q0 -27 18.5 -44.5t58.5 -37.5l133 -68l12 -7q63 27 63 70q0 25 -21.5 45t-71.5 46
z" />
    <glyph glyph-name="dieresis" unicode="&#xa8;" horiz-adv-x="399" 
d="M22 609v116h115v-116h-115zM262 725h115v-116h-115v116z" />
    <glyph glyph-name="copyright" unicode="&#xa9;" horiz-adv-x="825" 
d="M38 361q0 165 108.5 271t266.5 106t266 -106t108 -271q0 -164 -108 -269t-266 -105q-159 0 -267 105t-108 269zM121 361q0 -131 84 -215t208 -84q126 0 208.5 84t82.5 215q0 134 -82 217.5t-209 83.5q-125 0 -208.5 -84t-83.5 -217zM414 244q80 0 95 76l104 -23
q-18 -64 -71.5 -102.5t-130.5 -38.5q-93 0 -147 57.5t-54 148.5q0 92 56 148t148 56q74 0 128.5 -40.5t66.5 -104.5l-103 -25q-5 37 -30 60.5t-62 23.5q-41 0 -67 -30.5t-26 -87.5q0 -56 25 -87t68 -31z" />
    <glyph glyph-name="ordfeminine" unicode="&#xaa;" horiz-adv-x="356" 
d="M128 431q-44 0 -74 24t-30 65q0 52 52.5 76.5t149.5 31.5v12q0 25 -12 35.5t-38 10.5q-47 0 -53 -44h-89q2 45 43.5 77t107.5 32q69 0 103 -30t32 -96v-24l-1 -40q0 -81 7 -123h-95q0 17 -1 36q-31 -43 -102 -43zM228 565v7q-53 -4 -79 -13.5t-26 -31.5q0 -14 12 -23
t29 -9q64 0 64 70z" />
    <glyph glyph-name="guillemotleft" unicode="&#xab;" horiz-adv-x="535" 
d="M170 43l-159 230l159 229h125l-125 -229l125 -230h-125zM389 43l-159 230l159 229h125l-125 -229l125 -230h-125z" />
    <glyph glyph-name="logicalnot" unicode="&#xac;" horiz-adv-x="678" 
d="M472 308h-431v120h556v-335h-125v215z" />
    <glyph glyph-name="uni00AD" unicode="&#xad;" horiz-adv-x="418" 
d="M374 207h-331v120h331v-120z" />
    <glyph glyph-name="registered" unicode="&#xae;" horiz-adv-x="825" 
d="M38 361q0 165 108.5 271t266.5 106t266 -106t108 -271q0 -164 -108 -269t-266 -105q-159 0 -267 105t-108 269zM121 361q0 -131 84 -215t208 -84q126 0 208.5 84t82.5 215q0 134 -82 217.5t-209 83.5q-125 0 -208.5 -84t-83.5 -217zM401 318h-52v-143h-108v400h160
q89 0 137.5 -29t48.5 -102q0 -81 -73 -110l97 -159h-120l-84 143h-6zM479 444q0 19 -13 33t-38 14h-79v-90h79q51 0 51 43z" />
    <glyph glyph-name="macron" unicode="&#xaf;" horiz-adv-x="357" 
d="M335 622h-313v95h313v-95z" />
    <glyph glyph-name="degree" unicode="&#xb0;" horiz-adv-x="337" 
d="M8 577q0 67 47 114t113 47q68 0 115 -47t47 -114q0 -66 -47 -113.5t-115 -47.5q-66 0 -113 47.5t-47 113.5zM95 577q0 -33 20.5 -56t52.5 -23q33 0 54.5 23t21.5 56t-21.5 56t-54.5 23q-32 0 -52.5 -23t-20.5 -56z" />
    <glyph glyph-name="plusminus" unicode="&#xb1;" horiz-adv-x="678" 
d="M276 407v131h127v-131h214v-120h-214v-132h-127v132h-215v120h215zM617 0h-556v121h556v-121z" />
    <glyph glyph-name="twosuperior" unicode="&#xb2;" horiz-adv-x="358" 
d="M184 853q65 0 107.5 -31.5t42.5 -84.5q0 -63 -48 -114.5t-144 -106.5h192v-78h-316v79q11 8 44.5 31.5t46 33t39 29.5t38 32t26.5 28.5t20.5 31t5.5 28.5q0 25 -16 38t-41 13q-29 0 -47.5 -20t-16.5 -66h-95q-4 72 42.5 114.5t119.5 42.5z" />
    <glyph glyph-name="threesuperior" unicode="&#xb3;" horiz-adv-x="381" 
d="M192 501q63 0 63 56q0 49 -85 49h-29v80h27q83 0 83 52q0 21 -17 32.5t-42 11.5q-61 0 -70 -54h-95q6 64 54 94.5t115 30.5q61 0 106.5 -27t45.5 -79q0 -30 -17 -55t-41 -38q29 -11 46.5 -39.5t17.5 -57.5q0 -60 -47.5 -93t-115.5 -33q-66 0 -114 32.5t-56 102.5h97
q9 -65 74 -65z" />
    <glyph glyph-name="acute" unicode="&#xb4;" horiz-adv-x="296" 
d="M274 725l-150 -116h-102l95 116h157z" />
    <glyph glyph-name="mu" unicode="&#xb5;" horiz-adv-x="600" 
d="M185 -175h-123q12 69 12 172v541h123v-279q0 -72 25.5 -118.5t82.5 -46.5t83 46.5t26 118.5v279h124v-538h-124v58q-37 -64 -109 -64t-108 64v-56q0 -100 -12 -177z" />
    <glyph glyph-name="mu" unicode="&#x3bc;" horiz-adv-x="600" 
d="M185 -175h-123q12 69 12 172v541h123v-279q0 -72 25.5 -118.5t82.5 -46.5t83 46.5t26 118.5v279h124v-538h-124v58q-37 -64 -109 -64t-108 64v-56q0 -100 -12 -177z" />
    <glyph glyph-name="paragraph" unicode="&#xb6;" horiz-adv-x="504" 
d="M0 554q0 80 62.5 125.5t165.5 45.5h213v-814h-82v738h-112v-738h-81v473q-67 7 -116.5 48t-49.5 122z" />
    <glyph glyph-name="periodcentered" unicode="&#xb7;" horiz-adv-x="250" 
d="M199 194h-148v150h148v-150z" />
    <glyph glyph-name="cedilla" unicode="&#xb8;" horiz-adv-x="256" 
d="M22 -176l17 45q26 -14 58 -14q56 0 56 29q0 28 -40 28q-24 0 -38 -9l-30 17l51 83h53l-32 -51q12 3 40 3q33 -1 55 -20t22 -48q0 -37 -34.5 -59.5t-81.5 -22.5q-57 0 -96 19z" />
    <glyph glyph-name="onesuperior" unicode="&#xb9;" horiz-adv-x="247" 
d="M200 438h-96v268h-94v71q52 2 78 18.5t39 50.5h73v-408z" />
    <glyph glyph-name="ordmasculine" unicode="&#xba;" horiz-adv-x="373" 
d="M122 591q0 -86 65 -86q29 0 47.5 20.5t18.5 65.5q0 85 -66 85q-65 0 -65 -85zM24 591q0 77 47 118t116 41t116 -41t47 -118q0 -79 -47 -119.5t-116 -40.5t-116 40.5t-47 119.5z" />
    <glyph glyph-name="guillemotright" unicode="&#xbb;" horiz-adv-x="535" 
d="M305 273l-159 -230h-124l124 230l-124 229h124zM524 273l-159 -230h-124l124 230l-124 229h124z" />
    <glyph glyph-name="onequarter" unicode="&#xbc;" horiz-adv-x="870" 
d="M200 317h-96v268h-94v71q52 2 78 18.5t39 50.5h73v-408zM189 0h-142l501 725h142zM705 283l-93 -114h93v114zM854 169v-85h-53v-84h-96v84h-198v75l206 249h88v-239h53z" />
    <glyph glyph-name="onehalf" unicode="&#xbd;" horiz-adv-x="849" 
d="M200 317h-96v268h-94v71q52 2 78 18.5t39 50.5h73v-408zM189 0h-142l501 725h142zM674 415q65 0 107.5 -31.5t42.5 -84.5q0 -63 -48 -114.5t-144 -106.5h192v-78h-316v79q11 8 44.5 31.5t46 33t39 29.5t38 32t26.5 28.5t20.5 31t5.5 28.5q0 25 -16 38t-41 13
q-29 0 -47.5 -20t-16.5 -66h-95q-4 72 42.5 114.5t119.5 42.5z" />
    <glyph glyph-name="threequarters" unicode="&#xbe;" horiz-adv-x="1004" 
d="M192 380q63 0 63 56q0 49 -85 49h-29v80h27q83 0 83 52q0 21 -17 32.5t-42 11.5q-61 0 -70 -54h-95q6 64 54 94.5t115 30.5q61 0 106.5 -27t45.5 -79q0 -30 -17 -55t-41 -38q29 -11 46.5 -39.5t17.5 -57.5q0 -60 -47.5 -93t-115.5 -33q-66 0 -114 32.5t-56 102.5h97
q9 -65 74 -65zM323 0h-142l501 725h142zM839 283l-93 -114h93v114zM988 169v-85h-53v-84h-96v84h-198v75l206 249h88v-239h53z" />
    <glyph glyph-name="questiondown" unicode="&#xbf;" horiz-adv-x="524" 
d="M253 -188q-100 0 -171.5 46.5t-71.5 133.5q0 63 33 104t86 72q54 29 76 55.5t22 76.5v31h135v-34q0 -70 -26 -111t-81 -73q-69 -42 -86 -61q-20 -23 -20 -52q0 -38 32 -60.5t74 -22.5q59 0 95 32t38 100h135q0 -108 -75.5 -172.5t-194.5 -64.5zM369 388h-148v150h148
v-150z" />
    <glyph glyph-name="Agrave" unicode="&#xc0;" horiz-adv-x="685" 
d="M0 0l270 725h144l271 -725h-155l-51 147h-282l-51 -147h-146zM338 550l-100 -286h200zM286 773l-159 113h169l103 -113h-113z" />
    <glyph glyph-name="Aacute" unicode="&#xc1;" horiz-adv-x="685" 
d="M0 0l270 725h144l271 -725h-155l-51 147h-282l-51 -147h-146zM338 550l-100 -286h200zM558 886l-159 -113h-113l103 113h169z" />
    <glyph glyph-name="Acircumflex" unicode="&#xc2;" horiz-adv-x="685" 
d="M0 0l270 725h144l271 -725h-155l-51 147h-282l-51 -147h-146zM338 550l-100 -286h200zM403 875l137 -113h-131l-66 49l-69 -49h-130l140 113h119z" />
    <glyph glyph-name="Atilde" unicode="&#xc3;" horiz-adv-x="685" 
d="M0 0l270 725h144l271 -725h-155l-51 147h-282l-51 -147h-146zM338 550l-100 -286h200zM400 853q39 0 50 40h93q-13 -72 -52.5 -99.5t-83.5 -27.5q-35 0 -71 20.5t-53 20.5q-40 0 -48 -41h-94q13 72 53.5 99.5t83.5 27.5q33 0 68 -20t54 -20z" />
    <glyph glyph-name="Adieresis" unicode="&#xc4;" horiz-adv-x="685" 
d="M0 0l270 725h144l271 -725h-155l-51 147h-282l-51 -147h-146zM338 550l-100 -286h200zM165 886h115v-113h-115v113zM405 886h115v-113h-115v113z" />
    <glyph glyph-name="Aring" unicode="&#xc5;" horiz-adv-x="685" 
d="M0 0l270 725h144l271 -725h-155l-51 147h-282l-51 -147h-146zM338 550l-100 -286h200zM342 935q39 0 65 -23.5t26 -61.5q0 -37 -26 -61t-65 -24q-38 0 -64 24t-26 61t26 61t64 24zM342 893q-18 0 -30.5 -12.5t-12.5 -30.5t12.5 -30t30.5 -12t30.5 12t12.5 30t-12.5 30.5
t-30.5 12.5z" />
    <glyph glyph-name="AE" unicode="&#xc6;" horiz-adv-x="990" 
d="M966 0h-528v147h-237l-93 -147h-151l481 725h528v-116h-385v-180h364v-116h-364v-197h385v-116zM438 520l-163 -256h163v256z" />
    <glyph glyph-name="Ccedilla" unicode="&#xc7;" horiz-adv-x="719" 
d="M557 238h136q-14 -112 -100 -181.5t-214 -69.5q-160 0 -249.5 101.5t-89.5 277.5q0 172 92.5 272t250.5 100q127 0 209.5 -67t100.5 -181h-136q-36 134 -175 134q-85 0 -139.5 -68t-54.5 -190q0 -125 53.5 -195t135.5 -70q147 0 180 137zM260 -175l17 45q26 -14 58 -14
q56 0 56 29q0 28 -40 28q-24 0 -38 -9l-30 17l51 83h53l-32 -51q12 3 40 3q33 -1 55 -20t22 -48q0 -37 -34.5 -59.5t-81.5 -22.5q-57 0 -96 19z" />
    <glyph glyph-name="Egrave" unicode="&#xc8;" horiz-adv-x="617" 
d="M65 0v725h528v-116h-385v-180h364v-116h-364v-197h385v-116h-528zM303 773l-159 113h169l103 -113h-113z" />
    <glyph glyph-name="Eacute" unicode="&#xc9;" horiz-adv-x="617" 
d="M65 0v725h528v-116h-385v-180h364v-116h-364v-197h385v-116h-528zM545 886l-159 -113h-113l103 113h169z" />
    <glyph glyph-name="Ecircumflex" unicode="&#xca;" horiz-adv-x="617" 
d="M65 0v725h528v-116h-385v-180h364v-116h-364v-197h385v-116h-528zM390 875l137 -113h-131l-66 49l-69 -49h-130l140 113h119z" />
    <glyph glyph-name="Edieresis" unicode="&#xcb;" horiz-adv-x="617" 
d="M65 0v725h528v-116h-385v-180h364v-116h-364v-197h385v-116h-528zM152 886h115v-113h-115v113zM392 886h115v-113h-115v113z" />
    <glyph glyph-name="Igrave" unicode="&#xcc;" horiz-adv-x="273" 
d="M208 725v-725h-143v725h143zM81 773l-159 113h169l103 -113h-113z" />
    <glyph glyph-name="Iacute" unicode="&#xcd;" horiz-adv-x="273" 
d="M208 725v-725h-143v725h143zM352 886l-159 -113h-113l103 113h169z" />
    <glyph glyph-name="Icircumflex" unicode="&#xce;" horiz-adv-x="273" 
d="M208 725v-725h-143v725h143zM198 875l137 -113h-131l-66 49l-69 -49h-130l140 113h119z" />
    <glyph glyph-name="Idieresis" unicode="&#xcf;" horiz-adv-x="273" 
d="M208 725v-725h-143v725h143zM-40 886h115v-113h-115v113zM200 886h115v-113h-115v113z" />
    <glyph glyph-name="Eth" unicode="&#xd0;" horiz-adv-x="740" 
d="M86 725h215q73 0 131 -10t110 -35t87 -65t55 -104t20 -148t-20 -148t-55 -104.5t-87 -65.5t-110 -35t-131 -10h-215v308h-86v116h86v301zM556 363q0 63 -15 109t-38.5 73t-59 42.5t-70 20.5t-78.5 5h-66v-189h128v-116h-128v-196h66q56 0 97.5 9t81.5 34t61 77t21 131z
" />
    <glyph glyph-name="Ntilde" unicode="&#xd1;" horiz-adv-x="741" 
d="M676 0h-186l-290 553v-553h-135v725h186l290 -553v553h135v-725zM448 853q39 0 50 40h93q-13 -72 -52.5 -99.5t-83.5 -27.5q-35 0 -71 20.5t-53 20.5q-40 0 -48 -41h-94q13 72 53.5 99.5t83.5 27.5q33 0 68 -20t54 -20z" />
    <glyph glyph-name="Ograve" unicode="&#xd2;" horiz-adv-x="782" 
d="M184 363q0 -123 59 -192.5t148 -69.5t148 69.5t59 192.5t-59 192t-148 69t-148 -69t-59 -192zM746 363q0 -169 -97 -272.5t-258 -103.5t-258 103.5t-97 272.5t97 272t258 103t258 -103t97 -272zM335 773l-159 113h169l103 -113h-113z" />
    <glyph glyph-name="Oacute" unicode="&#xd3;" horiz-adv-x="782" 
d="M184 363q0 -123 59 -192.5t148 -69.5t148 69.5t59 192.5t-59 192t-148 69t-148 -69t-59 -192zM746 363q0 -169 -97 -272.5t-258 -103.5t-258 103.5t-97 272.5t97 272t258 103t258 -103t97 -272zM607 886l-159 -113h-113l103 113h169z" />
    <glyph glyph-name="Ocircumflex" unicode="&#xd4;" horiz-adv-x="782" 
d="M184 363q0 -123 59 -192.5t148 -69.5t148 69.5t59 192.5t-59 192t-148 69t-148 -69t-59 -192zM746 363q0 -169 -97 -272.5t-258 -103.5t-258 103.5t-97 272.5t97 272t258 103t258 -103t97 -272zM452 875l137 -113h-131l-66 49l-69 -49h-130l140 113h119z" />
    <glyph glyph-name="Otilde" unicode="&#xd5;" horiz-adv-x="782" 
d="M184 363q0 -123 59 -192.5t148 -69.5t148 69.5t59 192.5t-59 192t-148 69t-148 -69t-59 -192zM746 363q0 -169 -97 -272.5t-258 -103.5t-258 103.5t-97 272.5t97 272t258 103t258 -103t97 -272zM449 853q39 0 50 40h93q-13 -72 -52.5 -99.5t-83.5 -27.5q-34 0 -71 20.5
t-53 20.5q-40 0 -48 -41h-94q13 72 53.5 99.5t83.5 27.5q33 0 68 -20t54 -20z" />
    <glyph glyph-name="Odieresis" unicode="&#xd6;" horiz-adv-x="782" 
d="M184 363q0 -123 59 -192.5t148 -69.5t148 69.5t59 192.5t-59 192t-148 69t-148 -69t-59 -192zM746 363q0 -169 -97 -272.5t-258 -103.5t-258 103.5t-97 272.5t97 272t258 103t258 -103t97 -272zM214 886h115v-113h-115v113zM454 886h115v-113h-115v113z" />
    <glyph glyph-name="multiply" unicode="&#xd7;" horiz-adv-x="678" 
d="M576 117l-80 -81l-161 160l-159 -159l-73 72l159 161l-157 157l81 80l157 -157l160 160l72 -74l-159 -159z" />
    <glyph glyph-name="Oslash" unicode="&#xd8;" horiz-adv-x="781" 
d="M746 363q0 -169 -97 -272.5t-258 -103.5q-130 0 -216 65l-62 -72l-55 47l64 75q-86 100 -86 261q0 169 97 272t258 103q126 0 217 -66l54 63l56 -46l-57 -67q85 -100 85 -259zM184 363q0 -89 32 -151l307 360q-55 52 -132 52q-89 0 -148 -69t-59 -192zM598 363
q0 88 -31 149l-307 -360q54 -51 131 -51q89 0 148 69.5t59 192.5z" />
    <glyph glyph-name="Ugrave" unicode="&#xd9;" horiz-adv-x="708" 
d="M54 725h143v-419q0 -105 32.5 -155t125.5 -50t124.5 49.5t31.5 155.5v419h143v-418q0 -177 -69 -248.5t-230 -71.5q-162 0 -231.5 71.5t-69.5 248.5v418zM298 773l-159 113h169l103 -113h-113z" />
    <glyph glyph-name="Uacute" unicode="&#xda;" horiz-adv-x="708" 
d="M54 725h143v-419q0 -105 32.5 -155t125.5 -50t124.5 49.5t31.5 155.5v419h143v-418q0 -177 -69 -248.5t-230 -71.5q-162 0 -231.5 71.5t-69.5 248.5v418zM570 886l-159 -113h-113l103 113h169z" />
    <glyph glyph-name="Ucircumflex" unicode="&#xdb;" horiz-adv-x="708" 
d="M54 725h143v-419q0 -105 32.5 -155t125.5 -50t124.5 49.5t31.5 155.5v419h143v-418q0 -177 -69 -248.5t-230 -71.5q-162 0 -231.5 71.5t-69.5 248.5v418zM415 875l137 -113h-131l-66 49l-69 -49h-130l140 113h119z" />
    <glyph glyph-name="Udieresis" unicode="&#xdc;" horiz-adv-x="708" 
d="M54 725h143v-419q0 -105 32.5 -155t125.5 -50t124.5 49.5t31.5 155.5v419h143v-418q0 -177 -69 -248.5t-230 -71.5q-162 0 -231.5 71.5t-69.5 248.5v418zM177 886h115v-113h-115v113zM417 886h115v-113h-115v113z" />
    <glyph glyph-name="Yacute" unicode="&#xdd;" horiz-adv-x="650" 
d="M-11 725h167l169 -303l172 303h163l-267 -445v-280h-143v282zM540 886l-159 -113h-113l103 113h169z" />
    <glyph glyph-name="Thorn" unicode="&#xde;" horiz-adv-x="619" 
d="M211 609h93q52 0 90.5 -4t82.5 -18t72.5 -39t47.5 -70.5t19 -108.5q0 -67 -23.5 -113.5t-68 -71t-96.5 -35t-120 -10.5h-97v-139h-146v725h146v-116zM300 493h-89v-239h99q76 0 117.5 24t41.5 90q0 34 -10.5 58t-26 36.5t-40.5 20t-44.5 9t-47.5 1.5z" />
    <glyph glyph-name="germandbls" unicode="&#xdf;" horiz-adv-x="652" 
d="M200 0h-138v470q0 140 60 200q68 68 209 68q109 0 176.5 -46.5t67.5 -139.5q0 -54 -23.5 -91t-54.5 -51q53 -20 87.5 -69.5t34.5 -124.5q0 -109 -71.5 -169t-191.5 -60q-68 0 -119 13l21 111q45 -15 93 -15q58 0 93 32t35 87q0 127 -175 127h-19v111h14q72 0 106 21
t34 70q0 42 -29 66t-82 24q-70 0 -100 -41q-28 -34 -28 -122v-471z" />
    <glyph glyph-name="agrave" unicode="&#xe0;" horiz-adv-x="585" 
d="M398 206v40q-122 -13 -169 -32t-47 -62q0 -31 24 -51t69 -20q123 0 123 125zM410 67q-56 -80 -176 -80q-80 0 -137 43.5t-57 114.5q0 46 24.5 79t74.5 54.5t109 33.5t146 22v9q0 112 -101 112q-42 0 -70 -22t-30 -65h-129q8 82 71 133t165 51q232 0 232 -237
q0 -4 -1 -56.5t-1 -80.5q0 -113 16 -178h-127q-3 13 -9 67zM239 609l-150 116h157l95 -116h-102z" />
    <glyph glyph-name="aacute" unicode="&#xe1;" horiz-adv-x="585" 
d="M398 206v40q-122 -13 -169 -32t-47 -62q0 -31 24 -51t69 -20q123 0 123 125zM410 67q-56 -80 -176 -80q-80 0 -137 43.5t-57 114.5q0 46 24.5 79t74.5 54.5t109 33.5t146 22v9q0 112 -101 112q-42 0 -70 -22t-30 -65h-129q8 82 71 133t165 51q232 0 232 -237
q0 -4 -1 -56.5t-1 -80.5q0 -113 16 -178h-127q-3 13 -9 67zM491 725l-150 -116h-102l95 116h157z" />
    <glyph glyph-name="acircumflex" unicode="&#xe2;" horiz-adv-x="585" 
d="M398 206v40q-122 -13 -169 -32t-47 -62q0 -31 24 -51t69 -20q123 0 123 125zM410 67q-56 -80 -176 -80q-80 0 -137 43.5t-57 114.5q0 46 24.5 79t74.5 54.5t109 33.5t146 22v9q0 112 -101 112q-42 0 -70 -22t-30 -65h-129q8 82 71 133t165 51q232 0 232 -237
q0 -4 -1 -56.5t-1 -80.5q0 -113 16 -178h-127q-3 13 -9 67zM339 725l148 -116h-121l-76 44l-76 -44h-121l147 116h99z" />
    <glyph glyph-name="atilde" unicode="&#xe3;" horiz-adv-x="585" 
d="M398 206v40q-122 -13 -169 -32t-47 -62q0 -31 24 -51t69 -20q123 0 123 125zM410 67q-56 -80 -176 -80q-80 0 -137 43.5t-57 114.5q0 46 24.5 79t74.5 54.5t109 33.5t146 22v9q0 112 -101 112q-42 0 -70 -22t-30 -65h-129q8 82 71 133t165 51q232 0 232 -237
q0 -4 -1 -56.5t-1 -80.5q0 -113 16 -178h-127q-3 13 -9 67zM349 692q42 0 50 44h95q-20 -127 -133 -127q-34 0 -74 22t-57 22q-41 0 -49 -44h-95q21 127 133 127q34 0 71.5 -22t58.5 -22z" />
    <glyph glyph-name="adieresis" unicode="&#xe4;" horiz-adv-x="585" 
d="M398 206v40q-122 -13 -169 -32t-47 -62q0 -31 24 -51t69 -20q123 0 123 125zM410 67q-56 -80 -176 -80q-80 0 -137 43.5t-57 114.5q0 46 24.5 79t74.5 54.5t109 33.5t146 22v9q0 112 -101 112q-42 0 -70 -22t-30 -65h-129q8 82 71 133t165 51q232 0 232 -237
q0 -4 -1 -56.5t-1 -80.5q0 -113 16 -178h-127q-3 13 -9 67zM113 609v116h115v-116h-115zM353 725h115v-116h-115v116z" />
    <glyph glyph-name="aring" unicode="&#xe5;" horiz-adv-x="585" 
d="M398 206v40q-122 -13 -169 -32t-47 -62q0 -31 24 -51t69 -20q123 0 123 125zM410 67q-56 -80 -176 -80q-80 0 -137 43.5t-57 114.5q0 46 24.5 79t74.5 54.5t109 33.5t146 22v9q0 112 -101 112q-42 0 -70 -22t-30 -65h-129q8 82 71 133t165 51q232 0 232 -237
q0 -4 -1 -56.5t-1 -80.5q0 -113 16 -178h-127q-3 13 -9 67zM291 785q39 0 66.5 -25.5t27.5 -63.5t-27.5 -63.5t-66.5 -25.5q-40 0 -67.5 25t-27.5 64q0 38 27.5 63.5t67.5 25.5zM291 737q-17 0 -29 -11.5t-12 -29.5q0 -17 12 -28.5t29 -11.5t29 11.5t12 28.5q0 18 -12 29.5
t-29 11.5z" />
    <glyph glyph-name="ae" unicode="&#xe6;" horiz-adv-x="942" 
d="M915 231h-397q6 -66 44.5 -101.5t91.5 -35.5q76 0 113 62h142q-25 -70 -89 -119.5t-165 -49.5q-139 0 -208 103q-61 -103 -213 -103q-80 0 -137 43.5t-57 114.5q0 46 24.5 79t74.5 54.5t109 33.5t146 22v9q0 112 -100 112q-42 0 -70 -22t-30 -65h-129q8 82 71 133t165 51
q122 0 173 -71q69 69 177 69q124 0 196 -88t68 -231zM398 206v40q-122 -13 -169 -32t-47 -62q0 -31 24 -51t69 -20q123 0 123 125zM650 449q-46 0 -84 -30t-46 -93h255q-2 63 -38.5 93t-86.5 30z" />
    <glyph glyph-name="ccedilla" unicode="&#xe7;" horiz-adv-x="566" 
d="M297 550q91 0 160.5 -50.5t83.5 -145.5h-132q-8 39 -40 64t-72 25q-56 0 -92.5 -46t-36.5 -127q0 -83 36 -129.5t94 -46.5q39 0 71 22t45 67h132q-22 -103 -92 -149.5t-163 -46.5q-119 0 -191.5 78.5t-72.5 202.5t75 203t195 79zM177 -176l17 45q26 -14 58 -14
q56 0 56 29q0 28 -40 28q-24 0 -38 -9l-30 17l51 83h53l-32 -51q12 3 40 3q33 -1 55 -20t22 -48q0 -37 -34.5 -59.5t-81.5 -22.5q-57 0 -96 19z" />
    <glyph glyph-name="egrave" unicode="&#xe8;" horiz-adv-x="588" 
d="M561 231h-397q6 -66 44.5 -101.5t91.5 -35.5q76 0 113 62h142q-25 -70 -89 -119.5t-165 -49.5q-126 0 -200 81.5t-74 202.5t75.5 200t194.5 79q124 0 196 -88t68 -231zM296 449q-46 0 -84 -30t-46 -93h255q-2 63 -38.5 93t-86.5 30zM240 609l-150 116h157l95 -116h-102z
" />
    <glyph glyph-name="eacute" unicode="&#xe9;" horiz-adv-x="588" 
d="M561 231h-397q6 -66 44.5 -101.5t91.5 -35.5q76 0 113 62h142q-25 -70 -89 -119.5t-165 -49.5q-126 0 -200 81.5t-74 202.5t75.5 200t194.5 79q124 0 196 -88t68 -231zM296 449q-46 0 -84 -30t-46 -93h255q-2 63 -38.5 93t-86.5 30zM492 725l-150 -116h-102l95 116h157z
" />
    <glyph glyph-name="ecircumflex" unicode="&#xea;" horiz-adv-x="588" 
d="M561 231h-397q6 -66 44.5 -101.5t91.5 -35.5q76 0 113 62h142q-25 -70 -89 -119.5t-165 -49.5q-126 0 -200 81.5t-74 202.5t75.5 200t194.5 79q124 0 196 -88t68 -231zM296 449q-46 0 -84 -30t-46 -93h255q-2 63 -38.5 93t-86.5 30zM345 725l148 -116h-121l-76 44
l-76 -44h-121l147 116h99z" />
    <glyph glyph-name="edieresis" unicode="&#xeb;" horiz-adv-x="588" 
d="M561 231h-397q6 -66 44.5 -101.5t91.5 -35.5q76 0 113 62h142q-25 -70 -89 -119.5t-165 -49.5q-126 0 -200 81.5t-74 202.5t75.5 200t194.5 79q124 0 196 -88t68 -231zM296 449q-46 0 -84 -30t-46 -93h255q-2 63 -38.5 93t-86.5 30zM114 609v116h115v-116h-115zM354 725
h115v-116h-115v116z" />
    <glyph glyph-name="igrave" unicode="&#xec;" horiz-adv-x="262" 
d="M62 538h138v-538h-138v538zM81 609l-150 116h157l95 -116h-102z" />
    <glyph glyph-name="iacute" unicode="&#xed;" horiz-adv-x="262" 
d="M62 538h138v-538h-138v538zM332 725l-150 -116h-102l95 116h157z" />
    <glyph glyph-name="icircumflex" unicode="&#xee;" horiz-adv-x="262" 
d="M62 538h138v-538h-138v538zM181 725l148 -116h-121l-76 44l-76 -44h-121l147 116h99z" />
    <glyph glyph-name="idieresis" unicode="&#xef;" horiz-adv-x="262" 
d="M62 538h138v-538h-138v538zM-45 609v116h115v-116h-115zM195 725h115v-116h-115v116z" />
    <glyph glyph-name="eth" unicode="&#xf0;" horiz-adv-x="582" 
d="M325 705l59 37l58 -28l-68 -42q176 -132 176 -361q0 -158 -73.5 -241t-191.5 -83q-113 0 -185.5 75t-72.5 202q0 131 66.5 208.5t167.5 77.5q49 0 90.5 -24t60.5 -58l1 1q-33 79 -131 147l-66 -40l-57 27l73 45q-41 23 -79 38l97 60q33 -14 75 -41zM290 93
q57 0 90.5 46.5t33.5 129.5q0 81 -33.5 128t-90.5 47q-56 0 -87 -48t-31 -128t31 -127.5t87 -47.5z" />
    <glyph glyph-name="ntilde" unicode="&#xf1;" horiz-adv-x="596" 
d="M200 538v-71q47 83 156 83q186 0 186 -211v-339h-138v309q0 60 -19.5 95t-73.5 35q-63 0 -87 -43t-24 -116v-280h-138v538h138zM371 692q42 0 50 44h95q-20 -127 -133 -127q-34 0 -74 22t-57 22q-41 0 -49 -44h-95q21 127 133 127q34 0 71.5 -22t58.5 -22z" />
    <glyph glyph-name="ograve" unicode="&#xf2;" horiz-adv-x="592" 
d="M296 442q-59 0 -94.5 -45.5t-35.5 -128.5t35.5 -128t94.5 -45t94.5 45t35.5 128t-35.5 128.5t-94.5 45.5zM296 -13q-110 0 -190 74t-80 207q0 134 80 208t190 74t190 -74t80 -208q0 -133 -80 -207t-190 -74zM241 609l-150 116h157l95 -116h-102z" />
    <glyph glyph-name="oacute" unicode="&#xf3;" horiz-adv-x="592" 
d="M296 442q-59 0 -94.5 -45.5t-35.5 -128.5t35.5 -128t94.5 -45t94.5 45t35.5 128t-35.5 128.5t-94.5 45.5zM296 -13q-110 0 -190 74t-80 207q0 134 80 208t190 74t190 -74t80 -208q0 -133 -80 -207t-190 -74zM493 725l-150 -116h-102l95 116h157z" />
    <glyph glyph-name="ocircumflex" unicode="&#xf4;" horiz-adv-x="592" 
d="M296 442q-59 0 -94.5 -45.5t-35.5 -128.5t35.5 -128t94.5 -45t94.5 45t35.5 128t-35.5 128.5t-94.5 45.5zM296 -13q-110 0 -190 74t-80 207q0 134 80 208t190 74t190 -74t80 -208q0 -133 -80 -207t-190 -74zM341 725l148 -116h-121l-76 44l-76 -44h-121l147 116h99z" />
    <glyph glyph-name="otilde" unicode="&#xf5;" horiz-adv-x="592" 
d="M296 442q-59 0 -94.5 -45.5t-35.5 -128.5t35.5 -128t94.5 -45t94.5 45t35.5 128t-35.5 128.5t-94.5 45.5zM296 -13q-110 0 -190 74t-80 207q0 134 80 208t190 74t190 -74t80 -208q0 -133 -80 -207t-190 -74zM351 692q42 0 50 44h95q-20 -127 -133 -127q-34 0 -74 22
t-57 22q-41 0 -49 -44h-95q21 127 133 127q34 0 71.5 -22t58.5 -22z" />
    <glyph glyph-name="odieresis" unicode="&#xf6;" horiz-adv-x="592" 
d="M296 442q-59 0 -94.5 -45.5t-35.5 -128.5t35.5 -128t94.5 -45t94.5 45t35.5 128t-35.5 128.5t-94.5 45.5zM296 -13q-110 0 -190 74t-80 207q0 134 80 208t190 74t190 -74t80 -208q0 -133 -80 -207t-190 -74zM115 609v116h115v-116h-115zM355 725h115v-116h-115v116z" />
    <glyph glyph-name="divide" unicode="&#xf7;" horiz-adv-x="678" 
d="M264 23v139h148v-139h-148zM264 374v140h148v-140h-148zM607 208h-535v120h535v-120z" />
    <glyph glyph-name="oslash" unicode="&#xf8;" horiz-adv-x="592" 
d="M296 -13q-90 0 -160 48l-62 -71l-48 45l61 71q-61 70 -61 188q0 134 80 208t190 74q88 0 158 -48l50 58l49 -44l-51 -58q64 -77 64 -190q0 -133 -80 -207t-190 -74zM426 268q0 47 -13 86l-199 -228q31 -31 82 -31q59 0 94.5 45t35.5 128zM296 442q-59 0 -94.5 -45.5
t-35.5 -128.5q0 -48 12 -84l198 228q-33 30 -80 30z" />
    <glyph glyph-name="ugrave" unicode="&#xf9;" horiz-adv-x="593" 
d="M393 0v71q-23 -41 -64.5 -62.5t-92.5 -21.5q-181 0 -181 211v340h138v-310q0 -63 17.5 -96.5t70.5 -33.5q63 0 87.5 43t24.5 117v280h138v-538h-138zM262 609l-150 116h157l95 -116h-102z" />
    <glyph glyph-name="uacute" unicode="&#xfa;" horiz-adv-x="593" 
d="M393 0v71q-23 -41 -64.5 -62.5t-92.5 -21.5q-181 0 -181 211v340h138v-310q0 -63 17.5 -96.5t70.5 -33.5q63 0 87.5 43t24.5 117v280h138v-538h-138zM494 725l-150 -116h-102l95 116h157z" />
    <glyph glyph-name="ucircumflex" unicode="&#xfb;" horiz-adv-x="593" 
d="M393 0v71q-23 -41 -64.5 -62.5t-92.5 -21.5q-181 0 -181 211v340h138v-310q0 -63 17.5 -96.5t70.5 -33.5q63 0 87.5 43t24.5 117v280h138v-538h-138zM342 725l148 -116h-121l-76 44l-76 -44h-121l147 116h99z" />
    <glyph glyph-name="udieresis" unicode="&#xfc;" horiz-adv-x="593" 
d="M393 0v71q-23 -41 -64.5 -62.5t-92.5 -21.5q-181 0 -181 211v340h138v-310q0 -63 17.5 -96.5t70.5 -33.5q63 0 87.5 43t24.5 117v280h138v-538h-138zM116 609v116h115v-116h-115zM356 725h115v-116h-115v116z" />
    <glyph glyph-name="yacute" unicode="&#xfd;" horiz-adv-x="538" 
d="M116 -175h-58v106h52q22 0 31 1t21.5 6t20.5 16.5t17 32.5l6 15l-206 536h151l122 -388l125 388h140l-197 -522q-48 -126 -86.5 -158.5t-138.5 -32.5zM470 725l-150 -116h-102l95 116h157z" />
    <glyph glyph-name="thorn" unicode="&#xfe;" horiz-adv-x="616" 
d="M321 93q54 0 88.5 48.5t34.5 126.5t-34.5 127t-88.5 49q-57 0 -91.5 -47t-34.5 -128q0 -82 34 -129t92 -47zM200 -175h-138v900h138v-256q46 81 152 81q100 0 168.5 -78.5t68.5 -202.5q0 -126 -69 -204t-168 -78q-105 0 -152 81v-243z" />
    <glyph glyph-name="ydieresis" unicode="&#xff;" horiz-adv-x="538" 
d="M116 -175h-58v106h52q22 0 31 1t21.5 6t20.5 16.5t17 32.5l6 15l-206 536h151l122 -388l125 388h140l-197 -522q-48 -126 -86.5 -158.5t-138.5 -32.5zM102 609v116h115v-116h-115zM342 725h115v-116h-115v116z" />
    <glyph glyph-name="Amacron" unicode="&#x100;" horiz-adv-x="685" 
d="M0 0l270 725h144l271 -725h-155l-51 147h-282l-51 -147h-146zM338 550l-100 -286h200zM499 782h-313v95h313v-95z" />
    <glyph glyph-name="amacron" unicode="&#x101;" horiz-adv-x="585" 
d="M398 206v40q-122 -13 -169 -32t-47 -62q0 -31 24 -51t69 -20q123 0 123 125zM410 67q-56 -80 -176 -80q-80 0 -137 43.5t-57 114.5q0 46 24.5 79t74.5 54.5t109 33.5t146 22v9q0 112 -101 112q-42 0 -70 -22t-30 -65h-129q8 82 71 133t165 51q232 0 232 -237
q0 -4 -1 -56.5t-1 -80.5q0 -113 16 -178h-127q-3 13 -9 67zM447 622h-313v95h313v-95z" />
    <glyph glyph-name="Abreve" unicode="&#x102;" horiz-adv-x="685" 
d="M0 0l270 725h144l271 -725h-155l-51 147h-282l-51 -147h-146zM338 550l-100 -286h200zM415 886h97q-11 -117 -171 -117q-158 0 -168 117h97q6 -46 72 -46q67 0 73 46z" />
    <glyph glyph-name="abreve" unicode="&#x103;" horiz-adv-x="585" 
d="M398 206v40q-122 -13 -169 -32t-47 -62q0 -31 24 -51t69 -20q123 0 123 125zM410 67q-56 -80 -176 -80q-80 0 -137 43.5t-57 114.5q0 46 24.5 79t74.5 54.5t109 33.5t146 22v9q0 112 -101 112q-42 0 -70 -22t-30 -65h-129q8 82 71 133t165 51q232 0 232 -237
q0 -4 -1 -56.5t-1 -80.5q0 -113 16 -178h-127q-3 13 -9 67zM363 725h97q-14 -124 -171 -124q-80 0 -122 34t-46 90h97q6 -52 72 -52t73 52z" />
    <glyph glyph-name="Aogonek" unicode="&#x104;" horiz-adv-x="685" 
d="M0 0l270 725h144l271 -725q-26 -13 -37 -19t-27.5 -16t-22.5 -18.5t-6 -18.5q0 -34 45 -34q18 0 48 8v-82q-31 -8 -74 -8q-60 0 -99 22.5t-39 69.5q0 58 57 96l-51 147h-282l-51 -147h-146zM338 550l-100 -286h200z" />
    <glyph glyph-name="aogonek" unicode="&#x105;" horiz-adv-x="585" 
d="M398 206v40q-122 -13 -169 -32t-47 -62q0 -31 24 -51t69 -20q123 0 123 125zM419 0q-3 13 -9 67q-56 -80 -176 -80q-80 0 -137 43.5t-57 114.5q0 46 24.5 79t74.5 54.5t109 33.5t146 22v9q0 112 -100 112q-42 0 -70 -22t-30 -65h-129q8 82 71 133t165 51q231 0 231 -237
q0 -4 -1 -56.5t-1 -80.5q0 -113 16 -178q-46 -22 -65.5 -37t-19.5 -36q0 -33 45 -33q20 0 43 6v-82q-23 -6 -69 -6q-60 0 -99 22.5t-39 68.5q0 29 21.5 55t55.5 42z" />
    <glyph glyph-name="Cacute" unicode="&#x106;" horiz-adv-x="719" 
d="M557 238h136q-14 -112 -100 -181.5t-214 -69.5q-160 0 -249.5 101.5t-89.5 277.5q0 172 92.5 272t250.5 100q127 0 209.5 -67t100.5 -181h-136q-36 134 -175 134q-85 0 -139.5 -68t-54.5 -190q0 -125 53.5 -195t135.5 -70q147 0 180 137zM582 886l-159 -113h-113l103 113
h169z" />
    <glyph glyph-name="cacute" unicode="&#x107;" horiz-adv-x="566" 
d="M297 550q91 0 160.5 -50.5t83.5 -145.5h-132q-8 39 -40 64t-72 25q-56 0 -92.5 -46t-36.5 -127q0 -83 36 -129.5t94 -46.5q39 0 71 22t45 67h132q-22 -103 -92 -149.5t-163 -46.5q-119 0 -191.5 78.5t-72.5 202.5t75 203t195 79zM484 725l-150 -116h-102l95 116h157z" />
    <glyph glyph-name="Ccircumflex" unicode="&#x108;" horiz-adv-x="719" 
d="M557 238h136q-14 -112 -100 -181.5t-214 -69.5q-160 0 -249.5 101.5t-89.5 277.5q0 172 92.5 272t250.5 100q127 0 209.5 -67t100.5 -181h-136q-36 134 -175 134q-85 0 -139.5 -68t-54.5 -190q0 -125 53.5 -195t135.5 -70q147 0 180 137zM443 875l137 -113h-131l-66 49
l-69 -49h-130l140 113h119z" />
    <glyph glyph-name="ccircumflex" unicode="&#x109;" horiz-adv-x="566" 
d="M297 550q91 0 160.5 -50.5t83.5 -145.5h-132q-8 39 -40 64t-72 25q-56 0 -92.5 -46t-36.5 -127q0 -83 36 -129.5t94 -46.5q39 0 71 22t45 67h132q-22 -103 -92 -149.5t-163 -46.5q-119 0 -191.5 78.5t-72.5 202.5t75 203t195 79zM337 725l148 -116h-121l-76 44l-76 -44
h-121l147 116h99z" />
    <glyph glyph-name="Cdotaccent" unicode="&#x10a;" horiz-adv-x="719" 
d="M557 238h136q-14 -112 -100 -181.5t-214 -69.5q-160 0 -249.5 101.5t-89.5 277.5q0 172 92.5 272t250.5 100q127 0 209.5 -67t100.5 -181h-136q-36 134 -175 134q-85 0 -139.5 -68t-54.5 -190q0 -125 53.5 -195t135.5 -70q147 0 180 137zM311 886h143v-113h-143v113z" />
    <glyph glyph-name="cdotaccent" unicode="&#x10b;" horiz-adv-x="566" 
d="M297 550q91 0 160.5 -50.5t83.5 -145.5h-132q-8 39 -40 64t-72 25q-56 0 -92.5 -46t-36.5 -127q0 -83 36 -129.5t94 -46.5q39 0 71 22t45 67h132q-22 -103 -92 -149.5t-163 -46.5q-119 0 -191.5 78.5t-72.5 202.5t75 203t195 79zM226 725h115v-116h-115v116z" />
    <glyph glyph-name="Ccaron" unicode="&#x10c;" horiz-adv-x="719" 
d="M557 238h136q-14 -112 -100 -181.5t-214 -69.5q-160 0 -249.5 101.5t-89.5 277.5q0 172 92.5 272t250.5 100q127 0 209.5 -67t100.5 -181h-136q-36 134 -175 134q-85 0 -139.5 -68t-54.5 -190q0 -125 53.5 -195t135.5 -70q147 0 180 137zM318 773l-137 113h131l66 -50
l69 50h130l-140 -113h-119z" />
    <glyph glyph-name="ccaron" unicode="&#x10d;" horiz-adv-x="566" 
d="M297 550q91 0 160.5 -50.5t83.5 -145.5h-132q-8 39 -40 64t-72 25q-56 0 -92.5 -46t-36.5 -127q0 -83 36 -129.5t94 -46.5q39 0 71 22t45 67h132q-22 -103 -92 -149.5t-163 -46.5q-119 0 -191.5 78.5t-72.5 202.5t75 203t195 79zM250 609l-147 116h121l76 -44l76 44h121
l-148 -116h-99z" />
    <glyph glyph-name="Dcaron" unicode="&#x10e;" horiz-adv-x="719" 
d="M535 363q0 63 -15 109t-38.5 73t-59 42.5t-70 20.5t-78.5 5h-66v-501h66q56 0 97.5 9t81.5 34t61 77t21 131zM65 725h215q73 0 131 -10t110 -35t87 -65t55 -104t20 -148t-20 -148t-55 -104.5t-87 -65.5t-110 -35t-131 -10h-215v725zM281 773l-137 113h131l66 -50l69 50
h130l-140 -113h-119z" />
    <glyph glyph-name="dcaron" unicode="&#x10f;" horiz-adv-x="732" 
d="M742 725l-70 -170h-90l30 170h130zM554 0h-138v68q-47 -81 -155 -81q-99 0 -166.5 78t-67.5 204q0 125 67.5 203t166.5 78q51 0 92 -21.5t63 -59.5v256h138v-725zM295 93q58 0 92 47t34 129q0 81 -34.5 128t-91.5 47q-54 0 -88.5 -49t-34.5 -127t34.5 -126.5t88.5 -48.5z
" />
    <glyph glyph-name="Dcroat" unicode="&#x110;" horiz-adv-x="740" 
d="M86 725h215q73 0 131 -10t110 -35t87 -65t55 -104t20 -148t-20 -148t-55 -104.5t-87 -65.5t-110 -35t-131 -10h-215v308h-86v116h86v301zM556 363q0 63 -15 109t-38.5 73t-59 42.5t-70 20.5t-78.5 5h-66v-189h128v-116h-128v-196h66q56 0 97.5 9t81.5 34t61 77t21 131z
" />
    <glyph glyph-name="dcroat" unicode="&#x111;" horiz-adv-x="623" 
d="M554 0h-138v68q-47 -81 -155 -81q-99 0 -166.5 78t-67.5 204q0 125 67.5 203t166.5 78q51 0 92 -21.5t63 -59.5v105h-140v81h140v70h138v-70h69v-81h-69v-574zM295 93q58 0 92 47t34 129q0 81 -34.5 128t-91.5 47q-54 0 -88.5 -49t-34.5 -127t34.5 -126.5t88.5 -48.5z
" />
    <glyph glyph-name="Emacron" unicode="&#x112;" horiz-adv-x="617" 
d="M65 0v725h528v-116h-385v-180h364v-116h-364v-197h385v-116h-528zM486 782h-313v95h313v-95z" />
    <glyph glyph-name="emacron" unicode="&#x113;" horiz-adv-x="588" 
d="M561 231h-397q6 -66 44.5 -101.5t91.5 -35.5q76 0 113 62h142q-25 -70 -89 -119.5t-165 -49.5q-126 0 -200 81.5t-74 202.5t75.5 200t194.5 79q124 0 196 -88t68 -231zM296 449q-46 0 -84 -30t-46 -93h255q-2 63 -38.5 93t-86.5 30zM448 622h-313v95h313v-95z" />
    <glyph glyph-name="Ebreve" unicode="&#x114;" horiz-adv-x="617" 
d="M65 0v725h528v-116h-385v-180h364v-116h-364v-197h385v-116h-528zM410 886h97q-11 -117 -171 -117q-158 0 -168 117h97q6 -46 72 -46q67 0 73 46z" />
    <glyph glyph-name="ebreve" unicode="&#x115;" horiz-adv-x="588" 
d="M561 231h-397q6 -66 44.5 -101.5t91.5 -35.5q76 0 113 62h142q-25 -70 -89 -119.5t-165 -49.5q-126 0 -200 81.5t-74 202.5t75.5 200t194.5 79q124 0 196 -88t68 -231zM296 449q-46 0 -84 -30t-46 -93h255q-2 63 -38.5 93t-86.5 30zM369 725h97q-14 -124 -171 -124
q-80 0 -122 34t-46 90h97q6 -52 72 -52t73 52z" />
    <glyph glyph-name="Edotaccent" unicode="&#x116;" horiz-adv-x="617" 
d="M65 0v725h528v-116h-385v-180h364v-116h-364v-197h385v-116h-528zM258 886h143v-113h-143v113z" />
    <glyph glyph-name="edotaccent" unicode="&#x117;" horiz-adv-x="588" 
d="M561 231h-397q6 -66 44.5 -101.5t91.5 -35.5q76 0 113 62h142q-25 -70 -89 -119.5t-165 -49.5q-126 0 -200 81.5t-74 202.5t75.5 200t194.5 79q124 0 196 -88t68 -231zM296 449q-46 0 -84 -30t-46 -93h255q-2 63 -38.5 93t-86.5 30zM234 725h115v-116h-115v116z" />
    <glyph glyph-name="Eogonek" unicode="&#x118;" horiz-adv-x="617" 
d="M450 0h143q-26 -13 -37 -19t-27.5 -16t-22.5 -18.5t-6 -18.5q0 -34 45 -34q18 0 48 8v-82q-31 -8 -74 -8q-60 0 -99 22.5t-39 69.5q0 57 69 96zM65 0v725h528v-116h-385v-180h364v-116h-364v-197h385v-116h-528z" />
    <glyph glyph-name="eogonek" unicode="&#x119;" horiz-adv-x="588" 
d="M296 449q-44 0 -83 -30.5t-47 -92.5h255q-2 63 -38.5 93t-86.5 30zM450 -100v-82q-23 -6 -69 -6q-60 0 -99 22.5t-39 68.5q0 48 49 84q-122 4 -193.5 84.5t-71.5 199.5q0 121 75.5 200t194.5 79q124 0 196 -88t68 -231h-397q6 -66 45 -101.5t91 -35.5q76 0 113 62h142
q-29 -79 -104 -129q-89 -56 -89 -100q0 -33 45 -33q21 0 43 6z" />
    <glyph glyph-name="Ecaron" unicode="&#x11a;" horiz-adv-x="617" 
d="M65 0v725h528v-116h-385v-180h364v-116h-364v-197h385v-116h-528zM273 773l-137 113h131l66 -50l69 50h130l-140 -113h-119z" />
    <glyph glyph-name="ecaron" unicode="&#x11b;" horiz-adv-x="588" 
d="M561 231h-397q6 -66 44.5 -101.5t91.5 -35.5q76 0 113 62h142q-25 -70 -89 -119.5t-165 -49.5q-126 0 -200 81.5t-74 202.5t75.5 200t194.5 79q124 0 196 -88t68 -231zM296 449q-46 0 -84 -30t-46 -93h255q-2 63 -38.5 93t-86.5 30zM241 609l-147 116h121l76 -44l76 44
h121l-148 -116h-99z" />
    <glyph glyph-name="Gcircumflex" unicode="&#x11c;" horiz-adv-x="766" 
d="M395 738q125 0 208 -65t101 -168h-136q-17 58 -64 88.5t-110 30.5q-94 0 -150 -66t-56 -192q0 -127 55 -196t150 -69q69 0 125 38t56 117v12h-181v117h313v-385h-113l-4 85q-67 -98 -218 -98q-153 0 -242 102.5t-89 276.5q0 170 95 271t260 101zM454 875l137 -113h-131
l-66 49l-69 -49h-130l140 113h119z" />
    <glyph glyph-name="gcircumflex" unicode="&#x11d;" horiz-adv-x="615" 
d="M296 124q57 0 90.5 44t33.5 117q0 72 -33.5 116t-90.5 44q-53 0 -88.5 -46.5t-35.5 -114.5q0 -67 35.5 -113.5t88.5 -46.5zM415 538h137v-484q0 -128 -67.5 -185t-196.5 -57q-95 0 -158.5 39.5t-76.5 127.5h131q18 -66 111 -66q120 0 120 115v72q-48 -81 -154 -81
q-100 0 -167 74.5t-67 191.5q0 115 66.5 190t167.5 75q50 0 93 -23t61 -59v70zM337 725l148 -116h-121l-76 44l-76 -44h-121l147 116h99z" />
    <glyph glyph-name="Gbreve" unicode="&#x11e;" horiz-adv-x="766" 
d="M395 738q125 0 208 -65t101 -168h-136q-17 58 -64 88.5t-110 30.5q-94 0 -150 -66t-56 -192q0 -127 55 -196t150 -69q69 0 125 38t56 117v12h-181v117h313v-385h-113l-4 85q-67 -98 -218 -98q-153 0 -242 102.5t-89 276.5q0 170 95 271t260 101zM469 886h97
q-11 -117 -171 -117q-158 0 -168 117h97q6 -46 72 -46q67 0 73 46z" />
    <glyph glyph-name="gbreve" unicode="&#x11f;" horiz-adv-x="615" 
d="M296 124q57 0 90.5 44t33.5 117q0 72 -33.5 116t-90.5 44q-53 0 -88.5 -46.5t-35.5 -114.5q0 -67 35.5 -113.5t88.5 -46.5zM415 538h137v-484q0 -128 -67.5 -185t-196.5 -57q-95 0 -158.5 39.5t-76.5 127.5h131q18 -66 111 -66q120 0 120 115v72q-48 -81 -154 -81
q-100 0 -167 74.5t-67 191.5q0 115 66.5 190t167.5 75q50 0 93 -23t61 -59v70zM361 725h97q-14 -124 -171 -124q-80 0 -122 34t-46 90h97q6 -52 72 -52t73 52z" />
    <glyph glyph-name="Gdotaccent" unicode="&#x120;" horiz-adv-x="766" 
d="M395 738q125 0 208 -65t101 -168h-136q-17 58 -64 88.5t-110 30.5q-94 0 -150 -66t-56 -192q0 -127 55 -196t150 -69q69 0 125 38t56 117v12h-181v117h313v-385h-113l-4 85q-67 -98 -218 -98q-153 0 -242 102.5t-89 276.5q0 170 95 271t260 101zM323 886h143v-113h-143
v113z" />
    <glyph glyph-name="gdotaccent" unicode="&#x121;" horiz-adv-x="615" 
d="M296 124q57 0 90.5 44t33.5 117q0 72 -33.5 116t-90.5 44q-53 0 -88.5 -46.5t-35.5 -114.5q0 -67 35.5 -113.5t88.5 -46.5zM415 538h137v-484q0 -128 -67.5 -185t-196.5 -57q-95 0 -158.5 39.5t-76.5 127.5h131q18 -66 111 -66q120 0 120 115v72q-48 -81 -154 -81
q-100 0 -167 74.5t-67 191.5q0 115 66.5 190t167.5 75q50 0 93 -23t61 -59v70zM228 725h115v-116h-115v116z" />
    <glyph glyph-name="uni0122" unicode="&#x122;" horiz-adv-x="766" 
d="M395 738q125 0 208 -65t101 -168h-136q-17 58 -64 88.5t-110 30.5q-94 0 -150 -66t-56 -192q0 -127 55 -196t150 -69q69 0 125 38t56 117v12h-181v117h313v-385h-113l-4 85q-67 -98 -218 -98q-153 0 -242 102.5t-89 276.5q0 170 95 271t260 101zM322 -136v100h106v-106
l-44 -89h-65l39 95h-36z" />
    <glyph glyph-name="uni0123" unicode="&#x123;" horiz-adv-x="615" 
d="M349 707v-100h-105v106l44 90h64l-38 -96h35zM296 124q57 0 90.5 44t33.5 117q0 72 -33.5 116t-90.5 44q-53 0 -88.5 -46.5t-35.5 -114.5q0 -67 35.5 -113.5t88.5 -46.5zM415 538h137v-484q0 -128 -67.5 -185t-196.5 -57q-95 0 -158.5 39.5t-76.5 127.5h131
q18 -66 111 -66q120 0 120 115v72q-48 -81 -154 -81q-100 0 -167 74.5t-67 191.5q0 115 66.5 190t167.5 75q50 0 93 -23t61 -59v70z" />
    <glyph glyph-name="Hcircumflex" unicode="&#x124;" horiz-adv-x="740" 
d="M533 725h143v-725h-143v313h-325v-313h-143v725h143v-296h325v296zM431 875l137 -113h-131l-66 49l-69 -49h-130l140 113h119z" />
    <glyph glyph-name="hcircumflex" unicode="&#x125;" horiz-adv-x="596" 
d="M200 725v-258q47 83 156 83q186 0 186 -211v-339h-138v309q0 60 -19.5 95t-73.5 35q-63 0 -87 -43t-24 -116v-280h-138v725h138zM193 875l137 -113h-131l-66 49l-69 -49h-130l140 113h119z" />
    <glyph glyph-name="Hbar" unicode="&#x126;" horiz-adv-x="740" 
d="M533 725h143v-100h54v-116h-54v-509h-143v313h-325v-313h-143v509h-55v116h55v100h143v-100h325v100zM208 429h325v80h-325v-80z" />
    <glyph glyph-name="hbar" unicode="&#x127;" horiz-adv-x="623" 
d="M227 725v-70h126v-81h-126v-107q47 83 156 83q186 0 186 -211v-339h-138v309q0 60 -19.5 95t-73.5 35q-63 0 -87 -43t-24 -116v-280h-138v574h-84v81h84v70h138z" />
    <glyph glyph-name="Itilde" unicode="&#x128;" horiz-adv-x="273" 
d="M208 725v-725h-143v725h143zM195 853q39 0 50 40h93q-13 -72 -52.5 -99.5t-83.5 -27.5q-34 0 -71 20.5t-53 20.5q-40 0 -48 -41h-94q13 72 53.5 99.5t83.5 27.5q33 0 68 -20t54 -20z" />
    <glyph glyph-name="itilde" unicode="&#x129;" horiz-adv-x="262" 
d="M62 538h138v-538h-138v538zM191 692q42 0 50 44h95q-20 -127 -133 -127q-34 0 -74 22t-57 22q-41 0 -49 -44h-95q21 127 133 127q34 0 71.5 -22t58.5 -22z" />
    <glyph glyph-name="Imacron" unicode="&#x12a;" horiz-adv-x="273" 
d="M208 725v-725h-143v725h143zM294 782h-313v95h313v-95z" />
    <glyph glyph-name="imacron" unicode="&#x12b;" horiz-adv-x="262" 
d="M62 538h138v-538h-138v538zM289 622h-313v95h313v-95z" />
    <glyph glyph-name="Ibreve" unicode="&#x12c;" horiz-adv-x="273" 
d="M208 725v-725h-143v725h143zM210 886h97q-11 -117 -171 -117q-158 0 -168 117h97q6 -46 72 -46q67 0 73 46z" />
    <glyph glyph-name="ibreve" unicode="&#x12d;" horiz-adv-x="262" 
d="M62 538h138v-538h-138v538zM205 725h97q-14 -124 -171 -124q-80 0 -122 34t-46 90h97q6 -52 72 -52t73 52z" />
    <glyph glyph-name="Iogonek" unicode="&#x12e;" horiz-adv-x="273" 
d="M208 725v-725h-143v725h143zM66 0h143q-26 -13 -37 -19t-27.5 -16t-22.5 -18.5t-6 -18.5q0 -34 45 -34q18 0 48 8v-82q-31 -8 -74 -8q-60 0 -99 22.5t-39 69.5q0 57 69 96z" />
    <glyph glyph-name="iogonek" unicode="&#x12f;" horiz-adv-x="262" 
d="M62 0v538h138v-538q-34 -17 -47.5 -24t-27 -20.5t-13.5 -28.5q0 -33 45 -33q21 0 43 6v-82q-23 -6 -69 -6q-60 0 -99 22.5t-39 68.5q0 58 69 97zM62 725h138v-128h-138v128z" />
    <glyph glyph-name="Idotaccent" unicode="&#x130;" horiz-adv-x="273" 
d="M208 725v-725h-143v725h143zM65 886h143v-113h-143v113z" />
    <glyph glyph-name="dotlessi" unicode="&#x131;" horiz-adv-x="262" 
d="M62 538h138v-538h-138v538z" />
    <glyph glyph-name="Jcircumflex" unicode="&#x134;" horiz-adv-x="575" 
d="M261 -13q-117 0 -182.5 68.5t-67.5 181.5h143q2 -71 29 -102t78 -31q106 0 106 133v488h143v-488q0 -116 -65.5 -183t-183.5 -67zM499 875l137 -113h-131l-66 49l-69 -49h-130l140 113h119z" />
    <glyph glyph-name="jcircumflex" unicode="&#x135;" horiz-adv-x="262" 
d="M62 6v532h138v-534q0 -110 -35 -144.5t-139 -34.5h-36v103h18q37 0 45.5 15t8.5 63zM181 725l148 -116h-121l-76 44l-76 -44h-121l147 116h99z" />
    <glyph glyph-name="uni0136" unicode="&#x136;" horiz-adv-x="681" 
d="M208 725v-332l296 332h167l-267 -292l287 -433h-169l-214 327l-100 -109v-218h-143v725h143zM300 -136v100h106v-106l-44 -89h-65l39 95h-36z" />
    <glyph glyph-name="uni0137" unicode="&#x137;" horiz-adv-x="555" 
d="M62 725h138v-403l196 216h155l-193 -206l204 -332h-155l-141 233l-66 -71v-162h-138v725zM243 -136v100h106v-106l-44 -89h-65l39 95h-36z" />
    <glyph glyph-name="Lacute" unicode="&#x139;" horiz-adv-x="561" 
d="M208 725v-609h353v-116h-496v725h143zM342 886l-159 -113h-113l103 113h169z" />
    <glyph glyph-name="lacute" unicode="&#x13a;" horiz-adv-x="262" 
d="M200 725v-725h-138v725h138zM347 886l-159 -113h-113l103 113h169z" />
    <glyph glyph-name="uni013B" unicode="&#x13b;" horiz-adv-x="561" 
d="M208 725v-609h353v-116h-496v725h143zM262 -136v100h106v-106l-44 -89h-65l39 95h-36z" />
    <glyph glyph-name="uni013C" unicode="&#x13c;" horiz-adv-x="262" 
d="M200 725v-725h-138v725h138zM80 -136v100h106v-106l-44 -89h-65l39 95h-36z" />
    <glyph glyph-name="Lcaron" unicode="&#x13d;" horiz-adv-x="561" 
d="M208 725v-609h353v-116h-496v725h143zM451 725l-70 -170h-90l30 170h130z" />
    <glyph glyph-name="lcaron" unicode="&#x13e;" horiz-adv-x="382" 
d="M392 725l-70 -170h-90l30 170h130zM200 725v-725h-138v725h138z" />
    <glyph glyph-name="Ldot" unicode="&#x13f;" horiz-adv-x="593" 
d="M208 725v-609h353v-116h-496v725h143zM361 489h143v-113h-143v113z" />
    <glyph glyph-name="ldot" unicode="&#x140;" horiz-adv-x="377" 
d="M200 725v-725h-138v725h138zM262 479h115v-116h-115v116z" />
    <glyph glyph-name="Lslash" unicode="&#x141;" horiz-adv-x="593" 
d="M240 725v-255l169 107v-126l-169 -107v-228h353v-116h-496v254l-97 -61v125l97 61v346h143z" />
    <glyph glyph-name="lslash" unicode="&#x142;" horiz-adv-x="304" 
d="M221 725v-244l73 42v-112l-73 -42v-369h-138v291l-73 -41v112l73 41v322h138z" />
    <glyph glyph-name="Nacute" unicode="&#x143;" horiz-adv-x="741" 
d="M676 0h-186l-290 553v-553h-135v725h186l290 -553v553h135v-725zM586 886l-159 -113h-113l103 113h169z" />
    <glyph glyph-name="nacute" unicode="&#x144;" horiz-adv-x="596" 
d="M200 538v-71q47 83 156 83q186 0 186 -211v-339h-138v309q0 60 -19.5 95t-73.5 35q-63 0 -87 -43t-24 -116v-280h-138v538h138zM503 725l-150 -116h-102l95 116h157z" />
    <glyph glyph-name="uni0145" unicode="&#x145;" horiz-adv-x="741" 
d="M676 0h-186l-290 553v-553h-135v725h186l290 -553v553h135v-725zM319 -136v100h106v-106l-44 -89h-65l39 95h-36z" />
    <glyph glyph-name="uni0146" unicode="&#x146;" horiz-adv-x="596" 
d="M200 538v-71q47 83 156 83q186 0 186 -211v-339h-138v309q0 60 -19.5 95t-73.5 35q-63 0 -87 -43t-24 -116v-280h-138v538h138zM241 -136v100h106v-106l-44 -89h-65l39 95h-36z" />
    <glyph glyph-name="Ncaron" unicode="&#x147;" horiz-adv-x="741" 
d="M676 0h-186l-290 553v-553h-135v725h186l290 -553v553h135v-725zM329 773l-137 113h131l66 -50l69 50h130l-140 -113h-119z" />
    <glyph glyph-name="ncaron" unicode="&#x148;" horiz-adv-x="596" 
d="M200 538v-71q47 83 156 83q186 0 186 -211v-339h-138v309q0 60 -19.5 95t-73.5 35q-63 0 -87 -43t-24 -116v-280h-138v538h138zM252 609l-147 116h121l76 -44l76 44h121l-148 -116h-99z" />
    <glyph glyph-name="Eng" unicode="&#x14a;" horiz-adv-x="741" 
d="M533 0l-333 568v-568h-135v725h190l286 -478v478h135v-729q0 -105 -37 -138.5t-145 -33.5h-61v109h28q43 0 57.5 10t14.5 43v14z" />
    <glyph glyph-name="eng" unicode="&#x14b;" horiz-adv-x="596" 
d="M542 339v-345q0 -56 -10.5 -90t-36 -51.5t-56.5 -23t-82 -5.5h-51v101h24q47 0 60.5 13.5t13.5 57.5v313q0 60 -19.5 95t-73.5 35q-63 0 -87 -43t-24 -116v-280h-138v538h138v-71q47 83 156 83q186 0 186 -211z" />
    <glyph glyph-name="Omacron" unicode="&#x14c;" horiz-adv-x="782" 
d="M184 363q0 -123 59 -192.5t148 -69.5t148 69.5t59 192.5t-59 192t-148 69t-148 -69t-59 -192zM746 363q0 -169 -97 -272.5t-258 -103.5t-258 103.5t-97 272.5t97 272t258 103t258 -103t97 -272zM548 782h-313v95h313v-95z" />
    <glyph glyph-name="omacron" unicode="&#x14d;" horiz-adv-x="592" 
d="M296 442q-59 0 -94.5 -45.5t-35.5 -128.5t35.5 -128t94.5 -45t94.5 45t35.5 128t-35.5 128.5t-94.5 45.5zM296 -13q-110 0 -190 74t-80 207q0 134 80 208t190 74t190 -74t80 -208q0 -133 -80 -207t-190 -74zM449 622h-313v95h313v-95z" />
    <glyph glyph-name="Obreve" unicode="&#x14e;" horiz-adv-x="782" 
d="M184 363q0 -123 59 -192.5t148 -69.5t148 69.5t59 192.5t-59 192t-148 69t-148 -69t-59 -192zM746 363q0 -169 -97 -272.5t-258 -103.5t-258 103.5t-97 272.5t97 272t258 103t258 -103t97 -272zM464 886h97q-11 -117 -171 -117q-158 0 -168 117h97q6 -46 72 -46
q67 0 73 46z" />
    <glyph glyph-name="obreve" unicode="&#x14f;" horiz-adv-x="592" 
d="M296 442q-59 0 -94.5 -45.5t-35.5 -128.5t35.5 -128t94.5 -45t94.5 45t35.5 128t-35.5 128.5t-94.5 45.5zM296 -13q-110 0 -190 74t-80 207q0 134 80 208t190 74t190 -74t80 -208q0 -133 -80 -207t-190 -74zM365 725h97q-14 -124 -171 -124q-80 0 -122 34t-46 90h97
q6 -52 72 -52t73 52z" />
    <glyph glyph-name="Ohungarumlaut" unicode="&#x150;" horiz-adv-x="782" 
d="M184 363q0 -123 59 -192.5t148 -69.5t148 69.5t59 192.5t-59 192t-148 69t-148 -69t-59 -192zM746 363q0 -169 -97 -272.5t-258 -103.5t-258 103.5t-97 272.5t97 272t258 103t258 -103t97 -272zM512 886l-159 -113h-113l103 113h169zM702 886l-160 -113h-113l104 113h169
z" />
    <glyph glyph-name="ohungarumlaut" unicode="&#x151;" horiz-adv-x="592" 
d="M296 442q-59 0 -94.5 -45.5t-35.5 -128.5t35.5 -128t94.5 -45t94.5 45t35.5 128t-35.5 128.5t-94.5 45.5zM296 -13q-110 0 -190 74t-80 207q0 134 80 208t190 74t190 -74t80 -208q0 -133 -80 -207t-190 -74zM396 725l-150 -116h-102l95 116h157zM589 725l-149 -116h-102
l94 116h157z" />
    <glyph glyph-name="OE" unicode="&#x152;" horiz-adv-x="1130" 
d="M589 366q0 125 -56 191.5t-146 66.5q-89 0 -146 -67t-57 -191q0 -125 57.5 -195t145.5 -70q89 0 145.5 69.5t56.5 195.5zM591 0v60q-79 -73 -204 -73q-161 0 -256 103.5t-95 275.5q0 171 94.5 271.5t256.5 100.5q124 0 204 -71v58h515v-116h-386v-180h364v-116h-364v-197
h386v-116h-515z" />
    <glyph glyph-name="oe" unicode="&#x153;" horiz-adv-x="979" 
d="M296 -13q-110 0 -190 74t-80 207q0 134 80 208t190 74q123 0 193 -91q75 91 199 91t196 -88t68 -231h-397q6 -66 44.5 -101.5t91.5 -35.5q76 0 113 62h142q-25 -70 -89 -119.5t-165 -49.5q-131 0 -202 90q-69 -90 -194 -90zM296 442q-59 0 -94.5 -45.5t-35.5 -128.5
t35.5 -128t94.5 -45t94.5 45t35.5 128t-35.5 128.5t-94.5 45.5zM687 449q-46 0 -84 -30t-46 -93h255q-2 63 -38.5 93t-86.5 30z" />
    <glyph glyph-name="Racute" unicode="&#x154;" horiz-adv-x="677" 
d="M504 0l-144 284h-34h-118v-284h-143v725h238q177 0 253.5 -52.5t76.5 -167.5q0 -135 -131 -191l161 -314h-159zM319 613h-111v-218h118q160 0 160 109t-167 109zM551 886l-159 -113h-113l103 113h169z" />
    <glyph glyph-name="racute" unicode="&#x155;" horiz-adv-x="379" 
d="M370 535v-130q-20 3 -57 3q-56 0 -84.5 -27.5t-28.5 -98.5v-282h-138v538h136v-94q43 93 142 93q12 0 30 -2zM417 725l-150 -116h-102l95 116h157z" />
    <glyph glyph-name="uni0156" unicode="&#x156;" horiz-adv-x="677" 
d="M504 0l-144 284h-34h-118v-284h-143v725h238q177 0 253.5 -52.5t76.5 -167.5q0 -135 -131 -191l161 -314h-159zM319 613h-111v-218h118q160 0 160 109t-167 109zM284 -136v100h106v-106l-44 -89h-65l39 95h-36z" />
    <glyph glyph-name="uni0157" unicode="&#x157;" horiz-adv-x="379" 
d="M370 535v-130q-20 3 -57 3q-56 0 -84.5 -27.5t-28.5 -98.5v-282h-138v538h136v-94q43 93 142 93q12 0 30 -2zM78 -136v100h106v-106l-44 -89h-65l39 95h-36z" />
    <glyph glyph-name="Rcaron" unicode="&#x158;" horiz-adv-x="677" 
d="M504 0l-144 284h-34h-118v-284h-143v725h238q177 0 253.5 -52.5t76.5 -167.5q0 -135 -131 -191l161 -314h-159zM319 613h-111v-218h118q160 0 160 109t-167 109zM274 773l-137 113h131l66 -50l69 50h130l-140 -113h-119z" />
    <glyph glyph-name="rcaron" unicode="&#x159;" horiz-adv-x="379" 
d="M370 535v-130q-20 3 -57 3q-56 0 -84.5 -27.5t-28.5 -98.5v-282h-138v538h136v-94q43 93 142 93q12 0 30 -2zM167 609l-147 116h121l76 -44l76 44h121l-148 -116h-99z" />
    <glyph glyph-name="Sacute" unicode="&#x15a;" horiz-adv-x="651" 
d="M350 301l-92 17q-217 45 -217 210q0 69 45.5 118.5t109 70.5t134.5 21q115 0 197 -62.5t88 -164.5h-138q-8 59 -51.5 86t-101.5 27q-57 0 -98.5 -22.5t-41.5 -67.5q0 -71 101 -90l95 -17q51 -10 89.5 -23t77.5 -37t60 -64t21 -94q0 -105 -87.5 -163.5t-206.5 -58.5
q-134 0 -216.5 67.5t-92.5 184.5h138q21 -138 176 -138q57 0 101 24t44 77q0 43 -35 65.5t-99 33.5zM542 886l-159 -113h-113l103 113h169z" />
    <glyph glyph-name="sacute" unicode="&#x15b;" horiz-adv-x="529" 
d="M494 376h-129q-9 35 -38.5 56t-76.5 21q-39 0 -63 -14t-24 -38q0 -46 72 -62l72 -16q48 -11 77.5 -20.5t60.5 -27.5t45.5 -46t14.5 -68q0 -78 -68.5 -126t-164.5 -48q-101 0 -168 50.5t-77 140.5h133q6 -41 35 -66t81 -25q45 0 71 16t26 45q0 27 -23 41.5t-65 24.5
l-80 17q-82 17 -125 54t-43 107t65 115t155 45q91 0 157.5 -44t79.5 -132zM467 725l-150 -116h-102l95 116h157z" />
    <glyph glyph-name="Scircumflex" unicode="&#x15c;" horiz-adv-x="651" 
d="M350 301l-92 17q-217 45 -217 210q0 69 45.5 118.5t109 70.5t134.5 21q115 0 197 -62.5t88 -164.5h-138q-8 59 -51.5 86t-101.5 27q-57 0 -98.5 -22.5t-41.5 -67.5q0 -71 101 -90l95 -17q51 -10 89.5 -23t77.5 -37t60 -64t21 -94q0 -105 -87.5 -163.5t-206.5 -58.5
q-134 0 -216.5 67.5t-92.5 184.5h138q21 -138 176 -138q57 0 101 24t44 77q0 43 -35 65.5t-99 33.5zM397 875l137 -113h-131l-66 49l-69 -49h-130l140 113h119z" />
    <glyph glyph-name="scircumflex" unicode="&#x15d;" horiz-adv-x="529" 
d="M494 376h-129q-9 35 -38.5 56t-76.5 21q-39 0 -63 -14t-24 -38q0 -46 72 -62l72 -16q48 -11 77.5 -20.5t60.5 -27.5t45.5 -46t14.5 -68q0 -78 -68.5 -126t-164.5 -48q-101 0 -168 50.5t-77 140.5h133q6 -41 35 -66t81 -25q45 0 71 16t26 45q0 27 -23 41.5t-65 24.5
l-80 17q-82 17 -125 54t-43 107t65 115t155 45q91 0 157.5 -44t79.5 -132zM315 725l148 -116h-121l-76 44l-76 -44h-121l147 116h99z" />
    <glyph glyph-name="Scedilla" unicode="&#x15e;" horiz-adv-x="651" 
d="M350 301l-92 17q-217 45 -217 210q0 69 45.5 118.5t109 70.5t134.5 21q115 0 197 -62.5t88 -164.5h-138q-8 59 -51.5 86t-101.5 27q-57 0 -98.5 -22.5t-41.5 -67.5q0 -71 101 -90l95 -17q51 -10 89.5 -23t77.5 -37t60 -64t21 -94q0 -105 -87.5 -163.5t-206.5 -58.5
q-134 0 -216.5 67.5t-92.5 184.5h138q21 -138 176 -138q57 0 101 24t44 77q0 43 -35 65.5t-99 33.5zM220 -175l17 45q26 -14 58 -14q56 0 56 29q0 28 -40 28q-24 0 -38 -9l-30 17l51 83h53l-32 -51q12 3 40 3q33 -1 55 -20t22 -48q0 -37 -34.5 -59.5t-81.5 -22.5
q-57 0 -96 19z" />
    <glyph glyph-name="scedilla" unicode="&#x15f;" horiz-adv-x="529" 
d="M494 376h-129q-9 35 -38.5 56t-76.5 21q-39 0 -63 -14t-24 -38q0 -46 72 -62l72 -16q48 -11 77.5 -20.5t60.5 -27.5t45.5 -46t14.5 -68q0 -78 -68.5 -126t-164.5 -48q-101 0 -168 50.5t-77 140.5h133q6 -41 35 -66t81 -25q45 0 71 16t26 45q0 27 -23 41.5t-65 24.5
l-80 17q-82 17 -125 54t-43 107t65 115t155 45q91 0 157.5 -44t79.5 -132zM162 -176l17 45q26 -14 58 -14q56 0 56 29q0 28 -40 28q-24 0 -38 -9l-30 17l51 83h53l-32 -51q12 3 40 3q33 -1 55 -20t22 -48q0 -37 -34.5 -59.5t-81.5 -22.5q-57 0 -96 19z" />
    <glyph glyph-name="Scaron" unicode="&#x160;" horiz-adv-x="651" 
d="M350 301l-92 17q-217 45 -217 210q0 69 45.5 118.5t109 70.5t134.5 21q115 0 197 -62.5t88 -164.5h-138q-8 59 -51.5 86t-101.5 27q-57 0 -98.5 -22.5t-41.5 -67.5q0 -71 101 -90l95 -17q51 -10 89.5 -23t77.5 -37t60 -64t21 -94q0 -105 -87.5 -163.5t-206.5 -58.5
q-134 0 -216.5 67.5t-92.5 184.5h138q21 -138 176 -138q57 0 101 24t44 77q0 43 -35 65.5t-99 33.5zM265 773l-137 113h131l66 -50l69 50h130l-140 -113h-119z" />
    <glyph glyph-name="scaron" unicode="&#x161;" horiz-adv-x="529" 
d="M494 376h-129q-9 35 -38.5 56t-76.5 21q-39 0 -63 -14t-24 -38q0 -46 72 -62l72 -16q48 -11 77.5 -20.5t60.5 -27.5t45.5 -46t14.5 -68q0 -78 -68.5 -126t-164.5 -48q-101 0 -168 50.5t-77 140.5h133q6 -41 35 -66t81 -25q45 0 71 16t26 45q0 27 -23 41.5t-65 24.5
l-80 17q-82 17 -125 54t-43 107t65 115t155 45q91 0 157.5 -44t79.5 -132zM216 609l-147 116h121l76 -44l76 44h121l-148 -116h-99z" />
    <glyph glyph-name="uni0162" unicode="&#x162;" horiz-adv-x="600" 
d="M228 0v609h-223v116h590v-116h-224v-609h-143zM249 -136v100h106v-106l-44 -89h-65l39 95h-36z" />
    <glyph glyph-name="uni0163" unicode="&#x163;" horiz-adv-x="357" 
d="M81 538v146h138v-146h112v-95h-112v-278q0 -40 15 -53t53 -13h42v-99h-101q-90 0 -118.5 30.5t-28.5 114.5v298h-76v95h76zM117 -136v100h106v-106l-44 -89h-65l39 95h-36z" />
    <glyph glyph-name="Tcaron" unicode="&#x164;" horiz-adv-x="600" 
d="M228 0v609h-223v116h590v-116h-224v-609h-143zM239 773l-137 113h131l66 -50l69 50h130l-140 -113h-119z" />
    <glyph glyph-name="tcaron" unicode="&#x165;" horiz-adv-x="446" 
d="M456 725l-70 -150h-90l30 150h130zM81 538v146h138v-146h112v-95h-112v-278q0 -40 15 -53t53 -13h42v-99h-101q-90 0 -118.5 30.5t-28.5 114.5v298h-76v95h76z" />
    <glyph glyph-name="Tbar" unicode="&#x166;" horiz-adv-x="600" 
d="M228 0v308h-172v116h172v185h-223v116h590v-116h-224v-185h171v-116h-171v-308h-143z" />
    <glyph glyph-name="tbar" unicode="&#x167;" horiz-adv-x="357" 
d="M81 538v146h138v-146h112v-95h-112v-77h112v-102h-112v-99q0 -40 15 -53t53 -13h42v-99h-101q-90 0 -118.5 30.5t-28.5 114.5v119h-76v102h76v77h-76v95h76z" />
    <glyph glyph-name="Utilde" unicode="&#x168;" horiz-adv-x="708" 
d="M54 725h143v-419q0 -105 32.5 -155t125.5 -50t124.5 49.5t31.5 155.5v419h143v-418q0 -177 -69 -248.5t-230 -71.5q-162 0 -231.5 71.5t-69.5 248.5v418zM422 853q39 0 50 40h93q-13 -72 -52.5 -99.5t-83.5 -27.5q-35 0 -71 20.5t-53 20.5q-40 0 -48 -41h-94
q13 72 53.5 99.5t83.5 27.5q33 0 68 -20t54 -20z" />
    <glyph glyph-name="utilde" unicode="&#x169;" horiz-adv-x="593" 
d="M393 0v71q-23 -41 -64.5 -62.5t-92.5 -21.5q-181 0 -181 211v340h138v-310q0 -63 17.5 -96.5t70.5 -33.5q63 0 87.5 43t24.5 117v280h138v-538h-138zM362 692q42 0 50 44h95q-20 -127 -133 -127q-34 0 -74 22t-57 22q-41 0 -49 -44h-95q21 127 133 127q34 0 71.5 -22
t58.5 -22z" />
    <glyph glyph-name="Umacron" unicode="&#x16a;" horiz-adv-x="708" 
d="M54 725h143v-419q0 -105 32.5 -155t125.5 -50t124.5 49.5t31.5 155.5v419h143v-418q0 -177 -69 -248.5t-230 -71.5q-162 0 -231.5 71.5t-69.5 248.5v418zM511 782h-313v95h313v-95z" />
    <glyph glyph-name="umacron" unicode="&#x16b;" horiz-adv-x="593" 
d="M393 0v71q-23 -41 -64.5 -62.5t-92.5 -21.5q-181 0 -181 211v340h138v-310q0 -63 17.5 -96.5t70.5 -33.5q63 0 87.5 43t24.5 117v280h138v-538h-138zM450 622h-313v95h313v-95z" />
    <glyph glyph-name="Ubreve" unicode="&#x16c;" horiz-adv-x="708" 
d="M54 725h143v-419q0 -105 32.5 -155t125.5 -50t124.5 49.5t31.5 155.5v419h143v-418q0 -177 -69 -248.5t-230 -71.5q-162 0 -231.5 71.5t-69.5 248.5v418zM427 886h97q-11 -117 -171 -117q-158 0 -168 117h97q6 -46 72 -46q67 0 73 46z" />
    <glyph glyph-name="ubreve" unicode="&#x16d;" horiz-adv-x="593" 
d="M393 0v71q-23 -41 -64.5 -62.5t-92.5 -21.5q-181 0 -181 211v340h138v-310q0 -63 17.5 -96.5t70.5 -33.5q63 0 87.5 43t24.5 117v280h138v-538h-138zM366 725h97q-14 -124 -171 -124q-80 0 -122 34t-46 90h97q7 -52 72 -52q67 0 73 52z" />
    <glyph glyph-name="Uring" unicode="&#x16e;" horiz-adv-x="708" 
d="M54 725h143v-419q0 -105 32.5 -155t125.5 -50t124.5 49.5t31.5 155.5v419h143v-418q0 -177 -69 -248.5t-230 -71.5q-162 0 -231.5 71.5t-69.5 248.5v418zM354 935q39 0 65 -23.5t26 -61.5q0 -37 -26 -61t-65 -24q-38 0 -64 24t-26 61t26 61t64 24zM354 893
q-18 0 -30.5 -12.5t-12.5 -30.5t12.5 -30t30.5 -12t30.5 12t12.5 30t-12.5 30.5t-30.5 12.5z" />
    <glyph glyph-name="uring" unicode="&#x16f;" horiz-adv-x="593" 
d="M393 0v71q-23 -41 -64.5 -62.5t-92.5 -21.5q-181 0 -181 211v340h138v-310q0 -63 17.5 -96.5t70.5 -33.5q63 0 87.5 43t24.5 117v280h138v-538h-138zM294 785q39 0 66.5 -25.5t27.5 -63.5t-27.5 -63.5t-66.5 -25.5q-40 0 -67.5 25t-27.5 64q0 38 27.5 63.5t67.5 25.5z
M294 737q-17 0 -29 -11.5t-12 -29.5q0 -17 12 -28.5t29 -11.5t29 11.5t12 28.5q0 18 -12 29.5t-29 11.5z" />
    <glyph glyph-name="Uhungarumlaut" unicode="&#x170;" horiz-adv-x="708" 
d="M54 725h143v-419q0 -105 32.5 -155t125.5 -50t124.5 49.5t31.5 155.5v419h143v-418q0 -177 -69 -248.5t-230 -71.5q-162 0 -231.5 71.5t-69.5 248.5v418zM475 886l-159 -113h-113l103 113h169zM665 886l-160 -113h-113l104 113h169z" />
    <glyph glyph-name="uhungarumlaut" unicode="&#x171;" horiz-adv-x="593" 
d="M393 0v71q-23 -41 -64.5 -62.5t-92.5 -21.5q-181 0 -181 211v340h138v-310q0 -63 17.5 -96.5t70.5 -33.5q63 0 87.5 43t24.5 117v280h138v-538h-138zM397 725l-150 -116h-102l95 116h157zM590 725l-149 -116h-102l94 116h157z" />
    <glyph glyph-name="Uogonek" unicode="&#x172;" horiz-adv-x="708" 
d="M371 -188q-60 0 -99 22.5t-39 69.5q0 48 53 86q-123 14 -177.5 87t-54.5 230v418h143v-419q0 -105 32.5 -155t125.5 -50t124.5 49.5t31.5 155.5v419h143v-418q0 -155 -50 -226t-166 -89q-35 -6 -60.5 -25.5t-25.5 -38.5q0 -34 45 -34q18 0 48 8v-82q-31 -8 -74 -8z" />
    <glyph glyph-name="uogonek" unicode="&#x173;" horiz-adv-x="593" 
d="M393 0v71q-23 -41 -64.5 -62.5t-92.5 -21.5q-181 0 -181 211v340h138v-310q0 -63 17.5 -96.5t70.5 -33.5q63 0 87.5 43t24.5 117v280h138v-538h-138zM393 0h138q-34 -17 -47.5 -24t-27 -20.5t-13.5 -28.5q0 -33 45 -33q20 0 43 6v-82q-23 -6 -69 -6q-60 0 -99 22.5
t-39 68.5q0 58 69 97z" />
    <glyph glyph-name="Wcircumflex" unicode="&#x174;" horiz-adv-x="890" 
d="M529 725l111 -531l99 531h146l-161 -725h-169l-110 540l-110 -540h-169l-161 725h148l108 -528l101 528h167zM501 875l137 -113h-131l-66 49l-69 -49h-130l140 113h119z" />
    <glyph glyph-name="wcircumflex" unicode="&#x175;" horiz-adv-x="734" 
d="M209 166l84 372h147l85 -371l72 371h137l-127 -538h-142l-98 408l-99 -408h-142l-126 538h137zM416 725l148 -116h-121l-76 44l-76 -44h-121l147 116h99z" />
    <glyph glyph-name="Ycircumflex" unicode="&#x176;" horiz-adv-x="650" 
d="M-11 725h167l169 -303l172 303h163l-267 -445v-280h-143v282zM385 875l137 -113h-131l-66 49l-69 -49h-130l140 113h119z" />
    <glyph glyph-name="ycircumflex" unicode="&#x177;" horiz-adv-x="538" 
d="M116 -175h-58v106h52q22 0 31 1t21.5 6t20.5 16.5t17 32.5l6 15l-206 536h151l122 -388l125 388h140l-197 -522q-48 -126 -86.5 -158.5t-138.5 -32.5zM318 725l148 -116h-121l-76 44l-76 -44h-121l147 116h99z" />
    <glyph glyph-name="Ydieresis" unicode="&#x178;" horiz-adv-x="650" 
d="M-11 725h167l169 -303l172 303h163l-267 -445v-280h-143v282zM147 886h115v-113h-115v113zM387 886h115v-113h-115v113z" />
    <glyph glyph-name="Zacute" unicode="&#x179;" horiz-adv-x="622" 
d="M587 725v-112l-390 -491h401v-122h-579v112l392 492h-361v121h537zM524 886l-159 -113h-113l103 113h169z" />
    <glyph glyph-name="zacute" unicode="&#x17a;" horiz-adv-x="498" 
d="M22 0v109l283 320h-267v109h432v-109l-283 -320h291v-109h-456zM451 725l-150 -116h-102l95 116h157z" />
    <glyph glyph-name="Zdotaccent" unicode="&#x17b;" horiz-adv-x="622" 
d="M587 725v-112l-390 -491h401v-122h-579v112l392 492h-361v121h537zM257 886h143v-113h-143v113z" />
    <glyph glyph-name="zdotaccent" unicode="&#x17c;" horiz-adv-x="498" 
d="M22 0v109l283 320h-267v109h432v-109l-283 -320h291v-109h-456zM203 725h115v-116h-115v116z" />
    <glyph glyph-name="Zcaron" unicode="&#x17d;" horiz-adv-x="622" 
d="M587 725v-112l-390 -491h401v-122h-579v112l392 492h-361v121h537zM267 773l-137 113h131l66 -50l69 50h130l-140 -113h-119z" />
    <glyph glyph-name="zcaron" unicode="&#x17e;" horiz-adv-x="498" 
d="M22 0v109l283 320h-267v109h432v-109l-283 -320h291v-109h-456zM220 609l-147 116h121l76 -44l76 44h121l-148 -116h-99z" />
    <glyph glyph-name="uni018F" unicode="&#x18f;" horiz-adv-x="780" 
d="M49 424h539q-6 92 -61 140.5t-139 48.5q-59 0 -108.5 -27.5t-66.5 -81.5h-153q31 106 122 164.5t208 58.5q162 0 256 -98t94 -269t-94 -272t-256 -101q-121 0 -204.5 60.5t-117 158.5t-19.5 218zM390 101q85 0 139 53t60 154h-392q2 -99 56.5 -153t136.5 -54z" />
    <glyph glyph-name="uni0218" unicode="&#x218;" horiz-adv-x="651" 
d="M350 301l-92 17q-217 45 -217 210q0 69 45.5 118.5t109 70.5t134.5 21q115 0 197 -62.5t88 -164.5h-138q-8 59 -51.5 86t-101.5 27q-57 0 -98.5 -22.5t-41.5 -67.5q0 -71 101 -90l95 -17q51 -10 89.5 -23t77.5 -37t60 -64t21 -94q0 -105 -87.5 -163.5t-206.5 -58.5
q-134 0 -216.5 67.5t-92.5 184.5h138q21 -138 176 -138q57 0 101 24t44 77q0 43 -35 65.5t-99 33.5zM275 -136v100h106v-106l-44 -89h-65l39 95h-36z" />
    <glyph glyph-name="uni0219" unicode="&#x219;" horiz-adv-x="529" 
d="M494 376h-129q-9 35 -38.5 56t-76.5 21q-39 0 -63 -14t-24 -38q0 -46 72 -62l72 -16q48 -11 77.5 -20.5t60.5 -27.5t45.5 -46t14.5 -68q0 -78 -68.5 -126t-164.5 -48q-101 0 -168 50.5t-77 140.5h133q6 -41 35 -66t81 -25q45 0 71 16t26 45q0 27 -23 41.5t-65 24.5
l-80 17q-82 17 -125 54t-43 107t65 115t155 45q91 0 157.5 -44t79.5 -132zM215 -136v100h106v-106l-44 -89h-65l39 95h-36z" />
    <glyph glyph-name="uni021A" unicode="&#x21a;" horiz-adv-x="600" 
d="M228 0v609h-223v116h590v-116h-224v-609h-143zM249 -136v100h106v-106l-44 -89h-65l39 95h-36z" />
    <glyph glyph-name="uni021B" unicode="&#x21b;" horiz-adv-x="357" 
d="M81 538v146h138v-146h112v-95h-112v-278q0 -40 15 -53t53 -13h42v-99h-101q-90 0 -118.5 30.5t-28.5 114.5v298h-76v95h76zM117 -136v100h106v-106l-44 -89h-65l39 95h-36z" />
    <glyph glyph-name="uni0232" unicode="&#x232;" horiz-adv-x="650" 
d="M-11 725h167l169 -303l172 303h163l-267 -445v-280h-143v282zM481 782h-313v95h313v-95z" />
    <glyph glyph-name="uni0233" unicode="&#x233;" horiz-adv-x="538" 
d="M116 -175h-58v106h52q22 0 31 1t21.5 6t20.5 16.5t17 32.5l6 15l-206 536h151l122 -388l125 388h140l-197 -522q-48 -126 -86.5 -158.5t-138.5 -32.5zM426 622h-313v95h313v-95z" />
    <glyph glyph-name="uni0237" unicode="&#x237;" horiz-adv-x="262" 
d="M62 6v532h138v-534q0 -110 -35 -144.5t-139 -34.5h-36v103h18q37 0 45.5 15t8.5 63z" />
    <glyph glyph-name="uni0259" unicode="&#x259;" horiz-adv-x="588" 
d="M27 306h397q-6 66 -44.5 101.5t-91.5 35.5q-76 0 -113 -62h-142q25 70 89 119.5t165 49.5q126 0 200 -81.5t74 -202.5t-75.5 -200t-194.5 -79q-124 0 -196 88t-68 231zM292 88q46 0 84 30t46 93h-255q2 -63 38.5 -93t86.5 -30z" />
    <glyph glyph-name="circumflex" unicode="&#x2c6;" horiz-adv-x="438" 
d="M268 725l148 -116h-121l-76 44l-76 -44h-121l147 116h99z" />
    <glyph glyph-name="caron" unicode="&#x2c7;" horiz-adv-x="438" 
d="M169 609l-147 116h121l76 -44l76 44h121l-148 -116h-99z" />
    <glyph glyph-name="breve" unicode="&#x2d8;" horiz-adv-x="383" 
d="M264 725h97q-14 -124 -171 -124q-80 0 -122 34t-46 90h97q7 -52 72 -52q67 0 73 52z" />
    <glyph glyph-name="dotaccent" unicode="&#x2d9;" horiz-adv-x="159" 
d="M22 725h115v-116h-115v116z" />
    <glyph glyph-name="ring" unicode="&#x2da;" horiz-adv-x="233" 
d="M117 785q39 0 66.5 -25.5t27.5 -63.5t-27.5 -63.5t-66.5 -25.5q-40 0 -67.5 25t-27.5 64q0 38 27.5 63.5t67.5 25.5zM117 737q-17 0 -29 -11.5t-12 -29.5q0 -17 12 -28.5t29 -11.5t29 11.5t12 28.5q0 18 -12 29.5t-29 11.5z" />
    <glyph glyph-name="ogonek" unicode="&#x2db;" horiz-adv-x="264" 
d="M91 0h138q-34 -17 -47.5 -24t-27 -20.5t-13.5 -28.5q0 -33 45 -33q20 0 43 6v-82q-23 -6 -69 -6q-60 0 -99 22.5t-39 68.5q0 58 69 97z" />
    <glyph glyph-name="tilde" unicode="&#x2dc;" horiz-adv-x="452" 
d="M285 692q42 0 50 44h95q-20 -127 -133 -127q-34 0 -74 22t-57 22q-41 0 -49 -44h-95q21 127 133 127q34 0 71.5 -22t58.5 -22z" />
    <glyph glyph-name="hungarumlaut" unicode="&#x2dd;" horiz-adv-x="489" 
d="M274 725l-150 -116h-102l95 116h157zM467 725l-149 -116h-102l94 116h157z" />
    <glyph glyph-name="uni0326" unicode="&#x326;" horiz-adv-x="153" 
d="M25 -136v100h106v-106l-44 -89h-65l39 95h-36z" />
    <glyph glyph-name="uni032C" unicode="&#x32c;" horiz-adv-x="440" 
d="M180 -138l-158 138h121l76 -52l80 52h119l-161 -138h-77z" />
    <glyph glyph-name="uni0394" unicode="&#x394;" horiz-adv-x="693" 
d="M0 0l346 738l347 -738h-693zM516 114l-170 358l-170 -358h340z" />
    <glyph glyph-name="uni0394" unicode="&#x2206;" horiz-adv-x="693" 
d="M0 0l346 738l347 -738h-693zM516 114l-170 358l-170 -358h340z" />
    <glyph glyph-name="uni03A9" unicode="&#x3a9;" horiz-adv-x="795" 
d="M398 738q145 0 249.5 -84t104.5 -227q0 -93 -52.5 -165.5t-138.5 -105.5v-35h191v-121h-316v228q82 12 133 68.5t51 130.5q0 89 -60.5 147.5t-161.5 58.5q-102 0 -162.5 -58.5t-60.5 -147.5q0 -74 51 -130.5t133 -68.5v-228h-315v121h191v35q-87 33 -139.5 105.5
t-52.5 165.5q0 143 104.5 227t250.5 84z" />
    <glyph glyph-name="uni03A9" unicode="&#x2126;" horiz-adv-x="795" 
d="M398 738q145 0 249.5 -84t104.5 -227q0 -93 -52.5 -165.5t-138.5 -105.5v-35h191v-121h-316v228q82 12 133 68.5t51 130.5q0 89 -60.5 147.5t-161.5 58.5q-102 0 -162.5 -58.5t-60.5 -147.5q0 -74 51 -130.5t133 -68.5v-228h-315v121h191v35q-87 33 -139.5 105.5
t-52.5 165.5q0 143 104.5 227t250.5 84z" />
    <glyph glyph-name="pi" unicode="&#x3c0;" horiz-adv-x="676" 
d="M242 0h-125v417h-85v121h610v-121h-85v-244q0 -41 7.5 -52t41.5 -11h37v-110h-54q-92 0 -124.5 31t-32.5 129v257h-190v-417z" />
    <glyph glyph-name="uni0401" unicode="&#x401;" horiz-adv-x="654" 
d="M77 0v725h528v-116h-385v-180h364v-116h-364v-197h385v-116h-528zM181 886h115v-113h-115v113zM421 886h115v-113h-115v113z" />
    <glyph glyph-name="uni0402" unicode="&#x402;" horiz-adv-x="799" 
d="M519 -10q-45 0 -94 11l13 115q37 -8 70 -8q99 0 99 116q0 57 -26 83.5t-84 26.5q-63 0 -140 -24v-310h-143v609h-209v116h602v-116h-250v-186q102 24 175 24q110 0 166 -57t56 -163q0 -64 -19.5 -111.5t-53.5 -74t-74.5 -39t-87.5 -12.5z" />
    <glyph glyph-name="uni0403" unicode="&#x403;" horiz-adv-x="578" 
d="M502 886l-159 -113h-113l103 113h169zM220 0h-143v725h508v-116h-365v-609z" />
    <glyph glyph-name="uni0404" unicode="&#x404;" horiz-adv-x="755" 
d="M389 -13q-165 0 -259 102t-94 274q0 171 96 272.5t262 101.5q130 0 218 -74.5t109 -196.5h-140q-17 78 -68.5 116.5t-123.5 38.5q-82 0 -136.5 -52t-66.5 -145h300v-116h-301q10 -96 66 -150.5t139 -54.5q73 0 126.5 37t68.5 118h140q-20 -123 -111.5 -197t-224.5 -74z
" />
    <glyph glyph-name="uni0405" unicode="&#x405;" horiz-adv-x="651" 
d="M350 301l-92 17q-217 45 -217 210q0 69 45.5 118.5t109 70.5t134.5 21q115 0 197 -62.5t88 -164.5h-138q-8 59 -51.5 86t-101.5 27q-57 0 -98.5 -22.5t-41.5 -67.5q0 -71 101 -90l95 -17q51 -10 89.5 -23t77.5 -37t60 -64t21 -94q0 -105 -87.5 -163.5t-206.5 -58.5
q-134 0 -216.5 67.5t-92.5 184.5h138q21 -138 176 -138q57 0 101 24t44 77q0 43 -35 65.5t-99 33.5z" />
    <glyph glyph-name="uni0406" unicode="&#x406;" horiz-adv-x="297" 
d="M220 725v-725h-143v725h143z" />
    <glyph glyph-name="uni0407" unicode="&#x407;" horiz-adv-x="297" 
d="M-28 886h115v-113h-115v113zM212 886h115v-113h-115v113zM220 725v-725h-143v725h143z" />
    <glyph glyph-name="uni0408" unicode="&#x408;" horiz-adv-x="586" 
d="M261 -13q-117 0 -182.5 68.5t-67.5 181.5h143q2 -71 29 -102t78 -31q106 0 106 133v488h143v-488q0 -116 -65.5 -183t-183.5 -67z" />
    <glyph glyph-name="uni0409" unicode="&#x409;" horiz-adv-x="1053" 
d="M66 0h-41v116h18q23 0 40.5 11t29 36t19 52t12.5 73t7.5 85t4.5 101l8 251h474v-252h75q74 0 128.5 -10.5t99.5 -35.5t68.5 -73t23.5 -118q0 -69 -23.5 -116.5t-68.5 -73t-99.5 -36t-128.5 -10.5h-218v609h-194l-7 -186q-14 -423 -228 -423zM638 357v-241h79
q80 0 125.5 25.5t45.5 94.5q0 70 -45 95.5t-126 25.5h-79z" />
    <glyph glyph-name="uni040A" unicode="&#x40a;" horiz-adv-x="1112" 
d="M220 0h-143v725h143v-293h317v293h143v-276h94q152 0 235 -50t83 -176q0 -124 -83 -173.5t-235 -49.5h-237v316h-317v-316zM680 333v-217h98q80 0 124.5 23.5t44.5 83.5q0 63 -44.5 86.5t-124.5 23.5h-98z" />
    <glyph glyph-name="uni040B" unicode="&#x40b;" horiz-adv-x="799" 
d="M357 0h-143v609h-209v116h602v-116h-250v-189q103 27 175 27q116 0 169 -55t53 -169v-223h-143v177q0 88 -26.5 122t-98.5 34q-60 0 -129 -19v-314z" />
    </font>
</defs>
</svg>
