<svg width="40" height="40" viewBox="0 0 40 40" fill="none" xmlns="http://www.w3.org/2000/svg">
<g id="add_box">
<mask id="mask0_101_20727" style="mask-type:alpha" maskUnits="userSpaceOnUse" x="0" y="0" width="40" height="40">
<rect id="Bounding box" width="40" height="40" fill="#D9D9D9"/>
</mask>
<g mask="url(#mask0_101_20727)">
<path id="add_box_2" d="M20.0047 27.9166C20.3033 27.9166 20.5516 27.8164 20.7496 27.616C20.9476 27.4156 21.0466 27.1668 21.0466 26.8697V21.047H26.8693C27.1665 21.047 27.4153 20.9463 27.6157 20.7449C27.8161 20.5436 27.9163 20.2936 27.9163 19.995C27.9163 19.6963 27.8161 19.448 27.6157 19.25C27.4153 19.052 27.1665 18.953 26.8693 18.953H21.0466V13.1303C21.0466 12.8332 20.9459 12.5844 20.7445 12.384C20.5432 12.1836 20.2932 12.0834 19.9946 12.0834C19.696 12.0834 19.4477 12.1836 19.2497 12.384C19.0517 12.5844 18.9527 12.8332 18.9527 13.1303V18.953H13.13C12.8328 18.953 12.584 19.0537 12.3836 19.2551C12.1832 19.4564 12.083 19.7064 12.083 20.005C12.083 20.3037 12.1832 20.552 12.3836 20.75C12.584 20.948 12.8328 21.047 13.13 21.047H18.9527V26.8697C18.9527 27.1668 19.0534 27.4156 19.2547 27.616C19.4561 27.8164 19.7061 27.9166 20.0047 27.9166ZM8.43984 34.1666C7.72351 34.1666 7.10995 33.9112 6.59917 33.4005C6.0884 32.8897 5.83301 32.2761 5.83301 31.5598V8.44021C5.83301 7.72387 6.0884 7.11032 6.59917 6.59954C7.10995 6.08876 7.72351 5.83337 8.43984 5.83337H31.5594C32.2758 5.83337 32.8893 6.08876 33.4001 6.59954C33.9109 7.11032 34.1663 7.72387 34.1663 8.44021V31.5598C34.1663 32.2761 33.9109 32.8897 33.4001 33.4005C32.8893 33.9112 32.2758 34.1666 31.5594 34.1666H8.43984ZM8.43984 32.0727H31.5594C31.709 32.0727 31.8319 32.0246 31.9281 31.9284C32.0242 31.8323 32.0723 31.7094 32.0723 31.5598V8.44021C32.0723 8.29062 32.0242 8.16775 31.9281 8.07158C31.8319 7.97541 31.709 7.92733 31.5594 7.92733H8.43984C8.29026 7.92733 8.16738 7.97541 8.07122 8.07158C7.97505 8.16775 7.92697 8.29062 7.92697 8.44021V31.5598C7.92697 31.7094 7.97505 31.8323 8.07122 31.9284C8.16738 32.0246 8.29026 32.0727 8.43984 32.0727Z" fill="#40444D"/>
</g>
</g>
</svg>
