<svg width="24" height="24" viewBox="0 0 24 24" fill="none" xmlns="http://www.w3.org/2000/svg">
<g id="Field Icons">
<path id="Vector" d="M19 11L5 2V20L19 11Z" stroke="currentColor" stroke-width="2" stroke-linecap="round" stroke-linejoin="round"/>
<path id="auto_awesome" d="M18 22.5C17.8654 22.5 17.7364 22.4629 17.6129 22.3888C17.4894 22.3147 17.3961 22.2104 17.333 22.0758L16.2656 19.7344L13.9241 18.6669C13.7896 18.6039 13.6853 18.5106 13.6112 18.3871C13.5371 18.2636 13.5 18.1345 13.5 18C13.5 17.8654 13.5371 17.7364 13.6112 17.6129C13.6853 17.4894 13.7896 17.3961 13.9241 17.333L16.2656 16.2656L17.333 13.9241C17.3961 13.7896 17.4894 13.6853 17.6129 13.6112C17.7364 13.5371 17.8654 13.5 18 13.5C18.1345 13.5 18.2636 13.5371 18.3871 13.6112C18.5106 13.6853 18.6039 13.7896 18.6669 13.9241L19.7344 16.2656L22.0758 17.333C22.2104 17.3961 22.3147 17.4894 22.3888 17.6129C22.4629 17.7364 22.5 17.8654 22.5 18C22.5 18.1345 22.4629 18.2636 22.3888 18.3871C22.3147 18.5106 22.2104 18.6039 22.0758 18.6669L19.7344 19.7344L18.6669 22.0758C18.6039 22.2104 18.5106 22.3147 18.3871 22.3888C18.2636 22.4629 18.1345 22.5 18 22.5Z" fill="#7D26CD"/>
</g>
</svg>
