<svg xmlns="http://www.w3.org/2000/svg" width="28" height="32" viewBox="0 0 28 32" fill="none">
  <path d="M26.1914 10.9109C26.0394 11.0046 22.6963 12.951 22.7343 17.0001C22.7763 21.8434 26.98 23.4562 27.0283 23.4745C26.9907 23.5898 26.3562 25.7717 24.8124 28.025C23.4783 29.9771 22.0963 31.9181 19.9149 31.9586C17.7719 31.9979 17.0812 30.6871 14.6331 30.6871C12.1834 30.6871 11.4167 31.9181 9.39012 31.9979C7.2847 32.0775 5.68177 29.8899 4.33777 27.9485C1.59026 23.9755 -0.510428 16.7204 2.3103 11.8243C3.71067 9.39274 6.21367 7.85225 8.92948 7.81246C10.9978 7.77337 12.9483 9.20289 14.2135 9.20289C15.4605 9.20289 17.6956 7.53647 20.3301 7.73137C21.3626 7.80789 24.2937 8.11606 26.1914 10.9109ZM18.7045 5.10862C19.8234 3.75637 20.5762 1.87313 20.3689 0C18.7585 0.0638623 16.8109 1.07268 15.6558 2.42407C14.6215 3.62119 13.7131 5.53851 13.9597 7.37342C15.7546 7.51211 17.5865 6.46171 18.7045 5.10862Z" fill="currentColor"/>
</svg>