<svg xmlns="http://www.w3.org/2000/svg" width="32" height="30" viewBox="0 0 32 30" fill="none">
  <g clip-path="url(#clip0_881_27774)">
    <path d="M25.0406 15.8463C21.197 15.8463 18.0812 18.9622 18.0812 22.8059C18.0812 26.6496 21.197 29.7655 25.0406 29.7655C28.8842 29.7655 32 26.6496 32 22.8059C32 18.9622 28.8842 15.8463 25.0406 15.8463ZM6.95943 15.8469C3.11588 15.8469 0 18.9622 0 22.8059C0 26.6496 3.11588 29.7655 6.95943 29.7655C10.8031 29.7655 13.9192 26.6496 13.9192 22.8059C13.9192 18.9622 10.8031 15.8469 6.95943 15.8469ZM22.9593 7.14678C22.9593 10.9906 19.8435 14.1068 16.0001 14.1068C12.1563 14.1068 9.04059 10.9906 9.04059 7.14678C9.04059 3.30368 12.1563 0.1875 16.0001 0.1875C19.8435 0.1875 22.9593 3.30368 22.9593 7.14678Z" fill="#F06A6A"/>
  </g>
  <defs>
    <clipPath id="clip0_881_27774">
      <rect width="32" height="29.625" fill="white" transform="translate(0 0.1875)"/>
    </clipPath>
  </defs>
</svg>