<svg width="16" height="16" viewBox="0 0 16 16" fill="none" xmlns="http://www.w3.org/2000/svg">
<g id="at-sign" clip-path="url(#clip0_439_24587)">
<path id="Vector" d="M7.99992 10.6666C9.47268 10.6666 10.6666 9.47268 10.6666 7.99992C10.6666 6.52716 9.47268 5.33325 7.99992 5.33325C6.52716 5.33325 5.33325 6.52716 5.33325 7.99992C5.33325 9.47268 6.52716 10.6666 7.99992 10.6666Z" stroke="currentColor" stroke-width="1.33333" stroke-linecap="round" stroke-linejoin="round"/>
<path id="Vector_2" d="M10.6666 5.33333V8.66666C10.6666 9.19709 10.8773 9.7058 11.2524 10.0809C11.6275 10.4559 12.1362 10.6667 12.6666 10.6667C13.197 10.6667 13.7057 10.4559 14.0808 10.0809C14.4559 9.7058 14.6666 9.19709 14.6666 8.66666V7.99999C14.6665 6.49535 14.1574 5.03498 13.2221 3.85635C12.2868 2.67772 10.9803 1.85014 9.51502 1.50819C8.04974 1.16624 6.51188 1.33002 5.15149 1.9729C3.7911 2.61579 2.68819 3.69996 2.0221 5.04914C1.356 6.39832 1.1659 7.93315 1.4827 9.40407C1.7995 10.875 2.60458 12.1955 3.76701 13.1508C4.92945 14.1062 6.38088 14.6402 7.8853 14.6661C9.38973 14.692 10.8587 14.2082 12.0533 13.2933" stroke="currentColor" stroke-width="1.33333" stroke-linecap="round" stroke-linejoin="round"/>
</g>
<defs>
<clipPath id="clip0_439_24587">
<rect width="16" height="16" fill="white"/>
</clipPath>
</defs>
</svg>
