<svg xmlns="http://www.w3.org/2000/svg" width="24" height="24" viewBox="0 0 24 24" fill="none">
  <path d="M18.4998 7.93377C18.4165 7.93377 18.3338 7.91197 18.2517 7.86837C18.1697 7.82479 18.112 7.75619 18.0786 7.66259L17.4421 6.24917L16.0287 5.61264C15.9351 5.57931 15.8665 5.52162 15.8229 5.43957C15.7793 5.35752 15.7575 5.27483 15.7575 5.19149C15.7575 5.10816 15.7793 5.02547 15.8229 4.94342C15.8665 4.86137 15.9351 4.80368 16.0287 4.77034L17.4421 4.13382L18.0786 2.72037C18.112 2.62679 18.1697 2.5582 18.2517 2.51462C18.3338 2.47102 18.4165 2.44922 18.4998 2.44922C18.5831 2.44922 18.6658 2.47102 18.7479 2.51462C18.8299 2.5582 18.8876 2.62679 18.921 2.72037L19.5575 4.13382L20.9709 4.77034C21.0645 4.80368 21.1331 4.86137 21.1767 4.94342C21.2203 5.02547 21.2421 5.10816 21.2421 5.19149C21.2421 5.27483 21.2203 5.35752 21.1767 5.43957C21.1331 5.52162 21.0645 5.57931 20.9709 5.61264L19.5575 6.24917L18.921 7.66259C18.8876 7.75619 18.8299 7.82479 18.7479 7.86837C18.6658 7.91197 18.5831 7.93377 18.4998 7.93377ZM18.4998 21.5491C18.4165 21.5491 18.3338 21.5273 18.2517 21.4837C18.1697 21.4401 18.112 21.3715 18.0786 21.278L17.4421 19.8645L16.0287 19.228C15.9351 19.1947 15.8665 19.137 15.8229 19.0549C15.7793 18.9729 15.7575 18.8902 15.7575 18.8068C15.7575 18.7235 15.7793 18.6408 15.8229 18.5588C15.8665 18.4767 15.9351 18.419 16.0287 18.3857L17.4421 17.7492L18.0786 16.3357C18.112 16.2421 18.1697 16.1736 18.2517 16.13C18.3338 16.0864 18.4165 16.0646 18.4998 16.0646C18.5831 16.0646 18.6658 16.0864 18.7479 16.13C18.8299 16.1736 18.8876 16.2421 18.921 16.3357L19.5575 17.7492L20.9709 18.3857C21.0645 18.419 21.1331 18.4767 21.1767 18.5588C21.2203 18.6408 21.2421 18.7235 21.2421 18.8068C21.2421 18.8902 21.2203 18.9729 21.1767 19.0549C21.1331 19.137 21.0645 19.1947 20.9709 19.228L19.5575 19.8645L18.921 21.278C18.8876 21.3715 18.8299 21.4401 18.7479 21.4837C18.6658 21.5273 18.5831 21.5491 18.4998 21.5491ZM8.88443 17.4875C8.72033 17.4875 8.56297 17.4424 8.41233 17.352C8.26168 17.2616 8.1479 17.1343 8.07098 16.9702L6.76908 14.1145L3.91336 12.8126C3.74926 12.7357 3.62202 12.6219 3.53163 12.4713C3.44125 12.3206 3.39606 12.1633 3.39606 11.9992C3.39606 11.8351 3.44125 11.6777 3.53163 11.5271C3.62202 11.3764 3.74926 11.2626 3.91336 11.1857L6.76908 9.88382L8.07098 7.02809C8.1479 6.86399 8.26168 6.73675 8.41233 6.64637C8.56297 6.55598 8.72033 6.51079 8.88443 6.51079C9.04853 6.51079 9.20591 6.55598 9.35656 6.64637C9.50719 6.73675 9.62097 6.86399 9.69788 7.02809L10.9998 9.88382L13.8555 11.1857C14.0196 11.2626 14.1469 11.3764 14.2373 11.5271C14.3276 11.6777 14.3728 11.8351 14.3728 11.9992C14.3728 12.1633 14.3276 12.3206 14.2373 12.4713C14.1469 12.6219 14.0196 12.7357 13.8555 12.8126L10.9998 14.1145L9.69788 16.9702C9.62097 17.1343 9.50719 17.2616 9.35656 17.352C9.20591 17.4424 9.04853 17.4875 8.88443 17.4875Z" fill="currentColor"/>
</svg>