<svg xmlns="http://www.w3.org/2000/svg" width="17" height="16" viewBox="0 0 17 16" fill="none">
  <path d="M12.8333 5.29016C12.7778 5.29016 12.7226 5.27562 12.6679 5.24656C12.6132 5.2175 12.5748 5.17177 12.5525 5.10937L12.1282 4.16709L11.1859 3.74274C11.1235 3.72052 11.0778 3.68206 11.0487 3.62736C11.0197 3.57266 11.0051 3.51753 11.0051 3.46197C11.0051 3.40642 11.0197 3.35129 11.0487 3.29659C11.0778 3.24189 11.1235 3.20343 11.1859 3.18121L12.1282 2.75686L12.5525 1.81456C12.5748 1.75217 12.6132 1.70644 12.6679 1.67739C12.7226 1.64832 12.7778 1.63379 12.8333 1.63379C12.8889 1.63379 12.944 1.64832 12.9987 1.67739C13.0534 1.70644 13.0919 1.75217 13.1141 1.81456L13.5384 2.75686L14.4807 3.18121C14.5431 3.20343 14.5888 3.24189 14.6179 3.29659C14.647 3.35129 14.6615 3.40642 14.6615 3.46197C14.6615 3.51753 14.647 3.57266 14.6179 3.62736C14.5888 3.68206 14.5431 3.72052 14.4807 3.74274L13.5384 4.16709L13.1141 5.10937C13.0919 5.17177 13.0534 5.2175 12.9987 5.24656C12.944 5.27562 12.8889 5.29016 12.8333 5.29016ZM12.8333 14.3671C12.7778 14.3671 12.7226 14.3525 12.6679 14.3235C12.6132 14.2944 12.5748 14.2487 12.5525 14.1863L12.1282 13.244L11.1859 12.8196C11.1235 12.7974 11.0778 12.759 11.0487 12.7043C11.0197 12.6496 11.0051 12.5944 11.0051 12.5389C11.0051 12.4833 11.0197 12.4282 11.0487 12.3735C11.0778 12.3188 11.1235 12.2803 11.1859 12.2581L12.1282 11.8338L12.5525 10.8915C12.5748 10.8291 12.6132 10.7833 12.6679 10.7543C12.7226 10.7252 12.7778 10.7107 12.8333 10.7107C12.8889 10.7107 12.944 10.7252 12.9987 10.7543C13.0534 10.7833 13.0919 10.8291 13.1141 10.8915L13.5384 11.8338L14.4807 12.2581C14.5431 12.2803 14.5888 12.3188 14.6179 12.3735C14.647 12.4282 14.6615 12.4833 14.6615 12.5389C14.6615 12.5944 14.647 12.6496 14.6179 12.7043C14.5888 12.759 14.5431 12.7974 14.4807 12.8196L13.5384 13.244L13.1141 14.1863C13.0919 14.2487 13.0534 14.2944 12.9987 14.3235C12.944 14.3525 12.8889 14.3671 12.8333 14.3671ZM6.42308 11.6593C6.31368 11.6593 6.20877 11.6292 6.10834 11.569C6.00791 11.5087 5.93205 11.4239 5.88078 11.3145L5.01284 9.41066L3.10903 8.54272C2.99963 8.49144 2.9148 8.41559 2.85454 8.31516C2.79429 8.21473 2.76416 8.10982 2.76416 8.00042C2.76416 7.89102 2.79429 7.78611 2.85454 7.68569C2.9148 7.58526 2.99963 7.5094 3.10903 7.45812L5.01284 6.59019L5.88078 4.68637C5.93205 4.57697 6.00791 4.49214 6.10834 4.43189C6.20877 4.37163 6.31368 4.34151 6.42308 4.34151C6.53248 4.34151 6.63739 4.37163 6.73783 4.43189C6.83825 4.49214 6.9141 4.57697 6.96538 4.68637L7.83333 6.59019L9.73713 7.45812C9.84653 7.5094 9.93136 7.58526 9.99163 7.68569C10.0519 7.78611 10.082 7.89102 10.082 8.00042C10.082 8.10982 10.0519 8.21473 9.99163 8.31516C9.93136 8.41559 9.84653 8.49144 9.73713 8.54272L7.83333 9.41066L6.96538 11.3145C6.9141 11.4239 6.83825 11.5087 6.73783 11.569C6.63739 11.6292 6.53248 11.6593 6.42308 11.6593Z" fill="currentColor"/>
</svg>