<svg width="20" height="20" viewBox="0 0 20 20" fill="none" xmlns="http://www.w3.org/2000/svg">
<g id="aws logo">
<g id="Group">
<path id="Vector" d="M5.65527 8.36784C5.65527 8.61287 5.68176 8.81155 5.72811 8.95724C5.78109 9.10294 5.84732 9.26188 5.94003 9.43406C5.97315 9.48704 5.98639 9.54002 5.98639 9.58638C5.98639 9.65261 5.94666 9.71883 5.86056 9.78506L5.44335 10.0632C5.38374 10.1029 5.32414 10.1228 5.27116 10.1228C5.20494 10.1228 5.13871 10.0897 5.07249 10.0301C4.97977 9.93075 4.9003 9.82479 4.83407 9.71883C4.76785 9.60625 4.70162 9.48042 4.62878 9.3281C4.11222 9.93738 3.46321 10.242 2.68176 10.242C2.12547 10.242 1.68176 10.0831 1.35725 9.76519C1.03275 9.44731 0.867188 9.02347 0.867188 8.49367C0.867188 7.93075 1.06586 7.4738 1.46984 7.12943C1.87381 6.78506 2.41023 6.61287 3.09235 6.61287C3.31752 6.61287 3.54931 6.63274 3.79434 6.66585C4.03937 6.69896 4.29103 6.75194 4.55593 6.81155V6.3281C4.55593 5.82479 4.44997 5.4738 4.24467 5.2685C4.03275 5.0632 3.67513 4.96386 3.1652 4.96386C2.93341 4.96386 2.695 4.99035 2.44997 5.04996C2.20494 5.10956 1.96653 5.18241 1.73474 5.27512C1.62878 5.32148 1.54931 5.34797 1.50295 5.36122C1.45659 5.37446 1.42348 5.38108 1.39699 5.38108C1.30427 5.38108 1.25792 5.31486 1.25792 5.17579V4.85128C1.25792 4.74532 1.27116 4.66585 1.30427 4.61949C1.33739 4.57314 1.39699 4.52678 1.4897 4.48042C1.72149 4.36122 1.99964 4.26188 2.32414 4.18241C2.64864 4.09632 2.99302 4.05658 3.35725 4.05658C4.14533 4.05658 4.72149 4.23539 5.09235 4.593C5.45659 4.95062 5.64202 5.49367 5.64202 6.22214V8.36784H5.65527ZM2.96653 9.37446C3.18507 9.37446 3.41023 9.33473 3.64864 9.25526C3.88705 9.17579 4.09898 9.03009 4.27778 8.83142C4.38374 8.70559 4.46321 8.56651 4.50295 8.40757C4.54268 8.24863 4.56917 8.05658 4.56917 7.83141V7.55327C4.37712 7.50691 4.17182 7.46718 3.9599 7.44069C3.74798 7.4142 3.54268 7.40095 3.33739 7.40095C2.89368 7.40095 2.56917 7.48704 2.35063 7.66585C2.13209 7.84466 2.02613 8.09632 2.02613 8.42744C2.02613 8.7387 2.1056 8.97049 2.27116 9.12943C2.4301 9.29499 2.66189 9.37446 2.96653 9.37446ZM8.28441 10.0897C8.1652 10.0897 8.08573 10.0698 8.03275 10.0235C7.97977 9.98373 7.93341 9.89102 7.89368 9.76519L6.33739 4.64598C6.29765 4.51353 6.27778 4.42744 6.27778 4.38108C6.27778 4.27512 6.33076 4.21552 6.43672 4.21552H7.08573C7.21156 4.21552 7.29765 4.23539 7.34401 4.28175C7.39699 4.32148 7.43672 4.4142 7.47646 4.54002L8.58904 8.92413L9.62215 4.54002C9.65527 4.40757 9.695 4.32148 9.74798 4.28175C9.80096 4.24201 9.89368 4.21552 10.0129 4.21552H10.5427C10.6685 4.21552 10.7546 4.23539 10.8076 4.28175C10.8606 4.32148 10.9069 4.4142 10.9334 4.54002L11.9798 8.97711L13.1255 4.54002C13.1652 4.40757 13.2116 4.32148 13.2579 4.28175C13.3109 4.24201 13.397 4.21552 13.5162 4.21552H14.1321C14.238 4.21552 14.2977 4.2685 14.2977 4.38108C14.2977 4.4142 14.291 4.44731 14.2844 4.48704C14.2778 4.52678 14.2645 4.57976 14.238 4.65261L12.642 9.77181C12.6023 9.90426 12.5559 9.99036 12.5029 10.0301C12.45 10.0698 12.3639 10.0963 12.2513 10.0963H11.6818C11.5559 10.0963 11.4698 10.0764 11.4169 10.0301C11.3639 9.98373 11.3175 9.89764 11.291 9.76519L10.2645 5.49367L9.24467 9.75857C9.21156 9.89102 9.17182 9.97711 9.11884 10.0235C9.06586 10.0698 8.97315 10.0897 8.85394 10.0897H8.28441ZM16.7943 10.2685C16.45 10.2685 16.1056 10.2288 15.7745 10.1493C15.4433 10.0698 15.1851 9.98373 15.0129 9.8844C14.9069 9.82479 14.8341 9.75857 14.8076 9.69896C14.7811 9.63936 14.7678 9.57314 14.7678 9.51353V9.17579C14.7678 9.03671 14.8208 8.97049 14.9202 8.97049C14.9599 8.97049 14.9996 8.97711 15.0394 8.99036C15.0791 9.0036 15.1387 9.03009 15.2049 9.05658C15.4301 9.15592 15.6751 9.23539 15.9334 9.28837C16.1983 9.34135 16.4566 9.36784 16.7215 9.36784C17.1387 9.36784 17.4632 9.29499 17.6884 9.1493C17.9135 9.0036 18.0327 8.79168 18.0327 8.52016C18.0327 8.33473 17.9731 8.18241 17.8539 8.05658C17.7347 7.93075 17.5096 7.81817 17.1851 7.71221L16.2248 7.4142C15.7414 7.26188 15.3837 7.03671 15.1652 6.7387C14.9467 6.44731 14.8341 6.12281 14.8341 5.77843C14.8341 5.50029 14.8937 5.25526 15.0129 5.04333C15.1321 4.83141 15.291 4.64598 15.4897 4.50029C15.6884 4.34797 15.9135 4.23539 16.1784 4.15592C16.4433 4.07645 16.7215 4.04333 17.0129 4.04333C17.1586 4.04333 17.3109 4.04996 17.4566 4.06983C17.6089 4.08969 17.748 4.11618 17.8871 4.14267C18.0195 4.17579 18.1453 4.2089 18.2645 4.24863C18.3837 4.28837 18.4765 4.3281 18.5427 4.36784C18.6354 4.42082 18.7016 4.4738 18.7414 4.5334C18.7811 4.58638 18.801 4.65923 18.801 4.75194V5.0632C18.801 5.20228 18.748 5.27512 18.6486 5.27512C18.5957 5.27512 18.5096 5.24863 18.397 5.19565C18.0195 5.02347 17.5957 4.93737 17.1255 4.93737C16.748 4.93737 16.45 4.99698 16.2447 5.12281C16.0394 5.24863 15.9334 5.44069 15.9334 5.71221C15.9334 5.89764 15.9996 6.05658 16.1321 6.18241C16.2645 6.30824 16.5096 6.43406 16.8606 6.54665L17.801 6.84466C18.2778 6.99698 18.6222 7.2089 18.8274 7.48042C19.0327 7.75194 19.1321 8.0632 19.1321 8.40757C19.1321 8.69234 19.0725 8.95062 18.9599 9.17579C18.8407 9.40095 18.6818 9.59963 18.4765 9.75857C18.2712 9.92413 18.0261 10.0433 17.7414 10.1294C17.4433 10.2221 17.1321 10.2685 16.7943 10.2685Z" fill="#252F3E"/>
<g id="Group_2">
<path id="Vector_2" d="M18.0461 13.4866C15.8673 15.0959 12.7017 15.9502 9.97984 15.9502C6.16527 15.9502 2.72818 14.5396 0.132158 12.1952C-0.0731396 12.0098 0.112291 11.7581 0.357324 11.9038C3.16527 13.5329 6.62885 14.5197 10.2116 14.5197C12.6288 14.5197 15.2845 14.0164 17.7282 12.9833C18.0924 12.8177 18.4037 13.2217 18.0461 13.4866Z" fill="#FF9900"/>
<path id="Vector_3" d="M18.953 12.4533C18.6749 12.0957 17.1119 12.2811 16.4033 12.3672C16.1914 12.3937 16.1583 12.2082 16.3503 12.0692C17.5954 11.195 19.6417 11.4466 19.8801 11.738C20.1186 12.0361 19.8139 14.0824 18.6484 15.0625C18.4696 15.2149 18.2974 15.1354 18.3768 14.9367C18.6417 14.2811 19.2311 12.8043 18.953 12.4533Z" fill="#FF9900"/>
</g>
</g>
</g>
</svg>
