<svg width="20" height="20" viewBox="0 0 20 20" fill="none" xmlns="http://www.w3.org/2000/svg">
<g id="azure-2 logo" clip-path="url(#clip0_1014_31606)">
<g id="Group 101">
<path id="Vector" d="M6.6715 0.625499H12.5827L6.44625 18.8178C6.41487 18.9107 6.36921 18.9981 6.3109 19.077C6.25271 19.1559 6.18254 19.2251 6.10288 19.2823C6.02322 19.3395 5.93532 19.3839 5.84192 19.4139C5.74852 19.4438 5.65113 19.4593 5.55324 19.4593H0.952854C0.80352 19.4593 0.656184 19.4239 0.523332 19.3554C0.390338 19.2872 0.275536 19.1882 0.188454 19.0668C0.101315 18.9453 0.0443089 18.8048 0.0221387 18.657C-8.65525e-05 18.5091 0.0133985 18.358 0.0610955 18.2164L5.77824 1.26654C5.80946 1.17364 5.85516 1.08624 5.91359 1.00733C5.97178 0.928413 6.0422 0.85924 6.12161 0.802053C6.20127 0.744867 6.28917 0.700416 6.38257 0.670449C6.47597 0.640483 6.57336 0.625 6.67125 0.625V0.62525L6.6715 0.625499Z" fill="url(#paint0_linear_1014_31606)"/>
<path id="Vector_2" d="M17.5687 19.4597H12.2608C12.2016 19.4597 12.1424 19.4543 12.084 19.443C12.0258 19.432 11.9686 19.4155 11.9134 19.3938C11.8583 19.3721 11.8053 19.3451 11.7551 19.3137C11.705 19.282 11.6579 19.2457 11.6145 19.2053L5.59122 13.58C5.52751 13.5205 5.48314 13.4433 5.46386 13.3583C5.44459 13.2733 5.45137 13.1844 5.48331 13.1033C5.51524 13.0222 5.57086 12.9526 5.64291 12.9035C5.71508 12.8546 5.80023 12.8284 5.88739 12.8284H15.261L17.5682 19.46L17.5687 19.4597Z" fill="#0078D4"/>
<path id="Vector_3" d="M12.6042 0.626232L8.46629 12.8299L15.2273 12.8284L17.5464 19.4601H12.2586C12.2039 19.4596 12.1492 19.4546 12.0953 19.4448C12.0413 19.4351 11.9884 19.4208 11.9369 19.4019C11.8338 19.3643 11.7378 19.3093 11.6532 19.2393L7.58726 15.4445L6.44903 18.8013C6.41956 18.8852 6.37911 18.9649 6.32866 19.038C6.22756 19.1852 6.08927 19.303 5.92786 19.3794C5.8475 19.4174 5.76242 19.4445 5.67489 19.4601H0.955883C0.80505 19.4606 0.656216 19.4246 0.522115 19.3552C0.387994 19.2858 0.272544 19.1852 0.185525 19.0618C0.0985055 18.9384 0.0424754 18.7958 0.0221706 18.6462C0.00193931 18.4965 0.0179545 18.3442 0.0688687 18.202L5.77677 1.28001C5.80649 1.18536 5.85119 1.09621 5.90913 1.0158C5.96681 0.935389 6.03724 0.864468 6.11715 0.806033C6.19706 0.747598 6.28596 0.702148 6.3801 0.671682C6.47425 0.641216 6.57289 0.625733 6.67203 0.626232H12.6044H12.6042Z" fill="url(#paint1_linear_1014_31606)"/>
<path id="Vector_4" d="M19.939 18.2172C19.9867 18.3588 20.0002 18.5098 19.9782 18.6577C19.956 18.8055 19.8991 18.9459 19.8122 19.0675C19.725 19.1889 19.6103 19.2878 19.4774 19.3561C19.3444 19.4243 19.1972 19.46 19.0478 19.46H12.4596C12.6089 19.46 12.7562 19.4243 12.8893 19.3562C13.0222 19.288 13.1371 19.1888 13.2242 19.0675C13.3114 18.9461 13.3683 18.8055 13.3905 18.6577C13.4128 18.5098 13.3993 18.3588 13.3516 18.2172L7.63419 1.26676C7.57125 1.08004 7.45133 0.917759 7.29132 0.802774C7.2119 0.745588 7.124 0.701387 7.03086 0.67142C6.93771 0.641454 6.84032 0.626221 6.74268 0.626221H13.3306C13.4285 0.626221 13.5256 0.641454 13.619 0.67142C13.7122 0.701387 13.8001 0.745838 13.8797 0.802774C13.9592 0.859961 14.0293 0.929134 14.0875 1.0078C14.1457 1.08646 14.1911 1.17386 14.2226 1.26676L19.94 18.2172H19.939Z" fill="url(#paint2_linear_1014_31606)"/>
</g>
</g>
<defs>
<linearGradient id="paint0_linear_1014_31606" x1="8.82885" y1="2.02145" x2="2.68568" y2="20.1688" gradientUnits="userSpaceOnUse">
<stop stop-color="#114A8B"/>
<stop offset="1" stop-color="#0669BC"/>
</linearGradient>
<linearGradient id="paint1_linear_1014_31606" x1="10.7445" y1="10.4778" x2="9.32358" y2="10.9597" gradientUnits="userSpaceOnUse">
<stop stop-opacity="0.3"/>
<stop offset="0.1" stop-opacity="0.2"/>
<stop offset="0.3" stop-opacity="0.1"/>
<stop offset="0.6" stop-opacity="0.1"/>
<stop offset="1" stop-opacity="0"/>
</linearGradient>
<linearGradient id="paint2_linear_1014_31606" x1="9.96035" y1="1.49276" x2="16.7029" y2="19.4553" gradientUnits="userSpaceOnUse">
<stop stop-color="#3CCBF4"/>
<stop offset="1" stop-color="#2892DF"/>
</linearGradient>
<clipPath id="clip0_1014_31606">
<rect width="20" height="20" fill="white"/>
</clipPath>
</defs>
</svg>
