<svg xmlns="http://www.w3.org/2000/svg" width="32" height="30" viewBox="0 0 32 30" fill="none">
  <g clip-path="url(#clip0_858_14572)">
    <path d="M1.03852 0.562585C0.735629 0.558679 0.446516 0.688907 0.248732 0.918336C0.0509483 1.14777 -0.0352608 1.45291 0.0132305 1.75192L4.36557 28.1735C4.4775 28.8409 5.05249 29.3316 5.7292 29.3372H26.6091C27.1171 29.3438 27.5532 28.9774 27.6344 28.476L31.9868 1.75704C32.0353 1.45804 31.9491 1.15289 31.7513 0.923463C31.5535 0.694034 31.2644 0.563805 30.9615 0.567712L1.03852 0.562585ZM19.3655 19.6585H12.7011L10.8966 10.231H20.9803L19.3655 19.6585Z" fill="#2684FF"/>
    <path d="M30.5762 10.2178H20.9615L19.348 19.6378H12.689L4.82617 28.9707C5.07539 29.1862 5.39313 29.306 5.72258 29.3087H26.591C27.0985 29.3153 27.5343 28.9492 27.6155 28.4482L30.5762 10.2178Z" fill="url(#paint0_linear_858_14572)"/>
  </g>
  <defs>
    <linearGradient id="paint0_linear_858_14572" x1="2802.14" y1="274.018" x2="1691.48" y2="1851" gradientUnits="userSpaceOnUse">
      <stop offset="0.18" stop-color="#0052CC"/>
      <stop offset="1" stop-color="#2684FF"/>
    </linearGradient>
    <clipPath id="clip0_858_14572">
      <rect width="32" height="28.875" fill="white" transform="translate(0 0.5625)"/>
    </clipPath>
  </defs>
</svg>