<svg width="16" height="16" viewBox="0 0 16 16" fill="none" xmlns="http://www.w3.org/2000/svg">
    <path d="M4 8H10C10.7072 8 11.3855 8.28095 11.8856 8.78105C12.3857 9.28115 12.6667 9.95942 12.6667 10.6667C12.6667 11.3739 12.3857 12.0522 11.8856 12.5523C11.3855 13.0524 10.7072 13.3333 10 13.3333H4V8Z" stroke-width="1.33333" stroke-linecap="round" stroke-linejoin="round"/>
    <path d="M4 2.66663H9.33333C10.0406 2.66663 10.7189 2.94758 11.219 3.44767C11.719 3.94777 12 4.62605 12 5.33329C12 6.04054 11.719 6.71881 11.219 7.21891C10.7189 7.71901 10.0406 7.99996 9.33333 7.99996H4V2.66663Z" stroke-width="1.33333" stroke-linecap="round" stroke-linejoin="round"/>
</svg>
