<svg width="32" height="32" viewBox="0 0 32 32" fill="none" xmlns="http://www.w3.org/2000/svg">
<rect width="32" height="32" rx="4" fill="#0061D5"/>
<path d="M27.7884 21.0273C28.088 21.4467 28.0281 21.986 27.6686 22.2856C27.2491 22.5852 26.6499 22.5253 26.3503 22.1658L24.2531 19.4693L22.2158 22.1058C21.9162 22.5253 21.317 22.5253 20.8976 22.2257C20.4781 21.9261 20.4182 21.3868 20.7178 20.9673L23.1146 17.8515L20.7178 14.7356C20.4182 14.3162 20.538 13.717 20.8976 13.4174C21.317 13.1178 21.9162 13.2376 22.2158 13.5971L24.2531 16.2936L26.3503 13.717C26.6499 13.2975 27.1892 13.2376 27.6686 13.5372C28.088 13.8368 28.088 14.436 27.7884 14.8555L25.4515 17.9114L27.7884 21.0273ZM16.8829 20.6677C15.325 20.6677 14.0666 19.4693 14.0666 17.9114C14.0666 16.4134 15.325 15.1551 16.8829 15.1551C18.4408 15.1551 19.6991 16.4134 19.6991 17.9114C19.6392 19.4693 18.3809 20.6677 16.8829 20.6677ZM8.61387 20.6677C7.05594 20.6677 5.79761 19.4693 5.79761 17.9114C5.79761 16.4134 7.05594 15.1551 8.61387 15.1551C10.1718 15.1551 11.4301 16.4134 11.4301 17.9114C11.4301 19.4693 10.1718 20.6677 8.61387 20.6677ZM16.8829 13.3575C15.1452 13.3575 13.5873 14.3162 12.8083 15.7543C12.0293 14.3162 10.4714 13.3575 8.67379 13.3575C7.59522 13.3575 6.6365 13.717 5.85753 14.2563V10.4214C5.85753 9.942 5.43809 9.52255 4.95873 9.52255C4.41944 9.52255 4 9.942 4 10.4214V17.9713C4.05992 20.488 6.09721 22.4654 8.61387 22.4654C10.4115 22.4654 11.9694 21.4467 12.7484 20.0086C13.5273 21.4467 15.0853 22.4654 16.823 22.4654C19.3995 22.4654 21.4968 20.4281 21.4968 17.8515C21.5567 15.3948 19.4595 13.3575 16.8829 13.3575Z" fill="white"/>
</svg>
