<svg xmlns="http://www.w3.org/2000/svg" width="16" height="16" viewBox="0 0 16 16" fill="none">
  <path d="M14.6666 8.0002V6.4002C14.6666 4.63288 13.2339 3.2002 11.4666 3.2002H4.53325C2.76594 3.2002 1.33325 4.63288 1.33325 6.4002V9.6002C1.33325 11.3675 2.76594 12.8002 4.53325 12.8002H7.99993" stroke="currentColor" stroke-width="1.33" stroke-linecap="round"/>
  <path d="M8 8H8.00559" stroke="currentColor" stroke-width="1.33" stroke-linecap="round" stroke-linejoin="round"/>
  <path d="M10.3999 8H10.4055" stroke="currentColor" stroke-width="1.33" stroke-linecap="round" stroke-linejoin="round"/>
  <path d="M5.6001 8H5.60569" stroke="currentColor" stroke-width="1.33" stroke-linecap="round" stroke-linejoin="round"/>
  <path d="M12 15C11.9103 15 11.8243 14.9753 11.7419 14.9259C11.6596 14.8765 11.5974 14.8069 11.5554 14.7172L10.8437 13.1563L9.28276 12.4446C9.19306 12.4026 9.12351 12.3404 9.07411 12.2581C9.0247 12.1757 9 12.0897 9 12C9 11.9103 9.0247 11.8243 9.07411 11.7419C9.12351 11.6596 9.19306 11.5974 9.28276 11.5554L10.8437 10.8437L11.5554 9.28276C11.5974 9.19306 11.6596 9.12351 11.7419 9.07411C11.8243 9.0247 11.9103 9 12 9C12.0897 9 12.1757 9.0247 12.2581 9.07411C12.3404 9.12351 12.4026 9.19306 12.4446 9.28276L13.1563 10.8437L14.7172 11.5554C14.8069 11.5974 14.8765 11.6596 14.9259 11.7419C14.9753 11.8243 15 11.9103 15 12C15 12.0897 14.9753 12.1757 14.9259 12.2581C14.8765 12.3404 14.8069 12.4026 14.7172 12.4446L13.1563 13.1563L12.4446 14.7172C12.4026 14.8069 12.3404 14.8765 12.2581 14.9259C12.1757 14.9753 12.0897 15 12 15Z" fill="#7D26CD"/>
</svg>