<svg width="24" height="24" viewBox="0 0 24 24" fill="none" xmlns="http://www.w3.org/2000/svg">
<path d="M11.7544 21.9998C9.62162 21.9998 7.48916 21.3746 5.67844 20.186C3.32397 18.6409 1.72994 16.3191 1.18949 13.6492C0.672309 11.0938 1.22537 8.37108 2.70682 6.17848C4.13963 4.05777 6.27968 2.63038 8.73333 2.15888C11.0751 1.70886 13.562 2.22527 15.5555 3.57522C17.4745 4.87405 18.7562 6.80196 19.1654 9.00329C19.5547 11.0974 19.0666 13.3111 17.8272 15.0761C16.642 16.7643 14.8983 17.8812 12.916 18.2209C11.0375 18.5424 9.06376 18.0899 7.50163 16.9786C6.01976 15.9243 5.05219 14.3891 4.7772 12.6557C4.51783 11.0199 4.94356 9.31537 5.94562 7.97896C6.88567 6.72533 8.23574 5.92267 9.74727 5.71849C11.1653 5.52742 12.627 5.92201 13.7568 6.80243C14.7998 7.61605 15.4482 8.76228 15.5816 10.0299C15.706 11.2146 15.3313 12.4116 14.5537 13.3152C13.8512 14.1313 12.8894 14.6106 11.8452 14.6656C10.8814 14.7154 9.90466 14.3479 9.22818 13.6808C8.63158 13.0918 8.32337 12.3229 8.36118 11.5162C8.39641 10.7637 8.81018 10.0062 9.41538 9.58673C9.92598 9.23274 10.5279 9.13798 11.1093 9.31967C11.5926 9.471 11.861 9.98245 11.7087 10.462C11.5565 10.9419 11.0406 11.2083 10.5581 11.0572C10.5327 11.0491 10.5175 11.0441 10.466 11.0799C10.3269 11.1762 10.2027 11.4144 10.1939 11.6001C10.1802 11.8953 10.2902 12.1604 10.5212 12.3878C10.8316 12.6941 11.3028 12.8671 11.7483 12.8463C12.4365 12.8101 12.8947 12.4377 13.158 12.132C13.604 11.6138 13.8279 10.8988 13.7558 10.2187C13.6751 9.4457 13.2725 8.74105 12.6232 8.23467C11.882 7.65684 10.9244 7.39681 9.99469 7.52299C8.97594 7.66033 8.06095 8.20845 7.41821 9.066C6.70853 10.0122 6.4069 11.2171 6.58994 12.3723C6.78773 13.6198 7.49103 14.7301 8.57024 15.498C9.73623 16.3271 11.2059 16.6656 12.6036 16.4257C14.0989 16.1693 15.4193 15.3203 16.3217 14.0345C17.2826 12.666 17.6612 10.9525 17.3605 9.33326C17.0413 7.6134 16.0328 6.10269 14.5218 5.07964C12.9293 4.0016 10.9468 3.5891 9.08216 3.94671C7.11213 4.32538 5.3894 5.47793 4.23114 7.19257C3.02032 8.98493 2.5673 11.2074 2.98903 13.2903C3.43209 15.4809 4.74697 17.3902 6.69095 18.6665C8.70975 19.9918 11.2052 20.4774 13.5371 19.9985C17.7225 19.1391 20.9312 15.3679 21.1663 11.0311C21.1936 10.5288 21.6239 10.1445 22.132 10.1707C22.6381 10.1978 23.0261 10.6268 22.9986 11.1293C22.7194 16.2781 18.8967 20.7588 13.9087 21.7828C13.1985 21.9279 12.4764 21.9998 11.7544 21.9998Z" fill="currentColor"/>
</svg>
