<svg width="24" height="24" viewBox="0 0 24 24" fill="none" xmlns="http://www.w3.org/2000/svg">
<path d="M22 11.376L12.5445 20.2938C11.3861 21.3862 9.81499 22 8.1768 22C6.53861 22 4.96752 21.3862 3.80914 20.2938C2.65077 19.2013 2 17.7195 2 16.1745C2 14.6295 2.65077 13.1477 3.80914 12.0553L13.2647 3.1375C14.0369 2.40917 15.0843 2 16.1765 2C17.2686 2 18.316 2.40917 19.0882 3.1375C19.8605 3.86583 20.2943 4.85365 20.2943 5.88366C20.2943 6.91367 19.8605 7.9015 19.0882 8.62983L9.6224 17.5476C9.23627 17.9118 8.71257 18.1163 8.16651 18.1163C7.62045 18.1163 7.09675 17.9118 6.71063 17.5476C6.3245 17.1834 6.10758 16.6895 6.10758 16.1745C6.10758 15.6595 6.3245 15.1656 6.71063 14.8014L15.4459 6.57263" stroke="currentColor" stroke-width="2" stroke-linecap="round" stroke-linejoin="round"/>
</svg>
