<svg width="15" height="15" viewBox="0 0 15 15" fill="none" xmlns="http://www.w3.org/2000/svg">
<path d="M7.5 1.5V13.5M7.5 1.5H12.1667C12.5203 1.5 12.8594 1.64048 13.1095 1.89052C13.3595 2.14057 13.5 2.47971 13.5 2.83333V12.1667C13.5 12.5203 13.3595 12.8594 13.1095 13.1095C12.8594 13.3595 12.5203 13.5 12.1667 13.5H7.5V1.5ZM7.5 1.5H2.83333C2.47971 1.5 2.14057 1.64048 1.89052 1.89052C1.64048 2.14057 1.5 2.47971 1.5 2.83333V12.1667C1.5 12.5203 1.64048 12.8594 1.89052 13.1095C2.14057 13.3595 2.47971 13.5 2.83333 13.5H7.5V1.5Z" stroke="#4A5268" stroke-width="1.33333" stroke-linecap="round" stroke-linejoin="round"/>
</svg>
