<svg width="40" height="41" viewBox="0 0 40 41" fill="none" xmlns="http://www.w3.org/2000/svg">
<path id="Vector" d="M38 19.5001C38.0069 22.1398 37.3901 24.7438 36.2 27.1001C34.7889 29.9235 32.6195 32.2984 29.9349 33.9586C27.2503 35.6188 24.1565 36.4988 21 36.5001C18.3603 36.5069 15.7562 35.8902 13.4 34.7001L2 38.5001L5.8 27.1001C4.60986 24.7438 3.99312 22.1398 4 19.5001C4.00122 16.3436 4.88122 13.2498 6.54144 10.5652C8.20165 7.88055 10.5765 5.71119 13.4 4.30006C15.7562 3.10992 18.3603 2.49317 21 2.50006H22C26.1687 2.73004 30.1061 4.48958 33.0583 7.44177C36.0105 10.394 37.77 14.3314 38 18.5001V19.5001Z" stroke="#6A7184" stroke-width="4" stroke-linecap="round" stroke-linejoin="round"/>
</svg>
