<svg width="16" height="16" viewBox="0 0 16 16" fill="none" xmlns="http://www.w3.org/2000/svg">
<mask id="mask0_22_1091" style="mask-type:alpha" maskUnits="userSpaceOnUse" x="0" y="0" width="16" height="16">
<rect width="16" height="16" fill="#D9D9D9"/>
</mask>
<g mask="url(#mask0_22_1091)">
<path d="M8 14.2V8.99998C8 8.81109 8.06389 8.65276 8.19167 8.52498C8.31944 8.3972 8.47778 8.33331 8.66667 8.33331H13.3333C13.5222 8.33331 13.6806 8.3972 13.8083 8.52498C13.9361 8.65276 14 8.81109 14 8.99998V12.3333C14 12.5222 13.9361 12.6805 13.8083 12.8083C13.6806 12.9361 13.5222 13 13.3333 13H10L8.56667 14.4333C8.45556 14.5444 8.33333 14.5722 8.2 14.5166C8.06667 14.4611 8 14.3555 8 14.2ZM9.33333 11.6666H12.6667V9.66665H9.33333V11.6666Z" fill="currentColor" stroke="none"/>
<path d="M7.33333 7.33333C6.6 7.33333 5.97222 7.07222 5.45 6.55C4.92778 6.02778 4.66667 5.4 4.66667 4.66667C4.66667 3.93333 4.92778 3.30556 5.45 2.78333C5.97222 2.26111 6.6 2 7.33333 2C8.06667 2 8.69444 2.26111 9.21667 2.78333C9.73889 3.30556 10 3.93333 10 4.66667C10 5.4 9.73889 6.02778 9.21667 6.55C8.69444 7.07222 8.06667 7.33333 7.33333 7.33333ZM7.33333 6C7.7 6 8.01389 5.86944 8.275 5.60833C8.53611 5.34722 8.66667 5.03333 8.66667 4.66667C8.66667 4.3 8.53611 3.98611 8.275 3.725C8.01389 3.46389 7.7 3.33333 7.33333 3.33333C6.96667 3.33333 6.65278 3.46389 6.39167 3.725C6.13056 3.98611 6 4.3 6 4.66667C6 5.03333 6.13056 5.34722 6.39167 5.60833C6.65278 5.86944 6.96667 6 7.33333 6ZM2 11.3333V10.8167C2 10.4389 2.09444 10.0889 2.28333 9.76667C2.47222 9.44445 2.73333 9.2 3.06667 9.03333C3.63333 8.74444 4.27222 8.5 4.98333 8.3C5.69444 8.1 6.13333 8 7 8C7 8.33331 7 8.83331 7 9.33331C6.33333 9.38887 5.52222 9.51944 5 9.69167C4.47778 9.86389 4.03889 10.0444 3.68333 10.2333C3.57222 10.2889 3.48611 10.3694 3.425 10.475C3.36389 10.5806 3.33333 10.6944 3.33333 10.8167V11.3333H6.78333V12.6132L3.33333 12.6667C2.96667 12.6667 2.65278 12.5361 2.39167 12.275C2.13056 12.0139 2 11.7 2 11.3333Z" fill="currentColor" stroke="none"/>
</g>
</svg>