<svg xmlns="http://www.w3.org/2000/svg" width="16" height="16" viewBox="0 0 16 16" fill="none">
    <path d="M6.66663 10H5.33329C4.62605 10 3.94777 10.281 3.44767 10.781C2.94758 11.2811 2.66663 11.9594 2.66663 12.6667V14" stroke="currentColor" stroke-width="1.33333" stroke-linecap="round" stroke-linejoin="round"/>
    <path d="M8.00004 7.33333C9.4728 7.33333 10.6667 6.13943 10.6667 4.66667C10.6667 3.19391 9.4728 2 8.00004 2C6.52728 2 5.33337 3.19391 5.33337 4.66667C5.33337 6.13943 6.52728 7.33333 8.00004 7.33333Z" stroke="currentColor" stroke-width="1.33333" stroke-linecap="round" stroke-linejoin="round"/>
    <path d="M13.4444 10H9.55556C9.24873 10 9 10.2487 9 10.5556V13.1944C9 13.5013 9.24873 13.75 9.55556 13.75H10.0417V15L11.2917 13.75H13.4444C13.7513 13.75 14 13.5013 14 13.1944V10.5556C14 10.2487 13.7513 10 13.4444 10Z" stroke="currentColor" stroke-width="1.33333" stroke-linecap="round" stroke-linejoin="round"/>
</svg>