<svg width="16" height="16" viewBox="0 0 16 16" fill="none" xmlns="http://www.w3.org/2000/svg">
<g clip-path="url(#clip0_184_4881)">
<path d="M13.3333 6H7.33333C6.59695 6 6 6.59695 6 7.33333V13.3333C6 14.0697 6.59695 14.6667 7.33333 14.6667H13.3333C14.0697 14.6667 14.6667 14.0697 14.6667 13.3333V7.33333C14.6667 6.59695 14.0697 6 13.3333 6Z" stroke="currentColor" stroke-width="1.33333" stroke-linecap="round" stroke-linejoin="round"/>
<path d="M3.33334 10H2.66667C2.31305 10 1.97391 9.85956 1.72386 9.60952C1.47381 9.35947 1.33334 9.02033 1.33334 8.66671V2.66671C1.33334 2.31309 1.47381 1.97395 1.72386 1.7239C1.97391 1.47385 2.31305 1.33337 2.66667 1.33337H8.66667C9.02029 1.33337 9.35943 1.47385 9.60948 1.7239C9.85953 1.97395 10 2.31309 10 2.66671V3.33337" stroke="currentColor" stroke-width="1.33333" stroke-linecap="round" stroke-linejoin="round"/>
</g>
<defs>
<clipPath id="clip0_184_4881">
<rect width="16" height="16" fill="white"/>
</clipPath>
</defs>
</svg>
