<svg width="16" height="16" viewBox="0 0 16 16" fill="none" xmlns="http://www.w3.org/2000/svg">
<mask id="mask0_18_1026" style="mask-type:alpha" maskUnits="userSpaceOnUse" x="0" y="0" width="16" height="16">
<rect width="16" height="16" fill="#D9D9D9"/>
</mask>
<g mask="url(#mask0_18_1026)">
<path d="M6.66665 8.00002C5.93331 8.00002 5.30554 7.73891 4.78331 7.21669C4.26109 6.69446 3.99998 6.06669 3.99998 5.33335C3.99998 4.60002 4.26109 3.97224 4.78331 3.45002C5.30554 2.9278 5.93331 2.66669 6.66665 2.66669C7.39998 2.66669 8.02776 2.9278 8.54998 3.45002C9.0722 3.97224 9.33331 4.60002 9.33331 5.33335C9.33331 6.06669 9.0722 6.69446 8.54998 7.21669C8.02776 7.73891 7.39998 8.00002 6.66665 8.00002ZM1.33331 12V11.4667C1.33331 11.1 1.42776 10.7556 1.61665 10.4334C1.80554 10.1111 2.06665 9.86669 2.39998 9.70002C2.96665 9.41113 3.60554 9.16669 4.31665 8.96669C5.02776 8.76669 5.81109 8.66669 6.66665 8.66669H6.89998C6.96665 8.66669 7.03331 8.6778 7.09998 8.70002C7.01109 8.90002 6.93609 9.10835 6.87498 9.32502C6.81387 9.54169 6.76665 9.76669 6.73331 10H6.66665C5.87776 10 5.16942 10.1 4.54165 10.3C3.91387 10.5 3.39998 10.7 2.99998 10.9C2.89998 10.9556 2.81942 11.0334 2.75831 11.1334C2.6972 11.2334 2.66665 11.3445 2.66665 11.4667V12H6.86665C6.93331 12.2334 7.0222 12.4639 7.13331 12.6917C7.24442 12.9195 7.36665 13.1334 7.49998 13.3334H2.66665C2.29998 13.3334 1.98609 13.2028 1.72498 12.9417C1.46387 12.6806 1.33331 12.3667 1.33331 12ZM10.5666 13.4667L10.4666 13C10.3333 12.9445 10.2083 12.8861 10.0916 12.825C9.97498 12.7639 9.85554 12.6889 9.73331 12.6L9.24998 12.75C9.10554 12.7945 8.96387 12.7889 8.82498 12.7334C8.68609 12.6778 8.57776 12.5889 8.49998 12.4667L8.36665 12.2334C8.28887 12.1 8.26109 11.9556 8.28331 11.8C8.30554 11.6445 8.37776 11.5167 8.49998 11.4167L8.86665 11.1C8.84442 10.9445 8.83331 10.8 8.83331 10.6667C8.83331 10.5334 8.84442 10.3889 8.86665 10.2334L8.49998 9.91669C8.37776 9.81669 8.30554 9.69169 8.28331 9.54169C8.26109 9.39169 8.28887 9.25002 8.36665 9.11669L8.51665 8.86669C8.59442 8.74446 8.69998 8.65558 8.83331 8.60002C8.96665 8.54446 9.10554 8.53891 9.24998 8.58335L9.73331 8.73335C9.85554 8.64446 9.97498 8.56946 10.0916 8.50835C10.2083 8.44724 10.3333 8.38891 10.4666 8.33335L10.5666 7.85002C10.6 7.69446 10.675 7.56946 10.7916 7.47502C10.9083 7.38058 11.0444 7.33335 11.2 7.33335H11.4666C11.6222 7.33335 11.7583 7.38335 11.875 7.48335C11.9916 7.58335 12.0666 7.71113 12.1 7.86669L12.2 8.33335C12.3333 8.38891 12.4583 8.45002 12.575 8.51669C12.6916 8.58335 12.8111 8.66669 12.9333 8.76669L13.3833 8.61669C13.5389 8.56113 13.6889 8.56113 13.8333 8.61669C13.9778 8.67224 14.0889 8.76669 14.1666 8.90002L14.3 9.13335C14.3778 9.26669 14.4055 9.41113 14.3833 9.56669C14.3611 9.72224 14.2889 9.85002 14.1666 9.95002L13.8 10.2667C13.8222 10.4 13.8333 10.5389 13.8333 10.6834C13.8333 10.8278 13.8222 10.9667 13.8 11.1L14.1666 11.4167C14.2889 11.5167 14.3611 11.6417 14.3833 11.7917C14.4055 11.9417 14.3778 12.0834 14.3 12.2167L14.15 12.4667C14.0722 12.5889 13.9666 12.6778 13.8333 12.7334C13.7 12.7889 13.5611 12.7945 13.4166 12.75L12.9333 12.6C12.8111 12.6889 12.6916 12.7639 12.575 12.825C12.4583 12.8861 12.3333 12.9445 12.2 13L12.1 13.4834C12.0666 13.6389 11.9916 13.7639 11.875 13.8584C11.7583 13.9528 11.6222 14 11.4666 14H11.2C11.0444 14 10.9083 13.95 10.7916 13.85C10.675 13.75 10.6 13.6222 10.5666 13.4667ZM11.3333 12C11.7 12 12.0139 11.8695 12.275 11.6084C12.5361 11.3472 12.6666 11.0334 12.6666 10.6667C12.6666 10.3 12.5361 9.98613 12.275 9.72502C12.0139 9.46391 11.7 9.33335 11.3333 9.33335C10.9666 9.33335 10.6528 9.46391 10.3916 9.72502C10.1305 9.98613 9.99998 10.3 9.99998 10.6667C9.99998 11.0334 10.1305 11.3472 10.3916 11.6084C10.6528 11.8695 10.9666 12 11.3333 12ZM6.66665 6.66669C7.03331 6.66669 7.3472 6.53613 7.60831 6.27502C7.86942 6.01391 7.99998 5.70002 7.99998 5.33335C7.99998 4.96669 7.86942 4.6528 7.60831 4.39169C7.3472 4.13058 7.03331 4.00002 6.66665 4.00002C6.29998 4.00002 5.98609 4.13058 5.72498 4.39169C5.46387 4.6528 5.33331 4.96669 5.33331 5.33335C5.33331 5.70002 5.46387 6.01391 5.72498 6.27502C5.98609 6.53613 6.29998 6.66669 6.66665 6.66669Z" fill="currentColor" stroke="none"/>
</g>
</svg>