<svg width="214" height="145" viewBox="0 0 214 145" fill="none" xmlns="http://www.w3.org/2000/svg">
    <g filter="url(#filter0_dd_629_51718)">
        <g clip-path="url(#clip0_629_51718)">
            <rect x="12" y="0.5" width="190" height="120" rx="8" fill="white" />
            <g clip-path="url(#clip1_629_51718)">
                <mask id="path-3-inside-1_629_51718" fill="white">
                    <path d="M12 0.5H52V120.5H12V0.5Z" />
                </mask>
                <mask id="path-5-inside-2_629_51718" fill="white">
                    <path d="M12 0.5H52V30.5H12V0.5Z" />
                </mask>
                <path d="M52 29.5H12V31.5H52V29.5Z" fill="#CBA8EB" mask="url(#path-5-inside-2_629_51718)" />
                <rect x="16" y="34.5" width="4" height="4" rx="1" fill="#CBA8EB" />
                <rect x="22" y="34.5" width="27" height="4" rx="2" fill="#CBA8EB" />
                <rect x="22" y="42.5" width="4" height="4" rx="1" fill="#E5D4F5" />
                <rect x="28" y="42.5" width="21" height="4" rx="2" fill="#E5D4F5" />
                <rect x="22" y="50.5" width="4" height="4" rx="1" fill="#E5D4F5" />
                <rect x="28" y="50.5" width="21" height="4" rx="2" fill="#E5D4F5" />
                <rect x="22" y="58.5" width="4" height="4" rx="1" fill="#E5D4F5" />
                <rect x="28" y="58.5" width="21" height="4" rx="2" fill="#E5D4F5" />
                <rect x="22" y="66.5" width="4" height="4" rx="1" fill="#E5D4F5" />
                <rect x="28" y="66.5" width="21" height="4" rx="2" fill="#E5D4F5" />
            </g>
            <path d="M51 0.5V120.5H53V0.5H51Z" fill="#CBA8EB" mask="url(#path-3-inside-1_629_51718)" />
            <g clip-path="url(#clip2_629_51718)">
                <rect width="150" height="120" transform="translate(52 0.5)" fill="white" />
                <mask id="path-17-inside-3_629_51718" fill="white">
                    <path d="M52 0.5H202V14.5H52V0.5Z" />
                </mask>
                <path d="M202 13.5H52V15.5H202V13.5Z" fill="#CBA8EB" mask="url(#path-17-inside-3_629_51718)" />
                <rect x="56" y="5.5" width="24" height="4" rx="2" fill="#CBA8EB" />
                <rect x="107" y="3.5" width="40" height="8" rx="2" fill="#E5D4F5" />
                <rect x="108" y="4.5" width="19" height="6" rx="2" fill="white" />
                <rect x="127" y="4.5" width="19" height="6" rx="2" fill="#E5D4F5" />
                <mask id="path-23-inside-4_629_51718" fill="white">
                    <path d="M52 14.5H202V24.5H52V14.5Z" />
                </mask>
                <path d="M202 23.5H52V25.5H202V23.5Z" fill="#E5D4F5" mask="url(#path-23-inside-4_629_51718)" />
                <rect x="56" y="17.5" width="9" height="4" rx="2" fill="#E5D4F5" />
                <rect x="67" y="17.5" width="4" height="4" rx="1" fill="#CBA8EB" />
                <rect x="75" y="17.5" width="9" height="4" rx="2" fill="#E5D4F5" />
                <rect x="86" y="17.5" width="4" height="4" rx="1" fill="#CBA8EB" />
                <rect x="94" y="17.5" width="9" height="4" rx="2" fill="#E5D4F5" />
                <rect x="105" y="17.5" width="4" height="4" rx="1" fill="#CBA8EB" />
                <mask id="path-31-inside-5_629_51718" fill="white">
                    <path d="M52 24.5H102V124.5H52V24.5Z" />
                </mask>
                <path d="M101.6 24.5V124.5H102.4V24.5H101.6Z" fill="#CBA8EB" mask="url(#path-31-inside-5_629_51718)" />
                <mask id="path-33-inside-6_629_51718" fill="white">
                    <path d="M52 24.5H102V34.5H52V24.5Z" />
                </mask>
                <path d="M102 34.1H52V34.9H102V34.1Z" fill="#CBA8EB" mask="url(#path-33-inside-6_629_51718)" />
                <rect x="55" y="27" width="35" height="4" rx="2" fill="#E5D4F5" />
                <mask id="path-36-inside-7_629_51718" fill="white">
                    <path d="M52 34.5H102V44.5H52V34.5Z" />
                </mask>
                <path d="M102 44.1H52V44.9H102V44.1Z" fill="#CBA8EB" mask="url(#path-36-inside-7_629_51718)" />
                <mask id="path-38-inside-8_629_51718" fill="white">
                    <path d="M52 44.5H102V54.5H52V44.5Z" />
                </mask>
                <path d="M102 54.1H52V54.9H102V54.1Z" fill="#CBA8EB" mask="url(#path-38-inside-8_629_51718)" />
                <mask id="path-40-inside-9_629_51718" fill="white">
                    <path d="M52 54.5H102V64.5H52V54.5Z" />
                </mask>
                <path d="M102 64.1H52V64.9H102V64.1Z" fill="#CBA8EB" mask="url(#path-40-inside-9_629_51718)" />
                <mask id="path-42-inside-10_629_51718" fill="white">
                    <path d="M52 64.5H102V74.5H52V64.5Z" />
                </mask>
                <path d="M102 74.1H52V74.9H102V74.1Z" fill="#CBA8EB" mask="url(#path-42-inside-10_629_51718)" />
                <mask id="path-44-inside-11_629_51718" fill="white">
                    <path d="M52 74.5H102V84.5H52V74.5Z" />
                </mask>
                <path d="M102 84.1H52V84.9H102V84.1Z" fill="#CBA8EB" mask="url(#path-44-inside-11_629_51718)" />
                <mask id="path-46-inside-12_629_51718" fill="white">
                    <path d="M52 84.5H102V94.5H52V84.5Z" />
                </mask>
                <path d="M102 94.1H52V94.9H102V94.1Z" fill="#CBA8EB" mask="url(#path-46-inside-12_629_51718)" />
                <mask id="path-48-inside-13_629_51718" fill="white">
                    <path d="M52 94.5H102V104.5H52V94.5Z" />
                </mask>
                <path d="M102 104.1H52V104.9H102V104.1Z" fill="#CBA8EB" mask="url(#path-48-inside-13_629_51718)" />
                <mask id="path-50-inside-14_629_51718" fill="white">
                    <path d="M52 104.5H102V114.5H52V104.5Z" />
                </mask>
                <path d="M102 114.1H52V114.9H102V114.1Z" fill="#CBA8EB" mask="url(#path-50-inside-14_629_51718)" />
                <mask id="path-52-inside-15_629_51718" fill="white">
                    <path d="M52 114.5H102V124.5H52V114.5Z" />
                </mask>
                <path d="M102 124.1H52V124.9H102V124.1Z" fill="#CBA8EB" mask="url(#path-52-inside-15_629_51718)" />
                <mask id="path-54-inside-16_629_51718" fill="white">
                    <path d="M102 24.5H152V124.5H102V24.5Z" />
                </mask>
                <path d="M151.6 24.5V124.5H152.4V24.5H151.6Z" fill="#CBA8EB" mask="url(#path-54-inside-16_629_51718)" />
                <mask id="path-56-inside-17_629_51718" fill="white">
                    <path d="M102 24.5H152V34.5H102V24.5Z" />
                </mask>
                <path d="M152 34.1H102V34.9H152V34.1Z" fill="#CBA8EB" mask="url(#path-56-inside-17_629_51718)" />
                <rect x="105" y="27" width="23" height="4" rx="2" fill="#E5D4F5" />
                <mask id="path-59-inside-18_629_51718" fill="white">
                    <path d="M102 34.5H152V44.5H102V34.5Z" />
                </mask>
                <path d="M152 44.1H102V44.9H152V44.1Z" fill="#CBA8EB" mask="url(#path-59-inside-18_629_51718)" />
                <mask id="path-61-inside-19_629_51718" fill="white">
                    <path d="M102 44.5H152V54.5H102V44.5Z" />
                </mask>
                <path d="M152 54.1H102V54.9H152V54.1Z" fill="#CBA8EB" mask="url(#path-61-inside-19_629_51718)" />
                <mask id="path-63-inside-20_629_51718" fill="white">
                    <path d="M102 54.5H152V64.5H102V54.5Z" />
                </mask>
                <path d="M152 64.1H102V64.9H152V64.1Z" fill="#CBA8EB" mask="url(#path-63-inside-20_629_51718)" />
                <mask id="path-65-inside-21_629_51718" fill="white">
                    <path d="M102 64.5H152V74.5H102V64.5Z" />
                </mask>
                <path d="M152 74.1H102V74.9H152V74.1Z" fill="#CBA8EB" mask="url(#path-65-inside-21_629_51718)" />
                <mask id="path-67-inside-22_629_51718" fill="white">
                    <path d="M102 74.5H152V84.5H102V74.5Z" />
                </mask>
                <path d="M152 84.1H102V84.9H152V84.1Z" fill="#CBA8EB" mask="url(#path-67-inside-22_629_51718)" />
                <mask id="path-69-inside-23_629_51718" fill="white">
                    <path d="M102 84.5H152V94.5H102V84.5Z" />
                </mask>
                <path d="M152 94.1H102V94.9H152V94.1Z" fill="#CBA8EB" mask="url(#path-69-inside-23_629_51718)" />
                <mask id="path-71-inside-24_629_51718" fill="white">
                    <path d="M102 94.5H152V104.5H102V94.5Z" />
                </mask>
                <path d="M152 104.1H102V104.9H152V104.1Z" fill="#CBA8EB" mask="url(#path-71-inside-24_629_51718)" />
                <mask id="path-73-inside-25_629_51718" fill="white">
                    <path d="M102 104.5H152V114.5H102V104.5Z" />
                </mask>
                <path d="M152 114.1H102V114.9H152V114.1Z" fill="#CBA8EB" mask="url(#path-73-inside-25_629_51718)" />
                <mask id="path-75-inside-26_629_51718" fill="white">
                    <path d="M102 114.5H152V124.5H102V114.5Z" />
                </mask>
                <path d="M152 124.1H102V124.9H152V124.1Z" fill="#CBA8EB" mask="url(#path-75-inside-26_629_51718)" />
                <mask id="path-77-inside-27_629_51718" fill="white">
                    <path d="M152 24.5H202V124.5H152V24.5Z" />
                </mask>
                <path d="M201.6 24.5V124.5H202.4V24.5H201.6Z" fill="#CBA8EB" mask="url(#path-77-inside-27_629_51718)" />
                <mask id="path-79-inside-28_629_51718" fill="white">
                    <path d="M152 24.5H202V34.5H152V24.5Z" />
                </mask>
                <path d="M202 34.1H152V34.9H202V34.1Z" fill="#CBA8EB" mask="url(#path-79-inside-28_629_51718)" />
                <rect x="155" y="27" width="23" height="4" rx="2" fill="#E5D4F5" />
                <mask id="path-82-inside-29_629_51718" fill="white">
                    <path d="M152 34.5H202V44.5H152V34.5Z" />
                </mask>
                <path d="M202 44.1H152V44.9H202V44.1Z" fill="#CBA8EB" mask="url(#path-82-inside-29_629_51718)" />
                <mask id="path-84-inside-30_629_51718" fill="white">
                    <path d="M152 44.5H202V54.5H152V44.5Z" />
                </mask>
                <path d="M202 54.1H152V54.9H202V54.1Z" fill="#CBA8EB" mask="url(#path-84-inside-30_629_51718)" />
                <mask id="path-86-inside-31_629_51718" fill="white">
                    <path d="M152 54.5H202V64.5H152V54.5Z" />
                </mask>
                <path d="M202 64.1H152V64.9H202V64.1Z" fill="#CBA8EB" mask="url(#path-86-inside-31_629_51718)" />
                <mask id="path-88-inside-32_629_51718" fill="white">
                    <path d="M152 64.5H202V74.5H152V64.5Z" />
                </mask>
                <path d="M202 74.1H152V74.9H202V74.1Z" fill="#CBA8EB" mask="url(#path-88-inside-32_629_51718)" />
                <mask id="path-90-inside-33_629_51718" fill="white">
                    <path d="M152 74.5H202V84.5H152V74.5Z" />
                </mask>
                <path d="M202 84.1H152V84.9H202V84.1Z" fill="#CBA8EB" mask="url(#path-90-inside-33_629_51718)" />
                <mask id="path-92-inside-34_629_51718" fill="white">
                    <path d="M152 84.5H202V94.5H152V84.5Z" />
                </mask>
                <path d="M202 94.1H152V94.9H202V94.1Z" fill="#CBA8EB" mask="url(#path-92-inside-34_629_51718)" />
                <mask id="path-94-inside-35_629_51718" fill="white">
                    <path d="M152 94.5H202V104.5H152V94.5Z" />
                </mask>
                <path d="M202 104.1H152V104.9H202V104.1Z" fill="#CBA8EB" mask="url(#path-94-inside-35_629_51718)" />
                <mask id="path-96-inside-36_629_51718" fill="white">
                    <path d="M152 104.5H202V114.5H152V104.5Z" />
                </mask>
                <path d="M202 114.1H152V114.9H202V114.1Z" fill="#CBA8EB" mask="url(#path-96-inside-36_629_51718)" />
                <mask id="path-98-inside-37_629_51718" fill="white">
                    <path d="M152 114.5H202V124.5H152V114.5Z" />
                </mask>
                <path d="M202 124.1H152V124.9H202V124.1Z" fill="#CBA8EB" mask="url(#path-98-inside-37_629_51718)" />
            </g>
        </g>
        <rect x="12.5" y="1" width="189" height="119" rx="7.5" stroke="#CBA8EB" />
    </g>
    <defs>
        <filter id="filter0_dd_629_51718" x="0" y="0.5" width="214" height="144" filterUnits="userSpaceOnUse"
            color-interpolation-filters="sRGB">
            <feFlood flood-opacity="0" result="BackgroundImageFix" />
            <feColorMatrix in="SourceAlpha" type="matrix" values="0 0 0 0 0 0 0 0 0 0 0 0 0 0 0 0 0 0 127 0"
                result="hardAlpha" />
            <feMorphology radius="2" operator="erode" in="SourceAlpha" result="effect1_dropShadow_629_51718" />
            <feOffset dy="4" />
            <feGaussianBlur stdDeviation="3" />
            <feComposite in2="hardAlpha" operator="out" />
            <feColorMatrix type="matrix" values="0 0 0 0 0.2 0 0 0 0 0.4 0 0 0 0 1 0 0 0 0.08 0" />
            <feBlend mode="normal" in2="BackgroundImageFix" result="effect1_dropShadow_629_51718" />
            <feColorMatrix in="SourceAlpha" type="matrix" values="0 0 0 0 0 0 0 0 0 0 0 0 0 0 0 0 0 0 127 0"
                result="hardAlpha" />
            <feMorphology radius="4" operator="erode" in="SourceAlpha" result="effect2_dropShadow_629_51718" />
            <feOffset dy="12" />
            <feGaussianBlur stdDeviation="8" />
            <feComposite in2="hardAlpha" operator="out" />
            <feColorMatrix type="matrix" values="0 0 0 0 0.490196 0 0 0 0 0.14902 0 0 0 0 0.803922 0 0 0 0.12 0" />
            <feBlend mode="normal" in2="effect1_dropShadow_629_51718" result="effect2_dropShadow_629_51718" />
            <feBlend mode="normal" in="SourceGraphic" in2="effect2_dropShadow_629_51718" result="shape" />
        </filter>
        <clipPath id="clip0_629_51718">
            <rect x="12" y="0.5" width="190" height="120" rx="8" fill="white" />
        </clipPath>
        <clipPath id="clip1_629_51718">
            <path d="M12 0.5H52V120.5H12V0.5Z" fill="white" />
        </clipPath>
        <clipPath id="clip2_629_51718">
            <rect width="150" height="120" fill="white" transform="translate(52 0.5)" />
        </clipPath>
    </defs>
</svg>