<svg xmlns="http://www.w3.org/2000/svg" width="16" height="16" viewBox="0 0 16 16" fill="none">
  <path d="M8.00001 7.33333C9.47277 7.33333 10.6667 6.13943 10.6667 4.66667C10.6667 3.19391 9.47277 2 8.00001 2C6.52725 2 5.33334 3.19391 5.33334 4.66667C5.33334 6.13943 6.52725 7.33333 8.00001 7.33333Z" stroke="currentColor" stroke-width="1.33333" stroke-linecap="round" stroke-linejoin="round"/>
  <path d="M6.66663 10H5.33329C4.62605 10 3.94777 10.281 3.44767 10.781C2.94758 11.2811 2.66663 11.9594 2.66663 12.6667V14" stroke="currentColor" stroke-width="1.33333" stroke-linecap="round" stroke-linejoin="round"/>
  <path d="M13 12.5C13 11.6716 12.3284 11 11.5 11C10.6716 11 10 11.6716 10 12.5C10 13.3284 10.6716 14 11.5 14C12.3284 14 13 13.3284 13 12.5Z" stroke="currentColor" stroke-width="1.33"/>
  <path d="M9 12.5H9.625M14 12.5H13.375" stroke="currentColor" stroke-width="1.33333" stroke-linecap="round" stroke-linejoin="round"/>
  <path d="M12.75 14.665L12.4375 14.1238M10.25 10.3349L10.5625 10.8762" stroke="currentColor" stroke-width="1.33333" stroke-linecap="round" stroke-linejoin="round"/>
  <path d="M12.75 10.3349L12.4375 10.8762M10.25 14.665L10.5625 14.1238" stroke="currentColor" stroke-width="1.33333" stroke-linecap="round" stroke-linejoin="round"/>
</svg>