<svg width="12" height="12" viewBox="0 0 12 12" fill="none" xmlns="http://www.w3.org/2000/svg">
<path d="M2 5.33333C0.895432 5.33333 0 4.4379 0 3.33333V2C0 0.895432 0.895431 0 2 0H3.33333C4.4379 0 5.33333 0.895431 5.33333 2V3.33333C5.33333 4.4379 4.4379 5.33333 3.33333 5.33333H2ZM2 12C0.895432 12 0 11.1046 0 10V8.66667C0 7.5621 0.895431 6.66667 2 6.66667H3.33333C4.4379 6.66667 5.33333 7.5621 5.33333 8.66667V10C5.33333 11.1046 4.4379 12 3.33333 12H2ZM8.66667 5.33333C7.5621 5.33333 6.66667 4.4379 6.66667 3.33333V2C6.66667 0.895432 7.5621 0 8.66667 0H10C11.1046 0 12 0.895431 12 2V3.33333C12 4.4379 11.1046 5.33333 10 5.33333H8.66667ZM8.66667 12C7.5621 12 6.66667 11.1046 6.66667 10V8.66667C6.66667 7.5621 7.5621 6.66667 8.66667 6.66667H10C11.1046 6.66667 12 7.5621 12 8.66667V10C12 11.1046 11.1046 12 10 12H8.66667Z" fill="#27D665"/>
</svg>
