<svg width="12" height="12" viewBox="0 0 12 12" fill="none" xmlns="http://www.w3.org/2000/svg">
<path d="M6 5.14286C4.25029 5.14286 2.81286 4.90171 1.68771 4.41943C0.562571 3.93714 0 3.32114 0 2.57143C0 1.86914 0.589143 1.26486 1.76743 0.758571C2.94629 0.252857 4.35714 0 6 0C7.64286 0 9.05371 0.252857 10.2326 0.758571C11.4109 1.26486 12 1.86914 12 2.57143C12 3.32114 11.4374 3.93714 10.3123 4.41943C9.18714 4.90171 7.74971 5.14286 6 5.14286ZM6 8.57143C4.29771 8.57143 2.872 8.32429 1.72286 7.83C0.574286 7.33629 0 6.72629 0 6V4.32171C0 4.66686 0.160571 4.99114 0.481714 5.29457C0.803429 5.598 1.238 5.866 1.78543 6.09857C2.33343 6.33057 2.97029 6.51486 3.696 6.65143C4.42229 6.78857 5.19029 6.85714 6 6.85714C6.80971 6.85714 7.57771 6.78857 8.304 6.65143C9.02971 6.51486 9.66657 6.33057 10.2146 6.09857C10.762 5.866 11.1966 5.598 11.5183 5.29457C11.8394 4.99114 12 4.66686 12 4.32171V6C12 6.72629 11.4257 7.33629 10.2771 7.83C9.128 8.32429 7.70229 8.57143 6 8.57143ZM6 12C4.33314 12 2.91657 11.7411 1.75029 11.2234C0.583428 10.7057 0 10.0777 0 9.33943V7.66114C0 8.00629 0.163714 8.33657 0.491143 8.652C0.818571 8.96743 1.25914 9.24714 1.81286 9.49114C2.366 9.73514 3.00571 9.92857 3.732 10.0714C4.45829 10.2143 5.21429 10.2857 6 10.2857C6.78571 10.2857 7.54171 10.2143 8.268 10.0714C8.99429 9.92857 9.634 9.73514 10.1871 9.49114C10.7409 9.24714 11.1814 8.96743 11.5089 8.652C11.8363 8.33657 12 8.00629 12 7.66114V9.33943C12 10.0777 11.4166 10.7057 10.2497 11.2234C9.08343 11.7411 7.66686 12 6 12Z" fill="#3366FF"/>
</svg>
