<svg width="16" height="16" viewBox="0 0 16 16" fill="none" xmlns="http://www.w3.org/2000/svg">
<rect width="16" height="16" rx="4" fill="currentColor"/>
<mask id="mask0_81_9662" style="mask-type:alpha" maskUnits="userSpaceOnUse" x="0" y="0" width="16" height="16">
<rect width="16" height="16" fill="#fff"/>
</mask>
<g mask="url(#mask0_81_9662)">
<path d="M7.9999 7.1999C6.36684 7.1999 5.02524 6.97484 3.9751 6.5247C2.92497 6.07457 2.3999 5.49964 2.3999 4.7999C2.3999 4.14444 2.94977 3.58044 4.0495 3.1079C5.14977 2.6359 6.46657 2.3999 7.9999 2.3999C9.53324 2.3999 10.85 2.6359 11.9503 3.1079C13.05 3.58044 13.5999 4.14444 13.5999 4.7999C13.5999 5.49964 13.0748 6.07457 12.0247 6.5247C10.9746 6.97484 9.63297 7.1999 7.9999 7.1999ZM7.9999 10.3999C6.4111 10.3999 5.08044 10.1692 4.0079 9.7079C2.9359 9.2471 2.3999 8.67777 2.3999 7.9999V6.4335C2.3999 6.75564 2.54977 7.0583 2.8495 7.3415C3.14977 7.6247 3.55537 7.87484 4.0663 8.0919C4.57777 8.30844 5.17217 8.48044 5.8495 8.6079C6.52737 8.7359 7.24417 8.7999 7.9999 8.7999C8.75564 8.7999 9.47244 8.7359 10.1503 8.6079C10.8276 8.48044 11.422 8.30844 11.9335 8.0919C12.4444 7.87484 12.85 7.6247 13.1503 7.3415C13.45 7.0583 13.5999 6.75564 13.5999 6.4335V7.9999C13.5999 8.67777 13.0639 9.2471 11.9919 9.7079C10.9194 10.1692 9.5887 10.3999 7.9999 10.3999ZM7.9999 13.5999C6.44417 13.5999 5.12204 13.3583 4.0335 12.8751C2.94444 12.3919 2.3999 11.8058 2.3999 11.1167V9.5503C2.3999 9.87244 2.5527 10.1807 2.8583 10.4751C3.1639 10.7695 3.5751 11.0306 4.0919 11.2583C4.60817 11.486 5.20524 11.6666 5.8831 11.7999C6.56097 11.9332 7.26657 11.9999 7.9999 11.9999C8.73324 11.9999 9.43884 11.9332 10.1167 11.7999C10.7946 11.6666 11.3916 11.486 11.9079 11.2583C12.4247 11.0306 12.8359 10.7695 13.1415 10.4751C13.4471 10.1807 13.5999 9.87244 13.5999 9.5503V11.1167C13.5999 11.8058 13.0554 12.3919 11.9663 12.8751C10.8778 13.3583 9.55564 13.5999 7.9999 13.5999Z" fill="white"/>
</g>
</svg>
