<svg xmlns="http://www.w3.org/2000/svg" width="16" height="16" viewBox="0 0 16 16" fill="none">
    <path
        d="M12.8516 3.88457C11.9593 3.47514 11.0024 3.17349 10.0019 3.00072C9.98372 2.99739 9.96552 3.00572 9.95613 3.02239C9.83307 3.24126 9.69676 3.52681 9.6013 3.75124C8.52524 3.59014 7.45469 3.59014 6.40069 3.75124C6.30521 3.52182 6.16395 3.24126 6.04033 3.02239C6.03095 3.00628 6.01275 2.99795 5.99453 3.00072C4.99461 3.17294 4.03774 3.47459 3.14488 3.88457C3.13715 3.88791 3.13052 3.89347 3.12613 3.90068C1.31115 6.61223 0.813946 9.25712 1.05786 11.8692C1.05896 11.882 1.06613 11.8942 1.07607 11.902C2.27354 12.7814 3.4335 13.3153 4.57191 13.6691C4.59013 13.6747 4.60944 13.668 4.62103 13.653C4.89032 13.2853 5.13037 12.8975 5.33619 12.4897C5.34834 12.4659 5.33675 12.4375 5.31192 12.4281C4.93116 12.2836 4.5686 12.1075 4.21984 11.9076C4.19226 11.8915 4.19005 11.852 4.21543 11.8331C4.28882 11.7781 4.36223 11.7209 4.43231 11.6631C4.44499 11.6526 4.46265 11.6503 4.47756 11.657C6.76875 12.7031 9.24923 12.7031 11.5134 11.657C11.5283 11.6498 11.546 11.652 11.5592 11.6626C11.6293 11.7203 11.7027 11.7781 11.7766 11.8331C11.802 11.852 11.8003 11.8915 11.7728 11.9076C11.424 12.1114 11.0614 12.2836 10.6801 12.4275C10.6553 12.437 10.6443 12.4659 10.6564 12.4897C10.8666 12.8969 11.1067 13.2847 11.371 13.6525C11.3821 13.668 11.4019 13.6747 11.4201 13.6691C12.5641 13.3153 13.724 12.7814 14.9215 11.902C14.932 11.8942 14.9386 11.8826 14.9397 11.8698C15.2316 8.8499 14.4508 6.2267 12.8698 3.90124C12.8659 3.89347 12.8593 3.88791 12.8516 3.88457ZM5.67835 10.2787C4.98854 10.2787 4.42016 9.64544 4.42016 8.86769C4.42016 8.08994 4.97752 7.45665 5.67835 7.45665C6.38468 7.45665 6.94755 8.0955 6.93651 8.86769C6.93651 9.64544 6.37915 10.2787 5.67835 10.2787ZM10.3303 10.2787C9.64048 10.2787 9.0721 9.64544 9.0721 8.86769C9.0721 8.08994 9.62944 7.45665 10.3303 7.45665C11.0366 7.45665 11.5995 8.0955 11.5885 8.86769C11.5885 9.64544 11.0366 10.2787 10.3303 10.2787Z"
        fill="#5865F2" />
</svg>