<svg xmlns="http://www.w3.org/2000/svg" width="16" height="16" viewBox="0 0 16 16" fill="none">
  <g clip-path="url(#clip0_954_21995)">
    <path d="M7.96664 1C4.17825 1 0.988525 4.07889 0.988525 7.87795V15L7.96529 14.9933C11.7537 14.9933 14.8264 11.7957 14.8264 7.99798C14.8264 4.20027 11.751 1 7.96664 1Z" stroke="currentColor" stroke-width="1.33"/>
    <path d="M8.03376 3.66211C6.53536 3.663 5.14793 4.4541 4.38131 5.74471C3.61469 7.03532 3.58196 8.63507 4.29515 9.95611L3.52563 12.4376L6.2889 11.8118C7.87125 12.5265 9.72805 12.2055 10.9802 11.0008C12.2324 9.79615 12.6287 7.94955 11.9815 6.33527C11.3342 4.72098 9.77333 3.66296 8.0378 3.66211H8.03376Z" stroke="currentColor" stroke-width="1.33"/>
  </g>
  <defs>
    <clipPath id="clip0_954_21995">
      <rect width="15.8147" height="16" fill="white"/>
    </clipPath>
  </defs>
</svg>