<svg width="16" height="16" viewBox="0 0 16 16" fill="none" xmlns="http://www.w3.org/2000/svg">
<rect width="16" height="16" rx="4" fill="currentColor"/>
<mask id="mask0_81_9671" style="mask-type:alpha" maskUnits="userSpaceOnUse" x="0" y="0" width="16" height="16">
<rect width="16" height="16" fill="#fff"/>
</mask>
<g mask="url(#mask0_81_9671)">
<path d="M5.3663 11.1663H8.6663C8.81083 11.1663 8.9359 11.1135 9.0415 11.0079C9.1471 10.9023 9.1999 10.7775 9.1999 10.6335C9.1999 10.489 9.1471 10.3639 9.0415 10.2583C8.9359 10.1527 8.81083 10.0999 8.6663 10.0999H5.3663C5.2223 10.0999 5.0975 10.1527 4.9919 10.2583C4.8863 10.3639 4.8335 10.489 4.8335 10.6335C4.8335 10.7775 4.8863 10.9023 4.9919 11.0079C5.0975 11.1135 5.2223 11.1663 5.3663 11.1663ZM5.3663 8.5335H10.6335C10.7775 8.5335 10.9023 8.4807 11.0079 8.3751C11.1135 8.2695 11.1663 8.14443 11.1663 7.9999C11.1663 7.85536 11.1135 7.7303 11.0079 7.6247C10.9023 7.5191 10.7775 7.4663 10.6335 7.4663H5.3663C5.2223 7.4663 5.0975 7.5191 4.9919 7.6247C4.8863 7.7303 4.8335 7.85536 4.8335 7.9999C4.8335 8.14443 4.8863 8.2695 4.9919 8.3751C5.0975 8.4807 5.2223 8.5335 5.3663 8.5335ZM5.3663 5.8999H10.6335C10.7775 5.8999 10.9023 5.8471 11.0079 5.7415C11.1135 5.6359 11.1663 5.51083 11.1663 5.3663C11.1663 5.2223 11.1135 5.0975 11.0079 4.9919C10.9023 4.8863 10.7775 4.8335 10.6335 4.8335H5.3663C5.2223 4.8335 5.0975 4.8863 4.9919 4.9919C4.8863 5.0975 4.8335 5.2223 4.8335 5.3663C4.8335 5.51083 4.8863 5.6359 4.9919 5.7415C5.0975 5.8471 5.2223 5.8999 5.3663 5.8999ZM3.5999 13.6663C3.24416 13.6663 2.94416 13.5442 2.6999 13.2999C2.45563 13.0556 2.3335 12.7556 2.3335 12.3999V3.5999C2.3335 3.24416 2.45563 2.94416 2.6999 2.6999C2.94416 2.45563 3.24416 2.3335 3.5999 2.3335H12.3999C12.7556 2.3335 13.0556 2.45563 13.2999 2.6999C13.5442 2.94416 13.6663 3.24416 13.6663 3.5999V12.3999C13.6663 12.7556 13.5442 13.0556 13.2999 13.2999C13.0556 13.5442 12.7556 13.6663 12.3999 13.6663H3.5999ZM3.5999 12.5999H12.3999C12.4442 12.5999 12.4887 12.5778 12.5335 12.5335C12.5778 12.4887 12.5999 12.4442 12.5999 12.3999V3.5999C12.5999 3.55563 12.5778 3.5111 12.5335 3.4663C12.4887 3.42203 12.4442 3.3999 12.3999 3.3999H3.5999C3.55563 3.3999 3.5111 3.42203 3.4663 3.4663C3.42203 3.5111 3.3999 3.55563 3.3999 3.5999V12.3999C3.3999 12.4442 3.42203 12.4887 3.4663 12.5335C3.5111 12.5778 3.55563 12.5999 3.5999 12.5999Z" fill="white"/>
</g>
</svg>
