<svg width="20" height="20" viewBox="0 0 41 40" fill="none" xmlns="http://www.w3.org/2000/svg">
<g id="download">
<mask id="mask0_101_20734" style="mask-type:alpha" maskUnits="userSpaceOnUse" x="0" y="0" width="41" height="40">
<rect id="Bounding box" x="0.5" width="40" height="40" fill="currentColor"/>
</mask>
<g mask="url(#mask0_101_20734)">
<path id="download_2" d="M20.4948 25.6453C20.3202 25.6453 20.1595 25.6143 20.0128 25.5523C19.8661 25.4903 19.7247 25.3913 19.5886 25.2553L14.2628 19.9295C14.062 19.7287 13.9618 19.4828 13.9621 19.1918C13.9625 18.9009 14.0684 18.6496 14.28 18.4381C14.4915 18.2266 14.7415 18.1194 15.0299 18.1165C15.3184 18.1137 15.5684 18.218 15.7799 18.4295L19.453 22.1198V8.25854C19.453 7.96137 19.5537 7.71258 19.755 7.51217C19.9564 7.31178 20.2064 7.21158 20.505 7.21158C20.8036 7.21158 21.0519 7.31178 21.2499 7.51217C21.4479 7.71258 21.5469 7.96137 21.5469 8.25854V22.1198L25.2371 18.4295C25.438 18.2287 25.6853 18.127 25.9791 18.1245C26.2729 18.122 26.5256 18.2266 26.7371 18.4381C26.9486 18.6496 27.0544 18.8982 27.0544 19.1838C27.0544 19.4694 26.9486 19.718 26.7371 19.9295L21.4113 25.2553C21.2752 25.3913 21.1321 25.4903 20.982 25.5523C20.8319 25.6143 20.6695 25.6453 20.4948 25.6453ZM10.6068 32.5C9.8905 32.5 9.27694 32.2446 8.76617 31.7338C8.25539 31.223 8 30.6095 8 29.8931V25.985C8 25.6878 8.10069 25.439 8.30208 25.2386C8.50344 25.0382 8.75343 24.938 9.05204 24.938C9.35065 24.938 9.59896 25.0382 9.79696 25.2386C9.99496 25.439 10.094 25.6878 10.094 25.985V29.8931C10.094 30.0213 10.1474 30.1389 10.2542 30.2457C10.3611 30.3526 10.4786 30.406 10.6068 30.406H30.3931C30.5213 30.406 30.6388 30.3526 30.7457 30.2457C30.8525 30.1389 30.906 30.0213 30.906 29.8931V25.985C30.906 25.6878 31.0066 25.439 31.208 25.2386C31.4094 25.0382 31.6594 24.938 31.958 24.938C32.2566 24.938 32.5049 25.0382 32.7029 25.2386C32.9009 25.439 32.9999 25.6878 32.9999 25.985V29.8931C32.9999 30.6095 32.7445 31.223 32.2337 31.7338C31.723 32.2446 31.1094 32.5 30.3931 32.5H10.6068Z" fill="currentColor"/>
</g>
</g>
</svg>
