<svg xmlns="http://www.w3.org/2000/svg" width="16" height="16" viewBox="0 0 16 16" fill="none">
    <path
        d="M5.00016 13.3333C5.36835 13.3333 5.66683 13.0349 5.66683 12.6667C5.66683 12.2985 5.36835 12 5.00016 12C4.63197 12 4.3335 12.2985 4.3335 12.6667C4.3335 13.0349 4.63197 13.3333 5.00016 13.3333Z"
        stroke="currentColor" stroke-width="1.33333" stroke-linecap="round" stroke-linejoin="round" />
    <path
        d="M5.00016 8.66683C5.36835 8.66683 5.66683 8.36835 5.66683 8.00016C5.66683 7.63197 5.36835 7.3335 5.00016 7.3335C4.63197 7.3335 4.3335 7.63197 4.3335 8.00016C4.3335 8.36835 4.63197 8.66683 5.00016 8.66683Z"
        stroke="currentColor" stroke-width="1.33333" stroke-linecap="round" stroke-linejoin="round" />
    <path
        d="M5.00016 3.99984C5.36835 3.99984 5.66683 3.70136 5.66683 3.33317C5.66683 2.96498 5.36835 2.6665 5.00016 2.6665C4.63197 2.6665 4.3335 2.96498 4.3335 3.33317C4.3335 3.70136 4.63197 3.99984 5.00016 3.99984Z"
        stroke="currentColor" stroke-width="1.33333" stroke-linecap="round" stroke-linejoin="round" />
    <path
        d="M11.0002 13.3333C11.3684 13.3333 11.6668 13.0349 11.6668 12.6667C11.6668 12.2985 11.3684 12 11.0002 12C10.632 12 10.3335 12.2985 10.3335 12.6667C10.3335 13.0349 10.632 13.3333 11.0002 13.3333Z"
        stroke="currentColor" stroke-width="1.33333" stroke-linecap="round" stroke-linejoin="round" />
    <path
        d="M11.0002 8.66683C11.3684 8.66683 11.6668 8.36835 11.6668 8.00016C11.6668 7.63197 11.3684 7.3335 11.0002 7.3335C10.632 7.3335 10.3335 7.63197 10.3335 8.00016C10.3335 8.36835 10.632 8.66683 11.0002 8.66683Z"
        stroke="currentColor" stroke-width="1.33333" stroke-linecap="round" stroke-linejoin="round" />
    <path
        d="M11.0002 3.99984C11.3684 3.99984 11.6668 3.70136 11.6668 3.33317C11.6668 2.96498 11.3684 2.6665 11.0002 2.6665C10.632 2.6665 10.3335 2.96498 10.3335 3.33317C10.3335 3.70136 10.632 3.99984 11.0002 3.99984Z"
        stroke="currentColor" stroke-width="1.33333" stroke-linecap="round" stroke-linejoin="round" />
</svg>