<svg width="16" height="16" viewBox="0 0 16 16" fill="none" xmlns="http://www.w3.org/2000/svg">
<mask id="mask0_21_1063" style="mask-type:alpha" maskUnits="userSpaceOnUse" x="0" y="0" width="16" height="16">
<rect width="16" height="16" fill="#D9D9D9"/>
</mask>
<g mask="url(#mask0_21_1063)">
<path d="M7.33333 8.00002C6.6 8.00002 5.97222 7.73891 5.45 7.21669C4.92778 6.69447 4.66667 6.06669 4.66667 5.33335C4.66667 4.60002 4.92778 3.97224 5.45 3.45002C5.97222 2.9278 6.6 2.66669 7.33333 2.66669C8.06667 2.66669 8.69444 2.9278 9.21667 3.45002C9.73889 3.97224 10 4.60002 10 5.33335C10 6.06669 9.73889 6.69447 9.21667 7.21669C8.69444 7.73891 8.06667 8.00002 7.33333 8.00002ZM2 11.4667C2 11.0889 2.09444 10.7417 2.28333 10.425C2.47222 10.1084 2.73333 9.86669 3.06667 9.70002C3.73333 9.36669 4.425 9.11113 5.14167 8.93335C5.85833 8.75558 6.58889 8.66669 7.33333 8.66669C7.72222 8.66669 8.11111 8.70002 8.5 8.76669C8.88889 8.83335 9.27778 8.91113 9.66667 9.00002L8.53333 10.1334C8.33333 10.0778 8.13333 10.0417 7.93333 10.025C7.73333 10.0084 7.53333 10 7.33333 10C6.68889 10 6.05833 10.0778 5.44167 10.2334C4.825 10.3889 4.23333 10.6111 3.66667 10.9C3.55556 10.9556 3.47222 11.0334 3.41667 11.1334C3.36111 11.2334 3.33333 11.3445 3.33333 11.4667V12H7.33333V12.65C7.33333 12.65 7.33333 13 7.33333 13.3334H3.33333C2.96667 13.3334 2.65278 13.2028 2.39167 12.9417C2.13056 12.6806 2 12.3667 2 12V11.4667ZM7.33333 6.66669C7.7 6.66669 8.01389 6.53613 8.275 6.27502C8.53611 6.01391 8.66667 5.70002 8.66667 5.33335C8.66667 4.96669 8.53611 4.6528 8.275 4.39169C8.01389 4.13058 7.7 4.00002 7.33333 4.00002C6.96667 4.00002 6.65278 4.13058 6.39167 4.39169C6.13056 4.6528 6 4.96669 6 5.33335C6 5.70002 6.13056 6.01391 6.39167 6.27502C6.65278 6.53613 6.96667 6.66669 7.33333 6.66669Z" fill="currentColor" stroke="none"/>
<path d="M7.93333 13.27V12.17C7.93333 12.0811 7.95 11.995 7.98333 11.9117C8.01667 11.8283 8.06667 11.7533 8.13333 11.6867L11.6167 8.22001C11.7167 8.12001 11.8278 8.04779 11.95 8.00334C12.0722 7.9589 12.1944 7.93668 12.3167 7.93668C12.45 7.93668 12.5778 7.96168 12.7 8.01168C12.8222 8.06168 12.9333 8.13668 13.0333 8.23668L13.65 8.85334C13.7389 8.95334 13.8083 9.06445 13.8583 9.18668C13.9083 9.3089 13.9333 9.43112 13.9333 9.55334C13.9333 9.67557 13.9111 9.80057 13.8667 9.92834C13.8222 10.0561 13.75 10.17 13.65 10.27L10.1833 13.7367C10.1167 13.8033 10.0417 13.8533 9.95833 13.8867C9.875 13.92 9.78889 13.9367 9.7 13.9367H8.6C8.41111 13.9367 8.25278 13.8728 8.125 13.745C7.99722 13.6172 7.93333 13.4589 7.93333 13.27ZM8.93333 12.9367H9.56667L11.5833 10.9033L11.2833 10.5867L10.9667 10.2867L8.93333 12.3033V12.9367ZM11.2833 10.5867L10.9667 10.2867L11.5833 10.9033L11.2833 10.5867Z" fill="currentColor" stroke="none"/>
</g>
</svg>