<svg xmlns="http://www.w3.org/2000/svg" width="16" height="16" viewBox="0 0 16 16" fill="none">
  <path d="M8.00004 7.33333C9.4728 7.33333 10.6667 6.13943 10.6667 4.66667C10.6667 3.19391 9.4728 2 8.00004 2C6.52728 2 5.33337 3.19391 5.33337 4.66667C5.33337 6.13943 6.52728 7.33333 8.00004 7.33333Z" stroke="currentColor" stroke-width="1.33333" stroke-linecap="round" stroke-linejoin="round"/>
  <path d="M8.66663 10H5.33329C4.62605 10 3.94777 10.281 3.44767 10.781C2.94758 11.2811 2.66663 11.9594 2.66663 12.6667V14" stroke="currentColor" stroke-width="1.33333" stroke-linecap="round" stroke-linejoin="round"/>
  <path d="M11.8449 9.94469L8.45389 13.3357L8 15L9.66428 14.5461L13.0677 11.1427M11.8449 9.94469L12.5389 9.25068C12.6184 9.1712 12.7128 9.10816 12.8166 9.06515C12.9204 9.02214 13.0317 9 13.1441 9C13.2565 9 13.3678 9.02214 13.4717 9.06515C13.5755 9.10816 13.6698 9.1712 13.7493 9.25068C13.8288 9.33015 13.8918 9.4245 13.9349 9.52834C13.9779 9.63218 14 9.74348 14 9.85587C14 9.96826 13.9779 10.0796 13.9349 10.1834C13.8918 10.2872 13.8288 10.3816 13.7493 10.4611L13.0677 11.1427M11.8449 9.94469L13.0677 11.1427" stroke="currentColor" stroke-width="1.33333" stroke-linecap="round" stroke-linejoin="round"/>
</svg>