<svg xmlns="http://www.w3.org/2000/svg" width="16" height="16" viewBox="0 0 16 16" fill="none">
  <path d="M6.60002 2.8267C7.05891 2.71929 7.52873 2.6656 8.00002 2.6667C12.6667 2.6667 15.3334 8.00004 15.3334 8.00004C14.9287 8.75711 14.4461 9.46986 13.8934 10.1267M9.41335 9.41337C9.23026 9.60987 9.00945 9.76747 8.76412 9.87679C8.51879 9.9861 8.25396 10.0449 7.98541 10.0496C7.71687 10.0544 7.45013 10.005 7.20109 9.90436C6.95206 9.80378 6.72583 9.65406 6.53592 9.46414C6.346 9.27422 6.19628 9.048 6.09569 8.79896C5.9951 8.54993 5.9457 8.28318 5.95044 8.01464C5.95518 7.7461 6.01396 7.48127 6.12327 7.23594C6.23258 6.9906 6.39019 6.7698 6.58669 6.5867M11.96 11.96C10.8204 12.8287 9.43276 13.3099 8.00002 13.3334C3.33335 13.3334 0.666687 8.00004 0.666687 8.00004C1.49595 6.45463 2.64611 5.10444 4.04002 4.04004L11.96 11.96Z" stroke="currentColor" stroke-width="1.33333" stroke-linecap="round" stroke-linejoin="round"/>
  <path d="M2 2L14 14" stroke="currentColor" stroke-width="1.33333" stroke-linecap="round" stroke-linejoin="round"/>
</svg>