<svg width="48" height="48" viewBox="0 0 48 48" fill="white" xmlns="http://www.w3.org/2000/svg">
<rect width="48" height="48" fill="#F4F4F5"/>
<path d="M28.6667 18H19.3333C18.597 18 18 18.597 18 19.3333V28.6667C18 29.403 18.597 30 19.3333 30H28.6667C29.403 30 30 29.403 30 28.6667V19.3333C30 18.597 29.403 18 28.6667 18Z" stroke="#9AA2AF" stroke-linecap="round" stroke-linejoin="round"/>
<path d="M30.0002 25.9998L26.6668 22.6665L19.3335 29.9998" stroke="#9AA2AF" stroke-linecap="round" stroke-linejoin="round"/>
<path d="M21.6665 22.6665C22.2188 22.6665 22.6665 22.2188 22.6665 21.6665C22.6665 21.1142 22.2188 20.6665 21.6665 20.6665C21.1142 20.6665 20.6665 21.1142 20.6665 21.6665C20.6665 22.2188 21.1142 22.6665 21.6665 22.6665Z" stroke="#9AA2AF" stroke-linecap="round" stroke-linejoin="round"/>
</svg>