<svg viewBox="0 0 80 80" fill="none" xmlns="http://www.w3.org/2000/svg">
<path d="M44.6667 34H35.3333C34.597 34 34 34.597 34 35.3333V44.6667C34 45.403 34.597 46 35.3333 46H44.6667C45.403 46 46 45.403 46 44.6667V35.3333C46 34.597 45.403 34 44.6667 34Z" stroke="currentColor" stroke-width="1.33333" stroke-linecap="round" stroke-linejoin="round"/>
<path d="M46.0002 41.9998L42.6668 38.6665L35.3335 45.9998" stroke="currentColor" stroke-width="1.33333" stroke-linecap="round" stroke-linejoin="round"/>
<path d="M37.6665 38.6665C38.2188 38.6665 38.6665 38.2188 38.6665 37.6665C38.6665 37.1142 38.2188 36.6665 37.6665 36.6665C37.1142 36.6665 36.6665 37.1142 36.6665 37.6665C36.6665 38.2188 37.1142 38.6665 37.6665 38.6665Z" stroke="currentColor" stroke-width="1.33333" stroke-linecap="round" stroke-linejoin="round"/>
</svg>