<svg xmlns="http://www.w3.org/2000/svg" width="32" height="32" viewBox="0 0 32 32" fill="none">
  <g clip-path="url(#clip0_840_16415)">
    <path d="M15.95 0.000129358H27.968C28.4991 -0.00414152 29.0257 0.0973827 29.5171 0.29878C30.0085 0.500176 30.4549 0.797413 30.8302 1.17315C31.2055 1.54889 31.5022 1.9956 31.7031 2.48724C31.9039 2.97887 32.0049 3.50557 32 4.03663V16.0501C32 24.8611 24.861 32.0001 16.05 32.0001H15.959C13.8639 32.002 11.7889 31.5909 9.8527 30.7904C7.91651 29.9898 6.15707 28.8156 4.67495 27.3347C3.19283 25.8539 2.01709 24.0954 1.21494 22.1599C0.412778 20.2244 -6.64988e-05 18.1498 8.0341e-09 16.0546C8.0341e-09 7.21863 7.127 0.0911294 15.95 0.000129358Z" fill="#25C16F"/>
    <path d="M15.95 7.12695C11.9035 7.12695 8.62305 10.407 8.62305 14.454V19.436C8.65205 20.7695 9.72605 21.8435 11.0595 21.8725H13.132V16.1495H10.332V14.5495C10.502 11.5365 12.9955 9.17945 16.014 9.17945C19.0325 9.17945 21.52 11.532 21.69 14.5495V16.1495H18.85V21.8765H20.7225V21.9675C20.7025 23.2045 19.705 24.2025 18.4725 24.2175H16.236C16.054 24.2175 15.854 24.3085 15.854 24.49C15.8584 24.5898 15.9001 24.6845 15.9708 24.7552C16.0415 24.8259 16.1361 24.8675 16.236 24.872H18.486C20.0885 24.862 21.385 23.5655 21.395 21.963V21.781C21.9303 21.6604 22.4081 21.36 22.7488 20.93C23.0895 20.4999 23.2726 19.9661 23.2675 19.4175V14.5495C23.3585 10.4225 20.0855 7.13145 15.9405 7.13145L15.95 7.12695Z" fill="white"/>
  </g>
  <defs>
    <clipPath id="clip0_840_16415">
      <rect width="32" height="32" fill="white"/>
    </clipPath>
  </defs>
</svg>