<svg width="24" height="24" viewBox="0 0 24 24" fill="none" xmlns="http://www.w3.org/2000/svg">
    <path d="M20 12V22H4V12" fill="#FF4A3F"/>
    <path d="M20 12V22H4V12" stroke="#1F293A" stroke-width="0.4" stroke-linecap="round" stroke-linejoin="round"/>
    <path d="M22 7H2V12H22V7Z" fill="#FF4A3F" stroke="#1F293A" stroke-width="0.4" stroke-linecap="round" stroke-linejoin="round"/>
    <path d="M12 22V7" stroke="#FCBE3A" stroke-width="1.33333" stroke-linecap="round" stroke-linejoin="round"/>
    <path d="M12 7H16.5C17.163 7 17.7989 6.73661 18.2678 6.26777C18.7366 5.79893 19 5.16304 19 4.5C19 3.83696 18.7366 3.20107 18.2678 2.73223C17.7989 2.26339 17.163 2 16.5 2C13 2 12 7 12 7Z" stroke="#FCBE3A" stroke-width="1.33333" stroke-linecap="round" stroke-linejoin="round"/>
    <path d="M12 7H7.5C6.83696 7 6.20107 6.73661 5.73223 6.26777C5.26339 5.79893 5 5.16304 5 4.5C5 3.83696 5.26339 3.20107 5.73223 2.73223C6.20107 2.26339 6.83696 2 7.5 2C11 2 12 7 12 7Z" stroke="#FCBE3A" stroke-width="1.33333" stroke-linecap="round" stroke-linejoin="round"/>
</svg>
