<svg xmlns="http://www.w3.org/2000/svg" width="36" height="32" viewBox="0 0 36 32" fill="none">
  <g clip-path="url(#clip0_881_27798)">
    <path d="M18.0102 32.0101L24.3971 12.3531H11.6232L18.0102 32.0101Z" fill="#E24329"/>
    <path d="M18.0102 32.0101L11.6232 12.3531H2.672L18.0102 32.0101Z" fill="#FC6D26"/>
    <path d="M2.67197 12.3531L0.731078 18.3267C0.554047 18.8715 0.747938 19.4684 1.21142 19.8051L18.0101 32.0101L2.67197 12.3531Z" fill="#FCA326"/>
    <path d="M2.672 12.3532H11.6232L7.77629 0.513932C7.57844 -0.0953436 6.71659 -0.0951783 6.51873 0.513932L2.672 12.3532Z" fill="#E24329"/>
    <path d="M18.0101 32.0101L24.3971 12.3531H33.3483L18.0101 32.0101Z" fill="#FC6D26"/>
    <path d="M33.3483 12.3531L35.2892 18.3267C35.4662 18.8715 35.2723 19.4684 34.8089 19.8051L18.0101 32.0101L33.3483 12.3531Z" fill="#FCA326"/>
    <path d="M33.3483 12.3532H24.3971L28.244 0.513932C28.4419 -0.0953436 29.3037 -0.0951783 29.5016 0.513932L33.3483 12.3532Z" fill="#E24329"/>
  </g>
  <defs>
    <clipPath id="clip0_881_27798">
      <rect width="34.7119" height="32" fill="white" transform="translate(0.644043)"/>
    </clipPath>
  </defs>
</svg>