<svg xmlns="http://www.w3.org/2000/svg" width="32" height="24" viewBox="0 0 32 24" fill="none">
  <g clip-path="url(#clip0_858_13960)">
    <path d="M2.18182 23.9998H7.27273V11.6362L0 6.18164V21.818C0 23.0253 0.978182 23.9998 2.18182 23.9998Z" fill="#4285F4"/>
    <path d="M24.7275 23.9998H29.8184C31.0257 23.9998 32.0003 23.0216 32.0003 21.818V6.18164L24.7275 11.6362" fill="#34A853"/>
    <path d="M24.7275 2.18215V11.6367L32.0003 6.18215V3.27306C32.0003 0.574876 28.9203 -0.963306 26.7639 0.654875" fill="#FBBC04"/>
    <path d="M7.27246 11.6362V2.18164L15.9997 8.7271L24.727 2.18164V11.6362L15.9997 18.1816" fill="#EA4335"/>
    <path d="M0 3.27306V6.18215L7.27273 11.6367V2.18215L5.23636 0.654875C3.07636 -0.963306 0 0.574876 0 3.27306Z" fill="#C5221F"/>
  </g>
  <defs>
    <clipPath id="clip0_858_13960">
      <rect width="32" height="24" fill="white"/>
    </clipPath>
  </defs>
</svg>