<svg xmlns="http://www.w3.org/2000/svg" width="32" height="32" viewBox="0 0 32 32" fill="none">
  <g clip-path="url(#clip0_881_27812)">
    <path d="M24.421 7.57895H7.57886V24.4211H24.421V7.57895Z" fill="white"/>
    <path d="M24.4212 32L32.0001 24.4211L28.2106 23.7745L24.4212 24.4211L23.7295 27.8873L24.4212 32Z" fill="#EA4335"/>
    <path d="M0 24.4211V29.4737C0 30.8695 1.13053 32 2.52632 32H7.57895L8.35711 28.2105L7.57895 24.4211L3.4499 23.7745L0 24.4211Z" fill="#188038"/>
    <path d="M32.0001 7.57895V2.52632C32.0001 1.13053 30.8696 0 29.4738 0H24.4212C23.96 1.87948 23.7295 3.26264 23.7295 4.14947C23.7295 5.03629 23.96 6.17945 24.4212 7.57895C26.0973 8.05894 27.3605 8.29893 28.2106 8.29893C29.0607 8.29893 30.3239 8.05894 32.0001 7.57895Z" fill="#1967D2"/>
    <path d="M32.0001 7.57895H24.4211V24.4211H32.0001V7.57895Z" fill="#FBBC04"/>
    <path d="M24.421 24.4211H7.57886V32H24.421V24.4211Z" fill="#34A853"/>
    <path d="M24.4211 0H2.52632C1.13053 0 0 1.13053 0 2.52632V24.4211H7.57895V7.57895H24.4211V0Z" fill="#4285F4"/>
    <path d="M11.0336 20.6442C10.4042 20.219 9.96836 19.5979 9.73047 18.7768L11.1915 18.1747C11.3242 18.68 11.5557 19.0716 11.8863 19.3495C12.2147 19.6274 12.6147 19.7642 13.082 19.7642C13.5599 19.7642 13.9705 19.619 14.3136 19.3284C14.6568 19.0379 14.8294 18.6674 14.8294 18.219C14.8294 17.76 14.6484 17.3853 14.2863 17.0947C13.9242 16.8042 13.4694 16.659 12.9263 16.659H12.082V15.2126H12.8399C13.3073 15.2126 13.701 15.0863 14.021 14.8337C14.341 14.5811 14.501 14.2358 14.501 13.7958C14.501 13.4042 14.3578 13.0926 14.0715 12.859C13.7852 12.6253 13.4231 12.5074 12.9831 12.5074C12.5536 12.5074 12.2126 12.6211 11.9599 12.8505C11.7075 13.0806 11.5177 13.3711 11.4084 13.6947L9.96205 13.0926C10.1536 12.5495 10.5052 12.0695 11.021 11.6547C11.5368 11.24 12.1957 11.0316 12.9957 11.0316C13.5873 11.0316 14.1199 11.1453 14.5915 11.3747C15.0631 11.6042 15.4336 11.9221 15.701 12.3263C15.9684 12.7326 16.101 13.1874 16.101 13.6926C16.101 14.2084 15.9768 14.6442 15.7284 15.0021C15.4799 15.36 15.1747 15.6337 14.8126 15.8253V15.9116C15.2801 16.1044 15.6863 16.421 15.9873 16.8274C16.2926 17.2379 16.4463 17.7284 16.4463 18.3011C16.4463 18.8737 16.301 19.3853 16.0105 19.8337C15.7199 20.2821 15.3178 20.6358 14.8084 20.8926C14.2968 21.1495 13.722 21.28 13.0842 21.28C12.3452 21.2821 11.6631 21.0695 11.0336 20.6442ZM20.0084 13.3937L18.4042 14.5537L17.602 13.3368L20.4799 11.2611H21.5831V21.0526H20.0084V13.3937Z" fill="#4285F4"/>
  </g>
  <defs>
    <clipPath id="clip0_881_27812">
      <rect width="32" height="32" fill="white"/>
    </clipPath>
  </defs>
</svg>