<svg xmlns="http://www.w3.org/2000/svg" width="32" height="30" viewBox="0 0 32 30" fill="none">
  <g clip-path="url(#clip0_881_27829)">
    <path d="M2.41928 25.1917L3.83052 27.6293C4.12375 28.1425 4.54528 28.5457 5.04014 28.839C6.45753 27.0398 7.44418 25.6591 8.00008 24.6969C8.56421 23.7204 9.25762 22.1931 10.0803 20.115C7.8633 19.8231 6.18325 19.6772 5.04014 19.6772C3.94318 19.6772 2.26314 19.8231 0 20.115C0 20.6831 0.146624 21.2513 0.439867 21.7644L2.41928 25.1917Z" fill="#0066DA"/>
    <path d="M26.9602 28.839C27.455 28.5457 27.8766 28.1425 28.1698 27.6293L28.7563 26.6213L31.5604 21.7644C31.8537 21.2513 32.0003 20.6831 32.0003 20.115C29.7241 19.8231 28.0471 19.6772 26.9693 19.6772C25.8111 19.6772 24.1341 19.8231 21.9384 20.115C22.7513 22.2045 23.4355 23.7318 23.9911 24.6969C24.5515 25.6705 25.5412 27.0512 26.9602 28.839Z" fill="#EA4335"/>
    <path d="M16.0001 9.85139C17.6401 7.87069 18.7703 6.34338 19.3908 5.26945C19.8904 4.4047 20.4402 3.02401 21.0402 1.12737C20.5454 0.83412 19.9772 0.6875 19.3908 0.6875H12.6095C12.023 0.6875 11.4548 0.852448 10.96 1.12737C11.7232 3.30263 12.3709 4.85073 12.903 5.77167C13.4909 6.7894 14.5233 8.14931 16.0001 9.85139Z" fill="#00832D"/>
    <path d="M21.92 20.115H10.0803L5.04016 28.839C5.53502 29.1323 6.10318 29.2789 6.68968 29.2789H25.3107C25.8972 29.2789 26.4653 29.1139 26.9602 28.839L21.92 20.115Z" fill="#2684FC"/>
    <path d="M16.0002 9.85141L10.96 1.12738C10.4652 1.42062 10.0436 1.82382 9.75038 2.33702L0.439867 18.4655C0.146624 18.9787 0 19.5468 0 20.115H10.0803L16.0002 9.85141Z" fill="#00AC47"/>
    <path d="M26.9052 10.4013L22.2499 2.33702C21.9567 1.82382 21.5351 1.42062 21.0402 1.12738L16.0001 9.85141L21.92 20.115H31.982C31.982 19.5468 31.8353 18.9787 31.5421 18.4655L26.9052 10.4013Z" fill="#FFBA00"/>
  </g>
  <defs>
    <clipPath id="clip0_881_27829">
      <rect width="32" height="28.625" fill="white" transform="translate(0 0.6875)"/>
    </clipPath>
  </defs>
</svg>