<svg width="20" height="20" viewBox="0 0 20 20" fill="none" xmlns="http://www.w3.org/2000/svg">
<g id="google-cloud logo" clip-path="url(#clip0_1014_31614)">
<g id="Group">
<path id="Vector" d="M13.3011 6.31395L15.0396 4.57543L15.1554 3.8434C11.9874 0.962698 6.95139 1.28934 4.09553 4.52496C3.30225 5.42364 2.71373 6.54403 2.3999 7.70098L3.02256 7.61325L6.49951 7.03989L6.76795 6.76535C8.31459 5.06676 10.9297 4.83824 12.7154 6.28348L13.3011 6.31395Z" fill="#EA4335"/>
<path id="Vector_2" d="M17.5162 7.6504C17.1166 6.17884 16.2962 4.85595 15.1555 3.84399L12.7155 6.28399C13.7458 7.12587 14.3327 8.39415 14.3076 9.72439V10.1575C15.5069 10.1575 16.4792 11.1298 16.4792 12.3291C16.4792 13.5284 15.5069 14.4763 14.3076 14.4763H9.95828L9.53125 14.9399V17.5446L9.95828 17.9533H14.3076C17.4271 17.9776 19.9757 15.4928 20 12.3733C20.0147 10.4824 19.0824 8.70978 17.5162 7.6504Z" fill="#4285F4"/>
<path id="Vector_3" d="M5.615 17.9532H9.9582V14.4762H5.615C5.30555 14.4761 5.00586 14.4096 4.72445 14.281L4.10828 14.4701L2.35758 16.2086L2.20508 16.8003C3.18688 17.5416 4.38477 17.9585 5.615 17.9532Z" fill="#34A853"/>
<path id="Vector_4" d="M5.61487 6.67362C2.49526 6.69221 -0.0184913 9.23628 0.000102489 12.3558C0.0104931 14.0978 0.824087 15.7377 2.20495 16.7996L4.72432 14.2803C3.63127 13.7865 3.14557 12.5002 3.6394 11.4072C4.13315 10.3142 5.41956 9.82854 6.51245 10.3223C6.99409 10.5399 7.37979 10.9257 7.59737 11.4072L10.1167 8.88792C9.04479 7.48659 7.37916 6.66729 5.61487 6.67362Z" fill="#FBBC05"/>
</g>
</g>
<defs>
<clipPath id="clip0_1014_31614">
<rect width="20" height="20" fill="white"/>
</clipPath>
</defs>
</svg>
