<svg xmlns="http://www.w3.org/2000/svg" width="18" height="32" viewBox="0 0 18 32" fill="none">
  <path d="M9.26916 31.9355C5.0929 31.9966 1.68765 28.4146 1.76597 24.2757C1.79907 22.2849 2.61686 20.3876 4.04149 18.9967C5.46611 17.6057 7.38233 16.8334 9.37335 16.8479C13.3513 16.8587 16.6818 20.2726 16.7537 24.2541C16.8298 28.472 13.3527 32.0002 9.26916 31.9355ZM15.4092 24.4395C15.4344 21.0206 12.701 18.2297 9.30149 18.2038C5.90199 18.178 3.13123 20.9272 3.10249 24.3454C3.08486 25.9882 3.7203 27.5707 4.86913 28.7451C6.01796 29.9196 7.58613 30.5897 9.22892 30.6083C12.5911 30.6507 15.3841 27.8627 15.4092 24.4395ZM1.78106 9.08749C1.77443 8.27131 1.9293 7.46188 2.23677 6.70579C2.54424 5.94971 2.99822 5.26192 3.57259 4.68201C4.14696 4.1021 4.83036 3.64152 5.58346 3.32681C6.33655 3.01209 7.14446 2.84945 7.96066 2.84825C11.3523 2.84178 14.146 5.64272 14.151 9.05372C14.1568 12.5136 11.4069 15.3145 7.99515 15.3246C4.53314 15.3339 1.79112 12.5804 1.78106 9.08749ZM3.13986 9.04869C3.13368 9.68134 3.25217 10.309 3.48856 10.8959C3.72496 11.4827 4.07463 12.0173 4.51761 12.469C4.96059 12.9207 5.48821 13.2808 6.07034 13.5286C6.65247 13.7764 7.27771 13.9071 7.91037 13.9133C8.54302 13.9195 9.17069 13.801 9.75755 13.5646C10.3444 13.3282 10.879 12.9786 11.3307 12.5356C11.7824 12.0926 12.1425 11.565 12.3903 10.9828C12.6381 10.4007 12.7688 9.77547 12.775 9.14282C12.7923 6.44607 10.6581 4.24728 8.00378 4.22572C5.33577 4.20704 3.16069 6.36272 3.13986 9.04869ZM11.6167 1.26167C11.619 0.926071 11.7545 0.605124 11.9934 0.369437C12.1117 0.252736 12.2518 0.160479 12.4058 0.0979338C12.5598 0.0353886 12.7245 0.00377984 12.8907 0.00491219C13.0569 0.00604454 13.2212 0.0398959 13.3743 0.104533C13.5274 0.169171 13.6662 0.263329 13.7829 0.381631C13.8996 0.499933 13.9919 0.640063 14.0544 0.794019C14.117 0.947976 14.1486 1.11274 14.1475 1.27892C14.1493 1.44676 14.1175 1.61327 14.0541 1.76867C13.9907 1.92408 13.8968 2.06524 13.7781 2.18386C13.6593 2.30248 13.5181 2.39617 13.3626 2.45942C13.2071 2.52268 13.0406 2.55422 12.8727 2.5522C12.1614 2.54717 11.6167 1.9867 11.6167 1.26167Z" fill="#38B2A7"/>
</svg>