<svg xmlns="http://www.w3.org/2000/svg" width="32" height="32" viewBox="0 0 32 32" fill="none">
  <g clip-path="url(#clip0_926_22160)">
    <path d="M0 16C0 7.16344 7.16344 0 16 0C24.8366 0 32 7.16344 32 16C32 24.8366 24.8366 32 16 32C7.16344 32 0 24.8366 0 16Z" fill="#F54F35"/>
    <path d="M20.3783 7.80069L20.68 8.04268C21.7054 8.96097 22.3846 10.2668 22.6071 11.6216C22.6226 11.9118 22.6307 12.2024 22.6328 12.4931L22.6375 13.01L22.6395 13.5644L22.6422 14.1396C22.6438 14.5411 22.6447 14.9426 22.6453 15.3439C22.6469 15.9553 22.6519 16.5666 22.6568 17.1781C22.6579 17.569 22.6587 17.9598 22.6594 18.3505L22.6654 18.9009C22.6602 20.7663 22.1284 22.3763 20.8385 23.7641C20.1138 24.4375 19.3821 24.9377 18.4678 25.3131L18.0878 25.4811C16.6112 26.0152 14.856 25.8627 13.4106 25.3012C12.612 24.9223 11.9529 24.4781 11.3037 23.8803C11.8892 23.1597 12.4834 22.5439 13.2141 21.9698L13.7017 22.348C14.5888 22.9781 15.4745 23.1776 16.5574 23.0843C17.6654 22.8639 18.5403 22.3675 19.2639 21.4922C19.9284 20.4122 19.9946 19.5464 19.9852 18.2932L19.9871 17.7403C19.9876 17.356 19.9863 16.9718 19.9836 16.5875C19.9804 16.0016 19.9836 15.4157 19.9878 14.8299C19.9873 14.4553 19.9865 14.0808 19.9852 13.7062L19.9892 13.1789C19.9736 11.9059 19.7134 11.0758 18.9255 10.0792C17.8452 9.21029 16.8392 8.772 15.4368 8.8387C14.2703 9.02784 13.3228 9.58696 12.6066 10.5264C12.0156 11.4643 11.759 12.4288 11.9405 13.532C12.2893 14.7335 12.7395 15.7526 13.8509 16.3977C14.7819 16.885 15.585 16.9586 16.6271 16.9849L17.0719 17.0013C17.4311 17.0143 17.7903 17.0247 18.1494 17.0345V19.5818C15.4936 19.6889 13.4346 19.6859 11.3272 17.8547C10.009 16.534 9.20376 14.7423 9.14453 12.8753C9.20726 11.304 9.7702 10.0265 10.6668 8.75592L10.9356 8.34788C13.4844 5.66147 17.5206 5.48205 20.3783 7.80069Z" fill="#FEFBFB"/>
  </g>
  <defs>
    <clipPath id="clip0_926_22160">
      <rect width="32" height="32" fill="white"/>
    </clipPath>
  </defs>
</svg>