<svg xmlns="http://www.w3.org/2000/svg" width="32" height="32" viewBox="0 0 32 32" fill="none">
  <g clip-path="url(#clip0_881_27892)">
    <path d="M29.3632 15.2004C28.6503 13.9836 27.6331 12.9731 26.4115 12.2683C25.4789 11.7263 24.5145 11.382 23.4256 11.2331V7.3341C23.9537 7.11528 24.404 6.74307 24.7182 6.26561C25.0324 5.78814 25.1962 5.22738 25.1883 4.65583C25.1903 4.26986 25.1159 3.88732 24.9696 3.53017C24.8232 3.17303 24.6077 2.84833 24.3354 2.57472C24.0632 2.30112 23.7396 2.08401 23.3832 1.93586C23.0268 1.78771 22.6446 1.71145 22.2586 1.71145C21.4768 1.71145 20.7269 2.02135 20.1732 2.57325C19.6194 3.12515 19.3071 3.87404 19.3045 4.65583C19.3045 5.85214 19.9392 6.87266 21.0306 7.3341V11.2111C20.1266 11.3419 19.2495 11.6173 18.4329 12.0266L7.9957 4.1236C8.06895 3.84771 8.13242 3.56207 8.13242 3.26177C8.13242 1.45998 6.67244 0 4.87066 0C3.06887 0 1.61133 1.45998 1.61133 3.26177C1.61133 5.06355 3.07131 6.52354 4.8731 6.52354C5.48834 6.52354 6.0572 6.34287 6.54793 6.04746L7.23153 6.56504L16.5945 13.3156C16.0989 13.7697 15.6374 14.2873 15.2688 14.8684C14.5217 16.0525 14.0651 17.3538 14.0651 18.7747V19.0677C14.0684 20.0313 14.242 20.9868 14.5778 21.89C14.861 22.6615 15.2761 23.3646 15.7912 23.9994L12.6808 27.1171C11.7604 26.7753 10.7277 27.0024 10.0319 27.6982C9.55823 28.1694 9.29211 28.8115 9.29455 29.4804C9.29699 30.1494 9.55823 30.7866 10.0343 31.2627C10.5104 31.7388 11.1476 32.0024 11.8166 32.0024C12.4855 32.0024 13.1276 31.7388 13.5988 31.2627C14.07 30.7866 14.3386 30.1494 14.3361 29.4804C14.3359 29.2236 14.2964 28.9684 14.2189 28.7236L17.4319 25.5106C17.8713 25.8158 18.3474 26.0722 18.8601 26.2919C19.9139 26.7541 21.0518 26.9935 22.2025 26.995H22.4222C23.7699 26.995 25.0419 26.6777 26.2357 26.0307C27.4629 25.3726 28.4939 24.4014 29.2241 23.2157C29.9736 22.0194 30.3837 20.6937 30.3837 19.2361V19.1629C30.3837 17.7298 30.0517 16.4089 29.3583 15.198L29.3632 15.2004ZM25.4398 21.9437C24.5682 22.9129 23.5648 23.5111 22.432 23.5111H22.2171C21.5701 23.5111 20.9354 23.3329 20.3177 23.0057C19.6404 22.6535 19.0665 22.131 18.6526 21.4896C18.2034 20.8548 17.9592 20.1614 17.9592 19.4266V19.2068C17.9592 18.4842 18.0984 17.7981 18.4475 17.1511C18.8211 16.4187 19.3264 15.8938 19.9978 15.4568C20.6692 15.0198 21.3602 14.8098 22.1463 14.8098H22.2196C22.9276 14.8098 23.6039 14.949 24.2386 15.2737C24.8817 15.6119 25.4279 16.1085 25.8256 16.7166C26.2193 17.3264 26.4628 18.0208 26.536 18.743L26.5531 19.1995C26.5531 20.1932 26.1723 21.1136 25.413 21.9486L25.4398 21.9437Z" fill="#F8761F"/>
  </g>
  <defs>
    <clipPath id="clip0_881_27892">
      <rect width="32" height="32" fill="white"/>
    </clipPath>
  </defs>
</svg>