<svg width="48" height="48" viewBox="0 0 48 48" fill="none" xmlns="http://www.w3.org/2000/svg">
<g id="image">
<mask id="mask0_2199_254075" style="mask-type:alpha" maskUnits="userSpaceOnUse" x="0" y="0" width="48" height="48">
<rect id="Bounding box" width="48" height="48" fill="#D9D9D9"/>
</mask>
<g mask="url(#mask0_2199_254075)">
<path id="image_2" d="M10 42C8.9 42 7.95833 41.6083 7.175 40.825C6.39167 40.0417 6 39.1 6 38V10C6 8.9 6.39167 7.95833 7.175 7.175C7.95833 6.39167 8.9 6 10 6H38C39.1 6 40.0417 6.39167 40.825 7.175C41.6083 7.95833 42 8.9 42 10V38C42 39.1 41.6083 40.0417 40.825 40.825C40.0417 41.6083 39.1 42 38 42H10ZM14 34H34C34.4 34 34.7 33.8167 34.9 33.45C35.1 33.0833 35.0667 32.7333 34.8 32.4L29.3 25.05C29.1 24.7833 28.8333 24.65 28.5 24.65C28.1667 24.65 27.9 24.7833 27.7 25.05L22.5 32L18.8 27.05C18.6 26.7833 18.3333 26.65 18 26.65C17.6667 26.65 17.4 26.7833 17.2 27.05L13.2 32.4C12.9333 32.7333 12.9 33.0833 13.1 33.45C13.3 33.8167 13.6 34 14 34Z" fill="#9AA2AF"/>
</g>
</g>
</svg>
