<svg width="49" height="48" viewBox="0 0 49 48" fill="none" xmlns="http://www.w3.org/2000/svg">
    <mask id="mask0_81_24829" style="mask-type:alpha" maskUnits="userSpaceOnUse" x="0" y="0" width="49" height="48">
        <rect x="0.5" width="48" height="48" fill="currentColor"/>
    </mask>
    <g mask="url(#mask0_81_24829)">
        <path d="M11.25 40C10.4833 40 9.83333 39.7333 9.3 39.2C8.76667 38.6667 8.5 38.0167 8.5 37.25V10.75C8.5 9.98333 8.76667 9.33333 9.3 8.8C9.83333 8.26667 10.4833 8 11.25 8H37.75C38.5167 8 39.1667 8.26667 39.7 8.8C40.2333 9.33333 40.5 9.98333 40.5 10.75V37.25C40.5 38.0167 40.2333 38.6667 39.7 39.2C39.1667 39.7333 38.5167 40 37.75 40H11.25ZM11.25 38.45H37.75C38.0833 38.45 38.3667 38.3333 38.6 38.1C38.8333 37.8667 38.95 37.5833 38.95 37.25V31.3H31.2C30.5333 32.6333 29.5917 33.65 28.375 34.35C27.1583 35.05 25.8667 35.4 24.5 35.4C23.1333 35.4 21.8417 35.05 20.625 34.35C19.4083 33.65 18.4667 32.6333 17.8 31.3H10.05V37.25C10.05 37.5833 10.1667 37.8667 10.4 38.1C10.6333 38.3333 10.9167 38.45 11.25 38.45ZM24.5 33.85C25.6 33.85 26.6333 33.575 27.6 33.025C28.5667 32.475 29.3 31.6833 29.8 30.65C29.9667 30.3167 30.2333 30.0917 30.6 29.975C30.9667 29.8583 31.3333 29.8 31.7 29.8H38.95V10.75C38.95 10.4167 38.8333 10.1333 38.6 9.9C38.3667 9.66667 38.0833 9.55 37.75 9.55H11.25C10.9167 9.55 10.6333 9.66667 10.4 9.9C10.1667 10.1333 10.05 10.4167 10.05 10.75V29.8H17.3C17.6667 29.8 18.0333 29.8583 18.4 29.975C18.7667 30.0917 19.0333 30.3167 19.2 30.65C19.7 31.6833 20.4333 32.475 21.4 33.025C22.3667 33.575 23.4 33.85 24.5 33.85ZM11.25 38.45H10.05H38.95H37.75H11.25Z" fill="#1C1B1F"/>
    </g>
</svg>
