<svg xmlns="http://www.w3.org/2000/svg" width="16" height="16" viewBox="0 0 16 16" fill="none">
  <g clip-path="url(#clip0_2588_133)">
    <path fill-rule="evenodd" clip-rule="evenodd" d="M13.714 3.714C13.9744 3.97435 13.9744 4.39646 13.714 4.65681L11.8284 6.54246L12.7712 7.48527C12.8962 7.6103 12.9664 7.77987 12.9664 7.95668C12.9664 8.13349 12.8962 8.30306 12.7712 8.42809L10.6499 10.5494C10.0248 11.1745 9.17692 11.5257 8.29286 11.5257C7.40881 11.5257 6.56097 11.1745 5.93584 10.5494L5.93584 10.5494L5.46445 10.078C5.08938 10.4531 4.87867 10.9618 4.87866 11.4922C4.87867 12.0226 5.08938 12.5313 5.46445 12.9064C5.7248 13.1668 5.7248 13.5889 5.46445 13.8492C5.2041 14.1096 4.78199 14.1096 4.52164 13.8492C3.89652 13.2241 3.54533 12.3763 3.54533 11.4922C3.54533 10.6082 3.89651 9.76032 4.52162 9.1352L4.05023 8.66383L4.05022 8.66382C3.4251 8.0387 3.07391 7.19085 3.07391 6.3068C3.07391 5.42274 3.4251 4.5749 4.05022 3.94978L6.17152 1.82848C6.43186 1.56814 6.85397 1.56814 7.11432 1.82848L8.0571 2.77125L9.94277 0.885575C10.2031 0.625225 10.6252 0.625225 10.8856 0.885575C11.1459 1.14592 11.1459 1.56803 10.8856 1.82838L8.99991 3.71405L10.8855 5.59966L12.7712 3.714C13.0315 3.45365 13.4537 3.45365 13.714 3.714ZM4.99303 4.89259L6.64292 3.2427L11.357 7.95668L9.70707 9.60657C9.332 9.98164 8.82329 10.1924 8.29286 10.1924C7.76243 10.1924 7.25372 9.98164 6.87865 9.60657L6.87864 9.60656L5.93957 8.66752L5.93586 8.66378L5.9321 8.66005L4.99303 7.72101L4.99303 7.72101C4.61796 7.34593 4.40725 6.83723 4.40725 6.3068C4.40725 5.77637 4.61796 5.26766 4.99303 4.89259Z" fill="#374151"/>
  </g>
  <defs>
    <clipPath id="clip0_2588_133">
      <rect width="16" height="16" fill="white"/>
    </clipPath>
  </defs>
</svg>