<svg width="16" height="16" viewBox="0 0 16 16" fill="none" xmlns="http://www.w3.org/2000/svg">
<path d="M4.99307 13.3778C4.49298 12.8777 4.21203 12.1995 4.21203 11.4922C4.21203 10.785 4.49298 10.1067 4.99308 9.6066L5.46448 9.13519" stroke="currentColor" stroke-width="1.33333" stroke-linecap="round" stroke-linejoin="round"/>
<path d="M6.64292 2.29989L12.2998 7.95669L10.1785 10.078C9.67838 10.5781 9.0001 10.859 8.29286 10.859C7.58561 10.859 6.90733 10.5781 6.40724 10.078L4.52162 8.19242C4.02153 7.69233 3.74058 7.01405 3.74058 6.3068C3.74058 5.59956 4.02153 4.92128 4.52162 4.42119L6.64292 2.29989Z" stroke="currentColor" stroke-width="1.33333" stroke-linecap="round" stroke-linejoin="round"/>
<path d="M13.2426 4.18542L11.1212 6.30675" stroke="currentColor" stroke-width="1.33333" stroke-linecap="round" stroke-linejoin="round"/>
<path d="M10.4142 1.35699L8.29286 3.47831" stroke="currentColor" stroke-width="1.33333" stroke-linecap="round" stroke-linejoin="round"/>
</svg>