<svg width="16" height="16" viewBox="0 0 16 16" fill="none" xmlns="http://www.w3.org/2000/svg">
<path d="M4.57015 15C3.98772 14.4175 3.66051 13.6276 3.66051 12.8039C3.66051 11.9802 3.98772 11.1903 4.57015 10.6078L5.11917 10.0588" stroke="currentColor" stroke-width="1.33333" stroke-linecap="round" stroke-linejoin="round"/>
<path d="M6.49167 2.09812L13.0799 8.68627L10.6093 11.1568C10.0269 11.7393 9.23695 12.0665 8.41326 12.0665C7.58957 12.0665 6.79962 11.7393 6.21718 11.1568L4.02112 8.96081C3.43868 8.37838 3.11147 7.58843 3.11147 6.76474C3.11147 5.94105 3.43868 5.1511 4.02112 4.56867L6.49167 2.09812Z" stroke="currentColor" stroke-width="1.33333" stroke-linecap="round" stroke-linejoin="round"/>
<path d="M14.178 4.29413L11.7074 6.76471" stroke="currentColor" stroke-width="1.33333" stroke-linecap="round" stroke-linejoin="round"/>
<path d="M10.8839 1L8.41327 3.47058" stroke="currentColor" stroke-width="1.33333" stroke-linecap="round" stroke-linejoin="round"/>
</svg>
