<svg xmlns="http://www.w3.org/2000/svg" width="32" height="32" viewBox="0 0 32 32" fill="none">
  <g clip-path="url(#clip0_858_14755)">
    <path d="M27.7334 17.5935C27.7303 17.8744 27.6166 18.1428 27.4169 18.3403C27.2172 18.5379 26.9476 18.6487 26.6667 18.6487C26.3858 18.6487 26.1162 18.5379 25.9165 18.3403C25.7168 18.1428 25.603 17.8744 25.6 17.5935V8C25.603 7.7191 25.7168 7.45073 25.9165 7.25317C26.1162 7.05561 26.3858 6.9448 26.6667 6.9448C26.9476 6.9448 27.2172 7.05561 27.4169 7.25317C27.6166 7.45073 27.7303 7.7191 27.7334 8V17.5935ZM27.3611 24.2701C27.1963 24.4112 23.2449 27.727 16 27.727C8.75525 27.727 4.804 24.4111 4.63912 24.27C4.42437 24.0858 4.29155 23.8239 4.26986 23.5419C4.24818 23.2598 4.33941 22.9807 4.5235 22.7659C4.70719 22.5514 4.96845 22.4186 5.24996 22.3965C5.53148 22.3744 5.81025 22.4649 6.02513 22.6481C6.08775 22.7006 9.61625 25.5935 16.0001 25.5935C22.4641 25.5935 25.938 22.6798 25.9724 22.6504C26.4188 22.267 27.0934 22.3185 27.4765 22.766C27.6606 22.9808 27.7519 23.2599 27.7303 23.542C27.7087 23.824 27.5759 24.086 27.3611 24.2701ZM4.26662 8C4.26967 7.7191 4.38339 7.45073 4.5831 7.25317C4.78281 7.05561 5.05239 6.9448 5.33331 6.9448C5.61423 6.9448 5.88381 7.05561 6.08353 7.25317C6.28324 7.45073 6.39696 7.7191 6.4 8V17.5935C6.39696 17.8744 6.28324 18.1428 6.08353 18.3403C5.88381 18.5379 5.61423 18.6487 5.33331 18.6487C5.05239 18.6487 4.78281 18.5379 4.5831 18.3403C4.38339 18.1428 4.26967 17.8744 4.26662 17.5935V8ZM9.60013 5.86662C9.60441 5.58657 9.71867 5.31943 9.91824 5.1229C10.1178 4.92636 10.3867 4.81621 10.6667 4.81621C10.9468 4.81621 11.2157 4.92636 11.4153 5.1229C11.6148 5.31943 11.7291 5.58657 11.7334 5.86662V20.1168C11.7291 20.3968 11.6148 20.6639 11.4153 20.8605C11.2157 21.057 10.9468 21.1672 10.6667 21.1672C10.3867 21.1672 10.1178 21.057 9.91824 20.8605C9.71867 20.6639 9.60441 20.3968 9.60013 20.1168V5.86662ZM14.9334 5.32688C14.9334 5.1868 14.9609 5.04809 15.0145 4.91868C15.0681 4.78926 15.1467 4.67167 15.2457 4.57262C15.3448 4.47357 15.4624 4.39501 15.5918 4.34141C15.7212 4.28781 15.8599 4.26023 16 4.26025C16.1401 4.26022 16.2788 4.28778 16.4082 4.34137C16.5377 4.39496 16.6553 4.47353 16.7543 4.57258C16.8534 4.67163 16.932 4.78922 16.9856 4.91865C17.0392 5.04807 17.0668 5.18679 17.0667 5.32688V20.7935C17.0637 21.0744 16.95 21.3428 16.7503 21.5403C16.5506 21.7379 16.281 21.8487 16.0001 21.8487C15.7191 21.8487 15.4496 21.7379 15.2499 21.5403C15.0501 21.3428 14.9364 21.0744 14.9334 20.7935V5.32688ZM20.2668 5.86662C20.271 5.58657 20.3853 5.31943 20.5849 5.1229C20.7844 4.92636 21.0533 4.81621 21.3334 4.81621C21.6135 4.81621 21.8823 4.92636 22.0819 5.1229C22.2814 5.31943 22.3957 5.58657 22.4 5.86662V20.1168C22.3957 20.3968 22.2814 20.6639 22.0819 20.8605C21.8823 21.057 21.6135 21.1672 21.3334 21.1672C21.0533 21.1672 20.7844 21.057 20.5849 20.8605C20.3853 20.6639 20.271 20.3968 20.2668 20.1168V5.86662ZM28 0H4C1.79087 0 0 1.79087 0 4V28C0 30.209 1.79087 32 4 32H28C30.2091 32 32 30.209 32 28V4C32 1.79087 30.2091 0 28 0Z" fill="#1F8DED"/>
  </g>
  <defs>
    <clipPath id="clip0_858_14755">
      <rect width="32" height="32" fill="white"/>
    </clipPath>
  </defs>
</svg>