<svg xmlns="http://www.w3.org/2000/svg" width="24" height="24" viewBox="0 0 24 24" fill="none">
  <path d="M8.66477 11.1897V15.7276C8.66477 16.5377 8.08255 17.1946 7.3645 17.1934L5.25049 17.189L5.2616 11.9361V11.7663C5.27951 10.4525 6.34886 9.61526 7.3361 9.96409C7.57566 10.0493 7.79052 10.2074 7.96833 10.4074L8.66477 11.1897Z" fill="url(#paint0_linear_1690_18124)"/>
  <path d="M13.8294 11.5255V6.77764C13.8294 5.96698 14.4122 5.31005 15.1303 5.31191L17.2443 5.31561L17.2332 10.7791V10.9482C17.2147 12.2627 16.1453 13.0999 15.1587 12.7505C14.9185 12.6659 14.7043 12.5078 14.5265 12.3078L13.8294 11.5255Z" fill="url(#paint1_linear_1690_18124)"/>
  <path d="M17.2295 10.5873V14.5504C17.2394 16.4601 15.4761 17.7523 14.0887 16.9447C13.9202 16.8466 13.7683 16.7163 13.6312 16.5687L9.32294 11.9283L8.66478 11.1898L7.96834 10.4076C7.79053 10.2075 7.57567 10.0495 7.33611 9.96428C6.34887 9.61545 5.27952 10.4527 5.26161 11.7665V11.7227L5.26038 8.39421V7.84718C5.26038 5.78379 7.30956 4.62306 8.71479 5.89246L14.3666 12.0666C14.5024 12.2154 14.6642 12.3407 14.8488 12.4222C15.9095 12.8939 17.2295 11.9795 17.2295 10.5873Z" fill="url(#paint2_linear_1690_18124)"/>
  <path d="M17.2295 14.2905V14.5504C17.2394 16.4601 15.4761 17.7523 14.0887 16.9447C13.9202 16.8466 13.7683 16.7163 13.6312 16.5687L9.32294 11.9283L8.66478 11.1898L7.96834 10.4076C7.79053 10.2075 7.57567 10.0495 7.33611 9.96428C6.34887 9.61545 5.27952 10.4527 5.26161 11.7665V11.7227L5.26038 8.39421V8.34728C5.51845 7.14024 6.88973 6.61175 7.74731 7.54033L14.7407 15.1061C15.6008 16.0371 16.9764 15.5025 17.2295 14.2905Z" fill="url(#paint3_linear_1690_18124)"/>
  <path d="M17.1819 21.3811C17.1819 21.0162 17.2288 20.6631 17.3165 20.3266H3.44083C2.73946 20.3266 2.16465 19.7524 2.16465 19.0498V3.44101C2.16465 2.73963 2.73946 2.16482 3.44083 2.16482H19.0502C19.7522 2.16482 20.327 2.73963 20.327 3.44101V17.342C20.6536 17.2599 20.995 17.2161 21.347 17.2161C21.744 17.2161 22.1274 17.2722 22.491 17.3766V2.72543C22.491 1.22635 21.2649 0.000171661 19.7652 0.000171661H2.72587C1.22618 0.000171661 0 1.22635 0 2.72543V19.766C0 21.2644 1.22618 22.4912 2.72587 22.4912H17.3326C17.235 22.1374 17.1819 21.7658 17.1819 21.3811Z" fill="url(#paint4_linear_1690_18124)"/>
  <path d="M23.966 21.3809C23.966 22.8275 22.7936 24 21.347 24C19.9004 24 18.7273 22.8275 18.7273 21.3809C18.7273 19.9344 19.9004 18.7613 21.347 18.7613C22.7936 18.7613 23.966 19.9344 23.966 21.3809Z" fill="url(#paint5_linear_1690_18124)"/>
  <defs>
    <linearGradient id="paint0_linear_1690_18124" x1="6.53162" y1="13.8377" x2="-0.261755" y2="17.4434" gradientUnits="userSpaceOnUse">
      <stop stop-color="#4351E8"/>
      <stop offset="1" stop-color="#2A1EA5"/>
    </linearGradient>
    <linearGradient id="paint1_linear_1690_18124" x1="15.7742" y1="8.88301" x2="23.1977" y2="11.4864" gradientUnits="userSpaceOnUse">
      <stop stop-color="#4351E8"/>
      <stop offset="1" stop-color="#2A1EA5"/>
    </linearGradient>
    <linearGradient id="paint2_linear_1690_18124" x1="6.98172" y1="11.6091" x2="19.9558" y2="10.5855" gradientUnits="userSpaceOnUse">
      <stop stop-color="#4351E8"/>
      <stop offset="1" stop-color="#353495"/>
      <stop offset="1" stop-color="#2A1EA5"/>
    </linearGradient>
    <linearGradient id="paint3_linear_1690_18124" x1="1.89981" y1="7.64529" x2="16.2241" y2="14.8601" gradientUnits="userSpaceOnUse">
      <stop stop-color="#4351E8"/>
      <stop offset="1" stop-color="#2A1EA5"/>
    </linearGradient>
    <linearGradient id="paint4_linear_1690_18124" x1="4.51945" y1="4.55172" x2="25.0246" y2="24.9588" gradientUnits="userSpaceOnUse">
      <stop stop-color="#4351E8"/>
      <stop offset="1" stop-color="#2A1EA5"/>
    </linearGradient>
    <linearGradient id="paint5_linear_1690_18124" x1="24.8483" y1="23.453" x2="17.9462" y2="19.368" gradientUnits="userSpaceOnUse">
      <stop stop-color="#ED0029"/>
      <stop offset="1" stop-color="#F43760"/>
    </linearGradient>
  </defs>
</svg>