<svg xmlns="http://www.w3.org/2000/svg" width="24" height="24" viewBox="0 0 24 24" fill="none">
  <g clip-path="url(#clip0_1374_6489)">
    <path d="M8.69044 18.5059C8.69044 18.5059 7.77494 19.0383 9.34197 19.2184C11.2404 19.435 12.2106 19.4039 14.3027 19.008C14.3027 19.008 14.8527 19.3528 15.6209 19.6516C10.931 21.6615 5.00682 19.5351 8.69044 18.5059Z" fill="#5382A1"/>
    <path d="M8.11733 15.8828C8.11733 15.8828 7.09051 16.6429 8.6587 16.8051C10.6866 17.0143 12.2881 17.0314 15.0594 16.4978C15.0594 16.4978 15.4427 16.8864 16.0454 17.0989C10.3751 18.757 4.05939 17.2296 8.11733 15.8828Z" fill="#5382A1"/>
    <path d="M12.9485 11.434C14.1041 12.7644 12.6449 13.9616 12.6449 13.9616C12.6449 13.9616 15.5791 12.4469 14.2316 10.5501C12.973 8.78124 12.0078 7.90236 17.2328 4.87207C17.2328 4.87207 9.03134 6.92042 12.9485 11.434Z" fill="#E76F00"/>
    <path d="M19.1512 20.4458C19.1512 20.4458 19.8287 21.004 18.4051 21.4359C15.6981 22.2559 7.13813 22.5036 4.76021 21.4685C3.90541 21.0967 5.5084 20.5806 6.01264 20.4723C6.53852 20.3583 6.83903 20.3795 6.83903 20.3795C5.88841 19.7099 0.69458 21.6945 4.20082 22.2628C13.7629 23.8135 21.6315 21.5646 19.1512 20.4458Z" fill="#5382A1"/>
    <path d="M9.13068 13.165C9.13068 13.165 4.77654 14.1992 7.58877 14.5748C8.77618 14.7337 11.1433 14.6978 13.3481 14.513C15.1501 14.361 16.9594 14.0378 16.9594 14.0378C16.9594 14.0378 16.324 14.31 15.8643 14.6238C11.4428 15.7867 2.90119 15.2457 5.36021 14.0563C7.43981 13.051 9.13068 13.165 9.13068 13.165Z" fill="#5382A1"/>
    <path d="M16.9415 17.531C21.4362 15.1954 19.358 12.9509 17.9075 13.2533C17.5519 13.3272 17.3934 13.3914 17.3934 13.3914C17.3934 13.3914 17.5254 13.1846 17.7775 13.0951C20.6471 12.0862 22.854 16.0706 16.8511 17.6487C16.8511 17.6487 16.9207 17.5866 16.9415 17.531Z" fill="#5382A1"/>
    <path d="M14.2316 -0.0214844C14.2316 -0.0214844 16.7208 2.4686 11.8707 6.29763C7.98132 9.36918 10.9838 11.1205 11.8691 13.1214C9.59877 11.0731 7.93269 9.26994 9.05043 7.59172C10.691 5.12824 15.236 3.93386 14.2316 -0.0214844Z" fill="#E76F00"/>
    <path d="M9.57234 23.8597C13.8867 24.1359 20.5119 23.7065 20.6688 21.665C20.6688 21.665 20.3672 22.4389 17.1032 23.0535C13.4208 23.7465 8.8791 23.6656 6.18536 23.2215C6.18536 23.2215 6.73681 23.6779 9.57234 23.8597Z" fill="#5382A1"/>
  </g>
  <defs>
    <clipPath id="clip0_1374_6489">
      <rect width="24" height="24" fill="white"/>
    </clipPath>
  </defs>
</svg>