<svg xmlns="http://www.w3.org/2000/svg" width="24" height="24" viewBox="0 0 24 24" fill="none">
  <path d="M1 4C1 2.34315 2.34315 1 4 1H20C21.6569 1 23 2.34315 23 4V20C23 21.6569 21.6569 23 20 23H4C2.34315 23 1 21.6569 1 20V4Z" fill="#F7DF1E"/>
  <path d="M6.78458 19.3853L6.92362 19.3011C7.76888 18.7896 8.80916 19.4295 9.79715 19.4295C10.4765 19.4295 10.9048 19.1638 10.9048 18.1301V12.1343C10.9048 11.5634 11.3676 11.1006 11.9385 11.1006C12.5094 11.1006 12.9722 11.5634 12.9722 12.1343V18.1593C12.9722 20.3007 11.7171 21.2753 9.88578 21.2753C8.2319 21.2753 7.27186 20.4188 6.78455 19.3851" fill="black"/>
  <path d="M14.6298 19.9546C14.2745 19.5518 14.4587 18.9533 14.9235 18.6842C15.3991 18.4088 15.9838 18.5938 16.4019 18.9504C16.76 19.2558 17.2098 19.4444 17.8166 19.4444C18.6732 19.4444 19.2195 19.0161 19.2195 18.4254C19.2195 17.7165 18.6584 17.4654 17.7132 17.0521L17.1965 16.8304C15.7048 16.1955 14.7154 15.3981 14.7154 13.7145C14.7154 12.1639 15.8968 10.9824 17.7428 10.9824C18.7465 10.9824 19.5349 11.2494 20.154 11.9084C20.5 12.2767 20.3486 12.8503 19.9234 13.1233C19.4618 13.4197 18.8839 13.1903 18.4001 12.9318C18.2095 12.8299 17.995 12.7842 17.7428 12.7842C17.1374 12.7842 16.7534 13.1681 16.7534 13.6702C16.7534 14.2904 17.1374 14.5415 18.0233 14.9255L18.5402 15.147C20.2975 15.9002 21.287 16.6681 21.287 18.3958C21.287 20.2567 19.825 21.2756 17.861 21.2756C16.3937 21.2756 15.3232 20.7408 14.6298 19.9546Z" fill="black"/>
</svg>