<svg xmlns="http://www.w3.org/2000/svg" xmlns:xlink="http://www.w3.org/1999/xlink" viewBox="0,0,256,256" width="24px"
    height="24px">
    <defs>
        <linearGradient x1="35.753" y1="3.643" x2="11.271" y2="46.048" gradientUnits="userSpaceOnUse" id="color-1">
            <stop offset="0" stop-color="white"></stop>
            <stop offset="0.26" stop-color="white"></stop>
            <stop offset="0.678" stop-color="white"></stop>
            <stop offset="1" stop-color="white"></stop>
        </linearGradient>
        <linearGradient x1="32.281" y1="26.55" x2="23.433" y2="41.876" gradientUnits="userSpaceOnUse" id="color-2">
            <stop offset="0" stop-color="white"></stop>
            <stop offset="0.26" stop-color="white"></stop>
            <stop offset="0.678" stop-color="white"></stop>
            <stop offset="1" stop-color="white"></stop>
        </linearGradient>
    </defs>
    <g fill="none" fill-rule="none" stroke="none" stroke-width="1" stroke-linecap="butt" stroke-linejoin="miter"
        stroke-miterlimit="10" stroke-dasharray="" stroke-dashoffset="0" font-family="none" font-weight="none"
        font-size="none" text-anchor="none" style="mix-blend-mode: normal">
        <g transform="scale(5.33333,5.33333)">
            <path
                d="M22.903,3.286c0.679,-0.381 1.515,-0.381 2.193,0c3.355,1.883 13.451,7.551 16.807,9.434c0.679,0.38 1.097,1.084 1.097,1.846c0,3.766 0,15.101 0,18.867c0,0.762 -0.418,1.466 -1.097,1.847c-3.355,1.883 -13.451,7.551 -16.807,9.434c-0.679,0.381 -1.515,0.381 -2.193,0c-3.355,-1.883 -13.451,-7.551 -16.807,-9.434c-0.678,-0.381 -1.096,-1.084 -1.096,-1.846c0,-3.766 0,-15.101 0,-18.867c0,-0.762 0.418,-1.466 1.097,-1.847c3.354,-1.883 13.452,-7.551 16.806,-9.434z"
                fill="url(#color-1)" fill-rule="evenodd"></path>
            <path
                d="M23.987,46.221c-1.085,0 -2.171,-0.252 -3.165,-0.757c-2.22,-1.127 -5.118,-2.899 -7.921,-4.613c-1.973,-1.206 -3.836,-2.346 -5.297,-3.157c-2.223,-1.236 -3.604,-3.581 -3.604,-6.122v-14.945c0,-2.59 1.417,-4.955 3.699,-6.173c3.733,-1.989 9.717,-5.234 12.878,-7.01v0c2.11,-1.184 4.733,-1.184 6.844,0c3.576,2.007 10.369,6.064 14.252,8.513c1.457,0.917 2.327,2.496 2.327,4.225v15.818c0,2.4 -0.859,4.048 -2.553,4.895c-0.944,0.531 -2.628,1.576 -4.578,2.787c-3.032,1.882 -6.806,4.225 -9.564,5.705c-1.035,0.555 -2.177,0.834 -3.318,0.834zM21.556,5.188c-3.172,1.782 -9.174,5.038 -12.916,7.032c-1.628,0.868 -2.64,2.556 -2.64,4.407v14.945c0,1.814 0.987,3.49 2.576,4.373c1.498,0.832 3.378,1.981 5.369,3.199c2.77,1.693 5.634,3.445 7.783,4.536c1.458,0.739 3.188,0.717 4.631,-0.056c2.703,-1.451 6.447,-3.775 9.456,-5.643c1.97,-1.223 3.671,-2.279 4.696,-2.854c1.324,-0.663 1.489,-2.018 1.489,-3.127v-15.818c0,-1.037 -0.521,-1.983 -1.392,-2.532c-3.862,-2.435 -10.613,-6.467 -14.165,-8.461c-1.53,-0.858 -3.357,-0.858 -4.887,-0.001z"
                fill="#2f3a3e" fill-rule="nonzero"></path>
            <path
                d="M22.977,41.654l-0.057,-13.438c-0.011,-2.594 1.413,-4.981 3.701,-6.204l12.01,-6.416c1.998,-1.068 4.414,0.38 4.414,2.646v14.73c0,1.041 -0.54,2.008 -1.426,2.554l-14.068,8.668c-1.994,1.23 -4.564,-0.198 -4.574,-2.54z"
                fill="#2f3a3e" fill-rule="nonzero"></path>
            <path
                d="M28.799,26.274c0.123,-0.063 0.225,0.014 0.227,0.176l0.013,1.32c0.552,-0.219 1.032,-0.278 1.467,-0.177c0.095,0.024 0.136,0.153 0.098,0.306l-0.291,1.169c-0.024,0.089 -0.072,0.178 -0.132,0.233c-0.026,0.025 -0.052,0.044 -0.077,0.057c-0.04,0.02 -0.078,0.026 -0.114,0.019c-0.199,-0.045 -0.671,-0.148 -1.413,0.228c-0.778,0.395 -1.051,1.071 -1.046,1.573c0.007,0.601 0.315,0.783 1.377,0.802c1.416,0.023 2.027,0.643 2.042,2.067c0.016,1.402 -0.733,2.905 -1.876,3.826l0.025,1.308c0.001,0.157 -0.1,0.338 -0.225,0.4l-0.775,0.445c-0.123,0.063 -0.225,-0.014 -0.227,-0.172l-0.013,-1.286c-0.664,0.276 -1.334,0.342 -1.763,0.17c-0.082,-0.032 -0.117,-0.152 -0.084,-0.288l0.28,-1.181c0.022,-0.092 0.071,-0.186 0.138,-0.246c0.023,-0.023 0.048,-0.04 0.072,-0.053c0.044,-0.022 0.087,-0.027 0.124,-0.013c0.462,0.155 1.053,0.082 1.622,-0.206c0.722,-0.365 1.206,-1.102 1.198,-1.834c-0.007,-0.664 -0.366,-0.939 -1.241,-0.946c-1.113,0.002 -2.151,-0.216 -2.168,-1.855c-0.014,-1.35 0.688,-2.753 1.799,-3.641l-0.013,-1.319c-0.001,-0.162 0.098,-0.34 0.225,-0.405z"
                fill="url(#color-2)" fill-rule="nonzero"></path>
            <path
                d="M37.226,34.857l-3.704,2.185c-0.109,0.061 -0.244,-0.019 -0.244,-0.143v-1.252c0,-0.113 0.061,-0.217 0.16,-0.273l3.704,-2.185c0.111,-0.061 0.246,0.019 0.246,0.145v1.248c0,0.115 -0.062,0.219 -0.162,0.275"
                fill="#3ab14a" fill-rule="nonzero"></path>
        </g>
    </g>
</svg>