<svg xmlns="http://www.w3.org/2000/svg" width="24" height="24" viewBox="0 0 24 24" fill="none">
  <mask id="mask0_1374_6435" style="mask-type:luminance" maskUnits="userSpaceOnUse" x="0" y="4" width="24" height="15">
    <path d="M0.47998 11.7592C0.47998 15.6923 5.63777 18.8809 12 18.8809C18.3622 18.8809 23.52 15.6923 23.52 11.7592C23.52 7.82603 18.3622 4.63748 12 4.63748C5.63777 4.63748 0.47998 7.82608 0.47998 11.7592Z" fill="white"/>
  </mask>
  <g mask="url(#mask0_1374_6435)">
    <path d="M0.47998 11.7592C0.47998 15.6923 5.63777 18.8809 12 18.8809C18.3622 18.8809 23.52 15.6923 23.52 11.7592C23.52 7.82603 18.3622 4.63748 12 4.63748C5.63777 4.63748 0.47998 7.82608 0.47998 11.7592Z" fill="url(#paint0_radial_1374_6435)"/>
  </g>
  <mask id="mask1_1374_6435" style="mask-type:luminance" maskUnits="userSpaceOnUse" x="0" y="3" width="24" height="17">
    <path d="M0 3.82626H24V19.6914H0V3.82626Z" fill="white"/>
  </mask>
  <g mask="url(#mask1_1374_6435)">
    <path d="M12 18.3525C18.1137 18.3525 23.07 15.4008 23.07 11.7597C23.07 8.11854 18.1137 5.16684 12 5.16684C5.88624 5.16684 0.929993 8.11854 0.929993 11.7597C0.929993 15.4008 5.88624 18.3525 12 18.3525Z" fill="#777BB3"/>
  </g>
  <mask id="mask2_1374_6435" style="mask-type:luminance" maskUnits="userSpaceOnUse" x="0" y="3" width="24" height="17">
    <path d="M0 3.82626H24V19.6914H0V3.82626Z" fill="white"/>
  </mask>
  <g mask="url(#mask2_1374_6435)">
    <path d="M6.73895 12.576C7.24166 12.576 7.61695 12.467 7.85437 12.2523C8.08929 12.0398 8.25154 11.6715 8.33658 11.1578C8.41587 10.6776 8.38566 10.3423 8.24683 10.1614C8.10487 9.97659 7.79795 9.88287 7.33462 9.88287H6.53129L6.08587 12.576H6.73891L6.73895 12.576ZM4.11129 15.8935C4.074 15.8935 4.03858 15.8739 4.01487 15.84C4.00315 15.8233 3.99471 15.8037 3.99018 15.7827C3.98564 15.7617 3.98511 15.7398 3.98862 15.7185L5.16895 8.58168C5.17449 8.54821 5.18977 8.51806 5.21216 8.49637C5.23454 8.47469 5.26265 8.46284 5.29166 8.46284H7.83558C8.63508 8.46284 9.23016 8.71746 9.6042 9.22118C9.98024 9.72701 10.0964 10.4342 9.94933 11.3228C9.88949 11.6849 9.78658 12.0211 9.64349 12.3222C9.50016 12.6236 9.31083 12.9025 9.08058 13.1512C8.80491 13.4544 8.49291 13.6743 8.15408 13.8037C7.82062 13.9313 7.39241 13.9961 6.88125 13.9961H5.85116L5.557 15.7747C5.55146 15.8081 5.5362 15.8383 5.51382 15.86C5.49144 15.8817 5.46334 15.8935 5.43433 15.8936H4.11129V15.8935Z" fill="black"/>
    <path d="M6.63435 10.0294H7.33468C7.89385 10.0294 8.08814 10.1736 8.15414 10.2595C8.26364 10.4022 8.28431 10.703 8.21393 11.1295C8.13485 11.6069 7.98827 11.9454 7.77818 12.1355C7.5631 12.3301 7.21343 12.4287 6.73902 12.4287H6.23752L6.63435 10.0294ZM7.8356 8.31552H5.29168C5.23366 8.31553 5.17745 8.33926 5.13269 8.38263C5.08792 8.426 5.05738 8.48632 5.04631 8.55326L3.86598 15.6902C3.85895 15.7328 3.86001 15.7766 3.86909 15.8186C3.87816 15.8606 3.89503 15.8997 3.91848 15.9331C3.94193 15.9666 3.97139 15.9935 4.00473 16.012C4.03807 16.0304 4.07448 16.04 4.11135 16.04H5.43427C5.49229 16.04 5.54851 16.0163 5.59329 15.9729C5.63807 15.9296 5.66861 15.8692 5.67968 15.8023L5.95418 14.1426H6.88127C7.40552 14.1426 7.84685 14.0754 8.19293 13.943C8.54877 13.8071 8.87627 13.5767 9.16602 13.2582C9.40568 12.9991 9.60352 12.7082 9.75268 12.3936C9.90185 12.079 10.0098 11.728 10.0722 11.3505C10.227 10.4151 10.1012 9.66597 9.69843 9.12421C9.2996 8.58763 8.67285 8.31557 7.83568 8.31557M5.93431 12.7226H6.73902C7.27235 12.7226 7.66968 12.6045 7.93068 12.3683C8.19168 12.1321 8.36785 11.7379 8.45935 11.1855C8.54685 10.655 8.50702 10.2807 8.33977 10.0626C8.17252 9.84455 7.83727 9.73555 7.33477 9.73555H6.42835L5.93435 12.7225M7.83573 8.60932C8.60102 8.60932 9.15931 8.84534 9.51022 9.31738C9.86114 9.78942 9.96677 10.4484 9.82677 11.2944C9.76914 11.6429 9.67168 11.9615 9.53447 12.2502C9.39727 12.5389 9.21773 12.8032 8.99606 13.0427C8.73189 13.3332 8.43843 13.5402 8.11552 13.6636C7.7926 13.7872 7.38135 13.8488 6.88135 13.8488H5.74818L5.43443 15.7462H4.11152L5.29168 8.60932H7.83564" fill="white"/>
    <path d="M12.9827 13.996C12.9454 13.996 12.91 13.9765 12.8863 13.9426C12.8626 13.9087 12.8529 13.8642 12.86 13.8211L13.3821 10.6633C13.4318 10.363 13.4195 10.1474 13.3476 10.0563C13.3036 10.0007 13.1715 9.90729 12.7807 9.90729H11.8348L11.1783 13.8771C11.1728 13.9106 11.1575 13.9407 11.1351 13.9624C11.1127 13.9841 11.0846 13.996 11.0556 13.996H9.7431C9.72467 13.996 9.70646 13.9912 9.68979 13.982C9.67311 13.9727 9.65838 13.9593 9.64666 13.9425C9.63493 13.9258 9.62649 13.9063 9.62195 13.8853C9.61741 13.8643 9.61688 13.8424 9.6204 13.8211L10.8007 6.68422C10.8063 6.65075 10.8215 6.6206 10.8439 6.59891C10.8663 6.57723 10.8944 6.56537 10.9234 6.56538H12.2359C12.2544 6.56538 12.2726 6.57017 12.2893 6.57941C12.3059 6.58865 12.3207 6.60211 12.3324 6.61883C12.3441 6.63554 12.3525 6.6551 12.3571 6.6761C12.3616 6.6971 12.3622 6.71902 12.3586 6.74029L12.0738 8.46283H13.0914C13.8666 8.46283 14.3922 8.62344 14.6985 8.95387C15.011 9.29095 15.1079 9.82988 14.9879 10.556L14.4388 13.8772C14.4332 13.9107 14.418 13.9408 14.3956 13.9625C14.3732 13.9842 14.3451 13.9961 14.3161 13.9961H12.9827L12.9827 13.996Z" fill="black"/>
    <path d="M12.2359 6.41816H10.9234C10.8654 6.41816 10.8091 6.44188 10.7644 6.48525C10.7196 6.52863 10.689 6.58895 10.678 6.65589L9.49763 13.7928C9.4906 13.8353 9.49166 13.8791 9.50074 13.9211C9.50982 13.9631 9.52669 14.0022 9.55015 14.0357C9.5736 14.0691 9.60306 14.096 9.63641 14.1145C9.66976 14.133 9.70617 14.1426 9.74304 14.1426H11.0555C11.1136 14.1426 11.1698 14.1189 11.2146 14.0755C11.2593 14.0321 11.2899 13.9718 11.301 13.9048L11.9378 10.0539H12.7807C13.1708 10.0539 13.2527 10.1518 13.256 10.156C13.2796 10.1859 13.3108 10.3245 13.2594 10.6349L12.7373 13.7928C12.7303 13.8353 12.7313 13.8791 12.7404 13.9211C12.7495 13.9631 12.7664 14.0022 12.7898 14.0357C12.8133 14.0691 12.8427 14.096 12.8761 14.1145C12.9094 14.133 12.9458 14.1426 12.9827 14.1426H14.316C14.3741 14.1426 14.4303 14.1189 14.4751 14.0755C14.5198 14.0321 14.5504 13.9718 14.5615 13.9048L15.1106 10.5837C15.2395 9.80415 15.1293 9.21929 14.7831 8.84538C14.4528 8.48891 13.8995 8.31556 13.0915 8.31556H12.2255L12.4814 6.76798C12.4885 6.72544 12.4874 6.6816 12.4783 6.63959C12.4692 6.59759 12.4524 6.55847 12.4289 6.52503C12.4055 6.49159 12.376 6.46466 12.3427 6.44618C12.3093 6.4277 12.2729 6.41811 12.236 6.41811M12.236 6.71191L11.9223 8.60936H13.0915C13.8272 8.60936 14.3347 8.76028 14.614 9.06172C14.8933 9.36315 14.9769 9.85204 14.8653 10.5277L14.3162 13.8488H12.9828L13.5049 10.691C13.5643 10.3318 13.5425 10.0868 13.4393 9.95614C13.3362 9.8255 13.1166 9.76008 12.7808 9.76008H11.7317L11.0556 13.8488H9.74313L10.9235 6.71191H12.236" fill="white"/>
    <path d="M17.0646 12.576C17.5674 12.576 17.9426 12.467 18.1801 12.2523C18.415 12.0398 18.5772 11.6716 18.6623 11.1578C18.7416 10.6776 18.7114 10.3423 18.5725 10.1614C18.4306 9.97659 18.1236 9.88287 17.6603 9.88287H16.857L16.4116 12.576H17.0646L17.0646 12.576ZM14.4371 15.8935C14.3998 15.8935 14.3644 15.8739 14.3406 15.84C14.3289 15.8233 14.3205 15.8037 14.3159 15.7827C14.3114 15.7617 14.3108 15.7398 14.3144 15.7185L15.4947 8.58168C15.5002 8.54821 15.5155 8.51804 15.5379 8.49636C15.5603 8.47468 15.5884 8.46282 15.6174 8.46284H18.1613C18.9609 8.46284 19.5559 8.71746 19.93 9.22118C20.306 9.72701 20.4221 10.4341 20.2751 11.3228C20.2152 11.6849 20.1123 12.0211 19.9692 12.3222C19.8259 12.6236 19.6365 12.9025 19.4063 13.1512C19.1306 13.4544 18.8186 13.6743 18.4798 13.8037C18.1463 13.9313 17.7181 13.9961 17.2069 13.9961H16.1767L15.8827 15.7747C15.8772 15.8081 15.8619 15.8383 15.8395 15.86C15.8171 15.8817 15.789 15.8936 15.7599 15.8936H14.437L14.4371 15.8935Z" fill="black"/>
    <path d="M16.9601 10.0294H17.6604C18.2196 10.0294 18.4138 10.1736 18.4798 10.2595C18.5894 10.4022 18.6101 10.703 18.5396 11.1294C18.4606 11.6069 18.3139 11.9454 18.1039 12.1355C17.8888 12.3301 17.5391 12.4287 17.0647 12.4287H16.5633L16.9601 10.0294ZM18.1613 8.31552H15.6174C15.5594 8.31553 15.5032 8.33926 15.4584 8.38263C15.4136 8.426 15.3831 8.48632 15.372 8.55326L14.1917 15.6902C14.1847 15.7328 14.1858 15.7766 14.1948 15.8186C14.2039 15.8606 14.2208 15.8997 14.2442 15.9331C14.2677 15.9666 14.2971 15.9935 14.3305 16.012C14.3638 16.0304 14.4002 16.04 14.4371 16.04H15.76C15.818 16.04 15.8743 16.0163 15.919 15.9729C15.9638 15.9296 15.9944 15.8692 16.0054 15.8023L16.2799 14.1426H17.207C17.7312 14.1426 18.1726 14.0754 18.5186 13.943C18.8745 13.8071 19.202 13.5767 19.4918 13.2581C19.7315 12.9991 19.9288 12.7082 20.0784 12.3936C20.228 12.079 20.3355 11.728 20.3979 11.3505C20.5527 10.415 20.4269 9.66592 20.0241 9.12416C19.6253 8.58763 18.9986 8.31557 18.1614 8.31557M16.2601 12.7226H17.0647C17.5981 12.7226 17.9954 12.6045 18.2564 12.3683C18.5174 12.1321 18.6936 11.7379 18.7851 11.1855C18.8726 10.655 18.8328 10.2807 18.6655 10.0626C18.4982 9.84455 18.163 9.73555 17.6605 9.73555H16.7541L16.2601 12.7225M18.1614 8.60932C18.9267 8.60932 19.485 8.84534 19.8359 9.31738C20.1868 9.78942 20.2925 10.4484 20.1525 11.2944C20.0948 11.6429 19.9974 11.9615 19.8602 12.2502C19.723 12.5389 19.5434 12.8032 19.3218 13.0427C19.0576 13.3332 18.7641 13.5402 18.4412 13.6636C18.1183 13.7872 17.7071 13.8488 17.2071 13.8488H16.0739L15.7601 15.7462H14.4372L15.6176 8.60937H18.1615" fill="white"/>
  </g>
  <defs>
    <radialGradient id="paint0_radial_1374_6435" cx="0" cy="0" r="1" gradientUnits="userSpaceOnUse" gradientTransform="translate(7.39665 7.14128) scale(15.1274 17.7777)">
      <stop stop-color="#AEB2D5"/>
      <stop offset="0.3" stop-color="#AEB2D5"/>
      <stop offset="0.75" stop-color="#484C89"/>
      <stop offset="1" stop-color="#484C89"/>
    </radialGradient>
  </defs>
</svg>