<svg xmlns="http://www.w3.org/2000/svg" width="24" height="24" viewBox="0 0 24 24" fill="none">
  <path d="M2 5C2 3.34315 3.34315 2 5 2H19C20.6569 2 22 3.34315 22 5V19C22 20.6569 20.6569 22 19 22H5C3.34315 22 2 20.6569 2 19V5Z" fill="#F7DF1E"/>
  <path d="M6.7847 19.385L6.92374 19.3009C7.769 18.7893 8.80928 19.4293 9.79727 19.4293C10.4766 19.4293 10.9049 19.1635 10.9049 18.1299V12.1341C10.9049 11.5632 11.3677 11.1003 11.9386 11.1003C12.5095 11.1003 12.9724 11.5632 12.9724 12.1341V18.1591C12.9724 20.3004 11.7172 21.2751 9.8859 21.2751C8.23202 21.2751 7.27199 20.4185 6.78467 19.3848" fill="black"/>
  <path d="M14.6298 19.9543C14.2745 19.5515 14.4587 18.9531 14.9235 18.6839C15.3991 18.4086 15.9838 18.5936 16.4019 18.9502C16.76 19.2556 17.2098 19.4441 17.8166 19.4441C18.6732 19.4441 19.2195 19.0158 19.2195 18.4251C19.2195 17.7163 18.6584 17.4652 17.7132 17.0518L17.1965 16.8302C15.7048 16.1953 14.7154 15.3978 14.7154 13.7143C14.7154 12.1636 15.8968 10.9822 17.7428 10.9822C18.7465 10.9822 19.5349 11.2492 20.154 11.9081C20.5 12.2764 20.3486 12.85 19.9234 13.1231C19.4618 13.4195 18.8839 13.1901 18.4001 12.9315C18.2095 12.8297 17.995 12.7839 17.7428 12.7839C17.1374 12.7839 16.7534 13.1679 16.7534 13.6699C16.7534 14.2902 17.1374 14.5413 18.0233 14.9253L18.5402 15.1468C20.2975 15.9 21.287 16.6678 21.287 18.3956C21.287 20.2564 19.825 21.2753 17.861 21.2753C16.3937 21.2753 15.3232 20.7405 14.6298 19.9543Z" fill="black"/>
</svg>