<svg width="24" height="24" viewBox="0 0 24 24" fill="none" xmlns="http://www.w3.org/2000/svg">
  <g clip-path="url(#clip0_277_5004)">
    <path
      d="M9.22072 11.3245V15.1062C9.22072 15.7812 8.73554 16.3287 8.13717 16.3276L6.37549 16.324L6.38475 11.9466V11.8051C6.39967 10.7102 7.2908 10.0126 8.1135 10.3032C8.31313 10.3743 8.49218 10.506 8.64036 10.6727L9.22072 11.3245Z"
      fill="url(#paint0_linear_277_5004)" />
    <path
      d="M13.5244 11.6043V7.64771C13.5244 6.97216 14.0101 6.42472 14.6085 6.42626L16.3702 6.42935L16.3609 10.9822V11.1232C16.3455 12.2186 15.4543 12.9163 14.6322 12.6251C14.432 12.5546 14.2535 12.4229 14.1053 12.2562L13.5244 11.6043Z"
      fill="url(#paint1_linear_277_5004)" />
    <path
      d="M16.3581 10.8224V14.125C16.3663 15.7164 14.8969 16.7933 13.7408 16.1203C13.6003 16.0385 13.4737 15.9299 13.3595 15.8069L9.76926 11.9399L9.22079 11.3245L8.64043 10.6727C8.49225 10.506 8.3132 10.3742 8.11357 10.3032C7.29087 10.0125 6.39974 10.7102 6.38482 11.8051V11.7686L6.38379 8.99485V8.53899C6.38379 6.8195 8.09144 5.85223 9.26247 6.91006L13.9723 12.0551C14.0855 12.1791 14.2203 12.2836 14.3741 12.3515C15.258 12.7446 16.3581 11.9826 16.3581 10.8224Z"
      fill="url(#paint2_linear_277_5004)" />
    <path
      d="M16.3581 13.9084V14.125C16.3663 15.7164 14.8969 16.7933 13.7408 16.1203C13.6003 16.0385 13.4737 15.9299 13.3595 15.8069L9.76926 11.9399L9.22079 11.3245L8.64043 10.6727C8.49225 10.506 8.3132 10.3742 8.11357 10.3032C7.29087 10.0125 6.39974 10.7102 6.38482 11.8051V11.7686L6.38379 8.99485V8.95574C6.59885 7.94988 7.74158 7.50946 8.45623 8.28329L14.2841 14.5881C15.0008 15.364 16.1471 14.9184 16.3581 13.9084Z"
      fill="url(#paint3_linear_277_5004)" />
    <path
      d="M16.3183 19.8173C16.3183 19.5133 16.3574 19.219 16.4304 18.9386H4.86736C4.28288 18.9386 3.80387 18.4601 3.80387 17.8746V4.86726C3.80387 4.28278 4.28288 3.80377 4.86736 3.80377H17.8752C18.4602 3.80377 18.9392 4.28278 18.9392 4.86726V16.4514C19.2114 16.383 19.4959 16.3465 19.7891 16.3465C20.12 16.3465 20.4395 16.3933 20.7425 16.4802V4.27094C20.7425 3.02172 19.7207 1.9999 18.471 1.9999H4.27156C3.02181 1.9999 2 3.02172 2 4.27094V18.4714C2 19.7201 3.02181 20.7424 4.27156 20.7424H16.4438C16.3625 20.4476 16.3183 20.1379 16.3183 19.8173Z"
      fill="url(#paint4_linear_277_5004)" />
    <path
      d="M21.9716 19.8175C21.9716 21.0229 20.9945 22 19.789 22C18.5835 22 17.606 21.0229 17.606 19.8175C17.606 18.612 18.5835 17.6344 19.789 17.6344C20.9945 17.6344 21.9716 18.612 21.9716 19.8175Z"
      fill="url(#paint5_linear_277_5004)" />
  </g>
  <defs>
    <linearGradient id="paint0_linear_277_5004" x1="7.44309" y1="13.5313" x2="1.78195" y2="16.536"
      gradientUnits="userSpaceOnUse">
      <stop stop-color="#4351E8" />
      <stop offset="1" stop-color="#2A1EA5" />
    </linearGradient>
    <linearGradient id="paint1_linear_277_5004" x1="15.1451" y1="9.40218" x2="21.3313" y2="11.5717"
      gradientUnits="userSpaceOnUse">
      <stop stop-color="#4351E8" />
      <stop offset="1" stop-color="#2A1EA5" />
    </linearGradient>
    <linearGradient id="paint2_linear_277_5004" x1="7.81824" y1="11.6739" x2="18.63" y2="10.8209"
      gradientUnits="userSpaceOnUse">
      <stop stop-color="#4351E8" />
      <stop offset="1" stop-color="#353495" />
      <stop offset="1" stop-color="#2A1EA5" />
    </linearGradient>
    <linearGradient id="paint3_linear_277_5004" x1="3.58332" y1="8.37075" x2="15.5202" y2="14.3831"
      gradientUnits="userSpaceOnUse">
      <stop stop-color="#4351E8" />
      <stop offset="1" stop-color="#2A1EA5" />
    </linearGradient>
    <linearGradient id="paint4_linear_277_5004" x1="5.7662" y1="5.79286" x2="22.8538" y2="22.7987"
      gradientUnits="userSpaceOnUse">
      <stop stop-color="#4351E8" />
      <stop offset="1" stop-color="#2A1EA5" />
    </linearGradient>
    <linearGradient id="paint5_linear_277_5004" x1="22.7068" y1="21.5441" x2="16.9551" y2="18.14"
      gradientUnits="userSpaceOnUse">
      <stop stop-color="#ED0029" />
      <stop offset="1" stop-color="#F43760" />
    </linearGradient>
    <clipPath id="clip0_277_5004">
      <rect width="20" height="20" fill="white" transform="translate(2 2)" />
    </clipPath>
  </defs>
</svg>