<svg xmlns="http://www.w3.org/2000/svg" width="24" height="24" viewBox="0 0 24 24" fill="none">
  <path d="M20.3253 6.61167L12.5097 2.11327C12.3803 2.03236 12.2023 2 12.0081 2C11.8139 2 11.6359 2.04854 11.5065 2.11327L3.73946 6.62785C3.46438 6.78966 3.2702 7.19419 3.2702 7.50164V16.5146C3.2702 16.6926 3.30257 16.903 3.43202 17.081L20.7136 7.04856C20.6165 6.85438 20.4709 6.70875 20.3253 6.61167Z" fill="#659AD3"/>
  <path d="M3.38348 17.0646C3.46439 17.1941 3.57766 17.3073 3.69093 17.3721L11.4903 21.8866C11.6198 21.9675 11.7978 21.9999 11.9919 21.9999C12.1861 21.9999 12.3641 21.9514 12.4935 21.8866L20.2606 17.3721C20.5356 17.2103 20.7298 16.8057 20.7298 16.4983V7.4853C20.7298 7.33967 20.7136 7.17786 20.6327 7.03223L3.38348 17.0646Z" fill="#03599C"/>
  <path d="M15.4547 13.9579C14.7751 15.1554 13.4806 15.9644 12.0081 15.9644C9.82365 15.9644 8.04371 14.1845 8.04371 12C8.04371 9.81553 9.82365 8.03559 12.0081 8.03559C13.4806 8.03559 14.7751 8.84465 15.4547 10.0583L17.5583 8.84465C16.458 6.91908 14.3868 5.6084 12.0081 5.6084C8.4806 5.6084 5.61652 8.47249 5.61652 12C5.61652 15.5275 8.4806 18.3916 12.0081 18.3916C14.3706 18.3916 16.4418 17.0971 17.5421 15.1877L15.4547 13.9579Z" fill="white"/>
</svg>