<svg xmlns="http://www.w3.org/2000/svg" width="24" height="24" viewBox="0 0 24 24" fill="none">
  <path d="M12.325 23.2687C12.0044 23.2687 11.7051 23.1832 11.4272 23.0335L8.58407 21.3448C8.15653 21.1096 8.3703 21.0241 8.49856 20.9814C9.07573 20.789 9.18262 20.7462 9.78117 20.4042C9.8453 20.3614 9.93081 20.3828 9.99494 20.4256L12.1754 21.7296C12.2609 21.7723 12.3678 21.7723 12.4319 21.7296L20.9613 16.7915C21.0468 16.7488 21.0895 16.6632 21.0895 16.5564V6.70164C21.0895 6.59475 21.0468 6.50925 20.9613 6.46649L12.4319 1.54982C12.3464 1.50707 12.2395 1.50707 12.1754 1.54982L3.64602 6.46649C3.56051 6.50925 3.51776 6.61613 3.51776 6.70164V16.5564C3.51776 16.6419 3.56051 16.7488 3.64602 16.7915L5.97609 18.1382C7.23732 18.7795 8.02827 18.0314 8.02827 17.2832V7.55671C8.02827 7.42845 8.13515 7.30019 8.28479 7.30019H9.37501C9.50327 7.30019 9.63153 7.40707 9.63153 7.55671V17.2832C9.63153 18.9719 8.71233 19.9553 7.10906 19.9553C6.6174 19.9553 6.23261 19.9553 5.14239 19.4209L2.89783 18.1382C2.34203 17.8176 2 17.219 2 16.5777V6.72301C2 6.08171 2.34203 5.48316 2.89783 5.16251L11.4272 0.224457C11.9616 -0.0748189 12.6884 -0.0748189 13.2228 0.224457L21.7522 5.16251C22.308 5.48316 22.65 6.08171 22.65 6.72301V16.5777C22.65 17.219 22.308 17.8176 21.7522 18.1382L13.2228 23.0763C12.9449 23.2046 12.6243 23.2687 12.325 23.2687ZM14.9544 16.4922C11.2134 16.4922 10.4439 14.7821 10.4439 13.3285C10.4439 13.2002 10.5507 13.0719 10.7004 13.0719H11.812C11.9402 13.0719 12.0471 13.1574 12.0471 13.2857C12.2181 14.4187 12.7098 14.9745 14.9757 14.9745C16.7714 14.9745 17.541 14.5683 17.541 13.6064C17.541 13.0506 17.3272 12.6444 14.5268 12.3665C12.1968 12.1314 10.7431 11.6183 10.7431 9.75852C10.7431 8.027 12.1968 7.00091 14.6337 7.00091C17.3699 7.00091 18.7167 7.94149 18.8877 9.99367C18.8877 10.0578 18.8663 10.1219 18.8236 10.1861C18.7808 10.2288 18.7167 10.2716 18.6526 10.2716H17.541C17.4341 10.2716 17.3272 10.1861 17.3058 10.0792C17.0493 8.90345 16.3866 8.51867 14.6337 8.51867C12.667 8.51867 12.4319 9.20273 12.4319 9.71577C12.4319 10.3357 12.7098 10.5281 15.3605 10.8701C17.9899 11.2121 19.2297 11.7038 19.2297 13.5422C19.2084 15.4234 17.6692 16.4922 14.9544 16.4922Z" fill="#539E43"/>
</svg>