<svg xmlns="http://www.w3.org/2000/svg" width="24" height="24" viewBox="0 0 24 24" fill="none">
  <path d="M2 11.6171C2.00823 11.5902 2.01481 11.5625 2.01851 11.5348C2.03373 11.2506 2.03702 10.9632 2.06788 10.6787C2.11601 9.75736 2.42619 8.86867 2.96263 8.11449C3.20445 7.79018 3.51969 7.52663 3.88301 7.34502C4.24632 7.16341 4.64757 7.06882 5.05449 7.06885H11.7127C11.8422 7.06885 11.8422 7.06885 11.8422 6.94043V6.48181C11.8422 6.38724 11.8143 6.36604 11.725 6.36604H7.19284C7.1155 6.36604 7.08794 6.34443 7.08794 6.26494V4.02444C7.10275 3.69994 7.23933 3.39257 7.47052 3.16224C7.77756 2.8384 8.15987 2.5939 8.58412 2.45006C9.10224 2.26545 9.64092 2.14336 10.1885 2.08642C10.937 2.00173 11.6914 1.97923 12.4437 2.01916C13.2549 2.03424 14.0575 2.18182 14.8198 2.45617C15.3427 2.63092 15.8048 2.94896 16.1527 3.37341C16.4324 3.73005 16.5706 4.17581 16.5414 4.62655C16.5229 5.00568 16.5414 5.38765 16.5414 5.76963V7.88539C16.5414 8.30079 16.5414 8.71946 16.5229 9.13201C16.5199 9.5794 16.38 10.0153 16.1215 10.3822C15.8631 10.7491 15.4984 11.0296 15.0757 11.1866C14.6656 11.353 14.2259 11.4361 13.7827 11.4308H9.06832C8.5698 11.4214 8.07843 11.5494 7.64906 11.8006C7.09997 12.1425 6.7088 12.685 6.56014 13.3105C6.47068 13.6259 6.42596 13.952 6.42726 14.2795V16.3977C6.42726 16.5384 6.42726 16.5355 6.28534 16.5384C5.77317 16.5384 5.261 16.5539 4.74267 16.5384C4.23539 16.5181 3.75154 16.3214 3.37606 15.9827C2.9396 15.5894 2.61419 15.09 2.43195 14.5339C2.24725 14.0284 2.12997 13.5012 2.0831 12.9656C2.05225 12.6232 2.0399 12.2808 2.01851 11.9416C2.0145 11.9036 2.00832 11.8659 2 11.8287V11.6171Z" fill="#3772A4"/>
  <path d="M8.36359 4.73391C8.36486 4.91343 8.41927 5.08855 8.51993 5.23719C8.6206 5.38584 8.76302 5.50135 8.92924 5.56916C9.09547 5.63698 9.27805 5.65406 9.45397 5.61825C9.62988 5.58245 9.79126 5.49536 9.91775 5.36797C10.0442 5.24058 10.1302 5.07859 10.1647 4.90242C10.1993 4.72626 10.1809 4.54381 10.1119 4.37807C10.0429 4.21233 9.92642 4.07074 9.77706 3.97113C9.62771 3.87152 9.4522 3.81836 9.27268 3.81836C9.03101 3.82018 8.79986 3.91743 8.62958 4.08892C8.4593 4.26041 8.36369 4.49224 8.36359 4.73391Z" fill="black"/>
  <path d="M8.36359 4.72744C8.36359 4.60806 8.3871 4.48984 8.43279 4.37955C8.47847 4.26925 8.54543 4.16904 8.62985 4.08462C8.71427 4.00021 8.81448 3.93324 8.92478 3.88756C9.03507 3.84187 9.15328 3.81836 9.27267 3.81836C9.39205 3.81836 9.51026 3.84187 9.62056 3.88756C9.73085 3.93324 9.83107 4.00021 9.91548 4.08462C9.9999 4.16904 10.0669 4.26925 10.1125 4.37955C10.1582 4.48984 10.1817 4.60806 10.1817 4.72744C10.1817 4.96854 10.086 5.19977 9.91548 5.37025C9.745 5.54074 9.51377 5.63652 9.27267 5.63652C9.03156 5.63652 8.80034 5.54074 8.62985 5.37025C8.45936 5.19977 8.36359 4.96854 8.36359 4.72744Z" fill="white"/>
  <path d="M21.9997 12.382C21.9915 12.4089 21.9849 12.4366 21.9812 12.4647C21.966 12.7488 21.9627 13.0362 21.9318 13.3206C21.8836 14.2417 21.5734 15.1305 21.0369 15.8843C20.7953 16.209 20.4801 16.4731 20.1167 16.6552C19.7533 16.8372 19.3518 16.9323 18.9446 16.9326H12.2849C12.1553 16.9326 12.1553 16.9326 12.1553 17.0609V17.5195C12.1553 17.614 12.1832 17.6356 12.2725 17.6356H16.8061C16.8831 17.6356 16.9111 17.6568 16.9111 17.7363V19.9763C16.896 20.3007 16.7596 20.608 16.5284 20.8383C16.2212 21.1621 15.8386 21.4066 15.4141 21.5504C14.8969 21.7347 14.3593 21.8567 13.8127 21.9139C13.0638 21.9987 12.3092 22.0211 11.5566 21.9812C10.7456 21.9663 9.94266 21.8187 9.18032 21.5442C8.65735 21.3695 8.19509 21.0516 7.84715 20.6272C7.5674 20.2706 7.42909 19.825 7.45831 19.3743C7.47682 18.9953 7.45831 18.6134 7.45831 18.2315V16.1162C7.45831 15.7009 7.45831 15.2823 7.47682 14.8698C7.47974 14.4226 7.61965 13.9867 7.87805 13.6199C8.13645 13.2531 8.50117 12.9727 8.92397 12.8157C9.3342 12.6493 9.77399 12.5663 10.2172 12.5715H14.9298C15.4285 12.581 15.9199 12.453 16.3494 12.2019C16.8993 11.8591 17.2906 11.3156 17.4386 10.6889C17.528 10.3737 17.5728 10.0476 17.5715 9.72014V7.60239C17.5715 7.46178 17.5715 7.46504 17.7134 7.46178C18.2257 7.46178 18.738 7.4467 19.2565 7.46178C19.7639 7.48229 20.2479 7.67927 20.6234 8.01812C21.0599 8.41143 21.3854 8.91069 21.5677 9.46663C21.7518 9.97398 21.868 10.503 21.9133 11.0403C21.9442 11.3826 21.9565 11.725 21.9783 12.0641C21.9825 12.1012 21.9886 12.1379 21.9969 12.1741C21.9989 12.2414 21.9997 12.3107 21.9997 12.382Z" fill="#FFDA4B"/>
  <path d="M15.6362 19.2659C15.6349 19.0864 15.5805 18.9113 15.4799 18.7626C15.3792 18.614 15.2368 18.4985 15.0706 18.4306C14.9043 18.3628 14.7218 18.3457 14.5458 18.3815C14.3699 18.4173 14.2085 18.5044 14.082 18.6318C13.9556 18.7592 13.8696 18.9212 13.8351 19.0974C13.8005 19.2735 13.8189 19.456 13.8879 19.6217C13.9569 19.7875 14.0734 19.9291 14.2227 20.0287C14.3721 20.1283 14.5476 20.1814 14.7271 20.1814C14.9688 20.1796 15.1999 20.0824 15.3702 19.9109C15.5405 19.7394 15.6361 19.5076 15.6362 19.2659Z" fill="black"/>
  <path d="M15.6362 19.2724C15.6362 19.5135 15.5404 19.7447 15.37 19.9152C15.1995 20.0857 14.9682 20.1814 14.7271 20.1814C14.486 20.1814 14.2548 20.0857 14.0843 19.9152C13.9138 19.7447 13.8181 19.5135 13.8181 19.2724C13.8181 19.0313 13.9138 18.8 14.0843 18.6295C14.2548 18.4591 14.486 18.3633 14.7271 18.3633C14.9682 18.3633 15.1995 18.4591 15.37 18.6295C15.5404 18.8 15.6362 19.0313 15.6362 19.2724Z" fill="white"/>
</svg>