<svg xmlns="http://www.w3.org/2000/svg" width="32" height="32" viewBox="0 0 32 32" fill="none">
  <g clip-path="url(#clip0_858_14536)">
    <path d="M31.6989 30.3151L25.6749 24.29C25.4846 24.1035 25.2288 23.999 24.9624 23.999C24.6959 23.999 24.4401 24.1035 24.2498 24.29L18.2258 30.3151C18.0821 30.452 17.9836 30.6295 17.9432 30.8238C17.9029 31.0182 17.9227 31.2202 18 31.4031C18.0773 31.5859 18.2084 31.7408 18.376 31.8473C18.5435 31.9538 18.7395 32.0067 18.9378 31.9991H30.9869C31.1841 32.004 31.3782 31.9494 31.544 31.8425C31.7097 31.7356 31.8395 31.5812 31.9163 31.3995C31.9931 31.2178 32.0135 31.0172 31.9747 30.8238C31.9359 30.6304 31.8398 30.4531 31.6989 30.3151Z" fill="#C3C6CC"/>
    <path d="M31.8987 8.67475L30.0117 3.07272C29.9265 2.81938 29.7908 2.58598 29.6127 2.38672L0.228516 31.7699C0.400958 31.9242 0.626211 32.0062 0.857518 31.9989H9.20356C9.43682 32 9.66801 31.9551 9.88389 31.8667C10.0998 31.7784 10.2961 31.6483 10.4616 31.4839L31.4987 10.4468C31.7273 10.2202 31.8865 9.93309 31.9573 9.61914C32.0282 9.30519 32.0078 8.97752 31.8987 8.67475Z" fill="#E1E3E6"/>
    <path d="M28.9266 1.98609L23.3246 0.100081C23.0218 -0.00908496 22.6941 -0.0294319 22.3802 0.0414374C22.0662 0.112307 21.7791 0.271439 21.5526 0.500082L0.514457 21.5372C0.183514 21.872 -0.00130248 22.3244 0.000454166 22.7952V31.1412C-0.00689207 31.3725 0.0751158 31.5978 0.229455 31.7702L29.6136 2.38712C29.4141 2.2084 29.1803 2.07197 28.9266 1.98609Z" fill="#C3C6CC"/>
  </g>
  <defs>
    <clipPath id="clip0_858_14536">
      <rect width="32" height="32" fill="white"/>
    </clipPath>
  </defs>
</svg>