<svg width="24" height="24" viewBox="0 0 24 24" fill="none" xmlns="http://www.w3.org/2000/svg">
<g clip-path="url(#clip0_11_2)">
<path d="M13.039 9.635C13.116 9.635 13.183 9.635 13.249 9.668C13.293 9.679 13.337 9.701 13.382 9.723L13.448 9.756C13.492 9.789 13.525 9.811 13.57 9.855L14.145 10.43C14.443 10.728 14.443 11.203 14.145 11.502L3.637 22.01C3.493 22.154 3.294 22.231 3.107 22.231C2.92 22.231 2.72 22.154 2.577 22.01L2.002 21.435C1.704 21.137 1.704 20.662 2.002 20.363L11.405 10.96L12.51 9.855C12.543 9.822 12.587 9.789 12.632 9.756L12.698 9.723C12.742 9.701 12.786 9.679 12.831 9.668C12.897 9.646 12.975 9.635 13.041 9.635M13.041 7.867C12.798 7.867 12.555 7.9 12.323 7.966C12.168 8.01 12.014 8.076 11.87 8.154C11.793 8.198 11.726 8.231 11.649 8.287C11.505 8.375 11.373 8.486 11.251 8.607L10.146 9.712L0.739997 19.116C-0.243003 20.099 -0.243003 21.702 0.739997 22.685L1.315 23.26C1.79 23.735 2.431 24 3.105 24C3.779 24 4.409 23.735 4.895 23.26L15.403 12.752C15.878 12.277 16.143 11.636 16.143 10.962C16.143 10.288 15.878 9.658 15.403 9.172L14.828 8.597C14.706 8.475 14.574 8.365 14.43 8.277C14.364 8.233 14.286 8.189 14.22 8.144C14.076 8.067 13.922 8 13.767 7.956C13.535 7.89 13.292 7.857 13.049 7.857L13.041 7.867Z" fill="#72F5CF"/>
<path d="M13.193 1.768H13.292L20.64 2.188C21.281 2.221 21.778 2.729 21.822 3.37L22.242 10.718C22.275 11.204 22.087 11.679 21.745 12.022L12.938 20.829C12.607 21.16 12.176 21.326 11.723 21.326C11.27 21.326 11.358 21.293 11.182 21.238L5.66799 19.415C5.14899 19.249 4.75099 18.84 4.58499 18.332L2.76199 12.818C2.56299 12.199 2.71799 11.525 3.18199 11.072L11.978 2.265C12.298 1.945 12.74 1.768 13.193 1.768ZM13.193 0C12.265 0 11.392 0.365 10.729 1.017L1.92299 9.823C0.982993 10.762 0.662993 12.122 1.08299 13.37L2.90599 18.884C3.24899 19.923 4.07699 20.751 5.11599 21.094L10.63 22.917C10.984 23.039 11.348 23.094 11.724 23.094C12.652 23.094 13.525 22.729 14.188 22.077L22.995 13.27C23.691 12.574 24.067 11.601 24.012 10.607L23.592 3.259C23.504 1.723 22.277 0.508 20.752 0.419L13.392 0L13.193 0Z" fill="#72F5CF"/>
<path d="M2.75099 12.829L4.57499 18.343C4.74099 18.862 5.14999 19.26 5.65799 19.426L11.172 21.249C11.791 21.448 12.465 21.293 12.918 20.829L21.725 12.022C22.068 11.679 22.255 11.204 22.222 10.718L21.802 3.37001C21.769 2.72901 21.261 2.23201 20.62 2.18801L13.271 1.76801C12.785 1.73501 12.31 1.92301 11.967 2.26501L3.17099 11.083C2.71799 11.536 2.55199 12.221 2.75099 12.829Z" fill="#A8F7D9"/>
<path d="M13.193 1.76799H13.292L20.64 2.18799C21.281 2.22099 21.778 2.72899 21.822 3.36999L22.242 10.718C22.275 11.204 22.087 11.679 21.745 12.022L12.938 20.829C12.607 21.16 12.176 21.326 11.723 21.326C11.27 21.326 11.358 21.293 11.182 21.238L5.66799 19.415C5.14899 19.249 4.75099 18.84 4.58499 18.332L2.76199 12.818C2.56299 12.199 2.71799 11.525 3.18199 11.072L11.978 2.26499C12.298 1.94499 12.74 1.76799 13.193 1.76799ZM13.193 0.662994C12.442 0.662994 11.734 0.960994 11.204 1.49199L2.38699 10.298C1.63599 11.049 1.36999 12.154 1.70199 13.171L3.52499 18.685C3.80099 19.525 4.47499 20.199 5.31499 20.475L10.829 22.298C11.116 22.397 11.415 22.442 11.713 22.442C12.464 22.442 13.172 22.144 13.702 21.613L22.509 12.806C23.073 12.242 23.371 11.458 23.327 10.651L22.907 3.30299C22.841 2.10999 21.879 1.14799 20.686 1.08199L13.337 0.662994H13.171H13.193Z" fill="#141B1F"/>
<path d="M15.105 19.193L15.867 18.431L15.801 18.398L12.751 17.392L11.989 18.154L15.116 19.182L15.105 19.193Z" fill="#141B1F"/>
<path d="M18.398 15.901L19.16 15.139L19.094 15.106L16.044 14.1L15.282 14.862L18.409 15.89L18.398 15.901Z" fill="#141B1F"/>
<path d="M4.80699 8.895L5.56899 8.133L5.60199 8.199L6.60799 11.249L5.84599 12.011L4.81799 8.884L4.80699 8.895Z" fill="#141B1F"/>
<path d="M8.099 5.602L8.861 4.84L8.894 4.906L9.901 7.956L9.139 8.718L8.111 5.591L8.099 5.602Z" fill="#141B1F"/>
<path d="M14.431 11.215L3.635 22.011C3.337 22.309 2.862 22.309 2.563 22.011L1.989 21.436C1.691 21.138 1.691 20.663 1.989 20.364L12.785 9.568C12.951 9.402 13.161 9.303 13.393 9.281L14.266 9.193C14.575 9.16 14.83 9.425 14.807 9.734L14.719 10.607C14.697 10.839 14.597 11.049 14.432 11.215" fill="#79AC91"/>
<path d="M14.309 9.204C14.596 9.204 14.828 9.447 14.795 9.745L14.707 10.618C14.685 10.85 14.585 11.06 14.42 11.226L3.624 22.022C3.48 22.166 3.281 22.243 3.094 22.243C2.907 22.243 2.707 22.166 2.564 22.022L1.989 21.447C1.691 21.149 1.691 20.674 1.989 20.375L12.785 9.579C12.951 9.413 13.161 9.314 13.393 9.292L14.266 9.204H14.309ZM14.309 8.099H14.154L13.281 8.187C12.795 8.231 12.342 8.452 12.01 8.795L1.203 19.591C0.474 20.32 0.474 21.503 1.203 22.221L1.778 22.796C2.132 23.15 2.596 23.337 3.093 23.337C3.59 23.337 4.054 23.138 4.408 22.796L15.204 12C15.547 11.657 15.756 11.204 15.812 10.729L15.9 9.856C15.944 9.414 15.801 8.961 15.491 8.629C15.193 8.298 14.762 8.11 14.309 8.11V8.099Z" fill="#141B1F"/>
</g>
<defs>
<clipPath id="clip0_11_2">
<rect width="24" height="24" fill="white"/>
</clipPath>
</defs>
</svg>
