<svg width="16" height="17" viewBox="0 0 16 17" fill="none" xmlns="http://www.w3.org/2000/svg">
    <path
        d="M6.6665 9.16668C6.95281 9.54943 7.31808 9.86613 7.73754 10.0953C8.157 10.3245 8.62084 10.4608 9.0976 10.4949C9.57437 10.529 10.0529 10.4603 10.5007 10.2932C10.9486 10.1261 11.3552 9.86473 11.6932 9.52668L13.6932 7.52668C14.3004 6.89801 14.6363 6.056 14.6288 5.18201C14.6212 4.30802 14.2706 3.47198 13.6526 2.85395C13.0345 2.23592 12.1985 1.88536 11.3245 1.87777C10.4505 1.87017 9.60851 2.20615 8.97984 2.81335L7.83317 3.95335"
        stroke="currentColor" stroke-width="1.33333" stroke-linecap="round" stroke-linejoin="round" />
    <path
        d="M9.33347 7.83332C9.04716 7.45057 8.68189 7.13387 8.26243 6.90469C7.84297 6.67552 7.37913 6.53924 6.90237 6.5051C6.4256 6.47095 5.94707 6.53974 5.49924 6.7068C5.0514 6.87386 4.64472 7.13527 4.3068 7.47332L2.3068 9.47332C1.69961 10.102 1.36363 10.944 1.37122 11.818C1.37881 12.692 1.72938 13.528 2.3474 14.146C2.96543 14.7641 3.80147 15.1146 4.67546 15.1222C5.54945 15.1298 6.39146 14.7938 7.02013 14.1867L8.16013 13.0467"
        stroke="currentColor" stroke-width="1.33333" stroke-linecap="round" stroke-linejoin="round" />
</svg>