<svg width="24" height="24" viewBox="0 0 24 24" fill="none" xmlns="http://www.w3.org/2000/svg">
<g id="Field Icons">
<mask id="mask0_3_121" style="mask-type:alpha" maskUnits="userSpaceOnUse" x="0" y="0" width="24" height="24">
<rect id="Bounding box" width="24" height="24" fill="#6a7184"/>
</mask>
<g mask="url(#mask0_3_121)">
<g id="Group 58">
<path id="Vector" d="M15.4615 15.0769L21 15.0769" stroke="#6a7184" stroke-width="1.33333" stroke-linecap="square" stroke-linejoin="round"/>
<path id="Vector_2" d="M15.4615 9.53845L21 9.53845" stroke="#6a7184" stroke-width="1.33333" stroke-linecap="square" stroke-linejoin="round"/>
<rect id="Rectangle 1" width="5.53846" height="16.6154" rx="1" transform="matrix(-1 0 0 1 21 4)" stroke="#6a7184" stroke-width="1.33"/>
<path id="Union" fill-rule="evenodd" clip-rule="evenodd" d="M12.0256 12.3077C12.0256 10.3817 10.4644 8.82049 8.53846 8.82049C6.61254 8.82049 5.05128 10.3817 5.05128 12.3077C5.05128 14.2336 6.61254 15.7948 8.53846 15.7948C10.4644 15.7948 12.0256 14.2336 12.0256 12.3077ZM8.53846 7.48715C11.2008 7.48715 13.359 9.64537 13.359 12.3077C13.359 14.97 11.2008 17.1282 8.53846 17.1282C7.4872 17.1282 6.51454 16.7917 5.72231 16.2205L5.47138 16.4714L3.47138 18.4714C3.21103 18.7318 2.78892 18.7318 2.52858 18.4714C2.26823 18.2111 2.26823 17.789 2.52858 17.5286L4.52858 15.5286L4.75813 15.299C4.10685 14.4771 3.71794 13.4378 3.71794 12.3077C3.71794 9.64537 5.87616 7.48715 8.53846 7.48715Z" fill="#6a7184"/>
</g>
</g>
</g>
</svg>
