<svg xmlns="http://www.w3.org/2000/svg" width="32" height="32" viewBox="0 0 32 32" fill="none">
  <g clip-path="url(#clip0_881_27909)">
    <path d="M0 0H32V32H0" fill="#FFDD22"/>
    <path d="M26.125 19.125L25.75 18.0625C25.75 18.0625 27.3125 15.6875 23.4375 14.875C23.4375 14.875 23.6875 11.9375 22.3125 10.5625C25.3125 7.62497 24.625 3.18747 17.8125 6.06247C14.3125 -0.625031 0.812511 15.0625 6.43751 17.5625C5.87501 18.3125 5.87501 22.0625 9.75001 22.4375C12.375 28.0625 18.75 28.4375 22.4375 26.75C26.125 25.0625 28.25 19.6875 26.125 19.125ZM9.68751 21.625C6.50001 21.3125 6.18751 16.9375 8.93751 16.5C11.6875 16.0625 12.375 21.875 9.68751 21.625ZM8.75001 15.6875C7.87501 15.6875 6.81251 16.875 6.81251 16.875C2.56251 14.8125 14.5 1.12497 17.0625 6.43747C17.0625 6.43747 10.8125 9.43747 8.75001 15.6875ZM21.25 21C21.25 20.75 19.9375 21.375 17.5625 20.5625C17.75 19.25 20.5625 21.6875 25.25 18.5L25.625 19.8125C27.375 19.5 25.625 25.4375 20 25.375C15.4375 25.3125 14 20.625 16.5 18.0625C17 17.5625 14.6875 16.5625 15.125 14.375C15.3125 13.4375 16.125 12.0625 18.1875 12.4375C20.25 12.8125 20.6875 10.9375 22.0625 11.625C23.4375 12.3125 22.625 14.9375 22.8125 15.3125C23 15.6875 25 15.75 25.375 16.8125C25.75 17.875 22.8125 20.1875 18.25 19.5625C17.1875 19.4375 16.5625 20.8125 17.25 21.6875C18.625 23.6875 24.25 22.375 25.1875 20.4375C22.8125 22.25 17.9375 22.9375 17.5625 21C18.9375 21.625 21.25 21.25 21.25 21ZM13.0625 11.125C14.4375 9.43747 16.25 8.43747 16.25 8.43747L15.875 9.37497C15.875 9.37497 17.1875 8.37497 18.625 8.37497L18.125 8.87497C19.75 8.93747 20.4375 9.56247 20.4375 9.56247C20.4375 9.56247 16.625 8.43747 13.0625 11.125ZM21.5 13.5625C22.3125 13.5 22.0625 15.375 22.0625 15.375H21.5625C21.5625 15.375 20.6875 13.625 21.5 13.5625ZM17.8125 15.625C17.25 15.6875 16.625 16 16.6875 15.75C16.9375 14.75 19.25 15 19.1875 15.875C19.125 16.75 18.625 15.5 17.8125 15.625ZM19.125 16.375C19.1875 16.5 18.6875 16.375 18.3125 16.4375C17.9375 16.5 17.5625 16.6875 17.5625 16.5625C17.5625 16.4375 19 15.875 19.125 16.375ZM20.375 16.5625C20.5625 16.1875 21.3125 16.5625 21.125 16.9375C20.9375 17.3125 20.1875 16.9375 20.375 16.5625ZM21.9375 16.6875C21.5625 16.6875 21.5625 15.875 21.9375 15.875C22.3125 15.875 22.3125 16.75 21.9375 16.75V16.6875ZM10.6875 20C10.875 20.1875 10.3125 20.5625 9.87501 20.25C9.43751 19.9375 10.375 18.4375 9.25001 18.0625C8.12501 17.6875 8.43751 19.125 8.12501 18.9375C7.81251 18.75 8.56251 16.75 9.87501 17.5625C11.1875 18.375 9.50001 19.625 10.25 20C11 20.375 10.5625 19.875 10.6875 20Z" fill="#222222"/>
  </g>
  <defs>
    <clipPath id="clip0_881_27909">
      <rect width="32" height="32" rx="4" fill="white"/>
    </clipPath>
  </defs>
</svg>