<svg xmlns="http://www.w3.org/2000/svg" width="32" height="32" viewBox="0 0 32 32" fill="none">
  <g clip-path="url(#clip0_881_28190)">
    <path d="M31.1368 15.2737C31.5962 15.2737 31.9687 15.6462 31.9687 16.1056C31.9687 16.565 31.5962 16.9375 31.1368 16.9375C30.6774 16.9375 30.3049 16.565 30.3049 16.1056C30.3049 15.6469 30.6774 15.2737 31.1368 15.2737Z" fill="#123B6D"/>
    <path d="M8.66251 14.9769C9.21563 14.9769 9.66375 15.425 9.66375 15.9781C9.66375 16.5306 9.21563 16.9794 8.66251 16.9794C8.11001 16.9794 7.66125 16.5312 7.66125 15.9781C7.66125 15.425 8.10938 14.9769 8.66251 14.9769Z" fill="#123B6D"/>
    <path d="M19.9844 15.9769H8.3269V16.5344L19.1744 22.4931L19.32 22.5694C19.74 22.7719 20.2294 22.7719 20.6494 22.5694L20.795 22.4931L31.6425 16.5344V15.9769H19.9844Z" fill="#123B6D"/>
    <path d="M19.9844 15.9769H8.3269V15.4194L19.1744 9.46061L19.32 9.38436C19.74 9.18186 20.2294 9.18186 20.6494 9.38436L20.795 9.46061L31.5969 15.4275V15.9775H19.9844" fill="#123B6D"/>
    <path d="M11.4275 2.53998H28.5618C29.3375 2.53998 29.9675 3.16935 29.9675 3.9456V26.0456C29.9675 26.8212 29.3381 27.4512 28.5618 27.4512H11.4275C10.6518 27.4512 10.0219 26.8219 10.0219 26.0456V3.94498C10.0225 3.16935 10.6518 2.53998 11.4275 2.53998Z" fill="#28A8EA"/>
    <path d="M10.0225 16.94H17.9831V22.9444H10.0225V16.94Z" fill="#14447D"/>
    <path d="M16.9906 16.94H23.9794V22.9444H16.9906V16.94Z" fill="#0364B8"/>
    <path d="M10.0225 11.1569H16.9887V16.94H10.0225V11.1569Z" fill="#0664B2"/>
    <path d="M23.9793 16.94H29.9762V22.9438H23.9793V16.94ZM16.9906 11.1569H23.9806V16.9394H16.9906V11.1569ZM10.0225 5.3819H16.9887V11.1569H10.0225V5.3819Z" fill="#0078D4"/>
    <path d="M29.9762 5.3819H23.9794V11.1569H29.9762V5.3819Z" fill="#50D9FF"/>
    <path d="M11.4275 2.54H28.54C28.9093 2.54 29.265 2.68188 29.5325 2.93688C29.7931 3.18563 29.9418 3.53126 29.9456 3.89188V5.41875H10.0225V3.89188C10.04 3.13063 10.6668 2.52688 11.4275 2.54Z" fill="#0358A7"/>
    <path d="M19.205 22.5069C19.2418 22.5306 19.2806 22.5519 19.32 22.57L19.3075 22.5631C19.2768 22.5481 19.2462 22.5319 19.2162 22.5131L19.205 22.5069ZM32 15.9813C32 16.0506 31.9875 16.1188 31.9668 16.1819C31.9168 16.3294 31.8125 16.4556 31.6712 16.5331H31.6425L29.9775 17.4469L23.9806 20.7363L23.0243 21.2613L20.7337 22.5244C20.7181 22.5338 20.7025 22.5425 20.6856 22.5506L20.6506 22.57C20.4431 22.6694 20.2156 22.7219 19.9862 22.7219C19.7568 22.7219 19.5293 22.6694 19.3218 22.5694L31.36 29.1844C31.7306 28.9319 31.9818 28.5138 32.0006 28.0313C32.0012 28.0181 32.0012 28.005 32.0012 27.9919V15.9813M32 15.9763V15.9813C32 15.98 32 15.9781 32 15.9763Z" fill="url(#paint0_linear_881_28190)"/>
    <path d="M31.2807 15.9769H30.6438L29.9675 16.3487V16.94H29.9769V17.4281L31.5963 16.5356L31.2807 15.9769Z" fill="#0E316A"/>
    <path d="M31.1299 15.71L30.6437 15.9769H31.2806L31.1299 15.71Z" fill="#0E316A"/>
    <path d="M29.9675 16.3488L28.8918 16.94H29.9675V16.3488Z" fill="#1967A8"/>
    <path d="M23.9794 19.64L20.205 21.7144C20.1381 21.7431 20.0662 21.7575 19.9956 21.7575C19.925 21.7575 19.8525 21.7438 19.7862 21.7144C19.7269 21.69 18.7931 21.1813 17.4956 20.4694V21.5619L19.1756 22.485C19.1894 22.4944 19.2037 22.5044 19.2175 22.5131L19.3087 22.5631C19.3131 22.565 19.3169 22.5669 19.3212 22.5694C19.5306 22.6713 19.7587 22.7213 19.9856 22.7213C20.2125 22.7213 20.44 22.6706 20.65 22.5694C20.6625 22.5644 20.6737 22.5581 20.6862 22.5519L20.7344 22.5256C20.7556 22.5131 20.7756 22.4994 20.7956 22.485L23.025 21.2619L23.9812 20.7344V19.64" fill="#07458F"/>
    <path d="M29.9769 16.94H29.9675H28.8919L23.9794 19.64V20.7344L29.9769 17.4281V16.94Z" fill="#054F9D"/>
    <path d="M20.6838 22.5519C20.6725 22.5582 20.66 22.5632 20.6475 22.5694C20.4381 22.6713 20.21 22.7213 19.9831 22.7213C19.7563 22.7213 19.5288 22.6707 19.3188 22.5694C19.3144 22.5675 19.3106 22.5657 19.3063 22.5632L19.3188 22.57C19.5263 22.67 19.7538 22.7225 19.9831 22.7225C20.2125 22.7225 20.44 22.67 20.6475 22.5707L20.6838 22.5519ZM17.4944 21.5619L19.1744 22.4857C19.1838 22.4925 19.1944 22.4994 19.205 22.5069L19.2163 22.5132C19.2025 22.5044 19.1881 22.495 19.1744 22.485L17.4944 21.5619ZM23.0231 21.2619L20.7938 22.485C20.7738 22.4988 20.7531 22.5119 20.7325 22.5257L23.0231 21.2619Z" fill="url(#paint1_linear_881_28190)"/>
    <path d="M9.49564 29.4613H30.4725C30.7881 29.4606 31.0969 29.365 31.3581 29.1863L19.3181 22.57C19.2675 22.5475 19.2181 22.5181 19.1725 22.4856L8.34002 16.5338L8.00439 16.3506V27.9925C8.00439 28.8025 8.66127 29.4594 9.47127 29.4594L9.49564 29.4613Z" fill="#28A8EA"/>
    <path d="M17.1806 8.26874H16.9888V8.86686C17.045 8.98686 17.0781 9.11999 17.0819 9.26124V11.1556H17.495V8.96311C17.4925 8.69749 17.3788 8.44624 17.1806 8.26874Z" fill="#27A2E2"/>
    <path d="M17.4943 16.94H17.0812V20.2438C17.2224 20.3206 17.3599 20.3963 17.4943 20.47V16.94Z" fill="#0361B2"/>
    <path d="M17.4944 11.1569H17.0813V16.9394H17.4944V11.1569ZM16.9888 8.26874H15.9207C15.9244 8.27811 15.9275 8.28874 15.93 8.29936H16.0957C16.4894 8.29936 16.8313 8.53061 16.9882 8.86686V8.26874" fill="#0074CD"/>
    <path d="M17.0818 20.2431V21.3356L17.4949 21.5625V20.47C17.3605 20.3956 17.2224 20.3206 17.0818 20.2431Z" fill="#07438A"/>
    <path d="M17.0818 21.3356V21.3363L17.4943 21.5625V21.5619L17.0818 21.3356Z" fill="url(#paint2_linear_881_28190)"/>
    <path d="M17.0819 21.3362V23.3037C17.0819 23.3125 17.0812 23.3212 17.0812 23.33V23.5481C17.0725 23.6444 17.0525 23.7369 17.0219 23.825C17.3006 23.655 17.4894 23.35 17.495 22.9994V21.5644L17.0819 21.3362Z" fill="#27A2E2"/>
    <path d="M7.99878 23.6844V25.9919H8.00565V25.5256H7.99878V25.0981V23.6844Z" fill="#EEEEEE"/>
    <path d="M15.9869 24.7919C15.9388 24.8144 15.8888 24.8331 15.8363 24.8481C15.6181 25.2537 15.1881 25.5275 14.6994 25.5275C14.6863 25.5275 14.6731 25.5275 14.66 25.5269H8.00439V25.9931H14.6594C14.6725 25.9931 14.6856 25.9937 14.6988 25.9937C15.3781 25.9925 15.9413 25.4675 15.9869 24.7919Z" fill="#259DDA"/>
    <path d="M16.9888 8.86688V9.26501C17.045 9.38501 17.0775 9.51813 17.0806 9.65938V11.1569H17.0813V9.26251C17.0781 9.12126 17.0456 8.98688 16.9888 8.86688Z" fill="#2498D3"/>
    <path d="M17.0818 16.94H17.0806V20.2425L17.0818 20.2431V16.94Z" fill="#035AA6"/>
    <path d="M17.0818 11.1569H17.0812V16.9394H17.0818V11.1569ZM16.0962 8.29999H15.9305C15.9543 8.37436 15.968 8.45061 15.9743 8.52874V8.69686H16.0805C16.0855 8.69686 16.0918 8.69686 16.0974 8.69686C16.4912 8.69686 16.8318 8.92811 16.9899 9.26499V8.86686C16.8305 8.53124 16.4899 8.29999 16.0962 8.29999Z" fill="#006CC0"/>
    <path d="M17.0806 20.2425V21.335L17.0818 21.3356V20.2431L17.0806 20.2425Z" fill="#063E81"/>
    <path d="M17.0806 21.335V21.3356L17.0818 21.3363V21.3356L17.0806 21.335Z" fill="url(#paint3_linear_881_28190)"/>
    <path d="M17.0806 21.3356V23.3294C17.0812 23.3206 17.0812 23.3119 17.0812 23.3031V21.3356H17.0806Z" fill="#2498D3"/>
    <path d="M17.0212 23.8244C16.9706 23.8557 16.9162 23.8825 16.8587 23.9044C16.7656 24.0175 16.6481 24.1094 16.5149 24.1725C16.4731 24.3182 16.3981 24.4488 16.2999 24.5582C16.6387 24.4357 16.9043 24.165 17.0212 23.8244Z" fill="#259DDA"/>
    <path d="M17.0806 23.3294C17.0694 23.5469 16.9887 23.7457 16.86 23.9038C16.9169 23.8819 16.9706 23.8557 17.0225 23.8238C17.0525 23.7363 17.0725 23.6432 17.0819 23.5469V23.3294" fill="#2498D3"/>
    <path d="M16.86 23.9037C16.7656 23.94 16.6625 23.9619 16.5569 23.9669C16.555 23.9675 16.5544 23.9694 16.5525 23.9706C16.5475 24.04 16.535 24.1075 16.5162 24.1725C16.6494 24.1094 16.7669 24.0175 16.86 23.9037Z" fill="#2392CC"/>
    <path d="M16.9887 9.26501V11.1569V16.9394H16.9131H16.99V11.1569H17.0812V9.65939C17.0775 9.51814 17.045 9.38501 16.9887 9.26501Z" fill="#228EC5"/>
    <path d="M16.9906 16.94H16.9137V20.1506C16.9399 20.1644 16.9643 20.1788 16.9906 20.1925V16.94Z" fill="#11396A"/>
    <path d="M17.0806 16.94H16.9894V20.1925C17.02 20.2094 17.05 20.2256 17.0806 20.2425V16.94Z" fill="#03549B"/>
    <path d="M16.9887 11.1569H16.9131V16.94H16.9887V11.1569Z" fill="#055497"/>
    <path d="M17.0806 11.1569H16.9894V16.9394H17.0806V11.1569ZM16.0969 8.6969C16.0919 8.6969 16.0856 8.6969 16.08 8.6969H15.9738V9.14065C16.4869 9.16315 16.9006 9.5819 16.9125 10.1025V11.1569H16.9881V9.26503C16.8319 8.92815 16.4906 8.6969 16.0969 8.6969Z" fill="#0065B3"/>
    <path d="M16.9131 20.15V21.2425L16.99 21.2844V20.1919C16.9643 20.1782 16.9393 20.165 16.9131 20.15Z" fill="#0D2D60"/>
    <path d="M16.9906 20.1925V21.285L17.0819 21.335V20.2425C17.0506 20.2256 17.02 20.2088 16.9906 20.1925Z" fill="#063A79"/>
    <path d="M16.9131 21.2425V21.2437L17.0806 21.3356V21.335L16.9906 21.285L16.9131 21.2425Z" fill="url(#paint4_linear_881_28190)"/>
    <path d="M16.9131 21.2438V23.2269V23.235C16.9063 23.5313 16.7688 23.7938 16.5563 23.9681C16.6625 23.9631 16.765 23.9413 16.8594 23.905C16.9881 23.7475 17.07 23.5482 17.08 23.3307V21.3369L16.9131 21.2438Z" fill="#228EC5"/>
    <path d="M15.9206 8.26874H15.7906C15.7975 8.27811 15.8038 8.28874 15.81 8.29936H15.93C15.9269 8.28936 15.9244 8.27936 15.9206 8.26874Z" fill="#0073CB"/>
    <path d="M15.9305 8.29999H15.8105C15.8843 8.41811 15.933 8.55249 15.9518 8.69686H15.9743V8.52874C15.9687 8.45061 15.9543 8.37311 15.9305 8.29999Z" fill="#006BBE"/>
    <path d="M15.9744 8.6969H15.9519C15.9563 8.7294 15.9582 8.76253 15.9588 8.79628V8.88752C15.9675 8.93752 15.9719 8.98815 15.9725 9.04065V9.14127H15.9732V8.6969" fill="#0064B1"/>
    <path d="M8.00565 25.0981H7.99878V25.5256H8.00565V25.0981Z" fill="#CFCFCF"/>
    <path d="M15.8369 24.8475C15.7519 24.8713 15.6613 24.8844 15.5688 24.8844C15.5638 24.8844 15.5594 24.8844 15.5538 24.8844H15.4125C15.2075 25.02 14.9625 25.0994 14.7 25.0994C14.6869 25.0994 14.6738 25.0994 14.6606 25.0988H8.005V25.5269H14.66C14.6731 25.5269 14.6863 25.5275 14.6994 25.5275C15.1888 25.5263 15.6175 25.2538 15.8369 24.8475Z" fill="#2189BE"/>
    <path d="M7.99878 23.6844V25.0981H8.00565V24.7688H7.99878V24.4794V23.845V23.6844Z" fill="#B6B6B6"/>
    <path d="M8.29437 24.7687H8.00562V25.0975H14.6606C14.6737 25.0975 14.6869 25.0981 14.7 25.0981C14.9619 25.0981 15.2075 25.0194 15.4125 24.8831H8.61812C8.61562 24.8831 8.61312 24.8831 8.60999 24.8831C8.48874 24.8844 8.37937 24.8406 8.29437 24.7687Z" fill="#1D78A7"/>
    <path d="M8.00565 24.4794H7.99878V24.7687H8.00565V24.4794Z" fill="#A2A2A2"/>
    <path d="M8.12749 24.4794H8.00562V24.7687H8.29437C8.20812 24.6969 8.14812 24.595 8.12749 24.4794Z" fill="#196B95"/>
    <path d="M8.00565 23.845H7.99878V24.4794H8.00565V23.845Z" fill="#8B8B8B"/>
    <path d="M8.05435 23.845H8.00623V24.48H8.1281C8.12373 24.4557 8.12123 24.4294 8.12123 24.4038V23.8463C8.1106 23.8469 8.10123 23.8469 8.0906 23.8469C8.07748 23.8463 8.06622 23.8457 8.05435 23.845Z" fill="#165C80"/>
    <path d="M7.99878 23.7687V23.845H8.00565V23.8387C8.00315 23.8387 8.00128 23.8381 7.99878 23.8381V23.7687Z" fill="#7A7A7A"/>
    <path d="M8.00562 23.8394V23.8456H8.05374C8.03749 23.8437 8.02187 23.8419 8.00562 23.8394Z" fill="#135070"/>
    <path d="M16.5563 23.9669C16.5544 23.9669 16.5538 23.9669 16.5519 23.9669C16.5519 23.9675 16.5519 23.9694 16.5519 23.9706C16.5531 23.9694 16.555 23.9681 16.5563 23.9669Z" fill="#2189BF"/>
    <path d="M16.9131 16.94H16.5537V19.9544C16.6756 20.0213 16.795 20.0869 16.9131 20.1519V16.94Z" fill="#103663"/>
    <path d="M16.9131 11.1569H16.5537V16.94H16.9131V11.1569Z" fill="#054F8D"/>
    <path d="M15.9744 9.14062V9.21625C16.1744 9.35188 16.3169 9.51063 16.3169 9.6975V10.1781C16.46 10.345 16.5481 10.5606 16.5537 10.7969V11.1562H16.9131V10.1019C16.9012 9.58125 16.4862 9.16437 15.9744 9.14062Z" fill="#005FA7"/>
    <path d="M16.5537 19.9537V21.0462L16.9131 21.2437V20.1512C16.7956 20.0862 16.6756 20.0206 16.5537 19.9537Z" fill="#0C2A5A"/>
    <path d="M16.5537 21.0457V21.0463L16.9131 21.2438V21.2425L16.5537 21.0457Z" fill="url(#paint5_linear_881_28190)"/>
    <path d="M16.5538 21.0463V23.9219C16.5538 23.9369 16.5531 23.9525 16.5519 23.9675C16.5538 23.9675 16.5544 23.9675 16.5563 23.9675C16.7681 23.7931 16.9063 23.5306 16.9131 23.2344V23.2263V21.2438L16.5538 21.0463Z" fill="#2084B9"/>
    <path d="M15.9738 9.14062V9.21562L15.9744 9.21688V9.14062H15.9738Z" fill="#005EA7"/>
    <path d="M8.12059 23.845H8.05371C8.06621 23.8457 8.07809 23.8457 8.08996 23.8457C8.10059 23.8463 8.10996 23.8457 8.12059 23.845Z" fill="#145475"/>
    <path d="M8.00565 23.7687H7.99878V23.8381C8.00128 23.8381 8.00315 23.8387 8.00565 23.8387V23.7687Z" fill="#737373"/>
    <path d="M8.12062 23.7687H8.00562V23.84C8.02124 23.8425 8.03812 23.8444 8.05374 23.8462H8.12062V23.7687Z" fill="#124C6A"/>
    <path d="M8.00565 23.6844H7.99878V23.7688H8.00565V23.6844Z" fill="#696969"/>
    <path d="M8.12062 23.6844H8.00562V23.7688H8.12062V23.6844Z" fill="#104560"/>
    <path d="M15.9744 9.21686V9.38061C15.9831 9.43686 15.9875 9.49373 15.9881 9.55248V9.59123C16.0681 9.71561 16.1194 9.85936 16.1362 10.0137C16.2031 10.0612 16.2644 10.1162 16.3169 10.1775V9.69686C16.3169 9.51123 16.1731 9.35186 15.9744 9.21686Z" fill="#004E8A"/>
    <path d="M15.9738 9.21564V9.37439C15.9738 9.37626 15.9744 9.37876 15.9744 9.38064V9.21689C15.9738 9.21564 15.9738 9.21564 15.9738 9.21564Z" fill="#004E89"/>
    <path d="M15.988 9.59125V9.92687C15.988 9.92687 15.988 9.92687 15.988 9.9275C16.0399 9.95187 16.0899 9.98125 16.1362 10.0131C16.1199 9.85937 16.068 9.71562 15.988 9.59125Z" fill="#00477D"/>
    <path d="M16.3012 24.5575C16.2049 24.5925 16.1024 24.6156 15.9962 24.625H15.9893V24.7469C15.9887 24.7619 15.9887 24.7769 15.9868 24.7919C16.1068 24.7344 16.2137 24.655 16.3012 24.5575Z" fill="#259DDA"/>
    <path d="M15.9306 24.6244C15.9062 24.7025 15.8743 24.7769 15.8362 24.8481C15.8881 24.8331 15.9387 24.815 15.9868 24.7919C15.9874 24.7769 15.9887 24.7619 15.9893 24.7469V24.625L15.9306 24.6244Z" fill="#2392CC"/>
    <path d="M16.5163 24.1725C16.3894 24.2319 16.2463 24.2662 16.0963 24.2662H15.9894V24.2812V24.625H15.9963C16.1025 24.6162 16.205 24.5925 16.3013 24.5575C16.3994 24.4487 16.4738 24.3175 16.5163 24.1725Z" fill="#2392CC"/>
    <path d="M15.9893 24.2806C15.9849 24.4 15.9649 24.515 15.9305 24.6231L15.9893 24.6238V24.2806Z" fill="#2189BF"/>
    <path d="M16.5519 23.9713C16.3969 24.0975 16.2013 24.1775 15.9888 24.1888V24.2669H16.0956C16.2456 24.2669 16.3875 24.2338 16.5156 24.1731C16.5344 24.1075 16.5469 24.04 16.5519 23.9713Z" fill="#2189BF"/>
    <path d="M15.7031 24.62C15.62 24.7225 15.5219 24.8112 15.4119 24.8837H15.5531C15.5581 24.8837 15.5625 24.8837 15.5681 24.8837C15.6612 24.8837 15.7512 24.8706 15.8362 24.8469C15.8737 24.7756 15.9062 24.7012 15.9306 24.6231L15.7031 24.62Z" fill="#1E80B2"/>
    <path d="M15.315 24.6138C15.1318 24.7138 14.9212 24.77 14.6993 24.77C14.6862 24.77 14.6731 24.77 14.66 24.7694H8.2937C8.3787 24.8413 8.48933 24.8844 8.60933 24.8844C8.61183 24.8844 8.61433 24.8844 8.61745 24.8844H15.4125C15.5218 24.8119 15.62 24.7219 15.7037 24.6206L15.315 24.6138Z" fill="#1B729E"/>
    <path d="M15.9894 24.2656H15.9069C15.8575 24.3956 15.7887 24.5144 15.7037 24.62L15.9319 24.6238C15.9662 24.515 15.9862 24.4 15.9906 24.2812V24.2663" fill="#1D79A8"/>
    <path d="M15.9068 24.2656H15.7224C15.6131 24.4087 15.4737 24.5269 15.3149 24.6138L15.7024 24.62C15.7887 24.5144 15.8574 24.395 15.9068 24.2656Z" fill="#1A6B96"/>
    <path d="M15.9894 24.1875C15.9719 24.1881 15.9544 24.1894 15.9369 24.1894C15.9362 24.1894 15.9344 24.1894 15.9331 24.1894C15.925 24.215 15.9162 24.2413 15.9069 24.2656H15.9894V24.1875Z" fill="#1B729F"/>
    <path d="M15.9118 24.1894H15.7768C15.7593 24.2156 15.7405 24.2413 15.7224 24.2663H15.9068C15.9162 24.2406 15.9249 24.2156 15.933 24.19C15.9262 24.1894 15.9193 24.1894 15.9118 24.1894Z" fill="#18668F"/>
    <path d="M8.94119 24.4794H8.12744C8.14744 24.595 8.20807 24.6969 8.29432 24.7687H14.6612C14.6743 24.7687 14.6874 24.7694 14.7006 24.7694C14.9231 24.7694 15.1331 24.7131 15.3162 24.6131L9.12119 24.5094C9.11869 24.5094 9.11619 24.5094 9.11307 24.5094C9.05244 24.51 8.99494 24.4987 8.94119 24.4794Z" fill="#18668D"/>
    <path d="M15.7225 24.2656H15.4063C15.2013 24.4013 14.955 24.4794 14.6919 24.4794C14.6813 24.4794 14.6706 24.4794 14.6606 24.4794H8.94189C8.99564 24.4988 9.05314 24.51 9.11377 24.51C9.11627 24.51 9.11877 24.51 9.12189 24.51L15.3169 24.6138C15.4744 24.5269 15.6131 24.4087 15.7225 24.2656Z" fill="#176187"/>
    <path d="M15.7781 24.1894H15.5118C15.4787 24.2163 15.4437 24.2419 15.4075 24.2663H15.7237C15.7418 24.2413 15.7606 24.2156 15.7781 24.1894Z" fill="#165C81"/>
    <path d="M8.47811 23.845H8.12686C8.12498 23.845 8.12248 23.845 8.12061 23.845V24.4025C8.12061 24.4288 8.12311 24.4544 8.12748 24.4788H8.94123C8.76686 24.415 8.63811 24.2563 8.61873 24.0632C8.55373 24.005 8.50498 23.9307 8.47811 23.845Z" fill="#15587B"/>
    <path d="M8.61804 24.0638C8.63742 24.2569 8.76679 24.415 8.94054 24.4794H14.6593C14.6699 24.4794 14.6805 24.4794 14.6905 24.4794C14.9537 24.4794 15.1993 24.4007 15.4049 24.2657H9.13492C9.13242 24.2657 9.12992 24.2657 9.12804 24.2657C9.02429 24.2657 8.92804 24.2344 8.84742 24.18C8.76179 24.1619 8.68179 24.1207 8.61804 24.0638Z" fill="#145475"/>
    <path d="M8.84937 24.1794C8.92937 24.2338 9.02562 24.265 9.12999 24.265C9.13249 24.265 9.13499 24.265 9.13687 24.265H15.4069C15.4431 24.2413 15.4781 24.2156 15.5112 24.1881H8.95374C8.95124 24.1881 8.94874 24.1881 8.94562 24.1881C8.91249 24.1894 8.87999 24.1856 8.84937 24.1794Z" fill="#135272"/>
    <path d="M8.47558 23.8375H8.18183C8.16371 23.8413 8.14496 23.8425 8.12683 23.8444H8.47808C8.47746 23.8432 8.47683 23.8406 8.47558 23.8375Z" fill="#134E6D"/>
    <path d="M16.5519 23.9675C16.5381 23.9682 16.5231 23.9682 16.5081 23.9682C16.5031 23.9682 16.4988 23.9682 16.4931 23.9682H15.9888V24.1882C16.2006 24.1769 16.3956 24.0982 16.5519 23.9707C16.5519 23.9694 16.5519 23.9682 16.5519 23.9675Z" fill="#1F81B3"/>
    <path d="M16.5538 16.94H16.3169V19.8238C16.3969 19.8675 16.4756 19.9113 16.5538 19.9538V16.94Z" fill="#0F325D"/>
    <path d="M16.5538 11.1569H16.3169V16.94H16.5538V11.1569Z" fill="#044A84"/>
    <path d="M16.3169 10.1788V11.1569H16.5538V10.7975C16.5488 10.5606 16.46 10.345 16.3169 10.1788Z" fill="#00599D"/>
    <path d="M16.3169 19.8231V20.9156L16.5538 21.0462V19.9537C16.4756 19.9106 16.3969 19.8669 16.3169 19.8231Z" fill="#0B2754"/>
    <path d="M16.3169 20.9156V20.9163L16.5538 21.0463V21.0457L16.3169 20.9156Z" fill="url(#paint6_linear_881_28190)"/>
    <path d="M16.3169 20.9163V22.3944C16.3169 22.405 16.3163 22.4156 16.3163 22.4256C16.3069 22.6188 16.2425 22.7963 16.1381 22.9438C16.125 23.1063 16.0713 23.2556 15.9894 23.3856V23.525V23.9688H16.4938C16.4988 23.9688 16.5031 23.9688 16.5088 23.9688C16.5238 23.9688 16.5375 23.9688 16.5525 23.9681C16.5531 23.9531 16.5544 23.9375 16.5544 23.9225V21.0469L16.3169 20.9163Z" fill="#1E7DAE"/>
    <path d="M15.9894 23.9681H15.9806C15.9712 24.0444 15.955 24.1181 15.9331 24.1888C15.9337 24.1888 15.9356 24.1888 15.9369 24.1888C15.9544 24.1888 15.9719 24.1881 15.9894 24.1869V23.9681Z" fill="#1A6C97"/>
    <path d="M15.9893 23.8594C15.9875 23.8962 15.985 23.9319 15.9806 23.9675H15.9893V23.8594Z" fill="#196993"/>
    <path d="M15.9806 23.9681H15.895C15.8637 24.0463 15.8237 24.12 15.7781 24.1888H15.9125C15.9193 24.1888 15.9262 24.1888 15.9337 24.1888C15.955 24.1181 15.9706 24.0438 15.9806 23.9681Z" fill="#176288"/>
    <path d="M15.9894 23.5237C15.9844 23.6806 15.9506 23.8306 15.895 23.9675H15.9806C15.985 23.9312 15.9875 23.8956 15.9894 23.8594V23.5237Z" fill="#176085"/>
    <path d="M15.8944 23.9681H15.725C15.6625 24.0494 15.5906 24.1244 15.5112 24.1888H15.7775C15.8237 24.12 15.8631 24.0456 15.8944 23.9681Z" fill="#15587B"/>
    <path d="M15.9893 23.3844C15.9831 23.3938 15.9762 23.4044 15.97 23.4144C15.9331 23.6207 15.8475 23.8088 15.7256 23.9675H15.895C15.9512 23.83 15.9843 23.6807 15.9893 23.5238V23.3844Z" fill="#15587A"/>
    <path d="M8.61626 23.845H8.47876C8.50501 23.93 8.55438 24.0057 8.61876 24.0644C8.61813 24.0532 8.61688 24.0407 8.61626 24.0294V23.845Z" fill="#145475"/>
    <path d="M8.63809 23.845H8.61621V24.0282C8.61621 24.0407 8.61684 24.0519 8.61871 24.0632C8.68246 24.1213 8.76184 24.1613 8.84934 24.1788C8.73809 24.1032 8.65871 23.9844 8.63809 23.845Z" fill="#135272"/>
    <path d="M9.2037 23.845H8.63745C8.6587 23.9844 8.73745 24.1038 8.8487 24.18C8.87995 24.1863 8.91183 24.1894 8.94495 24.1894C8.94745 24.1894 8.94995 24.1894 8.95308 24.1894H15.5106C15.5906 24.1244 15.6625 24.05 15.7243 23.9688H9.53308C9.40745 23.9682 9.29308 23.9219 9.2037 23.845Z" fill="#134F6E"/>
    <path d="M15.97 23.4144C15.7931 23.6706 15.4975 23.8381 15.1644 23.8381C15.1594 23.8381 15.155 23.8381 15.1494 23.8381H14.8319C14.7862 23.8431 14.74 23.845 14.6931 23.845C14.6825 23.845 14.6719 23.845 14.6606 23.845H9.20374C9.29249 23.9219 9.40811 23.9675 9.53436 23.9675H15.7256C15.8475 23.8087 15.9325 23.62 15.97 23.4144Z" fill="#134E6C"/>
    <path d="M8.6162 23.8375H8.4762C8.47682 23.84 8.47807 23.8419 8.47807 23.8444H8.61557V23.8375" fill="#124C6A"/>
    <path d="M8.63624 23.8375H8.61499V23.8444H8.63687C8.63687 23.8432 8.63687 23.8406 8.63624 23.8375Z" fill="#114A66"/>
    <path d="M9.19561 23.8375H8.63623C8.63623 23.84 8.63686 23.8419 8.63686 23.8444H9.20311C9.20061 23.8432 9.19811 23.8406 9.19561 23.8375Z" fill="#114864"/>
    <path d="M14.8312 23.8375H9.19556C9.19806 23.84 9.20056 23.8419 9.20368 23.8444H14.6606C14.6712 23.8444 14.6824 23.8444 14.6931 23.8444C14.7387 23.8457 14.7856 23.8431 14.8312 23.8375Z" fill="#114662"/>
    <path d="M8.46061 23.7687H8.12061V23.845H8.12686C8.14498 23.8431 8.16373 23.8412 8.18186 23.8381H8.47561C8.46936 23.815 8.46436 23.7919 8.46061 23.7687Z" fill="#114966"/>
    <path d="M8.45623 23.6844H8.12061V23.7688H8.46061C8.45811 23.7488 8.45623 23.7281 8.45623 23.7081V23.6844Z" fill="#10445F"/>
    <path d="M16.1381 22.9437C16.095 23.005 16.045 23.0612 15.9894 23.1106V23.385C16.0719 23.2556 16.1244 23.105 16.1381 22.9437Z" fill="#1A6F9A"/>
    <path d="M15.9893 23.2344C15.9868 23.2956 15.9806 23.3556 15.97 23.4144C15.9768 23.405 15.9831 23.395 15.9893 23.3844V23.2344Z" fill="#135171"/>
    <path d="M15.9893 23.11C15.9268 23.165 15.8581 23.2125 15.7831 23.2512C15.5756 23.5731 15.2287 23.7956 14.8312 23.8375H15.1487C15.1537 23.8375 15.1581 23.8375 15.1637 23.8375C15.4968 23.8375 15.7931 23.67 15.9693 23.4137C15.9799 23.355 15.9868 23.2956 15.9887 23.2337V23.1094" fill="#114966"/>
    <path d="M8.61618 23.7687H8.46118C8.46493 23.7925 8.46931 23.8162 8.47618 23.8381H8.61618V23.7687Z" fill="#114864"/>
    <path d="M8.63184 23.7687H8.61621V23.8381H8.63746C8.63496 23.8206 8.63371 23.8031 8.63309 23.7844V23.7687" fill="#114661"/>
    <path d="M9.13184 23.7687H8.63184V23.7844C8.63246 23.8025 8.63371 23.8206 8.63621 23.8381H9.19559C9.17246 23.8169 9.15059 23.7931 9.13184 23.7687Z" fill="#10455F"/>
    <path d="M15.7831 23.2513C15.7575 23.2644 15.7325 23.2757 15.7062 23.2863C15.4687 23.5819 15.105 23.7688 14.7 23.7688C14.6868 23.7688 14.6737 23.7688 14.6606 23.7682H9.13184C9.15121 23.7938 9.17246 23.8163 9.19559 23.8375H14.8312C15.2293 23.7957 15.5756 23.5732 15.7831 23.2513Z" fill="#10445F"/>
    <path d="M8.61616 23.6844H8.45679V23.7081C8.45679 23.7281 8.45866 23.7488 8.46116 23.7688H8.61616V23.6844Z" fill="#10435D"/>
    <path d="M8.63184 23.6844H8.61621V23.7688H8.63184V23.6844Z" fill="#10415B"/>
    <path d="M9.07996 23.6844H8.63184V23.7688H9.13184C9.11246 23.7419 9.09496 23.7144 9.07996 23.6844Z" fill="#0F415A"/>
    <path d="M15.7062 23.2863C15.6612 23.3044 15.6162 23.3194 15.5687 23.33C15.32 23.5563 14.9962 23.6831 14.6593 23.6844H9.07996C9.09496 23.7144 9.11121 23.7425 9.13183 23.7688H14.6606C14.6737 23.7688 14.6868 23.7694 14.7 23.7694C15.1043 23.7688 15.4687 23.5819 15.7062 23.2863Z" fill="#0F4059"/>
    <path d="M16.3169 16.94H16.1412V19.7269C16.2 19.7594 16.2587 19.7919 16.3169 19.8231V16.94Z" fill="#0C2B4D"/>
    <path d="M16.3168 11.1569H16.1418V16.94H16.3168V11.1569Z" fill="#043E6E"/>
    <path d="M16.1362 10.0137C16.1387 10.0425 16.1412 10.0725 16.1412 10.1025V11.1569H16.3169V10.1787C16.2637 10.1162 16.2031 10.0612 16.1362 10.0137Z" fill="#004A83"/>
    <path d="M16.1418 19.7269V20.8181L16.3175 20.9144V19.8219C16.2593 19.7919 16.2006 19.7594 16.1418 19.7269Z" fill="#092147"/>
    <path d="M16.1418 20.8194L16.3168 20.9163V20.9156L16.1418 20.8194Z" fill="url(#paint7_linear_881_28190)"/>
    <path d="M16.1418 20.8194V22.875C16.1418 22.8975 16.1399 22.9206 16.1381 22.9425C16.2418 22.795 16.3062 22.6181 16.3162 22.4244C16.3162 22.4138 16.3168 22.4031 16.3168 22.3931V20.915L16.1418 20.8194Z" fill="#196891"/>
    <path d="M16.1419 16.94H15.9894V19.6438C16.04 19.6719 16.0913 19.7 16.1419 19.7269V16.94Z" fill="#0B2646"/>
    <path d="M16.1419 11.1569H15.9894V16.94H16.1419V11.1569Z" fill="#033864"/>
    <path d="M15.988 9.92749C15.988 9.93437 15.9887 9.94124 15.9887 9.94874V10.2475V10.5369V11.1569H16.1412V10.1025C16.1405 10.0725 16.1387 10.0431 16.1362 10.0137C16.0899 9.98124 16.0399 9.95249 15.988 9.92749Z" fill="#004377"/>
    <path d="M15.9894 19.6437V20.735L16.1419 20.8181V19.7269C16.0906 19.6987 16.04 19.6719 15.9894 19.6437Z" fill="#081E40"/>
    <path d="M15.9894 20.735V20.7356L16.1419 20.8194L15.9894 20.735Z" fill="url(#paint8_linear_881_28190)"/>
    <path d="M15.9894 20.7357V23.11C16.0456 23.06 16.0956 23.005 16.1381 22.9432C16.14 22.9207 16.1406 22.8982 16.1419 22.8757V20.82L15.9894 20.7357Z" fill="#165E83"/>
    <path d="M15.988 9.92749V10.2275C15.988 10.2337 15.9887 10.2406 15.9887 10.2469V9.94812C15.9893 9.94187 15.988 9.93499 15.988 9.92749Z" fill="#00355E"/>
    <path d="M15.988 10.2275V10.5169C15.988 10.5231 15.9887 10.53 15.9887 10.5362V10.2469C15.9893 10.2406 15.988 10.2344 15.988 10.2275Z" fill="#003156"/>
    <path d="M15.9893 22.6C15.98 22.84 15.905 23.0631 15.7831 23.2512C15.8575 23.2125 15.9268 23.1656 15.9893 23.11V22.6Z" fill="#10445F"/>
    <path d="M15.9893 22.5237C15.9799 22.8131 15.8743 23.0769 15.7062 23.2862C15.7324 23.2756 15.7581 23.2637 15.7831 23.2512C15.9049 23.0625 15.9793 22.84 15.9893 22.6V22.5237Z" fill="#0F4059"/>
    <path d="M15.988 10.5181V10.8581C15.988 10.8631 15.9887 10.8694 15.9887 10.875V11.1575V10.5375C15.9893 10.5313 15.988 10.5238 15.988 10.5181Z" fill="#002F53"/>
    <path d="M15.9894 11.1569H15.9888V11.2744C15.9888 11.2806 15.9894 11.2875 15.9894 11.2937V11.1569Z" fill="#022644"/>
    <path d="M15.988 10.8582V11.1569H15.9887V10.8744C15.9893 10.8688 15.988 10.8632 15.988 10.8582Z" fill="#002E51"/>
    <path d="M15.988 11.2744V11.7406C15.988 11.7469 15.9887 11.7537 15.9887 11.76V16.9394V11.2937C15.9893 11.2875 15.988 11.2806 15.988 11.2744Z" fill="#022542"/>
    <path d="M15.9893 16.94H15.988V19.6425L15.9893 19.6438V16.94Z" fill="#07192E"/>
    <path d="M15.988 11.74V16.94H15.9887V11.7606C15.9893 11.7531 15.988 11.7469 15.988 11.74Z" fill="#022441"/>
    <path d="M15.988 19.6425V20.735H15.9893V19.6438L15.988 19.6425Z" fill="#05132A"/>
    <path d="M15.988 20.735L15.9893 20.7356V20.735H15.988Z" fill="url(#paint9_linear_881_28190)"/>
    <path d="M15.9881 20.735V22.4006C15.9881 22.7419 15.8469 23.0687 15.5987 23.3019C15.5894 23.3112 15.5787 23.3212 15.5681 23.33C15.6156 23.3187 15.6612 23.3037 15.7056 23.2862C15.8737 23.0769 15.9794 22.8131 15.9887 22.5237V20.7362L15.9881 20.735Z" fill="#0F3D56"/>
    <path d="M10.0225 7.83313H9.9906V8.26875V8.07H10.0225V7.83313Z" fill="#EEEEEE"/>
    <path d="M14.9725 7.83313C14.9675 7.83313 14.9631 7.83313 14.9575 7.83313H10.0225V8.07H14.9575L14.9731 8.06938C14.9781 8.06938 14.9825 8.06938 14.9881 8.06938C15.2106 8.06938 15.4168 8.14375 15.5825 8.26938H15.7912C15.6131 8.00625 15.3125 7.83313 14.9725 7.83313Z" fill="#0070C6"/>
    <path d="M15.7913 8.26874H15.5825C15.5956 8.27811 15.6081 8.28874 15.62 8.29936H15.81C15.8044 8.28936 15.7981 8.27874 15.7913 8.26874Z" fill="#006BBE"/>
    <path d="M15.8106 8.29999H15.6206C15.7462 8.40499 15.8462 8.54186 15.9062 8.69686H15.9519C15.9331 8.55249 15.8837 8.41749 15.8106 8.29999Z" fill="#0065B2"/>
    <path d="M15.9513 8.6969H15.9056C15.9294 8.75752 15.9469 8.82065 15.9581 8.88627V8.79502C15.9575 8.76252 15.9556 8.7294 15.9513 8.6969Z" fill="#005EA7"/>
    <path d="M15.9587 8.88623V9.13936C15.9631 9.13936 15.9681 9.13936 15.9725 9.13998V9.03936C15.9725 8.98811 15.9675 8.93623 15.9587 8.88623Z" fill="#005BA2"/>
    <path d="M15.9587 9.14063V9.2075C15.9631 9.21125 15.9681 9.21375 15.9725 9.21688V9.14125C15.9681 9.14062 15.9637 9.14063 15.9587 9.14063Z" fill="#005698"/>
    <path d="M15.9587 9.20624V9.29749C15.9637 9.32311 15.9694 9.34811 15.9725 9.37436V9.21561C15.9681 9.21249 15.9637 9.20999 15.9587 9.20624Z" fill="#00487F"/>
    <path d="M10.0225 8.07001H9.9906V8.26876H10.0225V8.07001Z" fill="#D7D7D7"/>
    <path d="M14.9881 8.0694C14.9831 8.0694 14.9787 8.0694 14.9731 8.0694L14.9575 8.07002H10.0225V8.26877H14.6593C14.6675 8.26877 14.6762 8.26877 14.6837 8.26877C14.6918 8.26877 14.6993 8.26877 14.7081 8.26877H15.5831C15.4168 8.14377 15.2106 8.0694 14.9881 8.0694Z" fill="#0065B3"/>
    <path d="M15.5825 8.26874H14.7075C14.795 8.27061 14.8813 8.28124 14.9644 8.29936H15.62C15.6081 8.28936 15.5956 8.27874 15.5825 8.26874Z" fill="#0061AC"/>
    <path d="M15.62 8.29999H14.9644C15.2325 8.35874 15.47 8.50061 15.6494 8.69686H15.9062C15.8456 8.54061 15.7462 8.40499 15.62 8.29999Z" fill="#005BA1"/>
    <path d="M15.9062 8.6969H15.6493C15.7649 8.82377 15.8555 8.97377 15.9143 9.1394C15.9193 9.1394 15.9237 9.1394 15.9293 9.1394C15.9387 9.1394 15.9493 9.1394 15.9593 9.14003V8.8869C15.9468 8.82065 15.9293 8.75752 15.9062 8.6969Z" fill="#005698"/>
    <path d="M15.9293 9.13936C15.9243 9.13936 15.9199 9.13936 15.9143 9.13936C15.9193 9.15498 15.9249 9.17061 15.9299 9.18748C15.9393 9.19373 15.9493 9.19998 15.9587 9.20561V9.13873C15.9487 9.13936 15.9393 9.13936 15.9293 9.13936Z" fill="#005290"/>
    <path d="M15.9305 9.18811C15.9418 9.22436 15.9518 9.26061 15.9593 9.29749V9.20624C15.9499 9.19999 15.9399 9.19374 15.9305 9.18811Z" fill="#004579"/>
    <path d="M1.33685 8.26878H14.6593C15.3806 8.25565 15.9762 8.83065 15.9887 9.55253V22.4007C15.9887 22.7419 15.8475 23.0688 15.5993 23.3019C15.3468 23.5456 15.01 23.6832 14.6606 23.6844H1.33685C0.986221 23.685 0.647471 23.5488 0.398096 23.3019C0.148096 23.0688 0.0037207 22.7425 0.0012207 22.4007V9.55253C0.0174707 8.8294 0.614346 8.25565 1.33685 8.26878Z" fill="#0078D4"/>
    <path d="M3.83429 13.5694C4.19616 12.8256 4.77491 12.2088 5.49241 11.7969C6.30366 11.3631 7.21616 11.1525 8.13554 11.1856C8.99054 11.1675 9.83491 11.3788 10.5799 11.7969C11.2705 12.1881 11.8337 12.7725 12.1993 13.4775C12.5862 14.2488 12.7805 15.1038 12.7637 15.9675C12.7793 16.8706 12.578 17.765 12.1755 18.5725C11.8074 19.3088 11.2268 19.9181 10.5099 20.3225C8.93179 21.1413 7.05304 21.1413 5.47491 20.3225C4.77991 19.9238 4.21241 19.3356 3.84054 18.6263C3.45054 17.865 3.25304 17.0213 3.26741 16.1663C3.25241 15.2738 3.44616 14.3894 3.83179 13.5844L3.83429 13.5694ZM5.62179 17.7263C5.81366 18.195 6.13741 18.5988 6.55366 18.8881C6.98304 19.1813 7.49429 19.33 8.01241 19.3163C8.55491 19.3344 9.08929 19.1819 9.53991 18.8806C9.95366 18.5913 10.2693 18.1838 10.4493 17.7119C10.648 17.1919 10.7455 16.6406 10.7393 16.085C10.7474 15.5231 10.6537 14.9638 10.4643 14.435C10.2987 13.9556 9.99616 13.5363 9.59366 13.2288C9.14804 12.9131 8.61179 12.7519 8.06616 12.7713C7.53741 12.7563 7.01679 12.9056 6.57679 13.1994C6.15429 13.4913 5.82304 13.8956 5.62179 14.3681C5.19054 15.4431 5.19054 16.6469 5.62179 17.7263Z" fill="white"/>
    <path d="M8.06746 12.7694C8.09621 12.7687 8.12558 12.7675 8.15433 12.7675C8.66996 12.7675 9.17308 12.9281 9.59496 13.2269C9.99746 13.5344 10.3 13.9544 10.4656 14.4331C10.6481 14.9406 10.7418 15.4775 10.7418 16.0162C10.7418 16.0381 10.7418 16.06 10.7412 16.0819C10.7412 16.0969 10.7412 16.1125 10.7412 16.1275C10.7412 16.6675 10.6437 17.2044 10.45 17.7094C10.27 18.18 9.95433 18.5881 9.54058 18.8781C9.11371 19.1637 8.61308 19.3156 8.09996 19.3156C8.07121 19.3156 8.04183 19.315 8.01308 19.3137C7.99058 19.3144 7.96808 19.3144 7.94558 19.3144C7.44996 19.3144 6.96558 19.1656 6.55433 18.8856C6.13808 18.5969 5.81371 18.1937 5.62246 17.7237C5.40683 17.1844 5.29871 16.6137 5.29871 16.0431C5.29871 15.4725 5.40746 14.9019 5.62308 14.3625C5.82371 13.89 6.15433 13.4856 6.57808 13.1937C6.99808 12.9144 7.49058 12.765 7.99371 12.765C8.01808 12.7675 8.04246 12.7681 8.06746 12.7694ZM7.94683 11.1825C7.09121 11.1825 6.24746 11.3931 5.49183 11.7969C4.77496 12.2087 4.19621 12.8262 3.83371 13.5694L3.83308 13.5844C3.46121 14.3594 3.26746 15.2081 3.26746 16.0675C3.26746 16.1006 3.26746 16.1344 3.26808 16.1669C3.26746 16.195 3.26746 16.2237 3.26746 16.2519C3.26746 17.0775 3.46371 17.8912 3.84058 18.6269C4.21308 19.3362 4.77933 19.9244 5.47496 20.3231C6.26371 20.7325 7.12871 20.9375 7.99183 20.9375C8.85496 20.9375 9.71996 20.7325 10.5087 20.3231C11.2256 19.92 11.8062 19.3106 12.1743 18.5731C12.5618 17.7944 12.7637 16.9369 12.7637 16.0681C12.7637 16.035 12.7637 16.0012 12.7631 15.9675C12.7637 15.9344 12.7637 15.9 12.7637 15.8669C12.7637 15.0375 12.5693 14.2194 12.1975 13.4781C11.8318 12.7731 11.2693 12.1887 10.5781 11.7975C9.86183 11.395 9.05496 11.1844 8.23558 11.1844C8.20121 11.1844 8.16808 11.1844 8.13371 11.185C8.07246 11.1831 8.00996 11.1825 7.94683 11.1825Z" fill="white"/>
    <path d="M3.83429 13.5694C4.19616 12.8256 4.77491 12.2088 5.49241 11.7969C6.30366 11.3631 7.21616 11.1525 8.13554 11.1856C8.99054 11.1675 9.83491 11.3788 10.5799 11.7969C11.2705 12.1881 11.8337 12.7725 12.1993 13.4775C12.5862 14.2488 12.7805 15.1038 12.7637 15.9675C12.7793 16.8706 12.578 17.765 12.1755 18.5725C11.8074 19.3088 11.2268 19.9181 10.5099 20.3225C8.93179 21.1413 7.05304 21.1413 5.47491 20.3225C4.77991 19.9238 4.21241 19.3356 3.84054 18.6263C3.45054 17.865 3.25304 17.0213 3.26741 16.1663C3.25241 15.2738 3.44616 14.3894 3.83179 13.5844L3.83429 13.5694ZM5.62179 17.7263C5.81366 18.195 6.13741 18.5988 6.55366 18.8881C6.98304 19.1813 7.49429 19.33 8.01241 19.3163C8.55491 19.3344 9.08929 19.1819 9.53991 18.8806C9.95366 18.5913 10.2693 18.1838 10.4493 17.7119C10.648 17.1919 10.7455 16.6406 10.7393 16.085C10.7474 15.5231 10.6537 14.9638 10.4643 14.435C10.2987 13.9556 9.99616 13.5363 9.59366 13.2288C9.14804 12.9131 8.61179 12.7519 8.06616 12.7713C7.53741 12.7563 7.01679 12.9056 6.57679 13.1994C6.15429 13.4913 5.82304 13.8956 5.62179 14.3681C5.19054 15.4431 5.19054 16.6469 5.62179 17.7263Z" fill="url(#paint10_linear_881_28190)"/>
    <path d="M3.83429 13.5694C4.19616 12.8256 4.77491 12.2088 5.49241 11.7969C6.30366 11.3631 7.21616 11.1525 8.13554 11.1856C8.99054 11.1675 9.83491 11.3788 10.5799 11.7969C11.2705 12.1881 11.8337 12.7725 12.1993 13.4775C12.5862 14.2488 12.7805 15.1038 12.7637 15.9675C12.7793 16.8706 12.578 17.765 12.1755 18.5725C11.8074 19.3088 11.2268 19.9181 10.5099 20.3225C8.93179 21.1413 7.05304 21.1413 5.47491 20.3225C4.77991 19.9238 4.21241 19.3356 3.84054 18.6263C3.45054 17.865 3.25304 17.0213 3.26741 16.1663C3.25241 15.2738 3.44616 14.3894 3.83179 13.5844L3.83429 13.5694ZM5.62179 17.7263C5.81366 18.195 6.13741 18.5988 6.55366 18.8881C6.98304 19.1813 7.49429 19.33 8.01241 19.3163C8.55491 19.3344 9.08929 19.1819 9.53991 18.8806C9.95366 18.5913 10.2693 18.1838 10.4493 17.7119C10.648 17.1919 10.7455 16.6406 10.7393 16.085C10.7474 15.5231 10.6537 14.9638 10.4643 14.435C10.2987 13.9556 9.99616 13.5363 9.59366 13.2288C9.14804 12.9131 8.61179 12.7519 8.06616 12.7713C7.53741 12.7563 7.01679 12.9056 6.57679 13.1994C6.15429 13.4913 5.82304 13.8956 5.62179 14.3681C5.19054 15.4431 5.19054 16.6469 5.62179 17.7263Z" fill="url(#paint11_linear_881_28190)"/>
  </g>
  <defs>
    <linearGradient id="paint0_linear_881_28190" x1="31.6856" y1="22.5783" x2="21.5863" y2="34.1488" gradientUnits="userSpaceOnUse">
      <stop stop-color="#35B8F1"/>
      <stop offset="0.75" stop-color="#0D64AD"/>
      <stop offset="1" stop-color="#0D64AD"/>
    </linearGradient>
    <linearGradient id="paint1_linear_881_28190" x1="27.5733" y1="18.9888" x2="17.4739" y2="30.5593" gradientUnits="userSpaceOnUse">
      <stop stop-color="#1F6FAC"/>
      <stop offset="0.75" stop-color="#0B458A"/>
      <stop offset="1" stop-color="#0B458A"/>
    </linearGradient>
    <linearGradient id="paint2_linear_881_28190" x1="26.5469" y1="18.093" x2="16.4475" y2="29.6634" gradientUnits="userSpaceOnUse">
      <stop stop-color="#1E6BA6"/>
      <stop offset="0.75" stop-color="#0B4385"/>
      <stop offset="1" stop-color="#0B4385"/>
    </linearGradient>
    <linearGradient id="paint3_linear_881_28190" x1="26.389" y1="17.9563" x2="22.4751" y2="22.4334" gradientUnits="userSpaceOnUse">
      <stop stop-color="#1C649B"/>
      <stop offset="0.75" stop-color="#0A3E7D"/>
      <stop offset="1" stop-color="#0A3E7D"/>
    </linearGradient>
    <linearGradient id="paint4_linear_881_28190" x1="26.3323" y1="17.9055" x2="16.233" y2="29.4761" gradientUnits="userSpaceOnUse">
      <stop stop-color="#1A5E91"/>
      <stop offset="0.75" stop-color="#093A75"/>
      <stop offset="1" stop-color="#093A75"/>
    </linearGradient>
    <linearGradient id="paint5_linear_881_28190" x1="26.1379" y1="17.736" x2="16.0385" y2="29.3064" gradientUnits="userSpaceOnUse">
      <stop stop-color="#185788"/>
      <stop offset="0.75" stop-color="#09366D"/>
      <stop offset="1" stop-color="#09366D"/>
    </linearGradient>
    <linearGradient id="paint6_linear_881_28190" x1="25.9178" y1="17.5439" x2="15.8185" y2="29.1143" gradientUnits="userSpaceOnUse">
      <stop stop-color="#17527F"/>
      <stop offset="0.75" stop-color="#083366"/>
      <stop offset="1" stop-color="#083366"/>
    </linearGradient>
    <linearGradient id="paint7_linear_881_28190" x1="25.7658" y1="17.411" x2="15.6663" y2="28.9816" gradientUnits="userSpaceOnUse">
      <stop stop-color="#13456B"/>
      <stop offset="0.75" stop-color="#072B56"/>
      <stop offset="1" stop-color="#072B56"/>
    </linearGradient>
    <linearGradient id="paint8_linear_881_28190" x1="25.6445" y1="17.3053" x2="15.5453" y2="28.8757" gradientUnits="userSpaceOnUse">
      <stop stop-color="#113E60"/>
      <stop offset="0.75" stop-color="#06274D"/>
      <stop offset="1" stop-color="#06274D"/>
    </linearGradient>
    <linearGradient id="paint9_linear_881_28190" x1="18.8226" y1="19.7105" x2="15.3633" y2="23.6828" gradientUnits="userSpaceOnUse">
      <stop stop-color="#0B283F"/>
      <stop offset="0.75" stop-color="#041932"/>
      <stop offset="1" stop-color="#041932"/>
    </linearGradient>
    <linearGradient id="paint10_linear_881_28190" x1="8.01577" y1="12.7522" x2="8.01577" y2="22.5296" gradientUnits="userSpaceOnUse">
      <stop stop-color="#F2F2F2"/>
      <stop offset="1" stop-color="white"/>
    </linearGradient>
    <linearGradient id="paint11_linear_881_28190" x1="8.01577" y1="12.7522" x2="8.01577" y2="22.5296" gradientUnits="userSpaceOnUse">
      <stop stop-color="#F2F2F2"/>
      <stop offset="1" stop-color="white"/>
    </linearGradient>
    <clipPath id="clip0_881_28190">
      <rect width="32" height="32" fill="white"/>
    </clipPath>
  </defs>
</svg>