<svg xmlns="http://www.w3.org/2000/svg" width="28" height="32" viewBox="0 0 28 32" fill="none">
  <g clip-path="url(#clip0_881_27919)">
    <path d="M4.33203 19.5188V26.5564C4.33203 28.4998 9.42183 30.0752 15.7004 30.0752C21.9791 30.0752 27.0689 28.4998 27.0689 26.5564V19.5188H4.33203Z" fill="#881421"/>
    <path d="M4.33203 12.4812V19.5188C4.33203 21.4622 9.42183 23.0376 15.7004 23.0376C21.9791 23.0376 27.0689 21.4622 27.0689 19.5188V12.4812H4.33203Z" fill="#AF2031"/>
    <path d="M4.33203 5.4436V12.4812C4.33203 14.4246 9.42183 16 15.7004 16C21.9791 16 27.0689 14.4246 27.0689 12.4812V5.4436H4.33203Z" fill="#C94F60"/>
    <path d="M15.7004 8.96239C21.979 8.96239 27.0689 7.38697 27.0689 5.4436C27.0689 3.50022 21.979 1.9248 15.7004 1.9248C9.42184 1.9248 4.33203 3.50022 4.33203 5.4436C4.33203 7.38697 9.42184 8.96239 15.7004 8.96239Z" fill="#E08095"/>
    <path opacity="0.2" d="M12.9937 9.68244V23.9417C12.9949 24.0144 12.9876 24.0871 12.972 24.1582C12.9227 24.451 12.7711 24.7168 12.544 24.9082C12.3169 25.0996 12.0293 25.2041 11.7323 25.203H4.33203V8.42108H11.7323C11.898 8.4208 12.0622 8.45323 12.2154 8.51652C12.3685 8.5798 12.5077 8.6727 12.6249 8.78989C12.7421 8.90707 12.835 9.04624 12.8982 9.1994C12.9615 9.35256 12.994 9.51671 12.9937 9.68244Z" fill="black"/>
    <path opacity="0.1" d="M13.535 9.6824V22.8589C13.5305 23.3356 13.3391 23.7915 13.002 24.1286C12.6649 24.4657 12.209 24.6571 11.7323 24.6616H4.33203V7.8797H11.7323C12.2099 7.88141 12.6674 8.07189 13.0051 8.40959C13.3428 8.74729 13.5333 9.20482 13.535 9.6824Z" fill="black"/>
    <path opacity="0.2" d="M12.9937 9.68244V22.859C12.994 23.0247 12.9615 23.1888 12.8982 23.342C12.835 23.4952 12.7421 23.6343 12.6249 23.7515C12.5077 23.8687 12.3685 23.9616 12.2154 24.0249C12.0622 24.0882 11.898 24.1206 11.7323 24.1203H4.33203V8.42108H11.7323C11.898 8.4208 12.0622 8.45323 12.2154 8.51652C12.3685 8.5798 12.5077 8.6727 12.6249 8.78989C12.7421 8.90707 12.835 9.04624 12.8982 9.1994C12.9615 9.35256 12.994 9.51671 12.9937 9.68244Z" fill="black"/>
    <path opacity="0.1" d="M12.4523 9.68244V22.859C12.4526 23.0247 12.4202 23.1888 12.3569 23.342C12.2936 23.4952 12.2007 23.6343 12.0835 23.7515C11.9663 23.8687 11.8272 23.9616 11.674 24.0249C11.5208 24.0882 11.3567 24.1206 11.191 24.1203H4.33203V8.42108H11.191C11.3567 8.4208 11.5208 8.45323 11.674 8.51652C11.8272 8.5798 11.9663 8.6727 12.0835 8.78989C12.2007 8.90707 12.2936 9.04624 12.3569 9.1994C12.4202 9.35256 12.4526 9.51671 12.4523 9.68244Z" fill="black"/>
    <path d="M11.1893 8.42108H-1.44259C-2.14011 8.42108 -2.70557 8.98654 -2.70557 9.68406V22.316C-2.70557 23.0135 -2.14011 23.579 -1.44259 23.579H11.1893C11.8869 23.579 12.4523 23.0135 12.4523 22.316V9.68406C12.4523 8.98654 11.8869 8.42108 11.1893 8.42108Z" fill="#AF2031"/>
    <path d="M3.96598 11.8944H5.82661L8.81541 20.1051H7.05764L6.39936 18.147H3.32447L2.67756 20.1051H0.931152L3.96598 11.8944ZM6.00417 16.8819L5.04814 13.9099C4.96944 13.6923 4.91002 13.4682 4.87058 13.2402H4.83593C4.80028 13.4742 4.74282 13.7044 4.66432 13.9277L3.69692 16.8819H6.00417Z" fill="white"/>
  </g>
  <defs>
    <clipPath id="clip0_881_27919">
      <rect width="26.1376" height="32" fill="white" transform="translate(0.931152)"/>
    </clipPath>
  </defs>
</svg>