<svg xmlns="http://www.w3.org/2000/svg" width="16" height="16" viewBox="0 0 16 16" fill="none">
  <g clip-path="url(#clip0_1608_52223)">
    <path d="M11.16 6.24805H15.2929C15.6833 6.24805 15.9998 6.56457 15.9998 6.95502V10.7195C15.9998 12.1545 14.8365 13.3178 13.4015 13.3178H13.3892C11.9542 13.318 10.7907 12.1549 10.7905 10.7199C10.7905 10.7199 10.7905 10.7196 10.7905 10.7195V6.61754C10.7905 6.41347 10.956 6.24805 11.16 6.24805Z" fill="#5059C9"/>
    <path d="M13.9537 5.50411C14.8785 5.50411 15.6281 4.75445 15.6281 3.82969C15.6281 2.90494 14.8785 2.15527 13.9537 2.15527C13.029 2.15527 12.2793 2.90494 12.2793 3.82969C12.2793 4.75445 13.029 5.50411 13.9537 5.50411Z" fill="#5059C9"/>
    <path d="M8.74429 5.50421C10.0801 5.50421 11.1629 4.42136 11.1629 3.0856C11.1629 1.74984 10.0801 0.666992 8.74429 0.666992C7.40853 0.666992 6.32568 1.74984 6.32568 3.0856C6.32568 4.42136 7.40853 5.50421 8.74429 5.50421Z" fill="#7B83EB"/>
    <path d="M11.969 6.24805H5.14707C4.76127 6.25759 4.45607 6.57777 4.46503 6.96359V11.2572C4.41115 13.5724 6.24287 15.4937 8.55805 15.5504C10.8732 15.4937 12.7049 13.5724 12.6511 11.2572V6.96359C12.66 6.57777 12.3548 6.25759 11.969 6.24805Z" fill="#7B83EB"/>
    <path opacity="0.1" d="M8.93016 6.24805V12.2648C8.92831 12.5407 8.76111 12.7886 8.50597 12.8936C8.42474 12.928 8.33743 12.9457 8.24923 12.9457H4.79248C4.74411 12.8229 4.69946 12.7001 4.66225 12.5736C4.532 12.1467 4.46554 11.7028 4.46504 11.2564V6.96247C4.45609 6.57727 4.76078 6.25759 5.14597 6.24805H8.93016Z" fill="black"/>
    <path opacity="0.2" d="M8.55807 6.24805V12.6369C8.55807 12.7251 8.54034 12.8124 8.50597 12.8936C8.40092 13.1488 8.15305 13.316 7.87714 13.3178H4.96737C4.90411 13.195 4.84458 13.0722 4.79248 12.9457C4.74039 12.8192 4.69946 12.7001 4.66225 12.5736C4.532 12.1467 4.46554 11.7028 4.46504 11.2564V6.96247C4.45609 6.57727 4.76078 6.25759 5.14597 6.24805H8.55807Z" fill="black"/>
    <path opacity="0.2" d="M8.55806 6.24805V11.8927C8.55523 12.2676 8.25202 12.5708 7.87713 12.5736H4.66225C4.532 12.1467 4.46554 11.7028 4.46504 11.2564V6.96247C4.45609 6.57727 4.76078 6.25759 5.14597 6.24805H8.55806Z" fill="black"/>
    <path opacity="0.2" d="M8.18596 6.24805V11.8927C8.18313 12.2676 7.87992 12.5708 7.50503 12.5736H4.66225C4.532 12.1467 4.46554 11.7028 4.46504 11.2564V6.96247C4.45609 6.57727 4.76078 6.25759 5.14597 6.24805H8.18596Z" fill="black"/>
    <path opacity="0.1" d="M8.93026 4.32448V5.49657C8.867 5.50029 8.80747 5.50402 8.74421 5.50402C8.68095 5.50402 8.62142 5.5003 8.55816 5.49657C8.43256 5.48824 8.308 5.46831 8.18607 5.43704C7.43258 5.2586 6.81007 4.73016 6.51165 4.01565C6.4603 3.89565 6.42044 3.77106 6.39258 3.64355H8.24932C8.6248 3.64498 8.92883 3.949 8.93026 4.32448Z" fill="black"/>
    <path opacity="0.2" d="M8.55823 4.69655V5.49655C8.43263 5.48822 8.30807 5.46829 8.18614 5.43702C7.43265 5.25858 6.81014 4.73014 6.51172 4.01562H7.8773C8.25277 4.01705 8.5568 4.32108 8.55823 4.69655Z" fill="black"/>
    <path opacity="0.2" d="M8.55823 4.69655V5.49655C8.43263 5.48822 8.30807 5.46829 8.18614 5.43702C7.43265 5.25858 6.81014 4.73014 6.51172 4.01562H7.8773C8.25277 4.01705 8.5568 4.32108 8.55823 4.69655Z" fill="black"/>
    <path opacity="0.2" d="M8.18614 4.69656V5.43702C7.43265 5.25858 6.81014 4.73014 6.51172 4.01562H7.50521C7.88069 4.01705 8.18471 4.32108 8.18614 4.69656Z" fill="black"/>
    <path d="M0.682043 4.01562H7.50399C7.88068 4.01562 8.18604 4.32099 8.18604 4.69767V11.5196C8.18604 11.8963 7.88067 12.2017 7.50399 12.2017H0.682043C0.305358 12.2017 0 11.8963 0 11.5196V4.69767C0 4.32099 0.305365 4.01562 0.682043 4.01562Z" fill="url(#paint0_linear_1608_52223)"/>
    <path d="M5.88829 6.61197H4.52457V10.3255H3.65574V6.61197H2.29834V5.8916H5.88829V6.61197Z" fill="white"/>
  </g>
  <defs>
    <linearGradient id="paint0_linear_1608_52223" x1="142.208" y1="-49.2781" x2="676.397" y2="875.914" gradientUnits="userSpaceOnUse">
      <stop stop-color="#5A62C3"/>
      <stop offset="0.5" stop-color="#4D55BD"/>
      <stop offset="1" stop-color="#3940AB"/>
    </linearGradient>
    <clipPath id="clip0_1608_52223">
      <rect width="16" height="16" fill="white"/>
    </clipPath>
  </defs>
</svg>