<svg xmlns="http://www.w3.org/2000/svg" width="28" height="32" viewBox="0 0 28 32" fill="none">
  <g clip-path="url(#clip0_858_13907)">
    <path d="M11.5097 -0.000310354C11.4133 -0.0115748 9.86488 0.545512 8.87015 0.949699C7.52164 1.49737 6.47407 2.02323 5.82853 2.47648C5.61824 2.6241 5.36168 2.87414 5.27096 3.01252C5.27027 3.01006 5.26921 3.00782 5.26857 3.00534C5.26857 3.00534 5.25598 3.0244 5.24464 3.05799C5.24403 3.05938 5.24276 3.06143 5.24225 3.06277C5.23795 3.0762 5.23365 3.09064 5.23029 3.10824C5.22269 3.1408 5.21856 3.17531 5.21832 3.21114L5.2255 3.21832C5.22837 3.2668 5.23952 3.3228 5.26378 3.38344C5.31969 3.52318 5.48559 3.6914 5.6706 3.86922C5.6706 3.86922 7.60845 5.75852 7.84583 6.03251C8.91959 7.27175 9.38694 8.49292 9.43005 10.1772C9.45769 11.2581 9.24953 12.2078 8.74325 13.3121C7.83582 15.2913 5.92424 17.473 2.97129 19.9001L3.00718 19.8881C2.98939 19.9024 2.96935 19.9199 2.95214 19.9336C2.59973 20.2145 2.07611 20.7345 1.80824 21.0678C1.40977 21.5638 1.09748 22.0921 0.963523 22.4989C0.722491 23.2307 0.840863 23.9709 1.30573 24.655C1.89954 25.5288 3.08009 26.4173 4.45494 27.0217C5.15623 27.33 6.3411 27.7261 7.22847 27.9502C8.70732 28.3236 11.5652 28.7298 13.1393 28.7901C13.4585 28.8023 13.8831 28.803 13.9026 28.7901C13.9372 28.7673 14.1831 28.3012 14.4674 27.7204C15.4348 25.7443 16.1344 23.8921 16.5111 22.3098C16.7391 21.3518 16.9152 20.0747 17.0304 18.5599C17.0626 18.1356 17.0743 16.7197 17.0495 16.2388C17.0092 15.4561 16.9423 14.8188 16.8317 14.1927C16.8239 14.1486 16.8176 14.1075 16.815 14.0755C20.3183 13.0344 24.1908 12.0901 26.7577 11.6968L27.1573 11.637L27.0951 11.5413C26.746 10.9987 26.5084 10.6635 26.2217 10.3089C25.3839 9.27278 24.3693 8.42661 23.1264 7.73053C21.4203 6.77531 19.2057 6.03313 16.4076 5.47672C15.8798 5.37179 14.7264 5.17605 13.7849 5.02923L13.6915 4.86171C13.1772 3.95421 12.6095 2.83136 12.2796 2.07142C12.0241 1.48291 11.7792 0.805911 11.6431 0.314902C11.5622 0.0233059 11.5539 0.00426128 11.5091 -0.000976562L11.5097 -0.000310354ZM11.4355 0.222244C11.4393 0.221551 11.442 0.221525 11.4426 0.222244C11.4457 0.225902 11.4632 0.347937 11.4809 0.492652C11.5554 1.10214 11.6911 1.69429 11.9045 2.33049C12.0653 2.80991 12.0672 2.78116 11.8758 2.72773C11.4308 2.60355 9.43888 2.26218 7.99671 2.06247C7.76434 2.03029 7.56905 2.00094 7.56597 1.99786C7.54766 1.97955 8.6068 1.42406 9.07598 1.20575C9.67773 0.92578 11.3162 0.243686 11.4355 0.222244ZM7.23333 2.17495L7.40324 2.23238C8.32912 2.54755 10.6504 2.99213 11.9332 3.09861C12.0779 3.11063 12.1975 3.12156 12.2012 3.12494C12.2049 3.12831 12.082 3.19398 11.9284 3.27091C11.3096 3.58091 10.6288 3.95954 10.1576 4.25446C10.046 4.32432 9.94638 4.38095 9.90153 4.40043C9.75995 4.37637 9.61736 4.35065 9.47557 4.32624L9.06158 3.92422C8.29198 3.18012 7.68933 2.60565 7.4573 2.38801L7.23236 2.17504L7.23333 2.17495ZM7.06342 2.31135L7.67603 3.07711C8.01358 3.49819 8.35233 3.9157 8.42744 4.0056C8.49747 4.08944 8.54767 4.15681 8.55188 4.16833C8.11652 4.09274 7.65203 4.00901 7.29311 3.93142C7.26853 3.9261 7.23301 3.91862 7.20457 3.91227C7.18439 3.90764 7.17114 3.90474 7.15193 3.90031C7.0944 3.88722 7.0348 3.87346 6.96767 3.85723C6.89214 3.83928 6.82415 3.82273 6.76187 3.80698C6.66014 3.78067 6.55491 3.75111 6.45078 3.72083C6.44915 3.72035 6.44762 3.71892 6.44599 3.71844C6.3862 3.70101 6.32675 3.68417 6.26891 3.66579C6.25988 3.66292 6.25179 3.66156 6.24258 3.65861C6.20728 3.64723 6.17353 3.63437 6.13968 3.62272C6.09756 3.6061 6.04932 3.58734 6.00337 3.57018V3.52232C6.00641 3.22825 6.37695 2.79351 7.00607 2.34978L7.0635 2.3115L7.06342 2.31135ZM12.285 3.3547C12.3034 3.35612 12.3216 3.39359 12.376 3.51264C12.5247 3.83845 12.9891 4.72263 13.101 4.89339C13.1103 4.90746 13.1191 4.91779 13.1202 4.9245C12.174 4.77584 11.3683 4.6453 10.6291 4.52248C10.633 4.5151 10.6731 4.48902 10.7248 4.46026C11.1821 4.20594 11.6446 3.88521 12.0553 3.53896C12.1535 3.45618 12.2462 3.37871 12.2635 3.36428C12.2706 3.35834 12.2789 3.35423 12.285 3.3547ZM6.39092 4.0942C6.39364 4.09175 6.4673 4.11433 6.55604 4.14446C6.71958 4.19997 6.93424 4.2657 7.18541 4.3359C7.36136 4.38508 7.55669 4.43653 7.76212 4.48905C8.02433 4.55609 8.24035 4.61516 8.24311 4.61827C8.27214 4.65091 8.71273 6.05569 8.86291 6.59487C8.92023 6.80069 8.96273 6.97125 8.95863 6.97536C8.95452 6.97947 8.90566 6.90407 8.85095 6.80785C8.34148 5.91191 7.53452 5.00218 6.60151 4.26888C6.48522 4.17748 6.39092 4.09766 6.39092 4.0942ZM8.53744 4.68767C8.55989 4.68612 8.65664 4.70285 8.77196 4.72835C9.51491 4.89265 10.8431 5.14961 11.6963 5.29311C11.8384 5.31701 11.9547 5.34271 11.9547 5.35054C11.9547 5.35837 11.9021 5.39223 11.8375 5.42472C11.6943 5.49672 11.1147 5.84302 10.9209 5.97272C10.4371 6.29651 10.0029 6.64354 9.68611 6.95864C9.55882 7.08527 9.45263 7.18837 9.4492 7.18837C9.44578 7.18837 9.42255 7.1137 9.39895 7.02326C9.24059 6.41623 8.91228 5.51952 8.61879 4.88868C8.57156 4.78717 8.53264 4.69793 8.53264 4.69006C8.53264 4.68907 8.53423 4.68788 8.53744 4.68767ZM12.316 5.40558C12.3409 5.41386 12.3859 5.56177 12.4692 5.89136C12.6286 6.52248 12.7045 7.23145 12.6798 7.8871C12.6729 8.06958 12.6606 8.23789 12.6535 8.2628L12.6391 8.30827L12.4142 8.23648C11.9501 8.08792 11.1912 7.86355 10.5411 7.6836C10.1715 7.58132 9.86865 7.49157 9.86865 7.48258C9.86865 7.45557 10.4074 6.91456 10.6392 6.70962C11.0819 6.31819 12.2745 5.39135 12.3167 5.40544L12.316 5.40558ZM12.6152 5.44865C12.6286 5.43614 14.4191 5.7475 15.2332 5.90333C15.8399 6.01948 16.719 6.20189 16.7719 6.22399C16.7974 6.23466 16.7068 6.28638 16.4153 6.41782C15.2624 6.93773 14.4071 7.4003 13.5581 7.9685C13.3345 8.11816 13.1504 8.2413 13.1465 8.2413C13.1426 8.2413 13.1395 8.11618 13.1393 7.96371C13.1387 7.13576 12.9734 6.3007 12.6703 5.59458C12.6377 5.5186 12.612 5.45165 12.6153 5.44861L12.6152 5.44865ZM17.248 6.3652C17.2619 6.37907 17.2032 6.73325 17.1523 6.94191C16.9938 7.59133 16.5722 8.55576 16.0539 9.46174C15.9626 9.6214 15.8815 9.75321 15.872 9.75609C15.8626 9.75897 15.7456 9.69828 15.6112 9.61969C15.1044 9.32325 14.5304 9.042 13.9002 8.78209C13.7244 8.70963 13.5728 8.64569 13.5652 8.63851C13.5364 8.61155 14.9381 7.68414 15.6806 7.23861C16.2745 6.88224 17.2314 6.3485 17.248 6.3652ZM17.5783 6.41784C17.6186 6.41784 18.4119 6.6348 18.8227 6.75765C19.8459 7.06367 21.0267 7.49395 21.7924 7.84167L22.1106 7.98525L21.8881 8.0379C20.0146 8.4683 18.407 8.96555 16.8604 9.59332C16.7319 9.64549 16.6217 9.68904 16.6139 9.68904C16.606 9.68904 16.6453 9.58795 16.7024 9.4665C17.1673 8.47873 17.4692 7.44388 17.5471 6.56378C17.5542 6.48368 17.5679 6.41784 17.5783 6.41784ZM9.6817 8.23179C9.69439 8.21926 10.2995 8.36175 10.6293 8.45434C11.1251 8.59351 12.1793 8.94656 12.18 8.97362C12.18 8.97888 12.0635 9.07978 11.9216 9.19856C11.3513 9.67567 10.8025 10.1751 10.1435 10.8114C9.94819 11.0001 9.78082 11.1536 9.77262 11.1536C9.76441 11.1536 9.76089 11.125 9.76544 11.0914C9.86468 10.3589 9.84376 9.41897 9.70562 8.46146C9.6881 8.34008 9.67731 8.23613 9.6817 8.23179ZM22.4149 8.24375C22.4239 8.25282 22.1333 8.70583 21.953 8.96405C21.69 9.34083 21.3092 9.83649 20.4406 10.9287C19.9844 11.5024 19.4701 12.152 19.2967 12.3717C19.1234 12.5914 18.9778 12.7713 18.9737 12.7713C18.9695 12.7713 18.9132 12.6923 18.8492 12.5967C18.3596 11.8652 17.7787 11.2232 17.0856 10.6463C16.9562 10.5387 16.8112 10.4193 16.7625 10.3831C16.7139 10.3469 16.6742 10.3141 16.674 10.3089C16.6735 10.297 17.4132 9.97888 17.9782 9.74895C18.9618 9.34867 20.3056 8.87046 21.3116 8.56201C21.8422 8.39935 22.4068 8.23569 22.4149 8.24375ZM22.7475 8.33229C22.7634 8.32905 22.8696 8.37936 22.9964 8.45194C24.056 9.05892 25.0946 9.83989 25.911 10.6416C26.1433 10.8696 26.7116 11.4599 26.7031 11.4648C26.701 11.466 26.5054 11.4804 26.2676 11.4983C24.4314 11.6364 22.0834 12.0269 19.8232 12.5703C19.6697 12.6073 19.5374 12.6397 19.5289 12.6397C19.5203 12.6397 19.6885 12.4695 19.9022 12.264C21.2295 10.988 21.8341 10.1834 22.5465 8.7439C22.6526 8.5295 22.7437 8.34356 22.7475 8.33229ZM13.0437 9.32779C13.1043 9.3414 13.6694 9.60444 14.0966 9.81835C14.4873 10.014 15.0793 10.3291 15.1089 10.3568C15.1126 10.3603 14.9034 10.469 14.6447 10.5985C13.8254 11.0084 13.1255 11.3952 12.3928 11.8428C12.1839 11.9705 12.0083 12.075 12.0028 12.075C11.9845 12.075 11.9911 12.0594 12.1081 11.8452C12.4983 11.1306 12.8124 10.2764 12.9935 9.44264C13.0096 9.36822 13.03 9.32473 13.0437 9.32779ZM12.4742 9.4283C12.486 9.44011 12.3375 9.98011 12.2444 10.2683C12.066 10.8209 11.7638 11.5162 11.4739 12.0391C11.4058 12.1619 11.3034 12.3416 11.2442 12.4387L11.1365 12.6134L10.89 12.3789C10.6059 12.1034 10.3744 11.9303 10.0788 11.7783C9.96261 11.7185 9.86834 11.6643 9.86819 11.6562C9.86766 11.6203 10.6126 10.9429 11.1868 10.4573C11.5978 10.1098 12.4637 9.4178 12.4742 9.4283ZM15.9393 10.8545L16.1522 10.9909C16.64 11.3076 17.2171 11.7344 17.6574 12.1013C17.9042 12.3069 18.3821 12.7367 18.4806 12.8407L18.5357 12.8958L18.1815 12.9939C16.1842 13.548 14.6407 14.0433 12.8403 14.7049C12.6405 14.7783 12.4692 14.8389 12.4574 14.8389C12.4326 14.8389 12.4078 14.8598 12.857 14.4465C14.0086 13.3867 15.0259 12.2202 15.7861 11.0843L15.9393 10.8545ZM15.0275 11.0819C15.038 11.0923 14.4368 11.9349 14.0799 12.41C13.6529 12.9784 12.8922 13.9285 12.3689 14.547C12.1502 14.8054 11.965 15.0197 11.9549 15.0232C11.9438 15.027 11.9359 14.963 11.9357 14.8628C11.9347 14.3351 11.8007 13.7706 11.5648 13.293C11.4652 13.0913 11.4486 13.0436 11.4691 13.025C11.5512 12.9506 12.8219 12.2243 13.6228 11.795C14.1729 11.5001 15.017 11.0714 15.0275 11.0819ZM9.52245 12.4304C9.53336 12.4304 9.63392 12.4824 9.74739 12.5453C10.0254 12.6993 10.276 12.8687 10.4964 13.0526C10.5049 13.0597 10.3908 13.1516 10.2427 13.2584C9.82948 13.5565 9.20015 14.0333 8.83565 14.3232C8.4511 14.6291 8.43822 14.6383 8.48148 14.5721C8.76946 14.1317 8.91417 13.8807 9.06538 13.5622C9.19979 13.2791 9.33342 12.9428 9.42912 12.6505C9.46887 12.529 9.51153 12.4304 9.52245 12.4304ZM10.9893 13.5814C11.0092 13.579 11.0365 13.6157 11.1545 13.792C11.4031 14.1635 11.5935 14.6594 11.6426 15.0627L11.6522 15.1489L11.0564 15.381C9.98681 15.796 9.00295 16.2059 8.33788 16.5105C8.15182 16.5957 7.82251 16.7525 7.60802 16.8599C7.39353 16.9672 7.22035 17.0511 7.22035 17.0465C7.22035 17.0419 7.35489 16.9411 7.51947 16.8216C8.82472 15.874 9.95009 14.8363 10.7979 13.7992C10.8886 13.6883 10.9694 13.5902 10.9797 13.5838C10.9825 13.5821 10.9865 13.5818 10.9893 13.5814ZM10.3121 13.7489C10.3294 13.7662 9.82968 14.3321 9.49367 14.675C8.65278 15.5333 7.81994 16.2047 6.78715 16.8598C6.65793 16.9418 6.53942 17.0159 6.52392 17.025C6.49557 17.0415 6.53231 16.9997 6.98576 16.5057C7.27152 16.1943 7.49125 15.9357 7.73957 15.6131C7.9031 15.4007 7.93314 15.372 8.1727 15.1991C8.81803 14.7333 10.2949 13.7318 10.3121 13.7489ZM16.1583 14.2706C16.2202 14.5213 16.3344 15.652 16.3665 16.4028C16.3742 16.583 16.3724 16.6995 16.3617 16.6995C16.3273 16.6995 15.6215 16.2856 15.1221 15.9721C14.691 15.7013 13.8822 15.1629 13.7365 15.0508C14.4987 14.7916 15.3143 14.528 16.1583 14.2706ZM13.2747 15.2087C13.3345 15.2381 13.4251 15.2935 13.5762 15.3881C14.4762 15.9519 15.696 16.6295 16.2181 16.8575C16.38 16.9282 16.3996 16.901 16.0267 17.1542C15.2317 17.694 14.2416 18.2257 13.0283 18.7647C12.8168 18.8587 12.6382 18.9346 12.631 18.9346C12.6238 18.9346 12.648 18.8271 12.6837 18.6953C12.9776 17.608 13.1433 16.5101 13.1479 15.6299C13.149 15.4142 13.1497 15.3061 13.1551 15.2494C13.1943 15.2356 13.2352 15.2225 13.2747 15.2087ZM12.5999 15.448C12.6159 15.6223 12.5975 16.44 12.5688 16.6804C12.4924 17.318 12.3686 17.9075 12.1691 18.578C12.1215 18.7383 12.0757 18.8761 12.0686 18.8843C12.0513 18.9044 11.4557 18.3247 11.2574 18.0947C10.9186 17.7017 10.651 17.3115 10.4557 16.9269C10.372 16.7621 10.2473 16.4634 10.2188 16.3669C10.8362 16.1158 11.4791 15.8661 12.1523 15.6131C12.296 15.5591 12.4499 15.5026 12.5999 15.448ZM9.76349 16.5568C9.77567 16.5786 9.79866 16.6334 9.82331 16.7004C9.96225 17.0778 10.2747 17.6364 10.546 17.995C10.8422 18.3865 11.2279 18.8043 11.5511 19.0814C11.6548 19.1704 11.7526 19.2534 11.7664 19.2657C11.7941 19.2902 11.8029 19.2855 11.0916 19.5553C10.2673 19.8679 9.36803 20.1817 8.33723 20.5148C7.94441 20.6418 7.6131 20.7493 7.60018 20.7541C7.56092 20.7687 7.5739 20.7444 7.68872 20.5651C8.20089 19.7655 8.97551 18.2016 9.40932 17.0953C9.48456 16.9034 9.5568 16.7123 9.56965 16.6693C9.57413 16.6543 9.57903 16.6419 9.58401 16.631C9.64342 16.6061 9.70358 16.5817 9.76349 16.5568ZM8.85682 16.942C8.80709 17.0662 8.62391 17.4454 8.44283 17.7987C8.02092 18.6218 7.55523 19.4329 6.93764 20.4215C6.83109 20.592 6.7332 20.7467 6.71987 20.7661C6.69794 20.7979 6.68938 20.7881 6.62176 20.6536C6.47392 20.3595 6.35081 19.9888 6.28674 19.6437C6.22333 19.3022 6.23432 18.711 6.31067 18.3443C6.34122 18.1976 6.3566 18.1329 6.38246 18.093C7.16308 17.7032 7.98323 17.3212 8.85682 16.942ZM16.3924 17.2028V17.3871C16.3915 18.36 16.2871 19.6936 16.1364 20.6655C16.1099 20.836 16.0879 20.9772 16.0861 20.979C16.0844 20.9807 15.9615 20.9436 15.8133 20.8976C15.1587 20.6944 14.4482 20.3918 13.8079 20.0409C13.3839 19.8085 12.7713 19.4311 12.7885 19.4139C12.7932 19.4092 12.972 19.3131 13.1882 19.2009C14.0444 18.7565 14.863 18.2786 15.574 17.8034C15.8408 17.6251 16.2392 17.3356 16.3278 17.2578L16.3924 17.2028ZM5.58593 18.4999C5.59085 18.5165 5.5829 18.5661 5.562 18.6865C5.54263 18.7982 5.52214 19.0077 5.51414 19.1532C5.47906 19.7909 5.5827 20.2611 5.89941 20.9049C5.98747 21.0838 6.05621 21.2344 6.05256 21.2375C6.02085 21.264 3.1376 22.1068 2.23093 22.355C1.96216 22.4286 1.72604 22.4953 1.70686 22.501C1.6754 22.5105 1.67387 22.503 1.68532 22.4292C1.78463 21.7894 2.27173 20.9493 2.95358 20.2444C3.33767 19.8474 3.65747 19.586 4.12137 19.3016C4.33993 19.1754 4.59857 19.0319 4.95414 18.8374C5.16152 18.7239 5.37309 18.6117 5.5859 18.5L5.58593 18.4999ZM12.379 19.7098C12.3818 19.7065 12.4883 19.7628 12.616 19.8366C13.5475 20.3753 14.8484 20.8801 15.9566 21.1337L16.0571 21.1576L15.9183 21.2342C15.3394 21.5554 13.4338 22.3487 11.4864 23.0792C11.2022 23.1858 10.9257 23.2898 10.8714 23.3113C10.8172 23.3328 10.7709 23.3491 10.7709 23.3448C10.7709 23.3405 10.8519 23.1845 10.9504 23.0002C11.4971 21.9781 12.044 20.7368 12.324 19.875C12.3526 19.7871 12.3763 19.7131 12.3791 19.7099L12.379 19.7098ZM11.6851 19.9371C11.688 19.9401 11.6556 20.0301 11.6109 20.1381C11.2308 21.0571 10.7334 22.0607 10.0985 23.1868C9.93691 23.4734 9.79974 23.7066 9.79457 23.7061C9.7894 23.7056 9.65803 23.6289 9.50263 23.5338C8.57781 22.9676 7.75936 22.2708 7.2221 21.593L7.14552 21.4973L7.54516 21.3872C8.96749 20.9976 10.1723 20.5806 11.3716 20.0639C11.5414 19.9907 11.6821 19.9341 11.6851 19.9371ZM15.9949 21.4399C15.9969 21.4404 15.9973 21.4429 15.9973 21.4447C15.9973 21.5417 15.7761 22.4371 15.5928 23.0864C15.4391 23.631 15.3103 24.0593 15.0712 24.8141C14.9656 25.1475 14.8756 25.4185 14.8702 25.4171C14.8647 25.4157 14.8386 25.4098 14.8127 25.4052C13.5171 25.1707 12.3581 24.8441 11.2711 24.4073C10.9669 24.2851 10.5261 24.0902 10.5029 24.0675C10.4951 24.0598 10.7585 23.9379 11.0868 23.7947C13.0722 22.9284 15.1288 21.9419 15.8322 21.5189C15.9168 21.468 15.9806 21.437 15.9949 21.4399ZM6.0491 21.7797C6.05975 21.7898 5.50379 22.5871 4.72816 23.6726C4.45857 24.0499 4.14185 24.4924 4.02461 24.6586C3.90736 24.8247 3.73026 25.0892 3.62976 25.2449L3.4479 25.5272L3.25167 25.3621C3.02254 25.1697 2.62235 24.7633 2.44041 24.5365C2.06604 24.0699 1.81066 23.5781 1.71055 23.1271C1.66433 22.9188 1.66423 22.8125 1.70816 22.7992C1.77165 22.7801 2.93476 22.5069 4.02697 22.2536C4.63369 22.1129 5.33597 21.948 5.58722 21.8875C5.83849 21.827 6.04665 21.7774 6.0491 21.7797ZM6.60667 21.9951L6.74786 22.1507C7.3761 22.8505 8.01436 23.3729 8.79391 23.8234C8.93154 23.9029 9.03736 23.9734 9.02843 23.9789C8.99598 23.999 6.33316 24.945 5.1015 25.3741C4.4069 25.6161 3.83638 25.8125 3.83324 25.812C3.83009 25.8116 3.79128 25.7859 3.74709 25.7546L3.66573 25.6971L3.79256 25.5177C4.20148 24.9257 4.71531 24.2733 5.83868 22.921L6.60751 21.9951L6.60667 21.9951ZM10.0885 24.4815C10.0916 24.4776 10.286 24.5465 10.5217 24.6346C11.0896 24.847 11.5362 24.9862 12.1393 25.1372C12.8802 25.3226 13.9486 25.5073 14.5826 25.5607C14.6799 25.5689 14.7298 25.5796 14.7142 25.5894C14.6848 25.6081 14.0447 25.824 13.5728 25.9723C12.8236 26.2078 10.5339 26.883 8.66712 27.4201C8.32082 27.5197 8.02454 27.6035 8.00903 27.6067C7.96722 27.6154 7.81998 27.5785 7.81998 27.5589C7.81998 27.5496 7.92501 27.4166 8.0521 27.2645C8.67957 26.514 9.3026 25.6762 9.82293 24.8835C9.96524 24.6666 10.0855 24.4853 10.0885 24.4815ZM9.31802 24.503C9.32363 24.5086 9.01249 25.0054 8.46848 25.8623C8.23879 26.2241 7.97863 26.6348 7.88937 26.7764C7.8001 26.918 7.66991 27.1327 7.59982 27.255L7.47299 27.4776L7.40599 27.4608C7.24966 27.4185 6.14898 27.0284 5.85768 26.9128C5.49666 26.7695 5.12047 26.5961 4.84304 26.4462C4.49637 26.2588 4.05476 25.9809 4.08924 25.97C4.09916 25.9668 4.69654 25.8045 5.41493 25.6086C7.32613 25.0877 8.38289 24.7888 9.07621 24.5725C9.20577 24.532 9.31542 24.5006 9.3179 24.5031L9.31802 24.503ZM14.7454 25.7761C14.7495 25.7752 14.7522 25.7752 14.7526 25.7761C14.7706 25.8213 14.0611 27.7824 13.8025 28.4036C13.7446 28.5427 13.725 28.5748 13.6949 28.5735C13.6217 28.5703 12.5952 28.4285 11.9743 28.3342C10.8876 28.1696 9.06742 27.851 8.60796 27.7461L8.50028 27.7222L9.15357 27.5762C10.55 27.2616 11.2204 27.0929 11.9008 26.8846C12.7588 26.6219 13.6079 26.2928 14.4661 25.8939C14.6017 25.8308 14.7172 25.7829 14.7461 25.7766L14.7454 25.7761Z" fill="black"/>
  </g>
  <defs>
    <clipPath id="clip0_858_13907">
      <rect width="26.3168" height="32" fill="white" transform="translate(0.841797)"/>
    </clipPath>
  </defs>
</svg>