<svg width="16" height="16" viewBox="0 0 16 16" fill="none" xmlns="http://www.w3.org/2000/svg">
<mask id="mask0_18_1051" style="mask-type:alpha" maskUnits="userSpaceOnUse" x="0" y="0" width="16" height="16">
<rect width="16" height="16" fill="#D9D9D9"/>
</mask>
<g mask="url(#mask0_18_1051)">
<path d="M10.1333 7.29998L7.03331 4.19998C7.18887 4.13331 7.3472 4.08331 7.50831 4.04998C7.66942 4.01665 7.83331 3.99998 7.99998 3.99998C8.65553 3.99998 9.20831 4.22498 9.65831 4.67498C10.1083 5.12498 10.3333 5.67776 10.3333 6.33331C10.3333 6.49998 10.3166 6.66387 10.2833 6.82498C10.25 6.98609 10.2 7.14442 10.1333 7.29998ZM3.89998 11.4C4.46665 10.9666 5.09998 10.625 5.79998 10.375C6.49998 10.125 7.23331 9.99998 7.99998 9.99998C8.19998 9.99998 8.39165 10.0083 8.57498 10.025C8.75831 10.0416 8.94998 10.0666 9.14998 10.1L7.68331 8.63331C7.16109 8.56665 6.71387 8.3472 6.34165 7.97498C5.96942 7.60276 5.74998 7.15554 5.68331 6.63331L3.78331 4.73331C3.42776 5.18887 3.15276 5.69165 2.95831 6.24165C2.76387 6.79165 2.66665 7.37776 2.66665 7.99998C2.66665 8.65553 2.77498 9.2722 2.99165 9.84998C3.20831 10.4278 3.51109 10.9444 3.89998 11.4ZM12.2 11.2666C12.5555 10.8111 12.8333 10.3083 13.0333 9.75831C13.2333 9.20831 13.3333 8.6222 13.3333 7.99998C13.3333 6.5222 12.8139 5.26387 11.775 4.22498C10.7361 3.18609 9.47776 2.66665 7.99998 2.66665C7.37776 2.66665 6.79165 2.76665 6.24165 2.96665C5.69165 3.16665 5.18887 3.44442 4.73331 3.79998L12.2 11.2666ZM7.99998 14.6666C7.08887 14.6666 6.22776 14.4916 5.41665 14.1416C4.60554 13.7916 3.8972 13.3139 3.29165 12.7083C2.68609 12.1028 2.20831 11.3944 1.85831 10.5833C1.50831 9.7722 1.33331 8.91109 1.33331 7.99998C1.33331 7.07776 1.50831 6.21387 1.85831 5.40831C2.20831 4.60276 2.68609 3.8972 3.29165 3.29165C3.8972 2.68609 4.60554 2.20831 5.41665 1.85831C6.22776 1.50831 7.08887 1.33331 7.99998 1.33331C8.9222 1.33331 9.78609 1.50831 10.5916 1.85831C11.3972 2.20831 12.1028 2.68609 12.7083 3.29165C13.3139 3.8972 13.7916 4.60276 14.1416 5.40831C14.4916 6.21387 14.6666 7.07776 14.6666 7.99998C14.6666 8.91109 14.4916 9.7722 14.1416 10.5833C13.7916 11.3944 13.3139 12.1028 12.7083 12.7083C12.1028 13.3139 11.3972 13.7916 10.5916 14.1416C9.78609 14.4916 8.9222 14.6666 7.99998 14.6666ZM7.99998 13.3333C8.58887 13.3333 9.14442 13.2472 9.66665 13.075C10.1889 12.9028 10.6666 12.6555 11.1 12.3333C10.6666 12.0111 10.1889 11.7639 9.66665 11.5916C9.14442 11.4194 8.58887 11.3333 7.99998 11.3333C7.41109 11.3333 6.85554 11.4194 6.33331 11.5916C5.81109 11.7639 5.33331 12.0111 4.89998 12.3333C5.33331 12.6555 5.81109 12.9028 6.33331 13.075C6.85554 13.2472 7.41109 13.3333 7.99998 13.3333Z" fill="currentColor" stroke="none"/>
</g>
</svg>