<svg xmlns="http://www.w3.org/2000/svg" width="32" height="32" viewBox="0 0 32 32" fill="none">
  <path fill-rule="evenodd" clip-rule="evenodd" d="M8.53332 1.06641C4.40959 1.06641 1.06665 4.40934 1.06665 8.53307V23.4664C1.06665 27.5901 4.40959 30.9331 8.53332 30.9331H22.5821C22.4641 30.5994 22.4 30.2404 22.4 29.8664V25.5997C22.4 23.8324 23.8327 22.3997 25.6 22.3997H29.8666C30.2407 22.3997 30.5997 22.4639 30.9333 22.5818V8.53307C30.9333 4.40934 27.5904 1.06641 23.4666 1.06641H8.53332Z" fill="white"/>
  <path fill-rule="evenodd" clip-rule="evenodd" d="M9.06663 2.66699C5.53201 2.66699 2.66663 5.53238 2.66663 9.06699V22.9337C2.66663 26.4683 5.53201 29.3337 9.06663 29.3337H22.4V25.6003C22.4 23.833 23.8327 22.4003 25.6 22.4003H29.3333V9.06699C29.3333 5.53238 26.4679 2.66699 22.9333 2.66699H9.06663Z" fill="white"/>
  <path fill-rule="evenodd" clip-rule="evenodd" d="M9.06663 2.66699C5.53201 2.66699 2.66663 5.53238 2.66663 9.06699V22.9337C2.66663 26.4683 5.53201 29.3337 9.06663 29.3337H22.4V25.6003C22.4 23.833 23.8327 22.4003 25.6 22.4003H29.3333V9.06699C29.3333 5.53238 26.4679 2.66699 22.9333 2.66699H9.06663Z" fill="url(#paint0_linear_2173_57906)"/>
  <path fill-rule="evenodd" clip-rule="evenodd" d="M9.60004 5.33301C7.24361 5.33301 5.33337 7.24325 5.33337 9.59967V22.3997C5.33337 24.7561 7.24361 26.6663 9.60004 26.6663H22.4V25.5997C22.4 23.8324 23.8327 22.3997 25.6 22.3997H26.6667V9.59967C26.6667 7.24325 24.7565 5.33301 22.4 5.33301H9.60004Z" fill="white"/>
  <path d="M13.0142 15.8622V21.109C13.0142 22.0455 12.3411 22.805 11.5108 22.8036L9.06665 22.7986L9.0795 16.7253V16.529C9.1002 15.0099 10.3366 14.042 11.478 14.4453C11.755 14.5438 12.0034 14.7266 12.2089 14.9578L13.0142 15.8622Z" fill="url(#paint1_linear_2173_57906)"/>
  <path d="M18.9849 16.2505V10.7611C18.9849 9.8238 19.6587 9.06428 20.4889 9.06641L22.9331 9.07068L22.9202 15.3874V15.5831C22.8988 17.1028 21.6625 18.0707 20.5217 17.6667C20.2441 17.5689 19.9964 17.3862 19.7908 17.1549L18.9849 16.2505Z" fill="url(#paint2_linear_2173_57906)"/>
  <path d="M22.9166 15.1661V19.7482C22.928 21.9561 20.8893 23.4501 19.2853 22.5165C19.0904 22.4029 18.9148 22.2523 18.7563 22.0817L13.7751 16.7165L13.0142 15.8627L12.209 14.9584C12.0035 14.7271 11.755 14.5443 11.478 14.4458C10.3366 14.0425 9.10026 15.0105 9.07957 16.5295V16.4788L9.07812 12.6305V11.9981C9.07812 9.6124 11.4474 8.27043 13.072 9.73805L19.6065 16.8764C19.7636 17.0485 19.9506 17.1934 20.164 17.2876C21.3904 17.8329 22.9166 16.7758 22.9166 15.1661Z" fill="url(#paint3_linear_2173_57906)"/>
  <path d="M22.9166 19.4469V19.7474C22.9279 21.9553 20.8893 23.4493 19.2853 22.5157C19.0904 22.4021 18.9148 22.2515 18.7563 22.0809L13.7751 16.7157L13.0142 15.8619L12.209 14.9575C12.0035 14.7263 11.755 14.5435 11.478 14.445C10.3366 14.0417 9.10026 15.0096 9.07957 16.5287V16.478L9.07812 12.6297V12.5755C9.37652 11.1799 10.9619 10.5689 11.9535 11.6425L20.0391 20.3898C21.0334 21.4663 22.6239 20.8481 22.9166 19.4469Z" fill="url(#paint4_linear_2173_57906)"/>
  <path d="M29.8667 24.5332H25.6C25.0109 24.5332 24.5333 25.0108 24.5333 25.5999V29.8665C24.5333 30.4556 25.0109 30.9332 25.6 30.9332H29.8667C30.4558 30.9332 30.9333 30.4556 30.9333 29.8665V25.5999C30.9333 25.0108 30.4558 24.5332 29.8667 24.5332Z" fill="url(#paint5_linear_2173_57906)"/>
  <defs>
    <linearGradient id="paint0_linear_2173_57906" x1="8.14503" y1="24.413" x2="33.001" y2="-0.324131" gradientUnits="userSpaceOnUse">
      <stop stop-color="#4351E8"/>
      <stop offset="1" stop-color="#2A1EA5"/>
    </linearGradient>
    <linearGradient id="paint1_linear_2173_57906" x1="10.5478" y1="18.9239" x2="2.69352" y2="23.0927" gradientUnits="userSpaceOnUse">
      <stop stop-color="#4351E8"/>
      <stop offset="1" stop-color="#2A1EA5"/>
    </linearGradient>
    <linearGradient id="paint2_linear_2173_57906" x1="21.2334" y1="13.1953" x2="29.8162" y2="16.2052" gradientUnits="userSpaceOnUse">
      <stop stop-color="#4351E8"/>
      <stop offset="1" stop-color="#2A1EA5"/>
    </linearGradient>
    <linearGradient id="paint3_linear_2173_57906" x1="11.0683" y1="16.3475" x2="26.0686" y2="15.164" gradientUnits="userSpaceOnUse">
      <stop stop-color="#4351E8"/>
      <stop offset="1" stop-color="#2A1EA5"/>
    </linearGradient>
    <linearGradient id="paint4_linear_2173_57906" x1="5.19272" y1="11.7638" x2="21.7541" y2="20.1054" gradientUnits="userSpaceOnUse">
      <stop stop-color="#4351E8"/>
      <stop offset="1" stop-color="#2A1EA5"/>
    </linearGradient>
    <linearGradient id="paint5_linear_2173_57906" x1="1042.89" y1="392.6" x2="1018.26" y2="407.176" gradientUnits="userSpaceOnUse">
      <stop stop-color="#ED1A2C"/>
      <stop offset="1" stop-color="#EE215D"/>
    </linearGradient>
  </defs>
</svg>