<svg width="32" height="32" viewBox="0 0 32 32" fill="none" xmlns="http://www.w3.org/2000/svg">
<g clip-path="url(#clip0_1037_64409)">
<path d="M14.8306 14.5599C14.9579 13.4997 14.9196 13.345 15.7087 13.5161L15.9095 13.5341C16.5165 13.5614 17.3103 13.4364 17.7845 13.22C18.7884 12.7544 19.3837 11.9763 18.3939 12.181C16.136 12.6466 15.972 11.8817 15.972 11.8817C18.3571 8.34268 19.3548 3.85049 18.4931 2.75127C16.1462 -0.24873 12.0829 1.17002 12.0149 1.20752L11.9931 1.21143C11.5478 1.11768 11.0556 1.06299 10.4853 1.05518C9.46338 1.03955 8.68838 1.32315 8.09932 1.76924C8.09932 1.76924 0.851663 -1.2167 1.18838 5.52471C1.26026 6.95908 3.24307 16.3841 5.61026 13.5325C6.47666 12.4903 7.3126 11.6099 7.3126 11.6099C7.72666 11.8856 8.22432 12.0263 8.74541 11.9755L8.78604 11.9411C8.77401 12.0762 8.77953 12.2122 8.80244 12.3458C8.19307 13.0271 8.37276 13.1466 7.15401 13.3974C5.92119 13.6513 6.64619 14.1036 7.11807 14.2224C7.69151 14.3661 9.01807 14.5692 9.91494 13.3146L9.87901 13.4575C10.1181 13.6489 10.1017 14.8325 10.1368 15.6778C10.172 16.5231 10.2274 17.313 10.4001 17.7778C10.5728 18.2427 10.7751 19.4419 12.3767 19.106C13.7149 18.8192 14.7384 18.406 14.8321 14.5669" fill="black"/>
<path d="M14.8306 14.5599C14.9579 13.4997 14.9196 13.345 15.7087 13.5161L15.9095 13.5341C16.5165 13.5614 17.3103 13.4364 17.7845 13.22C18.7884 12.7544 19.3837 11.9763 18.3939 12.181C16.136 12.6466 15.972 11.8817 15.972 11.8817C18.3571 8.34268 19.3548 3.85049 18.4931 2.75127C16.1462 -0.24873 12.0829 1.17002 12.0149 1.20752L11.9931 1.21143C11.5478 1.11768 11.0556 1.06299 10.4853 1.05518C9.46338 1.03955 8.68838 1.32315 8.09932 1.76924C8.09932 1.76924 0.851663 -1.2167 1.18838 5.52471C1.26026 6.95908 3.24307 16.3841 5.61026 13.5325C6.47666 12.4903 7.3126 11.6099 7.3126 11.6099C7.72666 11.8856 8.22432 12.0263 8.74541 11.9755L8.78604 11.9411C8.77401 12.0762 8.77953 12.2122 8.80244 12.3458C8.19307 13.0271 8.37276 13.1466 7.15401 13.3974C5.92119 13.6513 6.64619 14.1036 7.11807 14.2224C7.69151 14.3661 9.01807 14.5692 9.91494 13.3146L9.87901 13.4575C10.1181 13.6489 10.1017 14.8325 10.1368 15.6778C10.172 16.5231 10.2274 17.313 10.4001 17.7778C10.5728 18.2427 10.7751 19.4419 12.3767 19.106C13.7149 18.8192 14.7384 18.406 14.8321 14.5669" stroke="black" stroke-width="2"/>
<path d="M18.3867 12.1885C16.1289 12.6541 15.9648 11.8893 15.9648 11.8893C18.35 8.35019 19.3477 3.858 18.4867 2.75878C16.1398 -0.241217 12.0766 1.17831 12.0086 1.21503L11.9867 1.21894C11.4904 1.11936 10.9859 1.06678 10.4797 1.06191C9.45782 1.04628 8.68282 1.32988 8.09375 1.77597C8.09375 1.77597 0.845317 -1.20997 1.18282 5.53144C1.25469 6.96582 3.2375 16.3908 5.60469 13.5393C6.47657 12.4908 7.3125 11.6103 7.3125 11.6103C7.72657 11.8861 8.22422 12.0268 8.74532 11.976L8.78594 11.9416C8.77401 12.0766 8.77952 12.2127 8.80235 12.3463C8.19297 13.0275 8.37266 13.1471 7.15391 13.3978C5.9211 13.6518 6.6461 14.1041 7.11797 14.2228C7.69141 14.3666 9.01797 14.5697 9.91485 13.315L9.87891 13.458C10.118 13.6494 10.2852 14.7025 10.257 15.6572C10.2289 16.6119 10.2102 17.2666 10.3977 17.7791C10.5852 18.2916 10.7727 19.4432 12.3742 19.1072C13.7125 18.8205 14.4055 18.076 14.5031 16.8369C14.5719 15.9557 14.7266 16.0853 14.7375 15.2978L14.8625 14.9244C15.0055 13.7291 14.8859 13.3439 15.7102 13.5236L15.9109 13.5416C16.518 13.5689 17.3125 13.4439 17.7781 13.2275C18.782 12.7619 19.3766 11.9838 18.3867 12.1885Z" fill="#336791"/>
<path d="M10.0109 12.8652C9.94843 15.0887 10.0266 17.3277 10.2437 17.8652C10.4609 18.4027 10.9273 19.4668 12.5297 19.1246C13.868 18.8379 14.3555 18.2824 14.5664 17.0567L15.0609 13.1371M8.09062 1.71915C8.09062 1.71915 0.837498 -1.24648 1.175 5.49493C1.24687 6.92931 3.22969 16.3543 5.59687 13.5027C6.46093 12.4613 7.24219 11.6465 7.24219 11.6465M12.0078 1.17774C11.7578 1.25587 16.0422 -0.388664 18.4781 2.72305C19.3375 3.82227 18.3414 8.31446 15.9562 11.8535" stroke="white" stroke-linecap="round" stroke-linejoin="round"/>
<path d="M15.957 11.8513C15.957 11.8513 16.1133 12.617 18.3789 12.1498C19.3688 11.9451 18.7727 12.7232 17.7695 13.1888C16.9461 13.5717 15.0992 13.6693 15.0688 13.142C14.9906 11.7787 16.0406 12.1927 15.9648 11.8513C15.8961 11.5435 15.4258 11.242 15.1164 10.4888C14.8453 9.83259 11.3977 4.79353 16.0727 5.54119C16.2445 5.50603 14.8539 1.08806 10.4789 1.024C6.10391 0.959936 6.24219 6.40291 6.24219 6.40291" stroke="white" stroke-linecap="round" stroke-linejoin="bevel"/>
<path d="M8.78664 12.3179C8.17726 12.9992 8.35695 13.1187 7.1382 13.3695C5.90539 13.6234 6.63039 14.0757 7.10226 14.1945C7.6757 14.3382 9.00226 14.5413 9.89914 13.2859C10.1726 12.9031 9.89758 12.2937 9.52258 12.139C9.34133 12.064 9.09914 11.9703 8.7882 12.3187L8.78664 12.3179Z" stroke="white" stroke-linejoin="round"/>
<path d="M8.74694 12.3074C8.68444 11.9066 8.87818 11.4308 9.08522 10.873C9.39615 10.0371 10.1133 9.20115 9.5399 6.54725C9.11256 4.57068 6.24303 6.13553 6.24303 6.4035C6.24303 6.67146 6.37272 7.76287 6.19615 9.0324C5.96412 10.6902 7.25084 12.0918 8.73209 11.9488" stroke="white" stroke-linecap="round" stroke-linejoin="round"/>
<path d="M8.06416 6.36263C8.05088 6.45404 8.23213 6.69857 8.46729 6.73138C8.70244 6.76419 8.90323 6.57357 8.91651 6.48138C8.92979 6.38919 8.74854 6.28919 8.51338 6.25638C8.27823 6.22357 8.07588 6.27201 8.06416 6.36263Z" fill="white" stroke="white"/>
<path d="M15.2235 6.17708C15.236 6.26849 15.0555 6.51302 14.8204 6.54583C14.5852 6.57865 14.3829 6.38802 14.3711 6.29583C14.3594 6.20364 14.5391 6.10365 14.7743 6.07083C15.0094 6.03802 15.2118 6.08646 15.2235 6.17708Z" fill="white" stroke="white" stroke-width="0.2975"/>
<path d="M16.0641 5.54297C16.1032 6.26172 15.9094 6.75 15.8844 7.51484C15.8485 8.62578 16.4141 9.89766 15.5618 11.1711" stroke="white" stroke-linecap="round" stroke-linejoin="round"/>
</g>
<g clip-path="url(#clip1_1037_64409)">
<path fill-rule="evenodd" clip-rule="evenodd" d="M16.8276 12C14.1614 12 12 14.1614 12 16.8276V26.4828C12 29.149 14.1614 31.3103 16.8276 31.3103H26.4828C26.5779 31.3103 26.6725 31.3076 26.7663 31.3021C26.5839 30.8819 26.4828 30.4182 26.4828 29.9309C26.4828 28.0268 28.0273 26.4828 29.9328 26.4828C30.4192 26.4828 30.8823 26.5838 31.3022 26.766C31.3076 26.6722 31.3103 26.5778 31.3103 26.4828V16.8276C31.3103 14.1614 29.149 12 26.4828 12H16.8276Z" fill="white"/>
<path fill-rule="evenodd" clip-rule="evenodd" d="M16.8276 12.6895C14.5423 12.6895 12.6897 14.5421 12.6897 16.8274V26.4826C12.6897 28.7679 14.5423 30.6205 16.8276 30.6205H26.4828C26.5058 30.6205 26.5288 30.6203 26.5517 30.6199C26.5065 30.3972 26.4828 30.1667 26.4828 29.9307C26.4828 28.0266 28.0273 26.4826 29.9328 26.4826C30.1681 26.4826 30.398 26.5062 30.6202 26.5512C30.6206 26.5284 30.6207 26.5055 30.6207 26.4826V16.8274C30.6207 14.5421 28.7681 12.6895 26.4828 12.6895H16.8276Z" fill="white"/>
<path fill-rule="evenodd" clip-rule="evenodd" d="M16.8276 12.6895C14.5423 12.6895 12.6897 14.5421 12.6897 16.8274V26.4826C12.6897 28.7679 14.5423 30.6205 16.8276 30.6205H26.4828C26.5058 30.6205 26.5288 30.6203 26.5517 30.6199C26.5065 30.3972 26.4828 30.1667 26.4828 29.9307C26.4828 28.0266 28.0273 26.4826 29.9328 26.4826C30.1681 26.4826 30.398 26.5062 30.6202 26.5512C30.6206 26.5284 30.6207 26.5055 30.6207 26.4826V16.8274C30.6207 14.5421 28.7681 12.6895 26.4828 12.6895H16.8276Z" fill="url(#paint0_linear_1037_64409)"/>
<path fill-rule="evenodd" clip-rule="evenodd" d="M16.4828 14.4141C15.3401 14.4141 14.4138 15.3404 14.4138 16.483V26.8279C14.4138 27.9705 15.3401 28.8968 16.4828 28.8968H26.6407C26.9776 27.8249 27.8241 26.9784 28.8966 26.6413V16.483C28.8966 15.3404 27.9703 14.4141 26.8276 14.4141H16.4828Z" fill="white"/>
<path d="M19.5762 21.5602V25.2134C19.5762 25.8655 19.1075 26.3944 18.5295 26.3934L16.8276 26.3899L16.8366 22.1611V22.0245C16.851 20.9668 17.7118 20.2928 18.5066 20.5737C18.6994 20.6422 18.8724 20.7695 19.0155 20.9305L19.5762 21.5602Z" fill="url(#paint1_linear_1037_64409)"/>
<path d="M23.7336 21.8302V18.0081C23.7336 17.3555 24.2028 16.8266 24.7809 16.8281L26.4827 16.8311L26.4738 21.2293V21.3655C26.4588 22.4237 25.598 23.0976 24.8037 22.8163C24.6104 22.7482 24.438 22.621 24.2948 22.46L23.7336 21.8302Z" fill="url(#paint2_linear_1037_64409)"/>
<path d="M26.4708 21.074V24.2645C26.4788 25.8018 25.0592 26.842 23.9425 26.1919C23.8067 26.1129 23.6845 26.008 23.5741 25.8892L20.1059 22.1536L19.576 21.5591L19.0154 20.9294C18.8723 20.7684 18.6993 20.6411 18.5064 20.5725C17.7117 20.2917 16.8509 20.9657 16.8364 22.0234V21.9881L16.8354 19.3086V18.8682C16.8354 17.2071 18.4851 16.2728 19.6163 17.2946L24.1661 22.2649C24.2754 22.3847 24.4057 22.4856 24.5543 22.5512C25.4082 22.9309 26.4708 22.1948 26.4708 21.074Z" fill="url(#paint3_linear_1037_64409)"/>
<path d="M26.4708 24.0549V24.2642C26.4788 25.8015 25.0592 26.8418 23.9425 26.1917C23.8067 26.1126 23.6845 26.0078 23.5741 25.889L20.1059 22.1533L19.576 21.5589L19.0154 20.9291C18.8723 20.7681 18.6993 20.6409 18.5064 20.5723C17.7117 20.2915 16.8509 20.9654 16.8364 22.0231V21.9878L16.8354 19.3084V19.2706C17.0432 18.2989 18.1471 17.8734 18.8375 18.6209L24.4673 24.7115C25.1597 25.461 26.267 25.0306 26.4708 24.0549Z" fill="url(#paint4_linear_1037_64409)"/>
<path d="M32 29.9302C32 31.0728 31.0733 31.9993 29.9321 31.9993C28.7888 31.9993 27.8621 31.0728 27.8621 29.9302C27.8621 28.7878 28.7888 27.8613 29.9321 27.8613C31.0733 27.8613 32 28.7878 32 29.9302Z" fill="url(#paint5_linear_1037_64409)"/>
</g>
<defs>
<linearGradient id="paint0_linear_1037_64409" x1="16.2928" y1="26.9918" x2="32.6406" y2="10.7222" gradientUnits="userSpaceOnUse">
<stop stop-color="#4351E8"/>
<stop offset="1" stop-color="#2A1EA5"/>
</linearGradient>
<linearGradient id="paint1_linear_1037_64409" x1="17.8589" y1="23.692" x2="12.3902" y2="26.5947" gradientUnits="userSpaceOnUse">
<stop stop-color="#4351E8"/>
<stop offset="1" stop-color="#2A1EA5"/>
</linearGradient>
<linearGradient id="paint2_linear_1037_64409" x1="25.2993" y1="19.7029" x2="31.2753" y2="21.7987" gradientUnits="userSpaceOnUse">
<stop stop-color="#4351E8"/>
<stop offset="1" stop-color="#2A1EA5"/>
</linearGradient>
<linearGradient id="paint3_linear_1037_64409" x1="18.2211" y1="21.8966" x2="28.6655" y2="21.0726" gradientUnits="userSpaceOnUse">
<stop stop-color="#4351E8"/>
<stop offset="1" stop-color="#2A1EA5"/>
</linearGradient>
<linearGradient id="paint4_linear_1037_64409" x1="14.1301" y1="18.7055" x2="25.6614" y2="24.5135" gradientUnits="userSpaceOnUse">
<stop stop-color="#4351E8"/>
<stop offset="1" stop-color="#2A1EA5"/>
</linearGradient>
<linearGradient id="paint5_linear_1037_64409" x1="686.283" y1="-205.975" x2="670.359" y2="-215.399" gradientUnits="userSpaceOnUse">
<stop stop-color="#ED1A2C"/>
<stop offset="1" stop-color="#EE215D"/>
</linearGradient>
<clipPath id="clip0_1037_64409">
<rect width="20" height="20" fill="white"/>
</clipPath>
<clipPath id="clip1_1037_64409">
<rect width="20" height="20" fill="white" transform="translate(12 12)"/>
</clipPath>
</defs>
</svg>
