<svg width="32" height="32" viewBox="0 0 32 32" fill="currentColor" xmlns="http://www.w3.org/2000/svg">
<g clip-path="url(#clip0_130_18151)">
<path d="M31 31.3606H0.999999C0.800999 31.3606 0.639999 31.1996 0.639999 31.0006V1.00063C0.639999 0.801625 0.800999 0.640625 0.999999 0.640625H19C19.199 0.640625 19.36 0.801625 19.36 1.00063V3.64062H25C25.199 3.64062 25.36 3.80163 25.36 4.00063V7.64062H31C31.199 7.64062 31.36 7.80163 31.36 8.00063V31.0006C31.36 31.1996 31.199 31.3606 31 31.3606ZM19.36 30.6406H30.64V8.36062H19.36V30.6406ZM12.36 30.6406H18.64V1.36063H1.36V30.6406H7.64V23.0006C7.64 22.8016 7.801 22.6406 8 22.6406H12C12.199 22.6406 12.36 22.8016 12.36 23.0006V30.6406ZM8.36 30.6406H11.64V23.3606H8.36V30.6406ZM19.36 7.64062H24.639V4.36063H19.36V7.64062ZM27.36 25.0006H26.64V23.0006H27.361L27.36 25.0006ZM23.36 25.0006H22.64V23.0006H23.361L23.36 25.0006ZM16.36 25.0006H15.64V23.0006H16.36V25.0006ZM4.36 25.0006H3.64V23.0006H4.36V25.0006ZM27.36 19.0006H26.64V17.0006H27.361L27.36 19.0006ZM23.36 19.0006H22.64V17.0006H23.361L23.36 19.0006ZM16.36 19.0006H15.64V17.0006H16.36V19.0006ZM12.36 19.0006H11.64V17.0006H12.36V19.0006ZM8.36 19.0006H7.64V17.0006H8.36V19.0006ZM4.36 19.0006H3.64V17.0006H4.36V19.0006ZM27.36 13.0006H26.64V11.0006H27.361L27.36 13.0006ZM23.36 13.0006H22.64V11.0006H23.361L23.36 13.0006ZM16.36 13.0006H15.64V11.0006H16.36V13.0006ZM12.36 13.0006H11.64V11.0006H12.36V13.0006ZM8.36 13.0006H7.64V11.0006H8.36V13.0006ZM4.36 13.0006H3.64V11.0006H4.36V13.0006ZM16.36 7.00063H15.64V5.00063H16.36V7.00063ZM12.36 7.00063H11.64V5.00063H12.36V7.00063ZM8.36 7.00063H7.64V5.00063H8.36V7.00063ZM4.36 7.00063H3.64V5.00063H4.36V7.00063Z" fill="currentColor"/>
</g>
<defs>
<clipPath id="clip0_130_18151">
<rect width="32" height="32" fill="white"/>
</clipPath>
</defs>
</svg>
