<svg xmlns="http://www.w3.org/2000/svg" width="32" height="32" viewBox="0 0 32 32" fill="none">
  <path d="M9.26947 0.00899084C8.97087 0.0572277 8.61253 0.213422 8.35987 0.406371C7.59498 0.987508 7.00235 2.221 6.75198 3.75768C6.65781 4.33881 6.59349 5.14507 6.59349 5.76068C6.59349 6.48652 6.67848 7.41448 6.80022 8.05535C6.82778 8.19777 6.84157 8.32412 6.83008 8.3333C6.82089 8.34248 6.70834 8.43436 6.582 8.53542C6.15017 8.87996 5.65631 9.41059 5.31636 9.89527C4.66402 10.8209 4.24137 11.873 4.0645 13.0123C3.99559 13.4625 3.97721 14.3721 4.03234 14.8223C4.15408 15.8605 4.46647 16.738 5.00167 17.542L5.17624 17.8015L5.12571 17.8865C4.76738 18.4883 4.46188 19.3589 4.31947 20.195C4.20691 20.8565 4.19313 21.0334 4.19313 21.92C4.19313 22.8136 4.20462 22.9904 4.31028 23.6083C4.43661 24.348 4.69388 25.1312 4.981 25.6526C5.07518 25.8226 5.30488 26.1763 5.33244 26.1947C5.34163 26.1993 5.31406 26.2843 5.27042 26.3831C4.93965 27.1066 4.65712 28.0691 4.53998 28.8799C4.45729 29.4358 4.4458 29.615 4.4458 30.2007C4.4458 30.9472 4.48715 31.3101 4.64334 31.9051L4.66631 31.9923H5.64942H6.63484L6.57052 31.8706C6.17314 31.1356 6.13639 29.7711 6.47864 28.409C6.63484 27.7796 6.81171 27.318 7.14247 26.6817L7.34001 26.2958V26.0592C7.34001 25.8387 7.33542 25.8134 7.26421 25.6687C7.20908 25.5584 7.13558 25.4643 7.00465 25.3356C6.78184 25.1197 6.62106 24.8923 6.49242 24.6121C5.92736 23.3855 5.81711 21.564 6.21449 20.0112C6.37987 19.3634 6.65321 18.7869 6.94034 18.4722C7.13558 18.2563 7.23665 18.0151 7.23665 17.7648C7.23665 17.5052 7.14477 17.2916 6.93804 17.0688C6.34541 16.4348 5.98019 15.663 5.84926 14.7649C5.66321 13.4855 6.00087 12.0912 6.76806 10.9863C7.51918 9.90213 8.57349 9.20615 9.75187 9.0201C10.016 8.97645 10.5099 8.98335 10.7855 9.03389C11.0864 9.08673 11.2748 9.07061 11.4677 8.97874C11.7066 8.86621 11.8261 8.72607 11.9662 8.4045C12.0902 8.1174 12.1867 7.96118 12.4462 7.63732C12.7586 7.24913 13.0595 6.98496 13.5419 6.66567C14.0932 6.30505 14.7203 6.0432 15.345 5.91685C15.5724 5.87091 15.6781 5.86402 16.103 5.86402C16.528 5.86402 16.6337 5.87091 16.861 5.91685C17.7775 6.10293 18.6872 6.57611 19.413 7.2468C19.5692 7.39151 19.9436 7.85551 20.0631 8.04849C20.109 8.12425 20.1894 8.28508 20.2399 8.4045C20.38 8.72607 20.4995 8.86621 20.7384 8.97874C20.9244 9.06833 21.1197 9.08673 21.4091 9.03846C21.8662 8.96038 22.2176 8.96727 22.6656 9.05915C24.1908 9.36693 25.5184 10.6234 26.1065 12.3071C26.6187 13.7841 26.474 15.3299 25.7114 16.5106C25.5827 16.7104 25.4541 16.8712 25.268 17.0688C24.8661 17.4983 24.8661 18.0312 25.2658 18.4722C25.9227 19.1912 26.3339 20.9599 26.2098 22.5195C26.1271 23.5486 25.863 24.4697 25.5 24.9911C25.4357 25.083 25.3025 25.2392 25.2014 25.3356C25.0705 25.4643 24.997 25.5584 24.9419 25.6687C24.8707 25.8134 24.8661 25.8387 24.8661 26.0592V26.2958L25.0636 26.6817C25.3944 27.318 25.5713 27.7796 25.7274 28.409C26.0651 29.7528 26.0353 31.0896 25.6494 31.8499C25.6172 31.9142 25.5896 31.974 25.5896 31.9809C25.5896 31.9877 26.0284 31.9923 26.5658 31.9923H27.5398L27.565 31.8935C27.5788 31.8408 27.6018 31.7603 27.6133 31.7144C27.6386 31.6133 27.6891 31.3147 27.7304 31.0276C27.7695 30.7382 27.7695 29.6724 27.7304 29.3508C27.5834 28.1839 27.3376 27.2582 26.9357 26.3831C26.892 26.2843 26.8645 26.1993 26.8736 26.1947C26.8851 26.1878 26.9494 26.096 27.0183 25.9926C27.5191 25.2346 27.8269 24.2813 27.9831 23.0226C28.0244 22.6757 28.0244 21.185 27.9831 20.8519C27.8728 19.9928 27.7396 19.4094 27.5191 18.8191C27.4272 18.5733 27.1837 18.0542 27.0804 17.8865L27.0298 17.8015L27.2044 17.542C27.7396 16.738 28.052 15.8605 28.1738 14.8223C28.2289 14.3721 28.2105 13.4625 28.1416 13.0123C27.9624 11.8707 27.5421 10.8232 26.8897 9.89527C26.5498 9.41059 26.0559 8.87996 25.6241 8.53542C25.4977 8.43436 25.3852 8.34248 25.376 8.3333C25.3645 8.32412 25.3783 8.19777 25.4059 8.05535C25.6838 6.60594 25.6746 4.79824 25.3829 3.38557C25.1302 2.15438 24.6708 1.17586 24.0782 0.610803C23.605 0.160592 23.1227 -0.0323557 22.5438 0.00439622C21.2162 0.0824938 20.1458 1.60999 19.7231 4.01724C19.6542 4.40543 19.5945 4.86025 19.5945 4.98428C19.5945 5.03251 19.5853 5.07155 19.5738 5.07155C19.5623 5.07155 19.4728 5.02561 19.3763 4.96821C18.3518 4.36178 17.2125 4.03792 16.103 4.03792C14.9936 4.03792 13.8543 4.36178 12.8298 4.96821C12.7333 5.02561 12.6438 5.07155 12.6323 5.07155C12.6208 5.07155 12.6116 5.03251 12.6116 4.98428C12.6116 4.85565 12.5496 4.38707 12.483 4.01724C12.0994 1.85577 11.2196 0.424746 10.0505 0.0641174C9.88969 0.0158806 9.43258 -0.0162761 9.26947 0.00899084ZM9.65999 1.87875C9.99075 2.1406 10.3583 2.88942 10.5696 3.72782C10.6086 3.87942 10.65 4.054 10.6615 4.1183C10.6707 4.18035 10.6959 4.32045 10.7166 4.4284C10.8062 4.91537 10.8475 5.44139 10.8521 6.08225L10.8544 6.71393L10.6959 6.9482L10.5374 7.18479H10.1676C9.73579 7.18479 9.30623 7.23994 8.89506 7.35018C8.74807 7.38694 8.60564 7.4237 8.5781 7.4306C8.53445 7.43978 8.52755 7.42599 8.5023 7.23762C8.36676 6.21546 8.37366 5.08305 8.52298 4.14127C8.68834 3.09156 9.07425 2.1406 9.45094 1.86037C9.54053 1.79375 9.55661 1.79605 9.65999 1.87875ZM22.7574 1.86266C22.9848 2.03034 23.2352 2.47596 23.4213 3.04561C23.7957 4.18492 23.9013 5.74917 23.7038 7.23762C23.6785 7.42599 23.6716 7.43978 23.628 7.4306C23.6005 7.4237 23.458 7.38694 23.311 7.35018C22.8999 7.23994 22.4703 7.18479 22.0385 7.18479H21.6686L21.5102 6.9482L21.3517 6.71393L21.354 6.08225C21.3586 5.19101 21.4413 4.49503 21.6388 3.72093C21.8478 2.88942 22.2176 2.1406 22.5461 1.87875C22.6495 1.79605 22.6656 1.79375 22.7574 1.86266Z" fill="black"/>
  <path d="M15.7466 13.4239C15.2481 13.4721 15.1126 13.4905 14.8737 13.5387C14.4855 13.6191 13.9664 13.7983 13.6058 13.9752C12.3516 14.5884 11.488 15.6106 11.2238 16.7936C11.171 17.0279 11.1641 17.106 11.1641 17.501C11.1641 17.8915 11.171 17.9765 11.2215 18.1993C11.5729 19.7452 12.9971 20.8868 14.8393 21.0958C15.2389 21.1395 16.9663 21.1395 17.366 21.0958C18.8452 20.9282 20.1178 20.1265 20.6897 19.001C20.8413 18.7001 20.9148 18.5048 20.9837 18.1993C21.0343 17.9765 21.0412 17.8915 21.0412 17.501C21.0412 17.106 21.0343 17.0279 20.9814 16.7936C20.5978 15.0754 18.9302 13.7225 16.8859 13.4652C16.6194 13.4331 15.9212 13.4055 15.7466 13.4239ZM16.6056 14.6734C17.2879 14.7469 17.9747 14.9904 18.5259 15.3579C18.8223 15.5555 19.2403 15.9689 19.4195 16.24C19.64 16.5753 19.7663 16.9176 19.8237 17.3334C19.849 17.524 19.8352 17.6687 19.7663 17.9765C19.6583 18.4359 19.323 18.916 18.8705 19.2513C18.6591 19.4052 18.2204 19.6281 17.9517 19.7153C17.4418 19.8784 17.1087 19.9083 15.9188 19.8991C15.1425 19.8922 15.0046 19.8853 14.7818 19.844C14.0215 19.7016 13.4197 19.3983 12.9833 18.9367C12.6295 18.5645 12.4688 18.2246 12.3815 17.6756C12.3424 17.4206 12.4159 16.998 12.5652 16.642C12.7467 16.2078 13.2153 15.6681 13.6793 15.3579C14.2168 14.9996 14.9243 14.7447 15.5743 14.6758C15.8247 14.6482 16.3553 14.6482 16.6056 14.6734Z" fill="black"/>
  <path d="M15.2251 16.3497C15.0505 16.4438 14.9288 16.6827 14.9656 16.8596C15.0069 17.0502 15.1746 17.2432 15.4364 17.4017C15.5766 17.4867 15.5857 17.4981 15.5926 17.5831C15.5972 17.6337 15.5788 17.7784 15.5536 17.907C15.526 18.0333 15.5053 18.1666 15.5053 18.2033C15.5076 18.3021 15.5995 18.4629 15.696 18.541C15.781 18.6099 15.7971 18.6122 16.0359 18.6191C16.2542 18.626 16.3001 18.6214 16.3874 18.58C16.6125 18.4697 16.6699 18.2676 16.5872 17.8794C16.5183 17.5556 16.5321 17.505 16.7044 17.4063C16.8858 17.3006 17.0788 17.1145 17.1362 16.9882C17.2465 16.747 17.1454 16.4737 16.9019 16.3473C16.8422 16.3175 16.7687 16.3037 16.6607 16.3037C16.493 16.3037 16.3851 16.3428 16.1875 16.4691L16.075 16.5403L16.0038 16.4966C15.7121 16.3244 15.6592 16.3037 15.4823 16.306C15.356 16.306 15.2871 16.3175 15.2251 16.3497Z" fill="black"/>
  <path d="M9.64943 13.6833C9.24287 13.812 8.93966 14.1106 8.78348 14.5355C8.70768 14.7377 8.67092 15.057 8.70307 15.2292C8.77887 15.6404 9.11652 16.0148 9.50014 16.1182C9.9825 16.2445 10.3431 16.1618 10.6624 15.8448C10.8485 15.6634 10.9495 15.5049 11.0506 15.2476C11.1241 15.0662 11.1287 15.034 11.1287 14.7767L11.131 14.5011L11.0345 14.3036C10.8806 13.9912 10.6027 13.7591 10.2811 13.6742C10.0996 13.6282 9.80793 13.6305 9.64943 13.6833Z" fill="black"/>
  <path d="M21.9169 13.6761C21.6022 13.761 21.3219 13.9953 21.1726 14.3031L21.0762 14.5007L21.0785 14.7763C21.0785 15.0336 21.0831 15.0657 21.1565 15.2472C21.2576 15.5044 21.3587 15.6629 21.5447 15.8444C21.864 16.1614 22.2246 16.2441 22.707 16.1178C22.985 16.0442 23.2629 15.8099 23.3961 15.5366C23.511 15.3046 23.5385 15.1369 23.5018 14.8728C23.4168 14.2687 23.0631 13.8299 22.537 13.6761C22.3832 13.6301 22.0845 13.6301 21.9169 13.6761Z" fill="black"/>
</svg>