<svg xmlns="http://www.w3.org/2000/svg" width="32" height="32" viewBox="0 0 32 32" fill="none">
  <g clip-path="url(#clip0_926_22151)">
    <path d="M29.688 13.0711C30.4105 10.8953 30.1604 8.51365 29.0017 6.53537C27.2594 3.50262 23.7577 1.9426 20.3378 2.67563C18.4105 0.531872 15.4863 -0.421414 12.6659 0.174614C9.84546 0.770642 7.55695 2.82551 6.66181 5.56571C4.41537 6.0264 2.47648 7.43295 1.34129 9.42545C-0.419968 12.4533 -0.0202085 16.2726 2.32984 18.8702C1.6046 21.045 1.85243 23.427 3.00986 25.4059C4.75431 28.4397 8.25837 29.9996 11.6801 29.2656C13.2021 30.9795 15.3886 31.9546 17.6806 31.9418C21.186 31.9449 24.2916 29.6819 25.3623 26.3441C27.6084 25.8826 29.547 24.4763 30.6829 22.4843C32.4229 19.4618 32.0214 15.6631 29.688 13.0711ZM17.6806 29.8512C16.2815 29.8534 14.9262 29.363 13.8524 28.466L14.0413 28.359L20.4007 24.6881C20.7227 24.4993 20.9213 24.1547 20.9233 23.7814V14.8152L23.6119 16.3705C23.6388 16.3842 23.6575 16.4099 23.6623 16.4397V23.8696C23.6554 27.1703 20.9813 29.8443 17.6806 29.8512ZM4.82324 24.3607C4.12157 23.1491 3.86963 21.7289 4.11174 20.3498L4.30063 20.4632L10.6664 24.134C10.9871 24.3222 11.3846 24.3222 11.7053 24.134L19.4814 19.6509V22.7551C19.48 22.7877 19.4638 22.8178 19.4374 22.8369L12.9961 26.5519C10.1338 28.2008 6.47677 27.2204 4.82324 24.3607ZM3.14838 10.5084C3.85492 9.28902 4.97015 8.35892 6.29662 7.88282V15.4386C6.29174 15.8104 6.48957 16.1554 6.81293 16.339L14.5513 20.8032L11.8627 22.3584C11.8332 22.3741 11.7978 22.3741 11.7683 22.3584L5.33955 18.6498C2.48285 16.994 1.50314 13.3398 3.14838 10.477V10.5084ZM25.2364 15.6401L17.4729 11.1318L20.1552 9.58286C20.1847 9.56719 20.2201 9.56719 20.2496 9.58286L26.6783 13.2978C28.6847 14.4556 29.8423 16.6678 29.6496 18.9763C29.4569 21.2848 27.9485 23.2745 25.7779 24.0836V16.5279C25.7666 16.1572 25.5609 15.8198 25.2364 15.6401ZM27.9124 11.6166L27.7235 11.5033L21.3704 7.80096C21.0477 7.61162 20.6478 7.61162 20.3252 7.80096L12.5553 12.2841V9.17989C12.5519 9.14774 12.5664 9.11633 12.5931 9.09804L19.0218 5.38941C21.0331 4.23069 23.533 4.33882 25.4368 5.66689C27.3406 6.99496 28.3053 9.30368 27.9124 11.5914V11.6166ZM11.0882 17.1197L8.39964 15.5708C8.37247 15.5543 8.35401 15.5267 8.34927 15.4953V8.0843C8.35233 5.76351 9.69616 3.65349 11.7979 2.66933C13.8997 1.68517 16.3809 2.00413 18.1655 3.48788L17.9766 3.59492L11.6171 7.26576C11.2952 7.45462 11.0966 7.79919 11.0945 8.17245L11.0882 17.1197ZM12.549 13.9715L16.0121 11.9755L19.4814 13.9715V17.9635L16.0247 19.9595L12.5553 17.9635L12.549 13.9715Z" fill="black"/>
  </g>
  <defs>
    <clipPath id="clip0_926_22151">
      <rect width="32" height="32" fill="white"/>
    </clipPath>
  </defs>
</svg>