<svg xmlns="http://www.w3.org/2000/svg" width="32" height="6" viewBox="0 0 32 6" fill="none">
  <g clip-path="url(#clip0_858_13918)">
    <path d="M13.3023 3.31593H15.2834L14.2359 1.63063L12.3133 4.67774H11.4383L13.7768 1.01751C13.8785 0.86962 14.0479 0.780273 14.2359 0.780273C14.4177 0.780273 14.5871 0.86654 14.6857 1.01135L17.0334 4.67774H16.1584L15.7456 3.99683H13.7398L13.3023 3.31593ZM22.3913 3.99683V0.817247H21.6488V4.30802C21.6488 4.40353 21.6857 4.49596 21.7566 4.56682C21.8275 4.63768 21.923 4.67774 22.0277 4.67774H25.4137L25.8512 3.99683H22.3913ZM10.1073 3.42685C10.8283 3.42685 11.4137 2.84454 11.4137 2.12359C11.4137 1.40264 10.8283 0.817247 10.1074 0.817247H6.85904V4.67774H7.60127V1.49814H10.0581C10.4031 1.49814 10.6804 1.77851 10.6804 2.12359C10.6804 2.46866 10.4031 2.74903 10.0581 2.74903L7.96483 2.74595L10.1813 4.67773H11.2596L9.76845 3.42685L10.1073 3.42685ZM2.28995 4.67774C1.22421 4.67774 0.359375 3.81505 0.359375 2.74903C0.359375 1.68301 1.22422 0.817247 2.28994 0.817247H4.53382C5.59984 0.817247 6.46407 1.68301 6.46407 2.74903C6.46407 3.81506 5.59984 4.67774 4.53382 4.67774H2.28995ZM4.48391 3.99683C5.17438 3.99683 5.73358 3.43917 5.73358 2.74903C5.73358 2.05889 5.17438 1.49814 4.48391 1.49814H2.33954C1.6494 1.49814 1.08987 2.05889 1.08987 2.74903C1.08987 3.43917 1.6494 3.99683 2.33954 3.99683H4.48391ZM18.5832 4.67774C17.5171 4.67774 16.6514 3.81506 16.6514 2.74903C16.6514 1.68301 17.5171 0.817247 18.5832 0.817247H21.2482L20.8138 1.49814H18.6325C17.9423 1.49814 17.3816 2.05889 17.3816 2.74903C17.3816 3.43917 17.9423 3.99683 18.6325 3.99683H21.3098L20.8724 4.67774H18.5832ZM27.6629 3.99683C27.0929 3.99683 26.6092 3.61479 26.4613 3.08794H29.6347L30.0722 2.40704H26.4613C26.6092 1.88327 27.0929 1.49814 27.6629 1.49814H29.8411L30.2817 0.817247H27.6136C26.5475 0.817247 25.6818 1.68301 25.6818 2.74903C25.6818 3.81506 26.5475 4.67774 27.6136 4.67774H29.9028L30.3403 3.99683H27.6629ZM30.6792 1.22702C30.679 1.18248 30.6877 1.13835 30.7047 1.09717C30.7217 1.05599 30.7466 1.01858 30.7781 0.987085C30.8096 0.955588 30.8471 0.930629 30.8882 0.913643C30.9294 0.896657 30.9735 0.887979 31.0181 0.888109C31.2091 0.888109 31.3601 1.03908 31.3601 1.22702C31.3601 1.41804 31.2091 1.56901 31.0181 1.56901C30.8301 1.56901 30.6792 1.41804 30.6792 1.22702ZM31.0181 1.66452C31.2584 1.66452 31.4525 1.47042 31.4525 1.2301C31.4525 0.98978 31.2584 0.795678 31.0181 0.795678C30.7808 0.795678 30.5867 0.98978 30.5867 1.2301C30.5867 1.47042 30.7808 1.66452 31.0181 1.66452ZM30.978 0.971296C31.0458 0.971296 31.0735 0.974376 31.1044 0.986695C31.1906 1.01443 31.1998 1.09145 31.1998 1.12226C31.1998 1.12842 31.1998 1.14383 31.1937 1.16231C31.1906 1.1808 31.1783 1.21777 31.1352 1.2455C31.129 1.24858 31.1259 1.25166 31.1136 1.25783L31.2245 1.45809H31.1167L31.0181 1.27323H30.9503V1.45809H30.8548V0.971296H30.978ZM31.0119 1.19313C31.0427 1.19005 31.0735 1.19005 31.092 1.16231C31.1012 1.14999 31.1044 1.13767 31.1044 1.11918C31.1044 1.09454 31.0889 1.07297 31.0674 1.06064C31.0458 1.0514 31.0242 1.0514 30.978 1.0514H30.9503V1.19313H31.0119Z" fill="#F80000"/>
  </g>
  <defs>
    <clipPath id="clip0_858_13918">
      <rect width="32" height="5.05263" fill="white" transform="translate(0 0.473633)"/>
    </clipPath>
  </defs>
</svg>