<svg width="16" height="16" viewBox="0 0 16 16" fill="none" xmlns="http://www.w3.org/2000/svg">
<mask id="mask0_18_1042" style="mask-type:alpha" maskUnits="userSpaceOnUse" x="0" y="0" width="16" height="16">
<rect width="16" height="16" fill="#D9D9D9"/>
</mask>
<g mask="url(#mask0_18_1042)">
<path d="M6.66665 8.00002C5.93331 8.00002 5.30554 7.73891 4.78331 7.21669C4.26109 6.69447 3.99998 6.06669 3.99998 5.33335C3.99998 4.60002 4.26109 3.97224 4.78331 3.45002C5.30554 2.9278 5.93331 2.66669 6.66665 2.66669C7.39998 2.66669 8.02776 2.9278 8.54998 3.45002C9.0722 3.97224 9.33331 4.60002 9.33331 5.33335C9.33331 6.06669 9.0722 6.69447 8.54998 7.21669C8.02776 7.73891 7.39998 8.00002 6.66665 8.00002ZM1.33331 12V11.4667C1.33331 11.1 1.42776 10.7556 1.61665 10.4334C1.80554 10.1111 2.06665 9.86669 2.39998 9.70002C2.96665 9.41113 3.60554 9.16669 4.31665 8.96669C4.71274 8.85529 4.93609 8.67502 5.79165 8.67502H6.02498C6.09165 8.67502 6.15831 8.68613 6.22498 8.70835C5.99998 9.00002 5.33331 9.66669 4.99998 10C4.99998 10 4.8376 10.2057 4.54165 10.3C3.91387 10.5 3.39998 10.7 2.99998 10.9C2.89998 10.9556 2.81942 11.0334 2.75831 11.1334C2.6972 11.2334 2.66665 11.3445 2.66665 11.4667V12H4.99998C5.33331 12.3334 5.33331 12.3334 5.66665 12.6917C5.90596 12.949 6.19998 13.1334 6.33331 13.3334H2.66665C2.29998 13.3334 1.98609 13.2028 1.72498 12.9417C1.46387 12.6806 1.33331 12.3667 1.33331 12ZM6.66665 6.66669C7.03331 6.66669 7.3472 6.53613 7.60831 6.27502C7.86942 6.01391 7.99998 5.70002 7.99998 5.33335C7.99998 4.96669 7.86942 4.6528 7.60831 4.39169C7.3472 4.13058 7.03331 4.00002 6.66665 4.00002C6.29998 4.00002 5.98609 4.13058 5.72498 4.39169C5.46387 4.6528 5.33331 4.96669 5.33331 5.33335C5.33331 5.70002 5.46387 6.01391 5.72498 6.27502C5.98609 6.53613 6.29998 6.66669 6.66665 6.66669Z" fill="currentColor" stroke="none"/>
<path d="M9.99998 12.6667C10.6555 12.6667 11.2639 12.5167 11.825 12.2167C12.3861 11.9167 12.8333 11.5111 13.1666 11C12.8333 10.4889 12.3861 10.0833 11.825 9.78333C11.2639 9.48333 10.6555 9.33333 9.99998 9.33333C9.34442 9.33333 8.73609 9.48333 8.17498 9.78333C7.61387 10.0833 7.16665 10.4889 6.83331 11C7.16665 11.5111 7.61387 11.9167 8.17498 12.2167C8.73609 12.5167 9.34442 12.6667 9.99998 12.6667ZM9.99998 14C8.93331 14 7.98054 13.7194 7.14165 13.1583C6.30276 12.5972 5.69998 11.8778 5.33331 11C5.69998 10.1222 6.30276 9.40278 7.14165 8.84167C7.98054 8.28056 8.93331 8 9.99998 8C11.0666 8 12.0194 8.28056 12.8583 8.84167C13.6972 9.40278 14.3 10.1222 14.6666 11C14.3 11.8778 13.6972 12.5972 12.8583 13.1583C12.0194 13.7194 11.0666 14 9.99998 14ZM9.99998 12C9.7222 12 9.48609 11.9028 9.29165 11.7083C9.0972 11.5139 8.99998 11.2778 8.99998 11C8.99998 10.7222 9.0972 10.4861 9.29165 10.2917C9.48609 10.0972 9.7222 10 9.99998 10C10.2778 10 10.5139 10.0972 10.7083 10.2917C10.9028 10.4861 11 10.7222 11 11C11 11.2778 10.9028 11.5139 10.7083 11.7083C10.5139 11.9028 10.2778 12 9.99998 12Z" fill="currentColor" stroke="none"/>
</g>
</svg>