<svg width="16" height="16" viewBox="0 0 16 16" fill="none" xmlns="http://www.w3.org/2000/svg">
<mask id="mask0_18_1022" style="mask-type:alpha" maskUnits="userSpaceOnUse" x="0" y="0" width="16" height="16">
<rect width="16" height="16" fill="currentColor"/>
</mask>
<g mask="url(#mask0_18_1022)">
<path d="M7.99999 9.20002C7.33332 9.20002 6.76665 8.96668 6.29999 8.50002C5.83332 8.03335 5.59999 7.46668 5.59999 6.80002C5.59999 6.13335 5.83332 5.56668 6.29999 5.10002C6.76665 4.63335 7.33332 4.40002 7.99999 4.40002C8.66665 4.40002 9.23332 4.63335 9.69999 5.10002C10.1667 5.56668 10.4 6.13335 10.4 6.80002C10.4 7.46668 10.1667 8.03335 9.69999 8.50002C9.23332 8.96668 8.66665 9.20002 7.99999 9.20002ZM7.99999 8.00002C8.33332 8.00002 8.61665 7.88335 8.84999 7.65002C9.08332 7.41668 9.19999 7.13335 9.19999 6.80002C9.19999 6.46668 9.08332 6.18335 8.84999 5.95002C8.61665 5.71668 8.33332 5.60002 7.99999 5.60002C7.66665 5.60002 7.38332 5.71668 7.14999 5.95002C6.91665 6.18335 6.79999 6.46668 6.79999 6.80002C6.79999 7.13335 6.91665 7.41668 7.14999 7.65002C7.38332 7.88335 7.66665 8.00002 7.99999 8.00002ZM7.99999 2.88335L3.99999 4.41668V7.41668C3.99999 8.00557 4.08332 8.57779 4.24999 9.13335C4.41665 9.6889 4.64443 10.2056 4.93332 10.6833C5.4111 10.4611 5.90832 10.2917 6.42499 10.175C6.94165 10.0583 7.46665 10 7.99999 10C8.53332 10 9.05832 10.0583 9.57499 10.175C10.0917 10.2917 10.5889 10.4611 11.0667 10.6833C11.3555 10.2056 11.5833 9.6889 11.75 9.13335C11.9167 8.57779 12 8.00557 12 7.41668V4.41668L7.99999 2.88335ZM7.99999 11.2C7.59999 11.2 7.20554 11.2389 6.81665 11.3167C6.42777 11.3945 6.04999 11.5111 5.68332 11.6667C6.00554 12.0111 6.3611 12.3111 6.74999 12.5667C7.13888 12.8222 7.55554 13.0167 7.99999 13.15C8.44443 13.0167 8.8611 12.8222 9.24999 12.5667C9.63888 12.3111 9.99443 12.0111 10.3167 11.6667C9.94999 11.5111 9.57221 11.3945 9.18332 11.3167C8.79443 11.2389 8.39999 11.2 7.99999 11.2ZM7.99999 14.3333C7.93332 14.3333 7.86665 14.3306 7.79999 14.325C7.73332 14.3195 7.67221 14.3056 7.61665 14.2833C6.1611 13.8056 4.99443 12.9222 4.11665 11.6333C3.23888 10.3445 2.79999 8.93891 2.79999 7.41668V4.41668C2.79999 4.16113 2.86943 3.93335 3.00832 3.73335C3.14721 3.53335 3.33332 3.38891 3.56665 3.30002L7.56665 1.76668C7.7111 1.71113 7.85554 1.68335 7.99999 1.68335C8.14443 1.68335 8.28888 1.71113 8.43332 1.76668L12.4333 3.30002C12.6667 3.38891 12.8528 3.53335 12.9917 3.73335C13.1305 3.93335 13.2 4.16113 13.2 4.41668V7.41668C13.2 8.93891 12.7611 10.3445 11.8833 11.6333C11.0055 12.9222 9.83888 13.8056 8.38332 14.2833C8.32777 14.3056 8.26665 14.3195 8.19999 14.325C8.13332 14.3306 8.06665 14.3333 7.99999 14.3333Z" fill="currentColor" stroke="none"/>
</g>
</svg>