<svg xmlns="http://www.w3.org/2000/svg" width="16" height="16" viewBox="0 0 16 16" fill="none">
  <path d="M11.6889 10.8111C11.1696 10.2918 10.4652 10 9.73078 10H6.26924C5.53479 10 4.83043 10.2918 4.3111 10.8111" stroke="currentColor" stroke-width="1.33333" stroke-linecap="round" stroke-linejoin="round"/>
  <path d="M8 8C9.10457 8 10 7.10457 10 6C10 4.89543 9.10457 4 8 4C6.89543 4 6 4.89543 6 6C6 7.10457 6.89543 8 8 8Z" stroke="currentColor" stroke-width="1.33333" stroke-linecap="round" stroke-linejoin="round"/>
  <path d="M7.99999 15C7.99999 15 13.6 12.2 13.6 8V3.1L7.99999 1L2.39999 3.1V8C2.39999 12.2 7.99999 15 7.99999 15Z" stroke="currentColor" stroke-width="1.33333" stroke-linecap="round" stroke-linejoin="round"/>
</svg>