<svg width="16" height="16" viewBox="0 0 16 16" fill="none" xmlns="http://www.w3.org/2000/svg">
<path d="M10.0334 3.83268C10.6845 3.95973 11.283 4.27819 11.7521 4.74731C12.2212 5.21642 12.5397 5.81486 12.6667 6.46602M10.0334 1.16602C11.3862 1.31631 12.6478 1.92213 13.6109 2.88402C14.574 3.84591 15.1814 5.10669 15.3334 6.45935M14.6667 11.7793V13.7793C14.6675 13.965 14.6294 14.1488 14.555 14.3189C14.4807 14.489 14.3716 14.6417 14.2348 14.7673C14.0979 14.8928 13.9364 14.9883 13.7605 15.0478C13.5847 15.1073 13.3983 15.1294 13.2134 15.1127C11.1619 14.8898 9.19137 14.1888 7.46004 13.066C5.84926 12.0425 4.48359 10.6768 3.46004 9.06602C2.33336 7.32682 1.6322 5.34668 1.41337 3.28602C1.39671 3.10166 1.41862 2.91586 1.4777 2.74043C1.53679 2.56501 1.63175 2.40381 1.75655 2.2671C1.88134 2.13038 2.03324 2.02116 2.20256 1.94636C2.37189 1.87157 2.55493 1.83286 2.74004 1.83268H4.74004C5.06357 1.8295 5.37723 1.94407 5.62254 2.15504C5.86786 2.36601 6.02809 2.65898 6.07337 2.97935C6.15779 3.61939 6.31434 4.24783 6.54004 4.85268C6.62973 5.0913 6.64915 5.35063 6.59597 5.59994C6.5428 5.84925 6.41928 6.07809 6.24004 6.25935L5.39337 7.10602C6.34241 8.77505 7.72434 10.157 9.39337 11.106L10.24 10.2593C10.4213 10.0801 10.6501 9.95658 10.8994 9.90341C11.1488 9.85024 11.4081 9.86965 11.6467 9.95935C12.2516 10.185 12.88 10.3416 13.52 10.426C13.8439 10.4717 14.1396 10.6348 14.3511 10.8843C14.5625 11.1339 14.6748 11.4524 14.6667 11.7793Z" stroke="currentColor" stroke-width="1.33333" stroke-linecap="round" stroke-linejoin="round"/>
</svg>
