<svg xmlns="http://www.w3.org/2000/svg" width="26" height="32" viewBox="0 0 26 32" fill="none">
  <path d="M15.4838 0C11.9283 0 9.85422 1.59544 8.87416 2.71225C8.7602 1.75499 8.12202 0.524216 5.68328 0.524216H0.327148V6.08547H2.51518C2.87986 6.08547 2.99382 6.19943 2.99382 6.5641V32H9.33V22.4501C9.33 22.1994 9.33 21.9487 9.30721 21.7436C10.2873 22.6553 12.179 23.9088 15.142 23.9088C21.3414 23.9088 25.6719 18.9858 25.6719 11.9658C25.7175 4.80912 21.5921 0 15.4838 0ZM14.1847 18.3704C10.7659 18.3704 9.21604 15.1111 9.21604 12.0798C9.21604 7.31624 11.8143 5.60684 14.2759 5.60684C17.2616 5.60684 19.2901 8.18234 19.2901 12.0342C19.2673 16.433 16.7146 18.3704 14.1847 18.3704Z" fill="#027737"/>
</svg>