<svg xmlns="http://www.w3.org/2000/svg" width="16" height="16" viewBox="0 0 16 16" fill="none">
  <path d="M8 3.33398V12.6673" stroke="currentColor" stroke-width="1.33333" stroke-linecap="round" stroke-linejoin="round"/>
  <path d="M3.33331 8H12.6666" stroke="currentColor" stroke-width="1.33333" stroke-linecap="round" stroke-linejoin="round"/>
  <path d="M12 14C11.9392 14 11.8789 13.9841 11.8191 13.9523C11.7592 13.9205 11.7171 13.8705 11.6928 13.8022L11.2286 12.7714L10.1978 12.3072C10.1295 12.2828 10.0795 12.2408 10.0477 12.1809C10.0159 12.1211 10 12.0608 10 12C10 11.9392 10.0159 11.8789 10.0477 11.8191C10.0795 11.7592 10.1295 11.7172 10.1978 11.6928L11.2286 11.2286L11.6928 10.1978C11.7171 10.1295 11.7592 10.0795 11.8191 10.0477C11.8789 10.0159 11.9392 10 12 10C12.0608 10 12.1211 10.0159 12.1809 10.0477C12.2408 10.0795 12.2829 10.1295 12.3072 10.1978L12.7714 11.2286L13.8022 11.6928C13.8705 11.7172 13.9205 11.7592 13.9523 11.8191C13.9841 11.8789 14 11.9392 14 12C14 12.0608 13.9841 12.1211 13.9523 12.1809C13.9205 12.2408 13.8705 12.2828 13.8022 12.3072L12.7714 12.7714L12.3072 13.8022C12.2829 13.8705 12.2408 13.9205 12.1809 13.9523C12.1211 13.9841 12.0608 14 12 14Z" stroke="transparent" fill="currentColor"/>
</svg>