<svg width="16" height="16" viewBox="0 0 16 16" fill="none" xmlns="http://www.w3.org/2000/svg">
<rect width="16" height="16"/>
<g clip-path="url(#clip0_0_1)">
<path d="M4.30066 8.68374C4.19748 8.88439 3.90297 8.88439 3.79978 8.68374L3.553 8.20389C3.51358 8.12726 3.51358 8.03705 3.553 7.96042L3.79978 7.48057C3.90297 7.27991 4.19748 7.27991 4.30066 7.48057L4.54745 7.96042C4.58684 8.03705 4.58684 8.12726 4.54745 8.20389L4.30066 8.68374ZM4.30066 11.4052C4.19748 11.6058 3.90297 11.6058 3.79978 11.4052L3.553 10.9253C3.51358 10.8487 3.51358 10.7585 3.553 10.6818L3.79978 10.202C3.90297 10.0013 4.19748 10.0013 4.30066 10.202L4.54745 10.6818C4.58684 10.7585 4.58684 10.8487 4.54745 10.9253L4.30066 11.4052Z" fill="#1D4AFF"/>
<path d="M1.25 10.3722C1.25 10.1297 1.5516 10.0082 1.72799 10.1797L3.01134 11.4274C3.18773 11.5989 3.0628 11.8921 2.81335 11.8921H1.53C1.37536 11.8921 1.25 11.7702 1.25 11.6199V10.3722ZM1.25 9.05796C1.25 9.13015 1.2795 9.1994 1.33201 9.25045L3.96715 11.8124C4.01966 11.8634 4.09088 11.8921 4.16514 11.8921H5.61251C5.86196 11.8921 5.9869 11.5989 5.8105 11.4274L1.72799 7.4583C1.5516 7.2868 1.25 7.40826 1.25 7.65079V9.05796ZM1.25 6.33655C1.25 6.40875 1.2795 6.47799 1.33201 6.52904L6.76631 11.8124C6.81881 11.8634 6.89004 11.8921 6.9643 11.8921H8.41167C8.66112 11.8921 8.78606 11.5989 8.60966 11.4274L1.72799 4.7369C1.5516 4.56541 1.25 4.68686 1.25 4.92938V6.33655ZM4.04916 6.33655C4.04916 6.40875 4.07867 6.47799 4.13117 6.52904L9.16949 11.4274C9.34589 11.5989 9.64748 11.4774 9.64748 11.2349V9.82775C9.64748 9.75555 9.61797 9.6863 9.56547 9.63526L4.52715 4.73689C4.35075 4.5654 4.04916 4.68686 4.04916 4.92938V6.33655ZM7.32631 4.7369C7.14991 4.5654 6.84832 4.68686 6.84832 4.92938V6.33655C6.84832 6.40875 6.87783 6.47799 6.93033 6.52904L9.16949 8.706C9.34589 8.8775 9.64748 8.75604 9.64748 8.51351V7.10634C9.64748 7.03415 9.61797 6.9649 9.56547 6.91385L7.32631 4.7369Z" fill="#F9BD2B"/>
<path d="M13.1565 10.4056L10.521 7.84322C10.3446 7.67172 10.043 7.79319 10.043 8.03571V11.6199C10.043 11.7702 10.1683 11.8921 10.323 11.8921H14.4055C14.5602 11.8921 14.6855 11.7702 14.6855 11.6199V11.2935C14.6855 11.1432 14.5596 11.0231 14.4063 11.0037C13.9357 10.9441 13.4955 10.7351 13.1565 10.4056ZM11.3865 11.0213C11.1393 11.0213 10.9387 10.8262 10.9387 10.5858C10.9387 10.3455 11.1393 10.1504 11.3865 10.1504C11.6338 10.1504 11.8344 10.3455 11.8344 10.5858C11.8344 10.8262 11.6338 11.0213 11.3865 11.0213Z" fill="black"/>
<path d="M1.25 11.6199C1.25 11.7702 1.37536 11.8921 1.53 11.8921H2.81335C3.0628 11.8921 3.18773 11.5989 3.01134 11.4274L1.72799 10.1797C1.5516 10.0082 1.25 10.1297 1.25 10.3722V11.6199ZM4.04916 6.99359L1.72799 4.73689C1.5516 4.5654 1.25 4.68686 1.25 4.92938V6.33655C1.25 6.40875 1.2795 6.47799 1.33201 6.52904L4.04916 9.17071V6.99359ZM1.72799 7.4583C1.5516 7.2868 1.25 7.40826 1.25 7.65079V9.05796C1.25 9.13015 1.2795 9.1994 1.33201 9.25045L4.04916 11.8921V9.71499L1.72799 7.4583Z" fill="#1D4AFF"/>
<path d="M6.84994 7.10634C6.84994 7.03415 6.82045 6.96489 6.76793 6.91385L4.52877 4.73689C4.35239 4.5654 4.05078 4.68686 4.05078 4.92938V6.33655C4.05078 6.40875 4.08029 6.47799 4.13279 6.52904L6.84994 9.17071V7.10634ZM4.05078 11.8921H5.61413C5.86358 11.8921 5.98852 11.5989 5.81212 11.4274L4.05078 9.71499V11.8921ZM4.05078 6.99359V9.05796C4.05078 9.13015 4.08029 9.1994 4.13279 9.25045L6.84994 11.8921V9.82775C6.84994 9.75555 6.82045 9.6863 6.76793 9.63526L4.05078 6.99359Z" fill="#F54E00"/>
</g>
<defs>
<clipPath id="clip0_0_1">
<rect width="14" height="8.16667" fill="white" transform="translate(1.25 4)"/>
</clipPath>
</defs>
</svg>
