<svg xmlns="http://www.w3.org/2000/svg" width="32" height="33" viewBox="0 0 32 33" fill="none" class="stroke-transparent">
  <g clip-path="url(#clip0_810_7379)">
    <path d="M31.8759 19.7611C31.6841 19.18 31.1815 18.7753 30.5314 18.6781C30.2249 18.6323 29.8739 18.6518 29.4586 18.7375C28.7346 18.8869 28.1975 18.9437 27.8055 18.9548C29.285 16.4566 30.4882 13.6078 31.1808 10.9262C32.3007 6.59013 31.7023 4.61478 31.0029 3.72122C29.1521 1.35632 26.4517 0.0857831 23.1939 0.0468362C21.4561 0.025626 19.9304 0.368758 19.1346 0.615446C18.3936 0.484785 17.5968 0.411769 16.7607 0.398245C15.1937 0.373266 13.8091 0.714845 12.626 1.41692C11.9708 1.19551 10.9197 0.88327 9.70569 0.683954C6.85038 0.215187 4.54919 0.58049 2.86597 1.76959C0.827727 3.20937 -0.117197 5.71084 0.0575838 9.2046C0.113011 10.3139 0.733575 13.6888 1.71057 16.8896C2.27209 18.7293 2.87085 20.2571 3.49023 21.4308C4.36857 23.0952 5.30839 24.0754 6.36351 24.4273C6.95495 24.6244 8.02943 24.7623 9.15963 23.8212C9.30285 23.9946 9.49389 24.167 9.7476 24.3271C10.0697 24.5302 10.4636 24.6962 10.8569 24.7946C12.2746 25.149 13.6025 25.0603 14.7353 24.5636C14.7423 24.7651 14.7477 24.9576 14.7522 25.1238C14.7598 25.3935 14.7672 25.6578 14.7771 25.9051C14.8442 27.5769 14.9579 28.8768 15.2949 29.7862C15.3134 29.8363 15.3383 29.9125 15.3646 29.9933C15.5326 30.5081 15.8139 31.3698 16.529 32.0448C17.2697 32.7438 18.1656 32.9583 18.9861 32.9582C19.3976 32.9582 19.7902 32.9043 20.1345 32.8304C21.3621 32.5674 22.7562 32.1666 23.7647 30.7306C24.7181 29.3731 25.1816 27.3285 25.2655 24.1068C25.2764 24.0157 25.2864 23.9287 25.2961 23.8458C25.3026 23.7899 25.3093 23.7327 25.316 23.6756L25.5407 23.6954L25.5985 23.6993C26.8488 23.7563 28.3776 23.4911 29.3164 23.055C30.0584 22.7107 32.4357 21.4556 31.8759 19.7611Z" fill="black"/>
    <path d="M29.7381 20.0907C26.0206 20.8576 25.7651 19.5989 25.7651 19.5989C29.6901 13.7748 31.3309 6.38189 29.9149 4.57252C26.052 -0.363094 19.3651 1.97113 19.2535 2.03173L19.2176 2.03816C18.4832 1.8857 17.6612 1.79487 16.7374 1.7798C15.0553 1.75223 13.7794 2.22078 12.8112 2.955C12.8112 2.955 0.882436 -1.95918 1.43723 9.13551C1.55525 11.4958 4.82021 26.9947 8.71453 22.3133C10.1379 20.6015 11.5132 19.1541 11.5132 19.1541C12.1962 19.6079 13.014 19.8393 13.8713 19.7562L13.9378 19.6996C13.9172 19.9122 13.9266 20.1201 13.9645 20.3662C12.9613 21.4871 13.2561 21.6839 11.2506 22.0967C9.22128 22.5149 10.4134 23.2595 11.1918 23.4541C12.1354 23.69 14.3184 24.0243 15.7934 21.9595L15.7346 22.1951C16.1277 22.5099 16.4037 24.243 16.3574 25.814C16.3112 27.3851 16.2803 28.4637 16.59 29.3062C16.8997 30.1487 17.2084 32.0443 19.8448 31.4794C22.0478 31.0073 23.1894 29.7839 23.3482 27.7433C23.4609 26.2925 23.716 26.5069 23.7321 25.2099L23.9366 24.5958C24.1725 22.6292 23.9741 21.9947 25.3313 22.2898L25.6612 22.3188C26.6601 22.3642 27.9675 22.1581 28.7349 21.8015C30.3872 21.0346 31.3671 19.7543 29.7379 20.0907H29.7381Z" fill="#336791"/>
    <path d="M13.5096 10.1913C13.1747 10.1447 12.8712 10.1878 12.7177 10.304C12.6313 10.3694 12.6046 10.4452 12.5975 10.4974C12.5782 10.6355 12.675 10.7882 12.7344 10.8669C12.9026 11.0899 13.1484 11.2432 13.3917 11.277C13.427 11.2818 13.462 11.2842 13.4969 11.2842C13.9026 11.2842 14.2714 10.9683 14.3039 10.7352C14.3445 10.4432 13.9206 10.2485 13.5096 10.1913Z" fill="white"/>
    <path d="M24.6075 10.2005C24.5755 9.97162 24.1681 9.90637 23.7816 9.96009C23.3957 10.0139 23.0214 10.1881 23.0526 10.4175C23.0777 10.5959 23.3997 10.9004 23.7811 10.9004C23.8132 10.9004 23.8457 10.8982 23.8785 10.8936C24.133 10.8584 24.3198 10.6968 24.4084 10.6036C24.5436 10.4617 24.6217 10.3034 24.6075 10.2005Z" fill="white"/>
    <path d="M30.9752 20.0032C30.8335 19.5746 30.3773 19.4366 29.6193 19.5932C27.3686 20.0577 26.5626 19.7359 26.2979 19.541C28.0473 16.876 29.4865 13.6546 30.2628 10.6489C30.6306 9.22515 30.8338 7.90295 30.8503 6.8253C30.8687 5.64226 30.6673 4.77309 30.2517 4.24209C28.5764 2.10142 26.1177 0.953189 23.1414 0.921632C21.0954 0.898648 19.3666 1.42232 19.0315 1.56954C18.3257 1.39402 17.5563 1.28627 16.7188 1.27252C15.1827 1.24769 13.855 1.61543 12.7557 2.36496C12.2782 2.18729 11.0442 1.76368 9.53516 1.52062C6.92608 1.10048 4.85288 1.41878 3.37335 2.46694C1.60795 3.71768 0.792949 5.95339 0.95088 9.11186C1.00402 10.1746 1.60943 13.4435 2.565 16.5742C3.82275 20.6947 5.18988 23.0273 6.62848 23.5071C6.79683 23.5633 6.99105 23.6026 7.20507 23.6026C7.72985 23.6026 8.37318 23.366 9.04259 22.5613C10.1545 21.2237 11.1926 20.1028 11.5752 19.6955C12.1408 19.9991 12.7619 20.1686 13.3974 20.1856C13.3985 20.2022 13.4002 20.2188 13.4017 20.2354C13.2742 20.3866 13.1696 20.5191 13.0805 20.6322C12.6403 21.1911 12.5486 21.3074 11.1315 21.5992C10.7284 21.6824 9.65761 21.9031 9.64202 22.6535C9.62495 23.4735 10.9075 23.8179 11.0537 23.8544C11.563 23.9819 12.0535 24.0448 12.5214 24.0448C13.6594 24.0447 14.6607 23.6707 15.461 22.9472C15.4363 25.8704 15.5583 28.7509 15.9092 29.6286C16.1966 30.347 16.8989 32.1029 19.1173 32.1028C19.4427 32.1028 19.801 32.0649 20.1951 31.9805C22.5102 31.4841 23.5155 30.4609 23.9045 28.2051C24.1126 26.9995 24.4698 24.1205 24.6377 22.5763C24.9922 22.6869 25.4486 22.7375 25.942 22.7374C26.971 22.7374 28.1583 22.5188 28.903 22.1732C29.7394 21.7847 31.249 20.8314 30.9752 20.0032ZM25.462 9.56814C25.4543 10.024 25.3916 10.4379 25.3251 10.8699C25.2535 11.3346 25.1795 11.8149 25.1608 12.3981C25.1424 12.9656 25.2133 13.5556 25.2819 14.1262C25.4204 15.2786 25.5625 16.4651 25.0123 17.6359C24.9268 17.484 24.8442 17.3183 24.7686 17.1348C24.7002 16.9691 24.5517 16.7028 24.3462 16.3343C23.5463 14.8998 21.6731 11.5406 22.632 10.1699C22.9176 9.76176 23.6424 9.34236 25.462 9.56814ZM23.2565 1.84483C25.9232 1.90373 28.0326 2.90135 29.5262 4.80982C30.6717 6.27369 29.4103 12.9346 25.7587 18.6809C25.7226 18.6351 25.6859 18.5888 25.6479 18.5414C25.6328 18.5224 25.6173 18.5031 25.6017 18.4836C26.5453 16.9252 26.3608 15.3833 26.1966 14.0163C26.1291 13.4553 26.0654 12.9254 26.0816 12.4277C26.0984 11.9001 26.1681 11.4477 26.2355 11.0102C26.3185 10.471 26.4029 9.91319 26.3796 9.25553C26.3969 9.18657 26.404 9.10506 26.3949 9.00832C26.3355 8.37763 25.6155 6.49037 24.1479 4.78196C23.3453 3.84767 22.1746 2.80202 20.5762 2.09676C21.2637 1.95428 22.2039 1.8214 23.2565 1.84483ZM8.33423 21.9723C7.59675 22.859 7.08742 22.6891 6.91995 22.6333C5.82863 22.2693 4.56245 19.9628 3.44607 16.3053C2.48008 13.1405 1.91554 9.9582 1.8709 9.06582C1.72982 6.24361 2.41394 4.27668 3.90434 3.21972C6.32984 1.49963 10.3176 2.52917 11.92 3.05137C11.8969 3.07406 11.873 3.09534 11.8502 3.1184C9.22077 5.77396 9.28315 10.311 9.28958 10.5883C9.28936 10.6953 9.2983 10.8468 9.31064 11.0552C9.35587 11.8183 9.44004 13.2385 9.21516 14.847C9.00609 16.3416 9.4668 17.8045 10.479 18.8605C10.5838 18.9699 10.6931 19.0725 10.8061 19.1691C10.3556 19.6516 9.37641 20.7185 8.33423 21.9723ZM11.1441 18.2231C10.3283 17.372 9.95781 16.188 10.1275 14.9745C10.365 13.2754 10.2773 11.7956 10.2302 11.0007C10.2236 10.8894 10.2178 10.792 10.2143 10.715C10.5985 10.3745 12.3786 9.42063 13.648 9.71151C14.2274 9.84424 14.5803 10.2387 14.7271 10.9172C15.4866 14.4301 14.8276 15.8942 14.2981 17.0708C14.189 17.3132 14.0859 17.5423 13.9978 17.7794L13.9296 17.9626C13.7568 18.4259 13.5961 18.8566 13.4964 19.2656C12.6293 19.263 11.7856 18.8925 11.1441 18.2231ZM11.2772 22.9607C11.024 22.8974 10.7962 22.7875 10.6626 22.6964C10.7742 22.6439 10.9729 22.5725 11.3173 22.5015C12.9845 22.1583 13.2419 21.9161 13.8042 21.2022C13.9331 21.0385 14.0792 20.853 14.2816 20.627L14.2818 20.6267C14.5832 20.2892 14.7211 20.3464 14.9711 20.4501C15.1737 20.534 15.3711 20.7879 15.4511 21.0674C15.4889 21.1994 15.5315 21.45 15.3923 21.6449C14.2178 23.2894 12.5064 23.2683 11.2772 22.9607ZM20.002 31.0797C17.9625 31.5167 17.2404 30.4761 16.7646 29.2865C16.4574 28.5184 16.3065 25.0551 16.4136 21.2305C16.415 21.1796 16.4078 21.1305 16.3937 21.0843C16.3815 20.9951 16.3628 20.9049 16.3367 20.814C16.1774 20.2575 15.7893 19.792 15.3238 19.5991C15.1388 19.5224 14.7992 19.3818 14.3912 19.4861C14.4782 19.1276 14.6291 18.7229 14.7927 18.2845L14.8613 18.1C14.9386 17.8921 15.0355 17.6768 15.1381 17.4489C15.6922 16.2178 16.4511 14.5317 15.6275 10.7225C15.319 9.2958 14.2887 8.59912 12.727 8.76089C11.7906 8.85778 10.9341 9.23557 10.5068 9.45218C10.415 9.49874 10.3309 9.54367 10.2525 9.5875C10.3717 8.14994 10.8223 5.46349 12.5075 3.76379C13.5686 2.69368 14.9817 2.1652 16.7035 2.19365C20.096 2.24923 22.2715 3.99023 23.4993 5.44102C24.5572 6.69124 25.1301 7.95055 25.3587 8.62972C23.6394 8.45494 22.47 8.79437 21.8772 9.64182C20.5876 11.4853 22.5827 15.0633 23.5416 16.7829C23.7174 17.0981 23.8692 17.3704 23.917 17.4862C24.2292 18.2429 24.6335 18.7481 24.9286 19.117C25.0191 19.23 25.1069 19.3396 25.1736 19.4353C24.6529 19.5855 23.7175 19.9323 23.8027 21.6661C23.734 22.5362 23.2451 26.6094 22.9967 28.0485C22.6689 29.9498 21.9693 30.658 20.002 31.0797ZM28.5151 21.3376C27.9826 21.5848 27.0915 21.7703 26.2449 21.81C25.3099 21.8538 24.834 21.7053 24.722 21.614C24.6694 20.5335 25.0716 20.4206 25.4972 20.3011C25.5641 20.2822 25.6294 20.264 25.6923 20.2419C25.7315 20.2738 25.7744 20.3054 25.8213 20.3364C26.5728 20.8324 27.9133 20.8859 29.8056 20.4954C29.8125 20.4939 29.8195 20.4925 29.8263 20.4911C29.5711 20.7298 29.1344 21.0501 28.5151 21.3376Z" fill="white"/>
  </g>
  <defs>
    <clipPath id="clip0_810_7379">
      <rect width="32" height="33" fill="white"/>
    </clipPath>
  </defs>
</svg>