<svg width="14" height="15" viewBox="0 0 14 15" fill="none" xmlns="http://www.w3.org/2000/svg">
<g id="Group 50">
<path id="Vector" fill-rule="evenodd" clip-rule="evenodd" d="M7.99294 14.3095L13.548 11.78C13.8177 11.6572 13.9569 11.4975 13.9659 11.3367H0C0.00896348 11.4975 0.148262 11.6572 0.417899 11.78L5.97294 14.3095C6.53075 14.5635 7.43514 14.5635 7.99294 14.3095Z" fill="#142966"/>
<path id="Vector_2" d="M13.9999 8.77881H0.00512695V11.3366H13.9999V8.77881Z" fill="#6B6B6B"/>
<path id="Vector_3" fill-rule="evenodd" clip-rule="evenodd" d="M7.99294 11.7517L13.548 9.22211C13.8177 9.09934 13.9569 8.93968 13.9659 8.77881H0C0.00896348 8.93968 0.148262 9.09934 0.417899 9.22211L5.97294 11.7517C6.53075 12.0056 7.43514 12.0056 7.99294 11.7517Z" fill="#CFCFCF"/>
<path id="Vector_4" d="M13.9999 6.22119H0.00512695V8.77897H13.9999V6.22119Z" fill="#6B6B6B"/>
<path id="Vector_5" fill-rule="evenodd" clip-rule="evenodd" d="M7.99294 10.4729L13.548 7.94332C13.8177 7.82054 13.9569 7.66088 13.9659 7.5H0C0.00896348 7.66088 0.148262 7.82054 0.417899 7.94332L5.97294 10.4729C6.53075 10.7269 7.43514 10.7269 7.99294 10.4729Z" fill="#CFCFCF"/>
<path id="Vector_6" d="M13.9997 3.66309H0.00488281V7.50309H13.9997V3.66309Z" fill="#36BFFF"/>
<path id="Vector_7" d="M13.5484 4.13991L7.99337 6.66947C7.43561 6.92348 6.53121 6.92348 5.9734 6.66947L0.418362 4.13991C-0.139454 3.8859 -0.139454 3.47408 0.418362 3.22007L5.9734 0.690505C6.53121 0.436498 7.43561 0.436498 7.99337 0.690505L13.5484 3.22007C14.1063 3.47408 14.1063 3.8859 13.5484 4.13991Z" fill="#36BFFF"/>
</g>
</svg>
