<svg xmlns="http://www.w3.org/2000/svg" width="16" height="16" viewBox="0 0 16 16" fill="none">
  <path d="M14.002 7.28906V11.2891H13.9707C13.9627 11.4267 13.8431 11.5629 13.6123 11.668L8.85156 13.8369C8.37362 14.0545 7.59828 14.0544 7.12012 13.8369L2.3584 11.668C2.12728 11.5627 2.00768 11.426 2 11.2881H2.00195V7.28906H14.002Z" fill="#142966"/>
  <path d="M7.12012 2.16327C7.59825 1.94559 8.37351 1.94556 8.85156 2.16327L13.6133 4.33123C13.844 4.43632 13.9617 4.57344 13.9697 4.71112H14V8.00213H13.9707C13.962 8.13936 13.8423 8.27533 13.6123 8.38006L8.85156 10.548C8.37354 10.7657 7.59826 10.7656 7.12012 10.548L2.3584 8.38006C2.12731 8.27484 2.00771 8.13806 2 8.00018H2.00391V4.76092C1.98256 4.60673 2.09963 4.44907 2.3584 4.33123L7.12012 2.16327Z" fill="#36BFFF"/>
</svg>
