<svg width="16" height="17" viewBox="0 0 16 17" fill="none" xmlns="http://www.w3.org/2000/svg">
<path fill-rule="evenodd" clip-rule="evenodd" d="M8.99294 15.3098L14.548 12.7802C14.8177 12.6574 14.9569 12.4978 14.9659 12.3369H1C1.00896 12.4978 1.14826 12.6574 1.4179 12.7802L6.97294 15.3098C7.53075 15.5637 8.43514 15.5637 8.99294 15.3098Z" fill="#5F5F5F"/>
<path d="M14.9999 9.77881H1.00513V12.3366H14.9999V9.77881Z" fill="#5F5F5F"/>
<path fill-rule="evenodd" clip-rule="evenodd" d="M8.99294 12.7517L14.548 10.2221C14.8177 10.0993 14.9569 9.93968 14.9659 9.77881H1C1.00896 9.93968 1.14826 10.0993 1.4179 10.2221L6.97294 12.7517C7.53075 13.0056 8.43514 13.0056 8.99294 12.7517Z" fill="#5F5F5F"/>
<path d="M14.9999 7.22119H1.00513V9.77897H14.9999V7.22119Z" fill="#5F5F5F"/>
<path fill-rule="evenodd" clip-rule="evenodd" d="M8.99294 11.4729L14.548 8.94332C14.8177 8.82054 14.9569 8.66088 14.9659 8.5H1C1.00896 8.66088 1.14826 8.82054 1.4179 8.94332L6.97294 11.4729C7.53075 11.7269 8.43514 11.7269 8.99294 11.4729Z" fill="#C4C4C4"/>
<path d="M14.9997 4.66309H1.00488V8.50309H14.9997V4.66309Z" fill="#C4C4C4"/>
<path d="M14.5484 5.13991L8.99337 7.66947C8.43561 7.92348 7.53121 7.92348 6.9734 7.66947L1.41836 5.13991C0.860546 4.8859 0.860546 4.47408 1.41836 4.22007L6.9734 1.69051C7.53121 1.4365 8.43561 1.4365 8.99337 1.69051L14.5484 4.22007C15.1063 4.47408 15.1063 4.8859 14.5484 5.13991Z" fill="#C4C4C4"/>
</svg>
