<svg width="16" height="16" viewBox="0 0 16 16" fill="none" xmlns="http://www.w3.org/2000/svg">
<path fill-rule="evenodd" clip-rule="evenodd" d="M8.99294 14.8095L14.548 12.28C14.8177 12.1572 14.9569 11.9975 14.9659 11.8367H1C1.00896 11.9975 1.14826 12.1572 1.4179 12.28L6.97294 14.8095C7.53075 15.0635 8.43514 15.0635 8.99294 14.8095Z" fill="#142966"/>
<path d="M14.9999 9.27893H1.00513V11.8367H14.9999V9.27893Z" fill="#142966"/>
<path fill-rule="evenodd" clip-rule="evenodd" d="M8.99294 12.2518L14.548 9.72223C14.8177 9.59946 14.9569 9.4398 14.9659 9.27893H1C1.00896 9.4398 1.14826 9.59946 1.4179 9.72223L6.97294 12.2518C7.53075 12.5058 8.43514 12.5058 8.99294 12.2518Z" fill="#142966"/>
<path d="M14.9999 6.72107H1.00513V9.27885H14.9999V6.72107Z" fill="#142966"/>
<path fill-rule="evenodd" clip-rule="evenodd" d="M8.99294 10.9729L14.548 8.44332C14.8177 8.32054 14.9569 8.16088 14.9659 8H1C1.00896 8.16088 1.14826 8.32054 1.4179 8.44332L6.97294 10.9729C7.53075 11.2269 8.43514 11.2269 8.99294 10.9729Z" fill="#36BFFF"/>
<path d="M14.9997 4.16309H1.00491V8.00309H14.9997V4.16309Z" fill="#36BFFF"/>
<path d="M14.5484 4.63991L8.99337 7.16947C8.43561 7.42348 7.53121 7.42348 6.9734 7.16947L1.41836 4.63991C0.860546 4.3859 0.860546 3.97408 1.41836 3.72007L6.9734 1.19051C7.53121 0.936498 8.43561 0.936498 8.99337 1.19051L14.5484 3.72007C15.1063 3.97408 15.1063 4.3859 14.5484 4.63991Z" fill="#36BFFF"/>
</svg>
