<svg xmlns="http://www.w3.org/2000/svg" width="16" height="16" viewBox="0 0 16 16" fill="none">
  <g clip-path="url(#clip0_644_18087)">
    <path d="M11.7706 11.1875L11.4578 11.7744L11.7706 11.1875ZM8.09232 14.1342L7.50549 13.8214L8.09232 14.1342ZM1.86583 7.9076L2.17862 8.49445L1.86583 7.9076ZM11.7706 7.9076L11.4578 7.32075L11.7706 7.9076ZM4.81245 14.1342L5.39929 13.8214L4.81245 14.1342ZM4.81243 4.22944L5.39928 3.91664L4.81243 4.22944ZM1.86583 11.1875L2.17862 10.6007L1.86583 11.1875ZM7.64453 3.35714C7.64453 3.5607 7.59406 3.75049 7.5055 3.91664L8.67918 4.54223C8.86787 4.18823 8.97453 3.78416 8.97453 3.35714H7.64453ZM6.45239 2.165C7.11079 2.165 7.64453 2.69874 7.64453 3.35714H8.97453C8.97453 1.9642 7.84533 0.835 6.45239 0.835V2.165ZM5.26024 3.35714C5.26024 2.69874 5.79398 2.165 6.45239 2.165V0.835C5.05944 0.835 3.93024 1.9642 3.93024 3.35714H5.26024ZM5.39928 3.91664C5.31071 3.75049 5.26024 3.5607 5.26024 3.35714H3.93024C3.93024 3.78416 4.0369 4.18823 4.22559 4.54223L5.39928 3.91664ZM2.60053 5.26028H4.62073V3.93028H2.60053V5.26028ZM2.165 5.69581C2.165 5.45527 2.35999 5.26028 2.60053 5.26028V3.93028C1.62545 3.93028 0.835 4.72073 0.835 5.69581H2.165ZM2.165 7.7159V5.69581H0.835V7.7159H2.165ZM2.73811 7.02542C2.31111 7.02542 1.90704 7.13208 1.55304 7.32076L2.17862 8.49445C2.34477 8.40589 2.53456 8.35542 2.73811 8.35542V7.02542ZM5.26026 9.54756C5.26026 8.15462 4.13106 7.02542 2.73811 7.02542V8.35542C3.39652 8.35542 3.93026 8.88916 3.93026 9.54756H5.26026ZM2.73811 12.0697C4.13105 12.0697 5.26026 10.9405 5.26026 9.54756H3.93026C3.93026 10.206 3.39652 10.7397 2.73811 10.7397V12.0697ZM1.55304 11.7744C1.90704 11.963 2.31111 12.0697 2.73811 12.0697V10.7397C2.53456 10.7397 2.34477 10.6892 2.17862 10.6007L1.55304 11.7744ZM2.165 13.3995V11.3792H0.835V13.3995H2.165ZM2.60053 13.835C2.35999 13.835 2.165 13.64 2.165 13.3995H0.835C0.835 14.3746 1.62545 15.165 2.60053 15.165V13.835ZM4.62075 13.835H2.60053V15.165H4.62075V13.835ZM5.39929 13.8214C5.31072 13.6552 5.26024 13.4654 5.26024 13.2619H3.93024C3.93024 13.6889 4.03691 14.093 4.22561 14.447L5.39929 13.8214ZM5.26024 13.2619C5.26024 12.6035 5.79398 12.0697 6.45239 12.0697V10.7397C5.05944 10.7397 3.93024 11.8689 3.93024 13.2619H5.26024ZM6.45239 12.0697C7.11079 12.0697 7.64453 12.6035 7.64453 13.2619H8.97453C8.97453 11.8689 7.84533 10.7397 6.45239 10.7397V12.0697ZM7.64453 13.2619C7.64453 13.4654 7.59405 13.6552 7.50549 13.8214L8.67916 14.447C8.86786 14.093 8.97453 13.6889 8.97453 13.2619H7.64453ZM10.3042 13.835H8.28402V15.165H10.3042V13.835ZM10.7398 13.3995C10.7398 13.64 10.5448 13.835 10.3042 13.835V15.165C11.2793 15.165 12.0698 14.3746 12.0698 13.3995H10.7398ZM10.7398 11.3792V13.3995H12.0698V11.3792H10.7398ZM12.6429 10.7397C12.4393 10.7397 12.2495 10.6892 12.0834 10.6007L11.4578 11.7744C11.8118 11.963 12.2159 12.0697 12.6429 12.0697V10.7397ZM13.835 9.54756C13.835 10.206 13.3013 10.7397 12.6429 10.7397V12.0697C14.0358 12.0697 15.165 10.9405 15.165 9.54756H13.835ZM12.6429 8.35542C13.3013 8.35542 13.835 8.88916 13.835 9.54756H15.165C15.165 8.15462 14.0358 7.02542 12.6429 7.02542V8.35542ZM12.0834 8.49445C12.2495 8.40589 12.4393 8.35542 12.6429 8.35542V7.02542C12.2159 7.02542 11.8118 7.13208 11.4578 7.32075L12.0834 8.49445ZM10.7398 5.69581V7.7159H12.0698V5.69581H10.7398ZM10.3042 5.26028C10.5448 5.26028 10.7398 5.45527 10.7398 5.69581H12.0698C12.0698 4.72073 11.2793 3.93028 10.3042 3.93028V5.26028ZM8.28404 5.26028H10.3042V3.93028H8.28404V5.26028ZM12.0698 11.3792C12.0698 11.5957 11.9312 11.7307 11.8297 11.7819C11.734 11.8302 11.5956 11.8478 11.4578 11.7744L12.0834 10.6007C11.793 10.4459 11.4717 10.473 11.2312 10.5942C10.9849 10.7183 10.7398 10.9898 10.7398 11.3792H12.0698ZM7.50549 13.8214C7.3507 14.1118 7.37776 14.4331 7.49898 14.6736C7.62308 14.9199 7.8946 15.165 8.28402 15.165V13.835C8.50054 13.835 8.63555 13.9736 8.6867 14.0751C8.73495 14.1708 8.75261 14.3092 8.67916 14.447L7.50549 13.8214ZM0.835 7.7159C0.835 8.10531 1.08015 8.37683 1.32643 8.50094C1.56697 8.62215 1.88825 8.64922 2.17862 8.49445L1.55304 7.32076C1.69085 7.24731 1.82921 7.26497 1.92497 7.31323C2.02648 7.36438 2.165 7.49939 2.165 7.7159H0.835ZM11.4578 7.32075C11.5956 7.24731 11.734 7.26497 11.8297 7.31323C11.9312 7.36438 12.0698 7.49939 12.0698 7.7159H10.7398C10.7398 8.10531 10.9849 8.37683 11.2312 8.50094C11.4717 8.62215 11.793 8.64922 12.0834 8.49445L11.4578 7.32075ZM4.62075 15.165C5.01017 15.165 5.28169 14.9199 5.4058 14.6736C5.52701 14.4331 5.55407 14.1118 5.39929 13.8214L4.22561 14.447C4.15216 14.3092 4.16982 14.1708 4.21807 14.0751C4.26922 13.9736 4.40423 13.835 4.62075 13.835V15.165ZM4.22559 4.54223C4.15214 4.40443 4.1698 4.26607 4.21806 4.17031C4.26921 4.0688 4.40422 3.93028 4.62073 3.93028V5.26028C5.01015 5.26028 5.28166 5.01512 5.40577 4.76884C5.52699 4.5283 5.55405 4.20702 5.39928 3.91664L4.22559 4.54223ZM2.17862 10.6007C1.88825 10.4459 1.56697 10.473 1.32643 10.5942C1.08015 10.7183 0.835 10.9898 0.835 11.3792H2.165C2.165 11.5957 2.02648 11.7307 1.92497 11.7819C1.82921 11.8302 1.69085 11.8478 1.55304 11.7744L2.17862 10.6007ZM7.5055 3.91664C7.35072 4.20702 7.37778 4.5283 7.499 4.76884C7.62311 5.01512 7.89462 5.26028 8.28404 5.26028V3.93028C8.50056 3.93028 8.63556 4.0688 8.68671 4.17031C8.73497 4.26607 8.75263 4.40443 8.67918 4.54223L7.5055 3.91664Z" fill="currentColor"/>
  </g>
  <defs>
    <clipPath id="clip0_644_18087">
      <rect width="16" height="16" fill="white"/>
    </clipPath>
  </defs>
</svg>