<svg xmlns="http://www.w3.org/2000/svg" width="28" height="28" viewBox="0 0 28 28" fill="none">
    <path fill-rule="evenodd" clip-rule="evenodd"
        d="M14.654 9.625C14.4811 9.625 14.3835 9.41442 14.4753 9.26796C14.7286 8.86425 14.875 8.38672 14.875 7.875C14.875 6.42525 13.6997 5.25 12.25 5.25C10.8003 5.25 9.625 6.42525 9.625 7.875C9.625 8.38672 9.77143 8.86425 10.0247 9.26796C10.1165 9.41442 10.0189 9.625 9.84599 9.625H6.80556C5.94645 9.625 5.25 10.3214 5.25 11.1806V14.221C5.25 14.3939 5.46058 14.4915 5.60704 14.3997C6.01075 14.1464 6.48828 14 7 14C8.44975 14 9.625 15.1753 9.625 16.625C9.625 18.0747 8.44975 19.25 7 19.25C6.48828 19.25 6.01075 19.1036 5.60704 18.8503C5.46058 18.7585 5.25 18.8561 5.25 19.029V22.0694C5.25 22.9286 5.94645 23.625 6.80556 23.625H9.84599C10.0189 23.625 10.1165 23.4144 10.0247 23.268C9.77143 22.8642 9.625 22.3867 9.625 21.875C9.625 20.4253 10.8003 19.25 12.25 19.25C13.6997 19.25 14.875 20.4253 14.875 21.875C14.875 22.3867 14.7286 22.8642 14.4753 23.268C14.3835 23.4144 14.4811 23.625 14.654 23.625H17.6944C18.5536 23.625 19.25 22.9286 19.25 22.0694V19.029C19.25 18.8561 19.4606 18.7585 19.607 18.8503C20.0108 19.1036 20.4883 19.25 21 19.25C22.4497 19.25 23.625 18.0747 23.625 16.625C23.625 15.1753 22.4497 14 21 14C20.4883 14 20.0108 14.1464 19.607 14.3997C19.4606 14.4915 19.25 14.3939 19.25 14.221V11.1806C19.25 10.3214 18.5536 9.625 17.6944 9.625H14.654Z"
        fill="currentColor" />
    <path
        d="M19.607 18.8503L19.9604 18.287L19.607 18.8503ZM14.4753 23.268L13.912 22.9146L14.4753 23.268ZM19.607 14.3997L19.2537 13.8363L19.607 14.3997ZM10.0247 23.268L9.46132 23.6213L10.0247 23.268ZM5.60704 18.8503L5.96041 18.287L5.60704 18.8503ZM14.21 7.875C14.21 8.25811 14.1008 8.61367 13.912 8.91459L15.0387 9.62133C15.3564 9.11482 15.54 8.51534 15.54 7.875H14.21ZM12.25 5.915C13.3325 5.915 14.21 6.79252 14.21 7.875H15.54C15.54 6.05798 14.067 4.585 12.25 4.585V5.915ZM10.29 7.875C10.29 6.79252 11.1675 5.915 12.25 5.915V4.585C10.433 4.585 8.96 6.05798 8.96 7.875H10.29ZM10.588 8.91459C10.3992 8.61367 10.29 8.25811 10.29 7.875H8.96C8.96 8.51534 9.1436 9.11483 9.46132 9.62133L10.588 8.91459ZM6.80556 10.29H9.84599V8.96H6.80556V10.29ZM5.915 11.1806C5.915 10.6887 6.31372 10.29 6.80556 10.29V8.96C5.57918 8.96 4.585 9.95418 4.585 11.1806H5.915ZM5.915 14.221V11.1806H4.585V14.221H5.915ZM7 13.335C6.35966 13.335 5.76018 13.5186 5.25367 13.8363L5.96041 14.963C6.26133 14.7742 6.61689 14.665 7 14.665V13.335ZM10.29 16.625C10.29 14.808 8.81702 13.335 7 13.335V14.665C8.08248 14.665 8.96 15.5425 8.96 16.625H10.29ZM7 19.915C8.81702 19.915 10.29 18.442 10.29 16.625H8.96C8.96 17.7075 8.08248 18.585 7 18.585V19.915ZM5.25367 19.4137C5.76018 19.7314 6.35966 19.915 7 19.915V18.585C6.61689 18.585 6.26133 18.4758 5.96041 18.287L5.25367 19.4137ZM5.915 22.0694V19.029H4.585V22.0694H5.915ZM6.80556 22.96C6.31372 22.96 5.915 22.5613 5.915 22.0694H4.585C4.585 23.2958 5.57918 24.29 6.80556 24.29V22.96ZM9.84599 22.96H6.80556V24.29H9.84599V22.96ZM10.588 22.9146C10.3992 22.6137 10.29 22.2581 10.29 21.875H8.96C8.96 22.5153 9.1436 23.1148 9.46132 23.6213L10.588 22.9146ZM10.29 21.875C10.29 20.7925 11.1675 19.915 12.25 19.915V18.585C10.433 18.585 8.96 20.058 8.96 21.875H10.29ZM12.25 19.915C13.3325 19.915 14.21 20.7925 14.21 21.875H15.54C15.54 20.058 14.067 18.585 12.25 18.585V19.915ZM14.21 21.875C14.21 22.2581 14.1008 22.6137 13.912 22.9146L15.0387 23.6213C15.3564 23.1148 15.54 22.5153 15.54 21.875H14.21ZM17.6944 22.96H14.654V24.29H17.6944V22.96ZM18.585 22.0694C18.585 22.5613 18.1863 22.96 17.6944 22.96V24.29C18.9208 24.29 19.915 23.2958 19.915 22.0694H18.585ZM18.585 19.029V22.0694H19.915V19.029H18.585ZM21 18.585C20.6169 18.585 20.2613 18.4758 19.9604 18.287L19.2537 19.4137C19.7602 19.7314 20.3597 19.915 21 19.915V18.585ZM22.96 16.625C22.96 17.7075 22.0825 18.585 21 18.585V19.915C22.817 19.915 24.29 18.442 24.29 16.625H22.96ZM21 14.665C22.0825 14.665 22.96 15.5425 22.96 16.625H24.29C24.29 14.808 22.817 13.335 21 13.335V14.665ZM19.9604 14.963C20.2613 14.7742 20.6169 14.665 21 14.665V13.335C20.3597 13.335 19.7602 13.5186 19.2537 13.8363L19.9604 14.963ZM18.585 11.1806V14.221H19.915V11.1806H18.585ZM17.6944 10.29C18.1863 10.29 18.585 10.6887 18.585 11.1806H19.915C19.915 9.95418 18.9208 8.96 17.6944 8.96V10.29ZM14.654 10.29H17.6944V8.96H14.654V10.29ZM19.915 19.029C19.915 19.241 19.7801 19.3821 19.6647 19.4383C19.5547 19.4918 19.3977 19.504 19.2537 19.4137L19.9604 18.287C19.6699 18.1048 19.3344 18.1198 19.0825 18.2425C18.8252 18.3677 18.585 18.6442 18.585 19.029H19.915ZM13.912 22.9146C13.7298 23.2051 13.7448 23.5406 13.8675 23.7925C13.9927 24.0498 14.2692 24.29 14.654 24.29V22.96C14.866 22.96 15.0071 23.0949 15.0633 23.2103C15.1168 23.3203 15.129 23.4773 15.0387 23.6213L13.912 22.9146ZM4.585 14.221C4.585 14.6058 4.8252 14.8823 5.08253 15.0075C5.33442 15.1302 5.66991 15.1452 5.96041 14.963L5.25367 13.8363C5.39771 13.746 5.55468 13.7582 5.66467 13.8117C5.78009 13.8679 5.915 14.009 5.915 14.221H4.585ZM19.2537 13.8363C19.3977 13.746 19.5547 13.7582 19.6647 13.8117C19.7801 13.8679 19.915 14.009 19.915 14.221H18.585C18.585 14.6058 18.8252 14.8823 19.0825 15.0075C19.3344 15.1302 19.6699 15.1452 19.9604 14.963L19.2537 13.8363ZM9.84599 24.29C10.2308 24.29 10.5073 24.0498 10.6325 23.7925C10.7552 23.5406 10.7702 23.2051 10.588 22.9146L9.46132 23.6213C9.37097 23.4773 9.38316 23.3203 9.4367 23.2103C9.49289 23.0949 9.63405 22.96 9.84599 22.96V24.29ZM9.46132 9.62133C9.37097 9.47729 9.38316 9.32032 9.4367 9.21033C9.49289 9.09491 9.63405 8.96 9.84599 8.96V10.29C10.2308 10.29 10.5073 10.0498 10.6325 9.79247C10.7552 9.54058 10.7702 9.20509 10.588 8.91459L9.46132 9.62133ZM5.96041 18.287C5.66991 18.1048 5.33442 18.1198 5.08253 18.2425C4.8252 18.3677 4.585 18.6442 4.585 19.029H5.915C5.915 19.241 5.78009 19.3821 5.66467 19.4383C5.55468 19.4918 5.39771 19.504 5.25367 19.4137L5.96041 18.287ZM13.912 8.91459C13.7298 9.20509 13.7448 9.54058 13.8675 9.79247C13.9927 10.0498 14.2692 10.29 14.654 10.29V8.96C14.866 8.96 15.0071 9.09491 15.0633 9.21033C15.1168 9.32032 15.129 9.47729 15.0387 9.62133L13.912 8.91459Z"
        fill="currentColor" />
</svg>