<svg xmlns="http://www.w3.org/2000/svg" width="16" height="16" viewBox="0 0 16 16" fill="none">
  <path d="M3.37253 8.13715L3.65102 8.74102L3.37253 8.13715ZM5.63715 13.1275L5.03327 13.406L5.63715 13.1275ZM5.63715 5.12747L5.03327 5.40596L5.63715 5.12747ZM3.37253 10.8629L3.65102 10.259L3.37253 10.8629ZM8.36285 5.12747L7.75898 4.84898L8.36285 5.12747ZM7.835 4.5C7.835 4.62592 7.80756 4.74362 7.75898 4.84898L8.96673 5.40596C9.09422 5.12952 9.165 4.82211 9.165 4.5H7.835ZM7 3.665C7.46116 3.665 7.835 4.03884 7.835 4.5H9.165C9.165 3.3043 8.1957 2.335 7 2.335V3.665ZM6.165 4.5C6.165 4.03884 6.53884 3.665 7 3.665V2.335C5.8043 2.335 4.835 3.3043 4.835 4.5H6.165ZM6.24102 4.84898C6.19244 4.74362 6.165 4.62592 6.165 4.5H4.835C4.835 4.82211 4.90578 5.12952 5.03327 5.40596L6.24102 4.84898ZM3.88889 6.165H5.43453V4.835H3.88889V6.165ZM3.665 6.38889C3.665 6.26524 3.76524 6.165 3.88889 6.165V4.835C3.0307 4.835 2.335 5.5307 2.335 6.38889H3.665ZM3.665 7.93453V6.38889H2.335V7.93453H3.665ZM4 7.335C3.67789 7.335 3.37048 7.40578 3.09404 7.53327L3.65102 8.74102C3.75638 8.69244 3.87408 8.665 4 8.665V7.335ZM6.165 9.5C6.165 8.3043 5.1957 7.335 4 7.335V8.665C4.46116 8.665 4.835 9.03884 4.835 9.5H6.165ZM4 11.665C5.1957 11.665 6.165 10.6957 6.165 9.5H4.835C4.835 9.96116 4.46116 10.335 4 10.335V11.665ZM3.09404 11.4667C3.37048 11.5942 3.67789 11.665 4 11.665V10.335C3.87408 10.335 3.75638 10.3076 3.65102 10.259L3.09404 11.4667ZM3.665 12.6111V11.0655H2.335V12.6111H3.665ZM3.88889 12.835C3.76524 12.835 3.665 12.7348 3.665 12.6111H2.335C2.335 13.4693 3.0307 14.165 3.88889 14.165V12.835ZM5.43453 12.835H3.88889V14.165H5.43453V12.835ZM6.24102 12.849C6.19244 12.7436 6.165 12.6259 6.165 12.5H4.835C4.835 12.8221 4.90578 13.1295 5.03327 13.406L6.24102 12.849ZM6.165 12.5C6.165 12.0388 6.53884 11.665 7 11.665V10.335C5.8043 10.335 4.835 11.3043 4.835 12.5H6.165ZM7 11.665C7.46116 11.665 7.835 12.0388 7.835 12.5H9.165C9.165 11.3043 8.1957 10.335 7 10.335V11.665ZM7.835 12.5C7.835 12.6259 7.80756 12.7436 7.75898 12.849L8.96673 13.406C9.09422 13.1295 9.165 12.8221 9.165 12.5H7.835ZM10.1111 12.835H8.56547V14.165H10.1111V12.835ZM10.335 12.6111C10.335 12.7348 10.2348 12.835 10.1111 12.835V14.165C10.9693 14.165 11.665 13.4693 11.665 12.6111H10.335ZM10.335 11.0655V12.6111H11.665V11.0655H10.335ZM12 10.335C11.8741 10.335 11.7564 10.3076 11.651 10.259L11.094 11.4667C11.3705 11.5942 11.6779 11.665 12 11.665V10.335ZM12.835 9.5C12.835 9.96116 12.4612 10.335 12 10.335V11.665C13.1957 11.665 14.165 10.6957 14.165 9.5H12.835ZM12 8.665C12.4612 8.665 12.835 9.03884 12.835 9.5H14.165C14.165 8.3043 13.1957 7.335 12 7.335V8.665ZM11.651 8.74102C11.7564 8.69244 11.8741 8.665 12 8.665V7.335C11.6779 7.335 11.3705 7.40578 11.094 7.53327L11.651 8.74102ZM10.335 6.38889V7.93453H11.665V6.38889H10.335ZM10.1111 6.165C10.2348 6.165 10.335 6.26524 10.335 6.38889H11.665C11.665 5.5307 10.9693 4.835 10.1111 4.835V6.165ZM8.56547 6.165H10.1111V4.835H8.56547V6.165ZM11.665 11.0655C11.665 11.2855 11.5236 11.4158 11.4334 11.4626C11.3484 11.5066 11.2251 11.5272 11.094 11.4667L11.651 10.259C11.363 10.1261 11.0534 10.1615 10.8214 10.2817C10.5841 10.4047 10.335 10.6725 10.335 11.0655H11.665ZM7.75898 12.849C7.62614 13.137 7.66153 13.4466 7.78174 13.6786C7.90471 13.9159 8.17254 14.165 8.56547 14.165V12.835C8.7855 12.835 8.91582 12.9764 8.9626 13.0666C9.00663 13.1516 9.02716 13.2749 8.96673 13.406L7.75898 12.849ZM2.335 7.93453C2.335 8.32746 2.58413 8.59529 2.82142 8.71826C3.0534 8.83847 3.36298 8.87386 3.65102 8.74102L3.09404 7.53327C3.22507 7.47284 3.34839 7.49337 3.43336 7.5374C3.52363 7.58418 3.665 7.7145 3.665 7.93453H2.335ZM11.094 7.53327C11.2251 7.47284 11.3484 7.49337 11.4334 7.5374C11.5236 7.58418 11.665 7.7145 11.665 7.93453H10.335C10.335 8.32746 10.5841 8.59529 10.8214 8.71826C11.0534 8.83847 11.363 8.87386 11.651 8.74102L11.094 7.53327ZM5.43453 14.165C5.82746 14.165 6.09529 13.9159 6.21826 13.6786C6.33847 13.4466 6.37386 13.137 6.24102 12.849L5.03327 13.406C4.97284 13.2749 4.99337 13.1516 5.0374 13.0666C5.08418 12.9764 5.2145 12.835 5.43453 12.835V14.165ZM5.03327 5.40596C4.97284 5.27493 4.99337 5.15161 5.0374 5.06664C5.08418 4.97637 5.2145 4.835 5.43453 4.835V6.165C5.82746 6.165 6.09529 5.91587 6.21826 5.67858C6.33847 5.4466 6.37386 5.13702 6.24102 4.84898L5.03327 5.40596ZM3.65102 10.259C3.36298 10.1261 3.0534 10.1615 2.82142 10.2817C2.58413 10.4047 2.335 10.6725 2.335 11.0655H3.665C3.665 11.2855 3.52363 11.4158 3.43336 11.4626C3.34839 11.5066 3.22507 11.5272 3.09404 11.4667L3.65102 10.259ZM7.75898 4.84898C7.62614 5.13702 7.66153 5.4466 7.78174 5.67858C7.90471 5.91587 8.17254 6.165 8.56547 6.165V4.835C8.7855 4.835 8.91582 4.97637 8.9626 5.06664C9.00663 5.15161 9.02716 5.27493 8.96673 5.40596L7.75898 4.84898Z" fill="currentColor"/>
</svg>