<svg xmlns="http://www.w3.org/2000/svg" width="24" height="24" viewBox="0 0 24 24" fill="none">
  <path fill-rule="evenodd" clip-rule="evenodd" d="M12.2023 6.89291C12.0294 6.89291 11.9321 6.68269 12.0255 6.53714C12.3032 6.10386 12.4643 5.5886 12.4643 5.03571C12.4643 3.49721 11.2171 2.25 9.67858 2.25C8.14007 2.25 6.89286 3.49721 6.89286 5.03571C6.89286 5.5886 7.05393 6.10386 7.3317 6.53714C7.42501 6.68269 7.32771 6.89291 7.15482 6.89291H3.90079C2.98909 6.89291 2.25 7.632 2.25 8.54371V11.7976C2.25 11.9705 2.46022 12.0678 2.60577 11.9744C3.03905 11.6967 3.5543 11.5356 4.10717 11.5356C5.64568 11.5356 6.89289 12.7828 6.89289 14.3213C6.89289 15.8599 5.64568 17.1071 4.10717 17.1071C3.5543 17.1071 3.03905 16.946 2.60577 16.6682C2.46022 16.5749 2.25 16.6722 2.25 16.8451V20.0993C2.25 21.011 2.98909 21.7501 3.90079 21.7501H7.15485C7.32775 21.7501 7.42505 21.5398 7.33173 21.3943C7.05394 20.961 6.89286 20.4457 6.89286 19.8928C6.89286 18.3543 8.14007 17.1071 9.67858 17.1071C11.2171 17.1071 12.4643 18.3543 12.4643 19.8928C12.4643 20.4457 12.3032 20.961 12.0254 21.3943C11.9321 21.5398 12.0294 21.7501 12.2023 21.7501H15.4563C16.3681 21.7501 17.1071 21.011 17.1071 20.0993V16.8451C17.1071 16.6722 17.3174 16.5749 17.4629 16.6682C17.8962 16.946 18.4114 17.1071 18.9643 17.1071C20.5028 17.1071 21.75 15.8599 21.75 14.3213C21.75 12.7828 20.5028 11.5356 18.9643 11.5356C18.4114 11.5356 17.8962 11.6967 17.4629 11.9744C17.3174 12.0678 17.1071 11.9705 17.1071 11.7976V8.54371C17.1071 7.632 16.3681 6.89291 15.4563 6.89291H12.2023Z" fill="currentColor"/>
  <path d="M17.4629 16.6682L17.104 17.2281L17.4629 16.6682ZM12.0254 21.3943L12.5853 21.7532L12.0254 21.3943ZM2.60577 11.9744L2.96467 12.5343L2.60577 11.9744ZM17.4629 11.9744L17.8218 12.5343L17.4629 11.9744ZM7.33173 21.3943L7.89156 21.0354L7.33173 21.3943ZM2.60577 16.6682L2.24688 17.2281H2.24688L2.60577 16.6682ZM12.0255 6.53714L11.4656 6.17824L12.0255 6.53714ZM11.7993 5.03571C11.7993 5.45761 11.6768 5.84886 11.4656 6.17824L12.5853 6.89604C12.9297 6.35885 13.1293 5.71958 13.1293 5.03571H11.7993ZM9.67858 2.915C10.8498 2.915 11.7993 3.86448 11.7993 5.03571H13.1293C13.1293 3.12994 11.5844 1.585 9.67858 1.585V2.915ZM7.55786 5.03571C7.55786 3.86448 8.50734 2.915 9.67858 2.915V1.585C7.7728 1.585 6.22786 3.12994 6.22786 5.03571H7.55786ZM7.89153 6.17824C7.68038 5.84886 7.55786 5.45761 7.55786 5.03571H6.22786C6.22786 5.71958 6.42748 6.35885 6.77186 6.89604L7.89153 6.17824ZM3.90079 7.55791H7.15482V6.22791H3.90079V7.55791ZM2.915 8.54371C2.915 7.99927 3.35635 7.55791 3.90079 7.55791V6.22791C2.62182 6.22791 1.585 7.26473 1.585 8.54371H2.915ZM2.915 11.7976V8.54371H1.585V11.7976H2.915ZM4.10717 10.8706C3.42332 10.8706 2.78406 11.0702 2.24688 11.4146L2.96467 12.5343C3.29404 12.3231 3.68528 12.2006 4.10717 12.2006V10.8706ZM7.55789 14.3213C7.55789 12.4156 6.01295 10.8706 4.10717 10.8706V12.2006C5.27841 12.2006 6.22789 13.1501 6.22789 14.3213H7.55789ZM4.10717 17.7721C6.01295 17.7721 7.55789 16.2271 7.55789 14.3213H6.22789C6.22789 15.4926 5.27841 16.4421 4.10717 16.4421V17.7721ZM2.24688 17.2281C2.78406 17.5724 3.42332 17.7721 4.10717 17.7721V16.4421C3.68528 16.4421 3.29404 16.3195 2.96467 16.1084L2.24688 17.2281ZM2.915 20.0993V16.8451H1.585V20.0993H2.915ZM3.90079 21.0851C3.35636 21.0851 2.915 20.6437 2.915 20.0993H1.585C1.585 21.3782 2.62182 22.4151 3.90079 22.4151V21.0851ZM7.15485 21.0851H3.90079V22.4151H7.15485V21.0851ZM7.89156 21.0354C7.68039 20.706 7.55786 20.3147 7.55786 19.8928H6.22786C6.22786 20.5767 6.4275 21.216 6.7719 21.7532L7.89156 21.0354ZM7.55786 19.8928C7.55786 18.7216 8.50734 17.7721 9.67858 17.7721V16.4421C7.7728 16.4421 6.22786 17.987 6.22786 19.8928H7.55786ZM9.67858 17.7721C10.8498 17.7721 11.7993 18.7216 11.7993 19.8928H13.1293C13.1293 17.987 11.5844 16.4421 9.67858 16.4421V17.7721ZM11.7993 19.8928C11.7993 20.3147 11.6768 20.706 11.4656 21.0354L12.5853 21.7532C12.9297 21.216 13.1293 20.5767 13.1293 19.8928H11.7993ZM15.4563 21.0851H12.2023V22.4151H15.4563V21.0851ZM16.4421 20.0993C16.4421 20.6437 16.0008 21.0851 15.4563 21.0851V22.4151C16.7353 22.4151 17.7721 21.3782 17.7721 20.0993H16.4421ZM16.4421 16.8451V20.0993H17.7721V16.8451H16.4421ZM18.9643 16.4421C18.5424 16.4421 18.1512 16.3196 17.8218 16.1084L17.104 17.2281C17.6412 17.5724 18.2805 17.7721 18.9643 17.7721V16.4421ZM21.085 14.3213C21.085 15.4926 20.1355 16.4421 18.9643 16.4421V17.7721C20.8701 17.7721 22.415 16.2271 22.415 14.3213H21.085ZM18.9643 12.2006C20.1355 12.2006 21.085 13.1501 21.085 14.3213H22.415C22.415 12.4156 20.8701 10.8706 18.9643 10.8706V12.2006ZM17.8218 12.5343C18.1512 12.3231 18.5424 12.2006 18.9643 12.2006V10.8706C18.2805 10.8706 17.6412 11.0702 17.104 11.4146L17.8218 12.5343ZM16.4421 8.54371V11.7976H17.7721V8.54371H16.4421ZM15.4563 7.55791C16.0008 7.55791 16.4421 7.99927 16.4421 8.54371H17.7721C17.7721 7.26473 16.7353 6.22791 15.4563 6.22791V7.55791ZM12.2023 7.55791H15.4563V6.22791H12.2023V7.55791ZM17.7721 16.8451C17.7721 17.0564 17.6377 17.1985 17.5204 17.2553C17.4083 17.3096 17.2487 17.3209 17.104 17.2281L17.8218 16.1084C17.5315 15.9223 17.1941 15.9356 16.9405 16.0584C16.6817 16.1838 16.4421 16.4609 16.4421 16.8451H17.7721ZM11.4656 21.0354C11.2795 21.3256 11.2927 21.6631 11.4156 21.9167C11.541 22.1755 11.8181 22.4151 12.2023 22.4151V21.0851C12.4136 21.0851 12.5557 21.2195 12.6125 21.3368C12.6668 21.4489 12.678 21.6085 12.5853 21.7532L11.4656 21.0354ZM1.585 11.7976C1.585 12.1818 1.82451 12.4589 2.08338 12.5843C2.33694 12.7071 2.67439 12.7204 2.96467 12.5343L2.24688 11.4146C2.3916 11.3218 2.55116 11.3331 2.66323 11.3874C2.78059 11.4442 2.915 11.5863 2.915 11.7976H1.585ZM17.104 11.4146C17.2487 11.3218 17.4083 11.3331 17.5204 11.3874C17.6377 11.4442 17.7721 11.5863 17.7721 11.7976H16.4421C16.4421 12.1817 16.6817 12.4589 16.9405 12.5843C17.1941 12.7071 17.5315 12.7204 17.8218 12.5343L17.104 11.4146ZM7.15485 22.4151C7.53905 22.4151 7.8162 22.1755 7.9416 21.9167C8.06443 21.6631 8.07766 21.3256 7.89156 21.0354L6.7719 21.7532C6.67912 21.6085 6.69036 21.4489 6.74464 21.3368C6.8015 21.2195 6.94355 21.0851 7.15485 21.0851V22.4151ZM6.77186 6.89604C6.67909 6.75132 6.69032 6.59175 6.74461 6.47969C6.80147 6.36232 6.94352 6.22791 7.15482 6.22791V7.55791C7.53901 7.55791 7.81616 7.3184 7.94156 7.05953C8.06439 6.80597 8.07762 6.46851 7.89153 6.17824L6.77186 6.89604ZM2.96467 16.1084C2.67439 15.9223 2.33694 15.9355 2.08338 16.0584C1.82451 16.1838 1.585 16.4609 1.585 16.8451H2.915C2.915 17.0564 2.78059 17.1985 2.66322 17.2553C2.55116 17.3096 2.3916 17.3209 2.24688 17.2281L2.96467 16.1084ZM11.4656 6.17824C11.2795 6.46852 11.2928 6.80597 11.4156 7.05953C11.541 7.3184 11.8181 7.55791 12.2023 7.55791V6.22791C12.4136 6.22791 12.5557 6.36232 12.6125 6.47969C12.6668 6.59175 12.6781 6.75132 12.5853 6.89604L11.4656 6.17824Z" fill="currentColor"/>
</svg>