<svg xmlns="http://www.w3.org/2000/svg" width="32" height="32" viewBox="0 0 32 32" fill="none">
  <g clip-path="url(#clip0_858_14700)">
    <path d="M16 32C24.8366 32 32 24.8366 32 16C32 7.16344 24.8366 0 16 0C7.16344 0 0 7.16344 0 16C0 24.8366 7.16344 32 16 32Z" fill="#2CA01C"/>
    <path d="M3.85701 15.9951C3.85829 19.6124 6.77541 22.5539 10.3927 22.5859H11.3181V20.1679H10.3927C8.15013 20.7798 5.83717 19.4576 5.22661 17.215C5.22149 17.1971 5.21765 17.1791 5.21253 17.1612C4.58405 14.8892 5.89989 12.5353 8.16421 11.8812H8.62629C9.20613 11.7545 9.80645 11.7545 10.3863 11.8812H12.634V24.7183C12.6225 26.0764 13.7143 27.1875 15.0724 27.2003V9.33915H10.4068C6.76389 9.35835 3.82757 12.3267 3.84677 15.9695V15.9708L3.85701 15.9951ZM21.617 9.34171H20.6916V11.8876H21.617C23.8545 11.2771 26.1623 12.5955 26.7729 14.8316C26.778 14.8483 26.7818 14.8662 26.7869 14.8828C27.4116 17.1471 26.0996 19.4921 23.8442 20.1449H23.3821C22.8023 20.2716 22.202 20.2716 21.6221 20.1449H19.3745V7.30907C19.386 5.95099 18.2941 4.83995 16.9361 4.82715V22.7139H21.6017C25.2765 22.6563 28.209 19.6316 28.1527 15.9567C28.0964 12.3625 25.1972 9.46203 21.6017 9.40571L21.617 9.34171Z" fill="white"/>
  </g>
  <defs>
    <clipPath id="clip0_858_14700">
      <rect width="32" height="32" fill="white"/>
    </clipPath>
  </defs>
</svg>