<svg width="16" height="16" viewBox="0 0 16 16" fill="none" xmlns="http://www.w3.org/2000/svg">
    <path
        d="M1.21396 7.35265C0.928679 7.19673 0.928679 6.80327 1.21396 6.64735L7.7893 3.05351C7.91986 2.98216 8.08012 2.98216 8.21067 3.05351L14.786 6.64735C15.0713 6.80327 15.0713 7.19673 14.786 7.35265L8.21067 10.9465C8.08012 11.0178 7.91986 11.0178 7.7893 10.9465L1.21396 7.35265Z"
        stroke="currentColor" stroke-width="1.33" />
    <path
        d="M8.21067 13.9465L14.786 10.3527C14.9287 10.2747 15 10.1374 15 10V7.3702C15 7.2939 14.918 7.24571 14.8513 7.28284L8.04867 11.0729C8.01841 11.0897 7.98159 11.0897 7.95133 11.0729L1.14867 7.28284C1.08202 7.24571 1 7.2939 1 7.3702V10C1 10.1374 1.07132 10.2747 1.21396 10.3527L7.7893 13.9465C7.91986 14.0179 8.08012 14.0179 8.21067 13.9465Z"
        stroke="currentColor" stroke-width="1.33" />
    <path d="M4.5 5.02069L11.5 9.06179" stroke="currentColor" stroke-width="1.33333" stroke-linecap="round"
        stroke-linejoin="round" />
    <path d="M4.5 9.06152L11.5 5.02042" stroke="currentColor" stroke-width="1.33333" stroke-linecap="round"
        stroke-linejoin="round" />
    <line x1="7.995" y1="11" x2="7.995" y2="14" stroke="currentColor" stroke-width="1.33" />
</svg>