<svg width="20" height="20" viewBox="0 0 20 20" fill="none" xmlns="http://www.w3.org/2000/svg">
<g id="Social Icons" clip-path="url(#clip0_304_20536)">
<path id="Vector" d="M10 20C15.5228 20 20 15.5228 20 10C20 4.47715 15.5228 0 10 0C4.47715 0 0 4.47715 0 10C0 15.5228 4.47715 20 10 20Z" fill="#FF4500"/>
<path id="Vector_2" d="M16.6666 9.99991C16.6666 9.19289 16.0117 8.53792 15.2046 8.53792C14.807 8.53792 14.4561 8.68997 14.1988 8.94728C13.2046 8.23383 11.8245 7.76599 10.3041 7.70751L10.9707 4.5847L13.1345 5.04084C13.1579 5.59055 13.614 6.035 14.1754 6.035C14.7485 6.035 15.2163 5.56716 15.2163 4.99406C15.2163 4.42096 14.7485 3.95312 14.1754 3.95312C13.766 3.95312 13.4152 4.18704 13.2514 4.53792L10.8304 4.0233C10.7602 4.01161 10.69 4.0233 10.6315 4.05839C10.5731 4.09348 10.538 4.15196 10.5146 4.22213L9.77774 7.70751C8.22219 7.7543 6.83037 8.21043 5.82453 8.94728C5.56722 8.70166 5.20464 8.53792 4.81868 8.53792C4.01166 8.53792 3.35669 9.19289 3.35669 9.99991C3.35669 10.5964 3.70757 11.0993 4.22219 11.3332C4.19879 11.4736 4.1871 11.6256 4.1871 11.7777C4.1871 14.0233 6.79529 15.8362 10.0234 15.8362C13.2514 15.8362 15.8596 14.0233 15.8596 11.7777C15.8596 11.6256 15.8479 11.4853 15.8245 11.3449C16.3041 11.111 16.6666 10.5964 16.6666 9.99991ZM6.66663 11.0408C6.66663 10.4677 7.13447 9.99991 7.70757 9.99991C8.28067 9.99991 8.7485 10.4677 8.7485 11.0408C8.7485 11.6139 8.28067 12.0818 7.70757 12.0818C7.13447 12.0818 6.66663 11.6139 6.66663 11.0408ZM12.4795 13.7894C11.766 14.5028 10.4093 14.5496 10.0117 14.5496C9.614 14.5496 8.24558 14.4911 7.54382 13.7894C7.43856 13.6841 7.43856 13.5087 7.54382 13.4034C7.64909 13.2982 7.82453 13.2982 7.92979 13.4034C8.37423 13.8479 9.3333 14.0116 10.0234 14.0116C10.7134 14.0116 11.6608 13.8479 12.1169 13.4034C12.2222 13.2982 12.3976 13.2982 12.5029 13.4034C12.5848 13.5204 12.5848 13.6841 12.4795 13.7894ZM12.2924 12.0818C11.7193 12.0818 11.2514 11.6139 11.2514 11.0408C11.2514 10.4677 11.7193 9.99991 12.2924 9.99991C12.8655 9.99991 13.3333 10.4677 13.3333 11.0408C13.3333 11.6139 12.8655 12.0818 12.2924 12.0818Z" fill="white"/>
</g>
<defs>
<clipPath id="clip0_304_20536">
<rect width="20" height="20" fill="white"/>
</clipPath>
</defs>
</svg>
