<svg xmlns="http://www.w3.org/2000/svg" width="16" height="16" viewBox="0 0 16 16" fill="none">
    <path d="M8 15C11.866 15 15 11.866 15 8C15 4.13401 11.866 1 8 1C4.13401 1 1 4.13401 1 8C1 11.866 4.13401 15 8 15Z"
        fill="#FF4500" />
    <path
        d="M12.6667 8.00008C12.6667 7.43517 12.2082 6.97669 11.6433 6.97669C11.3649 6.97669 11.1193 7.08312 10.9392 7.26324C10.2433 6.76382 9.27722 6.43634 8.21289 6.3954L8.67956 4.20944L10.1942 4.52874C10.2106 4.91353 10.5298 5.22464 10.9228 5.22464C11.324 5.22464 11.6515 4.89716 11.6515 4.49599C11.6515 4.09482 11.324 3.76733 10.9228 3.76733C10.6363 3.76733 10.3907 3.93108 10.276 4.17669L8.58131 3.81646C8.53219 3.80827 8.48307 3.81646 8.44213 3.84102C8.40119 3.86558 8.37663 3.90652 8.36026 3.95564L7.84447 6.3954C6.75558 6.42815 5.78131 6.74745 5.07722 7.26324C4.8971 7.09131 4.6433 6.97669 4.37312 6.97669C3.80821 6.97669 3.34973 7.43517 3.34973 8.00008C3.34973 8.41763 3.59535 8.76967 3.95558 8.93342C3.93921 9.03166 3.93102 9.1381 3.93102 9.24453C3.93102 10.8165 5.75675 12.0855 8.0164 12.0855C10.276 12.0855 12.1018 10.8165 12.1018 9.24453C12.1018 9.1381 12.0936 9.03985 12.0772 8.9416C12.4129 8.77786 12.6667 8.41763 12.6667 8.00008ZM5.66669 8.72874C5.66669 8.32757 5.99418 8.00008 6.39535 8.00008C6.79652 8.00008 7.124 8.32757 7.124 8.72874C7.124 9.12991 6.79652 9.45739 6.39535 9.45739C5.99418 9.45739 5.66669 9.12991 5.66669 8.72874ZM9.7357 10.6527C9.23628 11.1521 8.28657 11.1849 8.00821 11.1849C7.72985 11.1849 6.77195 11.1439 6.28073 10.6527C6.20704 10.579 6.20704 10.4562 6.28073 10.3825C6.35441 10.3089 6.47722 10.3089 6.5509 10.3825C6.86201 10.6936 7.53336 10.8083 8.0164 10.8083C8.49944 10.8083 9.1626 10.6936 9.4819 10.3825C9.55558 10.3089 9.67839 10.3089 9.75207 10.3825C9.80938 10.4644 9.80938 10.579 9.7357 10.6527ZM9.6047 9.45739C9.20353 9.45739 8.87605 9.12991 8.87605 8.72874C8.87605 8.32757 9.20353 8.00008 9.6047 8.00008C10.0059 8.00008 10.3334 8.32757 10.3334 8.72874C10.3334 9.12991 10.0059 9.45739 9.6047 9.45739Z"
        fill="white" />
</svg>