<svg viewBox="0 0 24 24" fill="none" xmlns="http://www.w3.org/2000/svg">
<path d="M3 6H12.75M3 6V5H12.75V6M3 6V7M12.75 6V7M3 15H12.75M3 19.5H12.75M3 7H12.75M3 7V7.875M12.75 7V7.875M12.75 8.75H3M12.75 8.75V7.875M12.75 8.75V9.625M3 8.75V7.875M3 8.75V9.625M3 7.875H12.75M12.75 9.625V10.5H3V9.625M12.75 9.625H3" stroke="currentColor" stroke-width="1.5" stroke-linecap="round" stroke-linejoin="round"/>
<path d="M18.5 5V19.5M18.5 5L15.5 8M18.5 5L21.5 8M18.5 19.5L15.5 16.5M18.5 19.5L21.5 16.5" stroke="currentColor" stroke-width="1.5" stroke-linecap="round" stroke-linejoin="round"/>
</svg>
