<svg xmlns="http://www.w3.org/2000/svg" width="32" height="24" viewBox="0 0 32 24" fill="none">
  <g clip-path="url(#clip0_881_28380)">
    <path d="M13.3191 3.20641C14.3501 2.13216 15.7855 1.46593 17.373 1.46593C19.4832 1.46593 21.3243 2.64265 22.3048 4.3895C23.1568 4.0088 24.0999 3.79705 25.0922 3.79705C28.8983 3.79705 31.984 6.9096 31.984 10.7489C31.984 14.5888 28.8983 17.7013 25.0922 17.7013C24.6277 17.7013 24.1737 17.6549 23.7347 17.5661C22.8713 19.1062 21.226 20.1467 19.3375 20.1467C18.547 20.1467 17.7992 19.9641 17.1334 19.6394C16.2582 21.6982 14.219 23.1418 11.8423 23.1418C9.36731 23.1418 7.25797 21.5757 6.4483 19.3794C6.09447 19.4545 5.72788 19.4937 5.35173 19.4937C2.40494 19.4937 0.0159912 17.0802 0.0159912 14.1024C0.0159912 12.1069 1.08933 10.3646 2.68409 9.43243C2.35576 8.67695 2.17315 7.84314 2.17315 6.96652C2.17315 3.54203 4.95327 0.766006 8.38232 0.766006C10.3956 0.766006 12.1848 1.72322 13.3191 3.20641Z" fill="#00A1E0"/>
    <path d="M4.64626 12.3695C4.62623 12.4219 4.65355 12.4328 4.65992 12.4419C4.72004 12.4856 4.78106 12.517 4.84253 12.5521C5.16859 12.7251 5.47643 12.7757 5.79839 12.7757C6.45414 12.7757 6.86125 12.4269 6.86125 11.8654V11.8545C6.86125 11.3353 6.40177 11.1468 5.97052 11.0106L5.91451 10.9924C5.58936 10.8868 5.30885 10.7957 5.30885 10.5817V10.5703C5.30885 10.3872 5.47279 10.2524 5.72689 10.2524C6.00923 10.2524 6.34439 10.3462 6.56024 10.4655C6.56024 10.4655 6.62354 10.5065 6.64677 10.445C6.65952 10.4122 6.76881 10.1181 6.78019 10.0862C6.79249 10.0516 6.77063 10.0261 6.74832 10.0124C6.50196 9.8626 6.16133 9.76014 5.80886 9.76014L5.74328 9.76059C5.14309 9.76059 4.72413 10.1231 4.72413 10.6427V10.6536C4.72413 11.2014 5.18635 11.379 5.61942 11.5029L5.68909 11.5243C6.00468 11.6213 6.27654 11.7046 6.27654 11.9269V11.9378C6.27654 12.1409 6.09985 12.2921 5.81478 12.2921C5.70412 12.2921 5.3512 12.2898 4.97004 12.0489C4.92405 12.022 4.89718 12.0025 4.86166 11.981C4.84299 11.9692 4.79608 11.9487 4.77559 12.0106L4.64626 12.3695Z" fill="white"/>
    <path d="M14.2462 12.3695C14.2262 12.4219 14.2535 12.4328 14.2599 12.4419C14.32 12.4856 14.381 12.517 14.4425 12.5521C14.7686 12.7251 15.0764 12.7757 15.3984 12.7757C16.0541 12.7757 16.4612 12.4269 16.4612 11.8654V11.8545C16.4612 11.3353 16.0017 11.1468 15.5705 11.0106L15.5145 10.9924C15.1893 10.8868 14.9088 10.7957 14.9088 10.5817V10.5703C14.9088 10.3872 15.0728 10.2524 15.3269 10.2524C15.6092 10.2524 15.9444 10.3462 16.1602 10.4655C16.1602 10.4655 16.2235 10.5065 16.2467 10.445C16.2595 10.4122 16.3688 10.1181 16.3802 10.0862C16.3925 10.0516 16.3706 10.0261 16.3483 10.0124C16.1019 9.8626 15.7613 9.76014 15.4088 9.76014L15.3433 9.76059C14.7431 9.76059 14.3241 10.1231 14.3241 10.6427V10.6536C14.3241 11.2014 14.7863 11.379 15.2194 11.5029L15.2891 11.5243C15.6047 11.6213 15.877 11.7046 15.877 11.9269V11.9378C15.877 12.1409 15.6998 12.2921 15.4148 12.2921C15.3041 12.2921 14.9512 12.2898 14.57 12.0489C14.524 12.022 14.4967 12.0034 14.4621 11.981C14.4503 11.9733 14.3947 11.9519 14.3756 12.0106L14.2462 12.3695Z" fill="white"/>
    <path d="M20.7999 11.2697C20.7999 11.5871 20.7407 11.8371 20.6241 12.0138C20.5089 12.1886 20.3345 12.2738 20.0913 12.2738C19.8477 12.2738 19.6741 12.1891 19.5608 12.0138C19.446 11.8375 19.3877 11.5871 19.3877 11.2697C19.3877 10.9527 19.446 10.7032 19.5608 10.5283C19.6741 10.3552 19.8477 10.271 20.0913 10.271C20.3345 10.271 20.5089 10.3552 20.6245 10.5283C20.7407 10.7032 20.7999 10.9527 20.7999 11.2697ZM21.3472 10.6813C21.2935 10.4996 21.2097 10.3393 21.0981 10.2059C20.9866 10.072 20.8454 9.96452 20.6778 9.8862C20.5107 9.80832 20.3131 9.76871 20.0913 9.76871C19.8691 9.76871 19.6714 9.80832 19.5043 9.8862C19.3367 9.96452 19.1955 10.072 19.0835 10.2059C18.9724 10.3398 18.8886 10.5001 18.8344 10.6813C18.7811 10.8621 18.7543 11.0597 18.7543 11.2697C18.7543 11.4796 18.7811 11.6777 18.8344 11.858C18.8886 12.0393 18.9719 12.1995 19.084 12.3334C19.1955 12.4673 19.3372 12.5743 19.5043 12.6504C19.6719 12.7264 19.8691 12.7651 20.0913 12.7651C20.3131 12.7651 20.5102 12.7264 20.6778 12.6504C20.8449 12.5743 20.9866 12.4673 21.0981 12.3334C21.2097 12.2 21.2935 12.0397 21.3472 11.858C21.401 11.6772 21.4278 11.4791 21.4278 11.2697C21.4278 11.0602 21.401 10.8621 21.3472 10.6813Z" fill="white"/>
    <path d="M25.8422 12.189C25.824 12.1358 25.7726 12.1558 25.7726 12.1558C25.6929 12.1863 25.6082 12.2145 25.518 12.2287C25.4265 12.2428 25.3258 12.2501 25.2179 12.2501C24.9529 12.2501 24.7425 12.1713 24.5917 12.0155C24.4406 11.8598 24.3559 11.608 24.3568 11.2673C24.3577 10.9572 24.4324 10.7241 24.5667 10.5465C24.7001 10.3698 24.9032 10.2792 25.1742 10.2792C25.4 10.2792 25.5722 10.3051 25.7525 10.362C25.7525 10.362 25.7958 10.3807 25.8163 10.3242C25.8641 10.1913 25.8996 10.0961 25.9506 9.94991C25.9652 9.90847 25.9297 9.89071 25.9169 9.8857C25.8459 9.85792 25.6783 9.81284 25.5517 9.79371C25.4333 9.7755 25.2949 9.76594 25.1409 9.76594C24.911 9.76594 24.706 9.8051 24.5307 9.88342C24.3559 9.9613 24.2074 10.0688 24.0899 10.2027C23.9724 10.3365 23.8832 10.4968 23.8235 10.6781C23.7643 10.8589 23.7343 11.0574 23.7343 11.2673C23.7343 11.7214 23.8568 12.0884 24.0986 12.3571C24.3408 12.6267 24.7047 12.7637 25.1792 12.7637C25.4597 12.7637 25.7475 12.7068 25.9543 12.6253C25.9543 12.6253 25.9939 12.6062 25.9766 12.5602L25.8422 12.189Z" fill="white"/>
    <path d="M26.7999 10.9656C26.8259 10.7894 26.8746 10.6427 26.9497 10.5284C27.0631 10.3549 27.2362 10.2598 27.4793 10.2598C27.7225 10.2598 27.8833 10.3554 27.9985 10.5284C28.075 10.6427 28.1082 10.7957 28.1214 10.9656H26.7999ZM28.6428 10.5781C28.5964 10.4028 28.4812 10.2256 28.4056 10.1445C28.2863 10.0161 28.1697 9.92642 28.054 9.87633C27.9028 9.81166 27.7216 9.76886 27.5231 9.76886C27.2917 9.76886 27.0818 9.80756 26.9115 9.88771C26.7407 9.96786 26.5973 10.0772 26.4848 10.2133C26.3723 10.349 26.2876 10.5107 26.2339 10.6942C26.1797 10.8768 26.1523 11.0758 26.1523 11.2857C26.1523 11.4993 26.1806 11.6983 26.2366 11.8773C26.2931 12.0576 26.3832 12.2165 26.5053 12.3482C26.6269 12.4807 26.7835 12.5845 26.9711 12.6569C27.1574 12.7289 27.3837 12.7662 27.6437 12.7657C28.1788 12.7639 28.4607 12.6446 28.5768 12.5804C28.5973 12.569 28.6169 12.549 28.5923 12.4916L28.4712 12.1523C28.4529 12.1018 28.4015 12.1205 28.4015 12.1205C28.269 12.1696 28.0804 12.258 27.641 12.2571C27.3536 12.2566 27.1405 12.1719 27.0071 12.0394C26.87 11.9037 26.8031 11.7042 26.7912 11.4228L28.6442 11.4246C28.6442 11.4246 28.6929 11.4237 28.6979 11.3764C28.6998 11.3563 28.7617 10.9957 28.6428 10.5781Z" fill="white"/>
    <path d="M11.9604 10.9656C11.9868 10.7894 12.0351 10.6427 12.1102 10.5284C12.2236 10.3549 12.3967 10.2598 12.6399 10.2598C12.883 10.2598 13.0438 10.3554 13.1595 10.5284C13.2355 10.6427 13.2687 10.7957 13.2819 10.9656H11.9604ZM13.8029 10.5781C13.7565 10.4028 13.6417 10.2256 13.5661 10.1445C13.4468 10.0161 13.3302 9.92642 13.2146 9.87633C13.0634 9.81166 12.8821 9.76886 12.6836 9.76886C12.4527 9.76886 12.2423 9.80756 12.072 9.88771C11.9012 9.96786 11.7578 10.0772 11.6453 10.2133C11.5328 10.349 11.4481 10.5107 11.3944 10.6942C11.3406 10.8768 11.3129 11.0758 11.3129 11.2857C11.3129 11.4993 11.3411 11.6983 11.3971 11.8773C11.4536 12.0576 11.5437 12.2165 11.6658 12.3482C11.7874 12.4807 11.944 12.5845 12.1316 12.6569C12.3179 12.7289 12.5442 12.7662 12.8043 12.7657C13.3393 12.7639 13.6212 12.6446 13.7373 12.5804C13.7578 12.569 13.7774 12.549 13.7528 12.4916L13.6321 12.1523C13.6135 12.1018 13.562 12.1205 13.562 12.1205C13.4295 12.1696 13.2414 12.258 12.8011 12.2571C12.5142 12.2566 12.3011 12.1719 12.1676 12.0394C12.0306 11.9037 11.9636 11.7042 11.9518 11.4228L13.8047 11.4246C13.8047 11.4246 13.8535 11.4237 13.8585 11.3764C13.8603 11.3563 13.9222 10.9957 13.8029 10.5781Z" fill="white"/>
    <path d="M7.95515 12.1789C7.88275 12.1211 7.87273 12.1065 7.84814 12.0692C7.81171 12.0122 7.79304 11.9312 7.79304 11.8283C7.79304 11.6652 7.84677 11.5482 7.95834 11.4694C7.95697 11.4699 8.11772 11.3305 8.49569 11.3355C8.76118 11.3392 8.99844 11.3783 8.99844 11.3783V12.2208H8.99889C8.99889 12.2208 8.76346 12.2713 8.49843 12.2873C8.12137 12.3101 7.95379 12.1785 7.95515 12.1789ZM8.69242 10.877C8.61728 10.8715 8.51983 10.8683 8.40325 10.8683C8.24432 10.8683 8.09086 10.8883 7.94695 10.9271C7.80214 10.9658 7.6719 11.0263 7.55988 11.1065C7.4474 11.1871 7.35678 11.29 7.2912 11.412C7.22563 11.5341 7.19238 11.678 7.19238 11.8392C7.19238 12.0031 7.22062 12.1457 7.27708 12.2622C7.33355 12.3793 7.41507 12.4767 7.51889 12.5519C7.62181 12.627 7.74886 12.6821 7.89641 12.7153C8.04167 12.7486 8.20652 12.7654 8.38686 12.7654C8.57675 12.7654 8.76619 12.75 8.94971 12.7185C9.13141 12.6876 9.35455 12.6425 9.41648 12.6284C9.47796 12.6138 9.54627 12.5951 9.54627 12.5951C9.59226 12.5837 9.58862 12.5346 9.58862 12.5346L9.58771 10.8401C9.58771 10.4685 9.48843 10.193 9.29307 10.0222C9.09862 9.85189 8.81219 9.76582 8.44196 9.76582C8.30307 9.76582 8.07947 9.78495 7.94559 9.81182C7.94559 9.81182 7.54075 9.89014 7.37408 10.0204C7.37408 10.0204 7.33765 10.0432 7.35769 10.0942L7.48884 10.4466C7.50523 10.4922 7.5494 10.4767 7.5494 10.4767C7.5494 10.4767 7.56352 10.4712 7.57992 10.4617C7.93648 10.2677 8.38731 10.2736 8.38731 10.2736C8.58768 10.2736 8.7416 10.3137 8.84543 10.3933C8.94652 10.4708 8.99798 10.5878 8.99798 10.8346V10.9129C8.8386 10.8902 8.69242 10.877 8.69242 10.877Z" fill="white"/>
    <path d="M23.6374 9.92216C23.6515 9.88027 23.6219 9.86023 23.6096 9.85568C23.5782 9.84338 23.4206 9.81014 23.299 9.8024C23.0663 9.78828 22.937 9.82744 22.8213 9.87936C22.7066 9.93127 22.5791 10.0151 22.508 10.1102V9.88482C22.508 9.8534 22.4857 9.82835 22.4548 9.82835H21.9798C21.9488 9.82835 21.9265 9.8534 21.9265 9.88482V12.6486C21.9265 12.6795 21.952 12.705 21.983 12.705H22.4698C22.5008 12.705 22.5258 12.6795 22.5258 12.6486V11.2678C22.5258 11.0825 22.5463 10.8976 22.5873 10.7815C22.6274 10.6667 22.682 10.5747 22.7494 10.5087C22.8172 10.4431 22.8942 10.3971 22.9785 10.3712C23.0645 10.3448 23.1597 10.3361 23.2271 10.3361C23.3241 10.3361 23.4306 10.3612 23.4306 10.3612C23.4662 10.3653 23.4862 10.3434 23.498 10.3111C23.5299 10.2264 23.6201 9.97271 23.6374 9.92216Z" fill="white"/>
    <path d="M19.068 8.64127C19.0088 8.62305 18.955 8.61076 18.8849 8.59755C18.8139 8.5848 18.7292 8.57842 18.6331 8.57842C18.2979 8.57842 18.0338 8.67314 17.8484 8.85985C17.664 9.04565 17.5388 9.32844 17.4759 9.70049L17.4532 9.82572H17.0324C17.0324 9.82572 16.9814 9.8239 16.9705 9.87946L16.9017 10.2652C16.8967 10.3016 16.9126 10.3248 16.9618 10.3248H17.3712L16.9559 12.6436C16.9236 12.8303 16.8862 12.9838 16.8448 13.1004C16.8042 13.2151 16.7646 13.3012 16.7154 13.3641C16.6681 13.4242 16.6235 13.4688 16.546 13.4948C16.4823 13.5162 16.4085 13.5262 16.3279 13.5262C16.2833 13.5262 16.2236 13.5189 16.1795 13.5098C16.1357 13.5011 16.1125 13.4916 16.0793 13.4775C16.0793 13.4775 16.0315 13.4592 16.0123 13.5071C15.9973 13.5467 15.888 13.8468 15.8748 13.8837C15.8621 13.9205 15.8803 13.9492 15.9035 13.9579C15.9581 13.977 15.9987 13.9898 16.0729 14.0075C16.1758 14.0317 16.2628 14.033 16.3443 14.033C16.5146 14.033 16.6704 14.0089 16.7992 13.9624C16.9286 13.9155 17.0415 13.834 17.1417 13.7238C17.2496 13.6045 17.3175 13.4797 17.3821 13.309C17.4463 13.1405 17.5014 12.931 17.5452 12.6869L17.9627 10.3248H18.573C18.573 10.3248 18.6244 10.3266 18.6349 10.2706L18.7041 9.88538C18.7087 9.84849 18.6932 9.82572 18.6435 9.82572H18.0511C18.0543 9.81252 18.0811 9.60395 18.149 9.40768C18.1781 9.32434 18.2328 9.25649 18.2788 9.21004C18.3243 9.1645 18.3767 9.13217 18.4341 9.1135C18.4928 9.09437 18.5598 9.08527 18.6331 9.08527C18.6886 9.08527 18.7437 9.09164 18.7852 9.10029C18.8425 9.11259 18.8649 9.11896 18.8799 9.12352C18.9405 9.14173 18.9487 9.12397 18.9605 9.09483L19.1021 8.70593C19.1167 8.66404 19.0807 8.64628 19.068 8.64127Z" fill="white"/>
    <path d="M10.7902 12.6487C10.7902 12.6797 10.7679 12.7047 10.7369 12.7047H10.2456C10.2146 12.7047 10.1927 12.6797 10.1927 12.6487V8.69414C10.1927 8.66317 10.2146 8.63813 10.2456 8.63813H10.7369C10.7679 8.63813 10.7902 8.66317 10.7902 8.69414V12.6487Z" fill="white"/>
  </g>
  <defs>
    <clipPath id="clip0_881_28380">
      <rect width="32" height="22.5" fill="white" transform="translate(0 0.75)"/>
    </clipPath>
  </defs>
</svg>