<svg xmlns="http://www.w3.org/2000/svg" width="16" height="16" viewBox="0 0 16 16" fill="none">
    <g clip-path="url(#clip0_3711_1275)">
        <path
            d="M8 10C9.10457 10 10 9.10457 10 8C10 6.89543 9.10457 6 8 6C6.89543 6 6 6.89543 6 8C6 9.10457 6.89543 10 8 10Z"
            stroke="currentColor" stroke-width="1.33333" stroke-linecap="round" stroke-linejoin="round" />
        <path
            d="M12.9333 9.99996C12.8445 10.201 12.8181 10.4241 12.8573 10.6404C12.8965 10.8566 12.9996 11.0562 13.1533 11.2133L13.1933 11.2533C13.3173 11.3771 13.4156 11.5242 13.4827 11.686C13.5498 11.8479 13.5843 12.0214 13.5843 12.1966C13.5843 12.3718 13.5498 12.5453 13.4827 12.7072C13.4156 12.8691 13.3173 13.0161 13.1933 13.14C13.0695 13.2639 12.9224 13.3623 12.7605 13.4294C12.5987 13.4965 12.4252 13.531 12.25 13.531C12.0747 13.531 11.9012 13.4965 11.7394 13.4294C11.5775 13.3623 11.4305 13.2639 11.3066 13.14L11.2666 13.1C11.1095 12.9463 10.9099 12.8432 10.6937 12.804C10.4774 12.7647 10.2544 12.7912 10.0533 12.88C9.85611 12.9645 9.68795 13.1048 9.5695 13.2836C9.45105 13.4625 9.38748 13.6721 9.38663 13.8866V14C9.38663 14.3536 9.24615 14.6927 8.9961 14.9428C8.74605 15.1928 8.40691 15.3333 8.05329 15.3333C7.69967 15.3333 7.36053 15.1928 7.11048 14.9428C6.86044 14.6927 6.71996 14.3536 6.71996 14V13.94C6.7148 13.7193 6.64337 13.5053 6.51497 13.3258C6.38656 13.1462 6.20712 13.0095 5.99996 12.9333C5.79888 12.8445 5.57583 12.8181 5.35957 12.8573C5.1433 12.8965 4.94375 12.9996 4.78663 13.1533L4.74663 13.1933C4.6228 13.3173 4.47574 13.4156 4.31388 13.4827C4.15202 13.5498 3.97851 13.5843 3.80329 13.5843C3.62807 13.5843 3.45457 13.5498 3.29271 13.4827C3.13084 13.4156 2.98379 13.3173 2.85996 13.1933C2.73599 13.0695 2.63765 12.9224 2.57055 12.7605C2.50345 12.5987 2.46891 12.4252 2.46891 12.25C2.46891 12.0747 2.50345 11.9012 2.57055 11.7394C2.63765 11.5775 2.73599 11.4305 2.85996 11.3066L2.89996 11.2666C3.05365 11.1095 3.15675 10.9099 3.19596 10.6937C3.23517 10.4774 3.2087 10.2544 3.11996 10.0533C3.03545 9.85611 2.89513 9.68795 2.71627 9.5695C2.53741 9.45105 2.32782 9.38748 2.11329 9.38663H1.99996C1.64634 9.38663 1.3072 9.24615 1.05715 8.9961C0.807102 8.74605 0.666626 8.40691 0.666626 8.05329C0.666626 7.69967 0.807102 7.36053 1.05715 7.11048C1.3072 6.86044 1.64634 6.71996 1.99996 6.71996H2.05996C2.28062 6.7148 2.49463 6.64337 2.67416 6.51497C2.85369 6.38656 2.99044 6.20712 3.06663 5.99996C3.15537 5.79888 3.18184 5.57583 3.14263 5.35957C3.10342 5.1433 3.00032 4.94375 2.84663 4.78663L2.80663 4.74663C2.68266 4.6228 2.58431 4.47574 2.51721 4.31388C2.45011 4.15202 2.41558 3.97851 2.41558 3.80329C2.41558 3.62807 2.45011 3.45457 2.51721 3.29271C2.58431 3.13084 2.68266 2.98379 2.80663 2.85996C2.93046 2.73599 3.07751 2.63765 3.23937 2.57055C3.40124 2.50345 3.57474 2.46891 3.74996 2.46891C3.92518 2.46891 4.09868 2.50345 4.26055 2.57055C4.42241 2.63765 4.56946 2.73599 4.69329 2.85996L4.73329 2.89996C4.89041 3.05365 5.08997 3.15675 5.30623 3.19596C5.5225 3.23517 5.74555 3.2087 5.94663 3.11996H5.99996C6.19714 3.03545 6.3653 2.89513 6.48375 2.71627C6.60221 2.53741 6.66577 2.32782 6.66663 2.11329V1.99996C6.66663 1.64634 6.8071 1.3072 7.05715 1.05715C7.3072 0.807102 7.64634 0.666626 7.99996 0.666626C8.35358 0.666626 8.69272 0.807102 8.94277 1.05715C9.19282 1.3072 9.33329 1.64634 9.33329 1.99996V2.05996C9.33415 2.27448 9.39771 2.48408 9.51616 2.66294C9.63461 2.8418 9.80278 2.98212 9.99996 3.06663C10.201 3.15537 10.4241 3.18184 10.6404 3.14263C10.8566 3.10342 11.0562 3.00032 11.2133 2.84663L11.2533 2.80663C11.3771 2.68266 11.5242 2.58431 11.686 2.51721C11.8479 2.45011 12.0214 2.41558 12.1966 2.41558C12.3718 2.41558 12.5453 2.45011 12.7072 2.51721C12.8691 2.58431 13.0161 2.68266 13.14 2.80663C13.2639 2.93046 13.3623 3.07751 13.4294 3.23937C13.4965 3.40124 13.531 3.57474 13.531 3.74996C13.531 3.92518 13.4965 4.09868 13.4294 4.26055C13.3623 4.42241 13.2639 4.56946 13.14 4.69329L13.1 4.73329C12.9463 4.89041 12.8432 5.08997 12.804 5.30623C12.7647 5.5225 12.7912 5.74555 12.88 5.94663V5.99996C12.9645 6.19714 13.1048 6.3653 13.2836 6.48375C13.4625 6.60221 13.6721 6.66577 13.8866 6.66663H14C14.3536 6.66663 14.6927 6.8071 14.9428 7.05715C15.1928 7.3072 15.3333 7.64634 15.3333 7.99996C15.3333 8.35358 15.1928 8.69272 14.9428 8.94277C14.6927 9.19282 14.3536 9.33329 14 9.33329H13.94C13.7254 9.33415 13.5158 9.39771 13.337 9.51616C13.1581 9.63461 13.0178 9.80278 12.9333 9.99996V9.99996Z"
            stroke="currentColor" stroke-width="1.33333" stroke-linecap="round" stroke-linejoin="round" />
    </g>
    <defs>
        <clipPath id="clip0_3711_1275">
            <rect width="16" height="16" fill="white" />
        </clipPath>
    </defs>
</svg>