<svg xmlns="http://www.w3.org/2000/svg" width="16" height="16" viewBox="0 0 16 16" fill="none">
    <g clip-path="url(#clip0_1195_12945)">
        <path d="M8 10C9.10457 10 10 9.10457 10 8C10 6.89543 9.10457 6 8 6C6.89543 6 6 6.89543 6 8C6 9.10457 6.89543 10 8 10Z" stroke="currentColor" stroke-width="1.33333" stroke-linecap="round" stroke-linejoin="round"/>
        <path d="M12.7091 9.90909C12.6244 10.101 12.5991 10.3139 12.6365 10.5204C12.674 10.7268 12.7724 10.9173 12.9191 11.0673L12.9573 11.1055C13.0756 11.2237 13.1695 11.364 13.2335 11.5185C13.2976 11.673 13.3305 11.8387 13.3305 12.0059C13.3305 12.1732 13.2976 12.3388 13.2335 12.4933C13.1695 12.6478 13.0756 12.7882 12.9573 12.9064C12.8391 13.0247 12.6987 13.1186 12.5442 13.1826C12.3897 13.2467 12.2241 13.2796 12.0568 13.2796C11.8896 13.2796 11.7239 13.2467 11.5694 13.1826C11.4149 13.1186 11.2746 13.0247 11.1564 12.9064L11.1182 12.8682C10.9682 12.7215 10.7777 12.6231 10.5713 12.5856C10.3649 12.5482 10.1519 12.5735 9.96 12.6582C9.77178 12.7388 9.61126 12.8728 9.4982 13.0435C9.38513 13.2143 9.32445 13.4143 9.32364 13.6191V13.7273C9.32364 14.0648 9.18955 14.3885 8.95086 14.6272C8.71218 14.8659 8.38846 15 8.05091 15C7.71336 15 7.38964 14.8659 7.15096 14.6272C6.91227 14.3885 6.77818 14.0648 6.77818 13.7273V13.67C6.77325 13.4594 6.70508 13.2551 6.58251 13.0837C6.45994 12.9123 6.28865 12.7818 6.09091 12.7091C5.89897 12.6244 5.68606 12.5991 5.47963 12.6365C5.27319 12.674 5.0827 12.7724 4.93273 12.9191L4.89455 12.9573C4.77634 13.0756 4.63598 13.1695 4.48147 13.2335C4.32696 13.2976 4.16135 13.3305 3.99409 13.3305C3.82683 13.3305 3.66122 13.2976 3.50671 13.2335C3.35221 13.1695 3.21184 13.0756 3.09364 12.9573C2.9753 12.8391 2.88143 12.6987 2.81738 12.5442C2.75333 12.3897 2.72036 12.2241 2.72036 12.0568C2.72036 11.8896 2.75333 11.7239 2.81738 11.5694C2.88143 11.4149 2.9753 11.2746 3.09364 11.1564L3.13182 11.1182C3.27852 10.9682 3.37694 10.7777 3.41437 10.5713C3.4518 10.3649 3.42653 10.1519 3.34182 9.96C3.26115 9.77178 3.12721 9.61126 2.95648 9.4982C2.78575 9.38513 2.58568 9.32445 2.38091 9.32364H2.27273C1.93518 9.32364 1.61146 9.18955 1.37277 8.95086C1.13409 8.71218 1 8.38846 1 8.05091C1 7.71336 1.13409 7.38964 1.37277 7.15096C1.61146 6.91227 1.93518 6.77818 2.27273 6.77818H2.33C2.54063 6.77325 2.74491 6.70508 2.91628 6.58251C3.08765 6.45994 3.21818 6.28865 3.29091 6.09091C3.37562 5.89897 3.40089 5.68606 3.36346 5.47963C3.32603 5.27319 3.22761 5.0827 3.08091 4.93273L3.04273 4.89455C2.92439 4.77634 2.83052 4.63598 2.76647 4.48147C2.70242 4.32696 2.66945 4.16135 2.66945 3.99409C2.66945 3.82683 2.70242 3.66122 2.76647 3.50671C2.83052 3.35221 2.92439 3.21184 3.04273 3.09364C3.16093 2.9753 3.3013 2.88143 3.4558 2.81738C3.61031 2.75333 3.77593 2.72036 3.94318 2.72036C4.11044 2.72036 4.27605 2.75333 4.43056 2.81738C4.58507 2.88143 4.72543 2.9753 4.84364 3.09364L4.88182 3.13182C5.0318 3.27852 5.22228 3.37694 5.42872 3.41437C5.63515 3.4518 5.84806 3.42653 6.04 3.34182H6.09091C6.27913 3.26115 6.43965 3.12721 6.55271 2.95648C6.66578 2.78575 6.72646 2.58568 6.72727 2.38091V2.27273C6.72727 1.93518 6.86136 1.61146 7.10005 1.37277C7.33873 1.13409 7.66245 1 8 1C8.33755 1 8.66127 1.13409 8.89995 1.37277C9.13864 1.61146 9.27273 1.93518 9.27273 2.27273V2.33C9.27354 2.53477 9.33422 2.73484 9.44729 2.90557C9.56035 3.0763 9.72087 3.21024 9.90909 3.29091C10.101 3.37562 10.3139 3.40089 10.5204 3.36346C10.7268 3.32603 10.9173 3.22761 11.0673 3.08091L11.1055 3.04273C11.2237 2.92439 11.364 2.83052 11.5185 2.76647C11.673 2.70242 11.8387 2.66945 12.0059 2.66945C12.1732 2.66945 12.3388 2.70242 12.4933 2.76647C12.6478 2.83052 12.7882 2.92439 12.9064 3.04273C13.0247 3.16093 13.1186 3.3013 13.1826 3.4558C13.2467 3.61031 13.2796 3.77593 13.2796 3.94318C13.2796 4.11044 13.2467 4.27605 13.1826 4.43056C13.1186 4.58507 13.0247 4.72543 12.9064 4.84364L12.8682 4.88182C12.7215 5.0318 12.6231 5.22228 12.5856 5.42872C12.5482 5.63515 12.5735 5.84806 12.6582 6.04V6.09091C12.7388 6.27913 12.8728 6.43965 13.0435 6.55271C13.2143 6.66578 13.4143 6.72646 13.6191 6.72727H13.7273C14.0648 6.72727 14.3885 6.86136 14.6272 7.10005C14.8659 7.33873 15 7.66245 15 8C15 8.33755 14.8659 8.66127 14.6272 8.89995C14.3885 9.13864 14.0648 9.27273 13.7273 9.27273H13.67C13.4652 9.27354 13.2652 9.33422 13.0944 9.44729C12.9237 9.56035 12.7898 9.72087 12.7091 9.90909V9.90909Z" stroke="currentColor" stroke-width="1.33333" stroke-linecap="round" stroke-linejoin="round"/>
    </g>
    <defs>
        <clipPath id="clip0_1195_12945">
            <rect width="16" height="16" fill="white"/>
        </clipPath>
    </defs>
</svg>