<svg xmlns="http://www.w3.org/2000/svg" width="16" height="16" viewBox="0 0 16 16" fill="none">
  <g clip-path="url(#clip0_1608_52215)">
    <path d="M3.36508 10.0824C3.36508 11.0094 2.61587 11.7586 1.68889 11.7586C0.761902 11.7586 0.0126953 11.0094 0.0126953 10.0824C0.0126953 9.15546 0.761902 8.40625 1.68889 8.40625H3.36508V10.0824ZM4.20317 10.0824C4.20317 9.15546 4.95238 8.40625 5.87936 8.40625C6.80635 8.40625 7.55555 9.15546 7.55555 10.0824V14.2729C7.55555 15.1999 6.80635 15.9491 5.87936 15.9491C4.95238 15.9491 4.20317 15.1999 4.20317 14.2729V10.0824Z" fill="#E01E5A"/>
    <path d="M5.87936 3.35238C4.95238 3.35238 4.20317 2.60317 4.20317 1.67619C4.20317 0.749206 4.95238 0 5.87936 0C6.80635 0 7.55556 0.749206 7.55556 1.67619V3.35238H5.87936ZM5.87936 4.20317C6.80635 4.20317 7.55556 4.95238 7.55556 5.87936C7.55556 6.80635 6.80635 7.55556 5.87936 7.55556H1.67619C0.749206 7.55556 0 6.80635 0 5.87936C0 4.95238 0.749206 4.20317 1.67619 4.20317H5.87936Z" fill="#36C5F0"/>
    <path d="M12.5967 5.87936C12.5967 4.95238 13.3459 4.20317 14.2729 4.20317C15.1999 4.20317 15.9491 4.95238 15.9491 5.87936C15.9491 6.80635 15.1999 7.55556 14.2729 7.55556H12.5967V5.87936ZM11.7586 5.87936C11.7586 6.80635 11.0094 7.55556 10.0824 7.55556C9.15546 7.55556 8.40625 6.80635 8.40625 5.87936V1.67619C8.40625 0.749206 9.15546 0 10.0824 0C11.0094 0 11.7586 0.749206 11.7586 1.67619V5.87936Z" fill="#2EB67D"/>
    <path d="M10.0824 12.5967C11.0094 12.5967 11.7586 13.3459 11.7586 14.2729C11.7586 15.1999 11.0094 15.9491 10.0824 15.9491C9.15546 15.9491 8.40625 15.1999 8.40625 14.2729V12.5967H10.0824ZM10.0824 11.7586C9.15546 11.7586 8.40625 11.0094 8.40625 10.0824C8.40625 9.15546 9.15546 8.40625 10.0824 8.40625H14.2856C15.2126 8.40625 15.9618 9.15546 15.9618 10.0824C15.9618 11.0094 15.2126 11.7586 14.2856 11.7586H10.0824Z" fill="#ECB22E"/>
  </g>
  <defs>
    <clipPath id="clip0_1608_52215">
      <rect width="16" height="16" fill="white"/>
    </clipPath>
  </defs>
</svg>