<svg xmlns="http://www.w3.org/2000/svg" width="32" height="32" viewBox="0 0 32 32" fill="none">
  <g clip-path="url(#clip0_881_28398)">
    <path d="M12.5265 20.2112C13.5452 20.2836 14.3524 21.118 14.3735 22.1415L14.3739 22.1825V29.9444C14.3739 31.0383 13.4782 31.9246 12.3783 31.9246C11.2864 31.9246 10.4017 31.0595 10.3805 29.9838L10.3801 29.9444V25.6025L6.57913 27.7754C5.62605 28.325 4.40713 27.9997 3.85373 27.0549C3.31002 26.12 3.62049 24.925 4.54641 24.3681L4.58327 24.3465L11.3676 20.4697C11.732 20.2594 12.137 20.1783 12.5265 20.2112ZM20.583 20.443L20.6308 20.4697L27.4138 24.3465C28.3696 24.8935 28.6939 26.1077 28.1445 27.0549C27.601 27.9874 26.4051 28.3164 25.4566 27.7964L25.4193 27.7754L21.6208 25.6025V29.9444C21.6208 31.0383 20.7279 31.9246 19.6227 31.9246C18.5308 31.9246 17.6483 31.0595 17.6272 29.9838L17.6268 29.9444V22.1825C17.6268 21.1404 18.4396 20.2846 19.4743 20.2112C19.8457 20.1797 20.2314 20.2525 20.583 20.443ZM2.95893 10.3762L2.99635 10.397L9.77563 14.2763C10.2523 14.5487 10.5704 14.9808 10.7047 15.4644C10.7493 15.6201 10.7696 15.7757 10.7775 15.9315C10.7826 16.1466 10.7544 16.3644 10.6866 16.5759C10.5483 17.0201 10.2536 17.4173 9.82089 17.6789L9.77563 17.7055L2.99635 21.5874C2.03934 22.1333 0.819264 21.8103 0.270023 20.8657C-0.276284 19.9284 0.0343468 18.7392 0.963074 18.1814L0.99957 18.16L4.78785 15.9947L0.99957 13.8234C0.0425596 13.2761 -0.284535 12.0684 0.270023 11.1227C0.812131 10.188 2.00776 9.85963 2.95893 10.3762ZM31.7309 11.1227C32.2841 12.0684 31.957 13.2761 31.0002 13.8234L27.2117 15.9947L31.0002 18.16C31.957 18.7082 32.2841 19.9162 31.7309 20.8657C31.1789 21.8103 29.9577 22.1333 29.0044 21.5874L22.22 17.7055C21.7676 17.4446 21.4535 17.0354 21.3141 16.5759C21.2477 16.3644 21.217 16.1466 21.2246 15.9315C21.2286 15.7757 21.2514 15.6201 21.2949 15.4644C21.4306 14.9808 21.7487 14.5489 22.22 14.2763L29.0044 10.397C29.9577 9.85109 31.1789 10.1757 31.7309 11.1227ZM16.4132 12.2925C16.5281 12.2925 16.6865 12.3571 16.7671 12.4393L19.5868 15.23C19.6673 15.3097 19.7325 15.468 19.7325 15.5821V16.405C19.7325 16.5166 19.6673 16.6746 19.5868 16.7532L16.7671 19.5442C16.6865 19.6262 16.5306 19.6933 16.4132 19.6933H15.584C15.4701 19.6933 15.3117 19.6262 15.2299 19.5442L12.4116 16.7532C12.3309 16.6746 12.2657 16.5166 12.2657 16.405V15.5821C12.2657 15.468 12.3309 15.3097 12.4116 15.23L15.2299 12.4393C15.3117 12.3571 15.4701 12.2925 15.584 12.2925H16.4132ZM16.0142 14.6743H15.9826C15.8688 14.6743 15.7105 14.7402 15.6312 14.8197L14.8147 15.6252C14.7329 15.7086 14.6703 15.8657 14.6703 15.9784V16.0101C14.6703 16.1214 14.7329 16.2772 14.8147 16.3583L15.6312 17.166C15.7116 17.2457 15.8688 17.3115 15.9826 17.3115H16.0142C16.1282 17.3115 16.2868 17.2457 16.3672 17.166L17.1837 16.3583C17.2641 16.2772 17.333 16.1214 17.333 16.0101V15.9784C17.333 15.8657 17.2641 15.7086 17.1837 15.6252L16.3672 14.8197C16.2868 14.7402 16.1282 14.6743 16.0142 14.6743ZM19.6227 0.0625C20.7145 0.0625 21.5993 0.927826 21.6204 2.00063L21.6208 2.03997V6.3832L25.4193 4.2078C26.3738 3.66097 27.5938 3.98536 28.1445 4.93079C28.6868 5.86825 28.3779 7.05833 27.4507 7.61532L27.4138 7.63698L20.6308 11.5175C20.2665 11.7252 19.8626 11.8075 19.4743 11.7756C18.4532 11.701 17.6482 10.8652 17.6272 9.84283L17.6268 9.80184V2.03997C17.6268 0.94906 18.5175 0.0625 19.6227 0.0625ZM12.3783 0.0625C13.4649 0.0625 14.3523 0.927826 14.3735 2.00063L14.3739 2.03997V9.80184C14.3739 10.8428 13.5588 11.7 12.5265 11.7756C12.1539 11.8061 11.7671 11.7322 11.4154 11.5438L11.3676 11.5175L4.58327 7.63698C3.62881 7.08969 3.30287 5.88058 3.85373 4.93079C4.39994 3.99764 5.5945 3.6695 6.54186 4.18694L6.57913 4.2078L10.3801 6.3832V2.03997C10.3801 0.94906 11.2731 0.0625 12.3783 0.0625Z" fill="#29B5E8"/>
  </g>
  <defs>
    <clipPath id="clip0_881_28398">
      <rect width="32" height="31.875" fill="white" transform="translate(0 0.0625)"/>
    </clipPath>
  </defs>
</svg>