<svg xmlns="http://www.w3.org/2000/svg" width="32" height="32" viewBox="0 0 32 32" fill="none">
  <g clip-path="url(#clip0_858_34345)">
    <path d="M24.2169 1.41601H4.13815C2.79078 1.41601 1.69727 2.51929 1.69727 3.8569V26.0006C1.69727 27.348 2.80055 28.4415 4.13815 28.4415H17.3677C17.2213 21.8609 19.4669 9.09015 24.2218 1.39648L24.2169 1.41601Z" fill="#0F80CC"/>
    <path d="M23.4838 2.13379H4.13733C3.1805 2.13379 2.4043 2.91487 2.4043 3.86682V24.3947C6.78813 22.7105 13.3639 21.2606 17.9137 21.3289C19.3163 14.8069 21.1744 8.39246 23.4838 2.13379Z" fill="url(#paint0_linear_858_34345)"/>
    <path d="M28.9026 0.693268C27.5259 -0.527175 25.8613 -0.0389977 24.2161 1.41577L23.4838 2.12851C20.6719 5.10639 18.1139 10.6326 17.2547 14.8553C17.5608 15.5241 17.8027 16.2204 17.9772 16.9349L18.0846 17.4231L18.192 17.921C18.192 17.921 18.1676 17.8234 18.0651 17.5305L17.9967 17.3352C17.983 17.299 17.9683 17.2632 17.9528 17.2278C17.7673 16.8031 17.2693 15.9 17.0399 15.5094C16.8623 16.0285 16.6946 16.551 16.5371 17.0765C17.1815 18.2579 17.572 20.2789 17.572 20.2789C17.572 20.2789 17.5378 20.1471 17.3767 19.6931C17.2303 19.2879 16.5175 18.0333 16.3516 17.7404C16.0587 18.8144 15.9464 19.5369 16.0489 19.7126C16.2442 20.0544 16.4394 20.689 16.6103 21.2943C16.8739 22.3678 17.089 23.4527 17.2547 24.5456L17.2791 24.8483C17.2285 26.0691 17.2529 27.2918 17.3523 28.5096C17.4793 30.0376 17.7185 31.3508 18.0211 32.0538L18.2262 31.9415C17.7868 30.5551 17.6013 28.7439 17.6794 26.6496C17.8014 23.4521 18.5337 19.5955 19.8957 15.5778C22.2048 9.46093 25.3877 4.58892 28.307 2.2652C25.6465 4.66703 22.0486 12.4388 20.9746 15.3142C19.7688 18.5361 18.9145 21.5628 18.397 24.4577C19.2855 21.7435 22.156 20.5718 22.156 20.5718C22.156 20.5718 23.5717 18.8339 25.212 16.3491L22.0632 17.1888L21.0478 17.6379C21.0478 17.6379 23.6352 16.0611 25.8661 15.3435C28.927 10.5252 32.2613 3.67603 28.9026 0.688386" fill="#003B57"/>
  </g>
  <defs>
    <linearGradient id="paint0_linear_858_34345" x1="14.5648" y1="2.58779" x2="14.5648" y2="23.1596" gradientUnits="userSpaceOnUse">
      <stop stop-color="#97D9F6"/>
      <stop offset="0.92024" stop-color="#0F80CC"/>
      <stop offset="1" stop-color="#0F80CC"/>
    </linearGradient>
    <clipPath id="clip0_858_34345">
      <rect width="32" height="32" fill="white"/>
    </clipPath>
  </defs>
</svg>