<svg xmlns="http://www.w3.org/2000/svg" width="32" height="32" viewBox="0 0 32 32" fill="none">
  <g clip-path="url(#clip0_881_28406)">
    <path d="M28.8 0H3.2C1.43269 0 0 1.43269 0 3.2V28.8C0 30.5673 1.43269 32 3.2 32H28.8C30.5673 32 32 30.5673 32 28.8V3.2C32 1.43269 30.5673 0 28.8 0Z" fill="#6772E5"/>
    <path fill-rule="evenodd" clip-rule="evenodd" d="M14.5707 11.968C14.5707 11.136 15.2533 10.816 16.384 10.816C18.0053 10.816 20.0533 11.3066 21.6747 12.1813V7.16798C19.904 6.46398 18.1547 6.18665 16.384 6.18665C12.0533 6.18665 9.17334 8.44798 9.17334 12.224C9.17334 18.112 17.28 17.1733 17.28 19.712C17.28 20.6933 16.4267 21.0133 15.232 21.0133C13.4613 21.0133 11.2 20.288 9.40801 19.3066V24.384C11.392 25.2373 13.3973 25.6 15.232 25.6C19.6693 25.6 22.72 23.4026 22.72 19.584C22.6987 13.2266 14.5707 14.3573 14.5707 11.968Z" fill="white"/>
  </g>
  <defs>
    <clipPath id="clip0_881_28406">
      <rect width="32" height="32" fill="white"/>
    </clipPath>
  </defs>
</svg>