<svg width="16" height="16" viewBox="0 0 16 16" fill="none" xmlns="http://www.w3.org/2000/svg">
<mask id="mask0_1882_74955" style="mask-type:alpha" maskUnits="userSpaceOnUse" x="0" y="0" width="16" height="16">
<rect width="16" height="16" fill="#D9D9D9"/>
</mask>
<g mask="url(#mask0_1882_74955)">
<path d="M7.33333 7.99996C6.6 7.99996 5.97222 7.73885 5.45 7.21663C4.92778 6.6944 4.66667 6.06663 4.66667 5.33329C4.66667 4.59996 4.92778 3.97218 5.45 3.44996C5.97222 2.92774 6.6 2.66663 7.33333 2.66663C8.06667 2.66663 8.69444 2.92774 9.21667 3.44996C9.73889 3.97218 10 4.59996 10 5.33329C10 6.06663 9.73889 6.6944 9.21667 7.21663C8.69444 7.73885 8.06667 7.99996 7.33333 7.99996ZM2 12V11.4666C2 11.1 2.09444 10.7555 2.28333 10.4333C2.47222 10.1111 2.73333 9.86663 3.06667 9.69996C3.63333 9.41107 4.27222 9.16663 4.98333 8.96663C5.69444 8.76663 6.47778 8.66663 7.33333 8.66663H7.56667C7.63333 8.66663 7.7 8.67774 7.76667 8.69996C7.67778 8.89996 7.60278 9.10829 7.54167 9.32496C7.48056 9.54163 7.43333 9.76663 7.4 9.99996H7.33333C6.54444 9.99996 5.83611 10.1 5.20833 10.3C4.58056 10.5 4.06667 10.7 3.66667 10.9C3.56667 10.9555 3.48611 11.0333 3.425 11.1333C3.36389 11.2333 3.33333 11.3444 3.33333 11.4666V12H7.53333C7.6 12.2333 7.68889 12.4638 7.8 12.6916C7.91111 12.9194 8.03333 13.1333 8.16667 13.3333H3.33333C2.96667 13.3333 2.65278 13.2027 2.39167 12.9416C2.13056 12.6805 2 12.3666 2 12ZM7.33333 6.66663C7.7 6.66663 8.01389 6.53607 8.275 6.27496C8.53611 6.01385 8.66667 5.69996 8.66667 5.33329C8.66667 4.96663 8.53611 4.65274 8.275 4.39163C8.01389 4.13051 7.7 3.99996 7.33333 3.99996C6.96667 3.99996 6.65278 4.13051 6.39167 4.39163C6.13056 4.65274 6 4.96663 6 5.33329C6 5.69996 6.13056 6.01385 6.39167 6.27496C6.65278 6.53607 6.96667 6.66663 7.33333 6.66663Z" fill="currentColor" stroke="none"/>
<path d="M10.4828 13.8679L10.4824 13.8674L8.05657 11.0906L10.4828 13.8679ZM10.4828 13.8679C10.55 13.944 10.6295 14.0024 10.7207 14.0418C10.8102 14.0804 10.9036 14.1 11 14.1C11.0964 14.1 11.1898 14.0804 11.2793 14.0418C11.3705 14.0024 11.45 13.944 11.5172 13.8679L11.5176 13.8674M10.4828 13.8679L11.5176 13.8674M7.97336 10.3756L8.55759 9.25797L8.55927 9.25474L8.55933 9.25477C8.62026 9.14788 8.70377 9.06179 8.80875 8.99766C8.91566 8.93233 9.03434 8.9 9.16243 8.9H12.8376C12.9657 8.9 13.0843 8.93233 13.1913 8.99766C13.2962 9.06179 13.3797 9.14788 13.4407 9.25477L13.4425 9.25794L13.4424 9.25797L14.0266 10.3756C14.0538 10.4227 14.0731 10.4726 14.0843 10.5251C14.0947 10.5743 14.1 10.6235 14.1 10.6727L7.97336 10.3756ZM7.97336 10.3756C7.94624 10.4227 7.92688 10.4726 7.91574 10.5251L7.97336 10.3756ZM11.5176 13.8674L13.9434 11.0906M11.5176 13.8674L13.9434 11.0906M9.97116 9.55908L9.51524 10.4303H8.71344L9.16893 9.5599C9.16905 9.55983 9.16918 9.55974 9.16934 9.55965L9.97116 9.55908ZM9.97116 9.55908H9.17043C9.1702 9.55908 9.17026 9.55909 9.17043 9.55905C9.17046 9.55905 9.1705 9.55904 9.17053 9.55903C9.17064 9.559 9.17061 9.559 9.17043 9.55907C9.17024 9.55915 9.16989 9.55932 9.16934 9.55965L9.97116 9.55908ZM13.9434 11.0906C13.995 11.0317 14.0344 10.9664 14.0608 10.8949L13.9434 11.0906ZM7.9 10.6727C7.9 10.7497 7.91295 10.8239 7.93916 10.8949L7.91574 10.5252C7.9053 10.5743 7.9 10.6235 7.9 10.6727ZM7.93916 10.8949C7.96557 10.9663 8.005 11.0316 8.05652 11.0905L7.93916 10.8949ZM11.725 10.4303H10.275L10.731 9.55908H11.269L11.725 10.4303ZM8.95191 11.0894H10.6598V13.0534L8.95191 11.0894ZM11.3402 11.0894H13.0481L11.3402 13.0534V11.0894ZM12.0288 9.55908H12.8296C12.8298 9.55908 12.8297 9.55909 12.8296 9.55905C12.8295 9.55905 12.8295 9.55904 12.8295 9.55903C12.8294 9.559 12.8294 9.559 12.8296 9.55907C12.8298 9.55915 12.8301 9.55933 12.8307 9.55965C12.8308 9.55974 12.831 9.55983 12.8311 9.5599L13.2866 10.4303H12.4848L12.0288 9.55908ZM12.8303 9.55841L12.8303 9.55842L12.8303 9.55841Z" fill="currentColor" stroke="none"/>
</g>
</svg>




