<svg xmlns="http://www.w3.org/2000/svg" width="16" height="16" viewBox="0 0 16 16" fill="none">
  <path d="M8.00004 7.33333C9.4728 7.33333 10.6667 6.13943 10.6667 4.66667C10.6667 3.19391 9.4728 2 8.00004 2C6.52728 2 5.33337 3.19391 5.33337 4.66667C5.33337 6.13943 6.52728 7.33333 8.00004 7.33333Z" stroke="currentColor" stroke-width="1.33333" stroke-linecap="round" stroke-linejoin="round"/>
  <path d="M9.97071 10.0293L9.0599 10.9401C9.02533 10.9747 9.02083 11.0292 9.04924 11.0689L11.4186 14.3861C11.4585 14.4419 11.5415 14.4419 11.5814 14.3861L13.9508 11.0689C13.9792 11.0292 13.9747 10.9747 13.9401 10.9401L13.0293 10.0293C13.0105 10.0105 12.9851 10 12.9586 10H10.0414C10.0149 10 9.98946 10.0105 9.97071 10.0293Z" stroke="currentColor" stroke-width="1.33"/>
  <path d="M11.5 14.5V10" stroke="currentColor" stroke-width="1.33"/>
  <path d="M6.66663 10H5.33329C4.62605 10 3.94777 10.281 3.44767 10.781C2.94758 11.2811 2.66663 11.9594 2.66663 12.6667V14" stroke="currentColor" stroke-width="1.33333" stroke-linecap="round" stroke-linejoin="round"/>
</svg>