<svg width="16" height="16" viewBox="0 0 16 16" fill="none" xmlns="http://www.w3.org/2000/svg">
<mask id="mask0_1882_74955" style="mask-type:alpha" maskUnits="userSpaceOnUse" x="0" y="0" width="16" height="16">
<rect width="16" height="16" fill="#D9D9D9"/>
</mask>
<g mask="url(#mask0_1882_74955)">
<path d="M7.33333 7.99996C6.6 7.99996 5.97222 7.73885 5.45 7.21663C4.92778 6.6944 4.66667 6.06663 4.66667 5.33329C4.66667 4.59996 4.92778 3.97218 5.45 3.44996C5.97222 2.92774 6.6 2.66663 7.33333 2.66663C8.06667 2.66663 8.69444 2.92774 9.21667 3.44996C9.73889 3.97218 10 4.59996 10 5.33329C10 6.06663 9.73889 6.6944 9.21667 7.21663C8.69444 7.73885 8.06667 7.99996 7.33333 7.99996ZM2 12V11.4666C2 11.1 2.09444 10.7555 2.28333 10.4333C2.47222 10.1111 2.73333 9.86663 3.06667 9.69996C3.63333 9.41107 4.27222 9.16663 4.98333 8.96663C5.69444 8.76663 6.47778 8.66663 7.33333 8.66663H7.56667C7.63333 8.66663 7.7 8.67774 7.76667 8.69996C7.67778 8.89996 7.60278 9.10829 7.54167 9.32496C7.48056 9.54163 7.43333 9.76663 7.4 9.99996H7.33333C6.54444 9.99996 5.83611 10.1 5.20833 10.3C4.58056 10.5 4.06667 10.7 3.66667 10.9C3.56667 10.9555 3.48611 11.0333 3.425 11.1333C3.36389 11.2333 3.33333 11.3444 3.33333 11.4666V12H7.53333C7.6 12.2333 7.68889 12.4638 7.8 12.6916C7.91111 12.9194 8.03333 13.1333 8.16667 13.3333H3.33333C2.96667 13.3333 2.65278 13.2027 2.39167 12.9416C2.13056 12.6805 2 12.3666 2 12ZM7.33333 6.66663C7.7 6.66663 8.01389 6.53607 8.275 6.27496C8.53611 6.01385 8.66667 5.69996 8.66667 5.33329C8.66667 4.96663 8.53611 4.65274 8.275 4.39163C8.01389 4.13051 7.7 3.99996 7.33333 3.99996C6.96667 3.99996 6.65278 4.13051 6.39167 4.39163C6.13056 4.65274 6 4.96663 6 5.33329C6 5.69996 6.13056 6.01385 6.39167 6.27496C6.65278 6.53607 6.96667 6.66663 7.33333 6.66663Z" fill="currentColor" stroke="none"/>
<path d="M11 14C10.9117 14 10.826 13.9815 10.7429 13.9444C10.6597 13.9074 10.587 13.8543 10.5247 13.7852L8.14026 11.0741C8.09351 11.0198 8.05844 10.9605 8.03506 10.8963C8.01169 10.8321 8 10.7654 8 10.6963C8 10.6519 8.0039 10.6062 8.01169 10.5593C8.01948 10.5123 8.03636 10.4691 8.06234 10.4296L8.64675 9.32593C8.7039 9.22716 8.78052 9.14815 8.87662 9.08889C8.97273 9.02963 9.08052 9 9.2 9H12.8C12.9195 9 13.0273 9.02963 13.1234 9.08889C13.2195 9.14815 13.2961 9.22716 13.3532 9.32593L13.9377 10.4296C13.9636 10.4691 13.9805 10.5123 13.9883 10.5593C13.9961 10.6062 14 10.6519 14 10.6963C14 10.7654 13.9883 10.8321 13.9649 10.8963C13.9416 10.9605 13.9065 11.0198 13.8597 11.0741L11.4753 13.7852C11.413 13.8543 11.3403 13.9074 11.2571 13.9444C11.174 13.9815 11.0883 14 11 14ZM10.2597 10.4815H11.7403L11.2727 9.59259H10.7273L10.2597 10.4815ZM10.6883 13.0519V11.0741H8.95844L10.6883 13.0519ZM11.3117 13.0519L13.0416 11.0741H11.3117V13.0519ZM12.4338 10.4815H13.2597L12.7922 9.59259H11.9662L12.4338 10.4815ZM8.74026 10.4815H9.56623L10.0338 9.59259H9.20779L8.74026 10.4815Z" fill="currentColor" stroke="currentColor" stroke-width="0.3"/>
</g>
</svg>









