<svg width="17" height="17" viewBox="0 0 17 17" fill="none" xmlns="http://www.w3.org/2000/svg">
<mask id="mask0_1880_74950" style="mask-type:alpha" maskUnits="userSpaceOnUse" x="0" y="0" width="17" height="17">
<rect x="0.450806" y="0.490356" width="16" height="16" fill="#D9D9D9"/>
</mask>
<g mask="url(#mask0_1880_74950)">
<path d="M3.11751 2.49036L4.45085 5.15702H6.45085L5.11751 2.49036H6.45085L7.78418 5.15702H9.78418L8.45085 2.49036H9.78418L11.1175 5.15702H13.1175L11.7842 2.49036H13.7842C14.1508 2.49036 14.4647 2.62091 14.7258 2.88202C14.987 3.14313 15.1175 3.45702 15.1175 3.82369V13.157C15.1175 13.5237 14.987 13.8376 14.7258 14.0987C14.4647 14.3598 14.1508 14.4904 13.7842 14.4904H3.11751C2.75085 14.4904 2.43696 14.3598 2.17585 14.0987C1.91474 13.8376 1.78418 13.5237 1.78418 13.157V3.82369C1.78418 3.45702 1.91474 3.14313 2.17585 2.88202C2.43696 2.62091 2.75085 2.49036 3.11751 2.49036ZM3.11751 6.49036V13.157H13.7842V6.49036H3.11751ZM5.78418 12.4904H11.1175V12.1237C11.1175 11.6348 10.8731 11.2404 10.3842 10.9404C9.89529 10.6404 9.25085 10.4904 8.45085 10.4904C7.65085 10.4904 7.0064 10.6404 6.51751 10.9404C6.02862 11.2404 5.78418 11.6348 5.78418 12.1237V12.4904ZM8.45085 9.82369C8.81751 9.82369 9.1314 9.69313 9.39251 9.43202C9.65362 9.17091 9.78418 8.85702 9.78418 8.49036C9.78418 8.12369 9.65362 7.8098 9.39251 7.54869C9.1314 7.28758 8.81751 7.15702 8.45085 7.15702C8.08418 7.15702 7.77029 7.28758 7.50918 7.54869C7.24807 7.8098 7.11751 8.12369 7.11751 8.49036C7.11751 8.85702 7.24807 9.17091 7.50918 9.43202C7.77029 9.69313 8.08418 9.82369 8.45085 9.82369Z" fill="#374151"/>
</g>
</svg>
