<svg xmlns="http://www.w3.org/2000/svg" width="32" height="32" viewBox="0 0 32 32" fill="none">
  <g clip-path="url(#clip0_881_28414)">
    <mask id="mask0_881_28414" style="mask-type:luminance" maskUnits="userSpaceOnUse" x="-1" y="0" width="33" height="33">
      <path d="M15.9442 32.0173C24.7691 32.0173 31.923 24.8633 31.923 16.0385C31.923 7.21364 24.7691 0.0596924 15.9442 0.0596924C7.1194 0.0596924 -0.0345459 7.21364 -0.0345459 16.0385C-0.0345459 24.8633 7.1194 32.0173 15.9442 32.0173Z" fill="white"/>
    </mask>
    <g mask="url(#mask0_881_28414)">
      <mask id="mask1_881_28414" style="mask-type:luminance" maskUnits="userSpaceOnUse" x="-1" y="0" width="33" height="33">
        <path d="M-0.017334 0.0596924H31.9395V32.0165H-0.0169744L-0.017334 0.0596924Z" fill="white"/>
      </mask>
      <g mask="url(#mask1_881_28414)">
        <path d="M15.9615 32.0173C24.7863 32.0173 31.9399 24.8633 31.9399 16.0389C31.9399 7.21404 24.7863 0.0604248 15.9615 0.0604248C7.13665 0.0604248 -0.0169678 7.21368 -0.0169678 16.0385C-0.0169678 24.8626 7.13665 32.0173 15.9615 32.0173Z" fill="#DDDDDC"/>
      </g>
    </g>
    <mask id="mask2_881_28414" style="mask-type:luminance" maskUnits="userSpaceOnUse" x="-1" y="0" width="33" height="33">
      <path d="M15.9442 32.0173C24.7691 32.0173 31.923 24.8633 31.923 16.0385C31.923 7.21364 24.7691 0.0596924 15.9442 0.0596924C7.1194 0.0596924 -0.0345459 7.21364 -0.0345459 16.0385C-0.0345459 24.8633 7.1194 32.0173 15.9442 32.0173Z" fill="white"/>
    </mask>
    <g mask="url(#mask2_881_28414)">
      <path d="M-25.2682 -17.4803H57.3015V44.4476H-25.2678L-25.2682 -17.4803Z" fill="#BDCF31"/>
    </g>
    <mask id="mask3_881_28414" style="mask-type:luminance" maskUnits="userSpaceOnUse" x="-1" y="0" width="33" height="33">
      <path d="M15.9442 32.0173C24.7691 32.0173 31.923 24.8633 31.923 16.0385C31.923 7.21364 24.7691 0.0596924 15.9442 0.0596924C7.1194 0.0596924 -0.0345459 7.21364 -0.0345459 16.0385C-0.0345459 24.8633 7.1194 32.0173 15.9442 32.0173Z" fill="white"/>
    </mask>
    <g mask="url(#mask3_881_28414)">
      <path d="M25.9084 14.4205C25.6553 14.4205 25.405 14.4554 25.1692 14.5125C24.2379 10.8257 21.1559 7.99964 17.3382 7.43478C17.2806 6.79119 17.5269 5.78193 19.1366 4.80934L19.0885 4.71478C19.0885 4.71478 16.3925 5.56764 15.7831 7.25105C15.8097 6.72539 15.6184 5.93582 14.4477 5.3742C14.4477 5.3742 14.3553 5.40584 14.4021 5.44827C14.6343 5.66292 15.3739 6.37842 15.0601 7.37474C11.0007 7.744 7.67848 10.661 6.70482 14.5133C6.46298 14.4531 6.21479 14.4222 5.96558 14.4212C4.26203 14.4212 2.87524 15.8048 2.87524 17.5133C2.87524 19.2187 4.26239 20.6044 5.96558 20.6044C6.36468 20.6044 6.74509 20.5253 7.09457 20.3879C7.35804 21.0465 7.6949 21.6732 8.09879 22.2562L10.6753 20.5188L10.6423 20.498C9.96378 19.6261 9.54922 18.3421 9.47947 17.0643C9.40252 15.6548 9.74626 14.2551 10.6462 13.4321C12.5015 11.8526 14.5214 12.5728 15.7878 14.0865H16.1258C17.3921 12.6026 19.3894 11.913 21.2299 13.4752C22.118 14.2928 22.4654 15.6685 22.3978 17.0592C22.3366 18.3493 21.9196 19.6537 21.2382 20.5318L23.7781 22.2558C24.1801 21.672 24.5161 21.0453 24.7798 20.3872C25.1293 20.5239 25.509 20.6037 25.9077 20.6037C27.6156 20.6037 28.9987 19.2176 28.9987 17.5115C28.9989 17.1056 28.9191 16.7036 28.7639 16.3285C28.6086 15.9533 28.381 15.6125 28.094 15.3254C27.8069 15.0383 27.4662 14.8106 27.0911 14.6553C26.716 14.4999 26.314 14.42 25.9081 14.4201M6.07093 18.1307C5.73079 18.1307 5.4525 17.8549 5.4525 17.5108C5.45219 17.3979 5.48274 17.287 5.54087 17.1901C5.59899 17.0933 5.68248 17.0141 5.78231 16.9613C5.88214 16.9084 5.99451 16.8838 6.10729 16.8902C6.22007 16.8966 6.32896 16.9336 6.42221 16.9974C6.42581 17.3257 6.45097 17.6489 6.48873 17.9682C6.37473 18.0728 6.22563 18.1307 6.07093 18.1307ZM25.8013 18.1321C25.6487 18.1319 25.5015 18.0756 25.3878 17.9739C25.4248 17.6525 25.45 17.3278 25.4539 16.9981C25.5535 16.9312 25.6733 16.891 25.802 16.891C26.1436 16.891 26.4226 17.1696 26.4226 17.513C26.4226 17.8574 26.1421 18.1325 25.8016 18.1325" fill="white"/>
    </g>
  </g>
  <defs>
    <clipPath id="clip0_881_28414">
      <rect width="32" height="32" fill="white"/>
    </clipPath>
  </defs>
</svg>