<svg width="24" height="24" viewBox="0 0 24 24" fill="none" xmlns="http://www.w3.org/2000/svg">
<path d="M21 2L19 4M19 4L22 7L18.5 10.5L15.5 7.5M19 4L15.5 7.5M11.39 11.61C11.9064 12.1195 12.3168 12.726 12.5978 13.3948C12.8787 14.0635 13.0246 14.7813 13.0271 15.5066C13.0295 16.232 12.8884 16.9507 12.6119 17.6213C12.3355 18.2919 11.9291 18.9012 11.4162 19.4141C10.9033 19.9271 10.294 20.3334 9.62333 20.6099C8.95271 20.8864 8.23403 21.0275 7.50866 21.025C6.7833 21.0226 6.06557 20.8767 5.39682 20.5958C4.72807 20.3148 4.1215 19.9043 3.61203 19.388C2.61016 18.3507 2.05579 16.9614 2.06832 15.5193C2.08085 14.0772 2.65928 12.6977 3.67903 11.678C4.69877 10.6583 6.07824 10.0798 7.52032 10.0673C8.96241 10.0548 10.3517 10.6091 11.389 11.611L11.39 11.61ZM11.39 11.61L15.5 7.5" stroke="currentColor" stroke-width="2" stroke-linecap="round" stroke-linejoin="round"/>
<path d="M16 22V16.2414C16 16.1523 16.1077 16.1077 16.1707 16.1707L21.8293 21.8293C21.8923 21.8923 22 21.8477 22 21.7586V16" stroke="#3366FF" stroke-width="2" stroke-linecap="round"/>
</svg>
