<svg xmlns="http://www.w3.org/2000/svg" width="32" height="32" viewBox="0 0 32 32" fill="none">
  <g clip-path="url(#clip0_881_28442)">
    <path d="M15.4912 1.76166V3.21673H12.8887V4.16311H15.4912V7.06142H16.5086V4.16311H19.1762V3.21673H16.5086V0.3125H15.4912V1.76166Z" fill="#7099A6"/>
    <path d="M6.98548 5.45257V7.5642H3.04614V8.88914H6.98548V13.1775H8.44647V8.88914H12.445V7.5642H8.44647V3.34094H6.98548V5.45257Z" fill="#EB912C"/>
    <path d="M23.494 5.45257V7.5642H19.5547V8.9542H23.494V13.1775H25.0142V8.9542H28.9535V7.5642H25.0142V3.34094H23.494V5.45257Z" fill="#59879B"/>
    <path d="M15.1126 12.6451V15.0111H10.7296V16.7737H15.1126V21.5056H16.887V16.7737H21.27V15.0111H16.887V10.2791H15.1126V12.6451Z" fill="#E8762C"/>
    <path d="M28.0012 13.8399V15.3246H25.3336V16.5253H28.0012V19.4887H29.3321V16.5253H31.9997V15.3246H29.3321V12.3612H28.0012V13.8399Z" fill="#5B6591"/>
    <path d="M2.60257 13.9701V15.3896H0V16.3952H2.60257V19.2343H3.61993V16.3952L6.28756 16.3005V15.3896H3.61993V12.5505H2.60257V13.9701Z" fill="#7099A6"/>
    <path d="M6.98548 20.6539V22.7656H3.04614V24.1556H6.98548V28.3788H8.50561V24.1556H12.445V22.7656H8.50561V18.5423H6.98548V20.6539Z" fill="#C72035"/>
    <path d="M23.494 20.6539V22.7656H19.5547V24.0905H23.494V28.3788H25.0142V24.0905H28.9535V22.7656H25.0142V18.5423H23.494V20.6539Z" fill="#1F447E"/>
    <path d="M15.367 26.0188V27.4975H12.6993V28.6982H15.367V31.6616H16.6978V28.6982H19.3655V27.4975H16.6978V24.5341H15.367V26.0188Z" fill="#5B6591"/>
  </g>
  <defs>
    <clipPath id="clip0_881_28442">
      <rect width="32" height="31.375" fill="white" transform="translate(0 0.3125)"/>
    </clipPath>
  </defs>
</svg>