<svg xmlns="http://www.w3.org/2000/svg" width="32" height="32" viewBox="0 0 32 32" fill="none">
  <g clip-path="url(#clip0_858_14191)">
    <path d="M16 0C11.7575 0 7.685 1.68675 4.6875 4.68625C1.6875 7.68575 0 11.7583 0 16C0 20.2417 1.6875 24.3142 4.6875 27.3137C7.685 30.3132 11.7575 32 16 32C20.2425 32 24.315 30.3132 27.3125 27.3137C30.3125 24.3142 32 20.2417 32 16C32 11.7583 30.3125 7.68575 27.3125 4.68625C24.315 1.68675 20.2425 0 16 0Z" fill="url(#paint0_linear_858_14191)"/>
    <path d="M7.24213 15.831C11.9071 13.799 15.0171 12.4593 16.5721 11.812C21.0171 9.96379 21.9396 9.64279 22.5421 9.63193C22.6746 9.62979 22.9696 9.66254 23.1621 9.81829C23.3221 9.94954 23.3671 10.127 23.3896 10.2515C23.4096 10.376 23.4371 10.6598 23.4146 10.8813C23.1746 13.4113 22.1321 19.5508 21.6021 22.3845C21.3796 23.5836 20.9371 23.9856 20.5096 24.0248C19.5796 24.1103 18.8746 23.4108 17.9746 22.821C16.5671 21.8978 15.7721 21.3233 14.4046 20.4225C12.8246 19.3815 13.8496 18.8093 14.7496 17.8743C14.9846 17.6295 19.0796 13.9058 19.1571 13.568C19.1671 13.5258 19.1771 13.3683 19.0821 13.2853C18.9896 13.202 18.8521 13.2305 18.7521 13.253C18.6096 13.285 16.3621 14.772 12.0021 17.7138C11.3646 18.1523 10.7871 18.366 10.2671 18.3548C9.69713 18.3425 8.59713 18.0318 7.77963 17.7663C6.77963 17.4405 5.98213 17.2683 6.05213 16.715C6.08713 16.427 6.48463 16.1323 7.24213 15.831Z" fill="white"/>
  </g>
  <defs>
    <linearGradient id="paint0_linear_858_14191" x1="1600" y1="0" x2="1600" y2="3200" gradientUnits="userSpaceOnUse">
      <stop stop-color="#2AABEE"/>
      <stop offset="1" stop-color="#229ED9"/>
    </linearGradient>
    <clipPath id="clip0_858_14191">
      <rect width="32" height="32" fill="white"/>
    </clipPath>
  </defs>
</svg>