<svg width="16" height="16" viewBox="0 0 16 16" fill="none" xmlns="http://www.w3.org/2000/svg">
<path d="M2 4H3.33333H14" stroke="currentColor" stroke-width="1.33333" stroke-linecap="round" stroke-linejoin="round"/>
<path d="M5.33333 4.00004V2.66671C5.33333 2.31309 5.4738 1.97395 5.72385 1.7239C5.9739 1.47385 6.31304 1.33337 6.66666 1.33337H9.33333C9.68695 1.33337 10.0261 1.47385 10.2761 1.7239C10.5262 1.97395 10.6667 2.31309 10.6667 2.66671V4.00004M12.6667 4.00004V13.3334C12.6667 13.687 12.5262 14.0261 12.2761 14.2762C12.0261 14.5262 11.6869 14.6667 11.3333 14.6667H4.66666C4.31304 14.6667 3.9739 14.5262 3.72385 14.2762C3.4738 14.0261 3.33333 13.687 3.33333 13.3334V4.00004H12.6667Z" stroke="currentColor" stroke-width="1.33333" stroke-linecap="round" stroke-linejoin="round"/>
<path d="M9.33333 7.33337V11.3334" stroke="currentColor" stroke-width="1.33333" stroke-linecap="round" stroke-linejoin="round"/>
<path d="M6.66667 7.33337V11.3334" stroke="currentColor" stroke-width="1.33333" stroke-linecap="round" stroke-linejoin="round"/>
</svg>
