<svg xmlns="http://www.w3.org/2000/svg" width="32" height="32" viewBox="0 0 32 32" fill="none">
  <g clip-path="url(#clip0_881_28458)">
    <path d="M28.875 0H3.125C1.39911 0 0 1.39911 0 3.125V28.875C0 30.6009 1.39911 32 3.125 32H28.875C30.6009 32 32 30.6009 32 28.875V3.125C32 1.39911 30.6009 0 28.875 0Z" fill="url(#paint0_linear_881_28458)"/>
    <path d="M26.3401 4.15997H19.5801C18.7517 4.15997 18.0801 4.83155 18.0801 5.65997V16.66C18.0801 17.4884 18.7517 18.16 19.5801 18.16H26.3401C27.1685 18.16 27.8401 17.4884 27.8401 16.66V5.65997C27.8401 4.83155 27.1685 4.15997 26.3401 4.15997Z" fill="white"/>
    <path d="M12.4199 4.15997H5.65991C4.83148 4.15997 4.15991 4.83155 4.15991 5.65997V24.66C4.15991 25.4884 4.83148 26.16 5.65991 26.16H12.4199C13.2483 26.16 13.9199 25.4884 13.9199 24.66V5.65997C13.9199 4.83155 13.2483 4.15997 12.4199 4.15997Z" fill="white"/>
  </g>
  <defs>
    <linearGradient id="paint0_linear_881_28458" x1="1600" y1="0" x2="1600" y2="3200" gradientUnits="userSpaceOnUse">
      <stop stop-color="#0091E6"/>
      <stop offset="1" stop-color="#0079BF"/>
    </linearGradient>
    <clipPath id="clip0_881_28458">
      <rect width="32" height="32" fill="white"/>
    </clipPath>
  </defs>
</svg>