<svg xmlns="http://www.w3.org/2000/svg" width="32" height="22" viewBox="0 0 32 22" fill="none">
  <g clip-path="url(#clip0_881_28469)">
    <path d="M26.626 0.496216H15.145C12.177 0.496216 9.771 2.90226 9.771 5.87026V16.1298C9.771 19.0978 12.177 21.5038 15.145 21.5038H26.626C29.594 21.5038 32 19.0978 32 16.1298V5.87026C32 2.90226 29.594 0.496216 26.626 0.496216Z" fill="#1A1A18"/>
    <path d="M7.32824 4.16034C7.32824 2.1367 5.68776 0.496216 3.66412 0.496216C1.64048 0.496216 0 2.1367 0 4.16034V17.8397C0 19.8634 1.64048 21.5038 3.66412 21.5038C5.68776 21.5038 7.32824 19.8634 7.32824 17.8397V4.16034Z" fill="#1A1A18"/>
  </g>
  <defs>
    <clipPath id="clip0_881_28469">
      <rect width="32" height="21.0076" fill="white" transform="translate(0 0.496216)"/>
    </clipPath>
  </defs>
</svg>