<svg width="16" height="16" viewBox="0 0 16 16" fill="none" xmlns="http://www.w3.org/2000/svg">
<path d="M15.3335 14.0002V12.6669C15.3331 12.0761 15.1364 11.5021 14.7744 11.0351C14.4124 10.5682 13.9056 10.2346 13.3335 10.0869" stroke="currentColor" stroke-width="1.33333" stroke-linecap="round" stroke-linejoin="round"/>
<path d="M11.3332 14V12.6667C11.3332 11.9594 11.0522 11.2811 10.5521 10.781C10.052 10.281 9.37375 10 8.6665 10H3.33317C2.62593 10 1.94765 10.281 1.44755 10.781C0.947456 11.2811 0.666504 11.9594 0.666504 12.6667V14" stroke="currentColor" stroke-width="1.33333" stroke-linecap="round" stroke-linejoin="round"/>
<path d="M10.6665 2.08691C11.2401 2.23378 11.7485 2.56738 12.1116 3.03512C12.4747 3.50286 12.6717 4.07813 12.6717 4.67025C12.6717 5.26236 12.4747 5.83763 12.1116 6.30537C11.7485 6.77311 11.2401 7.10671 10.6665 7.25358" stroke="currentColor" stroke-width="1.33333" stroke-linecap="round" stroke-linejoin="round"/>
<path d="M6.00016 7.33333C7.47292 7.33333 8.66683 6.13943 8.66683 4.66667C8.66683 3.19391 7.47292 2 6.00016 2C4.5274 2 3.3335 3.19391 3.3335 4.66667C3.3335 6.13943 4.5274 7.33333 6.00016 7.33333Z" stroke="currentColor" stroke-width="1.33333" stroke-linecap="round" stroke-linejoin="round"/>
</svg>
