<svg xmlns="http://www.w3.org/2000/svg" width="16" height="16" viewBox="0 0 16 16" fill="none">
    <path d="M8.00004 7.33333C9.4728 7.33333 10.6667 6.13943 10.6667 4.66667C10.6667 3.19391 9.4728 2 8.00004 2C6.52728 2 5.33337 3.19391 5.33337 4.66667C5.33337 6.13943 6.52728 7.33333 8.00004 7.33333Z" stroke="currentColor" stroke-width="1.33333" stroke-linecap="round" stroke-linejoin="round"/>
    <path d="M6.66663 10H5.33329C4.62605 10 3.94777 10.281 3.44767 10.781C2.94758 11.2811 2.66663 11.9594 2.66663 12.6667V14" stroke="currentColor" stroke-width="1.33333" stroke-linecap="round" stroke-linejoin="round"/>
    <path d="M8 12C8 12 9.09091 10 11 10C12.9091 10 14 12 14 12C14 12 12.9091 14 11 14C9.09091 14 8 12 8 12Z" stroke="currentColor" stroke-width="1.33333" stroke-linecap="round" stroke-linejoin="round"/>
    <path d="M11 12.5C11.2761 12.5 11.5 12.2761 11.5 12C11.5 11.7239 11.2761 11.5 11 11.5C10.7239 11.5 10.5 11.7239 10.5 12C10.5 12.2761 10.7239 12.5 11 12.5Z" stroke="currentColor" stroke-width="1.33333" stroke-linecap="round" stroke-linejoin="round"/>
</svg>