<svg xmlns="http://www.w3.org/2000/svg" width="16" height="16" viewBox="0 0 16 16" fill="none">
  <path d="M1 15L1.98436 11.4035C1.1485 9.95098 0.866189 8.24494 1.18958 6.60043C1.51298 4.95592 2.42022 3.48406 3.74374 2.45671C5.06727 1.42936 6.71765 0.915921 8.39005 1.01124C10.0625 1.10656 11.6439 1.80419 12.8422 2.97528C14.0406 4.14636 14.7749 5.71179 14.9096 7.3824C15.0442 9.05301 14.5701 10.7159 13.5748 12.064C12.5795 13.4121 11.1303 14.3543 9.49475 14.7166C7.85923 15.0788 6.14795 14.8366 4.67698 14.0348M2.66613 13.353L4.84934 12.7785C6.05083 13.5591 7.49981 13.8645 8.91416 13.6354C10.3285 13.4064 11.607 12.6591 12.5006 11.5392C13.3943 10.4192 13.8391 9.00679 13.7486 7.57688C13.6581 6.14696 13.0386 4.80192 12.0108 3.80365C10.983 2.80538 9.62053 2.22535 8.18858 2.17648C6.75663 2.12762 5.35775 2.61342 4.26432 3.53931C3.17088 4.46519 2.46117 5.76487 2.27336 7.18529C2.08555 8.60571 2.4331 10.0452 3.24832 11.2234M6.8104 6.35909C6.887 6.5506 6.8104 6.74211 6.38908 7.20939C6.15927 7.4392 6.23587 7.51581 6.64187 8.09034C7.04787 8.66487 7.71432 9.20109 8.32715 9.48836C8.93998 9.77562 8.90168 9.75647 9.15831 9.45005C9.73283 8.79892 9.57963 8.64571 10.1542 8.90617L11.1883 9.40409C11.4947 9.5573 11.51 9.5573 11.5139 9.74881C11.5177 9.94032 11.4488 10.4382 11.2458 10.6527C11.0428 10.8672 10.2882 11.6026 8.94765 11.1124C7.60708 10.6221 6.68783 10.2314 5.15576 8.16311C3.62368 6.09481 5.09447 4.86915 5.29364 4.79254C5.49281 4.71594 5.56176 4.73509 5.94478 4.74275C6.04692 4.74275 6.13629 4.80659 6.21289 4.93426" fill="#25D366"/>
</svg>