<svg xmlns="http://www.w3.org/2000/svg" width="32" height="32" viewBox="0 0 32 32" fill="none">
  <g clip-path="url(#clip0_881_28477)">
    <path d="M16 32C24.8366 32 32 24.8366 32 16C32 7.16344 24.8366 0 16 0C7.16344 0 0 7.16344 0 16C0 24.8366 7.16344 32 16 32Z" fill="#005CB9"/>
    <path d="M8.48 11.36C8.52 11.28 8.52 11.2 8.56 11.12C9.6 7.8 12.6 5.56 16.04 5.56C19.48 5.56 22.48 7.8 23.52 11.08C23.56 11.16 23.56 11.24 23.6 11.32C23.76 11.84 23.44 12.4 22.92 12.56C22.4 12.72 21.84 12.4 21.68 11.88C21.64 11.84 21.64 11.76 21.64 11.72C20.8 9.24 18.56 7.6 16 7.6C13.44 7.6 11.2 9.28 10.44 11.72C10.4 11.8 10.4 11.84 10.4 11.88C10.28 12.32 9.88 12.6 9.44 12.6C9.36 12.6 9.28 12.6 9.16 12.56C8.64 12.44 8.32 11.88 8.48 11.36Z" fill="#F38B00"/>
    <path d="M23.5601 15.88L21.0401 25.4C21.0001 25.56 20.8401 25.72 20.6401 25.72H18.5601C18.5601 25.72 18.2001 25.68 18.1601 25.48C17.8001 24.16 15.9601 17.48 15.9601 17.48C15.9601 17.48 14.2001 24.16 13.8801 25.48C13.8401 25.64 13.4801 25.8 13.4801 25.8H11.4001C11.2001 25.8 11.0401 25.68 11.0001 25.48L8.48006 15.96C8.40006 15.72 8.60006 15.44 8.88006 15.44H10.2401C10.4401 15.44 10.6001 15.56 10.6401 15.76C10.6401 15.76 12.4401 23.32 12.5201 23.36L14.5601 15.76C14.6001 15.6 14.8001 15.44 14.9601 15.44H17.0801C17.2801 15.44 17.4401 15.56 17.5201 15.76C17.5201 15.76 19.5201 23.32 19.5601 23.32L21.4001 15.76C21.4401 15.56 21.6001 15.44 21.8001 15.44H23.1601C23.4401 15.44 23.6401 15.68 23.5601 15.96" fill="white"/>
  </g>
  <defs>
    <clipPath id="clip0_881_28477">
      <rect width="32" height="32" fill="white"/>
    </clipPath>
  </defs>
</svg>