<svg width="20" height="20" viewBox="0 0 20 20" fill="none" xmlns="http://www.w3.org/2000/svg">
<g id="Social Icons" clip-path="url(#clip0_47_9415)">
<path id="Vector" d="M19.6016 5.15454C19.4885 4.72906 19.2657 4.34073 18.9554 4.02842C18.6451 3.71612 18.2582 3.49079 17.8334 3.375C16.2698 2.95454 10.0198 2.95454 10.0198 2.95454C10.0198 2.95454 3.76978 2.95454 2.20614 3.375C1.78138 3.49079 1.39449 3.71612 1.08418 4.02842C0.773872 4.34073 0.55103 4.72906 0.437957 5.15454C0.0197754 6.725 0.0197754 10 0.0197754 10C0.0197754 10 0.0197754 13.275 0.437957 14.8455C0.55103 15.2709 0.773872 15.6593 1.08418 15.9716C1.39449 16.2839 1.78138 16.5092 2.20614 16.625C3.76978 17.0455 10.0198 17.0455 10.0198 17.0455C10.0198 17.0455 16.2698 17.0455 17.8334 16.625C18.2582 16.5092 18.6451 16.2839 18.9554 15.9716C19.2657 15.6593 19.4885 15.2709 19.6016 14.8455C20.0198 13.275 20.0198 10 20.0198 10C20.0198 10 20.0198 6.725 19.6016 5.15454Z" fill="#FF0302"/>
<path id="Vector_2" d="M7.97437 12.9739V7.02617L13.2016 10L7.97437 12.9739Z" fill="#FEFEFE"/>
</g>
<defs>
<clipPath id="clip0_47_9415">
<rect width="20" height="20" fill="white"/>
</clipPath>
</defs>
</svg>
