<svg width="20" height="20" viewBox="0 0 20 20" fill="none" xmlns="http://www.w3.org/2000/svg">
<g id="Social Icons" clip-path="url(#clip0_304_20530)">
<path id="Vector" d="M19.6016 5.15508C19.4885 4.72959 19.2657 4.34126 18.9554 4.02896C18.6451 3.71665 18.2582 3.49133 17.8334 3.37553C16.2698 2.95508 10.0198 2.95508 10.0198 2.95508C10.0198 2.95508 3.76978 2.95508 2.20614 3.37553C1.78138 3.49133 1.39449 3.71665 1.08418 4.02896C0.773872 4.34126 0.55103 4.72959 0.437957 5.15508C0.0197754 6.72553 0.0197754 10.0005 0.0197754 10.0005C0.0197754 10.0005 0.0197754 13.2755 0.437957 14.846C0.55103 15.2715 0.773872 15.6598 1.08418 15.9721C1.39449 16.2844 1.78138 16.5097 2.20614 16.6255C3.76978 17.046 10.0198 17.046 10.0198 17.046C10.0198 17.046 16.2698 17.046 17.8334 16.6255C18.2582 16.5097 18.6451 16.2844 18.9554 15.9721C19.2657 15.6598 19.4885 15.2715 19.6016 14.846C20.0198 13.2755 20.0198 10.0005 20.0198 10.0005C20.0198 10.0005 20.0198 6.72553 19.6016 5.15508Z" fill="#FF0302"/>
<path id="Vector_2" d="M7.97437 12.9731V7.02539L13.2016 9.99925L7.97437 12.9731Z" fill="#FEFEFE"/>
</g>
<defs>
<clipPath id="clip0_304_20530">
<rect width="20" height="20" fill="white"/>
</clipPath>
</defs>
</svg>
