<svg xmlns="http://www.w3.org/2000/svg" width="32" height="12" viewBox="0 0 32 12" fill="none">
  <path d="M14.2868 11.4619C14.043 11.4619 13.793 11.4119 13.5555 11.3056L8.48638 9.04298C7.58006 8.64295 7.17378 7.57412 7.57381 6.6678L9.83648 1.59868C10.2365 0.692366 11.3053 0.286086 12.2117 0.686115L17.2808 2.94878C18.1871 3.34881 18.5934 4.41764 18.1933 5.32396L15.9369 10.3931C15.6369 11.0681 14.9806 11.4619 14.2868 11.4619ZM13.9805 10.3556C14.3618 10.5243 14.8118 10.3493 14.9869 9.9743L17.2495 4.90517C17.4183 4.5239 17.2433 4.07386 16.8682 3.89885L11.7929 1.63618C11.4116 1.46742 10.9616 1.64244 10.7865 2.01746L8.52388 7.09284C8.35512 7.47411 8.53013 7.92415 8.90516 8.09916L13.9805 10.3556Z" fill="#089949"/>
  <path d="M30.2005 11.4675H24.6439C23.6501 11.4675 22.8438 10.6612 22.8438 9.66734V4.11068C22.8438 3.11686 23.6501 2.31055 24.6439 2.31055H30.2005C31.1944 2.31055 32.0007 3.11686 32.0007 4.11068V9.66734C32.0007 10.6549 31.1944 11.4675 30.2005 11.4675ZM24.6439 3.34812C24.2251 3.34812 23.8813 3.6919 23.8813 4.11068V9.66734C23.8813 10.0861 24.2251 10.4299 24.6439 10.4299H30.2005C30.6193 10.4299 30.9631 10.0861 30.9631 9.66734V4.11068C30.9631 3.6919 30.6193 3.34812 30.2005 3.34812H24.6439Z" fill="#F9B21D"/>
  <path d="M9.39834 5.13026L8.64829 6.80539C8.63579 6.82414 8.62953 6.84289 8.61703 6.85539L8.91081 8.65552C8.97956 9.06805 8.69829 9.46183 8.28576 9.52434L2.80411 10.4119C2.60409 10.4432 2.40408 10.3932 2.23532 10.2806C2.0728 10.1619 1.9603 9.98687 1.92904 9.78686L1.04148 4.3052C1.01023 4.10519 1.06023 3.90517 1.17274 3.73641C1.2915 3.5739 1.46651 3.46139 1.66652 3.43014L7.14818 2.54257C7.19193 2.53632 7.22943 2.53007 7.26694 2.53007C7.62946 2.53007 7.96074 2.79884 8.01699 3.16762L8.31076 4.98025L9.08582 3.24888L9.04206 3.00511C8.8858 2.02379 7.96074 1.35499 6.97941 1.5175L1.51026 2.40506C1.03523 2.48007 0.616448 2.73634 0.341427 3.12387C0.0601567 3.5114 -0.0523515 3.98643 0.022654 4.46772L0.910219 9.94937C0.985225 10.4244 1.24149 10.8432 1.63527 11.1245C1.94154 11.3495 2.31032 11.462 2.68535 11.462C2.77911 11.462 2.87911 11.4557 2.97912 11.437L8.46077 10.5494C9.44209 10.3931 10.1109 9.46808 9.94838 8.48676L9.39834 5.13026Z" fill="#E42527"/>
  <path d="M15.9795 7.74926L16.7858 5.94288L16.5546 4.26776C16.5233 4.06774 16.5796 3.86773 16.7046 3.70522C16.8296 3.5427 17.0046 3.43645 17.2109 3.41145L22.7113 2.66139C22.7488 2.65514 22.78 2.65514 22.8175 2.65514C22.98 2.65514 23.1425 2.71139 23.28 2.8114C23.305 2.83015 23.3301 2.85515 23.3488 2.87391C23.5926 2.61764 23.9113 2.43637 24.2739 2.35512C24.1739 2.21761 24.0489 2.0926 23.9113 1.98634C23.5301 1.69257 23.055 1.57381 22.58 1.63631L17.0733 2.38637C16.5983 2.44887 16.1733 2.69889 15.8858 3.08017C15.592 3.46145 15.4732 3.93648 15.5357 4.41152L15.9795 7.74926Z" fill="#226DB4"/>
  <path d="M25.3425 8.67402L24.6174 3.34863C24.2111 3.36113 23.8861 3.69866 23.8861 4.10494V5.66755L24.3111 8.81153C24.3424 9.01155 24.2861 9.21156 24.1611 9.37407C24.0361 9.53659 23.8611 9.64284 23.6548 9.66785L18.1544 10.4179C17.9544 10.4492 17.7544 10.3929 17.5919 10.2679C17.4294 10.1429 17.3231 9.96787 17.2981 9.7616L17.0419 7.89271L16.248 9.6991L16.2793 9.89911C16.3418 10.3741 16.5918 10.7992 16.9731 11.0867C17.2919 11.3305 17.6669 11.4555 18.0607 11.4555C18.1419 11.4555 18.2232 11.4492 18.3107 11.4367L23.8049 10.6929C24.2799 10.6304 24.7049 10.3804 24.9924 9.99912C25.28 9.62409 25.405 9.14906 25.3425 8.67402Z" fill="#226DB4"/>
</svg>