<svg width="120" height="120" viewBox="0 0 120 120" fill="none" xmlns="http://www.w3.org/2000/svg">
<rect x="13" y="13" width="94" height="94" rx="9" stroke="#15171A" stroke-width="6"/>
<mask id="mask0_120_12698" style="mask-type:alpha" maskUnits="userSpaceOnUse" x="18" y="18" width="84" height="84">
<rect x="18" y="18" width="84" height="84" fill="#D9D9D9"/>
</mask>
<g mask="url(#mask0_120_12698)">
<path d="M27.5048 88.9949C28.0079 89.4983 28.6314 89.7499 29.3751 89.7499H90.625C91.3687 89.7499 91.9921 89.4986 92.4953 88.996C92.9984 88.4935 93.25 87.8702 93.25 87.1262C93.25 86.3821 92.9984 85.7584 92.4953 85.2551C91.9921 84.7517 91.3687 84.5 90.625 84.5H29.3751C28.6314 84.5 28.0079 84.7513 27.5048 85.2538C27.0017 85.7564 26.7501 86.3797 26.7501 87.1238C26.7501 87.8678 27.0017 88.4915 27.5048 88.9949Z" fill="#15171A"/>
<path d="M34.6291 79.6538C33.4149 79.6538 32.3816 79.2284 31.529 78.3777C30.6764 77.5271 30.2501 76.4941 30.2501 75.2788V62.6251C30.2501 61.4098 30.6751 60.3769 31.525 59.5262C32.3749 58.6755 33.4069 58.2501 34.6211 58.2501C35.8353 58.2501 36.8687 58.6755 37.7212 59.5262C38.5738 60.3769 39 61.4098 39 62.6251V75.2788C39 76.4941 38.5751 77.5271 37.7252 78.3777C36.8752 79.2284 35.8432 79.6538 34.6291 79.6538ZM51.5232 79.6538C50.3091 79.6538 49.2757 79.2284 48.4232 78.3777C47.5706 77.5271 47.1444 76.4941 47.1444 75.2788V45.1251C47.1444 43.9099 47.5693 42.8769 48.4192 42.0262C49.2692 41.1755 50.3012 40.7501 51.5153 40.7501C52.7295 40.7501 53.7628 41.1755 54.6154 42.0262C55.4679 42.8769 55.8942 43.9099 55.8942 45.1251V75.2788C55.8942 76.4941 55.4693 77.5271 54.6194 78.3777C53.7695 79.2284 52.7374 79.6538 51.5232 79.6538ZM68.451 79.6538C67.2369 79.6538 66.2036 79.2284 65.351 78.3777C64.4985 77.5271 64.0722 76.4941 64.0722 75.2788V55.6251C64.0722 54.4098 64.4972 53.3769 65.3471 52.5262C66.197 51.6755 67.229 51.2501 68.4432 51.2501C69.6573 51.2501 70.6907 51.6755 71.5432 52.5262C72.3958 53.3769 72.822 54.4098 72.822 55.6251V75.2788C72.822 76.4941 72.3971 77.5271 71.5472 78.3777C70.6973 79.2284 69.6653 79.6538 68.451 79.6538ZM85.3789 79.6538C84.1647 79.6538 83.1314 79.2284 82.2789 78.3777C81.4263 77.5271 81 76.4941 81 75.2788V34.6251C81 33.4098 81.425 32.3769 82.2749 31.5262C83.1248 30.6755 84.1569 30.2501 85.371 30.2501C86.5852 30.2501 87.6185 30.6755 88.4711 31.5262C89.3237 32.3769 89.75 33.4098 89.75 34.6251V75.2788C89.75 76.4941 89.325 77.5271 88.4751 78.3777C87.6252 79.2284 86.5931 79.6538 85.3789 79.6538Z" fill="#3366FF"/>
</g>
</svg>
