<svg width="120" height="120" viewBox="0 0 120 120" fill="none" xmlns="http://www.w3.org/2000/svg">
<g filter="url(#filter0_dd_120_12681)">
<rect x="10" y="35" width="100" height="50" rx="8" fill="#3069FE"/>
<path d="M22.017 69V51.5455H29.0057C30.2898 51.5455 31.3608 51.7358 32.2188 52.1165C33.0767 52.4972 33.7216 53.0256 34.1534 53.7017C34.5852 54.3722 34.8011 55.1449 34.8011 56.0199C34.8011 56.7017 34.6648 57.3011 34.392 57.8182C34.1193 58.3295 33.7443 58.75 33.267 59.0795C32.7955 59.4034 32.2557 59.6335 31.6477 59.7699V59.9403C32.3125 59.9687 32.9347 60.1562 33.5142 60.5028C34.0994 60.8494 34.5739 61.3352 34.9375 61.9602C35.3011 62.5795 35.483 63.3182 35.483 64.1761C35.483 65.1023 35.2528 65.929 34.7926 66.6562C34.3381 67.3778 33.6648 67.9489 32.7727 68.3693C31.8807 68.7898 30.7813 69 29.4744 69H22.017ZM25.7074 65.983H28.7159C29.7443 65.983 30.4943 65.7869 30.9659 65.3949C31.4375 64.9972 31.6733 64.4687 31.6733 63.8097C31.6733 63.3267 31.5568 62.9006 31.3239 62.5312C31.0909 62.1619 30.7585 61.8722 30.3267 61.6619C29.9006 61.4517 29.392 61.3466 28.8011 61.3466H25.7074V65.983ZM25.7074 58.8494H28.4432C28.9489 58.8494 29.3977 58.7614 29.7898 58.5852C30.1875 58.4034 30.5 58.1477 30.7273 57.8182C30.9602 57.4886 31.0767 57.0938 31.0767 56.6335C31.0767 56.0028 30.8523 55.4943 30.4034 55.108C29.9602 54.7216 29.3295 54.5284 28.5114 54.5284H25.7074V58.8494ZM46.2109 63.4261V55.9091H49.8416V69H46.3558V66.6222H46.2195C45.924 67.3892 45.4325 68.0057 44.745 68.4716C44.0632 68.9375 43.2308 69.1705 42.2479 69.1705C41.3729 69.1705 40.603 68.9716 39.9382 68.5739C39.2734 68.1761 38.7536 67.6108 38.3786 66.8778C38.0092 66.1449 37.8217 65.267 37.8161 64.2443V55.9091H41.4467V63.5966C41.4524 64.3693 41.6598 64.9801 42.0689 65.429C42.478 65.8778 43.0263 66.1023 43.7138 66.1023C44.1513 66.1023 44.5604 66.0028 44.9411 65.804C45.3217 65.5994 45.6286 65.2983 45.8615 64.9006C46.1001 64.5028 46.2166 64.0114 46.2109 63.4261ZM59.7088 55.9091V58.6364H51.8253V55.9091H59.7088ZM53.6151 52.7727H57.2457V64.9773C57.2457 65.3125 57.2969 65.5739 57.3991 65.7614C57.5014 65.9432 57.6435 66.071 57.8253 66.1449C58.0128 66.2187 58.2287 66.2557 58.473 66.2557C58.6435 66.2557 58.8139 66.2415 58.9844 66.2131C59.1548 66.179 59.2855 66.1534 59.3764 66.1364L59.9474 68.8381C59.7656 68.8949 59.5099 68.9602 59.1804 69.0341C58.8509 69.1136 58.4503 69.1619 57.9787 69.179C57.1037 69.2131 56.3366 69.0966 55.6776 68.8295C55.0241 68.5625 54.5156 68.1477 54.152 67.5852C53.7884 67.0227 53.6094 66.3125 53.6151 65.4545V52.7727ZM69.0369 55.9091V58.6364H61.1534V55.9091H69.0369ZM62.9432 52.7727H66.5739V64.9773C66.5739 65.3125 66.625 65.5739 66.7273 65.7614C66.8295 65.9432 66.9716 66.071 67.1534 66.1449C67.3409 66.2187 67.5568 66.2557 67.8011 66.2557C67.9716 66.2557 68.142 66.2415 68.3125 66.2131C68.483 66.179 68.6136 66.1534 68.7045 66.1364L69.2756 68.8381C69.0938 68.8949 68.8381 68.9602 68.5085 69.0341C68.179 69.1136 67.7784 69.1619 67.3068 69.179C66.4318 69.2131 65.6648 69.0966 65.0057 68.8295C64.3523 68.5625 63.8438 68.1477 63.4801 67.5852C63.1165 67.0227 62.9375 66.3125 62.9432 65.4545V52.7727ZM77.1761 69.2557C75.8523 69.2557 74.7074 68.9744 73.7415 68.4119C72.7813 67.8437 72.0398 67.054 71.517 66.0426C70.9943 65.0256 70.733 63.8466 70.733 62.5057C70.733 61.1534 70.9943 59.9716 71.517 58.9602C72.0398 57.9432 72.7813 57.1534 73.7415 56.5909C74.7074 56.0227 75.8523 55.7386 77.1761 55.7386C78.5 55.7386 79.642 56.0227 80.6023 56.5909C81.5682 57.1534 82.3125 57.9432 82.8352 58.9602C83.358 59.9716 83.6193 61.1534 83.6193 62.5057C83.6193 63.8466 83.358 65.0256 82.8352 66.0426C82.3125 67.054 81.5682 67.8437 80.6023 68.4119C79.642 68.9744 78.5 69.2557 77.1761 69.2557ZM77.1932 66.4432C77.7955 66.4432 78.2983 66.2727 78.7017 65.9318C79.1051 65.5852 79.4091 65.1136 79.6136 64.517C79.8239 63.9205 79.929 63.2415 79.929 62.4801C79.929 61.7188 79.8239 61.0398 79.6136 60.4432C79.4091 59.8466 79.1051 59.375 78.7017 59.0284C78.2983 58.6818 77.7955 58.5085 77.1932 58.5085C76.5852 58.5085 76.0739 58.6818 75.6591 59.0284C75.25 59.375 74.9403 59.8466 74.7301 60.4432C74.5256 61.0398 74.4233 61.7188 74.4233 62.4801C74.4233 63.2415 74.5256 63.9205 74.7301 64.517C74.9403 65.1136 75.25 65.5852 75.6591 65.9318C76.0739 66.2727 76.5852 66.4432 77.1932 66.4432ZM89.6108 61.4318V69H85.9801V55.9091H89.4403V58.2188H89.5938C89.8835 57.4574 90.3693 56.8551 91.0511 56.4119C91.733 55.9631 92.5597 55.7386 93.5312 55.7386C94.4403 55.7386 95.233 55.9375 95.9091 56.3352C96.5852 56.733 97.1108 57.3011 97.4858 58.0398C97.8608 58.7727 98.0483 59.6477 98.0483 60.6648V69H94.4176V61.3125C94.4233 60.5114 94.2188 59.8864 93.804 59.4375C93.3892 58.983 92.8182 58.7557 92.0909 58.7557C91.6023 58.7557 91.1705 58.8608 90.7955 59.071C90.4261 59.2812 90.1364 59.5881 89.9261 59.9915C89.7216 60.3892 89.6165 60.8693 89.6108 61.4318Z" fill="white"/>
</g>
<defs>
<filter id="filter0_dd_120_12681" x="9" y="35" width="102" height="56" filterUnits="userSpaceOnUse" color-interpolation-filters="sRGB">
<feFlood flood-opacity="0" result="BackgroundImageFix"/>
<feColorMatrix in="SourceAlpha" type="matrix" values="0 0 0 0 0 0 0 0 0 0 0 0 0 0 0 0 0 0 127 0" result="hardAlpha"/>
<feMorphology radius="2" operator="erode" in="SourceAlpha" result="effect1_dropShadow_120_12681"/>
<feOffset dy="5"/>
<feGaussianBlur stdDeviation="1.5"/>
<feComposite in2="hardAlpha" operator="out"/>
<feColorMatrix type="matrix" values="0 0 0 0 0 0 0 0 0 0 0 0 0 0 0 0 0 0 0.02 0"/>
<feBlend mode="normal" in2="BackgroundImageFix" result="effect1_dropShadow_120_12681"/>
<feColorMatrix in="SourceAlpha" type="matrix" values="0 0 0 0 0 0 0 0 0 0 0 0 0 0 0 0 0 0 127 0" result="hardAlpha"/>
<feMorphology radius="2" operator="erode" in="SourceAlpha" result="effect2_dropShadow_120_12681"/>
<feOffset dy="3"/>
<feGaussianBlur stdDeviation="0.5"/>
<feComposite in2="hardAlpha" operator="out"/>
<feColorMatrix type="matrix" values="0 0 0 0 0 0 0 0 0 0 0 0 0 0 0 0 0 0 0.06 0"/>
<feBlend mode="normal" in2="effect1_dropShadow_120_12681" result="effect2_dropShadow_120_12681"/>
<feBlend mode="normal" in="SourceGraphic" in2="effect2_dropShadow_120_12681" result="shape"/>
</filter>
</defs>
</svg>
