<svg width="120" height="120" viewBox="0 0 120 120" fill="none" xmlns="http://www.w3.org/2000/svg">
<mask id="mask0_120_12677" style="mask-type:alpha" maskUnits="userSpaceOnUse" x="12" y="12" width="96" height="96">
<rect x="12" y="12" width="96" height="96" fill="#D9D9D9"/>
</mask>
<g mask="url(#mask0_120_12677)">
<path d="M22.0002 59.9987C22.0002 59.1483 22.2877 58.4359 22.8627 57.8616C23.4377 57.2872 24.1502 57.0001 25.0002 57.0001L95 57.0001C95.85 57.0001 96.5625 57.2877 97.1375 57.8629C97.7125 58.4381 98 59.1509 98 60.0013C98 60.8517 97.7125 61.564 97.1375 62.1384C96.5625 62.7127 95.85 62.9999 95 62.9999L25.0002 62.9999C24.1502 62.9999 23.4377 62.7123 22.8627 62.1371C22.2877 61.5618 22.0002 60.849 22.0002 59.9987Z" fill="#3366FF"/>
</g>
<path d="M42.0396 40.0395C41.3467 40.7324 41.0002 41.5911 41.0002 42.6154L41.0002 45.3845C41.0002 46.4089 41.3467 47.2676 42.0396 47.9605C42.7325 48.6534 43.5912 48.9999 44.6155 48.9999L75.3847 48.9999C76.409 48.9999 77.2677 48.6534 77.9606 47.9605C78.6535 47.2676 79 46.4089 79 45.3845L79 42.6154C79 41.5911 78.6535 40.7324 77.9606 40.0395C77.2677 39.3465 76.409 39 75.3847 39L44.6155 39C43.5912 39 42.7325 39.3465 42.0396 40.0395Z" fill="#15171A"/>
<path d="M42.0396 72.0395C41.3467 72.7324 41.0002 73.5911 41.0002 74.6154L41.0002 77.3845C41.0002 78.4089 41.3467 79.2676 42.0396 79.9605C42.7325 80.6534 43.5912 80.9999 44.6155 80.9999L75.3847 80.9999C76.409 80.9999 77.2677 80.6534 77.9606 79.9605C78.6535 79.2676 79 78.4089 79 77.3845L79 74.6154C79 73.5911 78.6535 72.7324 77.9606 72.0395C77.2677 71.3465 76.409 71 75.3847 71L44.6155 71C43.5912 71 42.7325 71.3465 42.0396 72.0395Z" fill="#15171A"/>
</svg>
