<svg width="120" height="120" viewBox="0 0 120 120" fill="none" xmlns="http://www.w3.org/2000/svg">
<g clip-path="url(#clip0_219_16692)">
<mask id="mask0_219_16692" style="mask-type:alpha" maskUnits="userSpaceOnUse" x="0" y="0" width="120" height="120">
<rect width="120" height="120" fill="#D9D9D9"/>
</mask>
<g mask="url(#mask0_219_16692)">
<path d="M17.5 82.4762V36.8508C17.5 34.3415 18.385 32.2038 20.1551 30.4377C21.9251 28.6717 24.0529 27.7887 26.5385 27.7887H93.4613C95.9468 27.7887 98.0746 28.6717 99.8446 30.4377C101.615 32.2038 102.5 34.3415 102.5 36.8508V82.4762C102.5 84.9855 101.615 87.1232 99.8446 88.8893C98.0746 90.6553 95.9468 91.5383 93.4613 91.5383H26.5385C24.0529 91.5383 21.9251 90.6553 20.1551 88.8893C18.385 87.1232 17.5 84.9855 17.5 82.4762ZM24.9999 46.5387H36.25V35.2886H26.5385C26.0898 35.2886 25.7211 35.4328 25.4326 35.7213C25.1441 36.0097 24.9999 36.3783 24.9999 36.8271V46.5387ZM43.7498 46.5387H94.9999V36.8271C94.9999 36.3783 94.8556 36.0097 94.5671 35.7213C94.2786 35.4328 93.91 35.2886 93.4613 35.2886H43.7498V46.5387ZM43.7498 65.2886H94.9999V54.0384H43.7498V65.2886ZM43.7498 84.0384H93.4613C93.91 84.0384 94.2786 83.8942 94.5671 83.6057C94.8556 83.3173 94.9999 82.9487 94.9999 82.5V72.7883H43.7498V84.0384ZM26.5385 84.0384H36.25V72.7883H24.9999V82.5C24.9999 82.9487 25.1441 83.3173 25.4326 83.6057C25.7211 83.8942 26.0898 84.0384 26.5385 84.0384ZM24.9999 65.2886H36.25V54.0384H24.9999V65.2886Z" fill="#1C1B1F"/>
</g>
</g>
<defs>
<clipPath id="clip0_219_16692">
<rect width="120" height="120" fill="white"/>
</clipPath>
</defs>
</svg>
