<svg width="120" height="120" viewBox="0 0 120 120" fill="none" xmlns="http://www.w3.org/2000/svg">
<g clip-path="url(#clip0_219_16678)">
<mask id="mask0_219_16678" style="mask-type:alpha" maskUnits="userSpaceOnUse" x="0" y="0" width="120" height="120">
<rect width="120" height="120" fill="#D9D9D9"/>
</mask>
<g mask="url(#mask0_219_16678)">
<path d="M50.0769 69.2307H87.4229C88.4421 69.2307 89.1569 68.8045 89.5671 67.9519C89.9774 67.0993 89.8812 66.2884 89.2786 65.5192L78.4037 51.2309C77.9358 50.6283 77.3252 50.327 76.572 50.327C75.8188 50.327 75.2082 50.6283 74.7402 51.2309L64.7114 64.0386L58.721 56.5866C58.2531 55.9841 57.6425 55.6909 56.8892 55.7069C56.1361 55.7229 55.5255 56.0322 55.0576 56.6347L48.2692 65.5192C47.6667 66.2884 47.5705 67.0993 47.9807 67.9519C48.391 68.8045 49.0897 69.2307 50.0769 69.2307ZM40.2885 87.4999C37.7628 87.4999 35.625 86.6249 33.8751 84.8749C32.1251 83.1249 31.2501 80.987 31.2501 78.4614V21.5386C31.2501 19.013 32.1251 16.8751 33.8751 15.1251C35.625 13.3751 37.7628 12.5001 40.2885 12.5001H97.2114C99.7369 12.5001 101.875 13.3751 103.625 15.1251C105.375 16.8751 106.25 19.013 106.25 21.5386V78.4614C106.25 80.987 105.375 83.1249 103.625 84.8749C101.875 86.6249 99.7369 87.4999 97.2114 87.4999H40.2885ZM40.2885 80H97.2114C97.6601 80 98.0287 79.8557 98.3171 79.5672C98.6056 79.2787 98.7499 78.9101 98.7499 78.4614V21.5386C98.7499 21.0899 98.6056 20.7212 98.3171 20.4327C98.0287 20.1442 97.6601 20 97.2114 20H40.2885C39.8397 20 39.4711 20.1442 39.1826 20.4327C38.8941 20.7212 38.7499 21.0899 38.7499 21.5386V78.4614C38.7499 78.9101 38.8941 79.2787 39.1826 79.5672C39.4711 79.8557 39.8397 80 40.2885 80ZM22.7886 105C20.263 105 18.1252 104.125 16.3752 102.375C14.6252 100.625 13.7502 98.4868 13.7502 95.9612V35.2885C13.7502 34.2244 14.1092 33.3334 14.8271 32.6155C15.5451 31.8976 16.4361 31.5386 17.5001 31.5386C18.5642 31.5386 19.4552 31.8976 20.1732 32.6155C20.8912 33.3334 21.2501 34.2244 21.2501 35.2885V95.9612C21.2501 96.41 21.3944 96.7786 21.6829 97.0671C21.9713 97.3556 22.3399 97.4999 22.7886 97.4999H83.4614C84.5254 97.4999 85.4165 97.8588 86.1345 98.5767C86.8524 99.2947 87.2114 100.186 87.2114 101.25C87.2114 102.314 86.8524 103.205 86.1345 103.923C85.4165 104.641 84.5254 105 83.4614 105H22.7886Z" fill="#1C1B1F"/>
</g>
</g>
<defs>
<clipPath id="clip0_219_16678">
<rect width="120" height="120" fill="white"/>
</clipPath>
</defs>
</svg>
