<svg width="120" height="120" viewBox="0 0 120 120" fill="none" xmlns="http://www.w3.org/2000/svg">
<g clip-path="url(#clip0_219_16672)">
<mask id="mask0_219_16672" style="mask-type:alpha" maskUnits="userSpaceOnUse" x="0" y="0" width="123" height="123">
<rect width="123" height="123" fill="#D9D9D9"/>
</mask>
<g mask="url(#mask0_219_16672)">
<path d="M25.625 56.375C23.5291 56.375 21.7239 55.6178 20.2094 54.1034C18.6949 52.5889 17.9377 50.7836 17.9377 48.6877V25.625C17.9377 23.5291 18.6949 21.7239 20.2094 20.2094C21.7239 18.6949 23.5291 17.9377 25.625 17.9377H48.6877C50.7836 17.9377 52.5888 18.6949 54.1034 20.2094C55.6178 21.7239 56.375 23.5291 56.375 25.625V48.6877C56.375 50.7836 55.6178 52.5889 54.1034 54.1034C52.5888 55.6178 50.7836 56.375 48.6877 56.375H25.625ZM25.625 105.062C23.5291 105.062 21.7239 104.305 20.2094 102.791C18.6949 101.276 17.9377 99.471 17.9377 97.375V74.3124C17.9377 72.2164 18.6949 70.4112 20.2094 68.8967C21.7239 67.3822 23.5291 66.625 25.625 66.625H48.6877C50.7836 66.625 52.5888 67.3822 54.1034 68.8967C55.6178 70.4112 56.375 72.2164 56.375 74.3124V97.375C56.375 99.471 55.6178 101.276 54.1034 102.791C52.5888 104.305 50.7836 105.062 48.6877 105.062H25.625ZM74.3124 56.375C72.2164 56.375 70.4112 55.6178 68.8967 54.1034C67.3822 52.5889 66.625 50.7836 66.625 48.6877V25.625C66.625 23.5291 67.3822 21.7239 68.8967 20.2094C70.4112 18.6949 72.2164 17.9377 74.3124 17.9377H97.375C99.471 17.9377 101.276 18.6949 102.791 20.2094C104.305 21.7239 105.062 23.5291 105.062 25.625V48.6877C105.062 50.7836 104.305 52.5889 102.791 54.1034C101.276 55.6178 99.471 56.375 97.375 56.375H74.3124ZM74.3124 105.062C72.2164 105.062 70.4112 104.305 68.8967 102.791C67.3822 101.276 66.625 99.471 66.625 97.375V74.3124C66.625 72.2164 67.3822 70.4112 68.8967 68.8967C70.4112 67.3822 72.2164 66.625 74.3124 66.625H97.375C99.471 66.625 101.276 67.3822 102.791 68.8967C104.305 70.4112 105.062 72.2164 105.062 74.3124V97.375C105.062 99.471 104.305 101.276 102.791 102.791C101.276 104.305 99.471 105.062 97.375 105.062H74.3124ZM25.625 48.6877H48.6877V25.625H25.625V48.6877ZM74.3124 48.6877H97.375V25.625H74.3124V48.6877ZM74.3124 97.375H97.375V74.3124H74.3124V97.375ZM25.625 97.375H48.6877V74.3124H25.625V97.375Z" fill="#1C1B1F"/>
</g>
</g>
<defs>
<clipPath id="clip0_219_16672">
<rect width="120" height="120" fill="white"/>
</clipPath>
</defs>
</svg>
