<svg width="120" height="120" viewBox="0 0 120 120" fill="none" xmlns="http://www.w3.org/2000/svg">
<g clip-path="url(#clip0_219_16802)">
<mask id="mask0_219_16802" style="mask-type:alpha" maskUnits="userSpaceOnUse" x="0" y="0" width="120" height="120">
<rect width="120" height="120" fill="#D9D9D9"/>
</mask>
<g mask="url(#mask0_219_16802)">
<path d="M26.5385 102.5C24.0128 102.5 21.875 101.625 20.125 99.8749C18.375 98.1249 17.5 95.9871 17.5 93.4614V26.5387C17.5 24.013 18.375 21.8752 20.125 20.1252C21.875 18.3752 24.0128 17.5002 26.5385 17.5002H93.4613C95.9869 17.5002 98.1248 18.3752 99.8748 20.1252C101.625 21.8752 102.5 24.013 102.5 26.5387V93.4614C102.5 95.9871 101.625 98.1249 99.8748 99.8749C98.1248 101.625 95.9869 102.5 93.4613 102.5H26.5385ZM29.9999 64.654L46.8365 47.8174C47.3044 47.3495 47.798 47.0194 48.3173 46.827C48.8364 46.6348 49.3973 46.5387 49.9999 46.5387C50.6025 46.5387 51.1633 46.6348 51.6825 46.827C52.2018 47.0194 52.6953 47.3495 53.1633 47.8174L69.9999 64.654L86.8365 47.8174C87.3044 47.3495 87.798 47.0194 88.3173 46.827C88.8364 46.6348 89.3973 46.5387 89.9999 46.5387C90.6025 46.5387 91.1633 46.6348 91.6825 46.827C92.2018 47.0194 92.6953 47.3495 93.1633 47.8174L94.9999 49.654V26.5387C94.9999 26.0899 94.8556 25.7213 94.5671 25.4328C94.2786 25.1443 93.91 25 93.4613 25H26.5385C26.0898 25 25.7211 25.1443 25.4326 25.4328C25.1441 25.7213 24.9999 26.0899 24.9999 26.5387V59.654L29.9999 64.654ZM24.9999 93.4614C24.9999 93.9102 25.1441 94.2788 25.4326 94.5673C25.7211 94.8558 26.0898 95 26.5385 95H93.4613C93.91 95 94.2786 94.8558 94.5671 94.5673C94.8556 94.2788 94.9999 93.9102 94.9999 93.4614V60.2692L89.9999 55.2692L73.1633 72.1057C72.7466 72.5223 72.2658 72.8397 71.721 73.0577C71.1762 73.2756 70.6025 73.3845 69.9999 73.3845C69.3973 73.3845 68.8364 73.2756 68.3173 73.0577C67.798 72.8397 67.3044 72.5223 66.8365 72.1057L49.9999 55.2692L33.1633 72.1057C32.6953 72.5737 32.2017 72.9038 31.6825 73.096C31.1633 73.2884 30.6025 73.3845 29.9999 73.3845C29.3973 73.3845 28.8364 73.2884 28.3173 73.096C27.798 72.9038 27.3044 72.5737 26.8365 72.1057L24.9999 70.2692V93.4614ZM24.9999 93.4614V95V60.2692V67.7689V25V93.4614Z" fill="#1C1B1F"/>
</g>
</g>
<defs>
<clipPath id="clip0_219_16802">
<rect width="120" height="120" fill="white"/>
</clipPath>
</defs>
</svg>
