<svg width="120" height="120" viewBox="0 0 120 120" fill="none" xmlns="http://www.w3.org/2000/svg">
<g clip-path="url(#clip0_219_16686)">
<mask id="mask0_219_16686" style="mask-type:alpha" maskUnits="userSpaceOnUse" x="0" y="0" width="120" height="120">
<rect width="120" height="120" fill="#D9D9D9"/>
</mask>
<g mask="url(#mask0_219_16686)">
<path d="M39.9999 83.7499C41.064 83.7499 41.955 83.3909 42.6729 82.673C43.3908 81.9551 43.7498 81.0641 43.7498 80V40C43.7498 38.9359 43.3908 38.0449 42.6729 37.327C41.955 36.6091 41.064 36.2502 39.9999 36.2502C38.9358 36.2502 38.0448 36.6091 37.3269 37.327C36.609 38.0449 36.25 38.9359 36.25 40V80C36.25 81.0641 36.609 81.9551 37.3269 82.673C38.0448 83.3909 38.9358 83.7499 39.9999 83.7499ZM59.9999 58.7499C61.064 58.7499 61.955 58.3909 62.6729 57.673C63.3908 56.9551 63.7498 56.0641 63.7498 55V40C63.7498 38.9359 63.3908 38.0449 62.6729 37.327C61.955 36.6091 61.064 36.2502 59.9999 36.2502C58.9358 36.2502 58.0448 36.6091 57.3269 37.327C56.609 38.0449 56.25 38.9359 56.25 40V55C56.25 56.0641 56.609 56.9551 57.3269 57.673C58.0448 58.3909 58.9358 58.7499 59.9999 58.7499ZM79.9999 73.7499C81.064 73.7499 81.955 73.3909 82.6729 72.673C83.3908 71.9551 83.7498 71.0641 83.7498 70V40C83.7498 38.9359 83.3908 38.0449 82.6729 37.327C81.955 36.6091 81.064 36.2502 79.9999 36.2502C78.9358 36.2502 78.0448 36.6091 77.3269 37.327C76.609 38.0449 76.25 38.9359 76.25 40V70C76.25 71.0641 76.609 71.9551 77.3269 72.673C78.0448 73.3909 78.9358 73.7499 79.9999 73.7499ZM26.5385 102.5C24.0128 102.5 21.875 101.625 20.125 99.8749C18.375 98.1249 17.5 95.9871 17.5 93.4614V26.5387C17.5 24.013 18.375 21.8752 20.125 20.1252C21.875 18.3752 24.0128 17.5002 26.5385 17.5002H93.4613C95.9869 17.5002 98.1248 18.3752 99.8748 20.1252C101.625 21.8752 102.5 24.013 102.5 26.5387V93.4614C102.5 95.9871 101.625 98.1249 99.8748 99.8749C98.1248 101.625 95.9869 102.5 93.4613 102.5H26.5385ZM26.5385 95H93.4613C93.8459 95 94.1985 94.8398 94.5191 94.5193C94.8396 94.1987 94.9999 93.8461 94.9999 93.4614V26.5387C94.9999 26.154 94.8396 25.8014 94.5191 25.4808C94.1985 25.1603 93.8459 25 93.4613 25H26.5385C26.1538 25 25.8012 25.1603 25.4806 25.4808C25.1601 25.8014 24.9999 26.154 24.9999 26.5387V93.4614C24.9999 93.8461 25.1601 94.1987 25.4806 94.5193C25.8012 94.8398 26.1538 95 26.5385 95Z" fill="#1C1B1F"/>
</g>
</g>
<defs>
<clipPath id="clip0_219_16686">
<rect width="120" height="120" fill="white"/>
</clipPath>
</defs>
</svg>
