<svg width="120" height="120" viewBox="0 0 120 120" fill="none" xmlns="http://www.w3.org/2000/svg">
<rect x="13" y="13" width="94" height="94" rx="9" stroke="#15171A" stroke-width="6"/>
<mask id="mask0_120_12702" style="mask-type:alpha" maskUnits="userSpaceOnUse" x="18" y="18" width="84" height="84">
<rect x="18" y="18" width="84" height="84" fill="#D9D9D9"/>
</mask>
<g mask="url(#mask0_120_12702)">
<path d="M27.5048 88.9949C28.0079 89.4983 28.6314 89.7499 29.3751 89.7499H90.625C91.3687 89.7499 91.9921 89.4986 92.4953 88.996C92.9984 88.4935 93.25 87.8702 93.25 87.1262C93.25 86.3821 92.9984 85.7584 92.4953 85.2551C91.9921 84.7517 91.3687 84.5 90.625 84.5H29.3751C28.6314 84.5 28.0079 84.7513 27.5048 85.2538C27.0017 85.7564 26.7501 86.3797 26.7501 87.1238C26.7501 87.8678 27.0017 88.4915 27.5048 88.9949Z" fill="#15171A"/>
</g>
<mask id="mask1_120_12702" style="mask-type:alpha" maskUnits="userSpaceOnUse" x="24" y="17" width="73" height="73">
<rect x="24" y="17" width="73" height="73" fill="#3366FF"/>
</mask>
<g mask="url(#mask1_120_12702)">
<path d="M54.6009 62.4152L40.5062 77.3374C40.0974 77.7702 39.6235 77.991 39.0844 77.9998C38.5454 78.0085 38.0633 77.7877 37.638 77.3374C37.2127 76.8871 37 76.381 37 75.819C37 75.2571 37.2127 74.751 37.638 74.3007L52.9738 58.0643C53.4387 57.5721 53.9811 57.326 54.6009 57.326C55.2207 57.326 55.7631 57.5721 56.2279 58.0643L64.8875 67.2323L81.6675 47.0113C82.0236 46.5611 82.4736 46.3359 83.0176 46.3359C83.5616 46.3359 84.033 46.5384 84.432 46.9433C84.788 47.3202 84.9767 47.7687 84.9982 48.2888C85.0196 48.8089 84.8523 49.2801 84.4963 49.7025L66.564 71.3632C66.142 71.9008 65.5889 72.1809 64.9048 72.2036C64.2207 72.2263 63.6462 71.9916 63.1813 71.4994L54.6009 62.4152ZM54.6009 46.0792L40.5062 61.0015C40.0974 61.4343 39.6235 61.6551 39.0844 61.6638C38.5454 61.6726 38.0633 61.4518 37.638 61.0015C37.2127 60.5512 37 60.0451 37 59.4831C37 58.9212 37.2127 58.4151 37.638 57.9648L52.9738 41.7284C53.4387 41.2362 53.9811 40.9901 54.6009 40.9901C55.2207 40.9901 55.7631 41.2362 56.2279 41.7284L64.8875 50.8964L81.6675 30.6754C82.0236 30.2251 82.4736 30 83.0176 30C83.5616 30 84.033 30.2025 84.432 30.6074C84.788 30.9843 84.9767 31.4328 84.9982 31.9529C85.0196 32.473 84.8523 32.9442 84.4963 33.3666L66.564 55.0273C66.142 55.5649 65.5889 55.845 64.9048 55.8677C64.2207 55.8904 63.6462 55.6556 63.1813 55.1634L54.6009 46.0792Z" fill="#3366FF"/>
</g>
</svg>
