<svg width="120" height="120" viewBox="0 0 120 120" fill="none" xmlns="http://www.w3.org/2000/svg">
<mask id="mask0_120_12664" style="mask-type:alpha" maskUnits="userSpaceOnUse" x="10" y="10" width="100" height="100">
<rect x="10" y="10" width="100" height="100" fill="#D9D9D9"/>
</mask>
<g mask="url(#mask0_120_12664)">
<path d="M36.544 71.859C35.827 71.859 35.2335 71.6244 34.7634 71.1551C34.2933 70.6859 34.0583 70.0926 34.0583 69.375V53.109H30.2922C29.5746 53.109 28.9812 52.8745 28.512 52.4056C28.0429 51.9368 27.8083 51.3439 27.8083 50.6269C27.8083 49.9099 28.0429 49.3163 28.512 48.8462C28.9812 48.3761 29.5746 48.1411 30.2922 48.1411H35.2602C36.3272 48.1411 37.2216 48.502 37.9434 49.2238C38.6652 49.9456 39.0261 50.8401 39.0261 51.9071V69.375C39.0261 70.0926 38.7917 70.6859 38.3229 71.1551C37.8541 71.6244 37.2611 71.859 36.544 71.859ZM51.6864 71.859C50.6193 71.859 49.7249 71.4981 49.0031 70.7763C48.2813 70.0544 47.9204 69.1599 47.9204 68.0929V61.8429C47.9204 60.7986 48.2736 59.9232 48.98 59.2168C49.6865 58.5103 50.5619 58.1571 51.6062 58.1571H60.5005V53.109H50.4043C49.6867 53.109 49.0933 52.8745 48.6241 52.4056C48.1549 51.9368 47.9204 51.3439 47.9204 50.6269C47.9204 49.9099 48.1549 49.3163 48.6241 48.8462C49.0933 48.3761 49.6867 48.1411 50.4043 48.1411H61.7824C62.8268 48.1411 63.7022 48.4943 64.4087 49.2007C65.1151 49.9072 65.4684 50.7826 65.4684 51.827V58.1571C65.4684 59.2014 65.1151 60.0768 64.4087 60.7832C63.7022 61.4897 62.8268 61.8429 61.7824 61.8429H52.8882V66.8911H62.9844C63.702 66.8911 64.2954 67.1255 64.7645 67.5944C65.2338 68.0632 65.4684 68.6561 65.4684 69.3731C65.4684 70.0901 65.2338 70.6837 64.7645 71.1539C64.2954 71.6239 63.702 71.859 62.9844 71.859H51.6864ZM75.244 71.859C74.5264 71.859 73.9331 71.6245 73.4639 71.1556C72.9947 70.6868 72.76 70.0939 72.76 69.3769C72.76 68.6599 72.9947 68.0663 73.4639 67.5962C73.9331 67.1261 74.5264 66.8911 75.244 66.8911H85.3403V61.8429H78.7697C78.2783 61.8429 77.8482 61.6587 77.4796 61.2901C77.111 60.9215 76.9267 60.4915 76.9267 60C76.9267 59.5086 77.111 59.0785 77.4796 58.7099C77.8482 58.3414 78.2783 58.1571 78.7697 58.1571H85.3403V53.109H75.244C74.5264 53.109 73.9331 52.8745 73.4639 52.4056C72.9947 51.9368 72.76 51.3439 72.76 50.6269C72.76 49.9099 72.9947 49.3163 73.4639 48.8462C73.9331 48.3761 74.5264 48.1411 75.244 48.1411H86.6222C87.6665 48.1411 88.5419 48.4943 89.2484 49.2007C89.9548 49.9072 90.3081 50.7826 90.3081 51.827V68.173C90.3081 69.2174 89.9548 70.0928 89.2484 70.7993C88.5419 71.5057 87.6665 71.859 86.6222 71.859H75.244Z" fill="#3366FF"/>
</g>
<rect x="13" y="32" width="94" height="56" rx="9" stroke="#15171A" stroke-width="6"/>
</svg>
