<svg width="120" height="120" viewBox="0 0 120 120" fill="none" xmlns="http://www.w3.org/2000/svg">
<rect x="13" y="13" width="94" height="94" rx="9" stroke="#15171A" stroke-width="6"/>
<path d="M60 60V29C78 29 91 46 91 60H60Z" fill="#3366FF"/>
<mask id="mask0_120_12706" style="mask-type:alpha" maskUnits="userSpaceOnUse" x="18" y="18" width="84" height="84">
<rect x="18" y="18" width="84" height="84" fill="#D9D9D9"/>
</mask>
<g mask="url(#mask0_120_12706)">
<path d="M62.6248 57.3751H87.8922C87.2192 50.6219 84.528 44.885 79.8187 40.1645C75.1094 35.4439 69.3781 32.7583 62.6248 32.1077V57.3751ZM57.375 87.8923V32.1077C50.1596 32.7583 44.1265 35.7457 39.2759 41.0697C34.4252 46.3938 31.9999 52.7039 31.9999 60C31.9999 67.2962 34.4252 73.6063 39.2759 78.9303C44.1265 84.2544 50.1596 87.2417 57.375 87.8923ZM62.6248 87.8923C69.3781 87.2776 75.1183 84.601 79.8456 79.8625C84.5728 75.1241 87.255 69.3782 87.8922 62.6249H62.6248V87.8923ZM60.0058 93.2499C55.407 93.2499 51.0844 92.3773 47.0379 90.6319C42.9914 88.8866 39.4715 86.518 36.4783 83.5261C33.4849 80.5341 31.1152 77.0157 29.3691 72.971C27.623 68.9264 26.75 64.6047 26.75 60.0059C26.75 55.4071 27.6227 51.0845 29.368 47.038C31.1133 42.9915 33.482 39.4716 36.4739 36.4784C39.4659 33.485 42.9842 31.1153 47.0289 29.3692C51.0736 27.6232 55.3953 26.7501 59.9941 26.7501C64.5928 26.7501 68.9058 27.624 72.933 29.3718C76.9603 31.1195 80.4793 33.4988 83.4903 36.5097C86.5011 39.5206 88.8804 43.0383 90.6282 47.0628C92.3759 51.0873 93.2498 55.4033 93.2498 60.0107C93.2498 64.5626 92.3772 68.8595 90.6318 72.9015C88.8865 76.9434 86.5179 80.4733 83.526 83.491C80.534 86.5086 77.0156 88.8895 72.9709 90.6337C68.9263 92.3779 64.6045 93.2499 60.0058 93.2499Z" fill="#15171A"/>
</g>
</svg>
