<svg width="120" height="120" viewBox="0 0 120 120" fill="none" xmlns="http://www.w3.org/2000/svg">
<rect x="13" y="13" width="94" height="94" rx="9" stroke="#15171A" stroke-width="6"/>
<mask id="mask0_120_12707" style="mask-type:alpha" maskUnits="userSpaceOnUse" x="18" y="18" width="84" height="84">
<rect x="18" y="18" width="84" height="84" fill="#D9D9D9"/>
</mask>
<g mask="url(#mask0_120_12707)">
<path d="M27.5048 88.9949C28.0079 89.4983 28.6314 89.7499 29.3751 89.7499H90.625C91.3687 89.7499 91.9921 89.4986 92.4953 88.996C92.9984 88.4935 93.25 87.8702 93.25 87.1262C93.25 86.3821 92.9984 85.7584 92.4953 85.2551C91.9921 84.7517 91.3687 84.5 90.625 84.5H29.3751C28.6314 84.5 28.0079 84.7513 27.5048 85.2538C27.0017 85.7564 26.7501 86.3797 26.7501 87.1238C26.7501 87.8678 27.0017 88.4915 27.5048 88.9949Z" fill="#15171A"/>
<mask id="mask1_120_12707" style="mask-type:alpha" maskUnits="userSpaceOnUse" x="31" y="28" width="59" height="59">
<rect x="31" y="28" width="59" height="59" fill="#D9D9D9"/>
</mask>
<g mask="url(#mask1_120_12707)">
<path d="M72.508 78.1121C70.1419 78.1121 68.1163 77.2696 66.4314 75.5846C64.7464 73.8997 63.9039 71.8741 63.9039 69.508C63.9039 67.1419 64.7464 65.1163 66.4314 63.4313C68.1163 61.7464 70.1419 60.9039 72.508 60.9039C74.8741 60.9039 76.8997 61.7464 78.5846 63.4313C80.2696 65.1163 81.1121 67.1419 81.1121 69.508C81.1121 71.8741 80.2696 73.8997 78.5846 75.5846C76.8997 77.2696 74.8741 78.1121 72.508 78.1121ZM72.508 74.4246C73.8601 74.4246 75.0175 73.9432 75.9804 72.9804C76.9432 72.0175 77.4247 70.8601 77.4247 69.508C77.4247 68.1559 76.9432 66.9984 75.9804 66.0356C75.0175 65.0727 73.8601 64.5913 72.508 64.5913C71.1559 64.5913 69.9984 65.0727 69.0356 66.0356C68.0727 66.9984 67.5913 68.1559 67.5913 69.508C67.5913 70.8601 68.0727 72.0175 69.0356 72.9804C69.9984 73.9432 71.1559 74.4246 72.508 74.4246ZM48.492 70.7371C46.1259 70.7371 44.1004 69.8946 42.4154 68.2096C40.7304 66.5247 39.8879 64.4991 39.8879 62.133C39.8879 59.7669 40.7304 57.7413 42.4154 56.0563C44.1004 54.3714 46.1259 53.5289 48.492 53.5289C50.8581 53.5289 52.8837 54.3714 54.5687 56.0563C56.2536 57.7413 57.0961 59.7669 57.0961 62.133C57.0961 64.4991 56.2536 66.5247 54.5687 68.2096C52.8837 69.8946 50.8581 70.7371 48.492 70.7371ZM48.492 67.0496C49.8441 67.0496 51.0016 66.5682 51.9644 65.6054C52.9273 64.6425 53.4087 63.4851 53.4087 62.133C53.4087 60.7809 52.9273 59.6234 51.9644 58.6606C51.0016 57.6977 49.8441 57.2163 48.492 57.2163C47.14 57.2163 45.9825 57.6977 45.0196 58.6606C44.0568 59.6234 43.5754 60.7809 43.5754 62.133C43.5754 63.4851 44.0568 64.6425 45.0196 65.6054C45.9825 66.5682 47.14 67.0496 48.492 67.0496ZM58.0417 51.8268C55.6756 51.8268 53.65 50.9844 51.9651 49.2994C50.2801 47.6144 49.4376 45.5889 49.4376 43.2228C49.4376 40.8567 50.2801 38.8311 51.9651 37.1462C53.65 35.4612 55.6756 34.6187 58.0417 34.6187C60.4078 34.6187 62.4333 35.4612 64.1183 37.1462C65.8033 38.8311 66.6458 40.8567 66.6458 43.2228C66.6458 45.5889 65.8033 47.6144 64.1183 49.2994C62.4333 50.9844 60.4078 51.8268 58.0417 51.8268ZM58.0417 48.1395C59.3938 48.1395 60.5512 47.658 61.5141 46.6952C62.4769 45.7324 62.9584 44.5749 62.9584 43.2228C62.9584 41.8707 62.4769 40.7133 61.5141 39.7504C60.5512 38.7876 59.3938 38.3061 58.0417 38.3061C56.6896 38.3061 55.5321 38.7876 54.5693 39.7504C53.6064 40.7133 53.125 41.8707 53.125 43.2228C53.125 44.5749 53.6064 45.7324 54.5693 46.6952C55.5321 47.658 56.6896 48.1395 58.0417 48.1395Z" fill="#3366FF"/>
</g>
</g>
</svg>
