<svg width="36" height="36" viewBox="0 0 36 36" fill="none" xmlns="http://www.w3.org/2000/svg">
<path d="M15.4352 5.79006L2.73015 27.0001C2.46821 27.4537 2.3296 27.968 2.32814 28.4918C2.32667 29.0157 2.46239 29.5308 2.72179 29.9859C2.9812 30.4409 3.35524 30.8202 3.80672 31.0858C4.25819 31.3515 4.77135 31.4943 5.29515 31.5001H30.7052C31.229 31.4943 31.7421 31.3515 32.1936 31.0858C32.6451 30.8202 33.0191 30.4409 33.2785 29.9859C33.5379 29.5308 33.6736 29.0157 33.6722 28.4918C33.6707 27.968 33.5321 27.4537 33.2702 27.0001L20.5652 5.79006C20.2977 5.34922 19.9212 4.98474 19.4719 4.73179C19.0227 4.47884 18.5158 4.34595 18.0002 4.34595C17.4845 4.34595 16.9776 4.47884 16.5284 4.73179C16.0791 4.98474 15.7026 5.34922 15.4352 5.79006Z" fill="#CB3F36"/>
<path d="M18 13.5V19.5" stroke="white" stroke-width="2.66" stroke-linecap="round" stroke-linejoin="round"/>
<path d="M18 25.5H18.015" stroke="white" stroke-width="2.66" stroke-linecap="round" stroke-linejoin="round"/>
</svg>
