<svg width="326" height="82" viewBox="0 0 326 82" fill="none" xmlns="http://www.w3.org/2000/svg">
<g clip-path="url(#clip0_1345_210014)">
<path d="M326 26.6499H0V28.0166H326V26.6499Z" fill="#E7E7E9"/>
<path d="M216.654 0V27.3333H218.012V0H216.654ZM109.346 27.3333V0H107.987V27.3333H109.346Z" fill="#E7E7E9"/>
<path d="M326 53.9834H0V55.3501H326V53.9834Z" fill="#E7E7E9"/>
<path d="M214.617 27.3333H111.384C109.883 27.3333 108.667 28.557 108.667 30.0666V51.9333C108.667 53.4428 109.883 54.6666 111.384 54.6666H214.617C216.117 54.6666 217.334 53.4428 217.334 51.9333V30.0666C217.334 28.557 216.117 27.3333 214.617 27.3333Z" fill="#F4F4F5"/>
<path d="M214.617 27.3333H111.384C109.883 27.3333 108.667 28.557 108.667 30.0666V51.9333C108.667 53.4428 109.883 54.6666 111.384 54.6666H214.617C216.117 54.6666 217.334 53.4428 217.334 51.9333V30.0666C217.334 28.557 216.117 27.3333 214.617 27.3333Z" stroke="#3366FF" stroke-width="2"/>
<path d="M117.088 46.4666V36.6266H118.507V40.8701H123.397V36.6266H124.824V46.4666H123.397V42.2163H118.507V46.4666H117.088ZM129.577 46.4666V37.9728H126.324V36.6266H134.25V37.9728H130.997V46.4666H129.577ZM138.991 46.4666V37.9728H135.738V36.6266H143.664V37.9728H140.41V46.4666H138.991ZM145.159 46.4666V36.6266H149.112C149.207 36.6266 149.324 36.6311 149.465 36.6403C149.605 36.6448 149.738 36.6585 149.866 36.6813C150.409 36.7678 150.861 36.9546 151.224 37.2416C151.591 37.5286 151.864 37.8908 152.046 38.3281C152.227 38.7655 152.318 39.2483 152.318 39.7768C152.318 40.3098 152.227 40.795 152.046 41.2323C151.864 41.6696 151.591 42.0318 151.224 42.3188C150.861 42.6058 150.409 42.7926 149.866 42.8791C149.738 42.8973 149.602 42.911 149.458 42.9201C149.317 42.9293 149.202 42.9338 149.112 42.9338H146.579V46.4666H145.159ZM146.579 41.5808H149.058C149.147 41.5808 149.248 41.5763 149.356 41.5671C149.469 41.558 149.575 41.5421 149.676 41.5193C149.965 41.451 150.199 41.3256 150.375 41.1435C150.552 40.9566 150.678 40.7426 150.756 40.5011C150.832 40.2596 150.871 40.0183 150.871 39.7768C150.871 39.5353 150.832 39.2961 150.756 39.0593C150.678 38.8178 150.552 38.606 150.375 38.4238C150.199 38.237 149.965 38.1095 149.676 38.0411C149.575 38.0138 149.469 37.9956 149.356 37.9865C149.248 37.9773 149.147 37.9728 149.058 37.9728H146.579V41.5808ZM157.627 46.6716C156.925 46.6716 156.292 46.551 155.726 46.3095C155.165 46.0635 154.7 45.715 154.333 45.264C153.971 44.8085 153.736 44.2686 153.627 43.6445L155.108 43.419C155.257 44.0203 155.569 44.4895 156.045 44.8266C156.52 45.1591 157.075 45.3255 157.709 45.3255C158.103 45.3255 158.465 45.264 158.796 45.141C159.126 45.0135 159.39 44.8335 159.59 44.6011C159.794 44.3643 159.896 44.0818 159.896 43.7538C159.896 43.5761 159.865 43.419 159.801 43.2823C159.742 43.1456 159.658 43.0271 159.549 42.927C159.445 42.8221 159.316 42.7333 159.162 42.6605C159.013 42.583 158.847 42.517 158.666 42.4623L156.16 41.7175C155.916 41.6446 155.667 41.5511 155.413 41.4373C155.159 41.3188 154.927 41.1663 154.714 40.9795C154.506 40.7881 154.336 40.5535 154.204 40.2756C154.073 39.9931 154.007 39.6515 154.007 39.2506C154.007 38.6448 154.161 38.1323 154.469 37.7131C154.782 37.2895 155.203 36.9706 155.732 36.7565C156.262 36.5378 156.856 36.4285 157.512 36.4285C158.173 36.4376 158.764 36.556 159.285 36.7838C159.81 37.0116 160.245 37.3396 160.589 37.7678C160.938 38.1915 161.177 38.7063 161.308 39.3121L159.787 39.5718C159.719 39.2028 159.574 38.8861 159.352 38.622C159.131 38.3531 158.859 38.1481 158.537 38.007C158.216 37.8611 157.868 37.786 157.492 37.7815C157.129 37.7723 156.796 37.827 156.493 37.9455C156.194 38.064 155.954 38.2301 155.773 38.4443C155.597 38.6585 155.508 38.9045 155.508 39.1823C155.508 39.4556 155.587 39.6766 155.746 39.8451C155.905 40.0136 156.099 40.1481 156.33 40.2483C156.565 40.344 156.799 40.4236 157.03 40.4875L158.836 41C159.063 41.0638 159.318 41.1503 159.604 41.2596C159.893 41.3645 160.172 41.5125 160.439 41.7038C160.711 41.8951 160.935 42.1503 161.111 42.4691C161.288 42.7835 161.376 43.1798 161.376 43.6581C161.376 44.1546 161.277 44.592 161.078 44.9701C160.878 45.3436 160.605 45.658 160.256 45.9131C159.912 46.1636 159.513 46.3528 159.06 46.4803C158.608 46.6078 158.13 46.6716 157.627 46.6716ZM163.775 44.69V43.1798H165.276V44.69H163.775ZM163.782 39.9135V38.4033H165.283V39.9135H163.782ZM169.48 36.6266H170.913L168.305 46.4666H166.872L169.48 36.6266ZM173.668 36.6266H175.101L172.493 46.4666H171.06L173.668 36.6266ZM177.281 46.4666V36.6266H183.529V37.9728H178.701V40.7335H182.714V42.0796H178.701V45.1205H183.529V46.4666H177.281ZM184.753 46.4666L188.088 41.4851L184.842 36.6266H186.58L188.964 40.2756L191.334 36.6266H193.08L189.833 41.4851L193.161 46.4666H191.423L188.964 42.7015L186.499 46.4666H184.753ZM195.331 46.4666V44.9565H196.832V46.4666H195.331ZM198.136 46.4666V44.9565H199.637V46.4666H198.136ZM200.947 46.4666V44.9565H202.448V46.4666H200.947Z" fill="#6A7184"/>
<path d="M216.654 54.6667V82.0001H218.012V54.6667H216.654ZM109.346 82.0001V54.6667H107.987V82.0001H109.346Z" fill="#E7E7E9"/>
<path d="M212.381 44.6166L211.221 43.4502V45.0999V61.4999V63.1496L212.381 61.9832L215.789 58.5535L218.764 64.5388L218.891 64.7966L219.164 64.8842L219.371 64.2332C219.164 64.8842 219.164 64.8842 219.164 64.8842L219.166 64.8846L219.167 64.8851L219.171 64.8865L219.183 64.8903L219.224 64.9022C219.257 64.9118 219.303 64.9244 219.358 64.9382C219.468 64.9655 219.623 64.999 219.799 65.0215C219.97 65.0438 220.18 65.0582 220.394 65.0381C220.603 65.0185 220.866 64.9621 221.105 64.8018C221.403 64.6026 221.699 64.3054 221.897 63.9581C222.09 63.6199 222.248 63.1182 222.036 62.6038C221.556 61.4467 220.695 59.7152 219.963 58.2906C219.659 57.6965 219.373 57.1513 219.145 56.7166H222.767H224.406L223.247 55.55L212.381 44.6166Z" fill="#E7E7E9"/>
<path d="M219.164 64.8842L218.891 64.7966L218.764 64.5388L215.789 58.5535L212.381 61.9832L211.221 63.1496V61.4999V45.0999V43.4502L212.381 44.6166L223.247 55.55L224.406 56.7166H222.767H219.145C219.373 57.1513 219.659 57.6965 219.963 58.2906C220.695 59.7152 221.556 61.4467 222.036 62.6038C222.248 63.1182 222.09 63.6199 221.897 63.9581C221.699 64.3054 221.403 64.6026 221.105 64.8018C220.866 64.9621 220.603 65.0185 220.394 65.0381C220.18 65.0582 219.97 65.0438 219.799 65.0215C219.623 64.999 219.468 64.9655 219.358 64.9382C219.303 64.9244 219.257 64.9118 219.224 64.9022L219.183 64.8903L219.171 64.8865L219.167 64.8851L219.166 64.8846L219.164 64.8842ZM219.164 64.8842L219.371 64.2332C219.164 64.8842 219.164 64.8842 219.164 64.8842Z" stroke="#9AA2AF"/>
</g>
<defs>
<clipPath id="clip0_1345_210014">
<rect width="326" height="82" fill="white"/>
</clipPath>
</defs>
</svg>
