<svg width="56" height="56" viewBox="0 0 56 56" fill="none" xmlns="http://www.w3.org/2000/svg">
<rect x="4" y="8" width="48" height="40" rx="4" fill="#E7E7E9"/>
<rect x="7" y="18" width="42" height="6" rx="2" fill="white"/>
<path d="M7 28C7 26.8954 7.89543 26 9 26H47C48.1046 26 49 26.8954 49 28V43C49 44.1046 48.1046 45 47 45H9C7.89543 45 7 44.1046 7 43V28Z" fill="#F9F9FA"/>
<mask id="path-5-inside-1_1385_56911" fill="white">
<path d="M4 12C4 9.79086 5.79086 8 8 8H48C50.2091 8 52 9.79086 52 12V16H4V12Z"/>
</mask>
<path d="M4 8H52H4ZM52 17H4V15H52V17ZM4 16V8V16ZM52 8V16V8Z" fill="#9AA2AF" mask="url(#path-5-inside-1_1385_56911)"/>
<rect x="7" y="10" width="4" height="4" rx="2" fill="#FF4A3F"/>
<rect x="12" y="10" width="4" height="4" rx="2" fill="#FCBE3A"/>
<rect x="17" y="10" width="4" height="4" rx="2" fill="#1FAB51"/>
<path d="M21.454 39V35.754C21.454 35.446 21.426 35.15 21.37 34.866C21.318 34.582 21.224 34.328 21.088 34.104C20.956 33.876 20.776 33.696 20.548 33.564C20.324 33.432 20.04 33.366 19.696 33.366C19.428 33.366 19.184 33.412 18.964 33.504C18.748 33.592 18.562 33.728 18.406 33.912C18.25 34.096 18.128 34.328 18.04 34.608C17.956 34.884 17.914 35.21 17.914 35.586L17.212 35.37C17.212 34.742 17.324 34.204 17.548 33.756C17.776 33.304 18.094 32.958 18.502 32.718C18.914 32.474 19.398 32.352 19.954 32.352C20.374 32.352 20.732 32.418 21.028 32.55C21.324 32.682 21.57 32.858 21.766 33.078C21.962 33.294 22.116 33.538 22.228 33.81C22.34 34.078 22.418 34.352 22.462 34.632C22.51 34.908 22.534 35.17 22.534 35.418V39H21.454ZM16.834 39V30.36H17.794V35.13H17.914V39H16.834ZM27.7119 39C27.3279 39.076 26.9479 39.106 26.5719 39.09C26.1999 39.078 25.8679 39.004 25.5759 38.868C25.2839 38.728 25.0619 38.512 24.9099 38.22C24.7819 37.964 24.7119 37.706 24.6999 37.446C24.6919 37.182 24.6879 36.884 24.6879 36.552V30.72H25.7559V36.504C25.7559 36.768 25.7579 36.994 25.7619 37.182C25.7699 37.37 25.8119 37.532 25.8879 37.668C26.0319 37.924 26.2599 38.074 26.5719 38.118C26.8879 38.162 27.2679 38.15 27.7119 38.082V39ZM23.3739 33.402V32.52H27.7119V33.402H23.3739ZM31.9299 39C31.5459 39.076 31.1659 39.106 30.7899 39.09C30.4179 39.078 30.0859 39.004 29.7939 38.868C29.5019 38.728 29.2799 38.512 29.1279 38.22C28.9999 37.964 28.9299 37.706 28.9179 37.446C28.9099 37.182 28.9059 36.884 28.9059 36.552V30.72H29.9739V36.504C29.9739 36.768 29.9759 36.994 29.9799 37.182C29.9879 37.37 30.0299 37.532 30.1059 37.668C30.2499 37.924 30.4779 38.074 30.7899 38.118C31.1059 38.162 31.4859 38.15 31.9299 38.082V39ZM27.5919 33.402V32.52H31.9299V33.402H27.5919ZM36.2223 39.18C35.6143 39.18 35.1023 39.03 34.6863 38.73C34.2703 38.426 33.9543 38.016 33.7383 37.5C33.5263 36.98 33.4203 36.398 33.4203 35.754C33.4203 35.102 33.5263 34.518 33.7383 34.002C33.9543 33.486 34.2703 33.08 34.6863 32.784C35.1063 32.488 35.6203 32.34 36.2283 32.34C36.8283 32.34 37.3443 32.49 37.7763 32.79C38.2123 33.086 38.5463 33.492 38.7783 34.008C39.0103 34.524 39.1263 35.106 39.1263 35.754C39.1263 36.402 39.0103 36.984 38.7783 37.5C38.5463 38.016 38.2123 38.426 37.7763 38.73C37.3443 39.03 36.8263 39.18 36.2223 39.18ZM33.2403 41.88V32.52H34.1943V37.29H34.3143V41.88H33.2403ZM36.0903 38.202C36.5183 38.202 36.8723 38.094 37.1523 37.878C37.4323 37.662 37.6423 37.37 37.7823 37.002C37.9223 36.63 37.9923 36.214 37.9923 35.754C37.9923 35.298 37.9223 34.886 37.7823 34.518C37.6463 34.15 37.4343 33.858 37.1463 33.642C36.8623 33.426 36.5003 33.318 36.0603 33.318C35.6403 33.318 35.2923 33.422 35.0163 33.63C34.7403 33.834 34.5343 34.12 34.3983 34.488C34.2623 34.852 34.1943 35.274 34.1943 35.754C34.1943 36.226 34.2603 36.648 34.3923 37.02C34.5283 37.388 34.7363 37.678 35.0163 37.89C35.2963 38.098 35.6543 38.202 36.0903 38.202Z" fill="#1F293A"/>
</svg>
