<svg width="24" height="24" viewBox="0 0 24 24" fill="none" xmlns="http://www.w3.org/2000/svg">
<path d="M5.66667 4.5H3.33333C3.14924 4.5 3 4.64924 3 4.83333V7.16667C3 7.35076 3.14924 7.5 3.33333 7.5H5.66667C5.85076 7.5 6 7.35076 6 7.16667V4.83333C6 4.64924 5.85076 4.5 5.66667 4.5Z" fill="currentColor" stroke="currentColor" stroke-width="2" stroke-linecap="round" stroke-linejoin="round"/>
<path d="M10.5 6L21 6" stroke="currentColor" stroke-width="2" stroke-linecap="round" stroke-linejoin="round"/>
<path d="M5.66667 10.5H3.33333C3.14924 10.5 3 10.6492 3 10.8333V13.1667C3 13.3508 3.14924 13.5 3.33333 13.5H5.66667C5.85076 13.5 6 13.3508 6 13.1667V10.8333C6 10.6492 5.85076 10.5 5.66667 10.5Z" fill="currentColor" stroke="currentColor" stroke-width="2" stroke-linecap="round" stroke-linejoin="round"/>
<path d="M10.5 12L21 12" stroke="currentColor" stroke-width="2" stroke-linecap="round" stroke-linejoin="round"/>
<path d="M5.66667 16.5H3.33333C3.14924 16.5 3 16.6492 3 16.8333V19.1667C3 19.3508 3.14924 19.5 3.33333 19.5H5.66667C5.85076 19.5 6 19.3508 6 19.1667V16.8333C6 16.6492 5.85076 16.5 5.66667 16.5Z" stroke="currentColor" stroke-width="2" stroke-linecap="round" stroke-linejoin="round"/>
<path d="M10.5 18L21 18" stroke="currentColor" stroke-width="2" stroke-linecap="round" stroke-linejoin="round"/>
</svg>
