<svg width="24" height="24" viewBox="0 0 24 24" fill="none" xmlns="http://www.w3.org/2000/svg">
<path d="M11.9503 20C15.8163 20 18.9503 16.866 18.9503 13C18.9503 9.13401 15.8163 6 11.9503 6C8.08432 6 4.95032 9.13401 4.95032 13C4.95032 16.866 8.08432 20 11.9503 20Z" stroke="currentColor" stroke-width="2" stroke-linecap="round" stroke-linejoin="round"/>
<path d="M11.9503 10V13L13.4503 14.5" stroke="currentColor" stroke-width="2" stroke-linecap="round" stroke-linejoin="round"/>
<path d="M12 3L12 6" stroke="currentColor" stroke-width="2" stroke-linecap="round" stroke-linejoin="round"/>
<path d="M19.2929 7.12129C19.6834 6.73077 19.6834 6.0976 19.2929 5.70708C18.9024 5.31655 18.2692 5.31655 17.8787 5.70708L19.2929 7.12129ZM17.8787 5.70708L15.8787 7.70708L17.2929 9.12129L19.2929 7.12129L17.8787 5.70708Z" fill="currentColor"/>
<path d="M13.5 3H10.5" stroke="currentColor" stroke-width="2" stroke-linecap="round" stroke-linejoin="round"/>
</svg>
