<svg xmlns="http://www.w3.org/2000/svg" width="16" height="16" viewBox="0 0 16 16" fill="none">
  <path d="M7.5 14.6667L3.99999 14.6667C3.64637 14.6667 3.30723 14.5262 3.05718 14.2762C2.80713 14.0261 2.66666 13.687 2.66666 13.3334V2.66671C2.66666 2.31309 2.80713 1.97395 3.05718 1.7239C3.30723 1.47385 3.64637 1.33337 3.99999 1.33337H8.66666L13.3333 6.00004V8.5" stroke="currentColor" stroke-width="1.33333" stroke-linecap="round" stroke-linejoin="round"/>
  <path d="M8.66666 1.33337V6.00004H13.3333" stroke="currentColor" stroke-width="1.33333" stroke-linecap="round" stroke-linejoin="round"/>
  <path d="M10.5 14C11.8807 14 13 12.8807 13 11.5C13 10.1193 11.8807 9 10.5 9C9.11929 9 8 10.1193 8 11.5C8 12.8807 9.11929 14 10.5 14Z" stroke="currentColor" stroke-width="1.33333" stroke-linecap="round" stroke-linejoin="round"/>
  <path d="M13.5286 15.4714C13.7889 15.7318 14.2111 15.7318 14.4714 15.4714C14.7318 15.2111 14.7318 14.7889 14.4714 14.5286L13.5286 15.4714ZM13.4714 13.5286L13 13.0572L12.0572 14L12.5286 14.4714L13.4714 13.5286ZM14.4714 14.5286L13.4714 13.5286L12.5286 14.4714L13.5286 15.4714L14.4714 14.5286Z" fill="currentColor"/>
</svg>