<svg width="20" height="20" viewBox="0 0 20 20" fill="none" xmlns="http://www.w3.org/2000/svg">
<g id="Frame">
<path id="Vector" d="M16.6797 1H3.32031C2.03884 1 1 2.03884 1 3.32031V16.6797C1 17.9612 2.03884 19 3.32031 19H16.6797C17.9612 19 19 17.9612 19 16.6797V3.32031C19 2.03884 17.9612 1 16.6797 1Z" fill="white"/>
<path id="Vector_2" d="M16.6797 1H3.32031C2.03884 1 1 2.03884 1 3.32031V16.6797C1 17.9612 2.03884 19 3.32031 19H16.6797C17.9612 19 19 17.9612 19 16.6797V3.32031C19 2.03884 17.9612 1 16.6797 1Z" fill="url(#paint0_linear_304_21100)"/>
<path id="Vector_3" d="M4.86719 9.50131L7.31271 11.9484V15.8224H4.86719V9.50131ZM15.139 4.29891V15.4234C15.139 15.6518 14.9527 15.8365 14.7244 15.8365C14.6148 15.8365 14.51 15.7942 14.4318 15.716L4.86719 7.0902V4.64938C4.86719 4.42094 5.05182 4.23633 5.28025 4.23633H5.30217C5.41169 4.23633 5.51807 4.28014 5.59474 4.35681L12.6919 10.5151V4.29891H15.139Z" fill="white"/>
</g>
<defs>
<linearGradient id="paint0_linear_304_21100" x1="9.99859" y1="25.0599" x2="9.99859" y2="-4.04602" gradientUnits="userSpaceOnUse">
<stop stop-color="#4351E8"/>
<stop offset="1" stop-color="#2A1EA5"/>
</linearGradient>
</defs>
</svg>
