<svg width="17" height="16" viewBox="0 0 17 16" fill="none" xmlns="http://www.w3.org/2000/svg">
<g id="refresh-cw" clip-path="url(#clip0_195_4453)">
<path id="Vector" d="M1.16699 13.3335V9.3335H5.16699" stroke="currentColor" stroke-width="1.33333" stroke-linecap="round" stroke-linejoin="round"/>
<path id="Vector_2" d="M15.833 2.6665V6.6665H11.833" stroke="currentColor" stroke-width="1.33333" stroke-linecap="round" stroke-linejoin="round"/>
<path id="Vector_3" d="M2.84033 5.99989C3.17844 5.04441 3.75308 4.19016 4.51064 3.51683C5.26819 2.84351 6.18397 2.37306 7.17252 2.14939C8.16106 1.92572 9.19016 1.95612 10.1638 2.23774C11.1374 2.51936 12.0238 3.04303 12.7403 3.75989L15.8337 6.66655M1.16699 9.33322L4.26033 12.2399C4.97682 12.9567 5.86324 13.4804 6.83687 13.762C7.81049 14.0437 8.83959 14.0741 9.82813 13.8504C10.8167 13.6267 11.7325 13.1563 12.49 12.4829C13.2476 11.8096 13.8222 10.9554 14.1603 9.99989" stroke="currentColor" stroke-width="1.33333" stroke-linecap="round" stroke-linejoin="round"/>
</g>
<defs>
<clipPath id="clip0_195_4453">
<rect width="16" height="16" fill="white" transform="translate(0.5)"/>
</clipPath>
</defs>
</svg>
