<svg width="16" height="16" viewBox="0 0 16 16" fill="none" xmlns="http://www.w3.org/2000/svg">
<g id="strike-through">
<path id="Vector" d="M8.78581 12.8144L8.7858 12.8144L8.78075 12.8161C8.42892 12.9374 8.04691 13 7.63125 13C7.0617 13 6.56387 12.8877 6.12788 12.6731C5.69479 12.4578 5.33776 12.1536 5.05203 11.7548C4.85919 11.4783 4.71002 11.1643 4.60653 10.8088C4.60578 10.8063 4.60572 10.805 4.60571 10.8049L4.60571 10.8049L4.60573 10.8045C4.60577 10.8043 4.60639 10.801 4.61027 10.7953C4.61881 10.7828 4.63803 10.7668 4.66787 10.7613C4.69066 10.7571 4.71986 10.7599 4.75705 10.7832C4.79698 10.8084 4.83722 10.8531 4.86164 10.9117C5.05932 11.386 5.35201 11.7865 5.74021 12.1031L5.74019 12.1031L5.74442 12.1065C6.30071 12.5503 6.95605 12.7692 7.6875 12.7692C8.15265 12.7692 8.58829 12.6851 8.98574 12.507L8.98575 12.507L8.98917 12.5054C9.39374 12.3204 9.72685 12.0507 9.97355 11.6945C10.2302 11.3238 10.35 10.8938 10.35 10.4266C10.35 10.2805 10.3386 10.1376 10.313 10H10.4865C10.4944 10.0483 10.5 10.1354 10.5 10.3537C10.5 10.8007 10.4227 11.1786 10.2807 11.4978L10.2807 11.4978L10.2789 11.5019C10.1366 11.8294 9.94116 12.0969 9.69311 12.3122C9.437 12.5295 9.13644 12.6977 8.78581 12.8144Z" fill="#374151" stroke="currentColor"/>
<path id="Vector_2" d="M7.07937 7.54091L6.69045 7.41689C6.69002 7.41675 6.68958 7.41661 6.68914 7.41648C6.4336 7.33643 6.17378 7.23601 5.9098 7.11611L5.89921 7.11129L5.89927 7.11117C5.59699 6.96529 5.33529 6.76737 5.12024 6.51703L5.11627 6.51241L5.1163 6.51238C4.85636 6.2022 4.74739 5.81798 4.74739 5.40605C4.74739 4.97764 4.87095 4.58359 5.12364 4.24341C5.36495 3.91369 5.68549 3.66379 6.06999 3.4901C6.45874 3.31449 6.88407 3.23467 7.33682 3.24033L7.07937 7.54091ZM7.07937 7.54091L6.14982 7.55395C5.94013 7.48004 5.73664 7.39061 5.53917 7.28553C5.3363 7.17295 5.15642 7.03547 4.99793 6.87257C4.85081 6.71669 4.72946 6.52733 4.63646 6.29832C4.55046 6.08189 4.5 5.80784 4.5 5.46475C4.5 4.91851 4.62632 4.48585 4.85438 4.14174C5.09772 3.77635 5.42558 3.49592 5.84993 3.29831C6.27823 3.09886 6.77169 2.99574 7.34021 3.00013L7.34026 3.00014C7.91665 3.00453 8.41327 3.11833 8.84083 3.32988L8.84082 3.32991L8.84588 3.33235C9.27908 3.54065 9.63452 3.83839 9.91773 4.23096L9.91772 4.23096L9.91958 4.23351C10.1115 4.49596 10.2638 4.79674 10.3746 5.13963C10.3771 5.14708 10.3767 5.15078 10.3764 5.15294C10.3759 5.15595 10.3743 5.1621 10.3688 5.17053C10.3569 5.18863 10.3317 5.20933 10.2942 5.21656C10.2642 5.22235 10.2252 5.21858 10.1748 5.18558C10.1209 5.15027 10.0671 5.08814 10.0343 5.00929C9.94734 4.80085 9.83757 4.60662 9.70464 4.42792C9.43271 4.05163 9.08781 3.75898 8.67415 3.55645C8.26193 3.34973 7.81366 3.2461 7.33709 3.24033L7.07937 7.54091Z" fill="#374151" stroke="currentColor"/>
<path id="Vector_3" d="M2.66675 8H13.3334" stroke="currentColor" stroke-width="1.33333" stroke-linecap="round" stroke-linejoin="round"/>
</g>
</svg>
