<svg width="24" height="24" viewBox="0 0 24 24" fill="none" xmlns="http://www.w3.org/2000/svg">
<path d="M20 12V6.66667C20 5.74619 19.2041 5 18.2222 5H5.77778C4.79594 5 4 5.74619 4 6.66667V18.3333C4 19.2538 4.79594 20 5.77778 20H13" stroke="currentColor" stroke-width="2" stroke-linecap="round" stroke-linejoin="round"/>
<path d="M4 9.85706H19.4286" stroke="currentColor" stroke-width="2" stroke-linecap="round" stroke-linejoin="round"/>
<path d="M15.1428 3V6.42857" stroke="currentColor" stroke-width="2" stroke-linecap="round" stroke-linejoin="round"/>
<path d="M8.28564 3V6.42857" stroke="currentColor" stroke-width="2" stroke-linecap="round" stroke-linejoin="round"/>
<path d="M15 17.631L16.6666 19.3186V21.9903H15V17.631ZM22 14.0432V21.7151C22 21.8727 21.8731 22 21.7174 22C21.6428 22 21.5714 21.9709 21.5181 21.9169L15 15.9682V14.2849C15 14.1273 15.1258 14 15.2815 14H15.2964C15.3711 14 15.4436 14.0302 15.4958 14.0831L20.3324 18.3302V14.0432H22Z" stroke="#3366FF" fill="#3366FF"/>
</svg>
